<svg xmlns="http://www.w3.org/2000/svg" width="416" height="365"><g fill="none"><path fill="#001489" d="M28.16 363.616c-.89-14.501 6.279-28.347 18.625-35.96 12.205-7.544 27.62-7.825 40.13-.75 7.24-9.137 32.167-38.21 72.368-43.552 49.432-6.583 101.768 25.325 126.671 80.38-85.931-.047-171.862-.07-257.794-.118z"/><path fill="#CCE4FF" d="M413.563 255.381c1.522 0 1.522 0 1.522 1.5v104.907c0 .516.024 1.008.047 1.523-.304.398-.75.375-1.171.422-.422.023-.867.023-1.289.023H317.23c-.796 0-1.64.164-2.413-.304-.515-.703-.35-1.5-.35-2.273V310.6 258.38c0-2.155 0-2.155-2.203-2.155-1.476 0-2.975.023-4.451-.024-.492-.023-1.125.14-1.383-.562"/><path fill="#FFF" d="M179.172 138.62h53.508v47.511h-53.508zM206.301 255.592c11.901-.023 24.997 0 36.898 0 .07-.117.164-.117.234-.023.352.023.703.093 1.055.093h61.473c.164 0 .304-.023.468-.023 2.413.305 4.827.094 7.216.117.843 0 1.195.117 1.195 1.125-.024 35.281-.024 70.586-.024 105.868v.585c-.492.516-1.147.399-1.757.399-4.053.022-79.816 0-103.689 0-.773 0-1.57.14-2.296-.281-.351-.375-.351-.867-.351-1.312"/><path fill="#BFB9CE" d="M132.833 290.007l-2.811 10.402c-4.217 15.72-8.434 31.416-12.628 47.135-.164.633-.398.797-1.03.61-.82-.235-1.664-.375-2.507-.54-1.828.118-3.514-.585-5.248-.96-3.701-.843-7.356-1.757-11.058-2.624-1.546-.421-1.71-.656-1.358-2.225 2.295-10.425 4.591-20.827 6.747-31.276.117-.609.304-1.195.609-1.757.75-2.343 1.124-4.779 1.64-7.169 1.476-6.676 2.881-13.4 4.31-20.077 1.265-5.88 2.577-11.784 3.866-17.664.07-.281.047-.586.047-.937-6.865 3.96-13.682 7.918-20.5 11.878a29127.15 29127.15 0 00-36.405 21.108c-7.755 4.498-15.486 8.996-23.24 13.494-1.617.937-1.617.913-2.647-.633a2.322 2.322 0 01-.89-.89c-2.484-4.147-5.108-8.2-7.638-12.323a3.633 3.633 0 01-.515-1.288c-.328-.563-.586-1.195-1.008-1.71-.82-.961-.468-1.453.469-2.086 24.505-16.773 49.127-33.337 73.749-49.947 2.436-1.64 4.803-3.373 7.333-4.872 4.545 1.241 9.043 2.647 13.588 3.959 8.808 2.553 17.594 5.13 26.402 7.614.633.187 1.312.187 1.921.421-2.998 11.152-6.02 22.327-8.996 33.478-.773 2.928-1.663 5.857-2.202 8.879z"/><path fill="#F58A8A" d="M144.055 247.627c-.703.515-1.383.047-2.015-.117-11.854-3.397-23.685-6.841-35.54-10.261-1.264-.375-2.53-.75-3.795-1.102a.92.92 0 01-.585-.515c3.42-12.229 6.84-24.435 10.308-36.664.234-.866.093-1.312-.656-1.827a4554.336 4554.336 0 01-27.902-19.374c-9.16-6.396-18.273-12.862-27.434-19.258-.679-.468-.726-.726-.21-1.312.538-.609.984-1.288 1.476-1.944.187-1.007.96-1.663 1.546-2.437 2.038-2.647 4.006-5.341 6.138-7.918.28-.328.468-.726.937-.82.539-.703.913-1.288 2.061-.539 9.887 6.326 19.843 12.51 29.73 18.789 7.473 4.756 15.25 9.02 22.724 13.775 9.512 6.044 19.28 11.714 28.699 17.922 9.253 6.115 16.422 14.103 21.998 23.615.328.562.68 1.101 1.171 1.874.96-2.366 1.851-4.521 2.741-6.677 1.64-4.006 3.28-8.012 4.943-12.018.047-.14.164-.258.258-.375.375-.234.75-.117 1.125 0 3.256 1.078 6.536 1.992 9.792 3.093.445.14.844.398 1.219.679 1.194.375 2.366.797 3.56 1.125.633.164.774.351.516 1.03-2.952 8.083-5.834 16.189-8.762 24.294-1.03 2.835-2.038 5.693-3.21 8.481-2.717 6.513-9.98 7.052-14.571 4.451-2.085-1.171-3.608-3.069-5.154-4.873-3.796-4.474-7.661-8.925-11.269-13.54-.796-1.008-1.57-2.015-2.436-3.14-1.055 3.725-2.085 7.333-3.116 10.94-1.453 4.897-2.882 9.77-4.287 14.643z"/><path fill="#FCCFCF" d="M236.64 93.733c3.654-3.327 7.262-6.7 10.987-9.933 3.936-3.444 8.012-6.77 11.995-10.168 2.74-2.343 5.388-4.826 8.152-7.169 5.037-4.263 9.887-8.738 15.088-12.838 4.193-3.327 8.27-6.794 12.697-9.84 4.943-3.42 10.238-6.067 16.118-7.332 5.6-1.218 11.175-.867 16.657.96 5.6 1.875 10.683 4.686 15.18 8.481 4.429 3.702 7.966 8.153 10.778 13.213 2.647 4.732 4.334 9.793 5.27 15.11.727 4.077.703 8.2.282 12.324-.024.14-.14.257-.234.398-.469.328-.914.047-1.336-.07-4.521-1.36-8.996-2.882-13.494-4.264a3445.535 3445.535 0 00-30.198-9.23c-.585-.188-1.241-.258-1.663-.774-.352-1.124-.211-2.319-.398-3.467-.328-2.202-1.008-4.24-2.18-6.114-.796-1.242-1.03-1.312-2.154-.399-2.296 1.851-4.64 3.678-6.958 5.506-.375.28-.703.609-1.195.68-1.734-.235-3.42-.75-5.178-.891-2.623-.234-5.2-.164-7.59 1.218-4.123 2.413-6.372 6.372-5.646 11.105.117.773.328 1.522.21 2.319-.163.492-.585.703-.96.984-9.511 7.051-19.023 14.173-28.558 21.202-.656.492-1.288 1.007-1.944 1.522-.773.633-1.43.656-2.132-.117-.515-.585-1.101-1.1-1.663-1.663-3.022-3.374-6.255-6.536-9.348-9.84-.258-.304-.492-.562-.586-.913z"/><path fill="#BFB9CE" d="M312.966 72.414c3.256 1.242 6.653 2.085 9.98 3.14 12.205 3.818 24.411 7.59 36.617 11.385.351 2.202-.375 4.264-.96 6.302-1.102 3.725-3.117 6.981-5.975 9.652-3.748 3.537-8.2 5.505-13.353 6.114-5.53.656-10.613-.984-15.697-2.717-2.834-.96-5.575-2.132-8.504-3.28.188 1.148.726 2.062 1.148 3.022 2.624 6.091 5.224 12.182 7.895 18.227.445 1.03.234 1.382-.773 1.663-.96.281-1.898.703-2.835 1.078-4.545 1.663-9.09 3.35-13.611 5.013-.187.07-.328.187-.492.305-.96.866-2.249.984-3.397 1.382-.562.187-.914-.281-1.124-.773-.563-1.148-.984-2.366-1.5-3.538-2.296-5.88-4.802-11.667-7.192-17.523-2.46-6.021-4.803-12.089-7.333-18.11-1.335-3.163-2.624-6.349-3.936-9.511-.21-.492-.538-.984-.35-1.57-.048-1.359-.423-2.647-.47-4.006-.257-6.7 6.35-11.433 11.152-11.245a38.46 38.46 0 017.848 1.148c4.31 1.288 8.598 2.577 12.862 3.842z"/><path fill="#F22F46" d="M179.243 192.08c-.024-5.177-.047-10.378-.047-15.555v-9.84c1.78.844 3.514 1.102 5.27.399 1.149-.469 2.086-1.195 2.789-2.25 1.358-2.084 1.288-4.825-.188-6.817-1.733-2.319-4.076-2.834-7.824-1.71a15.886 15.886 0 01-.047-1.03c0-5.155.023-10.309-.024-15.463 0-.867.14-1.194 1.125-1.194 4.1.07 8.176.023 12.3.023-1.852 4.006-1.477 6.888 1.124 8.879 2.155 1.663 5.177 1.64 7.285-.024 2.578-2.061 2.952-4.966 1.078-8.855h2.811c3.983 0 7.966.023 11.948-.023.75 0 1.055.21 1.242.96.703 2.647 2.999 4.404 5.646 4.428 2.6.023 4.99-1.71 5.833-4.264.118-.375 0-1.007.516-1.054.773-.094 1.57-.07 2.343 0 .328.023.21.445.21.703 0 6.161 0 12.322.024 18.507 0 .516-.188.75-.633.96-2.155 1.055-3.35 2.765-3.42 5.178-.07 2.554 1.148 4.381 3.327 5.6.445.234.726.444.726 1.03-.047 7.145-.047 14.267-.07 21.413-.235.21-.516.14-.797.14-12.135-.187-24.247.445-36.383.281-1.991-.023-3.982.118-5.974-.023-3.303-.258-6.606-.234-9.91-.258-.093 0-.187-.093-.28-.14z"/><path fill="#81769E" d="M281.573 82.675c1.804 4.334 3.608 8.668 5.388 13.002a5189.734 5189.734 0 0110.777 26.403c.96 2.366 2.062 4.685 2.811 7.122-.023.164-.14.28-.28.351-2.016.844-3.89 2.062-6.045 2.554-.469.164-.937.328-1.406.515-1.5.68-1.5.68-2.132-.796-4.685-10.918-9.37-21.835-14.056-32.775-.234-.516-.305-.82-.984-.305-4.99 3.725-10.027 7.38-15.017 11.105-.843.632-1.288.796-2.015-.258-1.476-2.155-1.546-2.085-3.444-.187-2.038 2.038-3.935 4.24-6.231 5.997-1.008.773-2.085 1.476-3.444 1.476-2.413.023-3.49-.843-4.053-3.233-.164-.281-.023-.539.094-.773 1.312-2.811 2.881-5.506 4.568-8.13.14-.234.305-.445.586-.562.515.516 1.124.984 1.57 1.57.632.843 1.147.796 1.944.187 7.848-5.88 15.72-11.737 23.568-17.594a666.74 666.74 0 007.801-5.669z"/><path fill="#FFF" d="M294.88 16.141c3.631-1.405 6.934-.632 10.003 1.57-1.663-8.176.797-13.963 7.122-16.633 5.576-2.367 11.69-.61 15.04 4.287 3.397 4.966 2.718 11.854-1.546 16.258-3.865 3.983-11.128 5.787-17.406.75.609 2.46.773 4.85-.328 7.169-.375.281-.75.14-1.125.023-5.74-2.038-9.816-5.763-11.784-11.62-.187-.585-.351-1.194.024-1.804zM21.6 294.247c3.022 4.826 6.02 9.676 9.043 14.502-1.546.492-2.788 1.523-4.147 2.32a70.378 70.378 0 00-4.545 2.857c-.632.422-1.03.422-1.57-.14-2.037-2.039-2.06-2.015-.679-4.569.164-.304.282-.632.422-.96.21-.469.539-.96.117-1.406-.468-.515-1.1-.726-1.804-.609-.796.14-1.593.305-2.366.515-1.124.328-2.132.094-2.905-.702-3.678-3.796-7.52-7.474-10.167-12.136-1.172-2.038-2.39-4.1-2.835-6.49-.258-1.311.047-2.412 1.125-3.209 1.007-.726 2.038-.234 2.951.282 1.523.89 2.484 2.342 3.561 3.654 1.78 2.155 3.42 4.428 5.506 6.326 2.577 2.39 6.419 1.944 8.293-.235z"/><path fill="#66B2FF" d="M66.323 144.102c-2.882 3.724-5.763 7.45-8.645 11.15-1.64-1.147-3.56-1.686-5.435-2.272-3.14-1.007-6.42-1.546-9.488-2.81-.352-.141-.703-.329-1.078-.47-3.092-1.1-2.764-4.708-1.148-6.465 1.78-1.945 4.1-2.718 6.56-2.858 3.42-.211 6.84-.07 10.19.82.633.164.797.093.657-.656-.258-1.43-.703-2.859-.328-4.358.14-.492.304-.984.585-1.382.82-1.148 1.758-1.101 2.577.07 1.594 2.273 2.437 4.967 3.96 7.263.468.679.867 1.476 1.593 1.968zm92.983 30.314c-1.265 3.14-3.467 5.178-6.677 5.951-5.623 1.382-10.87-1.921-11.948-7.66-.843-4.499 1.734-9.02 5.88-10.473 4.077-1.429 7.638-.796 10.707 2.202 1.78 1.734 2.436 4.007 2.694 6.42.07.538-.211.75-.68.937-1.757.656-3.56.96-5.364.421-1.219-.351-1.172.469-1.406 1.195-.328.96.304 1.007.914 1.148 1.663.375 3.326.328 4.966-.117.258-.094.516-.164.914-.024z"/><path fill="#F22F46" d="M246.737 104.228c-1.57 2.835-3.397 5.552-4.756 8.528-.14.328-.305.632-.469.937-1.03 1.827-2.085 3.631-3.959 4.756-1.359.796-2.811 1.241-4.287.398-1.5-.844-1.991-2.296-2.038-3.936-.117-3.35.89-6.466 2.085-9.652-.75.21-1.406.422-2.085.562-.984.188-1.898-.07-2.484-.913-.609-.844-.468-1.757.118-2.624 1.92-2.835 4.427-5.13 6.77-7.544.328-.328.656-.656 1.007-.984 1.547 1.195 2.741 2.741 4.1 4.123 2.015 2.085 3.983 4.217 5.998 6.35z"/><path fill="#66B2FF" d="M179.243 192.08h53.367c-.351.399-.797.212-1.218.212-5.693.023-11.41 0-17.102 0-.539 0-1.054-.094-1.242.679-.89 3.748-3.631 5.294-7.122 5.904-2.788.492-5.599.187-8.387.21-1.124 0-1.897.282-2.483 1.312-.61 1.078-1.382 2.062-2.085 3.093-.164.234-.328.421-.234.726-4.03-1.265-8.083-2.507-12.112-3.772 1.288-3.162 2.975-6.044 6.208-8.176-2.296 0-4.287.024-6.279 0-.445.024-.937.234-1.311-.187z"/><path fill="#81769E" d="M279.535 147.053c-.281-.093.07-.82.21-1.265 0 0 .47-1.64 1.64-2.952 1.547-1.71 3.749-2.553 6.28-2.975 1.686-.281 3.373-.492 4.896-1.382 2.272-1.335 2.787-2.483 2.061-5.013-.117-.446-.258-.89-.398-1.336 2.038-1.124 4.193-1.991 6.325-2.881.726 1.124 1.054 2.436 1.57 3.654.258.61.492.703 1.1.492 1.055-.375 2.04-.913 3.164-1.054 1.476 3.96.093 6.325-4.1 7.098-1.78.328-3.585.61-5.318 1.172-2.741.89-4.381 2.881-5.178 5.552-.117.422-.28.656-.468.797"/><path fill="#F22F46" d="M294.88 16.141c.187 2.812 1.476 5.154 3.233 7.24 2.553 3.045 5.693 5.294 9.652 6.184-1.687 4.428-6.208 6.583-10.004 6.232-6.325-.562-9.113-5.318-9.44-9.207-.4-4.709 2.436-9.16 6.559-10.449z"/><path fill="#FFF" d="M143.352 147.826c2.132.211 4.264.914 5.693 2.859.492.679.89.702 1.499.28.422-.28.703-.28.843-.257.375.047.516.515 1.148 1.804.563 1.171.773 1.452.656 1.827-.164.492-.68.703-.866.82-5.225 2.765-10.66 5.06-15.79 8.012-.586.328-.984.328-1.266-.351-.374-.843-.796-1.663-1.218-2.507-.328-.632-.422-1.171.469-1.429 1.124-.328 1.382-.984 1.171-2.179-.843-4.45 2.46-8.691 7.66-8.879zm65.643 21.343c-3.303.023-5.927-2.577-5.974-5.904-.023-3.28 2.648-5.997 5.904-5.997 3.28 0 5.974 2.67 5.974 5.927 0 3.326-2.624 5.95-5.904 5.974zm12.23 7.31c3.185-.024 5.903 2.646 5.973 5.832.07 3.257-2.647 6.045-5.857 6.068-3.28.024-5.997-2.624-6.02-5.88-.024-3.303 2.623-5.997 5.903-6.02zm-19.07 5.575c.023 3.303-2.624 5.997-5.88 6.02-3.257.024-5.998-2.694-5.998-5.927 0-3.28 2.694-5.95 5.974-5.95 3.233 0 5.88 2.624 5.903 5.857z"/><path fill="#121C2D" d="M130.959 363.1c-.117.094-.258.164-.375.258h-26.309a4.87 4.87 0 011.265-1.945c2.109-1.967 5.318-1.1 9.207-.679 9.324 1.007 14.876-1.406 16.048 1.078.234.468.21.96.164 1.288z"/><path fill="#FFF" d="M102.706 362.257c-.717-.595-.117-2.975-.82-3.022-.726-.047-1.265.399-1.64 1.101-1.289 2.437-1.406 2.484-4.194 1.921a27.704 27.704 0 00-1.358-.257c-1.289-.211-1.43-.399-1.125-1.64 1.289-5.412 2.577-10.847 4.076-16.212.024-.117.024-.234.024-.351 5.388 1.288 10.776 2.577 16.141 3.865-.375.07-.562.305-.68.68-1.24 3.865 1.524 8.152 5.577 8.761 2.647.399 5.27.094 7.918.211 1.617.07 3.256.188 4.756.89.375.188.773.352 1.124.61 1.265.913 1.336 1.99.281 3.139-.515.492-27.57 2.39-30.08.304z"/><path fill="#121C2D" d="M89.797 335.667c8.153.305 16.306.633 24.482.938"/><path fill="#BFB9CE" d="M310.53 147.053c.538-.304.983-.585 1.428-.82 4.077-2.131 8.036-4.45 11.995-6.77.797-.469.937-.89.586-1.757-1.382-3.467-2.694-6.958-4.03-10.449-.468-.28-.913 0-1.335.14-.703.235-1.382.516-2.085.774-3.21 1.195-6.443 2.343-9.652 3.584-.562.211-1.242.375-1.195 1.219.023.234.094.468.14.679.657 2.694.165 3.748-2.319 4.99a7.413 7.413 0 01-1.991.68c-1.078.21-2.132.444-3.21.655-3.514.68-6.395 2.624-7.543 7.005"/><path fill="#FFF" d="M208.995 169.169c-3.303.023-5.927-2.577-5.974-5.904-.023-3.28 2.648-5.997 5.904-5.997 3.28 0 5.974 2.67 5.974 5.927 0 3.326-2.624 5.95-5.904 5.974zm12.23 7.31c3.185-.024 5.903 2.646 5.973 5.832.07 3.257-2.647 6.045-5.857 6.068-3.28.024-5.997-2.624-6.02-5.88-.024-3.303 2.623-5.997 5.903-6.02zm-19.07 5.575c.023 3.303-2.624 5.997-5.88 6.02-3.257.024-5.998-2.694-5.998-5.927 0-3.28 2.694-5.95 5.974-5.95 3.233 0 5.88 2.624 5.903 5.857z"/><path fill="#EBF4FF" d="M350.754 146.515c1.101 0 1.335.328 1.335 1.358-.023 35.282-.023 70.33-.023 105.166 0 .632.023 1.241.023 1.874-.093.515-.538.515-.89.562-.468.07-.937.047-1.406.047-11.174 0-22.373.023-33.547 0-3.28 0-6.537-.047-9.817 0-.82.07-1.64.023-2.46.023h-58.357c-.726 0-1.5.14-2.179-.28-.304-.376-.164-.82-.164-1.242v-106.08c0-1.358 0-1.358 1.312-1.358 11.011 0 22.022.094 33.01-.047"/><path fill="#F22F46" d="M309.733 62.317s2.319 3.818 3.186 10.284l13.26 3.96s-4.264-19.492-7.38-21.835l-9.066 7.59z" opacity=".23"/><path fill="#66B2FF" opacity=".1" d="M314.582 255.569v107.648h100.574v-32.892z"/><path fill="#170333" d="M317.956 55.312c.234-.187.492-.351.843-.586.422.54.867 1.008 1.218 1.546.352.54-.234.656-.492.844-2.623 2.038-5.27 4.006-7.871 6.044-1.218.96-1.406-.422-1.921-.843-.773-.586.164-.82.445-1.031"/><path fill="#CCE4FF" opacity=".3" d="M352.089 146.702l-74.499.07 74.265 75.272z"/><path fill="#F22F46" opacity=".39" d="M144.055 247.627l7.403-25.583-48.753 14.103z"/><path fill="#F22F46" d="M206.16 342.039c6.958.094 13.893.164 20.85 0 3.632.047 7.263.094 10.895.117 6.044.024 12.111 0 18.156 0 1.92 0 1.593-.21 1.616 1.593 0 .281 0 .539-.023.82-.398.258-.844.14-1.242.14-9.3 0-18.578-.21-27.855.071-6.817.21-13.635.07-20.452.187-.656 0-1.335.118-1.921-.304-5.435-.024-10.847-.024-16.282-.07-.398 0-1.054.234-1.171-.211-.164-.656-.141-1.406.023-2.085.094-.422.68-.211 1.054-.211h15.58c.234.023.515-.024.773-.047zm42.357 11.667c-9.02.023-18.015.023-27.035.047-5.107 0-10.214.023-15.321.047-7.497-.024-14.994-.047-22.49-.047-1.102 0-2.203-.07-3.28.023-1.266.094-.844-.796-.89-1.406-.071-.655-.095-1.17.913-1.17 7.965.046 61.363.13 66.65.07 1.219-.024 1.71.304 1.5 1.522-.07.305-.023.61-.047.914z"/></g></svg>