<svg height="64" viewBox="0 0 63 64" width="63" xmlns="http://www.w3.org/2000/svg"><g fill="none" fill-rule="evenodd"><path d="m60.7593651.51809524h-4.0634921c-.8415767 0-1.5238095.68223276-1.5238095 1.52380952s.6822328 1.52380953 1.5238095 1.52380953h2.5498413v2.52952381c0 .84157676.6822327 1.52380952 1.5238095 1.52380952s1.5238095-.68223276 1.5238095-1.52380952v-4.06349207c0-.4049903-.1622229-.79310465-.4504971-1.07756058-.2882741-.28445592-.6785173-.44152632-1.0834711-.43609021z" fill="#06033a"/><path d="m55.791746 46.7301587-3.8095238-6.5930158c-.2738982-.470246-.7764396-.7601737-1.3206349-.7619048h-7.6190476c-.5411216.0032662-1.0399203.2932655-1.3104762.7619048l-3.8095238 6.5930158c-.2746498.4671742-.2746498 1.0464767 0 1.5136508l3.8095238 6.6031746c.2705559.4686393.7693546.7586386 1.3104762.7619048h7.6190476c.5441953-.0017311 1.0467367-.2916588 1.3206349-.7619048l3.8095238-6.6031746c.2642548-.4699498.2642548-1.0437009 0-1.5136508zm-6.0139682 5.7904762h-5.8615873l-2.9257143-5.0793651 2.9257143-5.079365h5.8615873l2.935873 5.079365zm-2.9257143-26.2298412c4.8699242 0 8.8177778-3.9478536 8.8177778-8.8177778s-3.9478536-8.8177778-8.8177778-8.8177778-8.8177778 3.9478536-8.8177778 8.8177778 3.9478536 8.8177778 8.8177778 8.8177778zm0-14.608263c2.3429491-.0041015 4.4574826 1.4040937 5.35694 3.5675177.8994574 2.1634241.4065595 4.6556755-1.2487031 6.3138472-1.6552625 1.6581716-4.1466446 2.1554449-6.3116447 1.2597877s-3.5769097-3.0077147-3.5769097-5.3506674c.0055702-3.1917194 2.5886128-5.7793017 5.7803175-5.7904852z" fill="#f22f46"/><path d="m60.7593651 12.1904762c-.8376068.0055842-1.5136508.6861841-1.5136508 1.5238095v7.5784127c0 .8415768.6822327 1.5238095 1.5238095 1.5238095s1.5238095-.6822327 1.5238095-1.5238095v-7.6088889c-.0053525-.4014567-.1699824-.7843403-.4576652-1.0644023-.2876828-.2800621-.6748473-.4343558-1.076303-.428931zm0 15.1466667c-.8359663 0-1.5136508.6776845-1.5136508 1.5136508v2.5498412h-2.5498413c-.8415767 0-1.5238095.6822328-1.5238095 1.5238095 0 .8415768.6822328 1.5238096 1.5238095 1.5238096h2.5498413v2.5295238c0 .8415767.6822327 1.5238095 1.5238095 1.5238095s1.523846-.6822328 1.523846-1.5238095v-8.1269841c.0027894-.4058467-.1585829-.7955973-.4474736-1.0806616-.2888908-.2850643-.6807582-.4412259-1.0865311-.4329892zm-18.0926984 4.063492c-.8415768 0-1.5238096.6822328-1.5238096 1.5238095 0 .8415768.6822328 1.5238096 1.5238096 1.5238096h7.0095238c.8415767 0 1.5238095-.6822328 1.5238095-1.5238096 0-.8415767-.6822328-1.5238095-1.5238095-1.5238095zm18.0926984 11.032381c-.8376068.0055841-1.5136508.6861841-1.5136508 1.5238095v6.9688889c0 .8415767.6822327 1.5238095 1.5238095 1.5238095s1.5238095-.6822328 1.5238095-1.5238095v-6.9688889c.0027667-.4067487-.1582894-.797494-.4468647-1.0841582-.2885754-.2866643-.6803822-.4451206-1.0871035-.4396513zm0 13.9580952c-.8359663 0-1.5136508.6776846-1.5136508 1.5136508v2.5498413h-2.5498413c-.8415767 0-1.5238095.6822327-1.5238095 1.5238095s.6822328 1.5238095 1.5238095 1.5238095h4.0634921c.4049903 0 .7931046-.1622229 1.0775606-.4504971.2844559-.2882741.4415263-.6785173.4360902-1.0834711v-4.0634921c0-.8359662-.6776846-1.5136508-1.5136508-1.5136508zm-11.0831746 4.0634921h-7.0095238c-.8415768 0-1.5238096.6822327-1.5238096 1.5238095s.6822328 1.5238095 1.5238096 1.5238095h7.0095238c.8415767 0 1.5238095-.6822327 1.5238095-1.5238095s-.6822328-1.5238095-1.5238095-1.5238095z" fill="#06033a"/><path d="m25.4780952 19.3726984-5.1504762-8.1269841c-.7451107-1.1766511-2.0409204-1.88972986-3.4336507-1.88952387-1.3927304-.00020599-2.6885401.71287277-3.4336508 1.88952387l-5.16063496 8.1269841c-.7926503 1.2517238-.84120459 2.8356523-.12671209 4.1335765.7144925 1.2979243 2.07877355 2.104103 3.56036285 2.1038839h10.3111111c1.4818019-.0033636 2.8442927-.8130724 3.5555556-2.1130159.7303415-1.2903072.6833695-2.879525-.1219048-4.1244445zm-2.5295238 2.671746c-.1804177.3298111-.5282239.5330237-.904127.5283362h-10.3111111c-.375903.0046875-.7237092-.1985251-.904127-.5283362-.1814682-.3143122-.1814682-.7015608 0-1.015873l5.1504762-8.1269841c.1841604-.3036031.5134801-.4890128.8685715-.4890128s.6844111.1854097.8685714.4890128l5.1606349 8.1269841c.2039735.3014359.2311002.6889598.0711111 1.015873zm.416508 17.4628572h-12.9015873c-.4014452 0-.78644819.1594735-1.07031278.443338-.28386459.2838646-.44333805.6688676-.44333805 1.0703128v12.8203174c0 .8359663.67768454 1.5136508 1.51365083 1.5136508h12.9015873c.8160655-.0274 1.463317-.6971255 1.4628574-1.5136508v-12.8203174c.0004596-.8165253-.6467919-1.4862508-1.4628574-1.5136508zm-1.5644445 12.8406349h-9.8133333v-9.8133333h9.8133333z" fill="#f22f46"/><path d="m2.2247619 7.60888889c.83596625 0 1.5136508-.67768454 1.5136508-1.51365079v-2.54984127h2.54984127c.84157676 0 1.52380952-.68223277 1.52380952-1.52380953s-.68223276-1.52380953-1.52380952-1.52380953h-4.06349207c-.4049903 0-.79310465.16222297-1.07756058.4504971-.28445592.28827412-.44152632.67851735-.43609021 1.08347116v4.06349207c0 .40144515.15947347.78644815.44333805 1.07031274.28386459.28386458.66886759.44333805 1.07031274.44333805zm11.1339683-4.06349206h7.1111111c.8415767 0 1.5238095-.68223277 1.5238095-1.52380953s-.6822328-1.52380952-1.5238095-1.52380952h-7.1111111c-.8415768 0-1.5238096.68223276-1.5238096 1.52380952s.6822328 1.52380953 1.5238096 1.52380953zm-11.1339683 19.23047617c.83596625 0 1.5136508-.6776845 1.5136508-1.5136508v-7.5784127c0-.8415767-.68223276-1.5238095-1.52380953-1.5238095-.84157676 0-1.52380952.6822328-1.52380952 1.5238095v7.5784127c-.00282586.4058467.15854648.7955972.44743718 1.0806616.28889071.2850643.68075814.4412259 1.08653107.4329892zm33.391746-22.25777776h-8.1269841c-.8415768 0-1.5238095.68223276-1.5238095 1.52380952s.6822327 1.52380953 1.5238095 1.52380953h2.5498413v2.52952381c0 .84157676.6822327 1.52380952 1.5238095 1.52380952s1.5238095-.68223276 1.5238095-1.52380952v-2.54984127h2.5396826c.8415767 0 1.5238095-.68223277 1.5238095-1.52380953s-.6822328-1.52380952-1.5238095-1.52380952zm7.0501588 3.02730159h7.0095238c.8415767 0 1.5238095-.68223277 1.5238095-1.52380953s-.6822328-1.52380952-1.5238095-1.52380952h-7.0095238c-.8415768 0-1.5238096.68223276-1.5238096 1.52380952s.6822328 1.52380953 1.5238096 1.52380953zm-36.37841273 27.85523807h-2.54984127v-2.5498412c0-.8415768-.68223276-1.5238096-1.52380953-1.5238096-.84157676 0-1.52380952.6822328-1.52380952 1.5238096v8.1269841c0 .8415767.68223276 1.5238095 1.52380952 1.5238095.84157677 0 1.52380953-.6822328 1.52380953-1.5238095v-2.5498413h2.54984127c.84157676 0 1.52380952-.6822328 1.52380952-1.5238095 0-.8415768-.68223276-1.5238095-1.52380952-1.5238095zm14.14095233 3.0273016c.8415768 0 1.5238096-.6822328 1.5238096-1.5238095 0-.8415768-.6822328-1.5238095-1.5238096-1.5238095h-7.1111111c-.8415767 0-1.5238095.6822327-1.5238095 1.5238095 0 .8415767.6822328 1.5238095 1.5238095 1.5238095zm0 26.0266667h-7.1111111c-.8415767 0-1.5238095.6822327-1.5238095 1.5238095s.6822328 1.5238095 1.5238095 1.5238095h7.1111111c.8415768 0 1.5238096-.6822327 1.5238096-1.5238095s-.6822328-1.5238095-1.5238096-1.5238095zm-14.14095233 0h-2.54984127v-2.5498413c0-.8415768-.68223276-1.5238095-1.52380953-1.5238095-.84157676 0-1.52380952.6822327-1.52380952 1.5238095v4.0634921c0 .8359662.67768454 1.5136508 1.51365079 1.5136508h4.06349207c.84157676 0 1.52380952-.6822328 1.52380952-1.5238096 0-.8415767-.68223276-1.5238095-1.52380952-1.5238095zm-4.06349207-8.0152381c.83596625 0 1.5136508-.6776846 1.5136508-1.5136508v-6.9688889c0-.8415768-.68223276-1.5238095-1.52380953-1.5238095-.84157676 0-1.52380952.6822327-1.52380952 1.5238095v6.9688889c-.00282586.4058467.15854648.7955972.44743718 1.0806615.28889071.2850644.68075814.4412259 1.08653107.4329893zm29.328254-29.6634579c.4032024.0026719.7908203-.1556061 1.0768858-.4397645.2860656-.2841584.4469237-.670709.4469237-1.0739205v-7.5784127c0-.8415767-.6822328-1.5238095-1.5238095-1.5238095-.8415768 0-1.5238096.6822328-1.5238096 1.5238095v7.5784127c0 .4032115.1608582.7897621.4469237 1.0739205s.6736835.4424364 1.0768859.4397645zm4.063492 8.6247277h-2.5396825v-2.5498412c0-.8415768-.6822328-1.5238096-1.5238095-1.5238096-.8415768 0-1.5238096.6822328-1.5238096 1.5238096v2.5498412h-2.5396825c-.8415768 0-1.5238095.6822328-1.5238095 1.5238095 0 .8415768.6822327 1.5238096 1.5238095 1.5238096h2.5498413v2.5295238c0 .8415767.6822327 1.5238095 1.5238095 1.5238095s1.5238095-.6822328 1.5238095-1.5238095v-2.5498413h2.5396826c.8415767 0 1.5238095-.6822328 1.5238095-1.5238095 0-.8415768-.6822328-1.5238095-1.5238095-1.5238095zm0 29.0539683h-2.5396825v-2.5498413c0-.8415768-.6822328-1.5238095-1.5238095-1.5238095-.8415768 0-1.5238096.6822327-1.5238096 1.5238095v2.5498413h-2.5396825c-.8415768 0-1.5238095.6822327-1.5238095 1.5238095s.6822327 1.5238095 1.5238095 1.5238095h8.1269841c.8415768 0 1.5238096-.6822327 1.5238096-1.5238095s-.6822328-1.5238095-1.5238096-1.5238095zm-4.063492-8.015204c.4032024.002672.7908203-.155606 1.0768858-.4397644.2860656-.2841585.4469237-.670709.4469237-1.0739205v-6.9688889c0-.8415768-.6822328-1.5238095-1.5238095-1.5238095-.8415768 0-1.5238096.6822327-1.5238096 1.5238095v6.9688889c0 .4032115.1608582.789762.4469237 1.0739205.2860655.2841584.6736835.4424364 1.0768859.4397644z" fill="#06033a"/></g></svg>