<svg viewBox="0 0 2048 2048" xmlns="http://www.w3.org/2000/svg" xmlns:xlink="http://www.w3.org/1999/xlink"><clipPath id="a"><path d="m667 1790.9c-1.7-2.1-3.4-5.1-5.8-.8-1 1.8-1.3.5-1.8-.1-.6-.6-1.7-1.3-2.2-.8-3.5 4.6-6.8.2-10.1.2-4.4 0-9.5.2-13.4 1-6.1 1.2-12 1.2-18 1.6-2.6.2-5.3.3-7.1-2.4-.5-.8-2.4-1.5-3.1-1.1-3.7 2.2-7.9 1-11.7 1.9-1.7.4-2.8 1.1-4.1-.6-.5-.6-2.1-1-2.7-.6-4.8 2.9-9.3-.5-13.9-.4-1.8 0-3.9-.1-5.2 1.1-1.8 1.7-2.8 1.5-4.3-.3-1-1.2-3.2-1.7-3.9-.1-1.5 3.3-4.2 2.6-6.7 2.6-1.4-4.1-2.9-8.1-4.3-12.2-1-2.9-2.8-5.3-5.8-5.5-3.1-.2-5.4 1.7-7 4.7-5.5 10.4-6 10.6-17.9 8.2-1.9-.4-3.9-.8-5.8-1.1-5.5-.9-6.1-1.7-4.8-7 5.5-23.1 11-46.3 17.4-69.2.1-.5.1-1 .1-1.5 23 5.5 46 11 68.9 16.5-1.6.3-2.4 1.3-2.9 2.9-5.3 16.5 6.5 34.8 23.8 37.4 11.3 1.7 22.5.4 33.8.9 6.9.3 13.9.8 20.3 3.8 1.6.8 3.3 1.5 4.8 2.6 5.4 3.9 5.7 8.5 1.2 13.4-2.2 2.1-4.8 3.7-7.8 4.9z"/></clipPath><path d="m228.2 1793.1c-3.8-61.9 26.8-121 79.5-153.5 52.1-32.2 117.9-33.4 171.3-3.2 30.9-39 137.3-163.1 308.9-185.9 211-28.1 434.4 108.1 540.7 343.1-366.8-.2-733.6-.3-1100.4-.5z" fill="#ebf4ff"/><path d="m1873.3 1331.1c6.5 0 6.5 0 6.5 6.4v447.8c0 2.2.1 4.3.2 6.5-1.3 1.7-3.2 1.6-5 1.8-1.8.1-3.7.1-5.5.1h-407.4c-3.4 0-7 .7-10.3-1.3-2.2-3-1.5-6.4-1.5-9.7v-215.9-222.9c0-9.2 0-9.2-9.4-9.2-6.3 0-12.7.1-19-.1-2.1-.1-4.8.6-5.9-2.4" fill="#cce4ff"/><path d="m872.8 832.7h228.4v202.8h-228.4z" fill="#fff"/><path d="m988.6 1332c50.8-.1 106.7 0 157.5 0 .3-.5.7-.5 1-.1 1.5.1 3 .4 4.5.4h262.4c.7 0 1.3-.1 2-.1 10.3 1.3 20.6.4 30.8.5 3.6 0 5.1.5 5.1 4.8-.1 150.6-.1 301.3-.1 451.9v2.5c-2.1 2.2-4.9 1.7-7.5 1.7-17.3.1-34.6 0-51.9 0h-390.7c-3.3 0-6.7.6-9.8-1.2-1.5-1.6-1.5-3.7-1.5-5.6" fill="#e1e3ea"/><path d="m675 1478.9-12 44.4c-18 67.1-36 134.1-53.9 201.2-.7 2.7-1.7 3.4-4.4 2.6-3.5-1-7.1-1.6-10.7-2.3-7.8.5-15-2.5-22.4-4.1-15.8-3.6-31.4-7.5-47.2-11.2-6.6-1.8-7.3-2.8-5.8-9.5 9.8-44.5 19.6-88.9 28.8-133.5.5-2.6 1.3-5.1 2.6-7.5 3.2-10 4.8-20.4 7-30.6 6.3-28.5 12.3-57.2 18.4-85.7 5.4-25.1 11-50.3 16.5-75.4.3-1.2.2-2.5.2-4-29.3 16.9-58.4 33.8-87.5 50.7-51.8 30-103.6 60-155.4 90.1-33.1 19.2-66.1 38.4-99.2 57.6-6.9 4-6.9 3.9-11.3-2.7-1.6-.9-2.9-2.2-3.8-3.8-10.6-17.7-21.8-35-32.6-52.6-1.1-1.7-1.8-3.5-2.2-5.5-1.4-2.4-2.5-5.1-4.3-7.3-3.5-4.1-2-6.2 2-8.9 104.6-71.6 209.7-142.3 314.8-213.2 10.4-7 20.5-14.4 31.3-20.8 19.4 5.3 38.6 11.3 58 16.9 37.6 10.9 75.1 21.9 112.7 32.5 2.7.8 5.6.8 8.2 1.8-12.8 47.6-25.7 95.3-38.4 142.9-3.3 12.5-7.1 25-9.4 37.9z" fill="#001489"/><path d="m722.9 1298c-3 2.2-5.9.2-8.6-.5-50.6-14.5-101.1-29.2-151.7-43.8-5.4-1.6-10.8-3.2-16.2-4.7-1.2-.4-2-1.1-2.5-2.2 14.6-52.2 29.2-104.3 44-156.5 1-3.7.4-5.6-2.8-7.8-39.8-27.4-79.5-55-119.1-82.7-39.1-27.3-78-54.9-117.1-82.2-2.9-2-3.1-3.1-.9-5.6 2.3-2.6 4.2-5.5 6.3-8.3.8-4.3 4.1-7.1 6.6-10.4 8.7-11.3 17.1-22.8 26.2-33.8 1.2-1.4 2-3.1 4-3.5 2.3-3 3.9-5.5 8.8-2.3 42.2 27 84.7 53.4 126.9 80.2 31.9 20.3 65.1 38.5 97 58.8 40.6 25.8 82.3 50 122.5 76.5 39.5 26.1 70.1 60.2 93.9 100.8 1.4 2.4 2.9 4.7 5 8 4.1-10.1 7.9-19.3 11.7-28.5 7-17.1 14-34.2 21.1-51.3.2-.6.7-1.1 1.1-1.6 1.6-1 3.2-.5 4.8 0 13.9 4.6 27.9 8.5 41.8 13.2 1.9.6 3.6 1.7 5.2 2.9 5.1 1.6 10.1 3.4 15.2 4.8 2.7.7 3.3 1.5 2.2 4.4-12.6 34.5-24.9 69.1-37.4 103.7-4.4 12.1-8.7 24.3-13.7 36.2-11.6 27.8-42.6 30.1-62.2 19-8.9-5-15.4-13.1-22-20.8-16.2-19.1-32.7-38.1-48.1-57.8-3.4-4.3-6.7-8.6-10.4-13.4-4.5 15.9-8.9 31.3-13.3 46.7-6.2 20.9-12.3 41.7-18.3 62.5z" fill="#f58a8a"/><path d="m1118.1 641.1c15.6-14.2 31-28.6 46.9-42.4 16.8-14.7 34.2-28.9 51.2-43.4 11.7-10 23-20.6 34.8-30.6 21.5-18.2 42.2-37.3 64.4-54.8 17.9-14.2 35.3-29 54.2-42 21.1-14.6 43.7-25.9 68.8-31.3 23.9-5.2 47.7-3.7 71.1 4.1 23.9 8 45.6 20 64.8 36.2 18.9 15.8 34 34.8 46 56.4 11.3 20.2 18.5 41.8 22.5 64.5 3.1 17.4 3 35 1.2 52.6-.1.6-.6 1.1-1 1.7-2 1.4-3.9.2-5.7-.3-19.3-5.8-38.4-12.3-57.6-18.2-42.9-13.3-85.9-26.5-128.9-39.4-2.5-.8-5.3-1.1-7.1-3.3-1.5-4.8-.9-9.9-1.7-14.8-1.4-9.4-4.3-18.1-9.3-26.1-3.4-5.3-4.4-5.6-9.2-1.7-9.8 7.9-19.8 15.7-29.7 23.5-1.6 1.2-3 2.6-5.1 2.9-7.4-1-14.6-3.2-22.1-3.8-11.2-1-22.2-.7-32.4 5.2-17.6 10.3-27.2 27.2-24.1 47.4.5 3.3 1.4 6.5.9 9.9-.7 2.1-2.5 3-4.1 4.2-40.6 30.1-81.2 60.5-121.9 90.5-2.8 2.1-5.5 4.3-8.3 6.5-3.3 2.7-6.1 2.8-9.1-.5-2.2-2.5-4.7-4.7-7.1-7.1-12.9-14.4-26.7-27.9-39.9-42-1.1-1.3-2.1-2.4-2.5-3.9z" fill="#fccfcf"/><path d="m1443.9 550.1c13.9 5.3 28.4 8.9 42.6 13.4 52.1 16.3 104.2 32.4 156.3 48.6 1.5 9.4-1.6 18.2-4.1 26.9-4.7 15.9-13.3 29.8-25.5 41.2-16 15.1-35 23.5-57 26.1-23.6 2.8-45.3-4.2-67-11.6-12.1-4.1-23.8-9.1-36.3-14 .8 4.9 3.1 8.8 4.9 12.9 11.2 26 22.3 52 33.7 77.8 1.9 4.4 1 5.9-3.3 7.1-4.1 1.2-8.1 3-12.1 4.6-19.4 7.1-38.8 14.3-58.1 21.4-.8.3-1.4.8-2.1 1.3-4.1 3.7-9.6 4.2-14.5 5.9-2.4.8-3.9-1.2-4.8-3.3-2.4-4.9-4.2-10.1-6.4-15.1-9.8-25.1-20.5-49.8-30.7-74.8-10.5-25.7-20.5-51.6-31.3-77.3-5.7-13.5-11.2-27.1-16.8-40.6-.9-2.1-2.3-4.2-1.5-6.7-.2-5.8-1.8-11.3-2-17.1-1.1-28.6 27.1-48.8 47.6-48 11.4.5 22.5 2.1 33.5 4.9 18.4 5.5 36.7 11 54.9 16.4z" fill="#001489"/><path d="m873.1 1060.9c-.1-22.1-.2-44.3-.2-66.4v-42c7.6 3.6 15 4.7 22.5 1.7 4.9-2 8.9-5.1 11.9-9.6 5.8-8.9 5.5-20.6-.8-29.1-7.4-9.9-17.4-12.1-33.4-7.3-.1-1.5-.2-3-.2-4.4 0-22 .1-44-.1-66 0-3.7.6-5.1 4.8-5.1 17.5.3 34.9.1 52.5.1-7.9 17.1-6.3 29.4 4.8 37.9 9.2 7.1 22.1 7 31.1-.1 11-8.8 12.6-21.2 4.6-37.8h12c17 0 34 .1 51-.1 3.2 0 4.5.9 5.3 4.1 3 11.3 12.8 18.8 24.1 18.9 11.1.1 21.3-7.3 24.9-18.2.5-1.6 0-4.3 2.2-4.5 3.3-.4 6.7-.3 10 0 1.4.1.9 1.9.9 3 0 26.3 0 52.6.1 79 0 2.2-.8 3.2-2.7 4.1-9.2 4.5-14.3 11.8-14.6 22.1-.3 10.9 4.9 18.7 14.2 23.9 1.9 1 3.1 1.9 3.1 4.4-.2 30.5-.2 60.9-.3 91.4-1 .9-2.2.6-3.4.6-51.8-.8-103.5 1.9-155.3 1.2-8.5-.1-17 .5-25.5-.1-14.1-1.1-28.2-1-42.3-1.1-.4 0-.8-.4-1.2-.6z" fill="#f22f46"/><path d="m200.2 1793.2c40.9-.1 81.9-.3 122.8-.3 47.9-.1 95.8 0 143.8-.1 1.8 0 3.7-.1 5.5-.2 3.3-.5 6.7-.3 10-.2 39.8.8 79.5-1.3 119.3-1 19 .1 38-.9 56.9.1 28.5 1.5 56.9.7 85.3.8 74.8.2 149.6 0 224.4.2 14 0 27.9-1.8 41.8-1.9 17.5-.1 34.9-.9 52.4.4 2.5.2 5 0 7.5-.3s5-.6 7.1 1.4c4.5.1 9 .2 13.5.2l356.4-.3c1.7 0 3.3-.1 5-.2 1.8 0 3.7.1 5.5.1h417.2c1.8 0 3.7-.1 5.5-.2h66.5c2.5 0 5.7-.9 5 3.7-.5 3.3 1.1 6.8-5.2 6.8-119-.1-238 .1-356.9.1-371.1.2-742.2.5-1113.3.7-89.3.1-178.6.3-268 .4-7.9 0-7.9 0-7.9-7.9-.1-.6-.1-1.5-.1-2.3zm1109.7-1199.3c7.7 18.5 15.4 37 23 55.5 15.4 37.5 30.8 75.1 46 112.7 4.1 10.1 8.8 20 12 30.4-.1.7-.6 1.2-1.2 1.5-8.6 3.6-16.6 8.8-25.8 10.9-2 .7-4 1.4-6 2.2-6.4 2.9-6.4 2.9-9.1-3.4-20-46.6-40-93.2-60-139.9-1-2.2-1.3-3.5-4.2-1.3-21.3 15.9-42.8 31.5-64.1 47.4-3.6 2.7-5.5 3.4-8.6-1.1-6.3-9.2-6.6-8.9-14.7-.8-8.7 8.7-16.8 18.1-26.6 25.6-4.3 3.3-8.9 6.3-14.7 6.3-10.3.1-14.9-3.6-17.3-13.8-.7-1.2-.1-2.3.4-3.3 5.6-12 12.3-23.5 19.5-34.7.6-1 1.3-1.9 2.5-2.4 2.2 2.2 4.8 4.2 6.7 6.7 2.7 3.6 4.9 3.4 8.3.8 33.5-25.1 67.1-50.1 100.6-75.1 11.2-8 22.3-16.1 33.3-24.2zm56.8-284c15.5-6 29.6-2.7 42.7 6.7-7.1-34.9 3.4-59.6 30.4-71 23.8-10.1 49.9-2.6 64.2 18.3 14.5 21.2 11.6 50.6-6.6 69.4-16.5 17-47.5 24.7-74.3 3.2 2.6 10.5 3.3 20.7-1.4 30.6-1.6 1.2-3.2.6-4.8.1-24.5-8.7-41.9-24.6-50.3-49.6-.8-2.5-1.5-5.1.1-7.7z" fill="#06033a"/><path d="m200.2 1497c12.9 20.6 25.7 41.3 38.6 61.9-6.6 2.1-11.9 6.5-17.7 9.9-6.6 3.8-13.1 7.9-19.4 12.2-2.7 1.8-4.4 1.8-6.7-.6-8.7-8.7-8.8-8.6-2.9-19.5.7-1.3 1.2-2.7 1.8-4.1.9-2 2.3-4.1.5-6-2-2.2-4.7-3.1-7.7-2.6-3.4.6-6.8 1.3-10.1 2.2-4.8 1.4-9.1.4-12.4-3-15.7-16.2-32.1-31.9-43.4-51.8-5-8.7-10.2-17.5-12.1-27.7-1.1-5.6.2-10.3 4.8-13.7 4.3-3.1 8.7-1 12.6 1.2 6.5 3.8 10.6 10 15.2 15.6 7.6 9.2 14.6 18.9 23.5 27 11 10.2 27.4 8.3 35.4-1z" fill="#06023a"/><path d="m391.1 856.1c-12.3 15.9-24.6 31.8-36.9 47.6-7-4.9-15.2-7.2-23.2-9.7-13.4-4.3-27.4-6.6-40.5-12-1.5-.6-3-1.4-4.6-2-13.2-4.7-11.8-20.1-4.9-27.6 7.6-8.3 17.5-11.6 28-12.2 14.6-.9 29.2-.3 43.5 3.5 2.7.7 3.4.4 2.8-2.8-1.1-6.1-3-12.2-1.4-18.6.6-2.1 1.3-4.2 2.5-5.9 3.5-4.9 7.5-4.7 11 .3 6.8 9.7 10.4 21.2 16.9 31 2 2.9 3.7 6.3 6.8 8.4zm396.9 129.4c-5.4 13.4-14.8 22.1-28.5 25.4-24 5.9-46.4-8.2-51-32.7-3.6-19.2 7.4-38.5 25.1-44.7 17.4-6.1 32.6-3.4 45.7 9.4 7.6 7.4 10.4 17.1 11.5 27.4.3 2.3-.9 3.2-2.9 4-7.5 2.8-15.2 4.1-22.9 1.8-5.2-1.5-5 2-6 5.1-1.4 4.1 1.3 4.3 3.9 4.9 7.1 1.6 14.2 1.4 21.2-.5 1.1-.4 2.2-.7 3.9-.1z" fill="#66b2ff"/><path d="m1161.2 685.9c-6.7 12.1-14.5 23.7-20.3 36.4-.6 1.4-1.3 2.7-2 4-4.4 7.8-8.9 15.5-16.9 20.3-5.8 3.4-12 5.3-18.3 1.7-6.4-3.6-8.5-9.8-8.7-16.8-.5-14.3 3.8-27.6 8.9-41.2-3.2.9-6 1.8-8.9 2.4-4.2.8-8.1-.3-10.6-3.9-2.6-3.6-2-7.5.5-11.2 8.2-12.1 18.9-21.9 28.9-32.2 1.4-1.4 2.8-2.8 4.3-4.2 6.6 5.1 11.7 11.7 17.5 17.6 8.6 8.9 17 18 25.6 27.1z" fill="#f22f46"/><path d="m873.1 1060.9h227.8c-1.5 1.7-3.4.9-5.2.9-24.3.1-48.7 0-73 0-2.3 0-4.5-.4-5.3 2.9-3.8 16-15.5 22.6-30.4 25.2-11.9 2.1-23.9.8-35.8.9-4.8 0-8.1 1.2-10.6 5.6-2.6 4.6-5.9 8.8-8.9 13.2-.7 1-1.4 1.8-1 3.1-17.2-5.4-34.5-10.7-51.7-16.1 5.5-13.5 12.7-25.8 26.5-34.9-9.8 0-18.3.1-26.8 0-1.9.1-4 1-5.6-.8z" fill="#66b2ff"/><path d="m1301.2 868.7c-1.2-.4.3-3.5.9-5.4 0 0 2-7 7-12.6 6.6-7.3 16-10.9 26.8-12.7 7.2-1.2 14.4-2.1 20.9-5.9 9.7-5.7 11.9-10.6 8.8-21.4-.5-1.9-1.1-3.8-1.7-5.7 8.7-4.8 17.9-8.5 27-12.3 3.1 4.8 4.5 10.4 6.7 15.6 1.1 2.6 2.1 3 4.7 2.1 4.5-1.6 8.7-3.9 13.5-4.5 6.3 16.9.4 27-17.5 30.3-7.6 1.4-15.3 2.6-22.7 5-11.7 3.8-18.7 12.3-22.1 23.7-.5 1.8-1.2 2.8-2 3.4" fill="#06033a"/><path d="m1366.7 309.9c.8 12 6.3 22 13.8 30.9 10.9 13 24.3 22.6 41.2 26.4-7.2 18.9-26.5 28.1-42.7 26.6-27-2.4-38.9-22.7-40.3-39.3-1.7-20.1 10.4-39.1 28-44.6z" fill="#f22f46"/><path d="m719.9 872c9.1.9 18.2 3.9 24.3 12.2 2.1 2.9 3.8 3 6.4 1.2 1.8-1.2 3-1.2 3.6-1.1 1.6.2 2.2 2.2 4.9 7.7 2.4 5 3.3 6.2 2.8 7.8-.7 2.1-2.9 3-3.7 3.5-22.3 11.8-45.5 21.6-67.4 34.2-2.5 1.4-4.2 1.4-5.4-1.5-1.6-3.6-3.4-7.1-5.2-10.7-1.4-2.7-1.8-5 2-6.1 4.8-1.4 5.9-4.2 5-9.3-3.6-19 10.5-37.1 32.7-37.9z" fill="#030b5d"/><path d="m1000.1 963.1c-14.1.1-25.3-11-25.5-25.2-.1-14 11.3-25.6 25.2-25.6 14 0 25.5 11.4 25.5 25.3 0 14.2-11.2 25.4-25.2 25.5zm52.2 31.2c13.6-.1 25.2 11.3 25.5 24.9.3 13.9-11.3 25.8-25 25.9-14 .1-25.6-11.2-25.7-25.1-.1-14.1 11.2-25.6 25.2-25.7zm-81.4 23.8c.1 14.1-11.2 25.6-25.1 25.7s-25.6-11.5-25.6-25.3c0-14 11.5-25.4 25.5-25.4 13.8 0 25.1 11.2 25.2 25z" fill="#fff"/><path d="m667 1790.9c-.5.4-1.1.7-1.6 1.1h-112.3c.8-2.3 2.4-5.5 5.4-8.3 9-8.4 22.7-4.7 39.3-2.9 39.8 4.3 63.5-6 68.5 4.6 1 2 .9 4.1.7 5.5z" fill="#121c2d"/><path d="m667 1790.9c-1.7-2.1-3.4-5.1-5.8-.8-1 1.8-1.3.5-1.8-.1-.6-.6-1.7-1.3-2.2-.8-3.5 4.6-6.8.2-10.1.2-4.4 0-9.5.2-13.4 1-6.1 1.2-12 1.2-18 1.6-2.6.2-5.3.3-7.1-2.4-.5-.8-2.4-1.5-3.1-1.1-3.7 2.2-7.9 1-11.7 1.9-1.7.4-2.8 1.1-4.1-.6-.5-.6-2.1-1-2.7-.6-4.8 2.9-9.3-.5-13.9-.4-1.8 0-3.9-.1-5.2 1.1-1.8 1.7-2.8 1.5-4.3-.3-1-1.2-3.2-1.7-3.9-.1-1.5 3.3-4.2 2.6-6.7 2.6-1.4-4.1-2.9-8.1-4.3-12.2-1-2.9-2.8-5.3-5.8-5.5-3.1-.2-5.4 1.7-7 4.7-5.5 10.4-6 10.6-17.9 8.2-1.9-.4-3.9-.8-5.8-1.1-5.5-.9-6.1-1.7-4.8-7 5.5-23.1 11-46.3 17.4-69.2.1-.5.1-1 .1-1.5 23 5.5 46 11 68.9 16.5-1.6.3-2.4 1.3-2.9 2.9-5.3 16.5 6.5 34.8 23.8 37.4 11.3 1.7 22.5.4 33.8.9 6.9.3 13.9.8 20.3 3.8 1.6.8 3.3 1.5 4.8 2.6 5.4 3.9 5.7 8.5 1.2 13.4-2.2 2.1-4.8 3.7-7.8 4.9z" fill="#06023a"/><g clip-path="url(#a)"><path d="m491.3 1673.8c34.8 1.3 69.6 2.7 104.5 4" fill="#121c2d"/></g><path d="m1433.5 868.7c2.3-1.3 4.2-2.5 6.1-3.5 17.4-9.1 34.3-19 51.2-28.9 3.4-2 4-3.8 2.5-7.5-5.9-14.8-11.5-29.7-17.2-44.6-2-1.2-3.9 0-5.7.6-3 1-5.9 2.2-8.9 3.3-13.7 5.1-27.5 10-41.2 15.3-2.4.9-5.3 1.6-5.1 5.2.1 1 .4 2 .6 2.9 2.8 11.5.7 16-9.9 21.3-2.7 1.4-5.5 2.3-8.5 2.9-4.6.9-9.1 1.9-13.7 2.8-15 2.9-27.3 11.2-32.2 29.9" fill="#001489"/><path d="m1000.1 963.1c-14.1.1-25.3-11-25.5-25.2-.1-14 11.3-25.6 25.2-25.6 14 0 25.5 11.4 25.5 25.3 0 14.2-11.2 25.4-25.2 25.5zm52.2 31.2c13.6-.1 25.2 11.3 25.5 24.9.3 13.9-11.3 25.8-25 25.9-14 .1-25.6-11.2-25.7-25.1-.1-14.1 11.2-25.6 25.2-25.7zm-81.4 23.8c.1 14.1-11.2 25.6-25.1 25.7s-25.6-11.5-25.6-25.3c0-14 11.5-25.4 25.5-25.4 13.8 0 25.1 11.2 25.2 25z" fill="#fff"/><path d="m1605.2 866.4c4.7 0 5.7 1.4 5.7 5.8-.1 150.6-.1 300.2-.1 448.9 0 2.7.1 5.3.1 8-.4 2.2-2.3 2.2-3.8 2.4-2 .3-4 .2-6 .2-47.7 0-95.5.1-143.2 0-14 0-27.9-.2-41.9 0-3.5.3-7 .1-10.5.1h-249.1c-3.1 0-6.4.6-9.3-1.2-1.3-1.6-.7-3.5-.7-5.3v-452.8c0-5.8 0-5.8 5.6-5.8 47 0 94 .4 140.9-.2" fill="#ebf4ff"/><path d="m1430.1 507s9.9 16.3 13.6 43.9l56.6 16.9s-18.2-83.2-31.5-93.2z" fill="#f22f46" opacity=".23"/><path d="m1450.8 1331.9v459.5h429.3v-140.4z" fill="#66b2ff" opacity=".1"/><path d="m1465.2 477.1c1-.8 2.1-1.5 3.6-2.5 1.8 2.3 3.7 4.3 5.2 6.6s-1 2.8-2.1 3.6c-11.2 8.7-22.5 17.1-33.6 25.8-5.2 4.1-6-1.8-8.2-3.6-3.3-2.5.7-3.5 1.9-4.4" fill="#170333"/><path d="m1610.9 867.2-318 .3 317 321.3z" fill="#cce4ff" opacity=".3"/><path d="m722.9 1298 31.6-109.2-208.1 60.2z" fill="#f22f46" opacity=".39"/><path d="m988 1701c29.7.4 59.3.7 89 0 15.5.2 31 .4 46.5.5 25.8.1 51.7 0 77.5 0 8.2 0 6.8-.9 6.9 6.8 0 1.2 0 2.3-.1 3.5-1.7 1.1-3.6.6-5.3.6-39.7 0-79.3-.9-118.9.3-29.1.9-58.2.3-87.3.8-2.8 0-5.7.5-8.2-1.3-23.2-.1-46.3-.1-69.5-.3-1.7 0-4.5 1-5-.9-.7-2.8-.6-6 .1-8.9.4-1.8 2.9-.9 4.5-.9h66.5c1 .1 2.2-.1 3.3-.2zm180.8 49.8c-38.5.1-76.9.1-115.4.2-21.8 0-43.6.1-65.4.2-32-.1-64-.2-96-.2-4.7 0-9.4-.3-14 .1-5.4.4-3.6-3.4-3.8-6-.3-2.8-.4-5 3.9-5 34 .2 68 .2 102 .3 2.7 0 5.3-.2 8-.3 1.9-1.8 4.2-1.7 6.6-1.7h75.8c2.3 0 4.7-.1 6.6 1.7 2.3.2 4.6.4 6.9.4 26.2 0 52.4.2 78.6-.1 5.2-.1 7.3 1.3 6.4 6.5-.3 1.3-.1 2.6-.2 3.9z" fill="#06033a"/></svg>