<svg height="384" viewBox="0 0 384 384" width="384" xmlns="http://www.w3.org/2000/svg" xmlns:xlink="http://www.w3.org/1999/xlink"><mask id="a" fill="#fff"><path d="m0 0h384v384h-384z" fill="#fff" fill-rule="evenodd"/></mask><g fill="none" fill-rule="evenodd" mask="url(#a)"><g fill-rule="nonzero" transform="translate(0 84.313029)"><path d="m43.2162 212.938971c-9.8034-8.784-12.7368-22.95-7.2734-34.674 5.1934-11.142 16.98-17.946 29.43-16.93-1.48-3.066-10.22-21.886-1.15-37.63 0 0 3.6666-6.362 10-10.4326 16.1066-10.35 49.46 1.6368 83.5666 27.5126 1.2568-3.032 4.21-8.87 10.4568-12.712 0 0 8.17-5.028 20.5766-2.964 16.8392 2.8 34.4972 38.604 44.0832 88.834-63.2298-.338-126.4598-.67-189.6898-1.004z" fill="#f6adb7"/><path d="m131.573 60.9323711c-3.5634-.9732-7.13-1.94-10.69-2.9266-2.3668-.6534-4.7268-1.32-7.0834-2.0134-.3334-.0966-.6466-.1-.9766-.0932 1.21-3.7634 2.42-7.5268 3.63-11.29.2832-.8868.5432-1.78.8466-2.66.1166-.34.07-.6368-.01-.97-1.3766-5.7634-3.14-11.4034-5.4634-16.86-.4166-.9768-.79-1.9834-.8266-3.0634-.07-1.9466 1.3066-3.0034 3.2034-2.4866 1.1266.3066 2.01.9966 3.0032 1.9432 0-.7832-.0266-1.39.0068-1.9932.07-1.3334.48-2.55 1.7966-3.1 1.29-.5368 2.4.05 3.3666.9132 2.3034 2.0568 3.56 4.7934 4.79 7.53.8834 1.9634.8068 1.9434 2.73.91 2.33-1.25 4.8034-1.9666 7.4768-1.4832 1.9332.35 4.4132 1.7932 4.2466 4.6232-.0166.2768.0434.5268.2.7568-.51.32-.97-.0234-1.43-.14-6.4-1.6068-12.8334 2.18-14.4966 8.5432-2.01 7.6968 4.1332 15.3334 12.0732 14.9168 3.29-.1734 6.1168-1.5 8.38-3.9434.2634-.2866.46-.6766.94-.66 1.2668 1.09 1.3434 3.6734.15 4.8634-2.0232 3.4632-5.35 4.76-9.0532 5.4366-1.72.3134-3.4368.24-5.14-.0566-.5734-.1-.6934.13-.8168.55-.2766.9232-.57 1.8366-.8532 2.7532z" fill="#beb8cd"/><path d="m147.2636 47.3921711c-1.8866 2.3134-4.2334 3.9-7.17 4.5868-6.8566 1.6066-13.84-3.24-14.71-10.23-.7966-6.4068 3.0334-12.02 9.2768-13.5568 2.4266-.5966 4.8132-.3032 7.1566.4768.99.5066 1.98 1.0166 2.97 1.5232 2.9966 1.9934 4.4134 4.9334 5.01 8.3668.08.4632.0566.9266.0966 1.39.03.3766.2266.6132.6066.68.3834.0666.5234-.19.6602-.4734.7332-1.5066 1.6832-2.8634 2.93-3.9934.4132-.3732.7998-.81 1.4098-.8732 1.4868-.8234 3.01-1.5434 4.7068-1.8368 2.9132-.5066 5.6034.15 8.1766 1.4834.4068.21.81.4366 1.2134.6534 2.8834 1.9932 4.3866 4.81 4.9166 8.2132.5134 3.3134-.4032 6.27-2.32 8.93-1.76 2.4468-4.14 3.9934-7.1166 4.5968-.4266.0866-.8666-.0468-1.28.12-4.6666.35-8.4434-1.3234-11.35-4.98-1.1968-.9434-1.5234-2.3634-1.9966-3.6934-.2868-.8134-.3768-1.68-.4734-2.5366-.0534-.46-.25-.7334-.7168-.81-.44-.0734-.6666.1666-.8732.5032-.3268.5234-.4766 1.1834-1.1234 1.46z" fill="#121c2d"/><path d="m171.2126 36.2553711c2.0334-1.6566 4.3766-2.58 6.95-2.9834 5.3066-.8332 9.9766.58 13.89 4.2068 3.0666 2.8432 4.7234 6.44 5.0034 10.6532.27 4.09-.78 7.79-3.28 11.0234-2.7034 3.4934-6.2634 5.5566-10.6734 6.1566-5.5634.7534-10.19-1.0832-14.1-4.9766-.7834-.78-1.3466-1.73-1.9734-2.6266.18-.2468.4502-.2834.7134-.28 1.6966.0166 3.39-.1034 5.0866.1 1.59.1932 3.1934.0666 4.79.0666.63 0 1.0668-.3734 1.3968-.85.59-.8534 1.3866-1.1466 2.4-1.1466 2.5432 0 3.2532-.56 4.1732-2.9534.73-1.9034.64-3.8534.47-5.8134-.0832-.94-.62-1.5866-1.4866-1.97-.7634-.3332-1.5234-.6666-2.2734-1.0332-.7-.3434-1.2066-.8234-1.4032-1.5868-.2468-.9532-.89-1.5132-1.7568-1.91-2.33-1.0632-4.66-2.1366-6.9566-3.2766-.38-.1934-.8234-.32-.97-.8z" fill="#beb8cd"/><path d="m188.2028 12.5355711c.8568-.9368 1.6002-1.8234 2.5302-2.5234 4.14-3.10999997 8.9732-1.57659997 10.573 3.3634.716 2.2066.744 4.4532.384 6.7166-.108.66-.148 1.0234.762 1.12 3.464.37 5.95 2.8266 6.38 6.14.464 3.5634-1.582 7.3-4.646 8.5266-.394.1568-.58.12-.75-.2766-.364-.8534-.766-1.6934-1.16-2.5334-.196-.42-.15-.6432.336-.8966 1.718-.8966 2.504-2.4634 2.238-4.2934-.184-1.2532-.834-2.1766-2.068-2.5766-1.266-.4066-2.36-.0634-3.2558.91-1.0266 1.1166-2.0234 1.33-2.9666.6234-.9234-.69-.9934-1.89-.29-3.1468 1.54-2.7466 2.1034-5.6766 1.3266-8.7566-.6866-2.73-2.6032-3.2934-4.7566-1.4734-.43.3634-.8166.7868-1.1666 1.2268-1.25 1.5666-2.0034 3.37-2.41 5.3166-.18.86-.5468 1.5734-1.3434 1.9966-.7334.39-1.48.4134-2.1734-.0766-.6834-.48-1.02-1.1966-.8632-2.0034 1.3632-6.9432-4.3168-14.48319997-11.6668-15.79319997-6.5366-1.1668-11.5432 3.9732-10.3066 10.56999997.5034 2.69 1.66 5.04 3.49 7.0632.4066.45.5.75-.06 1.1734-.69.52-1.3066 1.1366-1.9334 1.7366-.3166.3034-.5432.27-.8266-.0366-4.4766-4.84-6.4366-12.2-3.3434-18.08999997 2.1068-4.01 5.5534-6.09 10.0168-6.4866 7.2066-.64 14.5732 4.3132 17.5466 11.49319997.1234.2968.2432.5968.4032.9868z" fill="#121c2d"/><path d="m143.5766 140.738971c-3.59-.63-6.4732-2.854-7.3332-5.79-1.3368-4.57 2.88-8.664 5.7032-10.294 3.33-1.92 9.4334-3.132 12.5234.62 1.9734 2.394 2.1266 6.09.6534 9.444" fill="#fefefe"/><g fill="#f22f46"><path d="m171.2128 36.2555711c2.6466 1.27 5.2734 2.5866 7.9534 3.7832 1.09.4868 1.81 1.15 2.0666 2.31.13.5868.45.9534 1.0566 1.1668.8068.2866 1.5368.79 2.3468 1.0632 1.1466.3868 1.6432 1.2634 1.75 2.31.2266 2.1934.17 4.3768-.7868 6.44-.3232.7-.7732 1.3134-1.2632 1.9034-.3834.46-.85.7166-1.4768.66-.43-.04-.8666 0-1.3-.01-1.0066-.03-1.89.08-2.4266 1.15-.3434.6834-.9934.8966895-1.8334.8966895-3.43.0067105-6.8466-.3766895-10.2766-.2200895-1.08-.0866-2.1566-.17-3.2366-.2566 1.96-.41 3.8266-1.03 5.4932-2.2 6.3034-4.4266 6.82-13.8 1.0334-18.88-.2634-.2334-.6334-.38-.7234-.7834.5434.2234 1.0834.4434 1.6234.6668z"/><path d="m155.4962 35.2889711c-1.84 1.3834-3.31 3.0768-4.21 5.2068-.2868.68-.7568.3598-1.1634.3598-.5434.0034-.48-.4366-.4866-.7998-.0468-3.0834-1.12-5.77-3.11-8.1134-.5368-.6334-1.2968-1.0334-1.74-1.75 3.5832 1.67 7.21 3.2534 10.71 5.0966z"/><path d="m147.2636 47.3921711c.3-.5168.64-1.0134.8934-1.5534.25-.53.4934-.8734 1.19-.7266.6766.14.8634.44.9034 1.1266.1332 2.2734.97 4.3266 2.1866 6.2334-1.6734-.0034-3.35.12-5.0066-.2168.73-1.65.8466-3.2766-.1668-4.8632z"/><path d="m274.634 47.8157711c-2.634-4.9334-6.974-7.89-12.128-9.84-5.436-2.0568-10.866-2.4234-16.416-.4934-3.744 1.3034-7.204 3.16-10.566 5.2166-1.394.85-2.76 1.7434-4.164 2.6334 3.83 3.6134 4.194 8.3134 2.69 11.4634-1.536 3.2232-5.004 5.29-8.516 5.05-3.928-.27-6.47-2.59-8.04-7.3634-.288.1734-.57.33-.84.5066-4.074 2.6934-8.138 5.3968-12.214 8.0834-12.7566 8.4034-25.5132 16.8066-38.2832 25.19-.6234.41-.73.6334-.26 1.3134 2.79 4.0334 1.76 9.4-2.27 12.1765999-3.8334 2.6434-9.6434 1.5534-12.2168-2.3933999-.5732-.8766-.9066-.78-1.6266-.2966-4.9866 3.3265999-9.9966 6.6233999-15 9.9233999-1.9534 1.2866-3.91 2.5632-5.96 3.9066.39-1.59 4.5934-28.0933999 4.61-29.0099999-4.2634.4634-7.6366-.9234-9.6034-4.89-1.5766-3.1834-.96-7.0366 1.53-9.66 3.1034-3.27 6.7734-3.6434 10.77-1.8066.23-1.39.47-2.75.6734-4.1168.0834-.5666.1166-1.01-.7366-1.1832-1.5234-.3068-3-.8468-4.4934-1.29-.1766-.28-.47-.35-.76-.43-5.5866-1.5868-11.1934-3.1168-16.7734-4.7234-.4132-.12-.8432-.2466-1.2166.12-.39 1.2166-.8066 2.4266-1.1666 3.6534-2.5568 8.7166-5.0934 17.44-7.6634 26.1532-.2266.7634-.19 1.0568.7234 1.1968 4.9766.77 8.36 5.9 7.1632 10.7566-1.31 5.3265999-7.1266 8.1699999-12.1866 5.9367999-.5732-.2534-.7934-.3034-.9734.4266-.46 1.8332-1.04 3.6332-1.57 5.4466-.3632.2866-.4798.7-.6032 1.12-1.89 6.4926-3.7768 12.9826-5.6934 19.4706-.7734 2.62-1.4734 5.286-1.5008917 8.03-.0625083 6.446 3.2574917 11.442 9.1174917 14.006 4.5434 1.986 9.3202 2.394 14.1934 1.806 5.7766-.696 11.23-2.432 16.42-5.102 4.62-2.378 9.1234-4.974 13.8034-7.24.3532-.17.7466-.334.7866-.818-.0066-.012-.0134-.022-.02-.032-.0234.01-.05.02-.0734.03-4.0766-1.654-6.25-5.904-5.15-10.08 1.09-4.144 5.1134-6.868 9.3234-6.314 4.85.636 7.4566 4.274 7.3766 10.376 3.3868-1.822 6.7334-3.63 10.0834-5.432.0466-.044.0934-.084.1434-.124.0366-.33-.1334-.62-.2334-.924-1.35-4.116-2.81-8.196-4.1766-12.31-.37-1.1126-.24-1.2126 1.2732-1.8092.97-.38 1.0534.2832 1.2634.88 1.4766 4.2132 2.8466 8.4672 4.36 12.6672.01.026.02.052.0334.076.0666-.02.1332-.044.2032-.064.1734.074.14.244.1734.38-.04.098-.09.188-.1434.274 2.1834 6.816 4.4268 13.614 6.5768 20.44.1732.546.2 1.22.9132 1.44.6568-.06.9934-.634 1.49-.95 3.83-2.434 8.73-1.43 11.5068 2.37 2.4532 3.36 2.4432 7.736-.0734 10.836-1.29 1.588-3.0066 2.478-5.0066 2.848-.9468.222-1.9034.096-2.8568.076-.1132.01-.2066.054-.2866.134-.1566.336-.0266.652.0734.962 1.2066 3.75 2.3632 7.518 3.62 11.25.1232.37.2.78.59.998.1066-.078.2232-.144.32-.23 4.7066-4.14 10.1666-6.62 16.3732-7.48 2.244-.31 4.49-.428 6.834-.164-.15-.4-.25-.716-.384-1.016-1.624-3.728-2.636-7.628-2.92-11.664-.674-9.586 1.744-18.296 7.87-25.814 3.91-4.796 8.79-8.296 14.654-10.362.356-.09.496-.418.712-.658.51-.562.944-1.192 1.524-1.696 2.094-1.82 4.49-3.034 7.176-3.704.434-.106.944-.12 1.178-.6192.09-.4068-.03-.7968-.11-1.1834-1.11-5.35-2.194-10.71-3.254-16.0699999-.076-.39-.114-.7966-.384-1.1234-.516-.43-.87-.0066-1.222.2568-1.734 1.2832-3.488 2.5434-5.21 3.8399999-1.634 1.2334-1.304 1.31-2.478-.52-.342-.5367999-.26-.8933999.244-1.2533999 2.676-1.9066 5.254-3.9466 7.934-5.8466 1.24-.8834 2.452-1.8 3.626-2.7668.914-.7532 2.014-1.2866 2.73-2.2732.26-.5168.31-1.0868.424-1.64.826-4.0168 1.72-8.0168 2.526-12.0368.14-.7.344-1.04 1.186-.84 1.664.4 1.678.3468 1.334 2.0068-.054.26-.126.52-.176.78-.568 2.9466-1.33 5.85-1.798 8.8132-.02 1.7734-.446 3.4968-.682 5.24-.284 2.0834-.314 2.0734 1.706 1.5134 4.616-1.28 10.386 1.96 10.304 8.2133999-.044 3.2432-1.718 5.7566-4.648 7.1732-2.876 1.3902-5.756 1.12-8.436-.6966-.956-.6466-1.234-.5534-1.406.5734-.27 1.7432-.558 3.4832-.798 5.23-.126.9132-.41 1.8232-.24 2.7634.28.3238.698.3738 1.064.5198.706.276 1.314.686 1.634 1.386.362.79.856.724 1.426.288.72-.558 1.496-.988 2.386-1.208 1.664-.406 2.794.194 3.378 1.798.406 1.116.632 1.192 1.59.442.682-.532 1.352-1.082 2.19-1.36 1.492-.496 2.602-.086 3.366 1.29.59 1.064.76 2.258 1.004 3.43.192.93-.028 1.954.602 2.788.944.59 1.888 1.182 2.83 1.772.468-.832.734-1.746 1.004-2.646 4.766-15.8566 9.624-31.6865999 13.33-47.8365999 1.22-5.32 2.356-10.6734 2.54-16.1766.146-4.33-.87-8.4-2.876-12.16z"/></g><g fill="#fefefe" transform="translate(100.406261 53.472162)"><path d="m109.853739 44.3999559c4.914-.0167468 8.744 3.9500532 8.714 9.0166532-.034 5.02-3.854 8.9502-8.7 8.9502-4.784 0-8.61-3.9636-8.620013-8.9268-.007987-5.0334 3.790013-9.0268 8.606013-9.0400532z"/><path d="m17.4033578 77.2628091c.0099811 4.864-3.9466189 8.794-8.84981888 8.7880068-4.6968-.0080068-8.53-3.9240068-8.55353892-8.7440068-.02646108-4.88 3.77013892-8.744 8.60013892-8.7540193 4.86659998-.0099807 8.79319998 3.8780193 8.80321888 8.7100193z"/><path d="m161.369739 17.0534091c-4.706 0-8.514-3.8-8.524007-8.50680002-.005993-4.74 3.828007-8.5534 8.598007-8.54660908 4.682.00660908 8.452 3.82660908 8.46002 8.56660908.00998 4.70000002-3.80002 8.48680002-8.53402 8.48680002z"/><path d="m80.0301389 112.092809c-1.5966-4.886-3.1966-9.77-4.7866-14.6599999-.08-.242-.16-.506-.0134-.762 4.0866-4.034 10.7134-2.99 13.6966 2.152 2.7668 4.7699999 1.1434 10.4239999-3.6166 12.6399999-.6666.31-1.3966.348-2.07.598-1.0166.132-2.0334.112-3.05.012-.0566.008-.1066.014-.16.02z"/></g><path d="m168.0732 127.688971c-.9068.62-1.86 1.156-2.8634 1.6-1.5566-4.57-3.1-9.144-4.69-13.7002-.25-.7168-.16-1.01.5834-1.29 2.1366-.81 2.1266-.85 2.8566 1.2866 1.3766 4.0336 2.7434 8.0676 4.1134 12.1036zm77.4408-51.3335999c.5-2.3634.512-2.3466-1.8-2.8466-.328-.07-.568-.0768-.744.0332-.27.1734-.316.5368-.334.6434-.11.7066-1.346 6.51-3.076 14.5934 1.36-1.1168 2.724-2.23 4.084-3.3468.62-3.0266 1.23-6.0532 1.87-9.0766zm-19.038 21.9666c-1.95 1.4368-1.92 1.43-.65 3.4999999.354.5768.584.6134 1.114.2134 2.34-1.7634 4.71-3.4899999 7.07-5.2265999-.2-1.1868-.4-2.3734-.6-3.5634-2.314 1.6934-4.626 3.3766-6.934 5.0766z" fill="#121c2d"/><path d="m180.5928 165.542971c1.0166-.004 2.0332-.01 3.05-.014-1.0134.346-2.03.304-3.05.014z" fill="#f5acb6"/><path d="m137.5002 32.2523686c4.35.0034025 7.9034 3.5468025 7.893421 7.8700025-.006621 4.2634-3.580021 7.85-7.826621 7.8600211-4.41.0099789-7.98-3.5400211-7.963458-7.9100211.020058-4.4066 3.470058-7.8234 7.896658-7.8200025z" fill="#beb8cd"/><path d="m169.27341 45.3287711c-.00681 3.9068-3.22001 7.11-7.15341 7.123463-3.9166.016537-7.12-3.250063-7.12-7.256663 0-3.8934 3.21-7.0868 7.1466-7.1100919 3.9368-.0199081 7.1334 3.2266919 7.12681 7.2432919z" fill="#beb8cd"/><path d="m260.636 126.638971c1.44 1.194 1.388 1.17 2.188-.516 5.69-11.9838 14.95-19.5472 28.07-21.8306 19.216-3.3432 37.16 9.3334 40.826 28.5166 1.456 7.62.624 14.97-2.344 22.11-.102.246-.2.494-.29.744-.02.052-.002.122-.002.28 1.136-.428 2.222-.884 3.34-1.244 14.546-4.676 29.602 2.484 35.23 16.74 5.342 13.546 2.022 29.084-8.398 39.264-.23.226-.516.396-.78.59.044.09.088.182.13.272h1.044c7.736 0 15.47.01 23.206-.022.8-.004 1.164.14 1.05 1.012-.126.978.418 2.304-.222 2.858-.558.482-1.844.136-2.808.136-52.98.004-105.96.004-158.94.004-51.6794.002-103.3594.006-155.0394.012-15.5034.004-31.0068 0-46.51.04-.95672.004-1.30006-.21-1.19338-1.192.09666-.89.03-1.798.03332-2.698.35-.17.72334-.082 1.08326-.082 6.1668-.008 12.3568.336 18.4968-.084 9.28-.634 18.55-.186 27.8232-.31 9.3-.126 18.6-.026 27.9-.026h27.9 27.9 27.9c.1668 0 .3334-.004.5 0 .5.01.7068-.158.4068-.65-.24-.4-.4568-.814-.6634-1.234-4.56-9.26-3.5166-18.06 2.2-26.464 1.0334-1.52 2.2466-2.896 3.6-4.14 3.14-2.8 6.6534-4.972 10.6366-6.386 4.04-1.434 8.1802-2.076 12.4602-1.81.096.006.196.02.33-.15-.226-.624-.53-1.284-.776-1.964-3.404-9.326-3.368-18.632.516-27.776 3.68-8.67 9.994-14.82 18.704-18.466.332-.14.676-.3 1.056-.158.244.2.194.468.176.738-.106 1.626.79 2.446 2.444 2.216 1.976-.276 3.78-1.034 5.486-2.036 1.204-.71 2.398-1.438 3.618-2.12.26-.148.582-.368.826-.134.31.296.02.624-.164.884-.592.846-1.16 1.706-1.726 2.566-.386.59-.684 1.22-.754 1.936-.142 1.498.89 2.498 2.388 2.294 1.74-.236 3.19-1.096 4.552-2.136.414-.314.854-.96 1.334-.664.534.33.036.966-.094 1.454-.23.87-.53 1.716-.252 2.64.312 1.04.94 1.55 2.026 1.586 1.16.036 2.034-.52 2.784-1.336 1.54-1.684 2.73-3.6 3.73-5.644.592-1.206.766-1.254 2-.67.752.356 1.476.766 2.25 1.08.98.61 2.1 1 2.812 1.97zm-230.2362 68.53c-9.13-.064-18.26326-.14-27.39326001-.196-.92332-.008-2.09999-.408-2.70999.146-.633334.574-.033334 1.77-.1733338 2.68-.1533334.996.2566658 1.18 1.1933338 1.184 6.89667.02 13.79333001.102 20.69325001.162.2968-.022.5934-.062.89-.062 5.9268.036 11.8568.072 17.7834.116 7.16.054 14.3234.106 21.4834.17 1.6666.014 3.3332.01 4.9932.11.87.054 1.02-.32.9568-1.044-.0568-.662-.1134-1.332-.06-1.992.06-.784-.21-1-.9968-1-7.3266-.028-14.6566-.088-21.9832-.158-3.8934-.036-7.79-.112-11.6834-.172-.9966.02-1.9934.062-2.9934.056zm-17.38658-13.054c-.74-.012-1.13.114-1.05.958.06.626.06332 1.272-.02 1.892-.13668.988.34 1.108 1.18 1.118 5.03332.052 10.06338.162 15.09658.25 3.23-.15 6.4568.076 9.6834.122 15.5566.22 31.11.434 46.6666.648.1668.002.3334-.01.5.01.4334.05.5868-.144.5968-.568.02-.8.0366-1.602.1366-2.392.1-.778-.1334-1.028-.95-1.028-3.8966-.006-7.7934-.08-11.69-.136-12.7566-.184-25.5166-.37-38.2734-.546-1.56-.02-3.12.122-4.6766-.11-5.7366-.064-11.46998-.12-17.19998-.218z" fill="#121c2d"/><path d="m227.4 122.014971c2.192-3.482 5.542-5.256 9.37-6.312.346-.0974.71-.1474 1.062-.2174.178-.0366.39-.07.638-.0766.31-.0066.576.03.78.0766 1.61.2634 2.07.7574 2.352 1.0494.264.274.48.614.64 1.03.264.68.604.178.8 0 .758-.68 1.644-1.116 2.6-1.392 1.738-.504 3.288.446 3.78 2.272.058.21.068.434.108.728.556-.288.94-.63 1.332-.984 1.458-1.31 3.248-1.654 4.518-.896.992.59 1.36 1.602 1.64 2.612.446 1.618.61 3.29.782 4.958-1.012-.294-1.912-.848-2.856-1.294-.454-.214-.67-.194-.914.334-1.03 2.226-2.32 4.296-3.952 6.146-1.194 1.35-2.96 1.89-4.16 1.22-.974-.544-1.498-1.81-1.204-3.006.216-.888.486-1.76.774-2.78-.938.672-1.754 1.3-2.614 1.862-.974.638-2.02 1.08-3.196 1.254-2.038.3-3.36-1.214-2.698-3.16.5-1.464 1.468-2.654 2.324-3.904.166-.246.346-.482.424-.876-.744.424-1.498.834-2.228 1.276-2.03 1.238-4.062 2.47-6.406 3.05-.446.11-.896.23-1.354.29-2.1.278-3.14-1.176-2.342-3.26z" fill="#beb8cd"/></g></g></svg>