<svg fill="none" height="192" viewBox="0 0 192 192" width="192" xmlns="http://www.w3.org/2000/svg" xmlns:xlink="http://www.w3.org/1999/xlink"><clipPath id="a"><path d="m0 0h192v192h-192z"/></clipPath><g clip-path="url(#a)"><path d="m21.6081 148.626c-4.9017-4.392-6.3684-11.475-3.6367-17.337 2.5967-5.571 8.49-8.973 14.715-8.465-.74-1.533-5.11-10.943-.575-18.815 0 0 1.8333-3.181 5-5.2163 8.0533-5.175 24.73.8184 41.7833 13.7563.6284-1.516 2.105-4.435 5.2284-6.356 0 0 4.085-2.514 10.2883-1.482 8.4196 1.4 17.2486 19.302 22.0416 44.417-31.6149-.169-63.2299-.335-94.8449-.502z" fill="#f6adb7"/><path d="m65.7865 72.6227c-1.7817-.4866-3.565-.97-5.345-1.4633-1.1834-.3267-2.3634-.66-3.5417-1.0067-.1667-.0483-.3233-.05-.4883-.0466.605-1.8817 1.21-3.7634 1.815-5.645.1416-.4434.2716-.89.4233-1.33.0583-.17.035-.3184-.005-.485-.6883-2.8817-1.57-5.7017-2.7317-8.43-.2083-.4884-.395-.9917-.4133-1.5317-.035-.9733.6533-1.5017 1.6017-1.2433.5633.1533 1.005.4983 1.5016.9716 0-.3916-.0133-.695.0034-.9966.035-.6667.24-1.275.8983-1.55.645-.2684 1.2.025 1.6833.4566 1.1517 1.0284 1.78 2.3967 2.395 3.765.4417.9817.4034.9717 1.365.455 1.165-.625 2.4017-.9833 3.7384-.7416.9666.175 2.2066.8966 2.1233 2.3116-.0083.1384.0217.2634.1.3784-.255.16-.485-.0117-.715-.07-3.2-.8034-6.4167 1.09-7.2483 4.2716-1.005 3.8484 2.0666 7.6667 6.0366 7.4584 1.645-.0867 3.0584-.75 4.19-1.9717.1317-.1433.23-.3383.47-.33.6334.545.6717 1.8367.075 2.4317-1.0116 1.7316-2.675 2.38-4.5266 2.7183-.86.1567-1.7184.12-2.57-.0283-.2867-.05-.3467.065-.4084.275-.1383.4616-.285.9183-.4266 1.3766z" fill="#beb8cd"/><path d="m73.6318 65.8526c-.9433 1.1567-2.1167 1.95-3.585 2.2934-3.4283.8033-6.92-1.62-7.355-5.115-.3983-3.2034 1.5167-6.01 4.6384-6.7784 1.2133-.2983 2.4066-.1516 3.5783.2384.495.2533.99.5083 1.485.7616 1.4983.9967 2.2067 2.4667 2.505 4.1834.04.2316.0283.4633.0483.695.015.1883.1133.3066.3033.34.1917.0333.2617-.095.3301-.2367.3666-.7533.8416-1.4317 1.465-1.9967.2066-.1866.3999-.405.7049-.4366.7434-.4117 1.505-.7717 2.3534-.9184 1.4566-.2533 2.8017.075 4.0883.7417.2034.105.405.2183.6067.3267 1.4417.9966 2.1933 2.405 2.4583 4.1066.2567 1.6567-.2016 3.135-1.16 4.465-.88 1.2234-2.07 1.9967-3.5583 2.2984-.2133.0433-.4333-.0234-.64.06-2.3333.175-4.2217-.6617-5.675-2.49-.5984-.4717-.7617-1.1817-.9983-1.8467-.1434-.4067-.1884-.84-.2367-1.2683-.0267-.23-.125-.3667-.3584-.405-.22-.0367-.3333.0833-.4366.2516-.1634.2617-.2383.5917-.5617.73z" fill="#121c2d"/><path d="m85.6063 60.2842c1.0167-.8283 2.1883-1.29 3.475-1.4917 2.6533-.4166 4.9883.29 6.945 2.1034 1.5333 1.4216 2.3617 3.22 2.5017 5.3266.135 2.045-.39 3.895-1.64 5.5117-1.3517 1.7467-3.1317 2.7783-5.3367 3.0783-2.7817.3767-5.095-.5416-7.05-2.4883-.3917-.39-.6733-.865-.9867-1.3133.09-.1234.2251-.1417.3567-.14.8483.0083 1.695-.0517 2.5433.05.795.0966 1.5967.0333 2.395.0333.315 0 .5334-.1867.6984-.425.295-.4267.6933-.5733 1.2-.5733 1.2716 0 1.6266-.28 2.0866-1.4767.365-.9517.32-1.9267.235-2.9067-.0416-.47-.31-.7933-.7433-.985-.3817-.1666-.7617-.3333-1.1367-.5166-.35-.1717-.6033-.4117-.7016-.7934-.1234-.4766-.445-.7566-.8784-.955-1.165-.5316-2.33-1.0683-3.4783-1.6383-.19-.0967-.4117-.16-.485-.4z" fill="#beb8cd"/><path d="m94.1014 48.4243c.4284-.4684.8001-.9117 1.2651-1.2617 2.07-1.555 4.4866-.7883 5.2865 1.6817.358 1.1033.372 2.2266.192 3.3583-.054.33-.074.5117.381.56 1.732.185 2.975 1.4133 3.19 3.07.232 1.7817-.791 3.65-2.323 4.2633-.197.0784-.29.06-.375-.1383-.182-.4267-.383-.8467-.58-1.2667-.098-.21-.075-.3216.168-.4483.859-.4483 1.252-1.2317 1.119-2.1467-.092-.6266-.417-1.0883-1.034-1.2883-.633-.2033-1.18-.0317-1.6279.455-.5133.5583-1.0117.665-1.4833.3117-.4617-.345-.4967-.945-.145-1.5734.77-1.3733 1.0517-2.8383.6633-4.3783-.3433-1.365-1.3016-1.6467-2.3783-.7367-.215.1817-.4083.3934-.5833.6134-.625.7833-1.0017 1.685-1.205 2.6583-.09.43-.2734.7867-.6717.9983-.3667.195-.74.2067-1.0867-.0383-.3417-.24-.51-.5983-.4316-1.0017.6816-3.4716-2.1584-7.2416-5.8334-7.8966-3.2683-.5834-5.7716 1.9866-5.1533 5.285.2517 1.345.83 2.52 1.745 3.5316.2033.225.25.375-.03.5867-.345.26-.6533.5683-.9667.8683-.1583.1517-.2716.135-.4133-.0183-2.2383-2.42-3.2183-6.1-1.6717-9.045 1.0534-2.005 2.7767-3.045 5.0084-3.2433 3.6033-.32 7.2866 2.1566 8.7733 5.7466.0617.1484.1216.2984.2016.4934z" fill="#121c2d"/><path d="m71.7883 112.526c-1.795-.315-3.2366-1.427-3.6666-2.895-.6684-2.285 1.44-4.332 2.8516-5.147 1.665-.96 4.7167-1.566 6.2617.31.9867 1.197 1.0633 3.045.3267 4.722" fill="#fefefe"/><path d="m85.6064 60.2843c1.3233.635 2.6367 1.2933 3.9767 1.8916.545.2434.905.575 1.0333 1.155.065.2934.225.4767.5283.5834.4034.1433.7684.395 1.1734.5316.5733.1934.8216.6317.875 1.155.1133 1.0967.085 2.1884-.3934 3.22-.1616.35-.3866.6567-.6316.9517-.1917.23-.425.3583-.7384.33-.215-.02-.4333 0-.65-.005-.5033-.015-.945.04-1.2133.575-.1717.3417-.4967.4483-.9167.4483-1.715.0034-3.4233-.1883-5.1383-.11-.54-.0433-1.0783-.085-1.6183-.1283.98-.205 1.9133-.515 2.7466-1.1 3.1517-2.2133 3.41-6.9.5167-9.44-.1317-.1167-.3167-.19-.3617-.3917.2717.1117.5417.2217.8117.3334z" fill="#f22f46"/><path d="m77.7481 59.801c-.92.6917-1.655 1.5384-2.105 2.6034-.1434.34-.3784.1799-.5817.1799-.2717.0017-.24-.2183-.2433-.3999-.0234-1.5417-.56-2.885-1.555-4.0567-.2684-.3167-.6484-.5167-.87-.875 1.7916.835 3.605 1.6267 5.355 2.5483z" fill="#f22f46"/><path d="m73.6318 65.8526c.15-.2584.32-.5067.4467-.7767.125-.265.2467-.4367.595-.3633.3383.07.4317.22.4517.5633.0666 1.1367.485 2.1633 1.0933 3.1167-.8367-.0017-1.675.06-2.5033-.1084.365-.825.4233-1.6383-.0834-2.4316z" fill="#f22f46"/><path d="m137.317 66.0644c-1.317-2.4667-3.487-3.945-6.064-4.92-2.718-1.0284-5.433-1.2117-8.208-.2467-1.872.6517-3.602 1.58-5.283 2.6083-.697.425-1.38.8717-2.082 1.3167 1.915 1.8067 2.097 4.1567 1.345 5.7317-.768 1.6116-2.502 2.645-4.258 2.525-1.964-.135-3.235-1.295-4.02-3.6817-.144.0867-.285.165-.42.2533-2.037 1.3467-4.069 2.6984-6.107 4.0417-6.3783 4.2017-12.7566 8.4033-19.1416 12.595-.3117.205-.365.3167-.13.6567 1.395 2.0167.88 4.7-1.135 6.0883-1.9167 1.3217-4.8217.7767-6.1084-1.1967-.2866-.4383-.4533-.39-.8133-.1483-2.4933 1.6633-4.9983 3.3117-7.5 4.9617-.9767.6433-1.955 1.2816-2.98 1.9533.195-.795 2.2967-14.0467 2.305-14.505-2.1317.2317-3.8183-.4617-4.8017-2.445-.7883-1.5917-.48-3.5183.765-4.83 1.5517-1.635 3.3867-1.8217 5.385-.9033.115-.695.235-1.375.3367-2.0584.0417-.2833.0583-.505-.3683-.5916-.7617-.1534-1.5-.4234-2.2467-.645-.0883-.14-.235-.175-.38-.215-2.7933-.7934-5.5967-1.5584-8.3867-2.3617-.2066-.06-.4216-.1233-.6083.06-.195.6083-.4033 1.2133-.5833 1.8267-1.2784 4.3583-2.5467 8.72-3.8317 13.0766-.1133.3817-.095.5284.3617.5984 2.4883.385 4.18 2.95 3.5816 5.3783-.655 2.6633-3.5633 4.085-6.0933 2.9684-.2866-.1267-.3967-.1517-.4867.2133-.23.9166-.52 1.8166-.785 2.7233-.1816.1433-.2399.35-.3016.56-.945 3.2463-1.8884 6.4913-2.8467 9.7353-.3867 1.31-.7367 2.643-.75 4.015-.0317 3.223 1.6283 5.721 4.5583 7.003 2.2717.993 4.6601 1.197 7.0967.903 2.8883-.348 5.615-1.216 8.21-2.551 2.31-1.189 4.5617-2.487 6.9017-3.62.1766-.085.3733-.167.3933-.409-.0033-.006-.0067-.011-.01-.016-.0117.005-.025.01-.0367.015-2.0383-.827-3.125-2.952-2.575-5.04.545-2.072 2.5567-3.434 4.6617-3.157 2.425.318 3.7283 2.137 3.6883 5.188 1.6934-.911 3.3667-1.815 5.0417-2.716.0233-.022.0467-.042.0717-.062.0183-.165-.0667-.31-.1167-.462-.675-2.058-1.405-4.098-2.0883-6.155-.185-.5563-.12-.6063.6366-.9046.485-.19.5267.1416.6317.44.7383 2.1066 1.4233 4.2336 2.18 6.3336.005.013.01.026.0167.038.0333-.01.0666-.022.1016-.032.0867.037.07.122.0867.19-.02.049-.045.094-.0717.137 1.0917 3.408 2.2134 6.807 3.2884 10.22.0866.273.1.61.4566.72.3284-.03.4967-.317.745-.475 1.915-1.217 4.365-.715 5.7534 1.185 1.2266 1.68 1.2216 3.868-.0367 5.418-.645.794-1.5033 1.239-2.5033 1.424-.4734.111-.9517.048-1.4284.038-.0566.005-.1033.027-.1433.067-.0783.168-.0133.326.0367.481.6033 1.875 1.1816 3.759 1.81 5.625.0616.185.1.39.295.499.0533-.039.1116-.072.16-.115 2.3533-2.07 5.0833-3.31 8.1866-3.74 1.122-.155 2.245-.214 3.417-.082-.075-.2-.125-.358-.192-.508-.812-1.864-1.318-3.814-1.46-5.832-.337-4.793.872-9.148 3.935-12.907 1.955-2.398 4.395-4.148 7.327-5.181.178-.045.248-.209.356-.329.255-.281.472-.596.762-.848 1.047-.91 2.245-1.517 3.588-1.852.217-.053.472-.06.589-.3096.045-.2034-.015-.3984-.055-.5917-.555-2.675-1.097-5.355-1.627-8.035-.038-.195-.057-.3983-.192-.5617-.258-.215-.435-.0033-.611.1284-.867.6416-1.744 1.2717-2.605 1.92-.817.6167-.652.655-1.239-.26-.171-.2684-.13-.4467.122-.6267 1.338-.9533 2.627-1.9733 3.967-2.9233.62-.4417 1.226-.9 1.813-1.3834.457-.3766 1.007-.6433 1.365-1.1366.13-.2584.155-.5434.212-.82.413-2.0084.86-4.0084 1.263-6.0184.07-.35.172-.52.593-.42.832.2.839.1734.667 1.0034-.027.13-.063.26-.088.39-.284 1.4733-.665 2.925-.899 4.4066-.01.8867-.223 1.7484-.341 2.62-.142 1.0417-.157 1.0367.853.7567 2.308-.64 5.193.98 5.152 4.1067-.022 1.6216-.859 2.8783-2.324 3.5866-1.438.6951-2.878.56-4.218-.3483-.478-.3233-.617-.2767-.703.2867-.135.8716-.279 1.7416-.399 2.615-.063.4566-.205.9116-.12 1.3817.14.1619.349.1869.532.2599.353.138.657.343.817.693.181.395.428.362.713.144.36-.279.748-.494 1.193-.604.832-.203 1.397.097 1.689.899.203.558.316.596.795.221.341-.266.676-.541 1.095-.68.746-.248 1.301-.043 1.683.645.295.532.38 1.129.502 1.715.096.465-.014.977.301 1.394.472.295.944.591 1.415.886.234-.416.367-.873.502-1.323 2.383-7.9283 4.812-15.8433 6.665-23.9183.61-2.66 1.178-5.3367 1.27-8.0883.073-2.165-.435-4.2-1.438-6.08z" fill="#f22f46"/><g fill="#fefefe"><path d="m105.13 91.0926c2.457-.0084 4.372 1.975 4.357 4.5083-.017 2.51-1.927 4.4751-4.35 4.4751-2.392 0-4.305-1.9818-4.31-4.4634-.004-2.5167 1.895-4.5134 4.303-4.52z"/><path d="m58.9048 107.524c.005 2.432-1.9733 4.397-4.4249 4.394-2.3484-.004-4.265-1.962-4.2767-4.372-.0133-2.44 1.885-4.372 4.3-4.377 2.4333-.005 4.3966 1.939 4.4016 4.355z"/><path d="m130.888 77.4193c-2.353 0-4.257-1.9-4.262-4.2534-.003-2.37 1.914-4.2767 4.299-4.2733 2.341.0033 4.226 1.9133 4.23 4.2833.005 2.35-1.9 4.2434-4.267 4.2434z"/><path d="m90.2182 124.939c-.7983-2.443-1.5983-4.885-2.3933-7.33-.04-.121-.08-.253-.0067-.381 2.0433-2.017 5.3567-1.495 6.8483 1.076 1.3834 2.385.5717 5.212-1.8083 6.32-.3333.155-.6983.174-1.035.299-.5083.066-1.0167.056-1.525.006-.0283.004-.0533.007-.08.01z"/></g><path d="m84.0366 106.001c-.4534.31-.93.578-1.4317.8-.7783-2.285-1.55-4.572-2.345-6.8501-.125-.3584-.08-.505.2917-.645 1.0683-.405 1.0633-.425 1.4283.6433.6883 2.0168 1.3717 4.0338 2.0567 6.0518zm38.7204-25.6668c.25-1.1817.256-1.1733-.9-1.4233-.164-.035-.284-.0384-.372.0166-.135.0867-.158.2684-.167.3217-.055.3533-.673 3.255-1.538 7.2967.68-.5584 1.362-1.115 2.042-1.6734.31-1.5133.615-3.0266.935-4.5383zm-9.519 10.9833c-.975.7184-.96.715-.325 1.75.177.2884.292.3067.557.1067 1.17-.8817 2.355-1.745 3.535-2.6133-.1-.5934-.2-1.1867-.3-1.7817-1.157.8467-2.313 1.6883-3.467 2.5383z" fill="#121c2d"/><path d="m90.2964 124.928c.5083-.002 1.0166-.005 1.525-.007-.5067.173-1.015.152-1.525.007z" fill="#f5acb6"/><path d="m68.7501 58.2827c2.175.0017 3.9517 1.7734 3.9467 3.935-.0033 2.1317-1.79 3.925-3.9133 3.93-2.205.005-3.99-1.77-3.9817-3.955.01-2.2033 1.735-3.9117 3.9483-3.91z" fill="#beb8cd"/><path d="m84.6367 64.8209c-.0034 1.9534-1.61 3.555-3.5767 3.5617-1.9583.0083-3.56-1.625-3.56-3.6283 0-1.9467 1.605-3.5434 3.5733-3.555 1.9684-.01 3.5667 1.6133 3.5634 3.6216z" fill="#beb8cd"/><path d="m130.318 105.476c.72.597.694.585 1.094-.258 2.845-5.9919 7.475-9.7736 14.035-10.9153 9.608-1.6716 18.58 4.6667 20.413 14.2583.728 3.81.312 7.485-1.172 11.055-.051.123-.1.247-.145.372-.01.026-.001.061-.001.14.568-.214 1.111-.442 1.67-.622 7.273-2.338 14.801 1.242 17.615 8.37 2.671 6.773 1.011 14.542-4.199 19.632-.115.113-.258.198-.39.295.022.045.044.091.065.136h.522c3.868 0 7.735.005 11.603-.011.4-.002.582.07.525.506-.063.489.209 1.152-.111 1.429-.279.241-.922.068-1.404.068-26.49.002-52.98.002-79.47.002-25.8397.001-51.6797.003-77.5197.006-7.7517.002-15.5034 0-23.255.02-.47836.002-.65003-.105-.59669-.596.04833-.445.015-.899.01666-1.349.175-.085.36167-.041.54163-.041 3.0834-.004 6.1784.168 9.2484-.042 4.64-.317 9.275-.093 13.9116-.155 4.65-.063 9.3-.013 13.95-.013h13.95 13.95 13.95c.0834 0 .1667-.002.25 0 .25.005.3534-.079.2034-.325-.12-.2-.2284-.407-.3317-.617-2.28-4.63-1.7583-9.03 1.1-13.232.5167-.76 1.1233-1.448 1.8-2.07 1.57-1.4 3.3267-2.486 5.3183-3.193 2.02-.717 4.0901-1.038 6.2301-.905.048.003.098.01.165-.075-.113-.312-.265-.642-.388-.982-1.702-4.663-1.684-9.316.258-13.888 1.84-4.335 4.997-7.41 9.352-9.233.166-.07.338-.15.528-.079.122.1.097.234.088.369-.053.813.395 1.223 1.222 1.108.988-.138 1.89-.517 2.743-1.018.602-.355 1.199-.719 1.809-1.06.13-.074.291-.184.413-.067.155.148.01.312-.082.442-.296.423-.58.853-.863 1.283-.193.295-.342.61-.377.968-.071.749.445 1.249 1.194 1.147.87-.118 1.595-.548 2.276-1.068.207-.157.427-.48.667-.332.267.165.018.483-.047.727-.115.435-.265.858-.126 1.32.156.52.47.775 1.013.793.58.018 1.017-.26 1.392-.668.77-.842 1.365-1.8 1.865-2.822.296-.603.383-.627 1-.335.376.178.738.383 1.125.54.49.305 1.05.5 1.406.985zm-115.1181 34.265c-4.565-.032-9.13163-.07-13.69663-.098-.46166-.004-1.049995-.204-1.354995.073-.316667.287-.016667.885-.0866669 1.34-.0766667.498.1283329.59.5966669.592 3.448335.01 6.896665.051 10.346625.081.1484-.011.2967-.031.445-.031 2.9634.018 5.9284.036 8.8917.058 3.58.027 7.1617.053 10.7417.085.8333.007 1.6666.005 2.4966.055.435.027.51-.16.4784-.522-.0284-.331-.0567-.666-.03-.996.03-.392-.105-.5-.4984-.5-3.6633-.014-7.3283-.044-10.9916-.079-1.9467-.018-3.895-.056-5.8417-.086-.4983.01-.9967.031-1.4967.028zm-8.69329-6.527c-.37-.006-.565.057-.525.479.03.313.03166.636-.01.946-.06834.494.17.554.59.559 2.51666.026 5.03169.081 7.54829.125 1.615-.075 3.2284.038 4.8417.061 7.7783.11 15.555.217 23.3333.324.0834.001.1667-.005.25.005.2167.025.2934-.072.2984-.284.01-.4.0183-.801.0683-1.196.05-.389-.0667-.514-.475-.514-1.9483-.003-3.8967-.04-5.845-.068-6.3783-.092-12.7583-.185-19.1367-.273-.78-.01-1.56.061-2.3383-.055-2.8683-.032-5.73499-.06-8.59999-.109z" fill="#121c2d"/><path d="m113.7 103.164c1.096-1.741 2.771-2.628 4.685-3.156.173-.0487.355-.0737.531-.1087.089-.0183.195-.035.319-.0383.155-.0033.288.015.39.0383.805.1317 1.035.3787 1.176.5247.132.137.24.307.32.515.132.34.302.089.4 0 .379-.34.822-.558 1.3-.696.869-.252 1.644.223 1.89 1.136.029.105.034.217.054.364.278-.144.47-.315.666-.492.729-.655 1.624-.827 2.259-.448.496.295.68.801.82 1.306.223.809.305 1.645.391 2.479-.506-.147-.956-.424-1.428-.647-.227-.107-.335-.097-.457.167-.515 1.113-1.16 2.148-1.976 3.073-.597.675-1.48.945-2.08.61-.487-.272-.749-.905-.602-1.503.108-.444.243-.88.387-1.39-.469.336-.877.65-1.307.931-.487.319-1.01.54-1.598.627-1.019.15-1.68-.607-1.349-1.58.25-.732.734-1.327 1.162-1.952.083-.123.173-.241.212-.438-.372.212-.749.417-1.114.638-1.015.619-2.031 1.235-3.203 1.525-.223.055-.448.115-.677.145-1.05.139-1.57-.588-1.171-1.63z" fill="#beb8cd"/></g></svg>