<svg xmlns="http://www.w3.org/2000/svg" width="20" height="20" viewBox="0 0 20 20">
  <path fill="#707578" fill-rule="evenodd" d="M10,5 L10.0114392,5.00014593 C10.0308831,5.00064211 10.0503059,5.00240355 10.069599,5.00543026 L10,5 C10.038107,5 10.0752095,5.00444912 10.1108485,5.01287262 C10.120217,5.01626872 10.1295878,5.01897074 10.1388947,5.02198216 C10.2516628,5.05450847 10.3474927,5.12854142 10.4113748,5.2266767 L13.8548429,9.05903758 C14.0483857,9.27429575 14.0483857,9.6232982 13.8548429,9.83855637 C13.6828048,10.029897 13.4157528,10.051157 13.2226005,9.90233657 L13.1539624,9.83855637 L10.495,6.882 L10.4955974,14.4873192 C10.4955974,14.770465 10.2737109,15 10,15 C9.75670145,15 9.55435055,14.818639 9.51238736,14.5794742 L9.50440263,14.4873192 L9.504,6.883 L6.84603764,9.83855637 C6.67399958,10.029897 6.40694753,10.051157 6.21379525,9.90233657 L6.14515711,9.83855637 C5.97311905,9.64721578 5.95400371,9.35020069 6.08781109,9.13537687 L6.14515711,9.05903758 L9.5886252,5.2266767 C9.65250727,5.12854142 9.74833722,5.05450847 9.86069331,5.0205312 C9.87041222,5.01897074 9.87978295,5.01626872 9.88920436,5.01387612 C9.90266843,5.00967781 9.91639588,5.00705471 9.93030881,5.00502922 C9.95002309,5.00235195 9.96977923,5.00058241 9.98955543,5.00012166 C9.99257544,5.00004233 9.99628294,5 10,5 Z"/>
</svg>
