<svg xmlns="http://www.w3.org/2000/svg" width="20" height="20" viewBox="0 0 20 20">
  <path fill="#707578" fill-rule="evenodd" d="M5.00863786,9.90958826 L5.00174424,9.9599089 L5.00174424,9.9599089 L5.00174424,10.0405756 L5.00174424,10.0405756 L5.01287262,10.1108485 L5.01287262,10.1108485 L5.02198216,10.1388947 C5.05450847,10.2516628 5.12854142,10.3474927 5.2266767,10.4113748 L9.05903758,13.8548429 C9.27429575,14.0483857 9.6232982,14.0483857 9.83855637,13.8548429 C10.029897,13.6828048 10.051157,13.4157528 9.90233657,13.2226005 L9.83855637,13.1539624 L6.882,10.495 L14.4873192,10.4955974 C14.770465,10.4955974 15,10.2737109 15,10 C15,9.75670145 14.818639,9.55435055 14.5794742,9.51238736 L14.4873192,9.50440263 L6.883,9.504 L9.83855637,6.84603764 C10.029897,6.67399958 10.051157,6.40694753 9.90233657,6.21379525 L9.83855637,6.14515711 C9.64721578,5.97311905 9.35020069,5.95400371 9.13537687,6.08781109 L9.05903758,6.14515711 L5.2266767,9.5886252 C5.12854142,9.65250727 5.05450847,9.74833722 5.0205312,9.86069331 L5.00863786,9.90958826 L5.00863786,9.90958826 Z"/>
</svg>
