<svg xmlns="http://www.w3.org/2000/svg" width="20" height="20" viewBox="0 0 20 20">
  <path fill="#707578" fill-rule="evenodd" d="M7.61289944,12.2097046 L7.70710678,12.2928932 L10,14.585 L12.2928932,12.2928932 C12.6533772,11.9324093 13.2206082,11.9046797 13.6128994,12.2097046 L13.7071068,12.2928932 C14.0675907,12.6533772 14.0953203,13.2206082 13.7902954,13.6128994 L13.7071068,13.7071068 L10.7071068,16.7071068 C10.3466228,17.0675907 9.77939176,17.0953203 9.38710056,16.7902954 L9.29289322,16.7071068 L6.29289322,13.7071068 C5.90236893,13.3165825 5.90236893,12.6834175 6.29289322,12.2928932 C6.65337718,11.9324093 7.22060824,11.9046797 7.61289944,12.2097046 Z M10.6128994,3.20970461 L10.7071068,3.29289322 L13.7071068,6.29289322 C14.0976311,6.68341751 14.0976311,7.31658249 13.7071068,7.70710678 C13.3466228,8.06759074 12.7793918,8.09532028 12.3871006,7.79029539 L12.2928932,7.70710678 L10,5.415 L7.70710678,7.70710678 C7.34662282,8.06759074 6.77939176,8.09532028 6.38710056,7.79029539 L6.29289322,7.70710678 C5.93240926,7.34662282 5.90467972,6.77939176 6.20970461,6.38710056 L6.29289322,6.29289322 L9.29289322,3.29289322 C9.65337718,2.93240926 10.2206082,2.90467972 10.6128994,3.20970461 Z"/>
</svg>
