<svg xmlns="http://www.w3.org/2000/svg" width="20" height="20" viewBox="0 0 20 20">
  <path fill="#707578" fill-rule="evenodd" d="M11.3824852,5.17475384 L11.4632344,5.24407768 L15.7489487,9.41074435 C16.0579349,9.71114765 16.0817031,10.1838402 15.8202532,10.5107495 L15.7489487,10.5892557 L11.4632344,14.7559223 C11.1284993,15.0813592 10.5857864,15.0813592 10.2510513,14.7559223 C9.94206508,14.455519 9.9182969,13.9828265 10.1797468,13.6559171 L10.2510513,13.577411 L13.93,10 L10.2510513,6.42258898 C9.94206508,6.12218568 9.9182969,5.64949314 10.1797468,5.3225838 L10.2510513,5.24407768 C10.5600376,4.94367438 11.0462356,4.92056643 11.3824852,5.17475384 Z M5.38248524,5.17475384 L5.46323438,5.24407768 L9.74894867,9.41074435 C10.0579349,9.71114765 10.0817031,10.1838402 9.82025319,10.5107495 L9.74894867,10.5892557 L5.46323438,14.7559223 C5.12849928,15.0813592 4.58578644,15.0813592 4.25105133,14.7559223 C3.94206508,14.455519 3.9182969,13.9828265 4.17974681,13.6559171 L4.25105133,13.577411 L7.93,10 L4.25105133,6.42258898 C3.94206508,6.12218568 3.9182969,5.64949314 4.17974681,5.3225838 L4.25105133,5.24407768 C4.56003758,4.94367438 5.04623563,4.92056643 5.38248524,5.17475384 Z"/>
</svg>
