<svg xmlns="http://www.w3.org/2000/svg" width="20" height="20" viewBox="0 0 20 20">
  <path fill="#707578" fill-rule="evenodd" d="M9.74894867,5.24407768 C10.0579349,5.54448098 10.0817031,6.01717353 9.82025319,6.34408287 L9.74894867,6.42258898 L6.07,10 L9.74894867,13.577411 C10.0579349,13.8778143 10.0817031,14.3505069 9.82025319,14.6774162 L9.74894867,14.7559223 C9.43996242,15.0563256 8.95376437,15.0794336 8.61751476,14.8252462 L8.53676562,14.7559223 L4.25105133,10.5892557 C3.94206508,10.2888523 3.9182969,9.8161598 4.17974681,9.48925046 L4.25105133,9.41074435 L8.53676562,5.24407768 C8.87150072,4.91864077 9.41421356,4.91864077 9.74894867,5.24407768 Z M15.7489487,5.24407768 C16.0579349,5.54448098 16.0817031,6.01717353 15.8202532,6.34408287 L15.7489487,6.42258898 L12.07,10 L15.7489487,13.577411 C16.0579349,13.8778143 16.0817031,14.3505069 15.8202532,14.6774162 L15.7489487,14.7559223 C15.4399624,15.0563256 14.9537644,15.0794336 14.6175148,14.8252462 L14.5367656,14.7559223 L10.2510513,10.5892557 C9.94206508,10.2888523 9.9182969,9.8161598 10.1797468,9.48925046 L10.2510513,9.41074435 L14.5367656,5.24407768 C14.8715007,4.91864077 15.4142136,4.91864077 15.7489487,5.24407768 Z"/>
</svg>
