<svg xmlns="http://www.w3.org/2000/svg" width="20" height="20" viewBox="0 0 20 20">
  <path fill="#707578" fill-rule="evenodd" d="M15.1597436,13.5144861 L11.6452575,10 L15.1597436,6.48551392 C15.6134188,6.03183869 15.6134188,5.29393166 15.1597436,4.84025642 C14.7060683,4.38658119 13.9681613,4.38658119 13.5144861,4.84025642 L10,8.35474251 L6.48551392,4.84025642 C6.03183869,4.38658119 5.29393166,4.38658119 4.84025642,4.84025642 C4.38658119,5.29393166 4.38658119,6.03183869 4.84025642,6.48551392 L8.35474251,10 L4.84025642,13.5144861 C4.38658119,13.9681613 4.38658119,14.7060683 4.84025642,15.1597436 C5.29393166,15.6134188 6.03183869,15.6134188 6.48551392,15.1597436 L10,11.6452575 L13.5144861,15.1597436 C13.9681613,15.6134188 14.7060683,15.6134188 15.1597436,15.1597436 C15.6134188,14.7060683 15.6134188,13.9681613 15.1597436,13.5144861 Z"/>
</svg>
