<svg xmlns="http://www.w3.org/2000/svg" width="20" height="20" fill="none" viewBox="0 0 20 20">
  <path fill="#606B85" fill-rule="evenodd" d="M10.011 3.53C9.246 4.598 8.253 6.014 7.39 7.47c-.873 1.476-1.582 2.943-1.814 4.113-.477 2.398 1.428 4.894 4.437 4.894 2.99 0 4.836-2.484 4.434-4.91-.082-.492-.318-1.141-.668-1.887a27.423 27.423 0 00-1.258-2.325 60.408 60.408 0 00-2.508-3.824zm-.799-.614a.976.976 0 011.6.002 61.422 61.422 0 012.562 3.904c.48.803.94 1.636 1.306 2.416.362.771.647 1.524.752 2.158.51 3.08-1.841 6.104-5.42 6.104-3.561 0-6.035-3.011-5.417-6.12.269-1.354 1.056-2.948 1.939-4.439.89-1.503 1.908-2.953 2.678-4.025z" clip-rule="evenodd"/>
</svg>
