<svg width="20" height="20" viewBox="0 0 20 20" fill="none" xmlns="http://www.w3.org/2000/svg">
<path fill-rule="evenodd" clip-rule="evenodd" d="M3 5.5C3 4.67157 3.67157 4 4.5 4H15.5C16.3284 4 17 4.67157 17 5.5V7.38889V11.5V14.5C17 15.3284 16.3284 16 15.5 16H8.5H4.5C3.67157 16 3 15.3284 3 14.5V11.5V7.38889V5.5ZM4 7.88889V11H8V7.88889H4ZM9 7.88889V11H16V7.88889H9ZM16 6.88889H4V5.5C4 5.22386 4.22386 5 4.5 5H15.5C15.7761 5 16 5.22386 16 5.5V6.88889ZM4 14.5V12H8V15H4.5C4.22386 15 4 14.7761 4 14.5ZM9 12V15H15.5C15.7761 15 16 14.7761 16 14.5V12H9Z" fill="#606B85"/>
</svg>
