<svg xmlns="http://www.w3.org/2000/svg" width="20" height="20" viewBox="0 0 20 20">
  <path fill="#707578" fill-rule="evenodd" d="M11.2472301,2.51661961 L17.4833804,8.75276993 C18.1722065,9.44159608 18.1722065,10.5584039 17.4833804,11.2472301 L11.2472301,17.4833804 C10.5584039,18.1722065 9.44159608,18.1722065 8.75276993,17.4833804 L2.51661961,11.2472301 C1.82779346,10.5584039 1.82779346,9.44159608 2.51661961,8.75276993 L8.75276993,2.51661961 C9.44159608,1.82779346 10.5584039,1.82779346 11.2472301,2.51661961 Z M10,12 C9.44771525,12 9,12.4477153 9,13 C9,13.5522847 9.44771525,14 10,14 C10.5522847,14 11,13.5522847 11,13 C11,12.4477153 10.5522847,12 10,12 Z M10.0101104,7 L9.98974671,7 C9.38562515,7 8.91726125,7.59236125 9.01229161,8.24395862 L9.43992821,10.4816839 C9.48065551,10.7778645 9.7182314,11 9.99653459,11 L10.0033225,11 C10.2816257,11 10.5192015,10.7778645 10.5599288,10.4816839 L10.9875654,8.24395862 C11.0825958,7.59236125 10.6210198,7.00740452 10.0101104,7 Z"/>
</svg>
