<svg xmlns="http://www.w3.org/2000/svg" width="20" height="20" viewBox="0 0 20 20">
  <path fill="#606B85" fill-rule="evenodd" d="M13.0792,2 L13.21495,2.00895613 C13.3939907,2.03269099 13.563769,2.10300678 13.707181,2.21279298 L13.809529,2.30242223 L16.6974645,5.19035772 L16.7871415,5.29275346 C16.8969801,5.43621786 16.9673064,5.60600671 16.9910433,5.78504951 L17,5.9208 L17,8 L16.9927306,8.08280463 C17.5355491,8.27150906 17.9365392,8.76327667 17.9931334,9.35553999 L18,9.5 L18,16.5 C18,17.2796961 17.4051119,17.9204487 16.64446,17.9931334 L16.5,18 L2.5,18 C1.72030388,18 1.07955132,17.4051119 1.00686658,16.64446 L1,16.5 L1,9.5 C1,8.72030388 1.59488808,8.07955132 2.35553999,8.00686658 L2.5,8 L3,8 L3,5.5 C3,4.72030388 3.59488808,4.07955132 4.35553999,4.00686658 L4.5,4 L5.5,4 C6.27969612,4 6.92044868,4.59488808 6.99313342,5.35553999 L7,5.5 L7,8 L8,8 L8,3.03333333 L8.00606346,2.92074028 C8.05784992,2.44283546 8.4354836,2.06268036 8.91221671,2.0070228 L9.03333333,2 L13.0792,2 Z M3,9 L2.5,9 C2.25454011,9 2.05039163,9.17687516 2.00805567,9.41012437 L2,9.5 L2,16.5 C2,16.7454599 2.17687516,16.9496084 2.41012437,16.9919443 L2.5,17 L16.5,17 C16.7454599,17 16.9496084,16.8231248 16.9919443,16.5898756 L17,16.5 L17,9.5 C17,9.25454011 16.8231248,9.05039163 16.5898756,9.00805567 L16.5,9 L7,9 L7,14.5 C7,15.2796961 6.40511192,15.9204487 5.64446001,15.9931334 L5.5,16 L4.5,16 C3.72030388,16 3.07955132,15.4051119 3.00686658,14.64446 L3,14.5 L3,9 Z M9.5,15 C9.77614237,15 10,15.2238576 10,15.5 C10,15.7761424 9.77614237,16 9.5,16 L8.5,16 C8.22385763,16 8,15.7761424 8,15.5 C8,15.2238576 8.22385763,15 8.5,15 L9.5,15 Z M12.5,15 C12.7761424,15 13,15.2238576 13,15.5 C13,15.7761424 12.7761424,16 12.5,16 L11.5,16 C11.2238576,16 11,15.7761424 11,15.5 C11,15.2238576 11.2238576,15 11.5,15 L12.5,15 Z M15.5,15 C15.7761424,15 16,15.2238576 16,15.5 C16,15.7761424 15.7761424,16 15.5,16 L14.5,16 C14.2238576,16 14,15.7761424 14,15.5 C14,15.2238576 14.2238576,15 14.5,15 L15.5,15 Z M5.5,5 L4.5,5 C4.25454011,5 4.05039163,5.17687516 4.00805567,5.41012437 L4,5.5 L4,14.5 C4,14.7454599 4.17687516,14.9496084 4.41012437,14.9919443 L4.5,15 L5.5,15 C5.74545989,15 5.94960837,14.8231248 5.99194433,14.5898756 L6,14.5 L6,5.5 C6,5.22385763 5.77614237,5 5.5,5 Z M9.5,13 C9.77614237,13 10,13.2238576 10,13.5 C10,13.7761424 9.77614237,14 9.5,14 L8.5,14 C8.22385763,14 8,13.7761424 8,13.5 C8,13.2238576 8.22385763,13 8.5,13 L9.5,13 Z M12.5,13 C12.7761424,13 13,13.2238576 13,13.5 C13,13.7761424 12.7761424,14 12.5,14 L11.5,14 C11.2238576,14 11,13.7761424 11,13.5 C11,13.2238576 11.2238576,13 11.5,13 L12.5,13 Z M15.5,13 C15.7761424,13 16,13.2238576 16,13.5 C16,13.7761424 15.7761424,14 15.5,14 L14.5,14 C14.2238576,14 14,13.7761424 14,13.5 C14,13.2238576 14.2238576,13 14.5,13 L15.5,13 Z M9.5,11 C9.77614237,11 10,11.2238576 10,11.5 C10,11.7761424 9.77614237,12 9.5,12 L8.5,12 C8.22385763,12 8,11.7761424 8,11.5 C8,11.2238576 8.22385763,11 8.5,11 L9.5,11 Z M12.5,11 C12.7761424,11 13,11.2238576 13,11.5 C13,11.7761424 12.7761424,12 12.5,12 L11.5,12 C11.2238576,12 11,11.7761424 11,11.5 C11,11.2238576 11.2238576,11 11.5,11 L12.5,11 Z M15.5,11 C15.7761424,11 16,11.2238576 16,11.5 C16,11.7761424 15.7761424,12 15.5,12 L14.5,12 C14.2238576,12 14,11.7761424 14,11.5 C14,11.2238576 14.2238576,11 14.5,11 L15.5,11 Z M12.5,3 L9.03333333,3 L9.01650936,3.00455098 L9.00455098,3.01650936 L9.00455098,3.01650936 L9,3.03333333 L9,8 L16,8 L16,6.5 L13.5076142,6.5 C12.9882236,6.5 12.5606182,6.10702065 12.5059125,5.60217646 L12.5,5.49238579 L12.5,3 Z M13.5,3.407 L13.5,5.49238579 L13.5022302,5.49776985 L13.5076142,5.5 L15.592,5.499 L13.5,3.407 Z"/>
</svg>
