<svg width="20" height="20" viewBox="0 0 20 20" fill="none" xmlns="http://www.w3.org/2000/svg">
<path fill-rule="evenodd" clip-rule="evenodd" d="M17.5539 2.42336C17.5028 2.36995 17.4417 2.32716 17.374 2.29744C17.3064 2.26771 17.2335 2.25163 17.1596 2.25012C17.0857 2.24861 17.0123 2.2617 16.9434 2.28863C16.8746 2.31557 16.8118 2.35583 16.7586 2.40709L2.69722 15.906C2.64373 15.9571 2.60085 16.0182 2.57104 16.0859C2.54122 16.1536 2.52505 16.2266 2.52346 16.3005C2.52187 16.3745 2.53489 16.448 2.56177 16.5169C2.58865 16.5859 2.62886 16.6488 2.6801 16.7021C2.73134 16.7555 2.79261 16.7982 2.86039 16.8279C2.92817 16.8575 3.00113 16.8735 3.07509 16.8749C3.14905 16.8763 3.22256 16.863 3.29141 16.836C3.36026 16.8089 3.42309 16.7685 3.47631 16.7172L17.5377 3.21826C17.5909 3.16715 17.6336 3.10603 17.6633 3.03842C17.6929 2.9708 17.709 2.898 17.7105 2.82418C17.712 2.75036 17.6989 2.67696 17.6721 2.60819C17.6452 2.53941 17.6051 2.47661 17.5539 2.42336ZM18.5319 8.91045C17.809 8.1182 17.0085 7.40041 16.1425 6.76783C16.0829 6.72429 16.0152 6.69293 15.9434 6.67554C15.8716 6.65815 15.7971 6.65507 15.7241 6.66647C15.5768 6.68951 15.4446 6.77014 15.3566 6.89065C15.2687 7.01115 15.2322 7.16165 15.2553 7.30903C15.2783 7.45642 15.3589 7.58861 15.4794 7.67654C16.2836 8.26388 17.0269 8.93029 17.6983 9.66578C17.8117 9.79113 17.8747 9.95406 17.875 10.1231C17.8753 10.2921 17.813 10.4553 17.7 10.5811C15.8947 12.5681 12.931 14.669 9.99463 14.6242C9.28124 14.6234 8.57179 14.5184 7.88873 14.3126C7.74622 14.2685 7.59203 14.2828 7.46006 14.3524C7.32809 14.4219 7.22915 14.5411 7.18499 14.6835C7.14083 14.826 7.15507 14.9802 7.22458 15.1122C7.29409 15.2442 7.41317 15.3432 7.55565 15.3874C8.32325 15.6259 9.1223 15.7478 9.92609 15.7491C9.98641 15.7491 10.0463 15.7495 10.1064 15.75L10.1067 15.75C13.3597 15.75 16.585 13.4808 18.5345 11.3356C18.8346 11.0029 19.0005 10.5706 19 10.1225C18.9995 9.67444 18.8327 9.24251 18.5319 8.91045ZM4.16048 13.2154C4.06501 13.2835 3.95063 13.3201 3.83335 13.32C3.70856 13.3201 3.58732 13.2785 3.48885 13.2018C2.76412 12.6384 2.08836 12.0147 1.46883 11.3374C1.16762 11.0054 1.00053 10.5734 1 10.1251C0.999478 9.67687 1.16556 9.24442 1.46599 8.91176C3.41547 6.76785 6.64101 4.49914 9.89314 4.49914C9.95904 4.49871 10.0243 4.49914 10.0904 4.49959C10.7152 4.50057 11.3376 4.5773 11.9439 4.7281C12.0157 4.74577 12.0832 4.77742 12.1428 4.82124C12.2023 4.86506 12.2526 4.92019 12.2908 4.98347C12.329 5.04675 12.3544 5.11694 12.3654 5.19003C12.3765 5.26312 12.373 5.33767 12.3552 5.40942C12.3374 5.48117 12.3057 5.5487 12.2617 5.60816C12.2178 5.66762 12.1626 5.71783 12.0993 5.75593C12.0359 5.79403 11.9657 5.81926 11.8926 5.83019C11.8195 5.84112 11.7449 5.83752 11.6732 5.81961C11.128 5.68276 10.5673 5.61733 10.0052 5.62495C7.06988 5.5876 4.10557 7.68098 2.30001 9.6667C2.18717 9.79236 2.1249 9.95537 2.12523 10.1243C2.12555 10.2931 2.18845 10.4559 2.30176 10.5811C2.87744 11.2104 3.50534 11.7899 4.17873 12.3133C4.27137 12.3852 4.3392 12.4843 4.37274 12.5967C4.40628 12.7091 4.40385 12.8292 4.36579 12.9401C4.32773 13.051 4.25594 13.1473 4.16048 13.2154ZM12.8111 9.56128C12.7372 9.56131 12.6641 9.57589 12.5958 9.6042C12.5276 9.63251 12.4656 9.67398 12.4134 9.72625C12.3611 9.77853 12.3197 9.84058 12.2915 9.90885C12.2633 9.97713 12.2488 10.0503 12.2489 10.1242C12.2482 10.7206 12.011 11.2924 11.5893 11.7143C11.1677 12.1361 10.5959 12.3735 9.99949 12.3744C9.85032 12.3745 9.70726 12.4338 9.6018 12.5393C9.49634 12.6448 9.43711 12.7878 9.43714 12.937C9.43717 13.0862 9.49646 13.2292 9.60196 13.3347C9.70746 13.4402 9.85053 13.4994 9.9997 13.4994H9.99992C10.8947 13.498 11.7524 13.1418 12.3849 12.5089C13.0174 11.876 13.373 11.0181 13.3737 10.1233C13.3736 9.97423 13.3143 9.83131 13.2088 9.72593C13.1033 9.62056 12.9604 9.56135 12.8113 9.56131L12.8111 9.56128ZM7.40226 10.6441C7.33402 10.6724 7.26087 10.687 7.18699 10.687L7.18678 10.687C7.0377 10.687 6.89473 10.6278 6.78927 10.5224C6.68381 10.417 6.62449 10.2741 6.62433 10.125C6.62509 9.23024 6.98072 8.37231 7.61321 7.73941C8.24569 7.1065 9.10339 6.75031 9.99815 6.74896H9.99836C10.1475 6.74893 10.2906 6.80816 10.3961 6.91362C10.5016 7.01908 10.5609 7.16213 10.5609 7.31131C10.561 7.46048 10.5017 7.60355 10.3963 7.70905C10.2908 7.81455 10.1478 7.87384 9.99858 7.87387C9.40215 7.8748 8.83042 8.11221 8.40875 8.53404C7.98709 8.95587 7.74991 9.5277 7.74922 10.1241C7.74928 10.198 7.73478 10.2712 7.70656 10.3395C7.67833 10.4077 7.63693 10.4698 7.58472 10.5221C7.53251 10.5743 7.47051 10.6158 7.40226 10.6441Z" fill="#606B85"/>
</svg>
