<svg width="20" height="20" viewBox="0 0 20 20" fill="none" xmlns="http://www.w3.org/2000/svg">
<path d="M8.19736 2.64137C9.65294 2.03845 11.2546 1.8807 12.7998 2.18807C14.3451 2.49543 15.7645 3.25411 16.8785 4.36816C17.9926 5.48222 18.7513 6.90161 19.0586 8.44684C19.366 9.99207 19.2082 11.5938 18.6053 13.0493C18.0024 14.5049 16.9814 15.749 15.6714 16.6243C14.3614 17.4996 12.8213 17.9668 11.2458 17.9668C10.9006 17.9668 10.6208 17.687 10.6208 17.3418C10.6208 16.9966 10.9006 16.7168 11.2458 16.7168C12.5741 16.7168 13.8725 16.3229 14.9769 15.585C16.0814 14.847 16.9422 13.7981 17.4505 12.571C17.9588 11.3438 18.0918 9.99346 17.8326 8.6907C17.5735 7.38794 16.9339 6.19128 15.9946 5.25205C15.0554 4.31281 13.8587 3.67318 12.556 3.41405C11.2532 3.15491 9.90288 3.28791 8.67571 3.79622C7.44854 4.30453 6.39966 5.16533 5.6617 6.26975C4.9754 7.29688 4.58669 8.49184 4.53564 9.72253L6.11081 8.07339C6.34922 7.82378 6.74485 7.81471 6.99446 8.05312C7.24407 8.29154 7.25315 8.68716 7.01473 8.93678L4.17794 11.9068C4.04356 12.0475 3.85134 12.1175 3.65796 12.0964C3.46457 12.0752 3.29207 11.9652 3.19132 11.7988L1.02702 8.22367C0.848258 7.92839 0.942718 7.5441 1.238 7.36534C1.53329 7.18658 1.91758 7.28104 2.09634 7.57633L3.29251 9.55222C3.37249 8.13434 3.83036 6.76061 4.62237 5.57529C5.49767 4.2653 6.74178 3.24429 8.19736 2.64137Z" fill="#606B85"/>
<path d="M11.7117 6.5C11.7117 6.15482 11.4318 5.875 11.0867 5.875C10.7415 5.875 10.4617 6.15482 10.4617 6.5V9.85845C10.4617 10.1658 10.6229 10.4506 10.8865 10.6088L13.2651 12.0359C13.5611 12.2135 13.945 12.1175 14.1226 11.8216C14.3002 11.5256 14.2042 11.1417 13.9082 10.9641L11.7117 9.64613V6.5Z" fill="#606B85"/>
</svg>
