<svg xmlns="http://www.w3.org/2000/svg" width="20" height="20" viewBox="0 0 20 20">
  <path fill="#606B85" fill-rule="evenodd" d="M10,2 C14.418278,2 18,5.581722 18,10 C18,14.418278 14.418278,18 10,18 C5.581722,18 2,14.418278 2,10 C2,5.581722 5.581722,2 10,2 Z M10,3.25 C6.27207794,3.25 3.25,6.27207794 3.25,10 C3.25,13.7279221 6.27207794,16.75 10,16.75 C13.7279221,16.75 16.75,13.7279221 16.75,10 C16.75,6.27207794 13.7279221,3.25 10,3.25 Z M10,9 C10.5522847,9 11,9.44771525 11,10 L11,13 C11,13.5522847 10.5522847,14 10,14 C9.44771525,14 9,13.5522847 9,13 L9,10 C9,9.44771525 9.44771525,9 10,9 Z M10,6 C10.5522847,6 11,6.44771525 11,7 C11,7.55228475 10.5522847,8 10,8 C9.44771525,8 9,7.55228475 9,7 C9,6.44771525 9.44771525,6 10,6 Z"/>
</svg>
