<svg xmlns="http://www.w3.org/2000/svg" width="20" height="20" fill="none" viewBox="0 0 20 20">
  <path fill="#606B85" d="M10 1.5c.345 0 .625.28.625.625v1.05a.625.625 0 11-1.25 0v-1.05c0-.345.28-.625.625-.625z"/>
  <path fill="#606B85" fill-rule="evenodd" d="M6.217 6.217a5.35 5.35 0 117.566 7.566 5.35 5.35 0 01-7.566-7.566zM10 5.9a4.1 4.1 0 100 8.2 4.1 4.1 0 000-8.2z" clip-rule="evenodd"/>
  <path fill="#606B85" d="M16.01 4.873a.625.625 0 10-.883-.884l-.744.744a.625.625 0 10.884.884l.744-.744zM16.2 10c0-.345.28-.625.625-.625h1.05a.625.625 0 110 1.25h-1.05A.625.625 0 0116.2 10zM15.267 14.383a.625.625 0 10-.883.884l.743.744a.625.625 0 10.884-.884l-.744-.744zM10 16.2c.345 0 .625.28.625.625v1.05a.625.625 0 11-1.25 0v-1.05c0-.346.28-.625.625-.625zM5.617 15.267a.625.625 0 00-.884-.883l-.743.743a.625.625 0 00.883.884l.744-.744zM1.5 10c0-.345.28-.625.625-.625h1.05a.625.625 0 010 1.25h-1.05A.625.625 0 011.5 10zM4.872 3.988a.625.625 0 10-.883.884l.743.744a.625.625 0 00.884-.884l-.744-.744z"/>
</svg>
