<svg xmlns="http://www.w3.org/2000/svg" width="20" height="20" viewBox="0 0 20 20">
  <path fill="#606B85" fill-rule="evenodd" d="M7.10633055,8.86842505 C8.21235206,7.87097769 9.8712693,7.76945487 11.0869233,8.64575633 L11.0869233,8.64575633 L11.4098366,8.87852762 L11.4853846,8.93992386 C11.7933178,9.2214642 11.8472022,9.69616524 11.5959145,10.0438613 C11.3252969,10.4183031 10.8032292,10.5036557 10.4298436,10.2345015 L10.4298436,10.2345015 L10.1069303,10.0017302 L9.99931166,9.93092808 C9.41398643,9.5808004 8.65605925,9.66966384 8.16427648,10.1614466 L8.16427648,10.1614466 L6.02510232,12.3006208 L5.94128683,12.3914688 C5.43830603,12.9829553 5.46453486,13.8696926 6.02272512,14.4278828 L6.02272512,14.4278828 L6.11317534,14.5112836 C6.70223008,15.0116228 7.58820023,14.9825248 8.14705345,14.4248736 L8.14705345,14.4248736 L9.44501329,13.1297054 L9.51803672,13.0647593 C9.84656363,12.8049426 10.3239689,12.8261517 10.6258322,13.1286709 C10.9509158,13.4544607 10.9493099,13.9831336 10.6222459,14.3094955 L10.6222459,14.3094955 L9.32428534,15.6046629 L9.20566267,15.7172179 C7.95769824,16.8428543 6.03663567,16.8080592 4.83780995,15.6092335 L4.83780995,15.6092335 L4.7255075,15.491081 C3.60260398,14.2477631 3.64387829,12.3248222 4.84659101,11.1221095 L4.84659101,11.1221095 L6.98576517,8.98293531 Z M10.6871864,4.94593694 C11.9351508,3.82030059 13.8562134,3.85509568 15.0550391,5.0539214 L15.0550391,5.0539214 L15.1673416,5.17207389 C16.2902451,6.41539182 16.2489708,8.33833269 15.046258,9.54104541 L15.046258,9.54104541 L12.9070839,11.6802196 L12.7865185,11.7947298 C11.680497,12.7921772 10.0215798,12.8937 8.80592573,12.0173986 L8.80592573,12.0173986 L8.48301246,11.7846273 L8.40746447,11.723231 C8.09953125,11.4416907 8.04564684,10.9669896 8.29693461,10.6192936 C8.5675522,10.2448518 9.0896199,10.1594992 9.46300545,10.4286533 L9.46300545,10.4286533 L9.78591872,10.6614246 L9.8935374,10.7322268 C10.4788626,11.0823545 11.2367898,10.993491 11.7285726,10.5017083 L11.7285726,10.5017083 L13.8677467,8.36253411 L13.9515622,8.27168607 C14.454543,7.6801996 14.4283142,6.79346232 13.8701239,6.23527206 L13.8701239,6.23527206 L13.7796737,6.15187125 C13.190619,5.65153206 12.3046488,5.68063006 11.7457956,6.23828128 L11.7457956,6.23828128 L10.4478358,7.53344944 L10.3748123,7.59839562 C10.0462854,7.85821227 9.5688802,7.83700315 9.26701684,7.53448402 C8.94193323,7.20869419 8.9435392,6.68002132 9.27060352,6.35365975 L9.27060352,6.35365975 L10.5685637,5.05849195 Z"/>
</svg>
