<svg xmlns="http://www.w3.org/2000/svg" width="20" height="20" viewBox="0 0 20 20">
  <path fill="#707578" fill-rule="evenodd" d="M10,0 C4.4771525,0 0,4.4771525 0,10 C0,15.5228475 4.4771525,20 10,20 C15.5228475,20 20,15.5228475 20,10 C20,7.3478351 18.9464316,4.80429597 17.0710678,2.92893219 C15.195704,1.0535684 12.6521649,0 10,0 Z M10,17.3333333 C5.94991183,17.3333333 2.66666667,14.0500882 2.66666667,10 C2.66666667,5.94991183 5.94991183,2.66666667 10,2.66666667 C14.0500882,2.66666667 17.3333333,5.94991183 17.3333333,10 C17.3333333,11.9449209 16.5607165,13.810183 15.1854497,15.1854497 C13.810183,16.5607165 11.9449209,17.3333333 10,17.3333333 Z M14.5333333,7.53333333 C14.5333333,8.67472182 13.6080551,9.6 12.4666667,9.6 C11.3252782,9.6 10.4,8.67472182 10.4,7.53333333 C10.4,6.39194485 11.3252782,5.46666667 12.4666667,5.46666667 C13.6050285,5.47394077 14.5260592,6.3949715 14.5333333,7.53333333 L14.5333333,7.53333333 Z M14.5333333,12.4666667 C14.5333333,13.6080551 13.6080551,14.5333333 12.4666667,14.5333333 C11.3252782,14.5333333 10.4,13.6080551 10.4,12.4666667 C10.4,11.3252782 11.3252782,10.4 12.4666667,10.4 C13.6050285,10.4072741 14.5260592,11.3283048 14.5333333,12.4666667 L14.5333333,12.4666667 Z M9.6,12.4666667 C9.6,13.6080551 8.67472182,14.5333333 7.53333333,14.5333333 C6.39194485,14.5333333 5.46666667,13.6080551 5.46666667,12.4666667 C5.46666667,11.3252782 6.39194485,10.4 7.53333333,10.4 C8.67169517,10.4072741 9.5927259,11.3283048 9.6,12.4666667 L9.6,12.4666667 Z M9.6,7.53333333 C9.6,8.67472182 8.67472182,9.6 7.53333333,9.6 C6.39194485,9.6 5.46666667,8.67472182 5.46666667,7.53333333 C5.46666667,6.39194485 6.39194485,5.46666667 7.53333333,5.46666667 C8.67169517,5.47394077 9.5927259,6.3949715 9.6,7.53333333 L9.6,7.53333333 Z"/>
</svg>
