<svg xmlns="http://www.w3.org/2000/svg" width="20" height="20" fill="none" viewBox="0 0 20 20">
  <path fill="#606B85" fill-rule="evenodd" d="M17.78 2.246a.5.5 0 010 .708L2.924 17.81a.5.5 0 01-.707-.707L17.073 2.246a.5.5 0 01.708 0z" clip-rule="evenodd"/>
  <path fill="#606B85" fill-rule="evenodd" d="M9.998 3.1a2.357 2.357 0 00-2.357 2.357v4.001a2.346 2.346 0 00.942 1.884.5.5 0 01-.598.801 3.345 3.345 0 01-1.344-2.686v-4a3.357 3.357 0 016.715 0v1.714a.5.5 0 11-1 0V5.457A2.357 2.357 0 009.999 3.1zM12.8 10.191a.5.5 0 01.247.663 3.357 3.357 0 01-1.705 1.678.5.5 0 11-.401-.916c.53-.232.956-.652 1.197-1.178a.5.5 0 01.663-.247z" clip-rule="evenodd"/>
  <path fill="#606B85" fill-rule="evenodd" d="M15.712 9.529a.5.5 0 01.5.498 5.631 5.631 0 01-5.643 5.644H9.44h.119-.132.013a6.503 6.503 0 01-.68 0 .5.5 0 11.054-.999 5.52 5.52 0 00.613 0h1.144a4.63 4.63 0 004.642-4.642.5.5 0 01.499-.501zM4.275 9.529a.5.5 0 00-.5.498 5.632 5.632 0 001.649 3.995.5.5 0 10.707-.707 4.631 4.631 0 01-1.357-3.285.5.5 0 00-.499-.501z" clip-rule="evenodd"/>
  <path fill="#606B85" fill-rule="evenodd" d="M9.999 14.671a.5.5 0 01.5.5v2.286a.5.5 0 11-1 0v-2.286a.5.5 0 01.5-.5z" clip-rule="evenodd"/>
</svg>
