<svg xmlns="http://www.w3.org/2000/svg" width="20" height="20" fill="none" viewBox="0 0 20 20">
  <path fill="#606B85" fill-rule="evenodd" d="M10 3.071A2.357 2.357 0 007.643 5.43v4a2.357 2.357 0 104.714 0v-4A2.357 2.357 0 0010 3.07zm-2.374-.016a3.357 3.357 0 015.731 2.374v4a3.357 3.357 0 01-6.714 0v-4c0-.89.354-1.745.983-2.374z" clip-rule="evenodd"/>
  <path fill="#606B85" d="M12.732 15.217a5.63 5.63 0 01-1.947.422v.004H10.5v1.785a.5.5 0 11-1 0v-1.785h-.071v-.004A5.63 5.63 0 014 10 .5.5 0 015 10a4.631 4.631 0 004.62 4.642h.974A4.632 4.632 0 0015.214 10a.5.5 0 111-.002 5.632 5.632 0 01-3.482 5.218z"/>
</svg>
