<svg xmlns="http://www.w3.org/2000/svg" width="20" height="20" viewBox="0 0 20 20">
  <path fill="#707578" fill-rule="evenodd" d="M6.99141205,7.50714251 C6.99407139,6.8284028 8.01198155,6.83223527 8.00952984,7.51097576 C7.99794915,10.4667092 9.39802328,11.9215977 12.5024045,11.9915764 C13.1746563,12.0067302 13.161412,13.0121205 12.4889943,13.0095608 C9.5909249,12.9985287 8.16175213,14.4557577 8.00889949,17.5163217 C7.9760441,18.1741843 6.99808513,18.1547189 6.9914341,17.49607 C6.96086892,14.4692141 5.60878923,13.0054745 2.50973614,13.009564 C1.83532994,13.010454 1.82751794,12.0010462 2.50185714,11.9914981 C5.52145998,11.948743 6.98045889,10.5394539 6.99141205,7.50714251 Z M7.49584074,10.2643323 L7.38136161,10.5056602 C6.92209391,11.405114 6.21487505,12.0639563 5.26614694,12.481792 L5.26614694,12.481792 L5.44178261,12.5616059 C6.41466046,13.027335 7.10608838,13.7734703 7.52463773,14.7818892 L7.52463773,14.7818892 L7.54471074,14.832625 L7.63302062,14.6395813 C8.09719424,13.6674237 8.80642988,12.9553033 9.75580795,12.5159017 L9.75580795,12.5159017 L9.79476704,12.4980818 L9.67656015,12.4475095 C8.71436784,12.0128204 8.00972474,11.3307244 7.56430376,10.4135393 L7.56430376,10.4135393 L7.49584074,10.2643323 Z M17.8528461,2.14359286 C18.0272507,2.31377699 18.046629,2.57795121 17.910981,2.76902203 L17.8528461,2.83692051 L15.8989112,4.74218489 L17.8528461,6.65022257 C18.0490513,6.84167972 18.0490513,7.15209308 17.8528461,7.34355022 C17.6784415,7.51373435 17.4077159,7.5326437 17.2119067,7.40027827 L17.1423243,7.34355022 L15.1883895,5.43551253 L13.2344546,7.34355022 C13.0382494,7.53500737 12.720138,7.53500737 12.5239328,7.34355022 C12.3495282,7.1733661 12.3301499,6.90919187 12.4657979,6.71812105 L12.5239328,6.65022257 L14.4778677,4.74218489 L12.5239328,2.83692051 C12.3277276,2.64546336 12.3277276,2.33505 12.5239328,2.14359286 C12.6983374,1.97340873 12.969063,1.95449938 13.1648723,2.08686482 L13.2344546,2.14359286 L15.1883895,4.04885724 L17.1423243,2.14359286 C17.3385295,1.95213571 17.656641,1.95213571 17.8528461,2.14359286 Z"/>
</svg>
