<svg xmlns="http://www.w3.org/2000/svg" width="20" height="20" viewBox="0 0 20 20">
  <path fill="#707578" fill-rule="evenodd" d="M11.7931625,4.00715462 C12.1549066,3.96749389 12.515102,4.09415594 12.7724033,4.35149453 L12.7724033,4.35149453 L15.6488268,7.22810827 C15.9060842,7.48555109 16.0326046,7.84584674 15.9927902,8.20762225 C15.9529757,8.56939776 15.7511297,8.89355096 15.4441456,9.0888131 L15.4441456,9.0888131 L12.4943769,10.9654279 L12.5134228,11.0863496 C12.6186161,11.9141522 12.4727151,12.7568625 12.0914672,13.5044104 L12.0914672,13.5044104 L11.9816673,13.705845 C11.7934795,14.026611 11.4672099,14.2419877 11.0983124,14.2889641 C10.7294148,14.3359406 10.3595857,14.2092071 10.0975098,13.9463289 L10.0975098,13.9463289 L8.401,12.25 L4.78783051,15.8648207 C4.60760338,16.0450598 4.31539747,16.0450598 4.13517035,15.8648207 C3.97496845,15.7046082 3.95716824,15.4559128 4.08176972,15.2760375 L4.13517035,15.2121174 L7.749,11.597 L6.05500773,9.90355896 C5.82457762,9.67380111 5.69874995,9.36191222 5.702362,9.0403811 L5.71190731,8.90220305 C5.75888068,8.53328113 5.97424314,8.20698995 6.29661139,8.01784157 C7.09080649,7.55617852 8.01134558,7.3722158 8.91431494,7.48699633 L8.91431494,7.48699633 L9.03404669,7.50486894 L10.9117695,4.55550407 C11.0827875,4.28688668 11.3523801,4.09888492 11.6594464,4.02951204 L11.6594464,4.02951204 Z M11.9559258,4.92492277 L11.8937486,4.92471895 L11.8330936,4.93838814 C11.774723,4.95865579 11.724196,4.99809973 11.6904223,5.05114796 L11.6904223,5.05114796 L9.64505237,8.26586476 C9.53921245,8.43221383 9.3393941,8.51295199 9.14771071,8.46681952 C8.33668921,8.27163088 7.48164279,8.39665496 6.76207222,8.81493457 C6.68805419,8.8583654 6.63835516,8.93366336 6.62751515,9.01879919 C6.61667514,9.10393501 6.64591939,9.18928584 6.70718003,9.25036849 L6.70718003,9.25036849 L10.7506571,13.2941135 C10.8112485,13.3548903 10.8965937,13.3841365 10.9817239,13.3732958 C11.0668541,13.362455 11.1421471,13.3127527 11.184627,13.2403533 C11.603827,12.5191117 11.7288428,11.6640087 11.5336671,10.8529336 C11.4875404,10.661249 11.5682608,10.4614284 11.7345816,10.3555763 L11.7345816,10.3555763 L14.9486955,8.31000635 C15.0195615,8.2649309 15.0661414,8.19012631 15.0753293,8.10663966 C15.0845173,8.023153 15.0553202,7.94000785 14.9960599,7.88070478 L14.9960599,7.88070478 L12.1197302,5.00418498 C12.0603501,4.94479618 11.977228,4.91556647 11.8937486,4.92471895 Z"/>
</svg>
