<svg xmlns="http://www.w3.org/2000/svg" width="20" height="20" viewBox="0 0 20 20">
  <path fill="#707578" fill-rule="evenodd" d="M15.0434074,9.04340741 L10.9565926,9.04340741 L10.9565926,4.95659259 C10.9565926,4.42903704 10.5275556,4 10,4 C9.47244444,4 9.04340741,4.42903704 9.04340741,4.95659259 L9.04340741,9.04340741 L4.95659259,9.04340741 C4.42903704,9.04340741 4,9.47244444 4,10 C4,10.5275556 4.42903704,10.9565926 4.95659259,10.9565926 L9.04340741,10.9565926 L9.04340741,15.0434074 C9.04340741,15.570963 9.47244444,16 10,16 C10.5275556,16 10.9565926,15.570963 10.9565926,15.0434074 L10.9565926,10.9565926 L15.0434074,10.9565926 C15.570963,10.9565926 16,10.5275556 16,10 C16,9.47244444 15.570963,9.04340741 15.0434074,9.04340741 Z"/>
</svg>
