<svg xmlns="http://www.w3.org/2000/svg" width="20" height="20" viewBox="0 0 20 20">
  <path fill="#707578" fill-rule="evenodd" d="M15.6813754,2.00000458 C16.2943432,2.00103498 16.8463575,2.36640043 17.0801148,2.92580231 C17.3138721,3.4852042 17.1833601,4.12853094 16.7494127,4.55591671 L16.7494127,4.55591671 L16.3935322,4.9056878 L17.5688839,6.06679858 C18.1474315,6.65171131 18.1431456,7.5868181 17.55926,8.16653831 C16.9753745,8.74625852 16.0281976,8.75582702 15.4324175,8.18802393 L15.4324175,8.18802393 L14.2499632,7.02068311 L13.5362307,7.72567756 L14.7123742,8.88561175 C14.7218403,8.89534766 14.7309145,8.90508757 14.7395968,8.91521436 C15.3110865,9.50861848 15.2931265,10.4453383 14.6992993,11.0169672 C14.105472,11.588596 13.1564702,11.5826911 12.5699889,11.0037181 L12.5699889,11.0037181 L11.3954251,9.84067288 L9.75766634,11.4559337 C10.5123169,13.2129165 9.90011519,15.2514497 8.29737755,16.3184604 C6.69463991,17.3854711 4.55077342,17.1817698 3.18359878,15.8325704 C1.81642415,14.483371 1.60929664,12.3669885 2.68953618,10.7843493 C3.76977572,9.20171018 5.83448354,8.59658587 7.61449725,9.34094235 L7.61449725,9.34094235 L14.6082112,2.43701267 C14.8919127,2.15632487 15.277355,1.9990218 15.6790079,2.00000458 L15.6790079,2.00000458 Z M16.0358075,3.14461149 C15.8388743,2.94987734 15.5194933,2.94906948 15.3215518,3.14280482 L15.3215518,3.14280482 L8.07572051,10.2956166 C7.91812664,10.4518908 7.67506039,10.4869409 7.47877253,10.3816963 C6.1573716,9.67717961 4.51248754,10.0363189 3.61527179,11.225242 C2.71805603,12.4141652 2.84017138,14.0728849 3.9020961,15.1212401 C4.96402081,16.1695952 6.64422082,16.2901603 7.84854687,15.4044231 C9.05287292,14.5186859 9.41667406,12.8948338 8.70304233,11.590322 C8.59696329,11.3961899 8.63240231,11.1563542 8.7902368,11.0002282 L8.7902368,11.0002282 L11.0391487,8.78240544 C11.1340066,8.68919228 11.2623726,8.63682125 11.3962129,8.63672964 L11.3962129,8.63672964 L11.4761265,8.64298435 C11.5806497,8.65949859 11.6780046,8.70821514 11.753673,8.78317921 L11.753673,8.78317921 L13.2845133,10.2991185 C13.4122908,10.4249845 13.5983804,10.4739926 13.772684,10.4276818 C13.9469875,10.381371 14.0830241,10.246777 14.1295502,10.0746002 C14.1760763,9.9024234 14.1260233,9.71882144 13.9982458,9.59295542 C13.9907473,9.58515791 13.9832528,9.57698549 13.9757543,9.56880508 L13.9757543,9.56880508 L12.4646461,8.07896252 C12.2673734,7.8841592 12.2673734,7.56837652 12.4646461,7.37357321 L12.4646461,7.37357321 L13.892903,5.96318546 C14.0933556,5.77641948 14.4065748,5.77641948 14.6070274,5.96318546 L14.6070274,5.96318546 L16.1402352,7.47678749 C16.3416312,7.66313492 16.6574196,7.65479924 16.8484408,7.45809341 C17.0382189,7.26541215 17.0382189,6.95862716 16.8484408,6.7659459 L16.8484408,6.7659459 L15.3215518,5.25740926 C15.2268516,5.16369041 15.1737674,5.03665517 15.1739895,4.90427898 C15.1742115,4.7719028 15.2277215,4.6450418 15.3227355,4.55163306 L15.3227355,4.55163306 L16.036468,3.84973767 C16.2330362,3.6546443 16.2327408,3.33934565 16.0358075,3.14461149 Z M6.04459684,11.2611834 C7.02030578,11.2623504 7.8109794,12.0429154 7.81216148,13.0061501 C7.81216148,13.9698686 7.02079583,14.7511168 6.04459684,14.7511168 C5.06839785,14.7511168 4.27703221,13.9698686 4.27703221,13.0061501 C4.27703221,12.0424316 5.06839785,11.2611834 6.04459684,11.2611834 Z M6.04459684,12.2583072 C5.62622584,12.2583072 5.28706914,12.5931279 5.28706914,13.0061501 C5.28706914,13.4191723 5.62622584,13.7539929 6.04459684,13.7539929 C6.4628072,13.7536103 6.80173698,13.4190137 6.80212454,13.0061501 C6.80212454,12.5931279 6.46296784,12.2583072 6.04459684,12.2583072 Z"/>
</svg>
