<svg xmlns="http://www.w3.org/2000/svg" width="20" height="20" viewBox="0 0 20 20">
  <path fill="#707578" fill-rule="evenodd" d="M2.80935836,13.6327877 L9.90552442,16.9251256 C10.0062984,16.9668668 10.1196691,16.9668668 10.220443,16.9251256 L17.1906416,13.6901819 C17.4483692,13.591746 17.7387488,13.7086305 17.8549749,13.9575914 C17.9712011,14.2065523 17.8735324,14.5024621 17.6315277,14.6345767 L10.6613291,17.8695205 C10.4740535,17.9564973 10.2696866,18.00105 10.0629837,17.9999812 C9.85996904,17.9982173 9.6596264,17.9537621 9.47513565,17.8695205 L2.36847231,14.5771826 C2.12646755,14.4450679 2.02879894,14.1491581 2.14502509,13.9001972 C2.26125124,13.6512364 2.55163083,13.5343519 2.80935836,13.6327877 Z M2.80935836,9.98043188 L9.90552442,13.2727698 C10.0062984,13.314511 10.1196691,13.314511 10.220443,13.2727698 L17.1906416,10.037826 C17.4483692,9.93939019 17.7387488,10.0562747 17.8549749,10.3052356 C17.9712011,10.5541965 17.8735324,10.8501063 17.6315277,10.9822209 L10.6613291,14.2171646 C10.4740535,14.3041415 10.2696866,14.3486942 10.0629837,14.3476254 C9.85996904,14.3458615 9.6596264,14.3014062 9.47513565,14.2171646 L2.36847231,10.9248267 C2.12646755,10.7927121 2.02879894,10.4968023 2.14502509,10.2478414 C2.26125124,9.99888054 2.55163083,9.88199603 2.80935836,9.98043188 Z M10.603594,2.1330845 L17.3008631,5.26367521 C17.7270073,5.45878159 18,5.88254875 18,6.34894666 C18,6.81534457 17.7270073,7.23911172 17.3008631,7.4342181 L10.603594,10.5648088 C10.4142749,10.6512363 10.2083271,10.6957432 10,10.6952541 C9.7916729,10.6957432 9.5857251,10.6512363 9.39640599,10.5648088 L2.69913685,7.4342181 C2.27299275,7.23911172 2,6.81534457 2,6.34894666 C2,5.88254875 2.27299275,5.45878159 2.69913685,5.26367521 L9.39640599,2.1330845 C9.77900666,1.9556385 10.2209933,1.9556385 10.603594,2.1330845 Z M9.84254069,3.08269702 L3.14527155,6.21328773 C3.08696506,6.23600677 3.04860731,6.29190861 3.04860731,6.35416431 C3.04860731,6.41642001 3.08696506,6.47232184 3.14527155,6.49504089 L9.84254069,9.6256316 C9.94331465,9.66737281 10.0566854,9.66737281 10.1574593,9.6256316 L16.8547284,6.49504089 C16.9130349,6.47232184 16.9513927,6.41642001 16.9513927,6.35416431 C16.9513927,6.29190861 16.9130349,6.23600677 16.8547284,6.21328773 L10.1574593,3.08269702 C10.0566854,3.04095581 9.94331465,3.04095581 9.84254069,3.08269702 Z"/>
</svg>
