<svg xmlns="http://www.w3.org/2000/svg" width="20" height="20" viewBox="0 0 20 20">
  <path fill="#707578" fill-rule="evenodd" d="M11.7488565,13.5615213 C12.0216464,13.6012123 12.2115092,13.8606305 12.172973,14.1410109 L11.7738046,17.0640999 C11.7367676,17.3150033 11.5267483,17.5003325 11.2798337,17.4999996 L11.2099792,17.4999996 C10.9371894,17.4603081 10.7473265,17.2008899 10.7858628,16.9205095 L11.1850312,14.0025488 C11.2023748,13.8669734 11.2716823,13.7441317 11.3775542,13.6613181 C11.4834262,13.5785044 11.6170935,13.542578 11.7488565,13.5615213 Z M13.1599134,2.50042239 L13.2507277,2.5050654 C13.5262959,2.54471678 13.7184132,2.80645908 13.6798337,3.0896832 L13.6798337,3.0896832 L13.1409563,7.05380213 L15.5010395,7.05380213 C15.7766078,7.05380213 16,7.28340064 16,7.56662476 C16,7.84984888 15.7766078,8.07944739 15.5010395,8.07944739 L15.5010395,8.07944739 L13.006237,8.07944739 L12.5072765,11.6692058 L14.977131,11.6692058 C15.2526993,11.6692058 15.4760915,11.8988043 15.4760915,12.1820284 C15.4760915,12.4652525 15.2526993,12.6948511 14.977131,12.6948511 L14.977131,12.6948511 L8.37588358,12.6948511 L7.78711019,17.0538434 C7.75205842,17.3087246 7.53859394,17.4974043 7.28814969,17.4948961 L7.28814969,17.4948961 L7.21829522,17.4948961 C6.94550536,17.4551799 6.75564255,17.1957617 6.79417879,16.9153813 L6.79417879,16.9153813 L7.36798337,12.6948511 L4.4989605,12.6948511 C4.22339222,12.6948511 4,12.4652525 4,12.1820284 C4,11.8988043 4.22339222,11.6692058 4.4989605,11.6692058 L4.4989605,11.6692058 L7.49272349,11.6692058 L7.99168399,8.07944739 L4.997921,8.07944739 C4.72235272,8.07944739 4.4989605,7.84984888 4.4989605,7.56662476 C4.4989605,7.28340064 4.72235272,7.05380213 4.997921,7.05380213 L4.997921,7.05380213 L8.14137214,7.05380213 L8.69022869,2.94609287 C8.72880825,2.66286875 8.98347538,2.46541403 9.25904366,2.5050654 C9.53461193,2.54471678 9.72672925,2.80645908 9.68814969,3.0896832 L9.68814969,3.0896832 L9.13929314,7.05380213 L12.1330561,7.05380213 L12.6819127,2.94609287 C12.7204922,2.66286875 12.9751594,2.46541403 13.2507277,2.5050654 Z M11.983368,8.07944739 L8.98960499,8.07944739 L8.49064449,11.6692058 L11.4844075,11.6692058 L11.983368,8.07944739 Z"/>
</svg>
