<svg xmlns="http://www.w3.org/2000/svg" width="20" height="20" viewBox="0 0 20 20">
  <path fill="#707578" fill-rule="evenodd" d="M10.7218391,6.54707015 L13.6122156,9.30882549 C13.8703436,9.5554977 13.9711541,9.91503029 13.8766727,10.2519908 C13.7821913,10.5889513 13.5067719,10.8521475 13.1541625,10.9424358 C12.8015531,11.0327241 12.4253233,10.9363876 12.1671953,10.6897153 L9.27681881,7.92796001 C8.07879055,6.78865859 6.14183996,6.79091103 4.9467168,7.93299538 C3.75159364,9.07507974 3.7492385,10.9260679 4.94145182,12.0709262 L7.83181128,14.8330106 C8.12401247,15.1122933 8.21141675,15.5322711 8.05327477,15.8971432 C7.89513279,16.2620154 7.52258115,16.4999991 7.10930963,16.4999991 C6.83822429,16.5003434 6.57818539,16.3973747 6.38680374,16.2139045 L3.49642728,13.4518038 C1.50118842,11.5451109 1.50119127,8.45375361 3.49643365,6.54706406 C5.49167604,4.6403745 8.72660025,4.64037723 10.7218391,6.54707015 Z M13.6122028,3.78498573 L16.5025793,6.5470864 C17.9644354,7.94294521 18.4019277,10.043119 17.6108982,11.8675506 C16.8198687,13.6919822 14.9562449,14.8810397 12.8896969,14.8798503 C11.534563,14.8820721 10.2343659,14.3681515 9.27681881,13.4518038 L6.38680374,10.6897153 C6.12805176,10.4431653 6.0267676,10.0833395 6.12116875,9.74601104 C6.2155699,9.40868254 6.49128554,9.14520324 6.84428004,9.05499165 C7.19727454,8.96478005 7.57381106,9.06156919 7.83181128,9.30883768 L10.7218391,12.0709262 C11.9198606,13.2103783 13.8569424,13.2082253 15.0521871,12.0661133 C16.2474318,10.9240012 16.2498329,9.07288795 15.0575547,7.92794782 L12.1671953,5.16586339 C11.7691578,4.78438259 11.7696278,4.16691648 12.1682456,3.78598943 C12.5668634,3.40506239 13.2130055,3.40461325 13.6122028,3.78498573 Z"/>
</svg>
