<svg xmlns="http://www.w3.org/2000/svg" width="20" height="20" viewBox="0 0 20 20">
  <path fill="#707578" fill-rule="evenodd" d="M16.75,4 C17.4403559,4 18,4.55770565 18,5.24567043 L18,12.719693 C18,13.4076578 17.4403559,13.9653635 16.75,13.9653635 L9.69,13.9653635 L6.455,16.7855613 C6.29665742,16.9223304 6.09453782,16.9983044 5.885,16.9998167 C5.75227525,17.0025216 5.62065634,16.9752669 5.5,16.9200937 C5.19066825,16.7752854 4.99506737,16.463408 5,16.1228647 L5,13.9653635 L3.25,13.9653635 C2.55964406,13.9653635 2,13.4076578 2,12.719693 L2,5.24567043 C2,4.55770565 2.55964406,4 3.25,4 L16.75,4 Z M16.75,4.99653635 L3.25,4.99653635 C3.11192881,4.99653635 3,5.10807748 3,5.24567043 L3,12.719693 C3,12.857286 3.11192881,12.9688271 3.25,12.9688271 L5.5,12.9688271 C5.63290149,12.9680614 5.76064058,13.0200558 5.855,13.1133249 C5.94859326,13.2073575 6.00076838,13.3346541 6,13.4670953 L6,15.8438345 L9.165,13.0884115 C9.25817311,13.0089606 9.37739618,12.9664018 9.5,12.9688271 L16.75,12.9688271 C16.8880712,12.9688271 17,12.857286 17,12.719693 L17,5.24567043 C17,5.10807748 16.8880712,4.99653635 16.75,4.99653635 Z M6,7.98614539 C6.55228475,7.98614539 7,8.43230991 7,8.98268174 C7,9.53305356 6.55228475,9.97921808 6,9.97921808 C5.44771525,9.97921808 5,9.53305356 5,8.98268174 C5,8.43230991 5.44771525,7.98614539 6,7.98614539 Z M10,7.98614539 C10.5522847,7.98614539 11,8.43230991 11,8.98268174 C11,9.53305356 10.5522847,9.97921808 10,9.97921808 C9.44771525,9.97921808 9,9.53305356 9,8.98268174 C9,8.43230991 9.44771525,7.98614539 10,7.98614539 Z M14,7.98614539 C14.5522847,7.98614539 15,8.43230991 15,8.98268174 C15,9.53305356 14.5522847,9.97921808 14,9.97921808 C13.4477153,9.97921808 13,9.53305356 13,8.98268174 C13,8.43230991 13.4477153,7.98614539 14,7.98614539 Z"/>
</svg>
