<svg xmlns="http://www.w3.org/2000/svg" width="20" height="20" viewBox="0 0 20 20">
  <path fill="#707578" fill-rule="evenodd" d="M3.75644688,3.75644688 C6.02978595,1.4831078 9.69141512,1.40695239 12.0573103,3.58380359 C14.4232054,5.76065479 14.65154,9.41595112 12.5749415,11.8703105 L12.5749415,11.8703105 L17.8521782,17.1425498 C17.946785,17.236384 18,17.364115 18,17.497364 C18,17.630613 17.946785,17.7583441 17.8521782,17.8521782 C17.7583441,17.946785 17.630613,18 17.497364,18 C17.364115,18 17.236384,17.946785 17.1425498,17.8521782 L17.1425498,17.8521782 L11.8703105,12.5749415 C9.41595112,14.65154 5.76065479,14.4232054 3.58380359,12.0573103 C1.40695239,9.69141512 1.4831078,6.02978595 3.75644688,3.75644688 Z M8.00233589,3.00495265 C5.24235734,3.00495265 3.00495265,5.24235734 3.00495265,8.00233589 C3.00495265,9.32772433 3.53146116,10.5988283 4.46865231,11.5360195 C5.40584347,12.4732106 6.67694745,12.9997191 8.00233589,12.9997191 C10.7623144,12.9997191 12.9997191,10.7623144 12.9997191,8.00233589 C12.9997191,5.24235734 10.7623144,3.00495265 8.00233589,3.00495265 Z M8.00233589,6.50312092 C8.83032945,6.50312092 9.50155086,7.17434232 9.50155086,8.00233589 C9.50155086,8.83032945 8.83032945,9.50155086 8.00233589,9.50155086 C7.17434232,9.50155086 6.50312092,8.83032945 6.50312092,8.00233589 C6.50312092,7.17434232 7.17434232,6.50312092 8.00233589,6.50312092 Z"/>
</svg>
