<svg xmlns="http://www.w3.org/2000/svg" width="20" height="20" viewBox="0 0 20 20">
  <path fill="#707578" fill-rule="evenodd" d="M15.4872936,6.9873159 L11.0126881,2.51295533 C10.6854679,2.18335607 10.2398267,1.99861004 9.77538428,2.00000787 L5.24999876,2.00000787 C4.55994395,2.00074063 4.00072479,2.55995979 4,3.2500146 L4,16.7500012 C4.00063676,17.4400926 4.55990744,17.9993632 5.24999876,18.0000079 L14.7499894,18.0000079 C15.4400807,17.9993632 15.9993514,17.4400926 16,16.7500012 L16,8.22486468 C16.0010476,7.760467 15.81646,7.31490686 15.4872936,6.9873159 L15.4872936,6.9873159 Z M14.5861695,7.50001039 L10.7499933,7.50001039 C10.6119965,7.49983135 10.5001726,7.38800746 10.4999936,7.25001064 L10.4999936,3.41407444 L14.5861695,7.50001039 Z M14.7499894,17.000001 L5.24999876,17.000001 C5.11204182,16.9997259 5.0002741,16.8879582 4.99999901,16.7500012 L4.99999901,3.2500146 C5.00017806,3.11201778 5.11200194,3.0001939 5.24999876,3.00001485 L9.49999901,3.00001485 L9.49999901,7.25001064 C9.50071935,7.94006545 10.0599385,8.49928461 10.7499933,8.50001485 L14.999999,8.50001485 L14.999999,16.7500012 C14.999714,16.8879582 14.8879463,16.9997259 14.7499894,17.000001 Z"/>
</svg>
