<svg xmlns="http://www.w3.org/2000/svg" width="20" height="20" viewBox="0 0 20 20">
  <path fill="#707578" fill-rule="evenodd" d="M8.89159567,2.06699031 C9.04751209,1.9776684 9.23960762,1.97767 9.39552254,2.06699449 C9.55143745,2.15631899 9.6474851,2.32139606 9.6474851,2.50004345 L9.6474851,2.50004345 L9.6474851,11.2634303 C9.6474851,11.4420743 9.55143269,11.6071464 9.39552027,11.6964684 L9.39552027,11.6964684 L4.63392938,14.4243687 C4.54547608,14.4750426 4.47462847,14.5511911 4.43077519,14.6427229 L4.43077519,14.6427229 L2.95904866,17.7145985 C2.85789839,17.9257299 2.62282649,18.0391424 2.39301262,17.9876876 C2.16319876,17.9362328 2,17.7336444 2,17.4998696 L2,17.4998696 L2.00008567,6.30378846 C2.00009024,6.12514447 2.09613808,5.96007232 2.25205049,5.87075032 L2.25205049,5.87075032 Z M17.0237704,2.29157509 C17.2049629,2.18778737 17.431937,2.20588722 17.5941009,2.33705558 C17.7562647,2.46822395 17.8198855,2.68517558 17.7539644,2.88220211 L17.7539644,2.88220211 L16.1872472,7.56432949 C16.1435242,7.6949822 16.1560191,7.83774229 16.2217865,7.95895924 L16.2217865,7.95895924 L17.9396827,11.1247031 C18.0688728,11.3627779 17.9839372,11.6596321 17.7479475,11.7948271 L17.7479475,11.7948271 L11.411254,15.4250718 C11.2553396,15.5143949 11.0632454,15.5143962 10.9073299,15.425075 C10.7514143,15.3357538 10.6553595,15.1706799 10.6553595,14.9920337 L10.6553595,14.9920337 L10.6553595,6.22862684 C10.6553595,6.04998285 10.7514119,5.8849107 10.9073243,5.7955887 L10.9073243,5.7955887 Z"/>
</svg>
