<svg xmlns="http://www.w3.org/2000/svg" width="20" height="20" viewBox="0 0 20 20">
  <path fill="#606B85" fill-rule="evenodd" d="M17.3144192,6.3134225 C16.4018027,6.31422441 15.656108,7.04222677 15.6333967,7.95456091 L13.4948345,8.64953955 C13.4694905,8.55263582 13.4444275,8.45565905 13.4131506,8.35940142 L13.1190685,7.45301892 C12.9409539,6.90289457 12.4282614,6.53051221 11.8500218,6.53127611 L10.5727499,6.53127611 L10.5727499,4.27460685 C11.3466897,4.00087925 11.8108667,3.20938987 11.6719512,2.4003089 C11.5330356,1.59122792 10.8314346,1 10.0105147,1 C9.18959472,1 8.48814156,1.59160853 8.34942828,2.40072421 C8.210715,3.20983989 8.67508992,4.0012132 9.44909809,4.27474731 L9.44909809,6.53127611 L8.1712644,6.53127611 C7.59285632,6.53052531 7.08008432,6.9031879 6.90221767,7.45356951 L6.60814675,8.35940703 C6.57686991,8.45559725 6.55184056,8.55250098 6.5264966,8.64937662 L4.38792877,7.95439236 C4.37037244,7.12894611 3.76030348,6.43638186 2.94366671,6.31483301 C2.12702995,6.19328416 1.34171023,6.67815769 1.0845204,7.46271051 C0.827330578,8.24726333 1.17318958,9.10295658 1.90329839,9.48845737 C2.63340719,9.87395817 3.53508639,9.6769708 4.03791123,9.0221144 L6.36356708,9.77785451 C6.32655976,10.9425788 6.69241374,12.0844231 7.39941112,13.0107637 L5.971598,14.9757048 C5.8178272,14.9274782 5.65787639,14.9018016 5.49673713,14.8994763 C4.71963369,14.8979884 4.04183531,15.4270218 3.85456061,16.1812235 C3.66728591,16.9354251 4.01888747,17.7200673 4.70642431,18.0822621 C5.39396115,18.4444569 6.23991763,18.290689 6.75601592,17.7097118 C7.27211422,17.1287346 7.32510254,16.2705509 6.88439655,15.6304961 L8.188681,13.8355915 C8.27537074,13.9078086 8.36311671,13.9791381 8.45546404,14.0462425 L9.2263285,14.6053267 C9.69339652,14.9467553 10.327634,14.9469824 10.7949464,14.6058886 L11.5658109,14.0457088 C11.6581189,13.9786324 11.7458705,13.9073423 11.8325602,13.8351589 L13.1369964,15.6305073 C12.6355184,16.3287563 12.7134808,17.2874437 13.3211896,17.8954913 C13.9288984,18.5035389 14.8875422,18.5820356 15.5860706,18.0809469 C16.2845989,17.5798582 16.517478,16.6466235 16.136268,15.8760972 C15.755058,15.1055709 14.8719255,14.7244715 14.0497893,14.9757161 L12.6219537,13.0104828 C13.3288844,12.0842955 13.6947336,10.9426262 13.6577865,9.77806239 L15.9835828,9.02221553 C16.464758,9.64756321 17.31584,9.85457238 18.0304769,9.52008279 C18.7451139,9.18559319 19.1313468,8.39945229 18.959386,7.62937516 C18.7874253,6.85929804 18.1034614,6.31213559 17.3144192,6.3134225 Z M10.9052329,13.1365677 L10.1338459,13.6967475 C10.0604427,13.7502454 9.96089963,13.7502454 9.88749646,13.6967475 L9.1161095,13.1371183 C7.72462601,12.1296944 7.14301032,10.3389451 7.67698121,8.70615475 L7.97106336,7.80086781 C7.99902466,7.71388353 8.07995265,7.6549279 8.17132058,7.6549279 L11.8500723,7.6549279 C11.9412733,7.6549279 12.0221239,7.71358923 12.0503352,7.80031722 L12.3444173,8.70615475 C12.8784645,10.3387931 12.2967854,12.1294452 10.9052329,13.1365677 Z"/>
</svg>
