<svg xmlns="http://www.w3.org/2000/svg" width="20" height="20" viewBox="0 0 20 20">
  <path fill="#707578" fill-rule="evenodd" d="M16.75,5.04555395 L15,5.04555395 L15,3.49432644 C15.0011648,3.12815248 14.798562,2.79117074 14.4730909,2.61793814 C14.1476198,2.44470553 13.7523066,2.46344532 13.445,2.66667469 L12.5,3.2911305 L9.85,5.04555395 L3.25,5.04555395 C2.55964406,5.04555395 2,5.60027297 2,6.28455356 L2,13.7185512 C2,14.4028318 2.55964406,14.9575508 3.25,14.9575508 L5,14.9575508 L5,16.5087784 C4.9991362,16.8759073 5.20306906,17.21344 5.53,17.3859901 C5.67537976,17.460261 5.83644761,17.4993243 6,17.4999892 C6.19722329,17.5009033 6.39031892,17.4440017 6.555,17.3364301 L10.15,14.9575508 L16.75,14.9575508 C17.4403559,14.9575508 18,14.4028318 18,13.7185512 L18,6.28455356 C18,5.60027297 17.4403559,5.04555395 16.75,5.04555395 Z M12.5,4.48552612 L14,3.49432644 L14,5.04555395 L11.65,5.04555395 L12.5,4.48552612 Z M14,6.03675364 L14,10.9580601 C13.9991347,11.1238477 13.9146926,11.2782258 13.775,11.369408 L12.5,12.2119277 L9.85,13.9663512 L6,13.9663512 L6,9.0450447 C6.00086532,8.87925708 6.08530739,8.72487901 6.225,8.63369683 L10.15,6.03675364 L14,6.03675364 Z M3.25,13.9663512 C3.11192881,13.9663512 3,13.8554074 3,13.7185512 L3,6.28455356 C3,6.14769744 3.11192881,6.03675364 3.25,6.03675364 L8.35,6.03675364 L5.67,7.80604508 C5.25135354,8.08170349 4.99981234,8.54686683 5,9.0450447 L5,13.9663512 L3.25,13.9663512 Z M6,16.5087784 L6,14.9575508 L8.35,14.9575508 L6,16.5087784 Z M17,13.7185512 C17,13.8554074 16.8880712,13.9663512 16.75,13.9663512 L11.65,13.9663512 L12.5,13.4063233 L14.33,12.1970597 C14.7486465,11.9214013 15.0001877,11.456238 15,10.9580601 L15,6.03675364 L16.75,6.03675364 C16.8880712,6.03675364 17,6.14769744 17,6.28455356 L17,13.7185512 Z"/>
</svg>
