<svg xmlns="http://www.w3.org/2000/svg" width="20" height="20" viewBox="0 0 20 20">
  <path fill="#707578" fill-rule="evenodd" d="M17.3115122,4.22662275 L13.2031186,2.15924599 C12.7805391,1.94778145 12.2832172,1.94687622 11.8598707,2.156801 L7.62647733,4.26666269 C7.55649685,4.30149749 7.47421117,4.30140675 7.40430768,4.26641769 L3.80762332,2.4739405 C3.42015478,2.2809005 2.96039535,2.3020525 2.59228832,2.529854 C2.22418128,2.7576555 2.00000555,3.1596808 2.00000555,3.59257375 L2.00000555,14.6558064 C1.99859639,15.1286408 2.26539635,15.5613878 2.68848507,15.7725047 L6.79687863,17.8398814 C7.21948176,18.051431 7.71691941,18.052155 8.14013653,17.8418364 L12.3730399,15.7319747 C12.4433246,15.6977948 12.5254148,15.6977948 12.5956995,15.7319747 L16.1923739,17.5244719 C16.5797433,17.7177877 17.0395737,17.6968311 17.4077533,17.4690815 C17.7759328,17.2413319 17.9999931,16.839241 17.9999931,16.4063137 L17.9999931,5.343071 C18.001568,4.87025265 17.7347038,4.43749834 17.3115122,4.22662275 Z M17.000043,16.4062937 C17.0013819,16.4931154 16.9563408,16.5740761 16.8818478,16.6186933 C16.8083836,16.6648609 16.71609,16.6691233 16.6386832,16.6299233 L13.0420088,14.8374261 C13.0235489,14.8281811 13.0032239,14.8249261 12.9843939,14.8166462 L12.9843939,5.00274654 C12.9843939,4.72660459 12.7605367,4.50274732 12.4843947,4.50274732 C12.2082528,4.50274732 11.9843955,4.72660459 11.9843955,5.00274654 L11.9843955,14.8166662 C11.9655655,14.8249361 11.9452406,14.8282011 11.9267806,14.8374461 L7.69387723,16.9468178 C7.55294304,17.0174605 7.386899,17.0172751 7.24612293,16.9463178 L3.13772937,14.8789411 C3.05313021,14.8367976 2.99976232,14.750311 3.00002854,14.6557964 L3.00002854,3.59257375 C2.99942933,3.50594421 3.04427351,3.4253355 3.1181994,3.38016908 C3.15796918,3.35552448 3.20373949,3.34226639 3.25052419,3.34183914 C3.28908491,3.34205415 3.32705425,3.35133753 3.36136402,3.3689391 L6.95752338,5.16119129 C6.96112338,5.16299128 6.96515337,5.16348128 6.96875336,5.16525128 L6.96875336,14.9995559 C6.96875336,15.2756978 7.19261064,15.4995551 7.46875258,15.4995551 C7.74489452,15.4995551 7.9687518,15.2756978 7.9687518,14.9995559 L7.9687518,5.19907123 C8.00335674,5.18557125 8.03979669,5.17813626 8.07325163,5.16144129 L12.306155,3.05182459 C12.4471752,2.98154716 12.6130464,2.98173239 12.7539093,3.05232459 L16.8627929,5.11994635 C16.947133,5.16230176 17.0002648,5.24871317 17.000043,5.343091 L17.000043,16.4062937 Z"/>
</svg>
