<svg width="20" height="20" viewBox="0 0 20 20" fill="none" xmlns="http://www.w3.org/2000/svg">
<path fill-rule="evenodd" clip-rule="evenodd" d="M14.4249 0.518985L16.4499 2.54396C16.6248 2.71865 16.7634 2.92619 16.8578 3.15466C16.9522 3.38312 17.0005 3.628 16.9999 3.87519V18.4375C16.9999 18.8519 16.8353 19.2493 16.5422 19.5424C16.2492 19.8354 15.8518 20 15.4374 20H3.56253C3.35629 20 3.15208 19.9592 2.96169 19.8799C2.77131 19.8006 2.5985 19.6844 2.45325 19.5379C2.30799 19.3915 2.19316 19.2178 2.11538 19.0268C2.0376 18.8358 1.9984 18.6313 2.00005 18.425V1.55022C2.00497 1.13851 2.17156 0.74523 2.46387 0.455254C2.75619 0.165278 3.15079 0.00185235 3.56253 0.000241303H13.0999C13.5926 -0.00765863 14.0686 0.17869 14.4249 0.518985ZM15.6584 18.6585C15.717 18.5999 15.7499 18.5204 15.7499 18.4375V3.87519C15.7429 3.71994 15.6782 3.57288 15.5686 3.4627L13.5437 1.43772C13.4858 1.37867 13.4168 1.33169 13.3406 1.2995C13.2644 1.26732 13.1826 1.25057 13.0999 1.25023H3.56253C3.47965 1.25023 3.40017 1.28315 3.34156 1.34175C3.28296 1.40036 3.25004 1.47984 3.25004 1.56272V18.4375C3.25004 18.5204 3.28296 18.5999 3.34156 18.6585C3.40017 18.7171 3.47965 18.75 3.56253 18.75H15.4374C15.5203 18.75 15.5998 18.7171 15.6584 18.6585ZM6.37499 6.25018H12.6249C13.1222 6.25018 13.5991 6.44772 13.9507 6.79935C14.3024 7.15098 14.4999 7.62788 14.4999 8.12516V15.6251C14.4999 16.1223 14.3024 16.5993 13.9507 16.9509C13.5991 17.3025 13.1222 17.5 12.6249 17.5H6.37499C5.87771 17.5 5.40081 17.3025 5.04918 16.9509C4.69755 16.5993 4.50001 16.1223 4.50001 15.6251V8.12516C4.50001 7.62788 4.69755 7.15098 5.04918 6.79935C5.40081 6.44772 5.87771 6.25018 6.37499 6.25018ZM13.2499 12.0939V8.12516C13.2499 7.9594 13.1841 7.80043 13.0669 7.68322C12.9496 7.56601 12.7907 7.50017 12.6249 7.50017H8.65621L13.2499 12.0939ZM5.75 11.0064V15.6251C5.75 15.7908 5.81584 15.9498 5.93305 16.067C6.05026 16.1842 6.20923 16.2501 6.37499 16.2501H10.9937L5.75 11.0064ZM5.75 9.23765L12.7437 16.2501C12.8881 16.2221 13.0181 16.1441 13.1107 16.0298C13.2033 15.9155 13.2526 15.7722 13.2499 15.6251V13.8563L6.89373 7.50017H6.37499C6.20923 7.50017 6.05026 7.56601 5.93305 7.68322C5.81584 7.80043 5.75 7.9594 5.75 8.12516V9.23765Z" fill="#606B85"/>
</svg>
