<svg xmlns="http://www.w3.org/2000/svg" width="20" height="20" viewBox="0 0 20 20">
  <path fill="#707578" fill-rule="evenodd" d="M16.75,4 C17.4403559,4 18,4.55964406 18,5.25 L18,14.75 C18,15.4403559 17.4403559,16 16.75,16 L3.25,16 C2.55964406,16 2,15.4403559 2,14.75 L2,5.25 C2,4.55964406 2.55964406,4 3.25,4 L16.75,4 Z M16.75,5 L3.25,5 C3.11192881,5 3,5.11192881 3,5.25 L3,14.75 C3,14.8880712 3.11192881,15 3.25,15 L16.75,15 C16.8880712,15 17,14.8880712 17,14.75 L17,5.25 C17,5.11192881 16.8880712,5 16.75,5 Z M14,12 C14.2761424,12 14.5,12.2238576 14.5,12.5 C14.5,12.7761424 14.2761424,13 14,13 L10.5,13 C10.2238576,13 10,12.7761424 10,12.5 C10,12.2238576 10.2238576,12 10.5,12 L14,12 Z M6.29,7.165 L8.29,9.135 C8.52510425,9.36951066 8.65723446,9.68793185 8.65723446,10.02 C8.65723446,10.3520682 8.52510425,10.6704893 8.29,10.905 L6.375,12.83 C6.28021508,12.9378921 6.14361358,12.9998181 6,13 C5.86637705,12.9994453 5.73853572,12.9454278 5.645,12.85 C5.4511382,12.6549813 5.4511382,12.3400187 5.645,12.145 L7.595,10.2 C7.6389906,10.152216 7.6639008,10.0899405 7.665,10.025 C7.66483448,9.95743321 7.63785987,9.89269415 7.59,9.845 L5.59,7.875 C5.44651823,7.75379853 5.38306264,7.56241097 5.42571307,7.37949636 C5.46836351,7.19658175 5.60992474,7.05299821 5.79221601,7.00775767 C5.97450728,6.96251712 6.16677563,7.02325174 6.29,7.165 Z"/>
</svg>
