<svg xmlns="http://www.w3.org/2000/svg" width="20" height="20" viewBox="0 0 20 20">
  <path fill="#707578" fill-rule="evenodd" d="M3.45454545,9.14076947 C4.21531691,9.14076947 4.84009128,9.72546844 4.9037496,10.4697727 L4.90910043,10.5952284 L4.90948435,11.9012652 C5.48375667,11.681583 6.14310849,11.8672762 6.50710654,12.3556686 L7.34655298,13.6119019 C7.68484976,14.1186322 7.88278047,14.704662 7.92258857,15.3105681 L7.93006993,15.5385985 L7.93006993,17.5524647 C7.93006993,17.7996263 7.72969387,17.9999905 7.48251748,17.9999905 C7.26280513,17.9999905 7.08007083,17.8416781 7.0421757,17.632908 L7.03496503,17.5524647 L7.03496503,15.5385985 C7.03496503,15.0928549 6.91967489,14.65625 6.70176997,14.2708396 L6.60213656,14.1089206 L5.82460791,12.9439132 C5.6994191,12.7367381 5.44665094,12.6546515 5.22356806,12.7406845 L5.13896801,12.7826875 L5.12987846,12.788685 C4.95001321,12.9094093 4.87290742,13.1302301 4.91866771,13.3109429 L4.9458603,13.3855268 L5.85349666,14.8959264 C5.98080631,15.1077827 5.91225752,15.3827249 5.70038865,15.5100269 C5.51206076,15.6231843 5.27388425,15.5815986 5.13386754,15.4221669 L5.08625159,15.356928 L4.16142701,13.8151487 C4.05555203,13.6020584 4.00925503,13.373472 4.01727239,13.1493208 L4.01398601,13.1125611 L4.01398601,10.5952284 C4.01398601,10.286563 3.7632292,10.0358211 3.45454545,10.0358211 C3.17392387,10.0358211 2.94117578,10.2430458 2.90117713,10.5126279 L2.8951049,10.5952284 L2.8951049,14.0671336 C2.8951049,14.5863959 3.05223755,15.0919049 3.33803662,15.5118008 L3.45118691,15.6651083 L4.80324285,17.2634467 C4.96287254,17.4521536 4.93929171,17.7345285 4.75057359,17.8941487 C4.58282415,18.0360333 4.34106101,18.0331676 4.17729382,17.8982443 L4.11983407,17.8414826 L2.75991731,16.2335865 C2.31274428,15.6743031 2.05058229,14.9921769 2.00661212,14.2811987 L2,14.0671336 L2,10.5952284 C2,9.79223962 2.65150892,9.14076947 3.45454545,9.14076947 Z M16.5454545,9.14076947 C17.306226,9.14076947 17.9310004,9.72546844 17.9946587,10.4697727 L18,10.5952284 L18,14.0671336 C18,14.7829423 17.7784901,15.4792981 17.3627451,16.069391 L17.2322219,16.2431441 L15.8801659,17.8414826 C15.7205362,18.0301895 15.4381445,18.0537689 15.2494264,17.8941487 C15.081677,17.7522641 15.0444064,17.5133881 15.150308,17.3295213 L15.1967572,17.2634467 L16.5409523,15.6746659 C16.8654606,15.2688004 17.0586497,14.775891 17.0975743,14.261085 L17.1048951,14.0671336 L17.1048951,10.5952284 C17.1048951,10.286563 16.8541383,10.0358211 16.5454545,10.0358211 C16.264833,10.0358211 16.0320849,10.2430458 15.9920862,10.5126279 L15.986014,10.5952284 L15.986014,13.1125611 L15.980833,13.1746959 C15.9826056,13.3559725 15.949435,13.5411716 15.8783613,13.7209948 L15.8227274,13.8451858 L14.9150911,15.3555855 C14.7877814,15.5674417 14.5128229,15.6359864 14.300954,15.5086844 C14.1126261,15.395527 14.0375388,15.1657157 14.1125914,14.9672501 L14.147846,14.8945839 L15.0388018,13.4145454 C15.1376053,13.2169501 15.0919798,12.9820777 14.9255447,12.8286799 L14.852035,12.772195 C14.6446592,12.6480272 14.3824689,12.6940788 14.2204245,12.8822867 L14.1646549,12.9594734 L13.3979096,14.1088515 C13.1509045,14.4788372 13.0047387,14.9059723 12.9720567,15.3482475 L12.965035,15.5385985 L12.965035,17.5524647 C12.965035,17.7996263 12.7646589,17.9999905 12.5174825,17.9999905 C12.2977702,17.9999905 12.1150359,17.8416781 12.0771407,17.632908 L12.0699301,17.5524647 L12.0699301,15.5385985 C12.0699301,14.9286518 12.2302723,14.3311535 12.5331383,13.8056194 L12.6533591,13.6120337 L13.4086137,12.4807952 C13.7606974,11.8943188 14.4777759,11.6615529 15.0910695,11.8962684 L15.0908996,10.5952284 C15.0908996,9.79223962 15.742418,9.14076947 16.5454545,9.14076947 Z M10.3900373,2.84945935 C11.5500281,1.72979682 13.3730448,1.72129343 14.5430299,2.80073904 L14.5430299,2.80073904 L14.6702741,2.92515342 C14.8164243,3.07661992 14.9459776,3.24219886 15.0651747,3.4331868 L15.0651747,3.4331868 L15.1651895,3.60733973 C15.7435079,4.73288559 15.5139971,6.10457944 14.6097186,6.97310736 L14.6097186,6.97310736 L11.0355992,10.5953464 C10.4715138,11.1671515 9.55126729,11.173446 8.97662354,10.6075831 L8.97662354,10.6075831 L5.2683368,6.84498512 C4.5165226,6.0217227 4.30885034,4.8296065 4.7533225,3.78226785 L4.7533225,3.78226785 L4.8388074,3.60099284 C5.62653496,2.1264546 7.4605288,1.56997889 8.93476742,2.35787354 C9.18004832,2.48873435 9.407654,2.65441824 9.61177894,2.8505684 L9.61177894,2.8505684 L10,3.22761089 Z M14.0261896,3.54670146 C13.2083098,2.69946395 11.8589686,2.67561814 11.0126881,3.49247379 L11.0126881,3.49247379 L10.311821,4.17316055 C10.1380963,4.3418831 9.8616691,4.34181691 9.68802525,4.17301117 L9.68802525,4.17301117 L8.98970248,3.49413468 C8.84647034,3.35650573 8.6856987,3.23947319 8.5131258,3.14740303 L8.5131258,3.14740303 L8.37606875,3.08022074 C7.36374225,2.62765165 6.15942263,3.02850582 5.63897034,4.0014517 L5.63897034,4.0014517 L5.57076117,4.14658325 C5.25293165,4.89601985 5.42995048,5.76706795 6.02756928,6.34190815 L6.02756928,6.34190815 L9.59948835,9.96461671 L9.68512778,10.0364501 C9.9043764,10.185964 10.2054619,10.162321 10.3983933,9.9667492 L10.3983933,9.9667492 L13.9810597,6.33607558 C14.6087435,5.73305343 14.7665308,4.79002246 14.3796015,4.03577186 L14.3796015,4.03577186 L14.2982806,3.89450367 C14.2202939,3.76988783 14.1291835,3.65344184 14.0261896,3.54670146 Z"/>
</svg>
