<svg xmlns="http://www.w3.org/2000/svg" width="20" height="20" viewBox="0 0 20 20">
  <path fill="#707578" fill-rule="evenodd" d="M14.4171268,13.8643026 L14.4812343,13.9170405 L15.7067638,15.1518042 C15.9889856,14.9709174 16.3245179,14.866044 16.6845245,14.866044 C17.6871839,14.866044 18.5,15.6795327 18.5,16.683022 C18.5,17.6865112 17.6871839,18.5 16.6845245,18.5 C15.6818651,18.5 14.869049,17.6865112 14.869049,16.683022 C14.869049,16.3371037 14.9656349,16.013763 15.1332885,15.7385392 L13.900077,14.4951255 C13.7405752,14.3345105 13.74137,14.0748976 13.9018522,13.9152639 C14.042274,13.7755843 14.2584285,13.7587334 14.4171268,13.8643026 Z M6.09891941,13.9153322 C6.2393083,14.055045 6.25741846,14.2712753 6.1528733,14.4307241 L6.10055762,14.4951942 L4.86671152,15.7385392 C5.03436507,16.013763 5.13095097,16.3371037 5.13095097,16.683022 C5.13095097,17.6865112 4.31813491,18.5 3.31547549,18.5 C2.31281606,18.5 1.5,17.6865112 1.5,16.683022 C1.5,15.6795327 2.31281606,14.866044 3.31547549,14.866044 C3.6750499,14.866044 4.01020879,14.9706658 4.29221954,15.151153 L5.51953689,13.9169718 C5.67907657,13.7563945 5.93847496,13.7556605 6.09891941,13.9153322 Z M16.6845245,15.686096 C16.1343928,15.686096 15.6884229,16.132435 15.6884229,16.683022 C15.6884229,17.233609 16.1343928,17.679948 16.6845245,17.679948 C17.2346562,17.679948 17.6806261,17.233609 17.6806261,16.683022 C17.6806261,16.132435 17.2346562,15.686096 16.6845245,15.686096 Z M3.31547549,15.686096 C2.76534377,15.686096 2.31937389,16.132435 2.31937389,16.683022 C2.31937389,17.233609 2.76534377,17.679948 3.31547549,17.679948 C3.86560721,17.679948 4.31157708,17.233609 4.31157708,16.683022 C4.31157708,16.132435 3.86560721,15.686096 3.31547549,15.686096 Z M10.0070289,5.01738 C11.3008367,5.01738 12.3496751,6.06708646 12.3496751,7.361965 C12.3496751,8.45973426 11.5958465,9.38129168 10.5780034,9.63641764 C12.279425,9.90857637 13.5797401,11.3851311 13.5797401,13.165642 C13.5797401,13.3920931 13.396317,13.575668 13.1700532,13.575668 L13.1700532,13.575668 L6.84400473,13.575668 C6.61774087,13.575668 6.43431778,13.3920931 6.43431778,13.165642 C6.43431778,11.3851311 7.73463292,9.90857637 9.43669763,9.63528708 C8.41821142,9.38129168 7.66438275,8.45973426 7.66438275,7.361965 C7.66438275,6.06708646 8.71322118,5.01738 10.0070289,5.01738 Z M10.0070289,10.4100261 C8.66185963,10.4100261 7.54199665,11.3754756 7.30147579,12.6517974 L7.30147579,12.6517974 L7.28479976,12.7553748 L12.7285151,12.7553748 L12.7125821,12.6517974 C12.4825187,11.4309678 11.4479154,10.4945659 10.1811543,10.4154474 L10.1811543,10.4154474 Z M16.6774956,7.83128399 C17.680155,7.83128399 18.4929711,8.64477276 18.4929711,9.648262 C18.4929711,10.6517512 17.680155,11.46524 16.6774956,11.46524 C15.8160558,11.46524 15.0947483,10.8647656 14.9086518,10.0592222 L13.1630242,10.058288 C12.9367604,10.058288 12.7533373,9.87471311 12.7533373,9.648262 C12.7533373,9.45011728 12.8937706,9.28479965 13.080458,9.24656626 L13.1630242,9.23823599 L14.9084233,9.23829232 C15.0941571,8.43225073 15.8157027,7.83128399 16.6774956,7.83128399 Z M3.32250443,7.83128399 C4.18429727,7.83128399 4.90584287,8.43225073 5.09157672,9.23829232 L6.83697578,9.23823599 C7.06323964,9.23823599 7.24666273,9.42181089 7.24666273,9.648262 C7.24666273,9.84640672 7.10622942,10.0117243 6.91954199,10.0499577 L6.83697578,10.058288 L5.09134819,10.0592222 C4.90525166,10.8647656 4.18394422,11.46524 3.32250443,11.46524 C2.319845,11.46524 1.50702894,10.6517512 1.50702894,9.648262 C1.50702894,8.64477276 2.319845,7.83128399 3.32250443,7.83128399 Z M16.6774956,8.65133601 C16.1273638,8.65133601 15.681394,9.09767498 15.681394,9.648262 C15.681394,10.198849 16.1273638,10.645188 16.6774956,10.645188 C17.2276273,10.645188 17.6735972,10.198849 17.6735972,9.648262 C17.6735972,9.09767498 17.2276273,8.65133601 16.6774956,8.65133601 Z M3.32250443,8.65133601 C2.77237271,8.65133601 2.32640284,9.09767498 2.32640284,9.648262 C2.32640284,10.198849 2.77237271,10.645188 3.32250443,10.645188 C3.87263615,10.645188 4.31860602,10.198849 4.31860602,9.648262 C4.31860602,9.09767498 3.87263615,8.65133601 3.32250443,8.65133601 Z M10.0070289,5.83743202 C9.16574888,5.83743202 8.48375665,6.51998868 8.48375665,7.361965 C8.48375665,8.20394132 9.16574888,8.88649799 10.0070289,8.88649799 C10.848309,8.88649799 11.5303012,8.20394132 11.5303012,7.361965 C11.5303012,6.51998868 10.848309,5.83743202 10.0070289,5.83743202 Z M16.6774956,1.5 C17.680155,1.5 18.4929711,2.31348876 18.4929711,3.31697801 C18.4929711,4.32046725 17.680155,5.13395602 16.6774956,5.13395602 C16.3314959,5.13395602 16.008103,5.0370845 15.7329168,4.86896242 L13.803133,6.78764965 C13.6425731,6.94720503 13.3831753,6.94628293 13.2237518,6.78559009 C13.0842563,6.64498385 13.0675248,6.42864227 13.1730841,6.26986421 L13.2258097,6.2057294 L15.147544,4.29554791 C14.9668068,4.01309259 14.8620201,3.67728255 14.8620201,3.31697801 C14.8620201,2.31348876 15.6748361,1.5 16.6774956,1.5 Z M3.32250443,1.5 C4.32516386,1.5 5.13797992,2.31348876 5.13797992,3.31697801 C5.13797992,3.67685001 5.03344462,4.01228629 4.85310663,4.29453044 L6.77423708,6.20577589 C6.93477138,6.36535711 6.93565098,6.62496973 6.77620172,6.7856369 C6.63668361,6.92622067 6.42064231,6.94446764 6.26126651,6.83992581 L6.19682021,6.78760316 L4.2670832,4.86896242 C3.99189696,5.0370845 3.66850412,5.13395602 3.32250443,5.13395602 C2.319845,5.13395602 1.50702894,4.32046725 1.50702894,3.31697801 C1.50702894,2.31348876 2.319845,1.5 3.32250443,1.5 Z M16.6774956,2.32005202 C16.1273638,2.32005202 15.681394,2.76639099 15.681394,3.31697801 C15.681394,3.86756503 16.1273638,4.313904 16.6774956,4.313904 C17.2276273,4.313904 17.6735972,3.86756503 17.6735972,3.31697801 C17.6735972,2.76639099 17.2276273,2.32005202 16.6774956,2.32005202 Z M3.32250443,2.32005202 C2.77237271,2.32005202 2.32640284,2.76639099 2.32640284,3.31697801 C2.32640284,3.86756503 2.77237271,4.313904 3.32250443,4.313904 C3.87263615,4.313904 4.31860602,3.86756503 4.31860602,3.31697801 C4.31860602,2.76639099 3.87263615,2.32005202 3.32250443,2.32005202 Z"/>
</svg>
