<svg xmlns="http://www.w3.org/2000/svg" width="20" height="20" viewBox="0 0 20 20">
  <path fill="#707578" fill-rule="evenodd" d="M16.8698399,7.92214362 C17.263699,8.157996 17.5035477,8.58627115 17.4999603,9.04721779 L17.4999603,14.0696421 C17.4995999,14.5715035 17.2332159,15.0351221 16.8009997,15.2860527 L12.424685,17.8269994 C12.235064,17.9376586 12.0202563,17.9972462 11.8010333,18 C11.0884126,18 10.5107193,17.4190874 10.5107193,16.7024953 L10.5107193,11.6584459 C10.5121408,11.1568826 10.7782302,10.6937768 11.2096394,10.4420353 L15.5859541,7.90108867 C15.9872518,7.67827638 16.4759809,7.68629124 16.8698399,7.92214362 Z M10.6988901,2.18666186 L15.0698285,4.7276085 C15.4701294,4.95767217 15.7171634,5.38577043 15.7171634,5.84940941 C15.7171634,6.31304839 15.4701294,6.74114665 15.0698285,6.97121032 L10.5107193,9.62028235 C9.84436298,10.0071462 9.4343236,10.7225292 9.43545773,11.4962579 L9.43545773,16.675464 C9.43687031,17.1396146 9.19059839,17.5688648 8.79030077,17.799968 C8.59332072,17.9117249 8.37130704,17.9712585 8.14514381,17.9729687 C7.91898058,17.9712585 7.69696691,17.9117249 7.49998685,17.799968 L3.19894045,15.2860527 C2.76508885,15.0367708 2.49810305,14.5721048 2.50001015,14.0696421 L2.50001015,6.96039778 C2.49810305,6.45793509 2.76508885,5.99326911 3.19894045,5.74398716 L9.30105003,2.18666186 C9.73412933,1.93777938 10.2658108,1.93777938 10.6988901,2.18666186 Z M16.231111,8.80928855 C16.1935067,8.80849094 16.156367,8.8178276 16.1235849,8.83637328 L11.7472702,11.3773199 C11.6474,11.4353013 11.585907,11.5424832 11.5859809,11.6584459 L11.5859809,16.6808703 C11.586384,16.7585298 11.6271758,16.8303133 11.6935071,16.8700897 C11.7600445,16.9087192 11.842022,16.9087192 11.9085594,16.8700897 L16.2848741,14.3615807 C16.3831774,14.3020387 16.4441095,14.1958345 16.4461634,14.0804546 L16.4461634,9.04721779 C16.4457603,8.9695582 16.4049685,8.89777471 16.3386372,8.85799836 C16.3049001,8.84199757 16.2683671,8.83281341 16.231111,8.83096701 L16.231111,8.80928855 Z M9.99997007,3.07869632 C9.94339719,3.07888276 9.88783428,3.0937821 9.83868083,3.12194647 L3.71506602,6.67927177 C3.61350529,6.73553655 3.5513788,6.84382259 3.55370978,6.96039778 L3.55370978,14.0696421 C3.55370978,14.1856049 3.61519586,14.2927868 3.71506602,14.3507681 L8.01611242,16.8592771 C8.08073509,16.9045254 8.16654207,16.9045254 8.23116474,16.8592771 C8.30017002,16.8249616 8.34239109,16.7527858 8.3386909,16.675464 L8.3386909,11.4962579 C8.33795153,10.3366303 8.95288171,9.26481137 9.9515833,8.68499774 L14.5106925,6.03592571 C14.5787341,6.0005774 14.620553,5.92908918 14.6182186,5.85211255 C14.6213409,5.77354454 14.5795919,5.70007653 14.5106925,5.66289311 L10.1397541,3.12194647 C10.0965907,3.0980696 10.0490156,3.08334953 9.99997007,3.07869632 Z"/>
</svg>
