<svg xmlns="http://www.w3.org/2000/svg" width="20" height="20" viewBox="0 0 20 20">
  <path fill="#707578" fill-rule="evenodd" d="M11.7499683,15 L3.24999594,15 C2.55964224,15 2,14.4403559 2,13.75 L2,6.25 C2,5.55964406 2.55964224,5 3.24999594,5 L11.7499683,5 C12.440322,5 12.9999643,5.55964406 12.9999643,6.25 L12.9999643,8.19 L16.1899539,6.595 C16.5778338,6.4006318 17.0387588,6.42129238 17.4076934,6.64958416 C17.7766281,6.87787594 18.0008016,7.28114513 17.9999742,7.715 L17.9999742,12.29 C18.0027572,12.723562 17.7798067,13.1273607 17.4113969,13.3559592 C17.0429872,13.5845577 16.5821833,13.605029 16.1949539,13.41 L12.9999643,11.83 L12.9999643,13.75 C12.9999643,14.4403559 12.440322,15 11.7499683,15 Z M3.24999594,6 C3.1119252,6 2.99999675,6.11192881 2.99999675,6.25 L2.99999675,13.75 C2.99999675,13.8880712 3.1119252,14 3.24999594,14 L11.7499683,14 C11.8880391,14 11.9999675,13.8880712 11.9999675,13.75 L11.9999675,11.025 C11.9996215,10.8522491 12.088474,10.6915572 12.2349663,10.5999992 C12.3814586,10.5084413 12.5648356,10.4989891 12.7199652,10.575 L16.6399524,12.5 C16.714722,12.5409105 16.8051821,12.5409105 16.8799517,12.5 C16.9535013,12.4530162 16.9985717,12.3722649 16.9999513,12.285 L16.9999513,7.715 C16.9985717,7.62773512 16.9535013,7.54698375 16.8799517,7.5 C16.8051821,7.4590895 16.714722,7.4590895 16.6399524,7.5 L12.7249652,9.455 C12.5686107,9.53381966 12.3824174,9.52510605 12.2341075,9.43202849 C12.0857976,9.33895094 11.996983,9.17507283 11.9999675,9 L11.9999675,6.25 C11.9999675,6.11192881 11.8880391,6 11.7499683,6 L3.24999594,6 Z"/>
</svg>
