<svg xmlns="http://www.w3.org/2000/svg" width="20" height="20" viewBox="0 0 20 20">
  <path fill="#707578" fill-rule="evenodd" d="M17.3433678,13.1666533 C17.3727437,13.0988111 17.3979911,13.029109 17.4255068,12.9603348 C17.4832786,12.8154427 17.5372418,12.6696706 17.5861004,12.5224346 C17.6157444,12.433593 17.6445322,12.3447034 17.6710998,12.2545218 C17.7150017,12.1046218 17.7528708,11.9536739 17.7877395,11.802042 C17.8187756,11.6679656 17.8457473,11.5328132 17.8699305,11.3962409 C17.8948579,11.2543767 17.918029,11.1124365 17.9352193,10.9697643 C17.9491372,10.8554594 17.9593465,10.7403745 17.9683557,10.6246576 C17.977537,10.5049328 17.9827577,10.3852361 17.9865702,10.2653393 C17.9894986,10.1765417 18,10.089636 18,10.0001144 C18,9.88986137 17.9878904,9.78268826 17.9834458,9.67351119 C17.9789292,9.56591409 17.9759488,9.45828098 17.9671116,9.35093587 C17.955462,9.20701974 17.9380277,9.06512755 17.9188371,8.92343136 C17.9092358,8.85309725 17.8981063,8.78310314 17.8866288,8.71303702 C17.8091305,8.23545348 17.688002,7.76597981 17.5247641,7.31051074 C17.5044734,7.25377626 17.4841347,7.19713779 17.4625238,7.1408153 C17.4079524,6.99899912 17.3512808,6.85867089 17.2889925,6.7208266 C17.2672335,6.6725359 17.2425862,6.62539716 17.2198152,6.57747045 C17.0939646,6.31288645 16.9536291,6.0554365 16.7994467,5.80629119 C16.7732232,5.76396033 16.7489999,5.72069349 16.7219003,5.67878262 C16.6370889,5.54736615 16.5470768,5.42031757 16.4549684,5.29434496 C16.4390742,5.27268954 16.4253004,5.24988615 16.4091622,5.22834673 C16.3987436,5.2144947 16.3876013,5.20120191 16.3757817,5.1885238 C14.4859738,2.67513469 11.2972936,1.50395372 8.22959328,2.19648311 C5.16189296,2.88901249 2.78585202,5.31642207 2.15947142,8.3978375 L2.15842327,8.40054542 C2.11007678,8.63823503 2.07660028,8.87607264 2.04988869,9.11372625 C2.04428794,9.16445688 2.03970332,9.21535951 2.0350427,9.26638614 C1.98731418,9.77471375 1.98834301,10.2864414 2.03811511,10.794573 C2.03987134,10.8122726 2.04204364,10.8297721 2.04392389,10.8474556 C2.09811055,11.365017 2.20307374,11.8759959 2.357298,12.3730146 L2.36017839,12.3818784 C2.58985425,13.1171823 2.9254457,13.8151089 3.35638025,14.4536706 L3.37486674,14.4813819 C3.64832978,14.8835006 3.95793155,15.2598237 4.29981903,15.6056677 C4.33810417,15.6445586 4.37748946,15.6820656 4.41653471,15.7201646 C4.54284502,15.8428413 4.67369727,15.9617714 4.80909146,16.076955 C4.8614425,16.1217298 4.91254936,16.1676006 4.96607256,16.2110354 C4.98269879,16.224487 4.99791283,16.2391826 5.01466308,16.2525103 C5.02254814,16.2587861 5.03238947,16.261006 5.04059057,16.2667699 C6.89881709,17.7437457 9.31821896,18.3169426 11.6417178,17.8306877 C13.9652167,17.3444328 15.9516052,15.8492052 17.0614059,13.7510895 C17.0645303,13.7457177 17.0692189,13.7416898 17.0721473,13.7361739 C17.1712006,13.549259 17.2603726,13.3589081 17.3433678,13.1666533 Z M16.9734941,10.5203804 C16.9669492,10.609902 16.9622926,10.6995476 16.9522912,10.7888772 C16.9326886,10.9624725 16.9056329,11.1337679 16.8735486,11.3032914 C16.8579465,11.3863491 16.839288,11.4688869 16.8206335,11.5514807 C16.7911629,11.6810425 16.7581345,11.8091884 16.7215482,11.9359184 C16.7035778,11.9985127 16.6880237,12.061599 16.668269,12.1237773 C16.6112294,12.3024125 16.5461326,12.4774318 16.4754231,12.6495712 C16.4510199,12.7091696 16.4242443,12.76812 16.3980927,12.8272264 C16.3717692,12.8864768 16.3416852,12.9435793 16.3137774,13.0019807 L15.3469075,13.0019807 C15.1021903,13.0028267 14.8930814,12.8258639 14.8534852,12.5844089 L14.3260703,9.41789407 C14.2857903,9.17679624 14.0771178,9.00012789 13.83264,9.0001413 L12.7797665,9.0001413 C12.7387846,9.0002215 12.6979577,8.99510766 12.6582662,8.98490571 C12.3907419,8.91749125 12.228232,8.64633555 12.2949374,8.37867401 L12.7950046,6.3787278 C12.850332,6.15609905 13.0503984,5.99990734 13.2798337,6.0002215 L15.7340715,6.0002215 C15.8084455,6.10615113 15.8775228,6.2148162 15.9454039,6.32401727 C15.9722635,6.3672761 15.9988751,6.41065894 16.0248066,6.45455376 C16.0914915,6.56735072 16.1566603,6.68089167 16.2165323,6.79668456 L16.2170924,6.79788452 C16.3445188,7.04608326 16.4568565,7.30174058 16.5534936,7.56346394 C16.5694958,7.60643078 16.5856739,7.64934963 16.600888,7.69270846 C16.7343432,8.07518191 16.8343491,8.46851363 16.8997802,8.86827685 C16.9097815,8.9294352 16.9195308,8.99063756 16.9279559,9.0523079 C16.9445102,9.17276466 16.9598962,9.29341341 16.9701976,9.41453016 C16.9832874,9.57165393 16.9917605,9.73002167 16.9942729,9.88988137 C16.9959851,9.99044267 16.9927607,10.091048 16.9901723,10.1916573 C16.9871692,10.3018943 16.9816098,10.4114687 16.9734941,10.5203804 Z M5.50808539,12.4020018 L5.00836224,14.9006626 C4.87221194,14.7620903 4.74067427,14.6189542 4.61634156,14.4695182 C4.60562012,14.4567026 4.59495202,14.4438376 4.58433726,14.4309233 C3.56076842,13.1862857 3.00040477,11.6253522 2.99869219,10.013994 C2.99869219,10.0049623 2.99863928,9.99595452 2.99863928,9.98692276 C2.99908424,9.7586089 3.01104585,9.53297897 3.03294879,9.31022896 C3.03517309,9.28786956 3.0382495,9.26550616 3.04068983,9.24311877 C3.04957902,9.16101697 3.06615725,9.08137912 3.07789483,9.00015682 L6.21757273,9.00015682 C6.44700955,8.99984082 6.6470781,9.15603293 6.70240588,9.37866312 L7.20327318,11.3811453 C7.21309503,11.4200243 7.21795167,11.4599906 7.21773457,11.5000901 C7.21747128,11.776119 6.99373337,11.9998208 6.71765993,12.0000766 L5.99838727,12.0000766 C5.76004146,12.0001145 5.55484393,12.1683252 5.50808539,12.4020018 L5.50808539,12.4020018 Z M9.99892485,16.9999262 C8.51641834,16.9995087 7.07284078,16.52541 5.87883921,15.6468106 L6.40820634,13.0000337 L6.71762392,13.0000337 C7.54575845,12.9990595 8.21685114,12.328075 8.21782551,11.5000741 C8.21805579,11.3773265 8.20296382,11.2550301 8.17289948,11.1360199 L7.67283228,9.13607364 C7.50650003,8.46802716 6.90610295,7.99939128 6.21755672,8.00016819 L3.29282371,8.00016819 C3.99069404,5.64997759 5.86913921,3.83720837 8.24294798,3.22311475 C10.6167568,2.60902114 13.1388229,3.28339794 14.889158,5.00024887 L13.2798337,5.00024887 C12.5912885,4.99947236 11.9908928,5.46810845 11.8245622,6.13615432 L11.324495,8.13610054 C11.1245394,8.9388941 11.6118099,9.75213392 12.4140934,9.95460763 C12.5336152,9.98493356 12.6564563,10.0002207 12.7797665,10.0001144 L13.4091471,10.0001144 L13.8666446,12.7490645 C13.9858878,13.4732033 14.6129159,14.0039155 15.3469195,14.0019588 L15.7345476,14.0019588 C14.4279342,15.8788197 12.2860583,16.9983623 9.99892485,16.9999262 L9.99892485,16.9999262 Z"/>
</svg>
