<svg xmlns="http://www.w3.org/2000/svg" width="20" height="20" viewBox="0 0 20 20">
  <path fill="#707578" fill-rule="evenodd" d="M10.0698487,2.00016644 C12.8982444,2.02565636 15.5996968,3.55576875 17.025552,6.17263115 C17.6662692,7.34617194 18.0014255,8.66235382 18,9.99929799 C17.9995299,11.9680154 17.2831517,13.7862104 16.0841632,15.1897269 C16.0676221,15.2144466 16.0476149,15.2366269 16.0255663,15.2565944 C14.7729627,16.6913325 13.0102527,17.6796174 10.9940315,17.9318648 C10.6798019,17.9711777 10.3671323,17.9916471 10.0572334,17.9940985 C10.0144051,18.0019487 9.97026312,18.0015731 9.92696345,17.9946725 C7.61477601,17.9747852 5.46688247,16.953501 3.99052976,15.2758254 C3.94474237,15.2410339 3.90626168,15.1962536 3.87770991,15.14517 C3.12231098,14.2480274 2.55480079,13.1730646 2.24843905,11.9699569 C1.59247235,9.3939216 2.26903188,6.76167348 3.88223133,4.84504439 C3.9084217,4.8009881 3.94234975,4.76132717 3.9821601,4.72855261 C4.80133799,3.79231912 5.84956873,3.0358198 7.07813838,2.55382995 C8.01769289,2.18522591 8.98917106,2.0060227 9.94798626,2 L9.94779775,2.00090551 Z M11.941032,15.3704066 L8.16318093,15.369709 C8.6559448,16.0080613 9.25435597,16.5633276 9.93655283,17.009378 L10.0099214,17.0547036 L10.0536269,17.0311784 C10.7915812,16.6047358 11.4314499,16.0385221 11.941032,15.3704066 Z M7.0898911,15.3702289 L5.32625778,15.3702467 C6.20724559,16.1354051 7.27075388,16.6804151 8.42438224,16.9422868 C7.91438309,16.4766704 7.46603651,15.9484329 7.0898911,15.3702289 Z M14.6759604,15.369418 L13.0075405,15.3696286 C12.647141,15.9412094 12.2088105,16.4599069 11.7054268,16.9105766 C12.827686,16.6357566 13.8392742,16.0978106 14.6759604,15.369418 Z M6.59452195,5.50469644 L4.47381021,5.50486262 C3.09429637,7.20283661 2.52452741,9.50244427 3.09782509,11.7538315 C3.36069765,12.7861537 3.83949772,13.7125207 4.47603802,14.4932661 L6.5942966,14.4941526 C6.47956417,14.2583675 6.37590395,14.0163401 6.28390188,13.7687708 C6.1996196,13.5419747 6.31521955,13.2898218 6.54210159,13.2055715 C6.76898363,13.1213212 7.02123216,13.2368773 7.10551443,13.4636734 C7.23832973,13.8210674 7.39837428,14.1655174 7.58343392,14.494377 L12.5029265,14.4941525 C12.6289057,14.257269 12.7403988,14.0116801 12.8363738,13.7585994 L12.9347393,13.4799915 C13.0100059,13.2500485 13.2574979,13.1246353 13.4875281,13.1998734 C13.7175583,13.2751114 13.843019,13.5225096 13.7677525,13.7524526 C13.684796,14.0058887 13.5883878,14.2533569 13.4792818,14.4939708 L15.5236196,14.4937157 C16.5273125,13.2621738 17.1231183,11.6930826 17.1235191,9.99872355 C17.1247963,8.808395 16.8264771,7.63687503 16.2558464,6.59170435 C16.043361,6.2017314 15.7990616,5.8388626 15.5277425,5.50484218 L13.397485,5.50469644 C13.512082,5.74037335 13.6156122,5.98228603 13.7074901,6.22973455 C13.7917086,6.45655429 13.6760377,6.70867469 13.449132,6.79286122 C13.2222262,6.87704775 12.9700102,6.76142069 12.8857918,6.53460095 C12.7532226,6.17756155 12.5934635,5.83343974 12.408724,5.50487677 L7.58341679,5.50463888 C7.45246088,5.73752604 7.33405561,5.97823071 7.22898779,6.22581226 L7.10621524,6.53460095 C7.02199678,6.76142069 6.76978079,6.87704775 6.54287505,6.79286122 C6.3159693,6.70867469 6.2002984,6.45655429 6.28451685,6.22973455 C6.3763948,5.98228603 6.47992499,5.74037335 6.59452195,5.50469644 Z M10.9828395,8.24584267 C11.1946165,8.24584267 11.371308,8.39600506 11.4121718,8.595626 L11.4210752,8.68391231 L11.4210752,9.5685798 C11.4209267,10.0331786 11.3470122,10.4942111 11.2025753,10.9347096 L11.1074764,11.1964088 L10.7318208,12.1348629 C10.5885686,12.4927323 10.1018418,12.4959097 9.93754596,12.1784822 L9.90357467,12.0924658 L9.66700196,11.2645183 L9.43054166,12.0924658 C9.32460867,12.4630908 8.84075256,12.5159514 8.64487892,12.2169606 L8.6022955,12.1348629 L8.22655794,11.1962038 C8.0541102,10.7647686 7.95147907,10.3092633 7.9219558,9.84669344 L7.9130411,9.56843986 L7.9130411,8.68391231 C7.9130411,8.44197313 8.10924593,8.24584267 8.35127684,8.24584267 C8.56305389,8.24584267 8.73974534,8.39600506 8.78060919,8.595626 L8.78951258,8.68391231 L8.78951256,9.56829992 C8.78959813,9.83605811 8.82029304,10.1023365 8.88059628,10.3619859 L8.94500858,10.5986524 L9.24568401,9.55002728 C9.35745302,9.15898402 9.87778925,9.12890377 10.0524148,9.45978653 L10.0884323,9.55002728 L10.3878998,10.5986524 L10.4535023,10.3620392 C10.4937163,10.188919 10.5207631,10.0128812 10.5343515,9.83544742 L10.5446038,9.56843986 L10.5446038,8.68391231 C10.5446038,8.44197313 10.7408086,8.24584267 10.9828395,8.24584267 Z M14.9301835,8.24584267 C15.1419605,8.24584267 15.318652,8.39600506 15.3595158,8.595626 L15.3684192,8.68391231 L15.3684192,9.5685798 C15.3682707,10.0331786 15.2943561,10.4942111 15.1499192,10.9347096 L15.0548204,11.1964088 L14.6791648,12.1348629 C14.5359126,12.4927323 14.0491858,12.4959097 13.8848899,12.1784822 L13.8509186,12.0924658 L13.6144104,11.2645183 L13.3778856,12.0924658 C13.2719526,12.4630908 12.7880965,12.5159514 12.5922229,12.2169606 L12.5496395,12.1348629 L12.1739019,11.1962038 C12.0014542,10.7647686 11.898823,10.3092633 11.8692998,9.84669344 L11.8603851,9.56843986 L11.8603851,8.68391231 C11.8603851,8.44197313 12.0565899,8.24584267 12.2986208,8.24584267 C12.5103979,8.24584267 12.6870893,8.39600506 12.7279532,8.595626 L12.7368566,8.68391231 L12.7368565,9.56829992 C12.7369421,9.83605811 12.767637,10.1023365 12.8279403,10.3619859 L12.892417,10.5986524 L13.193028,9.55002728 C13.304797,9.15898402 13.8251332,9.12890377 13.9997587,9.45978653 L14.0357763,9.55002728 L14.3353082,10.5986524 L14.4008463,10.3620392 C14.4410603,10.188919 14.4681071,10.0128812 14.4816955,9.83544742 L14.4919477,9.56843986 L14.4919477,8.68391231 C14.4919477,8.44197313 14.6881526,8.24584267 14.9301835,8.24584267 Z M7.03549552,8.24584267 C7.24727257,8.24584267 7.42396402,8.39600506 7.46482786,8.595626 L7.47373126,8.68391231 L7.47373126,9.5685798 C7.47358277,10.0331786 7.39966819,10.4942111 7.25523129,10.9347096 L7.16013243,11.1964088 L6.78447686,12.1348629 C6.64122464,12.4927323 6.15449782,12.4959097 5.99020198,12.1784822 L5.9562307,12.0924658 L5.71959354,11.2645183 L5.48319769,12.0924658 C5.37726469,12.4630908 4.89340858,12.5159514 4.69753494,12.2169606 L4.65495153,12.1348629 L4.27921396,11.1962038 C4.10676623,10.7647686 4.0041351,10.3092633 3.97461182,9.84669344 L3.96569713,9.56843986 L3.96569713,8.68391231 C3.96569713,8.44197313 4.16190195,8.24584267 4.40393287,8.24584267 C4.61570992,8.24584267 4.79240137,8.39600506 4.83326521,8.595626 L4.84216861,8.68391231 L4.84216858,9.56829992 C4.84225415,9.83605811 4.87294906,10.1023365 4.93325231,10.3619859 L4.997,10.598 L5.29834003,9.55002728 C5.41010904,9.15898402 5.93044528,9.12890377 6.10507078,9.45978653 L6.14108835,9.55002728 L6.44049133,10.5986524 L6.50615837,10.3620392 C6.54637233,10.188919 6.57341917,10.0128812 6.58700753,9.83544742 L6.59725978,9.56843986 L6.59725978,8.68391231 C6.59725978,8.44197313 6.7934646,8.24584267 7.03549552,8.24584267 Z M8.42818416,3.05262183 L8.34100625,3.0725685 C8.02421808,3.14870761 7.70931843,3.24740627 7.39834624,3.36940623 C6.61937226,3.67501165 5.92181898,4.10455455 5.3212466,4.62769827 L7.09045493,4.62764086 C7.46742478,4.04805771 7.91697802,3.51869563 8.42818416,3.05262183 Z M9.99567877,2.95105176 L9.93653303,2.98899465 C9.25463889,3.43478858 8.65650084,3.98976406 8.16397357,4.62779421 L11.8286133,4.62854553 C11.3359757,3.99019973 10.7376358,3.43496355 10.055474,2.98899465 L9.99567877,2.95105176 Z M11.5615936,3.05005806 L11.771277,3.24853751 C12.1973473,3.66529707 12.5764428,4.1277922 12.9015521,4.62764086 L14.6794726,4.62728897 C13.7823683,3.84663077 12.707399,3.30790835 11.5615936,3.05005806 Z"/>
</svg>
