<svg xmlns="http://www.w3.org/2000/svg" width="20" height="20" viewBox="0 0 20 20">
  <path fill="#707578" fill-rule="evenodd" d="M9,3.99647034 C9.27614237,3.99647034 9.5,4.21953783 9.5,4.49470551 C9.5,4.76987319 9.27614237,4.99294067 9,4.99294068 L3.25,4.99294068 C3.11192881,4.99294068 3,5.10447442 3,5.24205826 L3,12.7155858 C3,12.8531696 3.11192881,12.9647034 3.25,12.9647034 L5.5,12.9647034 C5.63290149,12.9639377 5.76064058,13.0159287 5.855,13.1091916 C5.94859326,13.2032179 6.00076838,13.3305062 6,13.4629385 L6,15.8395203 L9.165,13.0842798 C9.25817311,13.0048342 9.37739618,12.9622782 9.5,12.9647034 L16.75,12.9647034 C16.8880712,12.9647034 17,12.8531696 17,12.7155858 L17,10.9717627 C17,10.696595 17.2238576,10.4735275 17.5,10.4735275 C17.7761424,10.4735275 18,10.696595 18,10.9717627 L18,12.7155858 C18,13.403505 17.4403559,13.9611737 16.75,13.9611737 L9.69,13.9611737 L6.455,16.7811848 C6.19244172,17.0125863 5.81663835,17.0655228 5.5,16.9157083 C5.19066825,16.7709095 4.99506737,16.4590527 5,16.118532 L5,13.9611737 L3.25,13.9611737 C2.55964406,13.9611737 2,13.403505 2,12.7155858 L2,5.24205826 C2,4.55413905 2.55964406,3.99647034 3.25,3.99647034 L9,3.99647034 Z M14.5,3 C16.4329966,3 18,4.56147238 18,6.48764618 C18,8.41381998 16.4329966,9.97529236 14.5,9.97529236 C12.5670034,9.97529236 11,8.41381998 11,6.48764618 C11,4.56147238 12.5670034,3 14.5,3 Z M14.5,3.99647034 C13.1192881,3.99647034 12,5.11180775 12,6.48764618 C12,7.86348461 13.1192881,8.97882203 14.5,8.97882203 C15.8807119,8.97882203 17,7.86348461 17,6.48764618 C17,5.11180775 15.8807119,3.99647034 14.5,3.99647034 Z M14.5,5.49117584 C15.0522847,5.49117584 15.5,5.93731081 15.5,6.48764618 C15.5,7.03798155 15.0522847,7.48411652 14.5,7.48411652 C13.9477153,7.48411652 13.5,7.03798155 13.5,6.48764618 C13.5,5.93731081 13.9477153,5.49117584 14.5,5.49117584 Z"/>
</svg>
