<svg xmlns="http://www.w3.org/2000/svg" width="20" height="20" viewBox="0 0 20 20">
  <path fill="#707578" fill-rule="evenodd" d="M13.4996777,3.98603146 C14.3062131,2.92626785 15.8046208,2.68480358 16.9045822,3.43734048 C17.5565806,3.91041328 17.9555831,4.6506196 17.9965109,5.4473388 L17.9995515,5.6321044 L17.9995515,11.4681812 C17.9995515,12.1296443 17.7361668,12.7640157 17.267339,13.2317408 C16.845394,13.6526934 16.2881472,13.9076284 15.6975738,13.9544059 L15.4996216,13.9622311 L9.68978446,13.9622311 L6.43987555,16.7854956 C6.18034746,17.0108651 5.81251549,17.0635678 5.4999019,16.9201743 C5.22494805,16.7913158 5.03985311,16.5303085 5.00557964,16.2344633 L4.99991591,16.1220783 L4.99991591,13.9622311 L3.24996496,13.9622311 C2.60277441,13.9622311 2.07046413,13.4715271 2.00645343,12.8427072 L2,12.7152061 L2,5.23305642 C2,4.58738811 2.49186088,4.05632985 3.12216331,3.99246971 L3.24996496,3.98603146 L13.4996777,3.98603146 Z M12.9996917,4.98365143 L3.24996496,4.98365143 C3.13162155,4.98365143 3.03248424,5.06568912 3.00657446,5.17587014 L2.99997197,5.23305642 L2.99997197,12.7152061 C2.99997197,12.8332712 3.08220308,12.9321753 3.19264386,12.9580242 L3.24996496,12.9646111 L5.4999019,12.9646111 C5.63208668,12.9625147 5.75972358,13.012732 5.85489195,13.1042779 C5.93075705,13.1805612 5.97938606,13.2786856 5.99472253,13.3836499 L5.99988788,13.4634211 L5.99988788,15.8477328 L9.16979903,13.0893136 C9.2381612,13.0291655 9.32123772,12.9891925 9.40977499,12.9728917 L9.49978978,12.9646111 L15.5921305,12.9642597 C16.297816,12.9292601 16.8923605,12.402484 16.9995796,11.6926457 C17.0656197,11.2585727 16.9372542,10.8174652 16.6484833,10.4861598 C16.3597124,10.1548543 15.9396731,9.96677962 15.4996216,9.97175124 C15.0496973,9.96702372 14.6257484,10.1693036 14.3470227,10.51479 L14.2596564,10.6351685 C14.1357627,10.8376037 13.9173447,10.9634621 13.6796726,10.9693712 C13.3382698,10.9693712 13.0556317,10.7183615 13.0070644,10.3912359 L12.9996917,10.2909896 L12.9996917,4.98365143 Z M9.0009798,9.97175124 C9.27646495,9.97175124 9.49978978,10.1950761 9.49978978,10.4705612 C9.49978978,10.7460464 9.27646495,10.9693712 9.0009798,10.9693712 L5.49872589,10.9693712 C5.22324075,10.9693712 4.99991591,10.7460464 4.99991591,10.4705612 C4.99991591,10.1950761 5.22324075,9.97175124 5.49872589,9.97175124 L9.0009798,9.97175124 Z M15.4378908,3.97034973 L15.2746279,3.98603146 C14.5631161,4.09299831 14.035098,4.68614447 14.0000159,5.39017009 L13.9996637,9.47294126 C14.8362415,8.84698364 15.9680821,8.8101626 16.8393968,9.36247815 L16.9995796,9.47294126 L16.9995796,5.48246141 C17.0045629,5.043445 16.8160448,4.62439363 16.4839583,4.33630194 C16.1933825,4.0842217 15.8185414,3.95466297 15.4378908,3.97034973 L15.4378908,3.97034973 Z M10.0009518,6.97889135 C10.2764369,6.97889135 10.4997618,7.20221619 10.4997618,7.47770133 C10.4997618,7.75318648 10.2764369,7.97651132 10.0009518,7.97651132 L5.49872589,7.97651132 C5.22324075,7.97651132 4.99991591,7.75318648 4.99991591,7.47770133 C4.99991591,7.20221619 5.22324075,6.97889135 5.49872589,6.97889135 L10.0009518,6.97889135 Z"/>
</svg>
