<svg xmlns="http://www.w3.org/2000/svg" width="20" height="20" viewBox="0 0 20 20">
  <path fill="#707578" fill-rule="evenodd" d="M17.5,9.50026946 C17.7761424,9.50026946 18,9.72400644 18,10 C17.9944253,13.004575 16.3152886,15.7560274 13.645,17.1361522 C13.323843,17.3061997 12.9894128,17.4499272 12.645,17.5659204 C10.4214997,18.326027 7.97694181,18.0796958 5.95,16.8912842 C5.81573361,16.8137776 5.72504166,16.6783998 5.70448525,16.5247991 C5.68392885,16.3711983 5.73583432,16.2167572 5.845,16.1067072 L5.845,16.1067072 L5.92044908,16.0452617 C6.08065521,15.9389325 6.29153726,15.9325634 6.46,16.036745 C7.53274796,16.6676215 8.75532533,16.9989892 10,16.9962276 C13.015899,16.9822236 15.6967719,15.0732061 16.695,12.2287982 C16.9219711,11.5084338 17.0250992,10.7548219 17,10 C17,9.72400644 17.2238576,9.50026946 17.5,9.50026946 Z M6.985,13.5530842 L5.335,15.202195 L5.335,15.2071923 L4.63,15.9118123 L4.625,15.9118123 L2.95,17.5859097 L2.95,13.5530842 L6.985,13.5530842 Z M13,9.50026946 C13.2761424,9.50026946 13.5,9.72400644 13.5,10 C13.5,11.9319549 11.9329966,13.4981138 10,13.4981138 C9.72385763,13.4981138 9.5,13.2743768 9.5,12.9983833 C9.5,12.7223897 9.72385763,12.4986527 10,12.4986527 C11.3807119,12.4986527 12.5,11.3799678 12.5,10 C12.5,9.72400644 12.7238576,9.50026946 13,9.50026946 Z M10,6.5018862 C10.2761424,6.5018862 10.5,6.72562318 10.5,7.00161674 C10.5,7.2776103 10.2761424,7.50134728 10,7.50134728 C8.61928813,7.50134728 7.5,8.62003221 7.5,10 C7.5,10.2759936 7.27614237,10.4997305 7,10.4997305 C6.72385763,10.4997305 6.5,10.2759936 6.5,10 C6.5,8.06804509 8.06700338,6.5018862 10,6.5018862 Z M7.355,2.43407957 C9.57850027,1.67397302 12.0230582,1.92030421 14.05,3.10871581 C14.1842664,3.18622235 14.2749583,3.32160018 14.2955147,3.47520094 C14.3160711,3.62880169 14.2641657,3.78324278 14.155,3.89329276 L14.155,3.89329276 L14.0795509,3.95473834 C13.9193448,4.06106754 13.7084627,4.0674366 13.54,3.96325503 C11.9519034,3.0366631 10.0647494,2.7659343 8.28,3.20866191 C7.63235482,3.35944938 7.01291071,3.61249173 6.445,3.95825773 C4.31012298,5.22320739 3.00077813,7.51949888 3,10 C3,10.2759936 2.77614237,10.4997305 2.5,10.4997305 C2.22385763,10.4997305 2,10.2759936 2,10 C2.00557473,6.99542495 3.68471142,4.24397263 6.355,2.86384784 C6.67615695,2.69380031 7.01058717,2.55007281 7.355,2.43407957 Z M17.05,2.40909304 L17.05,6.44691584 L13.015,6.44691584 L14.665,4.79780504 L14.665,4.79280774 L15.37,4.08818767 L15.375,4.08818767 L17.05,2.40909304 Z"/>
</svg>
