<svg xmlns="http://www.w3.org/2000/svg" width="20" height="20" viewBox="0 0 20 20">
  <path fill="#707578" fill-rule="evenodd" d="M5.5,13.4688271 C5.63290149,13.4680614 5.76064058,13.5200558 5.855,13.6133249 C5.94859326,13.7073575 6.00076838,13.8346541 6,13.9670953 L6,16.3438345 L9.165,13.5884115 C9.25817311,13.5089606 9.37739618,13.4664018 9.5,13.4688271 L17.5,13.4688271 C17.7761424,13.4688271 18,13.6919094 18,13.9670953 C18,14.2422812 17.7761424,14.4653635 17.5,14.4653635 L9.69,14.4653635 L6.455,17.2855613 C6.29665742,17.4223304 6.09453782,17.4983044 5.885,17.4998167 C5.75227525,17.5025216 5.62065634,17.4752669 5.5,17.4200937 C5.19066825,17.2752854 4.99506737,16.963408 5,16.6228647 L5,14.4653635 L2.5,14.4653635 C2.22385763,14.4653635 2,14.2422812 2,13.9670953 C2,13.6919094 2.22385763,13.4688271 2.5,13.4688271 L5.5,13.4688271 Z M17.5,10.4792181 C17.7761424,10.4792181 18,10.7023003 18,10.9774863 C18,11.2526722 17.7761424,11.4757544 17.5,11.4757544 L17.5,11.4757544 L2.5,11.4757544 C2.22385763,11.4757544 2,11.2526722 2,10.9774863 C2,10.7023003 2.22385763,10.4792181 2.5,10.4792181 L2.5,10.4792181 Z M17.5,7.48960904 C17.7761424,7.48960904 18,7.7126913 18,7.98787722 C18,8.26306313 17.7761424,8.48614539 17.5,8.48614539 L17.5,8.48614539 L2.5,8.48614539 C2.22385763,8.48614539 2,8.26306313 2,7.98787722 C2,7.7126913 2.22385763,7.48960904 2.5,7.48960904 L2.5,7.48960904 Z M17.5,4.5 C17.7761424,4.5 18,4.72308226 18,4.99826817 C18,5.27345409 17.7761424,5.49653635 17.5,5.49653635 L2.5,5.49653635 C2.22385763,5.49653635 2,5.27345409 2,4.99826817 C2,4.72308226 2.22385763,4.5 2.5,4.5 L17.5,4.5 Z"/>
</svg>
