<svg xmlns="http://www.w3.org/2000/svg" width="20" height="20" viewBox="0 0 20 20">
  <path fill="#606B85" fill-rule="evenodd" d="M10.0016844,7.99831545 C10.277732,7.99831545 10.5015127,8.22209618 10.5015127,8.4981437 L10.5015127,8.4981437 L10.5015127,15.0864848 C11.1983189,15.330234 11.6176886,16.0410537 11.4940684,16.7688384 C11.3704481,17.4966231 10.7398934,18.0291045 10.0016844,18.0291045 C9.26347546,18.0291045 8.63292075,17.4966231 8.50930052,16.7688384 C8.38568028,16.0410537 8.80505002,15.330234 9.5018562,15.0864848 L9.5018562,15.0864848 L9.5018562,8.4981437 C9.5018562,8.22209618 9.72563693,7.99831545 10.0016844,7.99831545 Z M8.00237145,7.99831545 C8.27841897,7.99831545 8.5021997,8.22209618 8.5021997,8.4981437 L8.5021997,8.4981437 L8.5021997,11.6864981 C8.50118037,12.0176995 8.36963839,12.3351476 8.1361005,12.5699995 L8.1361005,12.5699995 L4.85272873,15.8533713 C5.16746124,16.5124244 4.9616071,17.3023704 4.36525608,17.7240018 C3.76890505,18.1456333 2.95552696,18.0763038 2.43913705,17.5598262 C1.92274714,17.0433486 1.8535557,16.2299588 2.27528835,15.6336793 C2.69702099,15.0373999 3.48700185,14.8316798 4.14600158,15.1465242 L4.14600158,15.1465242 L7.42932836,11.8631974 C7.47611909,11.8162833 7.50244084,11.7527574 7.5025432,11.6864981 L7.5025432,11.6864981 L7.5025432,8.4981437 C7.5025432,8.22209618 7.72632393,7.99831545 8.00237145,7.99831545 Z M12.0009974,7.99831545 C12.277045,7.99831545 12.5008257,8.22209618 12.5008257,8.4981437 L12.5008257,8.4981437 L12.5008257,11.6864981 C12.5009214,11.7527539 12.527234,11.8162792 12.5740155,11.8631974 L12.5740155,11.8631974 L15.8573423,15.1465242 C16.4285951,14.8721547 17.1107654,14.9877351 17.5597573,15.4349651 C18.0988666,15.972258 18.1489718,16.8285829 17.6761896,17.4250994 C17.2034075,18.0216158 16.3582694,18.1683962 15.7120391,17.7662255 C15.0658089,17.3640548 14.8242427,16.5409821 15.1506252,15.8533563 L15.1506252,15.8533563 L11.8672534,12.5699845 C11.6337246,12.3351339 11.5021885,12.0176921 11.5011692,11.6864981 L11.5011692,11.6864981 L11.5011692,8.4981437 C11.5011692,8.22209618 11.7249499,7.99831545 12.0009974,7.99831545 Z M7.92374437,3.11094025 C8.58614197,2.1196015 9.85657164,1.73422718 10.9580893,2.19049685 C12.0596069,2.64676651 12.6854244,3.81760268 12.4528168,4.98696866 C12.2202092,6.15633463 11.1939609,6.99854109 10.0016844,6.99854109 C9.3387009,6.99939889 8.70271934,6.73596317 8.23453168,6.26655052 C7.39146824,5.42348046 7.26134678,4.10227899 7.92374437,3.11094025 Z M11.0619639,3.43910019 C10.4763831,2.85351572 9.52696688,2.85350986 8.94137879,3.43908709 C8.65776722,3.71901716 8.49812274,4.10090014 8.49812274,4.49939275 C8.49812274,4.89788537 8.65776722,5.27976835 8.94137879,5.55969841 C9.52696688,6.14527564 10.4763831,6.14526978 11.0619639,5.55968531 C11.6475448,4.97410084 11.6475448,4.02468466 11.0619639,3.43910019 Z"/>
</svg>
