<svg xmlns="http://www.w3.org/2000/svg" width="20" height="20" viewBox="0 0 20 20">
  <path fill="#707578" fill-rule="evenodd" d="M4.34182302,4.34237777 C7.46630103,1.21920741 12.5299096,1.21920741 15.6543877,4.34237777 C15.8243146,4.5408499 15.8128897,4.83670397 15.6281633,5.02147413 C15.4434369,5.20624429 15.1476529,5.21767185 14.9492278,5.04770468 C12.2147984,2.31262757 7.78141235,2.3126276 5.04698295,5.04770475 C2.31255356,7.78278191 2.31255352,12.2172181 5.04698288,14.9522953 C7.04943163,16.9554228 10.0611177,17.5546897 12.6775652,16.4706326 C15.2940126,15.3865754 16.999897,12.8327056 16.9996926,10 C16.9996926,9.72372958 17.223601,9.49976815 17.499806,9.49976815 C17.776011,9.49976815 17.9999599,9.72372958 17.9999599,10 C18.0067033,12.1238807 17.1618234,14.1618028 15.6543877,15.6576222 C12.5299096,18.7807926 7.46630103,18.7807926 4.34182302,15.6576222 C1.21939233,12.5324041 1.21939233,7.46759594 4.34182302,4.34237777 Z M14.6182014,8.08378477 C15.5316636,10.2884632 14.7608964,12.8315413 12.7772793,14.1577442 C10.7936622,15.4839472 8.14967414,15.2238996 6.46230374,13.5366392 C6.29237682,13.3381671 6.30380168,13.042313 6.48852808,12.8575428 C6.67325448,12.6727727 6.96903849,12.6613451 7.16746361,12.8313123 C7.91790677,13.5827687 8.93622761,14.0050029 9.99810534,14.0050029 C11.0599831,14.0050029 12.0783039,13.5827687 12.8287471,12.8313123 C14.1080158,11.5503151 14.3680277,9.56976842 13.4627735,8.00184485 C12.5575194,6.43392129 10.7125496,5.66927977 8.96390363,6.13730343 C7.21525769,6.6053271 5.99862284,8.18940463 5.9971983,10 C5.9971983,10.2762704 5.77328991,10.5002319 5.49708492,10.5002319 C5.22087993,10.5002319 4.99697143,10.2762704 4.99697143,10 C4.99646198,7.61349307 6.68145716,5.55897226 9.02146156,5.09292456 C11.361466,4.62687686 13.7047392,5.87910634 14.6182014,8.08378477 Z M9.99810534,8.49930445 C10.8267203,8.49930445 11.4984455,9.17118873 11.4984455,10 C11.4984455,10.8288113 10.8267203,11.5006956 9.99810534,11.5006956 C9.16949036,11.5006956 8.4977652,10.8288113 8.4977652,10 C8.4977652,9.17118873 9.16949036,8.49930445 9.99810534,8.49930445 Z"/>
</svg>
