<svg xmlns="http://www.w3.org/2000/svg" width="20" height="20" viewBox="0 0 20 20">
  <path fill="#707578" fill-rule="evenodd" d="M14.5494113,18 C14.3110268,17.9991921 14.0771814,17.9346981 13.8720379,17.8131821 C12.4710294,16.9783648 11.1307229,16.0455102 9.86113354,15.0215889 C8.83173921,14.1729019 8.02102451,13.4469809 7.30098185,12.7263976 C6.58093918,12.0058143 5.79689273,11.1251013 4.90083964,10.0575705 C3.89860276,8.81013107 2.98773337,7.49185726 2.17534481,6.11304395 C1.87935855,5.59272631 1.96427446,4.93903654 2.38335714,4.51174767 L4.51681688,2.37668596 C5.044076,1.87443801 5.87233598,1.87443801 6.39959511,2.37668596 L8.99708234,4.97612359 C9.5158476,5.49690484 9.5158476,6.3395343 8.99708234,6.86031554 L8.28237333,7.57022356 L8.28237333,7.57022356 C8.9075385,8.34682109 9.57527049,9.08811466 10.2824918,9.79068774 C10.9584897,10.4692493 11.6706842,11.1107057 12.4159516,11.7122433 L13.1306606,11.0023353 C13.6510511,10.4831805 14.4930483,10.4831805 15.0134388,11.0023353 L17.6109261,13.6017729 C18.1296913,14.1225541 18.1296913,14.9651836 17.6109261,15.4859648 L15.4774663,17.6210265 C15.2288246,17.8628531 14.8961293,17.99871 14.5494113,18 Z M5.48220742,3.03321744 C5.41186478,3.03422013 5.3447674,3.06299774 5.29552969,3.11328225 L3.16206995,5.24834396 C3.07667051,5.33510568 3.05924492,5.4680756 3.11940075,5.57394087 C3.89824545,6.90020827 4.77167474,8.16852363 5.73288894,9.36901305 C6.60227378,10.4365439 7.36498564,11.2638803 8.06369371,11.963113 C8.85151423,12.7456584 9.67934067,13.4868076 10.5438407,14.1835772 C11.7702011,15.1754444 13.0660443,16.0780427 14.4214037,16.8844303 C14.5275384,16.9428132 14.6592542,16.925526 14.7467564,16.841729 L14.7467564,16.841729 L16.8802161,14.7066673 C16.9307025,14.6565557 16.9591003,14.5883415 16.9591003,14.5171806 C16.9591003,14.4460196 16.9307025,14.3778055 16.8802161,14.3276939 L14.2880625,11.7282562 C14.1825556,11.6258889 14.0148803,11.6258889 13.9093734,11.7282562 L12.8426435,12.7957871 C12.6500734,12.9869325 12.3448243,13.0030103 12.1332682,12.8331507 L11.7599127,12.534242 C10.9850575,11.9091373 10.2443866,11.2427457 9.54111458,10.5379593 C8.81421321,9.79889276 8.12868284,9.020187 7.48765958,8.20540442 L7.18897521,7.83176862 C7.02065773,7.61872937 7.03902328,7.31317296 7.23164441,7.1218606 L8.29837428,6.05432975 C8.34886064,6.00421809 8.37725851,5.93600397 8.37725851,5.86484302 C8.37725851,5.79368207 8.34886064,5.72546796 8.29837428,5.6753563 L5.6635515,3.11328225 C5.61531657,3.06471976 5.55056606,3.03613191 5.48220742,3.03321744 Z"/>
</svg>
