<svg xmlns="http://www.w3.org/2000/svg" width="20" height="20" viewBox="0 0 20 20">
  <path fill="#707578" fill-rule="evenodd" d="M4,6 L17.5,6 C17.7761424,6 18,5.77614237 18,5.5 L18,2.5 C18,2.22385763 17.7761424,2 17.5,2 L11.5,2 C11.2238576,2 11,2.22385763 11,2.5 L11,5 L4,5 C2.8954305,5 2,5.8954305 2,7 C2,8.1045695 2.8954305,9 4,9 L6,9 L6,11.5 C6,11.7761424 6.22385763,12 6.5,12 L16,12 C16.5522847,12 17,12.4477153 17,13 C17,13.5522847 16.5522847,14 16,14 L2.5,14 C2.22385763,14 2,14.2238576 2,14.5 L2,17.5 C2,17.7761424 2.22385763,18 2.5,18 L8.5,18 C8.77614237,18 9,17.7761424 9,17.5 L9,15 L16,15 C17.1045695,15 18,14.1045695 18,13 C18,11.8954305 17.1045695,11 16,11 L14,11 L14,8.5 C14,8.22385763 13.7761424,8 13.5,8 L4,8 C3.44771525,8 3,7.55228475 3,7 C3,6.44771525 3.44771525,6 4,6 Z M12,3 L17,3 L17,5 L12,5 L12,3 Z M8,17 L3,17 L3,15 L8,15 L8,17 Z M13,11 L7,11 L7,9 L13,9 L13,11 Z"/>
</svg>
