<svg xmlns="http://www.w3.org/2000/svg" width="20" height="20" viewBox="0 0 20 20">
  <path fill="#707578" fill-rule="evenodd" d="M9.99041707,3.65625 C12.9196924,3.68987152 15.2890536,6.04151127 15.3333333,8.9592045 C15.3522879,10.8640595 14.3309952,12.6288316 12.6666667,13.567148 L12.6666667,13.567148 L12.6666667,14.8125 C12.6657026,15.6923057 11.9499226,16.4052897 11.0666667,16.40625 L11.0666667,16.40625 L10.5333333,16.40625 L10.5333333,17.46875 C10.5333333,17.7621513 10.2945519,18 10,18 C9.70544813,18 9.46666667,17.7621513 9.46666667,17.46875 L9.46666667,17.46875 L9.46666667,16.40625 L8.93333333,16.40625 C8.05007739,16.4052897 7.33429745,15.6923057 7.33333333,14.8125 L7.33333333,14.8125 L7.33333333,13.56725 C5.67069081,12.6300479 4.64963859,10.8678768 4.66666667,8.96501425 C4.70550848,6.05149679 7.06551833,3.69813027 9.99041707,3.65625 Z M11.6,13.75 L8.4,13.75 L8.4,14.8125 C8.40027286,15.1057886 8.63889456,15.3434782 8.93333333,15.34375 L8.93333333,15.34375 L11.0666667,15.34375 C11.3611054,15.3434782 11.5997271,15.1057886 11.6,14.8125 L11.6,14.8125 L11.6,13.75 Z M9.99041707,4.71875 C7.64835188,4.7602388 5.76309485,6.64768895 5.73333333,8.980786 C5.71939472,10.5278122 6.56732199,11.9551086 7.93541547,12.6875 L7.93541547,12.6875 L9.46666667,12.6875 L9.46666667,10.7824715 L8.02291627,9.34436075 C7.88777602,9.2102521 7.83484301,9.01445411 7.88410018,8.83088324 C7.93335735,8.64731237 8.07730183,8.50393017 8.26159258,8.45486541 C8.44588334,8.40580066 8.64244917,8.4585269 8.77708373,8.59313925 L8.77708373,8.59313925 L10,9.8112785 L11.2229163,8.59313925 C11.4312877,8.38635838 11.7683956,8.38667309 11.9763776,8.59384265 C12.1843596,8.8010122 12.1846755,9.13680323 11.9770837,9.34436075 L11.9770837,9.34436075 L10.5333333,10.7824715 L10.5333333,12.6875 L12.0645845,12.6875 C13.4341485,11.9541391 14.2822895,10.5245646 14.2666667,8.975805 C14.2320702,6.63815471 12.3372544,4.75184408 9.99041707,4.71875 Z M3.6,8.4375 C3.89455187,8.4375 4.13333333,8.67534873 4.13333333,8.96875 C4.13333333,9.26215127 3.89455187,9.5 3.6,9.5 L3.6,9.5 L2.53333333,9.5 C2.23878147,9.5 2,9.26215127 2,8.96875 C2,8.67534873 2.23878147,8.4375 2.53333333,8.4375 L2.53333333,8.4375 Z M17.4666667,8.4375 C17.7612185,8.4375 18,8.67534873 18,8.96875 C18,9.26215127 17.7612185,9.5 17.4666667,9.5 L17.4666667,9.5 L16.4,9.5 C16.1054481,9.5 15.8666667,9.26215127 15.8666667,8.96875 C15.8666667,8.67534873 16.1054481,8.4375 16.4,8.4375 L16.4,8.4375 Z M3.74982942,3.28914517 C3.95353925,3.07799468 4.29036538,3.07084861 4.50291627,3.27316775 L4.50291627,3.27316775 L5.2852096,4.02189875 C5.49758171,4.22522934 5.5042958,4.56154029 5.30020693,4.77312025 C5.09606529,4.98462627 4.75846799,4.99131543 4.54604373,4.78806325 L4.54604373,4.78806325 L3.7637504,4.03933225 C3.55234591,3.83582484 3.5461196,3.50029566 3.74982942,3.28914517 Z M15.8772786,3.12484727 C16.0187536,3.12765044 16.1533001,3.18638876 16.2512512,3.28811075 C16.4553365,3.49969279 16.4486206,3.83600183 16.2362496,4.03933225 L16.2362496,4.03933225 L15.4539563,4.78806325 C15.2414054,4.99038239 14.9045792,4.98323632 14.7008694,4.77208583 C14.4971596,4.56093534 14.5033859,4.22540616 14.7147904,4.02189875 L14.7147904,4.02189875 L15.4970837,3.27316775 C15.5990185,3.17540628 15.7358035,3.1220441 15.8772786,3.12484727 Z M10,1 C10.2945519,1 10.5333333,1.23784873 10.5333333,1.53125 L10.5333333,1.53125 L10.5333333,2.59375 C10.5333333,2.73464937 10.4771565,2.86978078 10.3771349,2.96941168 C10.2771133,3.06904258 10.1414519,3.125 10,3.125 C9.85854808,3.125 9.72288674,3.06904258 9.62286513,2.96941168 C9.52284352,2.86978078 9.46666667,2.73464937 9.46666667,2.59375 L9.46666667,2.59375 L9.46666667,1.53125 C9.46666667,1.23784873 9.70544813,1 10,1 Z"/>
</svg>
