<svg xmlns="http://www.w3.org/2000/svg" width="20" height="20" viewBox="0 0 20 20">
  <path fill="#707578" fill-rule="evenodd" d="M8.06333333,11.4289122 C8.34347777,11.4289122 8.57057971,11.656015 8.57057971,11.9361594 L8.57057971,11.9361594 L8.57057971,14.3587681 C8.57057971,14.5638965 8.44694982,14.7488071 8.25743347,14.8273004 C8.06791712,14.9057937 7.84977969,14.8624171 7.70471014,14.7173913 L7.70471014,14.7173913 L7.03463768,14.0432609 C6.98497324,13.9938661 6.9047369,13.9938661 6.85507246,14.0432609 L6.85507246,14.0432609 L5.12231884,15.7739855 C4.8745744,16.0213995 4.47325169,16.0213995 4.22550725,15.7739855 C3.97809328,15.5262411 3.97809328,15.1249184 4.22550725,14.8771739 L4.22550725,14.8771739 L5.95623188,13.1464493 C6.00556805,13.0969585 6.00556805,13.016882 5.95623188,12.9673913 L5.95623188,12.9673913 L5.2826087,12.2947826 C5.13745182,12.1495825 5.09413937,11.9311987 5.17289305,11.7415901 C5.25164672,11.5519815 5.43693335,11.4285459 5.64224638,11.4289122 L5.64224638,11.4289122 Z M14.3587681,11.428913 C14.5638965,11.428913 14.7488071,11.5525429 14.8273004,11.7420593 C14.9057937,11.9315756 14.8624171,12.1497131 14.7173913,12.2947826 L14.7173913,12.2947826 L14.0437681,12.9658696 C13.994432,13.0153603 13.994432,13.0954368 14.0437681,13.1449275 L14.0437681,13.1449275 L15.7744928,14.8771739 C16.0221404,15.1248216 16.0221404,15.5263378 15.7744928,15.7739855 C15.5268451,16.0216332 15.1253288,16.0216332 14.8776812,15.7739855 L14.8776812,15.7739855 L13.1474638,14.0432609 C13.0977993,13.9938661 13.017563,13.9938661 12.9678986,14.0432609 L12.9678986,14.0432609 L12.2952899,14.7158696 C12.1502203,14.8608953 11.9320829,14.904272 11.7425665,14.8257787 C11.5530502,14.7472854 11.4294203,14.5623747 11.4294203,14.3572464 L11.4294203,14.3572464 L11.4294203,11.9361594 C11.4294203,11.656015 11.6565222,11.428913 11.9366667,11.428913 L11.9366667,11.428913 Z M14.8776812,4.225 C15.1254256,3.97758603 15.5267483,3.97758603 15.7744928,4.225 C16.0219067,4.47274444 16.0219067,4.87406715 15.7744928,5.12181159 L15.7744928,5.12181159 L14.0437681,6.85253623 C13.994432,6.90202696 13.994432,6.98210347 14.0437681,7.0315942 L14.0437681,7.0315942 L14.7173913,7.7042029 C14.8625482,7.84940296 14.9058606,8.06778678 14.827107,8.25739542 C14.7483533,8.44700405 14.5630667,8.57043957 14.3577536,8.57007328 L14.3577536,8.57007328 L11.9366667,8.57007328 C11.6565222,8.57007328 11.4294203,8.34297053 11.4294203,8.06282609 L11.4294203,8.06282609 L11.4294203,5.64123188 C11.4294203,5.43610353 11.5530502,5.25119287 11.7425665,5.17269958 C11.9320829,5.09420628 12.1502203,5.13758294 12.2952899,5.2826087 L12.2952899,5.2826087 L12.9653623,5.95572464 C13.0150268,6.00511942 13.0952631,6.00511942 13.1449275,5.95572464 L13.1449275,5.95572464 Z M4.22550725,4.225 C4.47315493,3.97735232 4.87467116,3.97735232 5.12231884,4.225 L5.12231884,4.225 L6.85253623,5.95572464 C6.90220067,6.00511942 6.98243701,6.00511942 7.03210145,5.95572464 L7.03210145,5.95572464 L7.70471014,5.2826087 C7.84911141,5.13656462 8.06789019,5.09317048 8.25710145,5.17304348 C8.44680296,5.25145608 8.57057971,5.43647052 8.57057971,5.64173913 L8.57057971,5.64173913 L8.57057971,8.06282609 C8.57057971,8.34297053 8.34347777,8.57007246 8.06333333,8.57007246 L8.06333333,8.57007246 L5.64123188,8.57007246 C5.43610353,8.57007246 5.25119287,8.44644257 5.17269958,8.25692623 C5.09420628,8.06740988 5.13758294,7.84927245 5.2826087,7.7042029 L5.2826087,7.7042029 L5.95623188,7.03413043 C6.00556805,6.98463971 6.00556805,6.90456319 5.95623188,6.85507246 L5.95623188,6.85507246 L4.22550725,5.12181159 C3.97785956,4.87416391 3.97785956,4.47264768 4.22550725,4.225 Z"/>
</svg>
