<svg xmlns="http://www.w3.org/2000/svg" width="20" height="20" viewBox="0 0 20 20">
  <path fill="#707578" fill-rule="evenodd" d="M6.85355339,10.1464466 C7.02711974,10.320013 7.04640489,10.5894374 6.91140884,10.7843055 L6.85355339,10.8535534 C6.67998704,11.0271197 6.41056264,11.0464049 6.2156945,10.9114088 L6.14644661,10.8535534 L3.14644661,7.85355339 L3.13458875,7.84128643 C3.1229392,7.82881868 3.11192025,7.81575424 3.10158273,7.80214392 L3.14644661,7.85355339 C3.11961234,7.82671912 3.09646582,7.79759357 3.07700705,7.76680652 C3.07001934,7.75568247 3.06329334,7.74404667 3.05703434,7.73212724 C3.04974961,7.71827569 3.04335147,7.70453886 3.03761056,7.6905951 C3.03214859,7.67739704 3.02709111,7.66345343 3.02265119,7.64923715 C3.01809306,7.63448338 3.01425054,7.61979314 3.01108568,7.60498705 C3.00889169,7.59495426 3.00700676,7.5845638 3.00544807,7.57406693 C3.0023875,7.55323734 3.000611,7.53240118 3.00013238,7.51154077 C3.00004222,7.50757457 3,7.50379222 3,7.5 L3.00011036,7.48946265 C3.00055436,7.46826702 3.0023382,7.44709424 3.00546187,7.42608223 L3,7.5 C3,7.46390296 3.00382515,7.42869933 3.01109223,7.39477235 C3.01439613,7.37952575 3.01844802,7.36416529 3.02324135,7.34898836 C3.0275581,7.33526315 3.03240845,7.32197493 3.03779224,7.30896344 C3.04335147,7.29546114 3.04974961,7.28172431 3.05680497,7.26824181 C3.06329334,7.25595333 3.07001934,7.24431753 3.07718801,7.23298968 C3.08073319,7.22729809 3.08459457,7.22146362 3.08859116,7.2156945 L3.10158273,7.19785608 C3.11192025,7.18424576 3.1229392,7.17118132 3.13458875,7.15871357 L3.14644661,7.14644661 L6.14644661,4.14644661 C6.34170876,3.95118446 6.65829124,3.95118446 6.85355339,4.14644661 C7.02711974,4.32001296 7.04640489,4.58943736 6.91140884,4.7843055 L6.85355339,4.85355339 L4.706,7 L12.5,7 C14.9852814,7 17,9.01471863 17,11.5 C17,13.9142733 15.0987635,15.8844891 12.7118357,15.995102 L12.5,16 L7.5,16 C7.22385763,16 7,15.7761424 7,15.5 C7,15.2545401 7.17687516,15.0503916 7.41012437,15.0080557 L7.5,15 L12.5,15 C14.4329966,15 16,13.4329966 16,11.5 C16,9.6314366 14.5357224,8.10487355 12.6920352,8.00517886 L12.5,8 L4.706,8 L6.85355339,10.1464466 Z"/>
</svg>
