<svg xmlns="http://www.w3.org/2000/svg" width="20" height="20" viewBox="0 0 20 20">
  <path fill="#606B85" fill-rule="evenodd" d="M16.5,3 C17.3280232,3.00097424 17.9990258,3.67197676 18,4.5 L18,4.5 L18,14.5 C17.9990258,15.3280232 17.3280232,15.9990258 16.5,16 L16.5,16 L9.6668,16 L5.8,18.9 C5.64849118,19.0136316 5.44578522,19.0319096 5.2763932,18.9472136 C5.10700119,18.8625176 5,18.689386 5,18.5 L5,18.5 L5,16 L3.5,16 C2.67197676,15.9990258 2.00097424,15.3280232 2,14.5 L2,14.5 L2,4.5 C2.00097424,3.67197676 2.67197676,3.00097424 3.5,3 L3.5,3 Z M16.5,4 L3.5,4 C3.22396365,4.00025581 3.00025581,4.22396365 3,4.5 L3,4.5 L3,14.5 C3.00025581,14.7760363 3.22396365,14.9997442 3.5,15 L3.5,15 L5.5,15 C5.63261117,15 5.75979368,15.0526658 5.85356394,15.1464361 C5.9473342,15.2402063 6,15.3673888 6,15.5 L6,15.5 L6,17.5 L9.2,15.1 C9.28657435,15.0351391 9.39182397,15.0000559 9.5,15 L9.5,15 L16.5,15 C16.7760363,14.9997442 16.9997442,14.7760363 17,14.5 L17,14.5 L17,4.5 C16.9997442,4.22396365 16.7760363,4.00025581 16.5,4 L16.5,4 Z M11.5,11 C11.7761424,11 12,11.2238576 12,11.5 C12,11.7761424 11.7761424,12 11.5,12 L5.5,12 C5.22385763,12 5,11.7761424 5,11.5 C5,11.2238576 5.22385763,11 5.5,11 L11.5,11 Z M14.5,8 C14.7761424,8 15,8.22385763 15,8.5 C15,8.77614237 14.7761424,9 14.5,9 L5.5,9 C5.22385763,9 5,8.77614237 5,8.5 C5,8.22385763 5.22385763,8 5.5,8 L14.5,8 Z"/>
</svg>
