<svg xmlns="http://www.w3.org/2000/svg" width="20" height="20" fill="none" viewBox="0 0 20 20">
  <path fill="#606B85" d="M12.14 7.148a.504.504 0 11.712.713L10.713 10l2.14 2.14a.504.504 0 11-.714.712L10 10.713l-2.14 2.14a.504.504 0 01-.712-.714L9.287 10l-2.14-2.14a.504.504 0 11.714-.712L10 9.287l2.14-2.14z"/>
  <path fill="#606B85" fill-rule="evenodd" d="M1 5a2 2 0 012-2h14a2 2 0 012 2v10a2 2 0 01-2 2H3a2 2 0 01-2-2V5zm2-1h14a1 1 0 011 1v10a1 1 0 01-1 1H3a1 1 0 01-1-1V5a1 1 0 011-1z" clip-rule="evenodd"/>
</svg>
