<svg width="20" height="20" viewBox="0 0 20 20" fill="none" xmlns="http://www.w3.org/2000/svg">
<path fill-rule="evenodd" clip-rule="evenodd" d="M6.5 7.44912C6.69393 7.23447 6.90567 6.99886 7.12779 6.74273C7.92682 5.82135 8.73559 4.77105 9.02591 3.90469C9.34025 2.96666 10.1648 2.41824 10.9924 2.50972C11.408 2.55565 11.7982 2.76452 12.0775 3.13116C12.3539 3.49417 12.5 3.98144 12.5 4.56092C12.5 4.88809 12.4187 5.20623 12.3261 5.48512C12.2644 5.67107 12.1872 5.86799 12.1178 6.04513C12.0864 6.12531 12.0565 6.20159 12.0304 6.27081C11.9379 6.51611 11.8804 6.70314 11.8643 6.85256C11.8499 6.98667 11.8736 7.04281 11.897 7.07523C11.8972 7.07533 11.8975 7.07559 11.898 7.07601C11.9033 7.08049 11.9298 7.10285 11.9988 7.13365C12.0861 7.17264 12.2092 7.21085 12.3691 7.24464C12.6887 7.31221 13.0943 7.34985 13.521 7.36782C14.1531 7.39443 14.7585 7.37711 15.1546 7.36577C15.3017 7.36156 15.42 7.35817 15.5 7.35817C15.7502 7.35817 16.2313 7.36588 16.6581 7.57574C16.8823 7.68598 17.101 7.85606 17.2606 8.11286C17.42 8.36941 17.5 8.67952 17.5 9.03709C17.5 10.2551 16.9762 12.6845 15.9467 14.7325C15.6371 15.3484 15.2543 15.617 14.7674 15.9251C14.1929 16.2888 13.6217 16.5 13 16.5H10C8.88362 16.5 7.79622 16.0824 6.99807 15.6168C6.81995 15.5129 6.65285 15.4047 6.5 15.2953V15.6667C6.5 15.9428 6.27614 16.1667 6 16.1667H3C2.72386 16.1667 2.5 15.9428 2.5 15.6667V7C2.5 6.72386 2.72386 6.5 3 6.5H6C6.27614 6.5 6.5 6.72386 6.5 7V7.44912ZM9.97409 4.22243C10.1597 3.6684 10.5852 3.4708 10.8826 3.50367C11.0295 3.5199 11.1705 3.5908 11.2819 3.73705C11.3961 3.88695 11.5 4.1457 11.5 4.56092C11.5 4.73111 11.4563 4.93105 11.377 5.17024C11.3234 5.33165 11.2639 5.48325 11.2002 5.64535C11.1661 5.73219 11.1308 5.82206 11.0946 5.91805C10.9996 6.17011 10.9008 6.4597 10.8701 6.74546C10.8381 7.04232 10.8749 7.38068 11.1008 7.68027C11.235 7.8583 11.4223 7.97142 11.5911 8.04677C11.7655 8.12462 11.9627 8.18082 12.1622 8.22301C12.5613 8.3074 13.0307 8.34805 13.479 8.36693C14.155 8.3954 14.8605 8.37515 15.2459 8.36409C15.364 8.3607 15.452 8.35817 15.5 8.35817C15.7498 8.35817 16.0187 8.37566 16.2169 8.47312C16.3052 8.51654 16.3677 8.57066 16.4113 8.6407C16.455 8.711 16.5 8.83038 16.5 9.03708C16.5 10.0762 16.0238 12.3526 15.0533 14.2834C14.8689 14.6502 14.6776 14.7985 14.2326 15.0802C13.7652 15.376 13.3783 15.5 13 15.5H10C9.11638 15.5 8.20378 15.1624 7.50193 14.753C7.15353 14.5498 6.87414 14.3387 6.68912 14.1619C6.59585 14.0728 6.53675 14.0022 6.50476 13.9546L6.5 13.9474V8.96829C6.50586 8.96036 6.51252 8.95151 6.52007 8.94169C6.58734 8.85418 6.69063 8.73367 6.82882 8.57828C6.91903 8.47685 7.02335 8.36145 7.13732 8.23539C7.36023 7.98882 7.62004 7.70144 7.88327 7.39789C8.67126 6.48925 9.6125 5.30146 9.97409 4.22243ZM5.5 7.5H3.5V15.1667H5.5V7.5Z" fill="#606B85"/>
</svg>
