<svg width="20" height="20" viewBox="0 0 20 20" fill="none" xmlns="http://www.w3.org/2000/svg">
<path d="M3 5.25C3 5.58152 3.1317 5.89946 3.36612 6.13388C3.60054 6.3683 3.91848 6.5 4.25 6.5C4.58152 6.5 4.89946 6.3683 5.13388 6.13388C5.3683 5.89946 5.5 5.58152 5.5 5.25C5.5 4.91848 5.3683 4.60054 5.13388 4.36612C4.89946 4.1317 4.58152 4 4.25 4C3.91848 4 3.60054 4.1317 3.36612 4.36612C3.1317 4.60054 3 4.91848 3 5.25Z" fill="#606B85"/>
<path d="M3 10C3 10.3315 3.1317 10.6495 3.36612 10.8839C3.60054 11.1183 3.91848 11.25 4.25 11.25C4.58152 11.25 4.89946 11.1183 5.13388 10.8839C5.3683 10.6495 5.5 10.3315 5.5 10C5.5 9.66848 5.3683 9.35054 5.13388 9.11612C4.89946 8.8817 4.58152 8.75 4.25 8.75C3.91848 8.75 3.60054 8.8817 3.36612 9.11612C3.1317 9.35054 3 9.66848 3 10Z" fill="#606B85"/>
<path d="M3 14.75C3 15.0815 3.1317 15.3995 3.36612 15.6339C3.60054 15.8683 3.91848 16 4.25 16C4.58152 16 4.89946 15.8683 5.13388 15.6339C5.3683 15.3995 5.5 15.0815 5.5 14.75C5.5 14.4185 5.3683 14.1005 5.13388 13.8661C4.89946 13.6317 4.58152 13.5 4.25 13.5C3.91848 13.5 3.60054 13.6317 3.36612 13.8661C3.1317 14.1005 3 14.4185 3 14.75Z" fill="#606B85"/>
<path fill-rule="evenodd" clip-rule="evenodd" d="M7.3739 5.25C7.3739 4.90482 7.65372 4.625 7.9989 4.625H16.375C16.7202 4.625 17 4.90482 17 5.25C17 5.59518 16.7202 5.875 16.375 5.875H7.9989C7.65372 5.875 7.3739 5.59518 7.3739 5.25Z" fill="#606B85"/>
<path fill-rule="evenodd" clip-rule="evenodd" d="M7.3739 10C7.3739 9.65482 7.65372 9.375 7.9989 9.375H16.375C16.7202 9.375 17 9.65482 17 10C17 10.3452 16.7202 10.625 16.375 10.625H7.9989C7.65372 10.625 7.3739 10.3452 7.3739 10Z" fill="#606B85"/>
<path fill-rule="evenodd" clip-rule="evenodd" d="M7.3739 14.75C7.3739 14.4048 7.65372 14.125 7.9989 14.125H16.375C16.7202 14.125 17 14.4048 17 14.75C17 15.0952 16.7202 15.375 16.375 15.375H7.9989C7.65372 15.375 7.3739 15.0952 7.3739 14.75Z" fill="#606B85"/>
</svg>
