<svg xmlns="http://www.w3.org/2000/svg" width="20" height="20" viewBox="0 0 20 20">
  <path fill="#707578" fill-rule="evenodd" d="M11.7931625,4.00715462 C12.1549066,3.96749389 12.515102,4.09415594 12.7724033,4.35149453 L12.7724033,4.35149453 L15.6488268,7.22810827 C15.9060842,7.48555109 16.0326046,7.84584674 15.9927902,8.20762225 C15.9529757,8.56939776 15.7511297,8.89355096 15.4441456,9.0888131 L15.4441456,9.0888131 L12.4943769,10.9654279 L12.5134228,11.0863496 C12.6186161,11.9141522 12.4727151,12.7568625 12.0914672,13.5044104 L12.0914672,13.5044104 L11.9816673,13.705845 C11.7934795,14.026611 11.4672099,14.2419877 11.0983124,14.2889641 C10.7294148,14.3359406 10.3595857,14.2092071 10.0975098,13.9463289 L10.0975098,13.9463289 L8.401,12.25 L4.78783051,15.8648207 C4.60760338,16.0450598 4.31539747,16.0450598 4.13517035,15.8648207 C3.97496845,15.7046082 3.95716824,15.4559128 4.08176972,15.2760375 L4.13517035,15.2121174 L7.749,11.597 L6.05500773,9.90355896 C5.82457762,9.67380111 5.69874995,9.36191222 5.702362,9.0403811 L5.71190731,8.90220305 C5.75888068,8.53328113 5.97424314,8.20698995 6.29661139,8.01784157 C7.09080649,7.55617852 8.01134558,7.3722158 8.91431494,7.48699633 L8.91431494,7.48699633 L9.03404669,7.50486894 L10.9117695,4.55550407 C11.0827875,4.28688668 11.3523801,4.09888492 11.6594464,4.02951204 L11.6594464,4.02951204 Z"/>
</svg>
