<svg xmlns="http://www.w3.org/2000/svg" width="20" height="20" viewBox="0 0 20 20">
  <path fill="#707578" fill-rule="evenodd" d="M10.5,8.5 L10.5115408,8.50013238 C10.5324012,8.500611 10.5532373,8.5023875 10.5739178,8.50546187 L10.5,8.5 C10.536097,8.5 10.5713007,8.50382515 10.6052277,8.51109223 C10.6204743,8.51439613 10.6358347,8.51844802 10.6510116,8.52324135 C10.6647369,8.5275581 10.6780251,8.53240845 10.6910366,8.53779224 C10.7045389,8.54335147 10.7182757,8.54974961 10.7317582,8.55680497 C10.7440467,8.56329334 10.7556825,8.57001934 10.7670103,8.57718801 C10.7727019,8.58073319 10.7785364,8.58459457 10.7843055,8.58859116 L10.8021439,8.60158273 C10.8157542,8.61192025 10.8288187,8.6229392 10.8412864,8.63458875 L10.8535534,8.64644661 L12.9964105,10.7893038 C13.1916727,10.9845659 13.1916727,11.3011484 12.9964105,11.4964105 C12.8228442,11.6699769 12.5534198,11.689262 12.3585516,11.554266 L12.2893038,11.4964105 L11,10.207 L11,16 C11,16.2761424 10.7761424,16.5 10.5,16.5 C10.2545401,16.5 10.0503916,16.3231248 10.0080557,16.0898756 L10,16 L10,10.207 L8.71069625,11.4964105 C8.5371299,11.6699769 8.26770549,11.689262 8.07283735,11.554266 L8.00358947,11.4964105 C7.83002311,11.3228442 7.81073796,11.0534198 7.94573402,10.8585516 L8.00358947,10.7893038 L10.1464466,8.64644661 L10.1587136,8.63458875 C10.1711813,8.6229392 10.1842458,8.61192025 10.1978561,8.60158273 L10.1464466,8.64644661 C10.1732809,8.61961234 10.2024064,8.59646582 10.2331935,8.57700705 C10.2443175,8.57001934 10.2559533,8.56329334 10.2678728,8.55703434 C10.2817243,8.54974961 10.2954611,8.54335147 10.3094049,8.53761056 C10.3219749,8.53240845 10.3352631,8.5275581 10.3488008,8.52326842 C10.3641653,8.51844802 10.3795257,8.51439613 10.3950129,8.51108568 C10.4049881,8.50890403 10.4153197,8.50702791 10.4257565,8.50547432 C10.4470942,8.5023382 10.468267,8.50055436 10.4894626,8.50011036 C10.4925095,8.50004128 10.4962499,8.5 10.5,8.5 Z M10.0001352,3.5 C11.8166145,3.5 13.4572716,4.46847072 14.3562152,5.9909225 L14.427,6.117 L14.4999523,6.1206476 C16.3917292,6.24636963 17.8966709,7.76467447 17.9948984,9.66237439 L18,9.86 C18,11.3075614 17.3476332,12.3254823 16.2832241,12.9422221 C15.7284066,13.2636945 15.1796818,13.4223733 14.729236,13.4821114 L14.5651057,13.5 L14.5,13.5 C14.2238576,13.5 14,13.2761424 14,13 C14,12.7545401 14.1768752,12.5503916 14.4101244,12.5080557 L14.5,12.5 L14.5208033,12.5019666 C14.5876426,12.4960209 14.7224375,12.4745856 14.9013007,12.4294329 C15.203002,12.3532704 15.5043344,12.2377896 15.7818816,12.0769732 C16.5517815,11.6308778 17,10.9314999 17,9.86 C17,8.35938492 15.8036998,7.14593838 14.3074618,7.11293102 L14.1400244,7.1141667 L13.8109046,7.12624012 L13.6698645,6.82862759 C13.0013435,5.41796436 11.5839877,4.5 10.0001352,4.5 C7.8946811,4.5 6.18643696,6.00848092 5.96496392,8.0260709 L5.94781287,8.22948992 L5.91592253,8.76924777 L5.38030365,8.69530216 C4.12752817,8.52234848 3,9.40182731 3,10.67 C3,11.5461499 3.36058023,12.0398873 3.99683514,12.3051796 C4.30854211,12.4351486 4.63781227,12.4911466 4.9124616,12.5007641 L6.5,12.5 C6.77614237,12.5 7,12.7238576 7,13 C7,13.2454599 6.82312484,13.4496084 6.58987563,13.4919443 L6.5,13.5 L5.10143859,13.5006991 C4.67152227,13.5141705 4.14013779,13.4483767 3.61198982,13.2281606 C2.61772913,12.8135946 2,11.9677469 2,10.67 C2,9.01357771 3.27995204,7.80147542 4.81919897,7.6831546 L5.004,7.674 L5.03029607,7.52136232 C5.46199756,5.26600128 7.40266305,3.60333767 9.77636482,3.50464122 L10.0001352,3.5 Z"/>
</svg>
