<svg xmlns="http://www.w3.org/2000/svg" width="20" height="20" viewBox="0 0 20 20">
  <path fill="#606B85" d="M10.3016131,10 C13.7800952,10.0039686 16.5989724,12.8228458 16.6029411,16.3014705 C16.6029411,16.6141611 16.3494553,16.867647 16.0367646,16.867647 C15.724074,16.867647 15.4705882,16.6141611 15.4705882,16.3014705 C15.4705882,13.4466457 13.1562954,11.1323529 10.3014705,11.1323529 C7.44664566,11.1323529 5.13235286,13.4466457 5.13235286,16.3014705 C5.13235286,16.6141611 4.87886702,16.867647 4.56617639,16.867647 C4.25348576,16.867647 4,16.6141611 4,16.3013279 C4.00388042,12.9001454 6.69895242,10.1295778 10.0704299,10.0044112 L10.3016131,10 Z M10.1470587,2 C12.0800554,2 13.6470587,3.56700338 13.6470587,5.5 C13.6470587,7.43299662 12.0800554,9 10.1469218,9 C8.21491711,8.99778964 6.6492691,7.43214163 6.64705874,5.5 C6.64705874,3.56700338 8.21406212,2 10.1470587,2 Z M10.1470587,3.08450704 C8.81368067,3.08596255 7.7330213,4.16662193 7.73156578,5.5 C7.73156578,6.83403992 8.81301882,7.91549296 10.1470587,7.91549296 C11.4810987,7.91549296 12.5625517,6.83403992 12.5625517,5.5 C12.5625517,4.16596008 11.4810987,3.08450704 10.1470587,3.08450704 Z"/>
</svg>
