<svg width="20" height="20" viewBox="0 0 20 20" fill="none" xmlns="http://www.w3.org/2000/svg">
<path fill-rule="evenodd" clip-rule="evenodd" d="M17.7981 14.7915L11.316 3.74375C10.7341 2.75208 9.26591 2.75208 8.68405 3.74375L2.20193 14.7915C1.62456 15.7756 2.35414 17 3.51788 17H16.4821C17.6459 17 18.3754 15.7756 17.7981 14.7915ZM9.98975 8H10.0101C10.621 8.0074 11.0826 8.59236 10.9876 9.24396L10.5599 11.4817C10.5192 11.7779 10.2816 12 10.0033 12H9.99653C9.71823 12 9.48066 11.7779 9.43993 11.4817L9.01229 9.24396C8.91726 8.59236 9.38563 8 9.98975 8ZM10 15C10.5523 15 11 14.5523 11 14C11 13.4477 10.5523 13 10 13C9.44772 13 9 13.4477 9 14C9 14.5523 9.44772 15 10 15Z" fill="#606B85"/>
</svg>
