<svg width="341" height="406" viewBox="0 0 341 406" fill="none" xmlns="http://www.w3.org/2000/svg">
<g filter="url(#filter0_f)">
<path d="M278.855 76.8779L285.653 68.7196C286.453 67.7601 287.927 67.7601 288.726 68.7196L295.525 76.8779H322C324.209 76.8779 326 78.6688 326 80.8779V239.878C326 242.087 324.209 243.878 322 243.878H58C55.7909 243.878 54 242.087 54 239.878V80.8779C54 78.6688 55.7909 76.8779 58 76.8779H278.855Z" fill="#121C2D" fill-opacity="0.1"/>
</g>
<path d="M278.855 75.3779H279.089L279.239 75.198L286.037 67.0397C286.637 66.3201 287.742 66.3201 288.342 67.0397L295.141 75.198L295.291 75.3779H295.525H322C323.933 75.3779 325.5 76.9449 325.5 78.8779V237.878C325.5 239.811 323.933 241.378 322 241.378H58C56.067 241.378 54.5 239.811 54.5 237.878V78.8779C54.5 76.9449 56.067 75.3779 58 75.3779H278.855Z" fill="white" stroke="#E1E3EA"/>
<rect x="81" y="183" width="54" height="27" rx="2" fill="#0263E0"/>
<path d="M93.1319 200L93.8521 197.848H97.1333L97.8578 200H99.5453L96.4686 191.273H94.5169L91.4444 200H93.1319ZM94.2782 196.578L95.4586 193.062H95.5268L96.7072 196.578H94.2782ZM103.274 202.591C105.042 202.591 106.346 201.781 106.346 200.107V193.455H104.825V194.537H104.74C104.506 194.064 104.015 193.369 102.861 193.369C101.348 193.369 100.159 194.554 100.159 196.706C100.159 198.841 101.348 199.906 102.856 199.906C103.977 199.906 104.501 199.305 104.74 198.824H104.817V200.064C104.817 201.027 104.177 201.423 103.3 201.423C102.371 201.423 101.961 200.984 101.774 200.601L100.385 200.938C100.666 201.854 101.608 202.591 103.274 202.591ZM103.287 198.696C102.268 198.696 101.731 197.903 101.731 196.697C101.731 195.509 102.26 194.635 103.287 194.635C104.28 194.635 104.825 195.457 104.825 196.697C104.825 197.946 104.271 198.696 103.287 198.696ZM107.927 200H109.47V196.152C109.47 195.321 110.096 194.733 110.944 194.733C111.204 194.733 111.528 194.78 111.66 194.822V193.403C111.52 193.378 111.277 193.361 111.106 193.361C110.356 193.361 109.73 193.787 109.491 194.545H109.423V193.455H107.927V200ZM115.313 200.128C116.839 200.128 117.887 199.382 118.16 198.244L116.72 198.082C116.511 198.636 115.999 198.926 115.335 198.926C114.338 198.926 113.677 198.27 113.664 197.149H118.224V196.676C118.224 194.379 116.843 193.369 115.232 193.369C113.357 193.369 112.134 194.746 112.134 196.766C112.134 198.82 113.34 200.128 115.313 200.128ZM113.669 196.109C113.715 195.274 114.333 194.571 115.254 194.571C116.14 194.571 116.737 195.219 116.745 196.109H113.669ZM122.427 200.128C123.952 200.128 125.001 199.382 125.273 198.244L123.833 198.082C123.624 198.636 123.113 198.926 122.448 198.926C121.451 198.926 120.79 198.27 120.778 197.149H125.337V196.676C125.337 194.379 123.956 193.369 122.346 193.369C120.471 193.369 119.248 194.746 119.248 196.766C119.248 198.82 120.454 200.128 122.427 200.128ZM120.782 196.109C120.829 195.274 121.447 194.571 122.367 194.571C123.253 194.571 123.85 195.219 123.858 196.109H120.782Z" fill="white"/>
<path d="M82.0114 117H84.4716V112.193H89.4659V117H91.9205V105.364H89.4659V110.165H84.4716V105.364H82.0114V117ZM97.8807 117.17C100.04 117.17 101.494 116.119 101.835 114.5L99.5966 114.352C99.3523 115.017 98.7273 115.364 97.9205 115.364C96.7102 115.364 95.9432 114.562 95.9432 113.261V113.256H101.886V112.591C101.886 109.625 100.091 108.159 97.7841 108.159C95.2159 108.159 93.5511 109.983 93.5511 112.676C93.5511 115.443 95.1932 117.17 97.8807 117.17ZM95.9432 111.756C95.9943 110.761 96.75 109.966 97.8239 109.966C98.875 109.966 99.6023 110.716 99.608 111.756H95.9432ZM105.955 117.165C107.244 117.165 108.08 116.602 108.506 115.79H108.574V117H110.869V111.114C110.869 109.034 109.108 108.159 107.165 108.159C105.074 108.159 103.699 109.159 103.364 110.75L105.602 110.932C105.767 110.352 106.284 109.926 107.153 109.926C107.977 109.926 108.449 110.341 108.449 111.057V111.091C108.449 111.653 107.852 111.727 106.335 111.875C104.608 112.034 103.057 112.614 103.057 114.562C103.057 116.29 104.29 117.165 105.955 117.165ZM106.648 115.494C105.903 115.494 105.369 115.148 105.369 114.483C105.369 113.801 105.932 113.466 106.784 113.347C107.312 113.273 108.176 113.148 108.466 112.955V113.881C108.466 114.795 107.71 115.494 106.648 115.494ZM115.963 117.142C117.372 117.142 118.105 116.33 118.44 115.602H118.543V117H120.929V105.364H118.514V109.739H118.44C118.116 109.028 117.418 108.159 115.957 108.159C114.043 108.159 112.423 109.648 112.423 112.648C112.423 115.568 113.974 117.142 115.963 117.142ZM116.73 115.216C115.543 115.216 114.895 114.159 114.895 112.636C114.895 111.125 115.531 110.085 116.73 110.085C117.906 110.085 118.565 111.08 118.565 112.636C118.565 114.193 117.895 115.216 116.73 115.216ZM130.18 110.761C129.964 109.153 128.669 108.159 126.464 108.159C124.232 108.159 122.76 109.193 122.766 110.875C122.76 112.182 123.584 113.028 125.288 113.369L126.8 113.67C127.561 113.824 127.908 114.102 127.919 114.54C127.908 115.057 127.345 115.426 126.499 115.426C125.635 115.426 125.061 115.057 124.913 114.347L122.533 114.472C122.76 116.142 124.18 117.17 126.493 117.17C128.754 117.17 130.374 116.017 130.379 114.295C130.374 113.034 129.55 112.278 127.857 111.932L126.277 111.614C125.464 111.438 125.163 111.159 125.169 110.739C125.163 110.216 125.754 109.875 126.504 109.875C127.345 109.875 127.845 110.335 127.964 110.898L130.18 110.761ZM141.203 113.284C141.209 114.455 140.408 115.068 139.538 115.068C138.624 115.068 138.033 114.426 138.027 113.398V108.273H135.607V113.83C135.612 115.869 136.805 117.114 138.561 117.114C139.874 117.114 140.817 116.438 141.209 115.415H141.3V117H143.624V108.273H141.203V113.284ZM145.56 120.273H147.98V115.602H148.054C148.389 116.33 149.122 117.142 150.531 117.142C152.52 117.142 154.071 115.568 154.071 112.648C154.071 109.648 152.452 108.159 150.537 108.159C149.077 108.159 148.378 109.028 148.054 109.739H147.946V108.273H145.56V120.273ZM147.929 112.636C147.929 111.08 148.588 110.085 149.764 110.085C150.963 110.085 151.599 111.125 151.599 112.636C151.599 114.159 150.952 115.216 149.764 115.216C148.599 115.216 147.929 114.193 147.929 112.636ZM158.577 105.364H156.048L156.276 113.511H158.355L158.577 105.364ZM157.315 117.148C158.043 117.148 158.673 116.54 158.679 115.784C158.673 115.04 158.043 114.432 157.315 114.432C156.565 114.432 155.946 115.04 155.952 115.784C155.946 116.54 156.565 117.148 157.315 117.148Z" fill="#121C2D"/>
<path d="M83.642 148H84.733L86.6591 141.045H86.7273L88.6534 148H89.7443L92.1307 139.273H91.0568L89.233 146.381H89.1477L87.2898 139.273H86.0966L84.2386 146.381H84.1534L82.3295 139.273H81.2557L83.642 148ZM95.446 148.136C96.7756 148.136 97.7472 147.472 98.054 146.483L97.0824 146.21C96.8267 146.892 96.2344 147.233 95.446 147.233C94.2656 147.233 93.4517 146.47 93.4048 145.068H98.1562V144.642C98.1562 142.205 96.7074 141.369 95.3438 141.369C93.571 141.369 92.3949 142.767 92.3949 144.778C92.3949 146.79 93.554 148.136 95.446 148.136ZM93.4048 144.199C93.473 143.18 94.1932 142.273 95.3438 142.273C96.4347 142.273 97.1335 143.091 97.1335 144.199H93.4048ZM107.697 142.92C107.382 141.991 106.675 141.369 105.379 141.369C103.999 141.369 102.976 142.153 102.976 143.261C102.976 144.165 103.513 144.77 104.714 145.051L105.805 145.307C106.466 145.46 106.777 145.776 106.777 146.227C106.777 146.79 106.18 147.25 105.243 147.25C104.42 147.25 103.905 146.896 103.726 146.193L102.771 146.432C103.006 147.544 103.922 148.136 105.26 148.136C106.781 148.136 107.817 147.305 107.817 146.176C107.817 145.264 107.246 144.689 106.078 144.403L105.107 144.165C104.331 143.973 103.982 143.713 103.982 143.21C103.982 142.648 104.578 142.239 105.379 142.239C106.257 142.239 106.619 142.724 106.794 143.176L107.697 142.92ZM112.177 141.455H110.779V139.886H109.774V141.455H108.785V142.307H109.774V146.398C109.774 147.54 110.694 148.085 111.547 148.085C111.922 148.085 112.16 148.017 112.297 147.966L112.092 147.062C112.007 147.08 111.87 147.114 111.649 147.114C111.206 147.114 110.779 146.977 110.779 146.125V142.307H112.177V141.455ZM115.616 148.153C116.758 148.153 117.355 147.54 117.559 147.114H117.61V148H118.616V143.688C118.616 141.608 117.031 141.369 116.196 141.369C115.207 141.369 114.082 141.71 113.571 142.903L114.525 143.244C114.747 142.767 115.271 142.256 116.23 142.256C117.154 142.256 117.61 142.746 117.61 143.585V143.619C117.61 144.105 117.116 144.062 115.923 144.216C114.708 144.374 113.383 144.642 113.383 146.142C113.383 147.42 114.372 148.153 115.616 148.153ZM115.77 147.25C114.968 147.25 114.389 146.892 114.389 146.193C114.389 145.426 115.088 145.188 115.872 145.085C116.298 145.034 117.44 144.915 117.61 144.71V145.631C117.61 146.449 116.963 147.25 115.77 147.25ZM121.457 144.062C121.457 142.92 122.165 142.273 123.128 142.273C124.061 142.273 124.628 142.882 124.628 143.909V148H125.634V143.841C125.634 142.17 124.743 141.369 123.418 141.369C122.429 141.369 121.815 141.812 121.509 142.477H121.423V141.455H120.452V148H121.457V144.062ZM129.943 148.136C131.204 148.136 131.63 147.352 131.852 146.994H131.971V148H132.943V139.273H131.937V142.494H131.852C131.63 142.153 131.238 141.369 129.96 141.369C128.306 141.369 127.164 142.682 127.164 144.744C127.164 146.824 128.306 148.136 129.943 148.136ZM130.079 147.233C128.818 147.233 128.17 146.125 128.17 144.727C128.17 143.347 128.801 142.273 130.079 142.273C131.306 142.273 131.954 143.261 131.954 144.727C131.954 146.21 131.289 147.233 130.079 147.233ZM139.782 148H140.771L142.203 142.972H142.305L143.737 148H144.725L146.72 141.455H145.663L144.248 146.449H144.18L142.799 141.455H141.725L140.328 146.466H140.26L138.845 141.455H137.788L139.782 148ZM148.049 148H149.055V141.455H148.049V148ZM148.561 140.364C148.953 140.364 149.277 140.057 149.277 139.682C149.277 139.307 148.953 139 148.561 139C148.169 139 147.845 139.307 147.845 139.682C147.845 140.057 148.169 140.364 148.561 140.364ZM153.744 141.455H152.346V139.886H151.34V141.455H150.352V142.307H151.34V146.398C151.34 147.54 152.261 148.085 153.113 148.085C153.488 148.085 153.727 148.017 153.863 147.966L153.658 147.062C153.573 147.08 153.437 147.114 153.215 147.114C152.772 147.114 152.346 146.977 152.346 146.125V142.307H153.744V141.455ZM156.403 144.062C156.403 142.92 157.131 142.273 158.124 142.273C159.07 142.273 159.641 142.869 159.641 143.909V148H160.647V143.841C160.647 142.158 159.752 141.369 158.414 141.369C157.383 141.369 156.795 141.8 156.488 142.477H156.403V139.273H155.397V148H156.403V144.062ZM168.708 141.455H167.311V139.886H166.305V141.455H165.316V142.307H166.305V146.398C166.305 147.54 167.225 148.085 168.078 148.085C168.453 148.085 168.691 148.017 168.828 147.966L168.623 147.062C168.538 147.08 168.402 147.114 168.18 147.114C167.737 147.114 167.311 146.977 167.311 146.125V142.307H168.708V141.455ZM171.368 144.062C171.368 142.92 172.096 142.273 173.089 142.273C174.035 142.273 174.606 142.869 174.606 143.909V148H175.612V143.841C175.612 142.158 174.717 141.369 173.379 141.369C172.348 141.369 171.76 141.8 171.453 142.477H171.368V139.273H170.362V148H171.368V144.062ZM180.196 148.136C181.526 148.136 182.497 147.472 182.804 146.483L181.832 146.21C181.577 146.892 180.984 147.233 180.196 147.233C179.016 147.233 178.202 146.47 178.155 145.068H182.906V144.642C182.906 142.205 181.457 141.369 180.094 141.369C178.321 141.369 177.145 142.767 177.145 144.778C177.145 146.79 178.304 148.136 180.196 148.136ZM178.155 144.199C178.223 143.18 178.943 142.273 180.094 142.273C181.185 142.273 181.884 143.091 181.884 144.199H178.155ZM187.947 148H191.101C193.163 148 194.016 146.994 194.016 145.682C194.016 144.301 193.061 143.551 192.26 143.5V143.415C193.01 143.21 193.675 142.716 193.675 141.591C193.675 140.312 192.822 139.273 190.999 139.273H187.947V148ZM189.004 147.062V144.028H191.152C192.294 144.028 193.01 144.795 193.01 145.682C193.01 146.449 192.482 147.062 191.101 147.062H189.004ZM189.004 143.108V140.21H190.999C192.158 140.21 192.669 140.824 192.669 141.591C192.669 142.511 191.919 143.108 190.964 143.108H189.004ZM196.621 139.273H195.616V148H196.621V139.273ZM200.39 148.153C201.532 148.153 202.128 147.54 202.333 147.114H202.384V148H203.39V143.688C203.39 141.608 201.804 141.369 200.969 141.369C199.98 141.369 198.855 141.71 198.344 142.903L199.299 143.244C199.52 142.767 200.044 142.256 201.003 142.256C201.928 142.256 202.384 142.746 202.384 143.585V143.619C202.384 144.105 201.89 144.062 200.696 144.216C199.482 144.374 198.157 144.642 198.157 146.142C198.157 147.42 199.145 148.153 200.39 148.153ZM200.543 147.25C199.742 147.25 199.162 146.892 199.162 146.193C199.162 145.426 199.861 145.188 200.645 145.085C201.071 145.034 202.213 144.915 202.384 144.71V145.631C202.384 146.449 201.736 147.25 200.543 147.25ZM207.884 148.136C209.333 148.136 210.288 147.25 210.458 146.091H209.452C209.265 146.807 208.668 147.233 207.884 147.233C206.691 147.233 205.924 146.244 205.924 144.727C205.924 143.244 206.708 142.273 207.884 142.273C208.771 142.273 209.299 142.818 209.452 143.415H210.458C210.288 142.188 209.248 141.369 207.867 141.369C206.094 141.369 204.918 142.767 204.918 144.761C204.918 146.722 206.043 148.136 207.884 148.136ZM211.928 148H212.934V145.55L213.637 144.898L216.087 148H217.366L214.396 144.25L217.161 141.455H215.917L213.053 144.369H212.934V139.273H211.928V148ZM224.49 148.136C225.939 148.136 226.893 147.25 227.064 146.091H226.058C225.87 146.807 225.274 147.233 224.49 147.233C223.297 147.233 222.529 146.244 222.529 144.727C222.529 143.244 223.314 142.273 224.49 142.273C225.376 142.273 225.904 142.818 226.058 143.415H227.064C226.893 142.188 225.853 141.369 224.473 141.369C222.7 141.369 221.524 142.767 221.524 144.761C221.524 146.722 222.649 148.136 224.49 148.136ZM231.193 148.136C232.966 148.136 234.159 146.79 234.159 144.761C234.159 142.716 232.966 141.369 231.193 141.369C229.42 141.369 228.227 142.716 228.227 144.761C228.227 146.79 229.42 148.136 231.193 148.136ZM231.193 147.233C229.846 147.233 229.233 146.074 229.233 144.761C229.233 143.449 229.846 142.273 231.193 142.273C232.539 142.273 233.153 143.449 233.153 144.761C233.153 146.074 232.539 147.233 231.193 147.233ZM235.694 148H236.7V143.909C236.7 142.95 237.398 142.273 238.183 142.273C238.945 142.273 239.478 142.771 239.478 143.517V148H240.501V143.739C240.501 142.895 241.029 142.273 241.95 142.273C242.665 142.273 243.279 142.652 243.279 143.619V148H244.285V143.619C244.285 142.081 243.458 141.369 242.29 141.369C241.353 141.369 240.667 141.8 240.33 142.477H240.262C239.938 141.778 239.367 141.369 238.506 141.369C237.654 141.369 237.023 141.778 236.751 142.477H236.665V141.455H235.694V148ZM246.124 148H247.129V143.909C247.129 142.95 247.828 142.273 248.612 142.273C249.375 142.273 249.908 142.771 249.908 143.517V148H250.93V143.739C250.93 142.895 251.459 142.273 252.379 142.273C253.095 142.273 253.709 142.652 253.709 143.619V148H254.714V143.619C254.714 142.081 253.888 141.369 252.72 141.369C251.783 141.369 251.097 141.8 250.76 142.477H250.692C250.368 141.778 249.797 141.369 248.936 141.369C248.084 141.369 247.453 141.778 247.18 142.477H247.095V141.455H246.124V148ZM260.678 145.324C260.678 146.551 259.741 147.114 258.991 147.114C258.156 147.114 257.559 146.5 257.559 145.545V141.455H256.553V145.614C256.553 147.284 257.44 148.085 258.667 148.085C259.656 148.085 260.303 147.557 260.61 146.892H260.678V148H261.684V141.455H260.678V145.324ZM264.532 144.062C264.532 142.92 265.239 142.273 266.202 142.273C267.135 142.273 267.702 142.882 267.702 143.909V148H268.708V143.841C268.708 142.17 267.817 141.369 266.492 141.369C265.503 141.369 264.89 141.812 264.583 142.477H264.498V141.455H263.526V148H264.532V144.062ZM270.545 148H271.551V141.455H270.545V148ZM271.057 140.364C271.449 140.364 271.773 140.057 271.773 139.682C271.773 139.307 271.449 139 271.057 139C270.665 139 270.341 139.307 270.341 139.682C270.341 140.057 270.665 140.364 271.057 140.364ZM276.24 141.455H274.842V139.886H273.836V141.455H272.848V142.307H273.836V146.398C273.836 147.54 274.757 148.085 275.609 148.085C275.984 148.085 276.223 148.017 276.359 147.966L276.154 147.062C276.069 147.08 275.933 147.114 275.711 147.114C275.268 147.114 274.842 146.977 274.842 146.125V142.307H276.24V141.455ZM278.4 150.455C279.308 150.455 279.947 149.973 280.326 148.955L283.105 141.455H282.014L280.207 146.67H280.139L278.332 141.455H277.241L279.662 148.034L279.474 148.545C279.108 149.543 278.656 149.636 277.923 149.449L277.667 150.335C277.77 150.386 278.059 150.455 278.4 150.455ZM285.165 148.068C285.587 148.068 285.932 147.723 285.932 147.301C285.932 146.879 285.587 146.534 285.165 146.534C284.743 146.534 284.398 146.879 284.398 147.301C284.398 147.723 284.743 148.068 285.165 148.068ZM82.0568 166H85.2102C87.2727 166 88.125 164.994 88.125 163.682C88.125 162.301 87.1705 161.551 86.3693 161.5V161.415C87.1193 161.21 87.7841 160.716 87.7841 159.591C87.7841 158.312 86.9318 157.273 85.108 157.273H82.0568V166ZM83.1136 165.062V162.028H85.2614C86.4034 162.028 87.1193 162.795 87.1193 163.682C87.1193 164.449 86.5909 165.062 85.2102 165.062H83.1136ZM83.1136 161.108V158.21H85.108C86.267 158.21 86.7784 158.824 86.7784 159.591C86.7784 160.511 86.0284 161.108 85.0739 161.108H83.1136ZM90.7308 157.273H89.7251V166H90.7308V157.273ZM94.4989 166.153C95.641 166.153 96.2376 165.54 96.4421 165.114H96.4933V166H97.4989V161.688C97.4989 159.608 95.9137 159.369 95.0785 159.369C94.0898 159.369 92.9648 159.71 92.4535 160.903L93.408 161.244C93.6296 160.767 94.1538 160.256 95.1126 160.256C96.0373 160.256 96.4933 160.746 96.4933 161.585V161.619C96.4933 162.105 95.9989 162.062 94.8058 162.216C93.5913 162.374 92.266 162.642 92.266 164.142C92.266 165.42 93.2546 166.153 94.4989 166.153ZM94.6523 165.25C93.8512 165.25 93.2717 164.892 93.2717 164.193C93.2717 163.426 93.9705 163.188 94.7546 163.085C95.1808 163.034 96.3228 162.915 96.4933 162.71V163.631C96.4933 164.449 95.8455 165.25 94.6523 165.25ZM101.994 166.136C103.442 166.136 104.397 165.25 104.567 164.091H103.562C103.374 164.807 102.778 165.233 101.994 165.233C100.8 165.233 100.033 164.244 100.033 162.727C100.033 161.244 100.817 160.273 101.994 160.273C102.88 160.273 103.408 160.818 103.562 161.415H104.567C104.397 160.188 103.357 159.369 101.977 159.369C100.204 159.369 99.0277 160.767 99.0277 162.761C99.0277 164.722 100.153 166.136 101.994 166.136ZM106.038 166H107.043V163.55L107.746 162.898L110.197 166H111.475L108.505 162.25L111.271 159.455H110.026L107.163 162.369H107.043V157.273H106.038V166ZM116.946 157.273H115.94V166H116.946V157.273ZM118.788 166H119.793V159.455H118.788V166ZM119.299 158.364C119.691 158.364 120.015 158.057 120.015 157.682C120.015 157.307 119.691 157 119.299 157C118.907 157 118.583 157.307 118.583 157.682C118.583 158.057 118.907 158.364 119.299 158.364ZM126.988 159.455H125.897L124.09 164.67H124.022L122.215 159.455H121.124L123.544 166H124.567L126.988 159.455ZM130.825 166.136C132.154 166.136 133.126 165.472 133.433 164.483L132.461 164.21C132.206 164.892 131.613 165.233 130.825 165.233C129.645 165.233 128.831 164.47 128.784 163.068H133.535V162.642C133.535 160.205 132.086 159.369 130.723 159.369C128.95 159.369 127.774 160.767 127.774 162.778C127.774 164.79 128.933 166.136 130.825 166.136ZM128.784 162.199C128.852 161.18 129.572 160.273 130.723 160.273C131.814 160.273 132.512 161.091 132.512 162.199H128.784ZM139.701 160.92C139.386 159.991 138.679 159.369 137.383 159.369C136.002 159.369 134.98 160.153 134.98 161.261C134.98 162.165 135.517 162.77 136.718 163.051L137.809 163.307C138.47 163.46 138.781 163.776 138.781 164.227C138.781 164.79 138.184 165.25 137.247 165.25C136.424 165.25 135.909 164.896 135.73 164.193L134.775 164.432C135.01 165.544 135.926 166.136 137.264 166.136C138.785 166.136 139.821 165.305 139.821 164.176C139.821 163.264 139.25 162.689 138.082 162.403L137.11 162.165C136.335 161.973 135.985 161.713 135.985 161.21C135.985 160.648 136.582 160.239 137.383 160.239C138.261 160.239 138.623 160.724 138.798 161.176L139.701 160.92ZM144.71 166H145.715V161.909C145.715 160.95 146.414 160.273 147.198 160.273C147.961 160.273 148.494 160.771 148.494 161.517V166H149.516V161.739C149.516 160.895 150.045 160.273 150.965 160.273C151.681 160.273 152.295 160.652 152.295 161.619V166H153.3V161.619C153.3 160.081 152.474 159.369 151.306 159.369C150.369 159.369 149.683 159.8 149.346 160.477H149.278C148.954 159.778 148.383 159.369 147.522 159.369C146.67 159.369 146.039 159.778 145.766 160.477H145.681V159.455H144.71V166ZM157.065 166.153C158.207 166.153 158.804 165.54 159.009 165.114H159.06V166H160.065V161.688C160.065 159.608 158.48 159.369 157.645 159.369C156.656 159.369 155.531 159.71 155.02 160.903L155.974 161.244C156.196 160.767 156.72 160.256 157.679 160.256C158.604 160.256 159.06 160.746 159.06 161.585V161.619C159.06 162.105 158.565 162.062 157.372 162.216C156.158 162.374 154.832 162.642 154.832 164.142C154.832 165.42 155.821 166.153 157.065 166.153ZM157.219 165.25C156.418 165.25 155.838 164.892 155.838 164.193C155.838 163.426 156.537 163.188 157.321 163.085C157.747 163.034 158.889 162.915 159.06 162.71V163.631C159.06 164.449 158.412 165.25 157.219 165.25ZM164.748 159.455H163.35V157.886H162.344V159.455H161.355V160.307H162.344V164.398C162.344 165.54 163.265 166.085 164.117 166.085C164.492 166.085 164.73 166.017 164.867 165.966L164.662 165.062C164.577 165.08 164.441 165.114 164.219 165.114C163.776 165.114 163.35 164.977 163.35 164.125V160.307H164.748V159.455ZM169.107 159.455H167.709V157.886H166.703V159.455H165.715V160.307H166.703V164.398C166.703 165.54 167.624 166.085 168.476 166.085C168.851 166.085 169.09 166.017 169.226 165.966L169.022 165.062C168.936 165.08 168.8 165.114 168.578 165.114C168.135 165.114 167.709 164.977 167.709 164.125V160.307H169.107V159.455ZM173.294 166.136C174.623 166.136 175.595 165.472 175.902 164.483L174.93 164.21C174.674 164.892 174.082 165.233 173.294 165.233C172.113 165.233 171.299 164.47 171.252 163.068H176.004V162.642C176.004 160.205 174.555 159.369 173.191 159.369C171.419 159.369 170.243 160.767 170.243 162.778C170.243 164.79 171.402 166.136 173.294 166.136ZM171.252 162.199C171.321 161.18 172.041 160.273 173.191 160.273C174.282 160.273 174.981 161.091 174.981 162.199H171.252ZM177.534 166H178.539V161.858C178.539 160.972 179.238 160.324 180.193 160.324C180.461 160.324 180.738 160.375 180.806 160.392V159.369C180.691 159.361 180.427 159.352 180.278 159.352C179.494 159.352 178.812 159.795 178.574 160.443H178.505V159.455H177.534V166ZM182.732 166.068C183.153 166.068 183.499 165.723 183.499 165.301C183.499 164.879 183.153 164.534 182.732 164.534C182.31 164.534 181.964 164.879 181.964 165.301C181.964 165.723 182.31 166.068 182.732 166.068Z" fill="#121C2D"/>
<path fill-rule="evenodd" clip-rule="evenodd" d="M312.089 96.4076L309.506 93.8238L312.089 91.24C312.423 90.9065 312.423 90.364 312.089 90.0304C311.756 89.6969 311.213 89.6969 310.88 90.0304L308.296 92.6142L305.712 90.0304C305.379 89.6969 304.836 89.6969 304.503 90.0304C304.169 90.364 304.169 90.9065 304.503 91.24L307.086 93.8238L304.503 96.4076C304.169 96.7411 304.169 97.2836 304.503 97.6171C304.836 97.9507 305.379 97.9507 305.712 97.6171L308.296 95.0333L310.88 97.6171C311.213 97.9507 311.756 97.9507 312.089 97.6171C312.423 97.2836 312.423 96.7411 312.089 96.4076Z" fill="#606B85"/>
<g filter="url(#filter1_f)">
<path d="M19 225C16.7909 225 15 226.791 15 229V388C15 390.209 16.7909 392 19 392H285C287.209 392 289 390.209 289 388V272.666L297.184 265.846C298.144 265.047 298.144 263.573 297.184 262.773L289 255.953V229C289 226.791 287.209 225 285 225H19Z" fill="#121C2D" fill-opacity="0.1"/>
</g>
<path d="M287.68 271.282L287.5 271.432V271.666V387C287.5 388.933 285.933 390.5 284 390.5H18C16.067 390.5 14.5 388.933 14.5 387V228C14.5 226.067 16.067 224.5 18 224.5H284C285.933 224.5 287.5 226.067 287.5 228V254.953V255.188L287.68 255.337L295.864 262.158C296.584 262.757 296.584 263.863 295.864 264.462L287.68 271.282Z" fill="white" stroke="#E1E3EA"/>
<rect x="41" y="340" width="54" height="27" rx="13.5" fill="#912AC1"/>
<path d="M57.6346 358L56.8546 355.732H53.6266L52.8586 358H51.2266L54.3706 349.396H56.1226L59.2666 358H57.6346ZM55.7146 352.204C55.6826 352.092 55.6346 351.94 55.5706 351.748C55.5066 351.556 55.4426 351.36 55.3786 351.16C55.3226 350.952 55.2786 350.78 55.2466 350.644C55.2066 350.804 55.1546 350.988 55.0906 351.196C55.0346 351.404 54.9786 351.6 54.9226 351.784C54.8666 351.968 54.8266 352.108 54.8026 352.204L54.0466 354.412H56.4586L55.7146 352.204ZM62.4333 351.376C63.2573 351.376 63.9013 351.696 64.3653 352.336H64.4253L64.5693 351.496H65.8293V358.048C65.8293 358.976 65.5653 359.68 65.0373 360.16C64.5173 360.64 63.7373 360.88 62.6973 360.88C62.2333 360.88 61.8053 360.848 61.4133 360.784C61.0213 360.728 60.6493 360.628 60.2973 360.484V359.236C61.0413 359.572 61.8733 359.74 62.7933 359.74C63.2893 359.74 63.6653 359.6 63.9213 359.32C64.1853 359.048 64.3173 358.648 64.3173 358.12V357.952C64.3173 357.832 64.3213 357.692 64.3293 357.532C64.3373 357.372 64.3493 357.244 64.3653 357.148H64.3173C64.0933 357.484 63.8173 357.732 63.4893 357.892C63.1693 358.044 62.8053 358.12 62.3973 358.12C61.6053 358.12 60.9853 357.824 60.5373 357.232C60.0893 356.64 59.8653 355.816 59.8653 354.76C59.8653 353.704 60.0893 352.876 60.5373 352.276C60.9933 351.676 61.6253 351.376 62.4333 351.376ZM62.8293 352.612C61.8853 352.612 61.4133 353.336 61.4133 354.784C61.4133 356.208 61.8933 356.92 62.8533 356.92C63.3813 356.92 63.7693 356.776 64.0173 356.488C64.2733 356.192 64.4013 355.696 64.4013 355V354.772C64.4013 354.004 64.2733 353.452 64.0173 353.116C63.7693 352.78 63.3733 352.612 62.8293 352.612ZM71.1691 351.376C71.2731 351.376 71.3851 351.38 71.5051 351.388C71.6331 351.396 71.7411 351.412 71.8291 351.436L71.6971 352.84C71.6171 352.824 71.5211 352.812 71.4091 352.804C71.2971 352.788 71.1971 352.78 71.1091 352.78C70.7891 352.78 70.4891 352.848 70.2091 352.984C69.9291 353.112 69.7011 353.316 69.5251 353.596C69.3571 353.868 69.2731 354.212 69.2731 354.628V358H67.7611V351.496H68.9251L69.1411 352.624H69.2131C69.4051 352.28 69.6691 351.988 70.0051 351.748C70.3411 351.5 70.7291 351.376 71.1691 351.376ZM75.4161 351.376C76.2881 351.376 76.9761 351.636 77.4801 352.156C77.9921 352.676 78.2481 353.4 78.2481 354.328V355.096H73.9521C73.9681 355.688 74.1321 356.148 74.4441 356.476C74.7561 356.796 75.1881 356.956 75.7401 356.956C76.1561 356.956 76.5321 356.916 76.8681 356.836C77.2041 356.748 77.5481 356.624 77.9001 356.464V357.676C77.5801 357.828 77.2481 357.94 76.9041 358.012C76.5601 358.084 76.1481 358.12 75.6681 358.12C75.0361 358.12 74.4721 358 73.9761 357.76C73.4881 357.512 73.1041 357.14 72.8241 356.644C72.5521 356.148 72.4161 355.532 72.4161 354.796C72.4161 353.684 72.6921 352.836 73.2441 352.252C73.7961 351.668 74.5201 351.376 75.4161 351.376ZM75.4161 352.492C75.0081 352.492 74.6761 352.624 74.4201 352.888C74.1721 353.144 74.0281 353.528 73.9881 354.04H76.7841C76.7761 353.592 76.6601 353.224 76.4361 352.936C76.2201 352.64 75.8801 352.492 75.4161 352.492ZM82.3888 351.376C83.2608 351.376 83.9488 351.636 84.4528 352.156C84.9648 352.676 85.2208 353.4 85.2208 354.328V355.096H80.9248C80.9408 355.688 81.1048 356.148 81.4168 356.476C81.7288 356.796 82.1608 356.956 82.7128 356.956C83.1288 356.956 83.5048 356.916 83.8408 356.836C84.1768 356.748 84.5208 356.624 84.8728 356.464V357.676C84.5528 357.828 84.2208 357.94 83.8768 358.012C83.5328 358.084 83.1208 358.12 82.6408 358.12C82.0088 358.12 81.4448 358 80.9488 357.76C80.4608 357.512 80.0768 357.14 79.7968 356.644C79.5248 356.148 79.3888 355.532 79.3888 354.796C79.3888 353.684 79.6648 352.836 80.2168 352.252C80.7688 351.668 81.4928 351.376 82.3888 351.376ZM82.3888 352.492C81.9808 352.492 81.6488 352.624 81.3928 352.888C81.1448 353.144 81.0008 353.528 80.9608 354.04H83.7568C83.7488 353.592 83.6328 353.224 83.4088 352.936C83.1928 352.64 82.8528 352.492 82.3888 352.492Z" fill="white"/>
<path d="M52.004 292.432L49.724 301H48.632L46.964 295.384C46.9 295.152 46.836 294.92 46.772 294.688C46.708 294.456 46.656 294.252 46.616 294.076C46.576 293.892 46.548 293.764 46.532 293.692C46.524 293.796 46.48 294.02 46.4 294.364C46.328 294.7 46.236 295.052 46.124 295.42L44.504 301H43.412L41.144 292.432H42.272L43.604 297.664C43.7 298.032 43.78 298.388 43.844 298.732C43.916 299.076 43.972 299.4 44.012 299.704C44.052 299.392 44.112 299.052 44.192 298.684C44.272 298.316 44.364 297.956 44.468 297.604L45.98 292.432H47.096L48.668 297.64C48.78 298.008 48.876 298.376 48.956 298.744C49.036 299.104 49.096 299.424 49.136 299.704C49.176 299.408 49.232 299.088 49.304 298.744C49.376 298.392 49.46 298.028 49.556 297.652L50.876 292.432H52.004ZM55.4259 294.448C55.9779 294.448 56.4499 294.568 56.8419 294.808C57.2419 295.048 57.5459 295.388 57.7539 295.828C57.9699 296.26 58.0779 296.768 58.0779 297.352V297.988H53.6739C53.6899 298.716 53.8739 299.272 54.2259 299.656C54.5859 300.032 55.0859 300.22 55.7259 300.22C56.1339 300.22 56.4939 300.184 56.8059 300.112C57.1259 300.032 57.4539 299.92 57.7899 299.776V300.7C57.4619 300.844 57.1379 300.948 56.8179 301.012C56.4979 301.084 56.1179 301.12 55.6779 301.12C55.0699 301.12 54.5299 300.996 54.0579 300.748C53.5939 300.5 53.2299 300.132 52.9659 299.644C52.7099 299.148 52.5819 298.544 52.5819 297.832C52.5819 297.128 52.6979 296.524 52.9299 296.02C53.1699 295.516 53.5019 295.128 53.9259 294.856C54.3579 294.584 54.8579 294.448 55.4259 294.448ZM55.4139 295.312C54.9099 295.312 54.5099 295.476 54.2139 295.804C53.9259 296.124 53.7539 296.572 53.6979 297.148H56.9739C56.9659 296.604 56.8379 296.164 56.5899 295.828C56.3419 295.484 55.9499 295.312 55.4139 295.312ZM67.0205 299.224C67.0205 299.848 66.7885 300.32 66.3245 300.64C65.8605 300.96 65.2365 301.12 64.4525 301.12C64.0045 301.12 63.6165 301.084 63.2885 301.012C62.9685 300.94 62.6845 300.84 62.4365 300.712V299.752C62.6925 299.88 63.0005 300 63.3605 300.112C63.7285 300.216 64.1005 300.268 64.4765 300.268C65.0125 300.268 65.4005 300.184 65.6405 300.016C65.8805 299.84 66.0005 299.608 66.0005 299.32C66.0005 299.16 65.9565 299.016 65.8685 298.888C65.7805 298.76 65.6205 298.632 65.3885 298.504C65.1645 298.376 64.8405 298.232 64.4165 298.072C64.0005 297.912 63.6445 297.752 63.3485 297.592C63.0525 297.432 62.8245 297.24 62.6645 297.016C62.5045 296.792 62.4245 296.504 62.4245 296.152C62.4245 295.608 62.6445 295.188 63.0845 294.892C63.5325 294.596 64.1165 294.448 64.8365 294.448C65.2285 294.448 65.5925 294.488 65.9285 294.568C66.2725 294.64 66.5925 294.744 66.8885 294.88L66.5285 295.72C66.2565 295.608 65.9725 295.512 65.6765 295.432C65.3805 295.352 65.0765 295.312 64.7645 295.312C64.3325 295.312 64.0005 295.384 63.7685 295.528C63.5445 295.664 63.4325 295.852 63.4325 296.092C63.4325 296.268 63.4845 296.42 63.5885 296.548C63.6925 296.668 63.8645 296.788 64.1045 296.908C64.3525 297.02 64.6805 297.156 65.0885 297.316C65.4965 297.468 65.8445 297.624 66.1325 297.784C66.4205 297.944 66.6405 298.14 66.7925 298.372C66.9445 298.596 67.0205 298.88 67.0205 299.224ZM70.7227 300.256C70.8827 300.256 71.0467 300.244 71.2147 300.22C71.3827 300.188 71.5187 300.156 71.6227 300.124V300.928C71.5107 300.984 71.3507 301.028 71.1427 301.06C70.9347 301.1 70.7347 301.12 70.5427 301.12C70.2067 301.12 69.8947 301.064 69.6067 300.952C69.3267 300.832 69.0987 300.628 68.9227 300.34C68.7467 300.052 68.6587 299.648 68.6587 299.128V295.384H67.7467V294.88L68.6707 294.46L69.0907 293.092H69.7147V294.568H71.5747V295.384H69.7147V299.104C69.7147 299.496 69.8067 299.788 69.9907 299.98C70.1827 300.164 70.4267 300.256 70.7227 300.256ZM75.3466 294.46C76.1306 294.46 76.7106 294.632 77.0866 294.976C77.4626 295.32 77.6506 295.868 77.6506 296.62V301H76.8826L76.6786 300.088H76.6306C76.3506 300.44 76.0546 300.7 75.7426 300.868C75.4386 301.036 75.0146 301.12 74.4706 301.12C73.8866 301.12 73.4026 300.968 73.0186 300.664C72.6346 300.352 72.4426 299.868 72.4426 299.212C72.4426 298.572 72.6946 298.08 73.1986 297.736C73.7026 297.384 74.4786 297.192 75.5266 297.16L76.6186 297.124V296.74C76.6186 296.204 76.5026 295.832 76.2706 295.624C76.0386 295.416 75.7106 295.312 75.2866 295.312C74.9506 295.312 74.6306 295.364 74.3266 295.468C74.0226 295.564 73.7386 295.676 73.4746 295.804L73.1506 295.012C73.4306 294.86 73.7626 294.732 74.1466 294.628C74.5306 294.516 74.9306 294.46 75.3466 294.46ZM75.6586 297.892C74.8586 297.924 74.3026 298.052 73.9906 298.276C73.6866 298.5 73.5346 298.816 73.5346 299.224C73.5346 299.584 73.6426 299.848 73.8586 300.016C74.0826 300.184 74.3666 300.268 74.7106 300.268C75.2546 300.268 75.7066 300.12 76.0666 299.824C76.4266 299.52 76.6066 299.056 76.6066 298.432V297.856L75.6586 297.892ZM82.7332 294.448C83.5012 294.448 84.0812 294.636 84.4732 295.012C84.8652 295.38 85.0612 295.98 85.0612 296.812V301H84.0172V296.884C84.0172 295.852 83.5372 295.336 82.5772 295.336C81.8652 295.336 81.3732 295.536 81.1012 295.936C80.8292 296.336 80.6932 296.912 80.6932 297.664V301H79.6372V294.568H80.4892L80.6452 295.444H80.7052C80.9132 295.108 81.2012 294.86 81.5692 294.7C81.9372 294.532 82.3252 294.448 82.7332 294.448ZM89.3352 301.12C88.5352 301.12 87.8952 300.844 87.4152 300.292C86.9352 299.732 86.6952 298.9 86.6952 297.796C86.6952 296.692 86.9352 295.86 87.4152 295.3C87.9032 294.732 88.5472 294.448 89.3472 294.448C89.8432 294.448 90.2472 294.54 90.5592 294.724C90.8792 294.908 91.1392 295.132 91.3392 295.396H91.4112C91.4032 295.292 91.3872 295.14 91.3632 294.94C91.3472 294.732 91.3392 294.568 91.3392 294.448V291.88H92.3952V301H91.5432L91.3872 300.136H91.3392C91.1472 300.408 90.8912 300.64 90.5712 300.832C90.2512 301.024 89.8392 301.12 89.3352 301.12ZM89.5032 300.244C90.1832 300.244 90.6592 300.06 90.9312 299.692C91.2112 299.316 91.3512 298.752 91.3512 298V297.808C91.3512 297.008 91.2192 296.396 90.9552 295.972C90.6912 295.54 90.2032 295.324 89.4912 295.324C88.9232 295.324 88.4952 295.552 88.2072 296.008C87.9272 296.456 87.7872 297.06 87.7872 297.82C87.7872 298.588 87.9272 299.184 88.2072 299.608C88.4952 300.032 88.9272 300.244 89.5032 300.244ZM101.707 297.364C101.603 297.036 101.511 296.716 101.431 296.404C101.359 296.084 101.303 295.836 101.263 295.66H101.215C101.183 295.836 101.131 296.084 101.059 296.404C100.987 296.716 100.895 297.04 100.783 297.376L99.6312 300.988H98.4312L96.6672 294.556H97.7592L98.6472 297.988C98.7352 298.332 98.8192 298.68 98.8992 299.032C98.9792 299.384 99.0352 299.676 99.0672 299.908H99.1152C99.1472 299.772 99.1832 299.604 99.2232 299.404C99.2712 299.204 99.3232 298.996 99.3792 298.78C99.4352 298.556 99.4912 298.356 99.5472 298.18L100.687 294.556H101.839L102.943 298.18C103.031 298.452 103.115 298.748 103.195 299.068C103.283 299.388 103.343 299.664 103.375 299.896H103.423C103.447 299.696 103.499 299.42 103.579 299.068C103.667 298.716 103.759 298.356 103.855 297.988L104.755 294.556H105.835L104.047 300.988H102.811L101.707 297.364ZM107.529 292.156C107.689 292.156 107.829 292.212 107.949 292.324C108.077 292.428 108.141 292.596 108.141 292.828C108.141 293.052 108.077 293.22 107.949 293.332C107.829 293.444 107.689 293.5 107.529 293.5C107.353 293.5 107.205 293.444 107.085 293.332C106.965 293.22 106.905 293.052 106.905 292.828C106.905 292.596 106.965 292.428 107.085 292.324C107.205 292.212 107.353 292.156 107.529 292.156ZM108.045 294.568V301H106.989V294.568H108.045ZM112.23 300.256C112.391 300.256 112.555 300.244 112.723 300.22C112.891 300.188 113.027 300.156 113.131 300.124V300.928C113.019 300.984 112.859 301.028 112.651 301.06C112.443 301.1 112.243 301.12 112.051 301.12C111.715 301.12 111.403 301.064 111.115 300.952C110.835 300.832 110.607 300.628 110.431 300.34C110.255 300.052 110.167 299.648 110.167 299.128V295.384H109.255V294.88L110.179 294.46L110.599 293.092H111.223V294.568H113.083V295.384H111.223V299.104C111.223 299.496 111.315 299.788 111.499 299.98C111.691 300.164 111.935 300.256 112.23 300.256ZM115.474 294.556C115.474 294.876 115.454 295.176 115.414 295.456H115.486C115.694 295.128 115.974 294.88 116.326 294.712C116.686 294.544 117.074 294.46 117.49 294.46C118.274 294.46 118.862 294.648 119.254 295.024C119.646 295.392 119.842 295.988 119.842 296.812V301H118.798V296.884C118.798 295.852 118.318 295.336 117.358 295.336C116.638 295.336 116.142 295.54 115.87 295.948C115.606 296.348 115.474 296.924 115.474 297.676V301H114.418V291.88H115.474V294.556ZM127.102 300.256C127.262 300.256 127.426 300.244 127.594 300.22C127.762 300.188 127.898 300.156 128.002 300.124V300.928C127.89 300.984 127.73 301.028 127.522 301.06C127.314 301.1 127.114 301.12 126.922 301.12C126.586 301.12 126.274 301.064 125.986 300.952C125.706 300.832 125.478 300.628 125.302 300.34C125.126 300.052 125.038 299.648 125.038 299.128V295.384H124.126V294.88L125.05 294.46L125.47 293.092H126.094V294.568H127.954V295.384H126.094V299.104C126.094 299.496 126.186 299.788 126.37 299.98C126.562 300.164 126.806 300.256 127.102 300.256ZM130.346 294.556C130.346 294.876 130.326 295.176 130.286 295.456H130.358C130.566 295.128 130.846 294.88 131.198 294.712C131.558 294.544 131.946 294.46 132.362 294.46C133.146 294.46 133.734 294.648 134.126 295.024C134.518 295.392 134.714 295.988 134.714 296.812V301H133.67V296.884C133.67 295.852 133.19 295.336 132.23 295.336C131.51 295.336 131.014 295.54 130.742 295.948C130.478 296.348 130.346 296.924 130.346 297.676V301H129.29V291.88H130.346V294.556ZM139.192 294.448C139.744 294.448 140.216 294.568 140.608 294.808C141.008 295.048 141.312 295.388 141.52 295.828C141.736 296.26 141.844 296.768 141.844 297.352V297.988H137.44C137.456 298.716 137.64 299.272 137.992 299.656C138.352 300.032 138.852 300.22 139.492 300.22C139.9 300.22 140.26 300.184 140.572 300.112C140.892 300.032 141.22 299.92 141.556 299.776V300.7C141.228 300.844 140.904 300.948 140.584 301.012C140.264 301.084 139.884 301.12 139.444 301.12C138.836 301.12 138.296 300.996 137.824 300.748C137.36 300.5 136.996 300.132 136.732 299.644C136.476 299.148 136.348 298.544 136.348 297.832C136.348 297.128 136.464 296.524 136.696 296.02C136.936 295.516 137.268 295.128 137.692 294.856C138.124 294.584 138.624 294.448 139.192 294.448ZM139.18 295.312C138.676 295.312 138.276 295.476 137.98 295.804C137.692 296.124 137.52 296.572 137.464 297.148H140.74C140.732 296.604 140.604 296.164 140.356 295.828C140.108 295.484 139.716 295.312 139.18 295.312ZM149.19 292.432C150.262 292.432 151.07 292.592 151.614 292.912C152.166 293.224 152.442 293.772 152.442 294.556C152.442 295.06 152.302 295.48 152.022 295.816C151.742 296.144 151.338 296.356 150.81 296.452V296.512C151.17 296.568 151.494 296.672 151.782 296.824C152.078 296.976 152.31 297.192 152.478 297.472C152.646 297.752 152.73 298.116 152.73 298.564C152.73 299.34 152.462 299.94 151.926 300.364C151.398 300.788 150.674 301 149.754 301H146.742V292.432H149.19ZM149.406 296.08C150.142 296.08 150.646 295.964 150.918 295.732C151.19 295.492 151.326 295.14 151.326 294.676C151.326 294.204 151.158 293.868 150.822 293.668C150.494 293.46 149.966 293.356 149.238 293.356H147.822V296.08H149.406ZM147.822 296.98V300.088H149.55C150.31 300.088 150.838 299.94 151.134 299.644C151.43 299.348 151.578 298.96 151.578 298.48C151.578 298.032 151.422 297.672 151.11 297.4C150.806 297.12 150.258 296.98 149.466 296.98H147.822ZM155.459 301H154.403V291.88H155.459V301ZM159.933 294.46C160.717 294.46 161.297 294.632 161.673 294.976C162.049 295.32 162.237 295.868 162.237 296.62V301H161.469L161.265 300.088H161.217C160.937 300.44 160.641 300.7 160.329 300.868C160.025 301.036 159.601 301.12 159.057 301.12C158.473 301.12 157.989 300.968 157.605 300.664C157.221 300.352 157.029 299.868 157.029 299.212C157.029 298.572 157.281 298.08 157.785 297.736C158.289 297.384 159.065 297.192 160.113 297.16L161.205 297.124V296.74C161.205 296.204 161.089 295.832 160.857 295.624C160.625 295.416 160.297 295.312 159.873 295.312C159.537 295.312 159.217 295.364 158.913 295.468C158.609 295.564 158.325 295.676 158.061 295.804L157.737 295.012C158.017 294.86 158.349 294.732 158.733 294.628C159.117 294.516 159.517 294.46 159.933 294.46ZM160.245 297.892C159.445 297.924 158.889 298.052 158.577 298.276C158.273 298.5 158.121 298.816 158.121 299.224C158.121 299.584 158.229 299.848 158.445 300.016C158.669 300.184 158.953 300.268 159.297 300.268C159.841 300.268 160.293 300.12 160.653 299.824C161.013 299.52 161.193 299.056 161.193 298.432V297.856L160.245 297.892ZM166.803 301.12C166.235 301.12 165.727 301.004 165.279 300.772C164.839 300.54 164.491 300.18 164.235 299.692C163.987 299.204 163.863 298.58 163.863 297.82C163.863 297.028 163.995 296.384 164.259 295.888C164.523 295.392 164.879 295.028 165.327 294.796C165.783 294.564 166.299 294.448 166.875 294.448C167.203 294.448 167.519 294.484 167.823 294.556C168.127 294.62 168.375 294.7 168.567 294.796L168.243 295.672C168.051 295.6 167.827 295.532 167.571 295.468C167.315 295.404 167.075 295.372 166.851 295.372C165.587 295.372 164.955 296.184 164.955 297.808C164.955 298.584 165.107 299.18 165.411 299.596C165.723 300.004 166.183 300.208 166.791 300.208C167.143 300.208 167.451 300.172 167.715 300.1C167.987 300.028 168.235 299.94 168.459 299.836V300.772C168.243 300.884 168.003 300.968 167.739 301.024C167.483 301.088 167.171 301.12 166.803 301.12ZM171.033 296.644C171.033 296.772 171.025 296.94 171.009 297.148C171.001 297.356 170.993 297.536 170.985 297.688H171.033C171.081 297.624 171.153 297.532 171.249 297.412C171.345 297.292 171.441 297.172 171.537 297.052C171.641 296.924 171.729 296.82 171.801 296.74L173.853 294.568H175.089L172.485 297.316L175.269 301H173.997L171.765 298L171.033 298.636V301H169.989V291.88H171.033V296.644ZM182.096 301.12C181.528 301.12 181.02 301.004 180.572 300.772C180.132 300.54 179.784 300.18 179.528 299.692C179.28 299.204 179.156 298.58 179.156 297.82C179.156 297.028 179.288 296.384 179.552 295.888C179.816 295.392 180.172 295.028 180.62 294.796C181.076 294.564 181.592 294.448 182.168 294.448C182.496 294.448 182.812 294.484 183.116 294.556C183.42 294.62 183.668 294.7 183.86 294.796L183.536 295.672C183.344 295.6 183.12 295.532 182.864 295.468C182.608 295.404 182.368 295.372 182.144 295.372C180.88 295.372 180.248 296.184 180.248 297.808C180.248 298.584 180.4 299.18 180.704 299.596C181.016 300.004 181.476 300.208 182.084 300.208C182.436 300.208 182.744 300.172 183.008 300.1C183.28 300.028 183.528 299.94 183.752 299.836V300.772C183.536 300.884 183.296 300.968 183.032 301.024C182.776 301.088 182.464 301.12 182.096 301.12ZM190.874 297.772C190.874 298.836 190.602 299.66 190.058 300.244C189.522 300.828 188.794 301.12 187.874 301.12C187.306 301.12 186.798 300.992 186.35 300.736C185.91 300.472 185.562 300.092 185.306 299.596C185.05 299.092 184.922 298.484 184.922 297.772C184.922 296.708 185.19 295.888 185.726 295.312C186.262 294.736 186.99 294.448 187.91 294.448C188.494 294.448 189.006 294.58 189.446 294.844C189.894 295.1 190.242 295.476 190.49 295.972C190.746 296.46 190.874 297.06 190.874 297.772ZM186.014 297.772C186.014 298.532 186.162 299.136 186.458 299.584C186.762 300.024 187.242 300.244 187.898 300.244C188.546 300.244 189.022 300.024 189.326 299.584C189.63 299.136 189.782 298.532 189.782 297.772C189.782 297.012 189.63 296.416 189.326 295.984C189.022 295.552 188.542 295.336 187.886 295.336C187.23 295.336 186.754 295.552 186.458 295.984C186.162 296.416 186.014 297.012 186.014 297.772ZM199.603 294.448C200.331 294.448 200.875 294.636 201.235 295.012C201.595 295.38 201.775 295.98 201.775 296.812V301H200.731V296.86C200.731 295.844 200.295 295.336 199.423 295.336C198.799 295.336 198.351 295.516 198.079 295.876C197.815 296.236 197.683 296.76 197.683 297.448V301H196.639V296.86C196.639 295.844 196.199 295.336 195.319 295.336C194.671 295.336 194.223 295.536 193.975 295.936C193.727 296.336 193.603 296.912 193.603 297.664V301H192.547V294.568H193.399L193.555 295.444H193.615C193.815 295.108 194.083 294.86 194.419 294.7C194.763 294.532 195.127 294.448 195.511 294.448C196.519 294.448 197.175 294.808 197.479 295.528H197.539C197.755 295.16 198.047 294.888 198.415 294.712C198.791 294.536 199.187 294.448 199.603 294.448ZM210.818 294.448C211.546 294.448 212.09 294.636 212.45 295.012C212.81 295.38 212.99 295.98 212.99 296.812V301H211.946V296.86C211.946 295.844 211.51 295.336 210.638 295.336C210.014 295.336 209.566 295.516 209.294 295.876C209.03 296.236 208.898 296.76 208.898 297.448V301H207.854V296.86C207.854 295.844 207.414 295.336 206.534 295.336C205.886 295.336 205.438 295.536 205.19 295.936C204.942 296.336 204.818 296.912 204.818 297.664V301H203.762V294.568H204.614L204.77 295.444H204.83C205.03 295.108 205.298 294.86 205.634 294.7C205.978 294.532 206.342 294.448 206.726 294.448C207.734 294.448 208.39 294.808 208.694 295.528H208.754C208.97 295.16 209.262 294.888 209.63 294.712C210.006 294.536 210.402 294.448 210.818 294.448ZM220.353 294.568V301H219.489L219.333 300.148H219.285C219.077 300.484 218.789 300.732 218.421 300.892C218.053 301.044 217.661 301.12 217.245 301.12C216.469 301.12 215.885 300.936 215.493 300.568C215.101 300.192 214.905 299.596 214.905 298.78V294.568H215.973V298.708C215.973 299.732 216.449 300.244 217.401 300.244C218.113 300.244 218.605 300.044 218.877 299.644C219.157 299.244 219.297 298.668 219.297 297.916V294.568H220.353ZM225.491 294.448C226.259 294.448 226.839 294.636 227.231 295.012C227.623 295.38 227.819 295.98 227.819 296.812V301H226.775V296.884C226.775 295.852 226.295 295.336 225.335 295.336C224.623 295.336 224.131 295.536 223.859 295.936C223.587 296.336 223.451 296.912 223.451 297.664V301H222.395V294.568H223.247L223.403 295.444H223.463C223.671 295.108 223.959 294.86 224.327 294.7C224.695 294.532 225.083 294.448 225.491 294.448ZM230.353 292.156C230.513 292.156 230.653 292.212 230.773 292.324C230.901 292.428 230.965 292.596 230.965 292.828C230.965 293.052 230.901 293.22 230.773 293.332C230.653 293.444 230.513 293.5 230.353 293.5C230.177 293.5 230.029 293.444 229.909 293.332C229.789 293.22 229.729 293.052 229.729 292.828C229.729 292.596 229.789 292.428 229.909 292.324C230.029 292.212 230.177 292.156 230.353 292.156ZM230.869 294.568V301H229.813V294.568H230.869ZM235.055 300.256C235.215 300.256 235.379 300.244 235.547 300.22C235.715 300.188 235.851 300.156 235.955 300.124V300.928C235.843 300.984 235.683 301.028 235.475 301.06C235.267 301.1 235.067 301.12 234.875 301.12C234.539 301.12 234.227 301.064 233.939 300.952C233.659 300.832 233.431 300.628 233.255 300.34C233.079 300.052 232.991 299.648 232.991 299.128V295.384H232.079V294.88L233.003 294.46L233.423 293.092H234.047V294.568H235.907V295.384H234.047V299.104C234.047 299.496 234.139 299.788 234.323 299.98C234.515 300.164 234.759 300.256 235.055 300.256ZM236.235 294.568H237.363L238.755 298.228C238.875 298.548 238.983 298.856 239.079 299.152C239.175 299.44 239.247 299.716 239.295 299.98H239.343C239.391 299.78 239.467 299.52 239.571 299.2C239.675 298.872 239.783 298.544 239.895 298.216L241.203 294.568H242.343L239.571 301.888C239.347 302.496 239.055 302.98 238.695 303.34C238.343 303.7 237.855 303.88 237.231 303.88C237.039 303.88 236.871 303.868 236.727 303.844C236.583 303.828 236.459 303.808 236.355 303.784V302.944C236.443 302.96 236.547 302.976 236.667 302.992C236.795 303.008 236.927 303.016 237.063 303.016C237.431 303.016 237.727 302.912 237.951 302.704C238.183 302.496 238.363 302.22 238.491 301.876L238.827 301.024L236.235 294.568ZM242.723 300.352C242.723 300.056 242.795 299.848 242.939 299.728C243.083 299.608 243.255 299.548 243.455 299.548C243.663 299.548 243.839 299.608 243.983 299.728C244.135 299.848 244.211 300.056 244.211 300.352C244.211 300.64 244.135 300.848 243.983 300.976C243.839 301.104 243.663 301.168 243.455 301.168C243.255 301.168 243.083 301.104 242.939 300.976C242.795 300.848 242.723 300.64 242.723 300.352ZM44.612 310.432C45.684 310.432 46.492 310.592 47.036 310.912C47.588 311.224 47.864 311.772 47.864 312.556C47.864 313.06 47.724 313.48 47.444 313.816C47.164 314.144 46.76 314.356 46.232 314.452V314.512C46.592 314.568 46.916 314.672 47.204 314.824C47.5 314.976 47.732 315.192 47.9 315.472C48.068 315.752 48.152 316.116 48.152 316.564C48.152 317.34 47.884 317.94 47.348 318.364C46.82 318.788 46.096 319 45.176 319H42.164V310.432H44.612ZM44.828 314.08C45.564 314.08 46.068 313.964 46.34 313.732C46.612 313.492 46.748 313.14 46.748 312.676C46.748 312.204 46.58 311.868 46.244 311.668C45.916 311.46 45.388 311.356 44.66 311.356H43.244V314.08H44.828ZM43.244 314.98V318.088H44.972C45.732 318.088 46.26 317.94 46.556 317.644C46.852 317.348 47 316.96 47 316.48C47 316.032 46.844 315.672 46.532 315.4C46.228 315.12 45.68 314.98 44.888 314.98H43.244ZM50.8807 319H49.8247V309.88H50.8807V319ZM55.3544 312.46C56.1384 312.46 56.7184 312.632 57.0944 312.976C57.4704 313.32 57.6584 313.868 57.6584 314.62V319H56.8904L56.6864 318.088H56.6384C56.3584 318.44 56.0624 318.7 55.7504 318.868C55.4464 319.036 55.0224 319.12 54.4784 319.12C53.8944 319.12 53.4104 318.968 53.0264 318.664C52.6424 318.352 52.4504 317.868 52.4504 317.212C52.4504 316.572 52.7024 316.08 53.2064 315.736C53.7104 315.384 54.4864 315.192 55.5344 315.16L56.6264 315.124V314.74C56.6264 314.204 56.5104 313.832 56.2784 313.624C56.0464 313.416 55.7184 313.312 55.2944 313.312C54.9584 313.312 54.6384 313.364 54.3344 313.468C54.0304 313.564 53.7464 313.676 53.4824 313.804L53.1584 313.012C53.4384 312.86 53.7704 312.732 54.1544 312.628C54.5384 312.516 54.9384 312.46 55.3544 312.46ZM55.6664 315.892C54.8664 315.924 54.3104 316.052 53.9984 316.276C53.6944 316.5 53.5424 316.816 53.5424 317.224C53.5424 317.584 53.6504 317.848 53.8664 318.016C54.0904 318.184 54.3744 318.268 54.7184 318.268C55.2624 318.268 55.7144 318.12 56.0744 317.824C56.4344 317.52 56.6144 317.056 56.6144 316.432V315.856L55.6664 315.892ZM62.225 319.12C61.657 319.12 61.149 319.004 60.701 318.772C60.261 318.54 59.913 318.18 59.657 317.692C59.409 317.204 59.285 316.58 59.285 315.82C59.285 315.028 59.417 314.384 59.681 313.888C59.945 313.392 60.301 313.028 60.749 312.796C61.205 312.564 61.721 312.448 62.297 312.448C62.625 312.448 62.941 312.484 63.245 312.556C63.549 312.62 63.797 312.7 63.989 312.796L63.665 313.672C63.473 313.6 63.249 313.532 62.993 313.468C62.737 313.404 62.497 313.372 62.273 313.372C61.009 313.372 60.377 314.184 60.377 315.808C60.377 316.584 60.529 317.18 60.833 317.596C61.145 318.004 61.605 318.208 62.213 318.208C62.565 318.208 62.873 318.172 63.137 318.1C63.409 318.028 63.657 317.94 63.881 317.836V318.772C63.665 318.884 63.425 318.968 63.161 319.024C62.905 319.088 62.593 319.12 62.225 319.12ZM66.4546 314.644C66.4546 314.772 66.4466 314.94 66.4306 315.148C66.4226 315.356 66.4146 315.536 66.4066 315.688H66.4546C66.5026 315.624 66.5746 315.532 66.6706 315.412C66.7666 315.292 66.8626 315.172 66.9586 315.052C67.0626 314.924 67.1506 314.82 67.2226 314.74L69.2746 312.568H70.5106L67.9066 315.316L70.6906 319H69.4186L67.1866 316L66.4546 316.636V319H65.4106V309.88H66.4546V314.644ZM75.994 319H74.938V309.88H75.994V319ZM78.5717 310.156C78.7317 310.156 78.8717 310.212 78.9917 310.324C79.1197 310.428 79.1837 310.596 79.1837 310.828C79.1837 311.052 79.1197 311.22 78.9917 311.332C78.8717 311.444 78.7317 311.5 78.5717 311.5C78.3957 311.5 78.2477 311.444 78.1277 311.332C78.0077 311.22 77.9477 311.052 77.9477 310.828C77.9477 310.596 78.0077 310.428 78.1277 310.324C78.2477 310.212 78.3957 310.156 78.5717 310.156ZM79.0877 312.568V319H78.0317V312.568H79.0877ZM82.5415 319L80.1055 312.568H81.2335L82.6015 316.36C82.6655 316.536 82.7335 316.732 82.8055 316.948C82.8775 317.164 82.9415 317.372 82.9975 317.572C83.0535 317.764 83.0935 317.928 83.1175 318.064H83.1655C83.1975 317.928 83.2415 317.76 83.2975 317.56C83.3615 317.36 83.4295 317.152 83.5015 316.936C83.5815 316.72 83.6495 316.528 83.7055 316.36L85.0735 312.568H86.2015L83.7535 319H82.5415ZM89.7032 312.448C90.2552 312.448 90.7272 312.568 91.1192 312.808C91.5192 313.048 91.8232 313.388 92.0312 313.828C92.2472 314.26 92.3552 314.768 92.3552 315.352V315.988H87.9512C87.9672 316.716 88.1512 317.272 88.5032 317.656C88.8632 318.032 89.3632 318.22 90.0032 318.22C90.4112 318.22 90.7712 318.184 91.0832 318.112C91.4032 318.032 91.7312 317.92 92.0672 317.776V318.7C91.7392 318.844 91.4152 318.948 91.0952 319.012C90.7752 319.084 90.3952 319.12 89.9552 319.12C89.3472 319.12 88.8072 318.996 88.3352 318.748C87.8712 318.5 87.5072 318.132 87.2432 317.644C86.9872 317.148 86.8592 316.544 86.8592 315.832C86.8592 315.128 86.9752 314.524 87.2072 314.02C87.4472 313.516 87.7792 313.128 88.2032 312.856C88.6352 312.584 89.1352 312.448 89.7032 312.448ZM89.6912 313.312C89.1872 313.312 88.7872 313.476 88.4912 313.804C88.2032 314.124 88.0312 314.572 87.9752 315.148H91.2512C91.2432 314.604 91.1152 314.164 90.8672 313.828C90.6192 313.484 90.2272 313.312 89.6912 313.312ZM98.1807 317.224C98.1807 317.848 97.9487 318.32 97.4847 318.64C97.0207 318.96 96.3967 319.12 95.6127 319.12C95.1647 319.12 94.7767 319.084 94.4487 319.012C94.1287 318.94 93.8447 318.84 93.5967 318.712V317.752C93.8527 317.88 94.1607 318 94.5207 318.112C94.8887 318.216 95.2607 318.268 95.6367 318.268C96.1727 318.268 96.5607 318.184 96.8007 318.016C97.0407 317.84 97.1607 317.608 97.1607 317.32C97.1607 317.16 97.1167 317.016 97.0287 316.888C96.9407 316.76 96.7807 316.632 96.5487 316.504C96.3247 316.376 96.0007 316.232 95.5767 316.072C95.1607 315.912 94.8047 315.752 94.5087 315.592C94.2127 315.432 93.9847 315.24 93.8247 315.016C93.6647 314.792 93.5847 314.504 93.5847 314.152C93.5847 313.608 93.8047 313.188 94.2447 312.892C94.6927 312.596 95.2767 312.448 95.9967 312.448C96.3887 312.448 96.7527 312.488 97.0887 312.568C97.4327 312.64 97.7527 312.744 98.0487 312.88L97.6887 313.72C97.4167 313.608 97.1327 313.512 96.8367 313.432C96.5407 313.352 96.2367 313.312 95.9247 313.312C95.4927 313.312 95.1607 313.384 94.9287 313.528C94.7047 313.664 94.5927 313.852 94.5927 314.092C94.5927 314.268 94.6447 314.42 94.7487 314.548C94.8527 314.668 95.0247 314.788 95.2647 314.908C95.5127 315.02 95.8407 315.156 96.2487 315.316C96.6567 315.468 97.0047 315.624 97.2927 315.784C97.5807 315.944 97.8007 316.14 97.9527 316.372C98.1047 316.596 98.1807 316.88 98.1807 317.224ZM109.908 312.448C110.636 312.448 111.18 312.636 111.54 313.012C111.9 313.38 112.08 313.98 112.08 314.812V319H111.036V314.86C111.036 313.844 110.6 313.336 109.728 313.336C109.104 313.336 108.656 313.516 108.384 313.876C108.12 314.236 107.988 314.76 107.988 315.448V319H106.944V314.86C106.944 313.844 106.504 313.336 105.624 313.336C104.976 313.336 104.528 313.536 104.28 313.936C104.032 314.336 103.908 314.912 103.908 315.664V319H102.852V312.568H103.704L103.86 313.444H103.92C104.12 313.108 104.388 312.86 104.724 312.7C105.068 312.532 105.432 312.448 105.816 312.448C106.824 312.448 107.48 312.808 107.784 313.528H107.844C108.06 313.16 108.352 312.888 108.72 312.712C109.096 312.536 109.492 312.448 109.908 312.448ZM116.503 312.46C117.287 312.46 117.867 312.632 118.243 312.976C118.619 313.32 118.807 313.868 118.807 314.62V319H118.039L117.835 318.088H117.787C117.507 318.44 117.211 318.7 116.899 318.868C116.595 319.036 116.171 319.12 115.627 319.12C115.043 319.12 114.559 318.968 114.175 318.664C113.791 318.352 113.599 317.868 113.599 317.212C113.599 316.572 113.851 316.08 114.355 315.736C114.859 315.384 115.635 315.192 116.683 315.16L117.775 315.124V314.74C117.775 314.204 117.659 313.832 117.427 313.624C117.195 313.416 116.867 313.312 116.443 313.312C116.107 313.312 115.787 313.364 115.483 313.468C115.179 313.564 114.895 313.676 114.631 313.804L114.307 313.012C114.587 312.86 114.919 312.732 115.303 312.628C115.687 312.516 116.087 312.46 116.503 312.46ZM116.815 315.892C116.015 315.924 115.459 316.052 115.147 316.276C114.843 316.5 114.691 316.816 114.691 317.224C114.691 317.584 114.799 317.848 115.015 318.016C115.239 318.184 115.523 318.268 115.867 318.268C116.411 318.268 116.863 318.12 117.223 317.824C117.583 317.52 117.763 317.056 117.763 316.432V315.856L116.815 315.892ZM122.941 318.256C123.101 318.256 123.265 318.244 123.433 318.22C123.601 318.188 123.737 318.156 123.841 318.124V318.928C123.729 318.984 123.569 319.028 123.361 319.06C123.153 319.1 122.953 319.12 122.761 319.12C122.425 319.12 122.113 319.064 121.825 318.952C121.545 318.832 121.317 318.628 121.141 318.34C120.965 318.052 120.877 317.648 120.877 317.128V313.384H119.965V312.88L120.889 312.46L121.309 311.092H121.933V312.568H123.793V313.384H121.933V317.104C121.933 317.496 122.025 317.788 122.209 317.98C122.401 318.164 122.645 318.256 122.941 318.256ZM127.277 318.256C127.437 318.256 127.601 318.244 127.769 318.22C127.937 318.188 128.073 318.156 128.177 318.124V318.928C128.065 318.984 127.905 319.028 127.697 319.06C127.489 319.1 127.289 319.12 127.097 319.12C126.761 319.12 126.449 319.064 126.161 318.952C125.881 318.832 125.653 318.628 125.477 318.34C125.301 318.052 125.213 317.648 125.213 317.128V313.384H124.301V312.88L125.225 312.46L125.645 311.092H126.269V312.568H128.129V313.384H126.269V317.104C126.269 317.496 126.361 317.788 126.545 317.98C126.737 318.164 126.981 318.256 127.277 318.256ZM131.949 312.448C132.501 312.448 132.973 312.568 133.365 312.808C133.765 313.048 134.069 313.388 134.277 313.828C134.493 314.26 134.601 314.768 134.601 315.352V315.988H130.197C130.213 316.716 130.397 317.272 130.749 317.656C131.109 318.032 131.609 318.22 132.249 318.22C132.657 318.22 133.017 318.184 133.329 318.112C133.649 318.032 133.977 317.92 134.313 317.776V318.7C133.985 318.844 133.661 318.948 133.341 319.012C133.021 319.084 132.641 319.12 132.201 319.12C131.593 319.12 131.053 318.996 130.581 318.748C130.117 318.5 129.753 318.132 129.489 317.644C129.233 317.148 129.105 316.544 129.105 315.832C129.105 315.128 129.221 314.524 129.453 314.02C129.693 313.516 130.025 313.128 130.449 312.856C130.881 312.584 131.381 312.448 131.949 312.448ZM131.937 313.312C131.433 313.312 131.033 313.476 130.737 313.804C130.449 314.124 130.277 314.572 130.221 315.148H133.497C133.489 314.604 133.361 314.164 133.113 313.828C132.865 313.484 132.473 313.312 131.937 313.312ZM139.239 312.448C139.359 312.448 139.487 312.456 139.623 312.472C139.767 312.48 139.891 312.496 139.995 312.52L139.863 313.492C139.759 313.468 139.643 313.448 139.515 313.432C139.395 313.416 139.279 313.408 139.167 313.408C138.839 313.408 138.531 313.5 138.243 313.684C137.955 313.86 137.723 314.112 137.547 314.44C137.379 314.76 137.295 315.136 137.295 315.568V319H136.239V312.568H137.103L137.223 313.744H137.271C137.479 313.392 137.747 313.088 138.075 312.832C138.403 312.576 138.791 312.448 139.239 312.448ZM139.118 318.352C139.118 318.056 139.19 317.848 139.334 317.728C139.478 317.608 139.65 317.548 139.85 317.548C140.058 317.548 140.234 317.608 140.378 317.728C140.53 317.848 140.606 318.056 140.606 318.352C140.606 318.64 140.53 318.848 140.378 318.976C140.234 319.104 140.058 319.168 139.85 319.168C139.65 319.168 139.478 319.104 139.334 318.976C139.19 318.848 139.118 318.64 139.118 318.352Z" fill="#121C2D"/>
<path d="M41.384 271V270.088H42.152C42.3547 270.088 42.5253 270.019 42.664 269.88C42.8027 269.731 42.872 269.496 42.872 269.176V261.4C42.872 261.048 42.792 260.808 42.632 260.68C42.4827 260.552 42.296 260.488 42.072 260.488H41.384V259.576H47.08V260.488H46.44C46.2373 260.488 46.072 260.552 45.944 260.68C45.8267 260.808 45.768 261.043 45.768 261.384V264.52H49.512V261.416C49.512 261.053 49.448 260.808 49.32 260.68C49.192 260.552 49.0107 260.488 48.776 260.488H48.2V259.576H53.896V260.488H53.128C52.9147 260.488 52.7387 260.552 52.6 260.68C52.472 260.808 52.408 261.053 52.408 261.416V269.192C52.408 269.512 52.4773 269.741 52.616 269.88C52.7547 270.019 52.9253 270.088 53.128 270.088H53.896V271H48.2V270.088H48.792C49.016 270.088 49.192 270.013 49.32 269.864C49.448 269.715 49.512 269.469 49.512 269.128V265.56H45.768V269.176C45.768 269.496 45.8267 269.731 45.944 269.88C46.072 270.019 46.2373 270.088 46.44 270.088H47.08V271H41.384ZM59.2896 271.16C57.839 271.16 56.7563 270.776 56.0416 270.008C55.327 269.229 54.9696 268.141 54.9696 266.744C54.9696 265.24 55.327 264.109 56.0416 263.352C56.767 262.584 57.7856 262.2 59.0976 262.2C60.3136 262.2 61.2683 262.525 61.9616 263.176C62.6656 263.827 63.0176 264.787 63.0176 266.056V266.92H57.8016C57.823 267.944 58.015 268.696 58.3776 269.176C58.7403 269.645 59.2576 269.88 59.9296 269.88C60.4843 269.88 60.9323 269.747 61.2736 269.48C61.6256 269.213 61.8923 268.883 62.0736 268.488C62.2443 268.552 62.383 268.653 62.4896 268.792C62.5963 268.931 62.6496 269.096 62.6496 269.288C62.6496 269.597 62.5323 269.896 62.2976 270.184C62.0736 270.472 61.711 270.707 61.2096 270.888C60.719 271.069 60.079 271.16 59.2896 271.16ZM60.2336 265.832C60.2336 265.032 60.1483 264.413 59.9776 263.976C59.8176 263.528 59.5456 263.304 59.1616 263.304C58.767 263.304 58.447 263.523 58.2016 263.96C57.967 264.387 57.8443 265.011 57.8336 265.832H60.2336ZM66.8406 271.16C66.1473 271.16 65.5553 270.947 65.0646 270.52C64.574 270.093 64.3286 269.432 64.3286 268.536C64.3286 267.661 64.622 267.016 65.2086 266.6C65.7953 266.184 66.686 265.955 67.8806 265.912L69.1926 265.864V265C69.1926 264.435 69.1286 264.003 69.0006 263.704C68.8726 263.395 68.6326 263.24 68.2806 263.24C67.9606 263.24 67.7206 263.395 67.5606 263.704C67.4113 264.013 67.3366 264.435 67.3366 264.968C66.558 264.968 65.9713 264.888 65.5766 264.728C65.1926 264.557 65.0006 264.269 65.0006 263.864C65.0006 263.469 65.1553 263.149 65.4646 262.904C65.7846 262.659 66.206 262.483 66.7286 262.376C67.2513 262.259 67.8273 262.2 68.4566 262.2C69.6406 262.2 70.526 262.403 71.1126 262.808C71.6993 263.203 71.9926 263.901 71.9926 264.904V268.952C71.9926 269.389 72.062 269.688 72.2006 269.848C72.3393 270.008 72.59 270.088 72.9526 270.088H73.0166V271H69.7046L69.3366 270.008H69.1926C68.9473 270.296 68.718 270.525 68.5046 270.696C68.302 270.856 68.0726 270.973 67.8166 271.048C67.5606 271.123 67.2353 271.16 66.8406 271.16ZM67.9446 269.928C68.318 269.928 68.6166 269.747 68.8406 269.384C69.0753 269.021 69.1926 268.541 69.1926 267.944V266.776L68.6006 266.824C68.0673 266.856 67.694 267.021 67.4806 267.32C67.278 267.608 67.1766 268.029 67.1766 268.584C67.1766 269.48 67.4326 269.928 67.9446 269.928ZM77.4048 271.16C76.3594 271.16 75.5541 270.808 74.9888 270.104C74.4234 269.389 74.1408 268.264 74.1408 266.728C74.1408 265.181 74.4234 264.045 74.9888 263.32C75.5541 262.584 76.3488 262.216 77.3728 262.216C77.9594 262.216 78.4341 262.328 78.7968 262.552C79.1594 262.776 79.4528 263.053 79.6768 263.384H79.7728C79.7514 263.117 79.7301 262.813 79.7088 262.472C79.6981 262.12 79.6928 261.8 79.6928 261.512V260.712C79.6928 260.285 79.5648 260.019 79.3088 259.912C79.0634 259.805 78.7648 259.752 78.4128 259.752H78.2848V258.84H82.5087V268.856C82.5087 269.357 82.6208 269.688 82.8448 269.848C83.0688 270.008 83.3674 270.088 83.7408 270.088H83.8368V271H80.5088L79.9968 269.832H79.8848C79.6394 270.237 79.3194 270.563 78.9248 270.808C78.5408 271.043 78.0341 271.16 77.4048 271.16ZM78.2688 269.896C78.8128 269.896 79.1861 269.635 79.3888 269.112C79.5914 268.579 79.6928 267.768 79.6928 266.68C79.6928 265.656 79.5914 264.867 79.3888 264.312C79.1968 263.747 78.8234 263.464 78.2688 263.464C77.7994 263.464 77.4634 263.747 77.2608 264.312C77.0688 264.867 76.9728 265.661 76.9728 266.696C76.9728 267.763 77.0688 268.563 77.2608 269.096C77.4634 269.629 77.7994 269.896 78.2688 269.896ZM87.8861 271.16C87.0435 271.16 86.3768 271.075 85.8861 270.904C85.3955 270.733 85.0435 270.509 84.8301 270.232C84.6168 269.944 84.5101 269.624 84.5101 269.272C84.5101 268.941 84.5901 268.691 84.7501 268.52C84.9101 268.339 85.1128 268.211 85.3581 268.136C85.6035 268.061 85.8541 268.024 86.1101 268.024C86.1101 268.728 86.2755 269.251 86.6061 269.592C86.9368 269.933 87.3688 270.104 87.9021 270.104C88.4355 270.104 88.8141 270.008 89.0381 269.816C89.2728 269.613 89.3901 269.384 89.3901 269.128C89.3901 268.797 89.2408 268.536 88.9421 268.344C88.6435 268.141 88.1421 267.928 87.4381 267.704C86.5208 267.416 85.8221 267.064 85.3421 266.648C84.8728 266.232 84.6381 265.64 84.6381 264.872C84.6381 263.965 84.9688 263.299 85.6301 262.872C86.2915 262.435 87.1661 262.216 88.2541 262.216C88.9581 262.216 89.5235 262.291 89.9501 262.44C90.3768 262.589 90.6861 262.781 90.8781 263.016C91.0808 263.251 91.1821 263.491 91.1821 263.736C91.1821 264.109 91.0488 264.392 90.7821 264.584C90.5155 264.776 90.0835 264.872 89.4861 264.872C89.4861 264.349 89.3475 263.944 89.0701 263.656C88.8035 263.368 88.4461 263.224 87.9981 263.224C87.6675 263.224 87.3795 263.299 87.1341 263.448C86.8995 263.597 86.7821 263.816 86.7821 264.104C86.7821 264.317 86.8408 264.504 86.9581 264.664C87.0755 264.813 87.2781 264.957 87.5661 265.096C87.8648 265.235 88.2861 265.389 88.8301 265.56C89.3528 265.731 89.8168 265.928 90.2221 266.152C90.6275 266.376 90.9421 266.659 91.1661 267C91.3901 267.341 91.5021 267.768 91.5021 268.28C91.5021 269.155 91.1928 269.853 90.5741 270.376C89.9555 270.899 89.0595 271.16 87.8861 271.16ZM100.284 271.16C99.3772 271.16 98.7052 270.899 98.2679 270.376C97.8412 269.853 97.6279 269.053 97.6279 267.976V264.488C97.6279 264.029 97.5639 263.725 97.4359 263.576C97.3079 263.416 97.0465 263.336 96.6519 263.336H96.6039V262.424H100.444V267.384C100.444 268.067 100.513 268.621 100.652 269.048C100.791 269.464 101.063 269.672 101.468 269.672C101.905 269.672 102.22 269.459 102.412 269.032C102.604 268.605 102.7 268.029 102.7 267.304V264.312C102.7 263.864 102.604 263.592 102.412 263.496C102.231 263.389 101.996 263.336 101.708 263.336H101.644V262.424H105.5V269.096C105.5 269.555 105.585 269.837 105.756 269.944C105.937 270.04 106.177 270.088 106.476 270.088H106.636V271H103.196L102.78 269.928H102.7C102.433 270.376 102.097 270.696 101.692 270.888C101.297 271.069 100.828 271.16 100.284 271.16ZM107.223 274.68V273.752H107.431C107.559 273.752 107.703 273.731 107.863 273.688C108.034 273.645 108.183 273.549 108.311 273.4C108.439 273.261 108.503 273.048 108.503 272.76V264.472C108.503 263.981 108.412 263.672 108.231 263.544C108.06 263.405 107.831 263.336 107.543 263.336H107.447V262.424H110.727L111.063 263.592H111.127C111.362 263.208 111.676 262.893 112.071 262.648C112.466 262.392 112.967 262.264 113.575 262.264C114.642 262.264 115.452 262.627 116.007 263.352C116.572 264.067 116.855 265.203 116.855 266.76C116.855 268.307 116.578 269.437 116.023 270.152C115.468 270.856 114.658 271.208 113.591 271.208C113.026 271.208 112.562 271.112 112.199 270.92C111.847 270.728 111.554 270.461 111.319 270.12H111.223C111.244 270.376 111.266 270.675 111.287 271.016C111.308 271.368 111.319 271.683 111.319 271.96V272.728C111.319 273.027 111.378 273.251 111.495 273.4C111.623 273.549 111.767 273.645 111.927 273.688C112.098 273.731 112.247 273.752 112.375 273.752H112.839V274.68H107.223ZM112.711 269.96C113.18 269.96 113.516 269.704 113.719 269.192C113.932 268.669 114.039 267.869 114.039 266.792C114.039 265.757 113.938 264.957 113.735 264.392C113.532 263.816 113.202 263.528 112.743 263.528C112.178 263.528 111.799 263.816 111.607 264.392C111.415 264.957 111.319 265.747 111.319 266.76C111.319 267.859 111.415 268.669 111.607 269.192C111.799 269.704 112.167 269.96 112.711 269.96ZM120.01 267.272L119.034 259.576H122.202L121.242 267.272H120.01ZM120.634 271.144C120.239 271.144 119.903 271.043 119.626 270.84C119.359 270.637 119.226 270.275 119.226 269.752C119.226 269.229 119.359 268.867 119.626 268.664C119.903 268.461 120.239 268.36 120.634 268.36C121.007 268.36 121.333 268.461 121.61 268.664C121.898 268.867 122.042 269.229 122.042 269.752C122.042 270.275 121.898 270.637 121.61 270.84C121.333 271.043 121.007 271.144 120.634 271.144Z" fill="black"/>
<path fill-rule="evenodd" clip-rule="evenodd" d="M273.089 247.408L270.506 244.824L273.089 242.24C273.423 241.906 273.423 241.364 273.089 241.03C272.756 240.697 272.213 240.697 271.88 241.03L269.296 243.614L266.712 241.03C266.379 240.697 265.836 240.697 265.503 241.03C265.169 241.364 265.169 241.906 265.503 242.24L268.086 244.824L265.503 247.408C265.169 247.741 265.169 248.284 265.503 248.617C265.836 248.951 266.379 248.951 266.712 248.617L269.296 246.033L271.88 248.617C272.213 248.951 272.756 248.951 273.089 248.617C273.423 248.284 273.423 247.741 273.089 247.408Z" fill="#606B85"/>
<line x1="85.6626" y1="43.4287" x2="85.6626" y2="69.0059" stroke="#CCE4FF" stroke-width="2"/>
<ellipse cx="85.5771" cy="75.3996" rx="7.30778" ry="7.30617" transform="rotate(90 85.5771 75.3996)" fill="#CCE4FF"/>
<ellipse cx="85.5764" cy="75.4" rx="3.65389" ry="3.65309" transform="rotate(90 85.5764 75.4)" fill="#99CDFF"/>
<rect x="73.7466" y="11.5" width="129.495" height="43.111" rx="3.17592" fill="white"/>
<path d="M86.4654 20.754C86.7399 20.754 87.0572 20.8012 87.4175 20.8956L87.2631 23.1985H86.3882V21.7447H86.3239C85.2775 21.7447 84.5355 22.4909 84.0981 23.9833V26.8395H85.4747V27.6758H81.9495V26.8395H83.0174V21.7318H81.9495V20.8956H83.8279L84.0338 22.5038C84.3082 21.9205 84.6342 21.4831 85.0116 21.1915C85.3975 20.8998 85.8822 20.754 86.4654 20.754ZM92.1856 20.754C93.1205 20.754 93.8367 21.0714 94.3342 21.7061C94.8402 22.3322 95.0933 23.1899 95.0933 24.2792C95.0933 25.3428 94.8359 26.2005 94.3213 26.8524C93.8153 27.4957 93.0991 27.8173 92.1727 27.8173C91.2378 27.8173 90.5174 27.5042 90.0113 26.8781C89.5053 26.2434 89.2522 25.3814 89.2522 24.2921C89.2522 23.22 89.5053 22.3622 90.0113 21.719C90.5259 21.0757 91.2507 20.754 92.1856 20.754ZM92.1856 21.6418C91.5938 21.6418 91.1521 21.8605 90.8604 22.2979C90.5688 22.7353 90.423 23.4001 90.423 24.2921C90.423 25.1841 90.5645 25.8489 90.8476 26.2863C91.1392 26.7151 91.5809 26.9296 92.1727 26.9296C92.7646 26.9296 93.202 26.7151 93.4851 26.2863C93.7767 25.8489 93.9225 25.1798 93.9225 24.2792C93.9225 23.3872 93.7767 22.7268 93.4851 22.2979C93.202 21.8605 92.7689 21.6418 92.1856 21.6418ZM99.9643 26.0032C99.9643 26.6122 100.337 26.9167 101.084 26.9167C101.435 26.9167 101.813 26.8395 102.216 26.6851L102.499 27.4699C102.07 27.7015 101.534 27.8173 100.891 27.8173C100.282 27.8173 99.7928 27.65 99.424 27.3155C99.0637 26.981 98.8836 26.5264 98.8836 25.9518V19.03H96.7994V18.168H99.9643V26.0032ZM105.89 24.6652C105.916 25.4114 106.109 25.9732 106.469 26.3506C106.838 26.728 107.301 26.9167 107.859 26.9167C108.193 26.9167 108.498 26.8695 108.772 26.7752C109.055 26.6723 109.356 26.5179 109.673 26.312L110.175 27.0325C109.857 27.2812 109.493 27.4742 109.081 27.6115C108.678 27.7487 108.271 27.8173 107.859 27.8173C106.881 27.8173 106.118 27.4999 105.569 26.8652C105.028 26.222 104.758 25.3642 104.758 24.2921C104.758 23.6145 104.878 23.0098 105.118 22.478C105.359 21.9377 105.702 21.5174 106.148 21.2172C106.594 20.9084 107.113 20.754 107.704 20.754C108.562 20.754 109.235 21.0542 109.724 21.6546C110.222 22.2465 110.471 23.057 110.471 24.0862C110.471 24.2835 110.462 24.4765 110.445 24.6652H105.89ZM107.717 21.6418C107.194 21.6418 106.77 21.8305 106.444 22.2079C106.118 22.5767 105.933 23.1213 105.89 23.8418H109.416C109.407 23.1299 109.253 22.5852 108.952 22.2079C108.652 21.8305 108.241 21.6418 107.717 21.6418ZM117.812 22.9155H112.82V21.9891H117.812V22.9155ZM117.812 25.36H112.82V24.4336H117.812V25.36ZM125.603 18.168V27.6758H124.651L124.549 26.788C124.3 27.1311 124.012 27.3884 123.687 27.56C123.361 27.7315 123.009 27.8173 122.632 27.8173C121.774 27.8173 121.126 27.5042 120.689 26.8781C120.26 26.252 120.046 25.39 120.046 24.2921C120.046 23.6145 120.153 23.0098 120.367 22.478C120.582 21.9377 120.886 21.5174 121.281 21.2172C121.684 20.9084 122.155 20.754 122.696 20.754C123.442 20.754 124.051 21.0242 124.523 21.5646V18.0394L125.603 18.168ZM122.979 21.6289C122.413 21.6289 121.975 21.8519 121.667 22.2979C121.366 22.7439 121.216 23.4087 121.216 24.2921C121.216 25.167 121.354 25.8317 121.628 26.2863C121.911 26.7323 122.318 26.9553 122.85 26.9553C123.494 26.9553 124.051 26.5951 124.523 25.8746V22.5038C124.334 22.2207 124.107 22.0063 123.841 21.8605C123.575 21.7061 123.288 21.6289 122.979 21.6289ZM130.745 17.7306C130.985 17.7306 131.178 17.8035 131.324 17.9493C131.47 18.0865 131.542 18.2667 131.542 18.4897C131.542 18.7127 131.47 18.8971 131.324 19.0429C131.178 19.1801 130.985 19.2487 130.745 19.2487C130.513 19.2487 130.324 19.1801 130.179 19.0429C130.041 18.8971 129.973 18.7127 129.973 18.4897C129.973 18.2667 130.041 18.0865 130.179 17.9493C130.324 17.8035 130.513 17.7306 130.745 17.7306ZM131.607 26.8138H133.511V27.6758H128.442V26.8138H130.526V21.7576H128.506V20.8956H131.607V26.8138ZM140.749 26.1962C140.749 26.4621 140.792 26.6594 140.878 26.788C140.964 26.9081 141.105 26.9982 141.302 27.0582L141.032 27.8302C140.372 27.7444 139.96 27.4228 139.797 26.8652C139.557 27.174 139.253 27.4099 138.884 27.5729C138.523 27.7358 138.12 27.8173 137.674 27.8173C136.997 27.8173 136.461 27.6286 136.066 27.2512C135.68 26.8738 135.487 26.3678 135.487 25.7331C135.487 25.0383 135.757 24.5022 136.298 24.1248C136.847 23.7475 137.631 23.5588 138.652 23.5588H139.656V23.0055C139.656 22.5252 139.518 22.1821 139.244 21.9763C138.969 21.7618 138.571 21.6546 138.047 21.6546C137.533 21.6546 136.945 21.7704 136.285 22.002L135.989 21.1786C136.787 20.8956 137.529 20.754 138.215 20.754C139.038 20.754 139.664 20.947 140.093 21.333C140.531 21.719 140.749 22.255 140.749 22.9412V26.1962ZM137.945 27.0068C138.279 27.0068 138.596 26.921 138.897 26.7494C139.205 26.5779 139.458 26.342 139.656 26.0418V24.305H138.678C137.957 24.305 137.438 24.425 137.121 24.6652C136.804 24.9054 136.645 25.257 136.645 25.7202C136.645 26.5779 137.078 27.0068 137.945 27.0068ZM146.251 26.0032C146.251 26.6122 146.624 26.9167 147.37 26.9167C147.722 26.9167 148.099 26.8395 148.502 26.6851L148.785 27.4699C148.356 27.7015 147.82 27.8173 147.177 27.8173C146.568 27.8173 146.079 27.65 145.71 27.3155C145.35 26.981 145.17 26.5264 145.17 25.9518V19.03H143.086V18.168H146.251V26.0032ZM153.901 20.754C154.836 20.754 155.552 21.0714 156.049 21.7061C156.555 22.3322 156.808 23.1899 156.808 24.2792C156.808 25.3428 156.551 26.2005 156.037 26.8524C155.53 27.4957 154.814 27.8173 153.888 27.8173C152.953 27.8173 152.233 27.5042 151.727 26.8781C151.22 26.2434 150.967 25.3814 150.967 24.2921C150.967 23.22 151.22 22.3622 151.727 21.719C152.241 21.0757 152.966 20.754 153.901 20.754ZM153.901 21.6418C153.309 21.6418 152.867 21.8605 152.576 22.2979C152.284 22.7353 152.138 23.4001 152.138 24.2921C152.138 25.1841 152.28 25.8489 152.563 26.2863C152.854 26.7151 153.296 26.9296 153.888 26.9296C154.48 26.9296 154.917 26.7151 155.2 26.2863C155.492 25.8489 155.638 25.1798 155.638 24.2792C155.638 23.3872 155.492 22.7268 155.2 22.2979C154.917 21.8605 154.484 21.6418 153.901 21.6418ZM164.87 21.2043C164.613 21.2901 164.334 21.3459 164.034 21.3716C163.734 21.3887 163.352 21.3973 162.889 21.3973C163.678 21.7576 164.073 22.3279 164.073 23.1085C164.073 23.7946 163.845 24.3521 163.391 24.781C162.936 25.2013 162.314 25.4114 161.525 25.4114C161.122 25.4114 160.783 25.3642 160.509 25.2699C160.406 25.3471 160.32 25.4457 160.251 25.5658C160.191 25.6859 160.161 25.806 160.161 25.926C160.161 26.312 160.462 26.505 161.062 26.505H162.284C162.73 26.505 163.133 26.5865 163.494 26.7494C163.862 26.9038 164.15 27.1226 164.356 27.4056C164.57 27.6886 164.677 28.0017 164.677 28.3448C164.677 29.0052 164.394 29.5113 163.828 29.863C163.271 30.2232 162.477 30.4033 161.448 30.4033C160.402 30.4033 159.664 30.2403 159.235 29.9144C158.806 29.5885 158.592 29.0696 158.592 28.3577H159.57C159.57 28.6407 159.621 28.8637 159.724 29.0267C159.835 29.1982 160.024 29.3226 160.29 29.3998C160.565 29.4856 160.95 29.5284 161.448 29.5284C162.177 29.5284 162.713 29.4341 163.056 29.2454C163.408 29.0567 163.584 28.7779 163.584 28.4091C163.584 28.1003 163.442 27.8602 163.159 27.6886C162.876 27.5257 162.512 27.4442 162.066 27.4442H160.856C160.299 27.4442 159.874 27.3241 159.582 27.084C159.291 26.8352 159.145 26.5264 159.145 26.1576C159.145 25.9432 159.209 25.7331 159.338 25.5272C159.467 25.3128 159.651 25.1284 159.891 24.974C159.505 24.7767 159.218 24.528 159.029 24.2278C158.849 23.919 158.759 23.5459 158.759 23.1085C158.759 22.6539 158.871 22.2507 159.094 21.8991C159.325 21.5388 159.642 21.2601 160.046 21.0628C160.457 20.857 160.929 20.754 161.461 20.754C162.233 20.754 162.82 20.7111 163.223 20.6254C163.627 20.5396 164.068 20.3938 164.549 20.1879L164.87 21.2043ZM161.448 21.5517C160.925 21.5517 160.53 21.6932 160.264 21.9763C159.998 22.2507 159.865 22.6281 159.865 23.1085C159.865 23.5888 159.998 23.9747 160.264 24.2664C160.539 24.5494 160.942 24.6909 161.474 24.6909C161.954 24.6909 162.319 24.5537 162.567 24.2792C162.825 23.9962 162.953 23.6016 162.953 23.0956C162.953 22.0663 162.451 21.5517 161.448 21.5517ZM86.7484 45.1962C86.7484 45.4621 86.7913 45.6594 86.8771 45.788C86.9629 45.9081 87.1044 45.9982 87.3017 46.0582L87.0315 46.8302C86.371 46.7444 85.9593 46.4228 85.7964 45.8652C85.5562 46.174 85.2517 46.4099 84.8829 46.5729C84.5227 46.7358 84.1195 46.8173 83.6735 46.8173C82.9959 46.8173 82.4599 46.6286 82.0653 46.2512C81.6794 45.8738 81.4864 45.3678 81.4864 44.7331C81.4864 44.0383 81.7565 43.5022 82.2969 43.1248C82.8458 42.7475 83.6307 42.5588 84.6513 42.5588H85.6549V42.0055C85.6549 41.5252 85.5176 41.1821 85.2432 40.9763C84.9687 40.7618 84.5698 40.6546 84.0466 40.6546C83.532 40.6546 82.9445 40.7704 82.284 41.002L81.9881 40.1786C82.7858 39.8956 83.5277 39.754 84.2139 39.754C85.0373 39.754 85.6634 39.947 86.0923 40.333C86.5297 40.719 86.7484 41.255 86.7484 41.9412V45.1962ZM83.9437 46.0068C84.2782 46.0068 84.5956 45.921 84.8958 45.7494C85.2046 45.5779 85.4576 45.342 85.6549 45.0418V43.305H84.6771C83.9566 43.305 83.4377 43.425 83.1203 43.6652C82.803 43.9054 82.6443 44.257 82.6443 44.7202C82.6443 45.5779 83.0774 46.0068 83.9437 46.0068ZM94.1798 39.754C94.4543 39.754 94.7716 39.8012 95.1319 39.8956L94.9775 42.1985H94.1026V40.7447H94.0383C92.9919 40.7447 92.2499 41.4909 91.8125 42.9833V45.8395H93.1891V46.6758H89.6639V45.8395H90.7318V40.7318H89.6639V39.8956H91.5423L91.7482 41.5038C92.0226 40.9205 92.3486 40.4831 92.726 40.1915C93.1119 39.8998 93.5966 39.754 94.1798 39.754ZM99.8871 36.7306C100.127 36.7306 100.32 36.8035 100.466 36.9493C100.612 37.0865 100.685 37.2667 100.685 37.4897C100.685 37.7127 100.612 37.8971 100.466 38.0429C100.32 38.1801 100.127 38.2487 99.8871 38.2487C99.6556 38.2487 99.4669 38.1801 99.3211 38.0429C99.1838 37.8971 99.1152 37.7127 99.1152 37.4897C99.1152 37.2667 99.1838 37.0865 99.3211 36.9493C99.4669 36.8035 99.6556 36.7306 99.8871 36.7306ZM100.749 45.8138H102.653V46.6758H97.5842V45.8138H99.6684V40.7576H97.6485V39.8956H100.749V45.8138ZM109.892 45.1962C109.892 45.4621 109.935 45.6594 110.02 45.788C110.106 45.9081 110.248 45.9982 110.445 46.0582L110.175 46.8302C109.514 46.7444 109.103 46.4228 108.94 45.8652C108.699 46.174 108.395 46.4099 108.026 46.5729C107.666 46.7358 107.263 46.8173 106.817 46.8173C106.139 46.8173 105.603 46.6286 105.209 46.2512C104.823 45.8738 104.63 45.3678 104.63 44.7331C104.63 44.0383 104.9 43.5022 105.44 43.1248C105.989 42.7475 106.774 42.5588 107.795 42.5588H108.798V42.0055C108.798 41.5252 108.661 41.1821 108.386 40.9763C108.112 40.7618 107.713 40.6546 107.19 40.6546C106.675 40.6546 106.088 40.7704 105.427 41.002L105.131 40.1786C105.929 39.8956 106.671 39.754 107.357 39.754C108.181 39.754 108.807 39.947 109.235 40.333C109.673 40.719 109.892 41.255 109.892 41.9412V45.1962ZM107.087 46.0068C107.421 46.0068 107.739 45.921 108.039 45.7494C108.348 45.5779 108.601 45.342 108.798 45.0418V43.305H107.82C107.1 43.305 106.581 43.425 106.264 43.6652C105.946 43.9054 105.787 44.257 105.787 44.7202C105.787 45.5779 106.221 46.0068 107.087 46.0068ZM113.064 42.1856H117.567V43.112H113.064V42.1856ZM124.922 39.754C125.308 39.754 125.621 39.8913 125.861 40.1657C126.11 40.4316 126.234 40.9205 126.234 41.6324V46.6758H125.243V41.8125C125.243 41.3408 125.213 41.0234 125.153 40.8605C125.093 40.6889 124.947 40.6032 124.716 40.6032C124.278 40.6032 123.884 40.8733 123.532 41.4137V46.6758H122.529V41.8125C122.529 41.3408 122.499 41.0234 122.439 40.8605C122.378 40.6889 122.233 40.6032 122.001 40.6032C121.564 40.6032 121.169 40.8733 120.817 41.4137V46.6758H119.827V39.8956H120.663L120.74 40.6932C120.946 40.393 121.161 40.1614 121.384 39.9985C121.615 39.8355 121.89 39.754 122.207 39.754C122.842 39.754 123.249 40.0542 123.429 40.6546C123.635 40.363 123.854 40.14 124.085 39.9856C124.317 39.8312 124.596 39.754 124.922 39.754ZM130.758 39.754C131.693 39.754 132.409 40.0714 132.906 40.7061C133.412 41.3322 133.665 42.1899 133.665 43.2792C133.665 44.3428 133.408 45.2005 132.893 45.8524C132.387 46.4957 131.671 46.8173 130.745 46.8173C129.81 46.8173 129.089 46.5042 128.583 45.8781C128.077 45.2434 127.824 44.3814 127.824 43.2921C127.824 42.22 128.077 41.3622 128.583 40.719C129.098 40.0757 129.823 39.754 130.758 39.754ZM130.758 40.6418C130.166 40.6418 129.724 40.8605 129.432 41.2979C129.141 41.7353 128.995 42.4001 128.995 43.2921C128.995 44.1841 129.137 44.8489 129.42 45.2863C129.711 45.7151 130.153 45.9296 130.745 45.9296C131.337 45.9296 131.774 45.7151 132.057 45.2863C132.349 44.8489 132.494 44.1798 132.494 43.2792C132.494 42.3872 132.349 41.7268 132.057 41.2979C131.774 40.8605 131.341 40.6418 130.758 40.6418ZM141.032 37.168V46.6758H140.08L139.977 45.788C139.729 46.1311 139.441 46.3884 139.115 46.56C138.789 46.7315 138.438 46.8173 138.06 46.8173C137.203 46.8173 136.555 46.5042 136.118 45.8781C135.689 45.252 135.474 44.39 135.474 43.2921C135.474 42.6145 135.582 42.0098 135.796 41.478C136.01 40.9377 136.315 40.5174 136.709 40.2172C137.113 39.9084 137.584 39.754 138.125 39.754C138.871 39.754 139.48 40.0242 139.952 40.5646V37.0394L141.032 37.168ZM138.408 40.6289C137.842 40.6289 137.404 40.8519 137.095 41.2979C136.795 41.7439 136.645 42.4087 136.645 43.2921C136.645 44.167 136.782 44.8317 137.057 45.2863C137.34 45.7323 137.747 45.9553 138.279 45.9553C138.922 45.9553 139.48 45.5951 139.952 44.8746V41.5038C139.763 41.2207 139.536 41.0063 139.27 40.8605C139.004 40.7061 138.716 40.6289 138.408 40.6289ZM148.464 45.1962C148.464 45.4621 148.507 45.6594 148.592 45.788C148.678 45.9081 148.82 45.9982 149.017 46.0582L148.747 46.8302C148.086 46.7444 147.675 46.4228 147.512 45.8652C147.271 46.174 146.967 46.4099 146.598 46.5729C146.238 46.7358 145.835 46.8173 145.389 46.8173C144.711 46.8173 144.175 46.6286 143.781 46.2512C143.395 45.8738 143.202 45.3678 143.202 44.7331C143.202 44.0383 143.472 43.5022 144.012 43.1248C144.561 42.7475 145.346 42.5588 146.367 42.5588H147.37V42.0055C147.37 41.5252 147.233 41.1821 146.958 40.9763C146.684 40.7618 146.285 40.6546 145.762 40.6546C145.247 40.6546 144.66 40.7704 143.999 41.002L143.703 40.1786C144.501 39.8956 145.243 39.754 145.929 39.754C146.753 39.754 147.379 39.947 147.808 40.333C148.245 40.719 148.464 41.255 148.464 41.9412V45.1962ZM145.659 46.0068C145.993 46.0068 146.311 45.921 146.611 45.7494C146.92 45.5779 147.173 45.342 147.37 45.0418V43.305H146.392C145.672 43.305 145.153 43.425 144.836 43.6652C144.518 43.9054 144.359 44.257 144.359 44.7202C144.359 45.5779 144.793 46.0068 145.659 46.0068ZM153.965 45.0032C153.965 45.6122 154.338 45.9167 155.084 45.9167C155.436 45.9167 155.814 45.8395 156.217 45.6851L156.5 46.4699C156.071 46.7015 155.535 46.8173 154.891 46.8173C154.283 46.8173 153.794 46.65 153.425 46.3155C153.065 45.981 152.884 45.5264 152.884 44.9518V38.03H150.8V37.168H153.965V45.0032ZM164.098 41.9155H159.106V40.9891H164.098V41.9155ZM164.098 44.36H159.106V43.4336H164.098V44.36ZM172.134 46.3284C171.903 46.4828 171.62 46.6029 171.285 46.6886C170.959 46.7744 170.633 46.8173 170.307 46.8173C169.596 46.8173 169.038 46.6329 168.635 46.2641C168.232 45.8867 168.03 45.3935 168.03 44.7845V40.7447H166.473V39.8956H168.03V38.3645L169.111 38.2359V39.8956H171.465L171.324 40.7447H169.111V44.7717C169.111 45.1576 169.214 45.445 169.42 45.6337C169.626 45.8224 169.956 45.9167 170.41 45.9167C170.874 45.9167 171.307 45.8095 171.71 45.5951L172.134 46.3284ZM179.038 39.754C179.313 39.754 179.63 39.8012 179.99 39.8956L179.836 42.1985H178.961V40.7447H178.897C177.85 40.7447 177.108 41.4909 176.671 42.9833V45.8395H178.048V46.6758H174.522V45.8395H175.59V40.7318H174.522V39.8956H176.401L176.607 41.5038C176.881 40.9205 177.207 40.4831 177.584 40.1915C177.97 39.8998 178.455 39.754 179.038 39.754ZM183.253 44.7073C183.253 45.1448 183.343 45.4664 183.523 45.6723C183.712 45.8695 184.004 45.9682 184.398 45.9682C184.758 45.9682 185.106 45.8652 185.44 45.6594C185.775 45.4535 186.041 45.1962 186.238 44.8874V39.8956H187.319V46.6758H186.392L186.302 45.7623C186.036 46.0968 185.706 46.3584 185.312 46.5471C184.926 46.7272 184.531 46.8173 184.128 46.8173C183.485 46.8173 182.996 46.6458 182.661 46.3027C182.335 45.9596 182.172 45.4664 182.172 44.8231V39.8956H183.253V44.7073ZM190.749 43.6652C190.775 44.4114 190.968 44.9732 191.328 45.3506C191.697 45.728 192.16 45.9167 192.717 45.9167C193.052 45.9167 193.356 45.8695 193.631 45.7752C193.914 45.6723 194.214 45.5179 194.531 45.312L195.033 46.0325C194.716 46.2812 194.351 46.4742 193.94 46.6115C193.536 46.7487 193.129 46.8173 192.717 46.8173C191.739 46.8173 190.976 46.4999 190.427 45.8652C189.887 45.222 189.617 44.3642 189.617 43.2921C189.617 42.6145 189.737 42.0098 189.977 41.478C190.217 40.9377 190.56 40.5174 191.006 40.2172C191.452 39.9084 191.971 39.754 192.563 39.754C193.421 39.754 194.094 40.0542 194.583 40.6546C195.08 41.2465 195.329 42.057 195.329 43.0862C195.329 43.2835 195.32 43.4765 195.303 43.6652H190.749ZM192.576 40.6418C192.053 40.6418 191.628 40.8305 191.302 41.2079C190.976 41.5767 190.792 42.1213 190.749 42.8418H194.274C194.265 42.1299 194.111 41.5852 193.811 41.2079C193.511 40.8305 193.099 40.6418 192.576 40.6418Z" fill="#121C2D"/>
<rect x="73.7466" y="11.5" width="129.495" height="43.111" rx="3.17592" stroke="#CCE4FF"/>
<defs>
<filter id="filter0_f" x="46" y="60" width="288" height="191.878" filterUnits="userSpaceOnUse" color-interpolation-filters="sRGB">
<feFlood flood-opacity="0" result="BackgroundImageFix"/>
<feBlend mode="normal" in="SourceGraphic" in2="BackgroundImageFix" result="shape"/>
<feGaussianBlur stdDeviation="4" result="effect1_foregroundBlur"/>
</filter>
<filter id="filter1_f" x="7" y="217" width="298.904" height="183" filterUnits="userSpaceOnUse" color-interpolation-filters="sRGB">
<feFlood flood-opacity="0" result="BackgroundImageFix"/>
<feBlend mode="normal" in="SourceGraphic" in2="BackgroundImageFix" result="shape"/>
<feGaussianBlur stdDeviation="4" result="effect1_foregroundBlur"/>
</filter>
</defs>
</svg>
