<svg xmlns="http://www.w3.org/2000/svg" id="Layer_1" data-name="Layer 1" viewBox="0 0 188 188"><defs><style>.cls-4{fill:#121c2d}</style></defs><circle cx="88.87" cy="111.86" r="56.64" style="fill:#f02f46"/><path d="M92.38 145.24c-5.32 2.33-13.61.93-18.89-1.5-8.1-3.73-11.3-7.49-12.5-9.45-.46-.76-.56-1.68-.23-2.51 3.2-8.1 7.24-14.01 9.11-22.76 2.12-9.92-2.59-18.03-7.42-26.3-9.11-15.61-7.87-34.78.98-50.24 9.32-16.26 28.13-24.71 46.51-23.42 20.8 1.46 37.86 15.52 44.06 35.39.65 2.07 1.17 4.18 1.55 6.32 2.67 14.92-2.02 30.46-11.79 41.93-4.91 5.76-11.42 10.52-18.39 13.86-7.23 3.46-15.02 5.76-20.15 12.36-6.82 8.76-9.13 16.11-12.84 26.33" style="fill:#fff"/><path d="M96.68 136.04c.54-1.31 1.48-3.68 3.06-6.8.8-1.55 1.77-3.29 2.97-5.15.6-.93 1.26-1.89 1.98-2.87.73-.98 1.5-2 2.35-2.95 1.74-1.9 3.97-3.62 6.6-5.1 2.63-1.49 5.62-2.77 8.81-4.16 6.42-2.7 13.3-6.66 19.27-12.54 2.98-2.94 5.67-6.37 7.99-10.16 2.29-3.81 4.18-8.01 5.54-12.49 1.36-4.48 2.09-9.27 2.17-14.15.01-2.44-.11-4.91-.48-7.38-.31-2.47-.87-4.92-1.57-7.34-1.47-4.82-3.55-9.54-6.36-13.89a51.22 51.22 0 0 0-10.32-11.7c-4.04-3.37-8.64-6.14-13.59-8.09-4.95-1.96-10.23-3.11-15.54-3.44-10.62-.62-21.45 1.84-30.49 7.25-4.52 2.69-8.58 6.09-11.94 10.03-3.38 3.94-5.96 8.44-7.9 13.05-3.88 9.26-5.16 19.3-3.74 28.54.7 4.62 2.06 9.03 3.96 13.04.96 2 2.05 3.92 3.09 5.7 1.04 1.8 2.03 3.58 2.9 5.35 1.74 3.54 3.08 7.11 3.47 10.63.19 1.76.25 3.49.02 5.16-.21 1.66-.56 3.31-1.03 4.9-1.81 6.36-4.86 11.63-6.97 16.49-.26.61-.52 1.2-.78 1.79-.12.3-.24.59-.36.88l-.18.43-.09.22c-.04.11-.08.21-.11.32-.26.86-.22 1.76.06 2.55.12.38.37.82.52 1.03.17.27.34.51.52.75 1.43 1.9 2.99 3.24 4.39 4.31 2.83 2.11 5.02 3.2 6.14 3.78 1.45.73 2.92 1.4 4.37 1.87 1.43.48 2.82.82 4.13 1.05 2.62.49 4.96.53 6.87.37 3.87-.34 5.86-1.73 5.95-2.09.09-.48-1.42.16-5.1.19-1.84 0-4.23-.19-7.13-.86-1.44-.34-3.01-.79-4.65-1.44-1.61-.64-3.39-1.55-5.21-2.57-1-.6-3.05-1.72-5.45-3.87-.59-.54-1.19-1.15-1.76-1.84-.28-.34-.56-.71-.8-1.09-.15-.23-.18-.29-.24-.44a1.56 1.56 0 0 1-.06-.85c.02-.07.04-.13.07-.22l.16-.39c.22-.53.44-1.06.67-1.62.46-1.1.99-2.24 1.54-3.44 2.19-4.75 5.24-10.38 6.74-17.38.35-1.78.61-3.65.57-5.57-.04-1.92-.28-3.87-.74-5.81-.94-3.88-2.68-7.61-4.68-11.25-.99-1.82-2.11-3.64-3.1-5.46-1.01-1.8-1.9-3.7-2.68-5.68-1.54-3.97-2.53-8.28-2.88-12.76-.71-8.95 1.13-18.56 5.52-27.24 2.18-4.35 5.03-8.38 8.58-11.85 3.54-3.47 7.69-6.39 12.24-8.6 9.11-4.37 19.7-6.06 29.84-4.54 10.14 1.5 19.68 6.41 26.77 13.57 3.56 3.56 6.53 7.66 8.82 12.04.28.55.59 1.09.86 1.64l.74 1.69.73 1.69.61 1.73c.88 2.28 1.48 4.65 1.97 7 .95 4.72 1.1 9.5.65 14.12-.45 4.63-1.63 9.07-3.22 13.22-1.59 4.15-3.75 7.96-6.2 11.38-2.45 3.42-5.23 6.42-8.25 8.95-3 2.54-6.17 4.66-9.34 6.42-3.16 1.76-6.39 3.08-9.44 4.46-3.05 1.36-5.93 2.8-8.42 4.53-1.24.87-2.37 1.81-3.4 2.78-1 .99-1.91 2.04-2.66 3.06a60.327 60.327 0 0 0-6.42 10.51c-1.32 2.8-2.04 4.69-2.33 5.44-1.29 3.38-2.05 5.94-2.51 7.66-.45 1.72-.57 2.6-.39 2.68.38.16 1.85-3.02 4.31-9.2Z" class="cls-4"/><path d="M93.86 136.81c-.24.02-.76.22-1.66.32-.89.08-2.11.11-3.54-.04-2.85-.3-6.58-1.12-10.01-2.36-3.34-1.39-6.6-3.32-8.97-4.95-2.39-1.64-4.02-2.96-4.38-3.23-1.81-1.42-4.01.29-1.49 2.27.72.49 6.87 5.53 14.42 8.3 3.78 1.2 7.59 1.91 10.65 2.06 1.52.08 2.85-.01 3.84-.21.98-.16 1.62-.51 1.77-.55 1.38-.94.23-1.88-.63-1.59ZM97.91 126.6c-.52.05-2.61.59-5.57.73-2.95.14-6.73-.24-10.32-1.32-3.6-1.05-6.91-2.87-9.23-4.58-2.33-1.71-3.73-3.25-4.04-3.56-1.47-1.66-4.09-.55-1.82 2.02.35.31 1.93 2.03 4.58 3.84 2.62 1.82 6.32 3.71 10.27 4.68 1.95.55 3.97.81 5.86.99.95.05 1.87.08 2.75.08.88-.05 1.71-.04 2.48-.14 3.09-.28 5.16-.98 5.44-1.08 1.3-.52.81-1.8-.4-1.67ZM82.29 147.25c-.24.27-1.04 1.66-2.83 2.79a7.83 7.83 0 0 1-3.21 1.16c-1.22.16-2.56.03-3.78-.42-1.22-.43-2.33-1.18-3.1-2.05a6.059 6.059 0 0 1-1.35-2.87c-.36-1.97-.04-3.56-.02-3.87.11-.84-.42-1.51-1.08-1.69-.64-.18-1.44.18-1.62 1.51-.02.19-.09.73-.11 1.56-.02.83 0 1.96.33 3.28.31 1.3 1.01 2.83 2.22 4 1.17 1.17 2.69 2.04 4.32 2.5 1.63.46 3.35.52 4.91.19a9.926 9.926 0 0 0 3.92-1.78c2.05-1.55 2.81-3.25 2.9-3.46.37-1.12-.95-1.52-1.49-.86Z" class="cls-4"/><path d="M109.57 37.17c2.27-3.32 7.47-1.63 7.36 2.39-.08 2.83 2.71 4.86 5.39 3.91 3.79-1.35 7 3.07 4.55 6.26-1.73 2.25-.66 5.53 2.06 6.33 3.86 1.14 3.86 6.6 0 7.74-2.72.8-3.79 4.08-2.06 6.33 2.45 3.19-.76 7.61-4.55 6.26-2.67-.95-5.46 1.08-5.39 3.91.11 4.02-5.09 5.71-7.36 2.39-1.6-2.34-5.05-2.34-6.66 0-2.27 3.32-7.47 1.63-7.36-2.39.08-2.83-2.71-4.86-5.39-3.91-3.79 1.35-7-3.07-4.55-6.26 1.73-2.25.66-5.53-2.06-6.33-3.86-1.14-3.86-6.6 0-7.74 2.72-.8 3.79-4.08 2.06-6.33-2.45-3.19.76-7.61 4.55-6.26 2.67.95 5.46-1.08 5.39-3.91-.11-4.02 5.09-5.71 7.36-2.39 1.6 2.34 5.05 2.34 6.66 0Z" style="fill:#f0bc5a"/><path d="M86.45 83.34c-.32 1.27-1.79 10.7-3.93 19.94-2.07 9.26-4.79 18.3-5.11 19.37-.84 2.78 1.52 4.33 2.67.51.32-1.06 2.99-10.43 4.88-19.89 1.97-9.44 3.16-18.9 3.18-19.64.06-1.66-1.3-1.78-1.69-.3ZM104.1 90.29c-.89.96-6.45 8.72-11.3 16.88-4.92 8.12-9.12 16.59-9.6 17.6-1.27 2.64.85 4.46 2.54.95.47-.98 4.61-9.6 9.38-17.78 4.7-8.22 9.99-15.98 10.36-16.61.79-1.42-.35-2.18-1.37-1.04Z" class="cls-4"/></svg>