<svg xmlns="http://www.w3.org/2000/svg" width="190" height="80" fill="none"><path fill="#FBEDE3" d="M105.37 17.24c-2.61 3.62-4.16 8.04-4.26 12.46-.07 3.06.42 6.14 1.46 9.02 1.67 4.6 4.99 8.42 9.42 10.53 4.03 1.92 8.68 2.37 13.1 1.68 6.95-1.08 13.65-5.24 16.59-11.63 3.83-8.33 1.15-19.12-5.47-24.96-5.84-5.15-15.27-6.64-22.66-3.66-3.29 1.33-6.1 3.69-8.17 6.55l-.01.01Z"/><path fill="#fff" d="M146.49 40.56c-.33-1.33-1.7-3.95-1.7-3.95-.12.17-.91 1.48-1.14 2.59 0 .04-.01.07 0 .11.01.03.04.05.07.07.21.15.44.27.66.41.69.46 1.23 1.12 1.96 1.5.07.04.16.06.21 0 .02-.03.03-.07.03-.1 0-.21-.04-.42-.09-.63Z"/><path fill="#fff" d="M146.43 40.96c-2.39-3.01-5.8-2.65-7.95-1.4-4.39 2.54-4.88 8.16-.02 10.72 1.36.71 2.9 1.1 4.43 1.01 1.11-.06 2.22-.37 3.32-.22.85.12 1.64.49 2.43.84 3.29 1.43 7.15 2.23 10.41.74 1.57-.72 2.94-1.95 4.65-2.23 1.25-.21 2.52.13 3.79.16 2.4.06 4.83-1.07 6.25-3s1.76-4.65.76-6.83c-.99-2.19-3.32-3.73-5.72-3.7-1.47.02-3.04.56-4.36-.09-.9-.45-1.46-1.36-2.13-2.12-4.22-4.83-12.15-5.62-17.61 2.18"/><path fill="#121C2D" d="M146.57 35.12c.24-.29.74-.73 1.45-1.31.36-.28.81-.56 1.29-.88.52-.25 1.07-.6 1.73-.81 1.29-.49 2.91-.78 4.68-.54.89.09 1.78.39 2.68.76.87.44 1.77.93 2.55 1.65.42.32.76.75 1.14 1.13.35.41.69.88 1.11 1.32.41.44.96.85 1.6 1.02.64.18 1.29.17 1.91.11 1.24-.13 2.41-.34 3.57.02 1.15.32 2.23 1 3.03 1.95 1.65 1.88 1.83 4.87.57 7.13-1.24 2.28-3.94 3.67-6.56 3.54-1.31-.05-2.75-.45-4.22-.04-1.43.4-2.56 1.28-3.72 1.89-2.31 1.27-5.07 1.19-7.52.57-1.24-.31-2.41-.76-3.55-1.27-.58-.25-1.19-.51-1.85-.63-.67-.12-1.33-.08-1.94-.01-1.22.17-2.31.3-3.39.08-1.07-.2-2.09-.58-2.95-1.13-.87-.53-1.59-1.21-2.08-2-.48-.79-.71-1.66-.72-2.5 0-.83.18-1.62.49-2.3.34-.67.73-1.26 1.2-1.72 1.9-1.89 3.83-2.06 4.4-2.08 1.6-.09 2.83.47 3.6.98.78.52 1.18.93 1.32.91.11.01-.02-.44-.77-1.2-.39-.36-.94-.8-1.76-1.12-.81-.32-1.88-.51-3.08-.32-.33.06-1 .17-1.88.56a7.73 7.73 0 0 0-2.87 2.23 7.22 7.22 0 0 0-1.15 2.11c-.26.83-.37 1.77-.22 2.75.15.97.57 1.96 1.26 2.78.68.83 1.6 1.48 2.61 2 1.02.49 2.17.83 3.38.91 1.23.11 2.45-.24 3.59-.25 1.14-.05 2.21.53 3.41 1.03 1.2.49 2.46.9 3.79 1.14 1.32.24 2.72.33 4.11.1 1.39-.19 2.74-.81 3.9-1.54 1.17-.71 2.34-1.41 3.64-1.42 1.3-.05 2.71.37 4.18.17 2.88-.3 5.59-2.29 6.47-5.07.46-1.36.51-2.83.14-4.19-.35-1.37-1.2-2.57-2.26-3.42-1.07-.85-2.37-1.39-3.7-1.46-1.34-.07-2.55.32-3.67.2-1.14-.06-1.9-.9-2.59-1.8a11.91 11.91 0 0 0-2.45-2.32c-1.79-1.24-3.8-1.88-5.61-1.92-1.82-.07-3.41.38-4.65.92-1.22.6-2.15 1.22-2.77 1.77-.31.27-.57.49-.77.67-.19.19-.31.33-.39.41-.32.36-.62.66-.83.95-.21.29-.37.54-.5.74-.25.4-.35.62-.3.65.05.03.23-.11.54-.44.31-.33.73-.84 1.36-1.45l.02-.01Z"/><path fill="#EDF6FF" d="M40.97 23.52c-3.85 5.34-6.14 11.85-6.28 18.37-.1 4.51.62 9.05 2.16 13.29 2.46 6.77 7.35 12.41 13.88 15.52 5.94 2.84 12.8 3.49 19.3 2.48 10.25-1.59 20.12-7.72 24.45-17.14 5.64-12.28 1.7-28.19-8.07-36.79-8.61-7.58-22.51-9.79-33.4-5.39-4.84 1.96-9 5.44-12.04 9.66Z"/><path fill="#fff" d="M20.67 27.68c.09-.06.17-.14.25-.23.23-.28.36-.63.5-.96 1.76-4.19 5.47-7.63 10.33-6.96 2.37.33 4.51 1.63 6.24 3.24.42.39 1 1.09 1.57 1.11.24 0 .8-.12 1.03-.19 2.94-.86 4.84-1.1 7.7-.02 2.86 1.08 5.44 3.87 5.98 6.88.22 1.22.06 2.49-.25 3.68-.35 1.35-1.49 2.63-2.59 3.43-.96.69-2.1 1.14-3.28 1.27-1.32.14-2.61.24-3.95.09-1.44-.16-2.97-.59-4.4-.17-.76.23-1.44.68-2.14 1.05-2.22 1.18-5.05 1.54-7.22.28-1.06-.61-1.94-1.58-3.11-1.92-1.47-.42-3.15.15-4.6.45-2.27.48-4.36.49-5.95-1.4-2.07-2.46-2.31-7.15.91-8.83.35-.18.73-.29 1.12-.37.6-.12 1.35-.08 1.87-.43h-.01Z"/><path fill="#121C2D" d="M23.03 24.09c.22-.3.62-.83 1.26-1.48.64-.64 1.54-1.41 2.78-2 1.23-.55 2.86-.92 4.6-.73 1.75.18 3.59 1 5.25 2.31.42.32.82.68 1.23 1.05l.61.58c.28.26.65.37 1.01.37.18 0 .37-.04.53-.1l.4-.13c.27-.09.55-.16.82-.23.56-.14 1.13-.23 1.72-.3 2.32-.23 4.89.15 6.98 1.56 2.03 1.4 3.67 3.75 3.86 6.32.08 1.28-.2 2.6-.81 3.73-.63 1.13-1.61 2.07-2.73 2.74-2.27 1.35-5.07 1.76-7.59.93-.66-.17-1.35-.33-2.07-.33-.73-.02-1.47.19-2.08.48-1.25.55-2.35 1.31-3.5 1.58-1.18.25-2.42.1-3.57-.26-.58-.19-1.14-.39-1.64-.67-.51-.28-1.01-.63-1.56-.93-.54-.3-1.17-.55-1.84-.59-.67-.04-1.28.13-1.83.28-1.08.33-2.12.53-3.14.56-2.04.09-3.93-.63-5.01-1.91-.55-.63-.93-1.34-1.14-2.05-.22-.71-.22-1.41-.18-2.04.17-1.27.75-2.22 1.29-2.84.54-.63 1.05-.94 1.3-1.1 1.35-.82 2.69-.96 3.6-.87.92.1 1.45.3 1.57.22.06-.03 0-.11-.2-.24-.19-.13-.52-.33-1.03-.47-.51-.16-1.21-.24-2.07-.15-.86.1-1.87.46-2.84 1.18-.26.22-.8.63-1.35 1.42-.55.77-1.1 1.96-1.11 3.47-.01 1.49.64 3.27 2.11 4.56 1.47 1.32 3.72 1.83 5.93 1.55.56-.06 1.11-.17 1.67-.31.56-.14 1.1-.33 1.62-.42 1.04-.24 2.03.24 3.05.9.51.32 1.08.66 1.69.88.59.23 1.21.42 1.86.56 1.28.25 2.73.26 4.01-.33 1.24-.53 2.35-1.32 3.55-1.62 1.2-.29 2.47.18 3.83.48 2.8.56 5.8-.23 8.05-2 1.12-.89 2.02-2.1 2.47-3.48.47-1.36.52-2.85.18-4.22-.33-1.38-1.04-2.63-1.91-3.68a9.542 9.542 0 0 0-3.17-2.52c-2.43-1.17-5.13-1.3-7.51-.82-.6.11-1.18.28-1.75.46-.52.2-.88.13-1.24-.28-.82-.8-1.68-1.51-2.57-2.11-1.78-1.21-3.79-1.84-5.6-1.82-1.81 0-3.38.49-4.57 1.16-1.18.68-1.99 1.45-2.55 2.05-.56.6-.87 1.04-1 1.21-1.11 1.58-1.32 2.52-1.23 2.56.12.06.54-.75 1.57-2.14l-.01.02Z"/><path fill="#EF2F46" d="M92.61 8.26 63.56 58.57c-.64 1.11.16 2.51 1.45 2.51h58.09c1.29 0 2.09-1.39 1.45-2.51L95.5 8.26c-.64-1.11-2.25-1.11-2.9 0h.01Z"/><path fill="#fff" d="M95.46 45.1c.31-1.21.5-17.75.5-18.8 0-1.36-2.7-1.71-2.7.12 0 1.03.33 17.96.48 18.65.17.76 1.53.74 1.72.03ZM94.62 51.8a1.66 1.66 0 1 0 0-3.32 1.66 1.66 0 0 0 0 3.32Z"/><path fill="#121C2D" d="M59.6 58.33c.13-.43.46-1.54 1.23-3.04.76-1.52 1.82-3.5 3.08-5.77 2.51-4.56 5.78-10.32 9.09-16.05C79.59 22 86.42 10.75 87.29 9.45c2.19-3.41 2.1-4.77-.88-.12-1.79 2.53-27.47 46.28-27.26 48.77-.29 1.12-.26 1.7-.15 1.72.12.02.31-.49.63-1.49h-.03ZM120.05 65.45c-1.79.05-14.91.13-27.97.08-6.53.01-13.04.02-18.12.03h-3.51c-1.09 0-2.04.07-2.85.07-1.61.03-2.62-.25-2.95-.37-.44-.15-.82-.35-1.14-.52a2.46 2.46 0 0 1-.67-.59c-.32-.4-.39-.73-.49-.78-.08-.06-.28.23-.07.9.11.32.35.72.8 1.06.43.31.98.61 1.68.8.38.12 1.57.36 3.25.29 1.67-.09 3.85-.07 6.44-.09 5.15-.03 11.76-.07 18.33-.1 13.15 0 26.18-.18 27.19-.28 2.25-.12 2.17-.52.07-.52l.01.02Z"/></svg>