<svg xmlns="http://www.w3.org/2000/svg" viewBox="0 0 186 126"><g fill="none" fill-rule="evenodd"><path fill="#F4F4F6" d="M4 0h178a4 4 0 014 4v118a4 4 0 01-4 4H4a4 4 0 01-4-4V4a4 4 0 014-4z"/><path fill="#E1E3EA" d="M4 0h178a4 4 0 014 4v9H0V4a4 4 0 014-4zM0 30h26v96H4a4 4 0 01-4-4V30z"/><path fill="#06033A" d="M0 13h186v17H0z"/><rect width="36.235" height="11" x="127" y="46" fill="#0263E0" rx="2.588"/><path fill="#4B5671" d="M42 48h36.235v7H42z"/><path fill="#8891AA" d="M42 63h122v3H42zM42 70h122v3H42z"/><path fill="#E1E3EA" d="M42 79h122v34H42z"/><rect width="24.588" height="1.588" x="133" y="51" fill="#FFF" rx=".794"/><circle cx="8.625" cy="21.625" r="2.625" fill="#8891AA"/><circle cx="16.5" cy="21.625" r="2.625" fill="#8891AA"/><circle cx="24.375" cy="21.625" r="2.625" fill="#8891AA"/></g></svg>
