<svg height="64" viewBox="0 0 63 64" width="63" xmlns="http://www.w3.org/2000/svg"><g fill="none" fill-rule="evenodd"><path d="m11.6926984 25.5796825h10.3009524c1.4894515-.0013937 2.8587776-.8175588 3.5685881-2.1270002.7098104-1.3094414.6463386-2.9022851-.1654135-4.151095l-5.0793651-8.1269841c-.7448846-1.17701413-2.0407347-1.89047346-3.4336508-1.89047346s-2.6887662.71345933-3.4336508 1.89047346l-5.15047616 8.1269841c-.7926503 1.2517238-.84120459 2.8356523-.12671209 4.1335765.7144925 1.2979243 2.07877355 2.104103 3.56036285 2.1038838zm-.8736508-4.6120635 5.1504762-8.1269841c.182997-.3084053.5150399-.4974791.8736508-.4974791s.6906538.1890738.8736508.4974791l5.1504762 8.1269841c.1814682.3143123.1814682.7015609 0 1.0158731-.1776962.3337402-.5260387.5411801-.904127.5384127h-10.2704762c-.3815464.0121586-.7377015-.1906083-.9219982-.524914-.1842967-.3343056-.1656207-.7437101.0483474-1.0598479zm25.8844445 4.6120635c.0926317.1330355.2442425.2126312.4063492.2133334h1.1377777c.2084714.000185.3949749-.1295565.4673016-.3250794l1.0869842-3.047619h3.9619047l1.015873 3.047619c.0634468.2035474.2541566.340361.4673016.3352381h1.2495238c.159394-.0005213.3080155-.0805483.3961905-.2133333.095652-.1286726.1186602-.2973989.0609524-.4469842l-3.7892064-10.463492c-.1359877-.3710892-.4885906-.6183165-.8838095-.6197133h-.8126984c-.3935541-.0031497-.7469295.2405575-.8838095.6095545l-3.9415873 10.4634921c-.0522383.1501782-.0295886.3162758.0609524.4469841zm3.7485714-4.9574603 1.3511111-3.687619 1.2698413 3.687619zm12.5053968-.3047619-2.1638095.2336508c-.7459734.0655392-1.4544689.3560223-2.031746.8330159-.5599941.5217225-.8548398 1.2681673-.8025397 2.031746.0010442.709477.2907818 1.3879766.8025397 1.8793651.5512836.5114449 1.2799315.7883311 2.031746.7720635.6421547.0025283 1.2757663-.1471711 1.8488889-.4368254.3219853-.1614396.6223413-.3628146.8939682-.5993651.0394117.1018642.0869733.2003846.1422223.2946032.2804415.4280927.7692609.6725023 1.28.64.165666.013134.3321117.013134.4977777 0 .1796319-.0233494.3565555-.0641779.528254-.1219048l.2234921-.0609524v-1.6253968l-.3657143.0609524h-.2133334-.1726984c-.0812698 0-.1219047 0-.1219047 0-.0125501-.0534531-.0125501-.1090866 0-.1625397v-4.6730159c.0507064-.7885408-.3406822-1.5400068-1.015873-1.9504761-.7675271-.4176755-1.6369739-.611277-2.5092064-.5587302-.8203701-.0109613-1.6270281.2109577-2.3263492.64-.5235515.3243894-.890846.8496205-1.015873 1.4526984l-.0914286.3860318h2.031746l.0812699-.1219048c.0355467-.0443772.0599324-.0966321.0711111-.152381.3305927-.3245506.7887294-.4847123 1.2495238-.4368254.4359359-.0258803.8708599.0653135 1.2596825.264127.2473948.171139.3833012.462367.3555556.7619048.0084022.1315978-.0124126.2634248-.0609524.3860317-.0507936.0812699-.1320635.1930159-.4063492.264127zm-1.4831746 1.9098413.8228572-.1015873c.2750829-.0306222.5469979-.0850052.8126984-.1625397l.264127-.0812698v.4673015c.0083646.7395712-.4224719 1.4137504-1.0971429 1.7168254-.6071788.3481517-1.3534562.3481517-1.9606349 0-.2112725-.1651869-.3287905-.4229682-.3149207-.6907936-.0257768-.356961.1614317-.6955294.4774604-.8634921.311079-.1638831.6477071-.2738025.9955555-.3250793zm2.6819048 9.6304762h-14.2222222c-.8415768 0-1.5238096.6822327-1.5238096 1.5238095s.6822328 1.5238095 1.5238096 1.5238095h14.2222222c.8415767 0 1.5238095-.6822327 1.5238095-1.5238095s-.6822328-1.5238095-1.5238095-1.5238095zm0 8.1269841h-14.2222222c-.8415768 0-1.5238096.6822328-1.5238096 1.5238095 0 .8415768.6822328 1.5238096 1.5238096 1.5238096h14.2222222c.8415767 0 1.5238095-.6822328 1.5238095-1.5238096 0-.8415767-.6822328-1.5238095-1.5238095-1.5238095zm0 8.1269841h-14.2222222c-.8415768 0-1.5238096.6822328-1.5238096 1.5238096 0 .8415767.6822328 1.5238095 1.5238096 1.5238095h14.2222222c.8415767 0 1.5238095-.6822328 1.5238095-1.5238095 0-.8415768-.6822328-1.5238096-1.5238095-1.5238096zm-37.3130159-10.1688889c-3.569227 0-6.78642 2.1517164-8.14943947 5.4504372-1.36301949 3.2987208-.60300519 7.0937835 1.92518457 9.6132353 2.5281899 2.5194519 6.3258611 3.2663224 9.6198431 1.8918902 3.293982-1.3744321 5.4345256-4.5990554 5.4222426-8.1682611-.0168435-4.8580182-3.9597835-8.7873016-8.8178308-8.7873016zm0 14.608254c-3.1979917 0-5.7904762-2.5924845-5.7904762-5.7904762s2.5924845-5.790481 5.7904762-5.790481c1.2564515-.0016356 2.4780994.4127245 3.4742857 1.1784175l-3.8806349 4.6526984-.8533333-.8533333c-.382898-.382898-.940984-.5324367-1.4640324-.3922863-.5230483.1401504-.9315956.5486977-1.071746 1.071746-.1401504.5230484.0093883 1.0811344.3922863 1.4640324l2.031746 2.031746c.2834052.2815312.6671986.4387038 1.0666667.4368254h.0711111c.4248179-.0185299.82257-.2137231 1.0971429-.5384127l4.5003174-5.4146032c.2775912.6736544.4224663 1.3945805.4267024 2.1231746.0053614 1.5401825-.6019974 3.0192801-1.6882154 4.111215-1.0862179 1.0919349-2.5621069 1.7070495-4.1022965 1.7097374z" fill="#f22f46"/><path d="m60.7593651.51809524h-58.5346032c-.83596625 0-1.51365079.67768454-1.51365079 1.51365079v59.93650797c0 .8359662.67768454 1.5136508 1.51365079 1.5136508h58.5346032c.8359662 0 1.5136508-.6776846 1.5136508-1.5136508v-59.93650797c0-.83596625-.6776846-1.51365079-1.5136508-1.51365079zm-30.4761905 3.04761905v27.11365081h-26.5447619v-27.13396827zm-26.5447619 30.14095241h26.5549206v26.7479365h-26.5549206zm55.5073016 26.7479365h-25.9250794v-56.88888891h25.9250794z" fill="#06033a"/></g></svg>