<svg height="64" viewBox="0 0 51 64" width="51" xmlns="http://www.w3.org/2000/svg"><g fill="none" fill-rule="evenodd"><g fill="#fff" fill-rule="nonzero"><path d="m8.56774194 16.9290323h7.22580646c1.0322581 0 1.7548387-.8258065 1.7548387-1.7548388 0-.3096774-.1032258-.6193548-.3096774-.9290322l-3.6129032-5.67741936c-.5161291-.82580646-1.651613-1.03225807-2.4774194-.51612904-.2064516.10322581-.4129032.30967742-.516129.51612904l-3.61290326 5.67741936c-.51612903.8258064-.30967742 1.9612903.51612903 2.4774193.30967742.1032259.72258065.2064517 1.03225807.2064517z"/><circle cx="12.181" cy="26.219" r="4.955"/><path d="m21.7806452 21.7806452h8.9806451v8.9806451h-8.9806451zm-2.7870968 25.6c6.5032258 0 11.7677419-5.2645162 11.7677419-11.767742h-23.63870965c0 6.5032258 5.26451615 11.767742 11.87096775 11.767742z"/><circle cx="26.323" cy="12.181" r="5.058"/></g><path d="m50.9935484 18.4774194c-.1032258-3.2-1.4451613-6.2967742-3.8193549-8.56774198l-6.4-6.4c-2.2709677-2.27096774-5.3677419-3.50967742-8.5677419-3.50967742h-32.2064516v54.916129l15.0709677 8.7741936h23.8451613c6.7096775 0 12.0774194-5.367742 12.0774194-12.0774194zm-15.1741936 29.4193548c0 2.3741935-1.8580645 4.3354839-4.232258 4.3354839h-28.90322583v-49.54838713h28.80000003c2.3741935 0 4.3354838 1.96129032 4.3354838 4.33548387z" fill="#06033a"/><path d="m8.56774194 17.9612903h7.22580646c1.0322581 0 1.9612903-.516129 2.4774193-1.4451613.5161291-.9290322.4129033-1.9612903-.1032258-2.8903225l-3.6129032-5.6774194c-.8258064-1.34193549-2.5806452-1.75483871-3.9225806-.92903226l-.92903229.92903226-3.50967742 5.6774194c-.61935484.8258064-.61935484 1.9612903-.10322581 2.8903225.51612903.9290323 1.44516129 1.4451613 2.47741936 1.4451613zm-.61935484-3.2 3.6129032-5.67741933c.2064516-.30967742.6193549-.41290323.9290323-.20645162.1032258.10322581.2064516.10322581.2064516.20645162l3.6129032 5.67741933c.1032258.2064516.1032258.5161291 0 .7225807s-.4129032.4129032-.6193548.4129032h-7.12258066c-.30967742 0-.51612904-.1032258-.61935484-.4129032-.10322581-.3096775-.10322581-.5161291 0-.7225807zm4.2322581 5.4709678c-3.30322585 0-5.98709681 2.6838709-5.98709681 5.9870967s2.68387096 5.9870968 5.98709681 5.9870968c3.3032258 0 5.9870967-2.683871 5.9870967-5.9870968s-2.6838709-5.9870967-5.9870967-5.9870967zm0 9.9096774c-2.167742 0-3.92258068-1.7548387-3.92258068-3.9225807 0-2.1677419 1.75483868-3.9225806 3.92258068-3.9225806 2.1677419 0 3.9225806 1.7548387 3.9225806 3.9225806-.1032258 2.167742-1.8580645 3.9225807-3.9225806 3.9225807zm18.5806451 1.6516129c.6193549 0 1.0322581-.516129 1.0322581-1.0322581v-8.9806451c0-.6193549-.516129-1.0322581-1.0322581-1.0322581h-8.8774193c-.6193549 0-1.0322581.516129-1.0322581 1.0322581v8.9806451c0 .6193549.516129 1.0322581 1.0322581 1.0322581zm-7.8451613-8.9806452h6.8129033v6.8129033h-6.8129033zm7.8451613 11.6645162h-23.63870965c-.61935484 0-1.03225807.516129-1.03225807 1.032258 0 7.1225807 5.78064512 12.9032258 12.90322582 12.9032258 7.1225806 0 12.9032258-5.7806451 12.9032258-12.9032258-.1032258-.516129-.516129-1.032258-1.1354839-1.032258zm-11.7677419 11.8709677c-5.5741936 0-10.11612905-4.2322581-10.73548388-9.7032258h21.36774198c-.5161291 5.4709677-5.1612904 9.7032258-10.6322581 9.7032258zm7.3290322-40.36129033c-3.4064516 0-6.1935483 2.78709678-6.0903225 6.19354843 0 3.4064516 2.7870967 6.1935483 6.1935484 6.0903225 3.4064516 0 6.0903225-2.7870967 6.0903225-6.1935483 0-3.30322585-2.7870967-6.09032263-6.1935484-6.09032263zm0 10.21935483c-2.2709677 0-4.0258064-1.7548387-4.0258064-4.0258064 0-2.27096778 1.7548387-4.02580649 4.0258064-4.02580649 2.2709678 0 4.0258065 1.75483871 4.0258065 4.02580649 0 2.1677419-1.8580645 4.0258064-4.0258065 4.0258064z" fill="#f22f46"/></g></svg>