<svg xmlns="http://www.w3.org/2000/svg" viewBox="0 0 186 126"><g fill="none" fill-rule="evenodd"><path fill="#F4F4F6" d="M4 0h178a4 4 0 014 4v118a4 4 0 01-4 4H4a4 4 0 01-4-4V4a4 4 0 014-4z"/><g transform="translate(24 31)"><rect width="144" height="34" y="15" fill="#FFF" stroke="#E1E3EA" stroke-width="3" rx="4"/><path fill="#8891AA" d="M12 30h76.181v4H12zM1 0h76.181v4H1z"/><path fill="#E1E3EA" d="M0 63h116.181v4H0z"/><path stroke="#E1E3EA" stroke-width="3" d="M110.613 15v34"/><path fill="#8891AA" d="M121.793 29h8.414a1 1 0 01.733 1.68l-4.207 4.53a1 1 0 01-1.466 0l-4.207-4.53a1 1 0 01.733-1.68z"/></g></g></svg>
