<svg xmlns="http://www.w3.org/2000/svg" width="51" height="64" viewBox="0 0 51 64">
  <g fill="none" fill-rule="evenodd">
    <path fill="#FFF" d="M50.9935484,18.4774194 C50.8903226,15.2774194 49.5483871,12.1806452 47.1741935,9.90967742 L40.7741935,3.50967742 C38.5032258,1.23870968 35.4064516,0 32.2064516,0 L0,0 L0,54.916129 L15.0709677,63.6903226 L38.916129,63.6903226 C45.6258065,63.6903226 50.9935484,58.3225806 50.9935484,51.6129032 L50.9935484,18.4774194 Z M35.8193548,47.8967742 C35.8193548,50.2709677 33.9612903,52.2322581 31.5870968,52.2322581 L2.68387097,52.2322581 L2.68387097,2.68387097 L31.483871,2.68387097 C33.8580645,2.68387097 35.8193548,4.64516129 35.8193548,7.01935484 L35.8193548,47.8967742 Z"/>
    <path fill="#F6B1B1" d="M8.56774194,17.9612903 L15.7935484,17.9612903 C16.8258065,17.9612903 17.7548387,17.4451613 18.2709677,16.516129 C18.7870968,15.5870968 18.683871,14.5548387 18.1677419,13.6258065 L14.5548387,7.9483871 C13.7290323,6.60645161 11.9741935,6.19354839 10.6322581,7.01935484 L9.70322581,7.9483871 L6.19354839,13.6258065 C5.57419355,14.4516129 5.57419355,15.5870968 6.09032258,16.516129 C6.60645161,17.4451613 7.53548387,17.9612903 8.56774194,17.9612903 Z M7.9483871,14.7612903 L11.5612903,9.08387097 C11.7677419,8.77419355 12.1806452,8.67096774 12.4903226,8.87741935 C12.5935484,8.98064516 12.6967742,8.98064516 12.6967742,9.08387097 L16.3096774,14.7612903 C16.4129032,14.9677419 16.4129032,15.2774194 16.3096774,15.483871 C16.2064516,15.6903226 15.8967742,15.8967742 15.6903226,15.8967742 L8.56774194,15.8967742 C8.25806452,15.8967742 8.0516129,15.7935484 7.9483871,15.483871 C7.84516129,15.1741935 7.84516129,14.9677419 7.9483871,14.7612903 Z M12.1806452,20.2322581 C8.87741935,20.2322581 6.19354839,22.916129 6.19354839,26.2193548 C6.19354839,29.5225806 8.87741935,32.2064516 12.1806452,32.2064516 C15.483871,32.2064516 18.1677419,29.5225806 18.1677419,26.2193548 C18.1677419,22.916129 15.483871,20.2322581 12.1806452,20.2322581 Z M12.1806452,30.1419355 C10.0129032,30.1419355 8.25806452,28.3870968 8.25806452,26.2193548 C8.25806452,24.0516129 10.0129032,22.2967742 12.1806452,22.2967742 C14.3483871,22.2967742 16.1032258,24.0516129 16.1032258,26.2193548 C16,28.3870968 14.2451613,30.1419355 12.1806452,30.1419355 Z M30.7612903,31.7935484 C31.3806452,31.7935484 31.7935484,31.2774194 31.7935484,30.7612903 L31.7935484,21.7806452 C31.7935484,21.1612903 31.2774194,20.7483871 30.7612903,20.7483871 L21.883871,20.7483871 C21.2645161,20.7483871 20.8516129,21.2645161 20.8516129,21.7806452 L20.8516129,30.7612903 C20.8516129,31.3806452 21.3677419,31.7935484 21.883871,31.7935484 L30.7612903,31.7935484 L30.7612903,31.7935484 Z M22.916129,22.8129032 L29.7290323,22.8129032 L29.7290323,29.6258065 L22.916129,29.6258065 L22.916129,22.8129032 Z M30.7612903,34.4774194 L7.12258065,34.4774194 C6.50322581,34.4774194 6.09032258,34.9935484 6.09032258,35.5096774 C6.09032258,42.6322581 11.8709677,48.4129032 18.9935484,48.4129032 C26.116129,48.4129032 31.8967742,42.6322581 31.8967742,35.5096774 C31.7935484,34.9935484 31.3806452,34.4774194 30.7612903,34.4774194 Z M18.9935484,46.3483871 C13.4193548,46.3483871 8.87741935,42.116129 8.25806452,36.6451613 L29.6258065,36.6451613 C29.1096774,42.116129 24.4645161,46.3483871 18.9935484,46.3483871 L18.9935484,46.3483871 Z M26.3225806,5.98709677 C22.916129,5.98709677 20.1290323,8.77419355 20.2322581,12.1806452 C20.2322581,15.5870968 23.0193548,18.3741935 26.4258065,18.2709677 C29.8322581,18.2709677 32.516129,15.483871 32.516129,12.0774194 C32.516129,8.77419355 29.7290323,5.98709677 26.3225806,5.98709677 L26.3225806,5.98709677 Z M26.3225806,16.2064516 C24.0516129,16.2064516 22.2967742,14.4516129 22.2967742,12.1806452 C22.2967742,9.90967742 24.0516129,8.15483871 26.3225806,8.15483871 C28.5935484,8.15483871 30.3483871,9.90967742 30.3483871,12.1806452 C30.3483871,14.3483871 28.4903226,16.2064516 26.3225806,16.2064516 Z"/>
  </g>
</svg>
