<svg xmlns="http://www.w3.org/2000/svg" viewBox="0 0 186 126"><g fill="none" fill-rule="evenodd"><path fill="#F4F4F6" d="M4 0h178a4 4 0 014 4v118a4 4 0 01-4 4H4a4 4 0 01-4-4V4a4 4 0 014-4z"/><path fill="#E1E3EA" d="M4 0h178a4 4 0 014 4v9H0V4a4 4 0 014-4zM0 30h26v96H4a4 4 0 01-4-4V30z"/><path fill="#06033A" d="M0 13h186v17H0z"/><g transform="translate(42 46)"><rect width="36.235" height="11" x="85" fill="#0263E0" rx="2.588"/><path fill="#4B5671" d="M0 2h36.235v7H0z"/><path fill="#8891AA" d="M0 17h122v3H0zM0 24h122v3H0z"/><path fill="#E1E3EA" d="M0 33h122v34H0z"/><rect width="24.588" height="1.588" x="91" y="5" fill="#FFF" rx=".794"/></g><path fill="#06033A" d="M4 0h178a4 4 0 014 4v118a4 4 0 01-4 4H4a4 4 0 01-4-4V4a4 4 0 014-4z" opacity=".4"/><path fill="#FFF" d="M28 19h131a4 4 0 014 4v80a4 4 0 01-4 4H28a4 4 0 01-4-4V23a4 4 0 014-4z"/><path fill="#4B5671" d="M149.58 34.757L147.823 33l1.757-1.757a.582.582 0 00-.823-.823L147 32.177l-1.757-1.757a.582.582 0 00-.823.823L146.177 33l-1.757 1.757a.582.582 0 00.823.823L147 33.823l1.757 1.757a.582.582 0 00.823-.823z"/><g transform="translate(36 40)"><rect width="36.235" height="11" x="80" y="43" fill="#D61F1F" rx="2.588"/><rect width="36.235" height="11" x="38" y="43" stroke="#0263E0" rx="2.588"/><path fill="#4B5671" d="M0 0h36.235v7H0z"/><path fill="#8891AA" d="M0 15h116v3H0zM0 22h116v3H0z"/><rect width="24.588" height="1.588" x="86" y="48" fill="#FFF" rx=".794"/><rect width="24.588" height="1.588" x="44" y="48" fill="#0263E0" rx=".794"/></g></g></svg>
