<svg width="190" height="80" viewBox="0 0 190 80" fill="none" xmlns="http://www.w3.org/2000/svg">
<path d="M181.89 28.9598C185.61 34.1198 187.82 40.4198 187.96 46.7198C188.05 51.0798 187.36 55.4698 185.88 59.5698C183.5 66.1198 178.78 71.5698 172.46 74.5798C166.71 77.3198 160.09 77.9598 153.8 76.9798C143.89 75.4398 134.35 69.5098 130.16 60.3998C124.7 48.5298 128.52 33.1498 137.96 24.8298C146.28 17.4998 159.72 15.3598 170.25 19.6198C174.93 21.5098 178.95 24.8798 181.89 28.9598Z" fill="#EEF7FF"/>
<path d="M125.32 39.9997C125.32 23.2545 111.745 9.67969 94.9997 9.67969C78.2544 9.67969 64.6797 23.2545 64.6797 39.9997C64.6797 56.745 78.2544 70.3197 94.9997 70.3197C111.745 70.3197 125.32 56.745 125.32 39.9997Z" fill="#EF2F46"/>
<path d="M49.8296 36.0899C52.9996 40.4899 54.8896 45.8599 55.0096 51.2299C55.0896 54.9499 54.4996 58.6899 53.2296 62.1899C51.1996 67.7699 47.1696 72.4199 41.7896 74.9899C36.8896 77.3299 31.2396 77.8699 25.8796 77.0399C17.4296 75.7299 9.28963 70.6699 5.71963 62.9099C1.06963 52.7899 4.31963 39.6699 12.3696 32.5799C19.4696 26.3299 30.9196 24.5099 39.9096 28.1299C43.8996 29.7399 47.3296 32.6099 49.8396 36.0899H49.8296Z" fill="#FBEDE3"/>
<path d="M22.7006 43.9003C22.8306 43.8103 22.9406 43.7103 23.0506 43.5803C23.3706 43.1903 23.5606 42.7103 23.7506 42.2403C26.2006 36.3903 31.3806 31.5903 38.1606 32.5303C41.4706 32.9903 44.4506 34.8103 46.8606 37.0603C47.4406 37.6003 48.2606 38.5903 49.0606 38.6103C49.4006 38.6103 50.1706 38.4403 50.5006 38.3503C54.6006 37.1503 57.2506 36.8103 61.2506 38.3203C65.2506 39.8203 68.8406 43.7203 69.6006 47.9303C69.9006 49.6303 69.6806 51.4003 69.2506 53.0703C68.7606 54.9503 67.1706 56.7403 65.6306 57.8503C64.2906 58.8203 62.7006 59.4403 61.0506 59.6203C59.2106 59.8203 57.4006 59.9603 55.5406 59.7503C53.5306 59.5203 51.4006 58.9203 49.4006 59.5103C48.3306 59.8303 47.3906 60.4603 46.4106 60.9803C43.3106 62.6303 39.3706 63.1303 36.3306 61.3603C34.8506 60.5003 33.6306 59.1503 31.9806 58.6803C29.9306 58.1003 27.5906 58.8903 25.5606 59.3103C22.4006 59.9803 19.4806 60.0003 17.2606 57.3503C14.3706 53.9103 14.0306 47.3703 18.5306 45.0303C19.0206 44.7703 19.5506 44.6203 20.0906 44.5103C20.9206 44.3403 21.9706 44.4003 22.6906 43.9103L22.7006 43.9003Z" fill="white"/>
<path d="M25.9104 38.83C26.2204 38.41 26.7804 37.67 27.6704 36.75C28.5704 35.85 29.8304 34.76 31.5804 33.94C32.4504 33.53 33.4604 33.24 34.5504 33.04C35.6404 32.83 36.8304 32.78 38.0604 32.91C40.5304 33.16 43.1204 34.32 45.4504 36.15C46.0404 36.6 46.6104 37.1 47.1704 37.62C47.4504 37.89 47.7304 38.16 48.0204 38.43C48.3804 38.77 48.8704 38.92 49.3404 38.92C49.5704 38.92 49.8204 38.87 50.0304 38.79L50.6004 38.61C50.9804 38.48 51.3704 38.39 51.7604 38.29C52.5404 38.1 53.3504 37.97 54.1704 37.87C57.4404 37.54 61.0504 38.08 64.0004 40.06C66.8704 42.04 69.1704 45.33 69.4504 48.99C69.5704 50.8 69.1804 52.67 68.3004 54.28C67.4104 55.89 66.0304 57.21 64.4404 58.16C61.2404 60.07 57.2704 60.64 53.7404 59.47C52.8204 59.24 51.8704 59.02 50.8804 59.01C49.8904 58.99 48.8904 59.27 48.0304 59.66C46.3004 60.42 44.7604 61.48 43.1104 61.88C41.4304 62.24 39.6704 62.02 38.0604 61.52C37.2504 61.26 36.4504 60.98 35.7404 60.58C35.0204 60.18 34.3204 59.7 33.5604 59.28C32.8104 58.86 31.9604 58.53 31.0604 58.48C30.1604 58.43 29.3304 58.65 28.5604 58.87C27.0504 59.33 25.5804 59.61 24.1304 59.66C22.6904 59.71 21.3004 59.5 20.0704 59.04C18.8404 58.57 17.8004 57.84 17.0204 56.94C16.2404 56.05 15.7004 55.03 15.4004 54.02C15.0904 53.01 15.0904 52 15.1404 51.1C15.3804 49.29 16.2204 47.93 16.9804 47.05C17.7504 46.15 18.4804 45.72 18.8304 45.48C20.7604 44.32 22.6804 44.13 23.9604 44.29C25.2604 44.46 25.9904 44.79 26.1404 44.7C26.2104 44.67 26.1204 44.58 25.8404 44.42C25.5604 44.26 25.1104 44 24.4004 43.82C23.7004 43.61 22.7304 43.51 21.5604 43.65C20.3804 43.79 19.0004 44.29 17.6604 45.29C17.4804 45.44 17.2204 45.67 16.8804 45.96C16.7204 46.11 16.5604 46.31 16.3704 46.51C16.1804 46.71 15.9904 46.95 15.8104 47.22C15.0604 48.27 14.3004 49.91 14.2904 51.97C14.2704 54.01 15.1704 56.44 17.1804 58.21C18.1804 59.09 19.4604 59.76 20.8704 60.1C22.2804 60.45 23.8004 60.52 25.3404 60.34C26.1104 60.25 26.8804 60.11 27.6504 59.91C28.4304 59.72 29.1704 59.45 29.9204 59.32C30.6704 59.18 31.4104 59.21 32.1404 59.48C32.8704 59.73 33.5704 60.16 34.2804 60.6C34.9904 61.04 35.7704 61.52 36.6104 61.82C37.4304 62.14 38.2904 62.41 39.1804 62.59C40.9504 62.94 42.9304 62.94 44.6804 62.13C46.3904 61.4 47.9504 60.3 49.6604 59.87C51.3904 59.46 53.1904 60.14 55.0704 60.55C58.9304 61.32 63.0904 60.24 66.1904 57.79C67.7304 56.56 68.9804 54.9 69.6004 53C70.2404 51.13 70.3104 49.07 69.8504 47.18C69.3904 45.28 68.4204 43.55 67.2104 42.1C66.0204 40.63 64.4904 39.44 62.8304 38.62C59.4804 37 55.7304 36.82 52.4304 37.48C51.6004 37.63 50.7904 37.86 50.0104 38.12C49.2804 38.42 48.6604 38.3 48.1604 37.69C47.0204 36.58 45.8304 35.59 44.5904 34.76C42.1204 33.08 39.3404 32.21 36.8404 32.24C34.3404 32.25 32.1504 32.92 30.5204 33.84C28.8904 34.78 27.7704 35.85 26.9904 36.68C26.2204 37.52 25.7804 38.12 25.6004 38.36C24.0604 40.55 23.7204 41.84 23.8004 41.87C23.9304 41.94 24.4804 40.79 25.9004 38.82L25.9104 38.83Z" fill="#121C2D"/>
<path d="M124.2 57.3905C123.79 55.7705 122.12 52.5605 122.12 52.5605C121.97 52.7705 121.01 54.3705 120.73 55.7305C120.73 55.7705 120.71 55.8205 120.73 55.8605C120.75 55.9005 120.78 55.9205 120.82 55.9505C121.08 56.1305 121.36 56.2805 121.62 56.4605C122.46 57.0205 123.13 57.8205 124.02 58.2905C124.1 58.3305 124.22 58.3705 124.28 58.2905C124.31 58.2605 124.31 58.2105 124.32 58.1605C124.33 57.9005 124.27 57.6405 124.21 57.3905H124.2Z" fill="white"/>
<path d="M124.13 57.8801C121.21 54.2001 117.04 54.6401 114.42 56.1601C109.05 59.2701 108.45 66.1401 114.4 69.2601C116.06 70.1301 117.95 70.6001 119.82 70.5001C121.18 70.4201 122.53 70.0501 123.87 70.2401C124.91 70.3801 125.87 70.8501 126.83 71.2601C130.85 73.0001 135.57 73.9901 139.55 72.1701C141.47 71.2901 143.15 69.7901 145.23 69.4401C146.76 69.1901 148.31 69.6001 149.86 69.6401C152.8 69.7101 155.76 68.3401 157.5 65.9701C159.24 63.6001 159.65 60.2901 158.43 57.6201C157.21 54.9501 154.37 53.0601 151.44 53.1001C149.64 53.1201 147.72 53.7901 146.11 52.9901C145.01 52.4401 144.32 51.3301 143.51 50.4001C138.35 44.5001 128.66 43.5201 121.98 53.0601" fill="white"/>
<path d="M124.26 50.7005C124.42 50.5405 124.63 50.2905 124.93 50.0305C125.24 49.7705 125.61 49.4505 126.04 49.0905C126.49 48.7405 127.03 48.4005 127.62 48.0005C128.26 47.6905 128.93 47.2605 129.75 47.0005C131.33 46.4005 133.33 46.0405 135.5 46.3405C136.59 46.4505 137.69 46.8205 138.8 47.2705C139.87 47.8105 140.98 48.4105 141.93 49.2905C142.44 49.6905 142.86 50.2105 143.33 50.6805C143.76 51.1905 144.17 51.7605 144.68 52.2905C145.18 52.8305 145.84 53.3105 146.61 53.5205C147.37 53.7305 148.16 53.7205 148.91 53.6505C149.67 53.5805 150.4 53.4605 151.14 53.4305C151.87 53.4005 152.6 53.4705 153.31 53.6705C154.73 54.0605 156.07 54.9105 157.05 56.0805C158.04 57.2405 158.64 58.7405 158.75 60.3105C158.86 61.8705 158.52 63.4905 157.75 64.8905C156.21 67.7005 152.89 69.4305 149.66 69.2605C148.05 69.1905 146.29 68.7105 144.53 69.2105C142.8 69.6905 141.43 70.7605 140 71.5105C137.15 73.0705 133.75 72.9805 130.75 72.2105C129.23 71.8205 127.79 71.2805 126.4 70.6505C125.69 70.3405 124.96 70.0305 124.16 69.8905C123.36 69.7405 122.56 69.7905 121.82 69.8805C121.07 69.9705 120.37 70.0905 119.68 70.1105C118.99 70.1405 118.31 70.0905 117.65 69.9705C116.33 69.7305 115.07 69.2605 114.02 68.5705C112.95 67.9205 112.05 67.0705 111.45 66.1005C110.85 65.1205 110.57 64.0405 110.56 63.0005C110.55 61.9705 110.79 60.9905 111.17 60.1505C111.59 59.3305 112.07 58.5905 112.66 58.0305C113.8 56.8805 115.02 56.2105 116 55.8705C116.98 55.5205 117.72 55.4705 118.1 55.4505C120.08 55.3405 121.61 56.0405 122.54 56.6905C123.49 57.3405 123.97 57.8705 124.12 57.8605C124.19 57.8605 124.16 57.7505 124.01 57.5105C123.87 57.2605 123.59 56.9005 123.13 56.4505C122.65 56.0205 121.98 55.4905 120.99 55.1105C120.01 54.7305 118.72 54.5105 117.26 54.7305C116.86 54.8005 116.05 54.9305 114.99 55.4105C113.94 55.8905 112.64 56.7005 111.51 58.1105C110.96 58.8205 110.45 59.6705 110.11 60.6705C109.8 61.6705 109.66 62.8105 109.85 63.9905C110.03 65.1605 110.53 66.3505 111.37 67.3505C112.2 68.3605 113.31 69.1405 114.53 69.7705C115.77 70.3705 117.16 70.7805 118.63 70.8805C120.12 71.0105 121.6 70.5905 123.01 70.5705C124.42 70.5105 125.75 71.2305 127.22 71.8305C128.68 72.4205 130.22 72.9205 131.84 73.2205C133.45 73.5205 135.15 73.6205 136.83 73.3505C138.52 73.1205 140.15 72.3705 141.57 71.4705C143 70.6105 144.44 69.7405 146.06 69.7205C147.67 69.6705 149.38 70.1705 151.16 69.9305C154.65 69.5605 157.94 67.1505 159 63.7905C159.56 62.1505 159.62 60.3605 159.18 58.7105C158.75 57.0505 157.73 55.5905 156.44 54.5605C155.15 53.5305 153.57 52.8805 151.96 52.7905C150.34 52.7005 148.86 53.1805 147.47 53.0305C146.78 52.9605 146.16 52.7305 145.64 52.3105C145.12 51.8905 144.69 51.3505 144.25 50.8105C143.37 49.7105 142.35 48.7605 141.27 47.9905C139.09 46.4805 136.65 45.7005 134.45 45.6505C132.24 45.5705 130.3 46.1105 128.79 46.7605C127.31 47.4905 126.18 48.2505 125.42 48.9105C125.04 49.2405 124.73 49.5105 124.48 49.7205C124.25 49.9505 124.1 50.1205 124.01 50.2205C123.62 50.6605 123.25 51.0205 122.99 51.3705C122.74 51.7305 122.53 52.0305 122.37 52.2705C122.05 52.7605 121.93 53.0105 121.97 53.0505C122.02 53.0805 122.23 52.9005 122.61 52.4905C122.98 52.0805 123.49 51.4505 124.26 50.7005Z" fill="#121C2D"/>
<path d="M89.9097 32.43C89.9097 32.33 89.8897 32.23 89.8597 32.14C89.8097 31.46 89.6397 30.79 89.3397 30.19L86.6097 24.73C86.4097 24.34 86.0897 24.02 85.6997 23.82C84.6897 23.31 83.4597 23.72 82.9497 24.73L80.2197 30.19C79.8797 30.86 79.6997 31.62 79.6797 32.37C79.6797 32.39 79.6797 32.41 79.6797 32.43C79.6797 32.43 79.6797 32.43 79.6797 32.45C79.6797 32.45 79.6797 32.47 79.6797 32.48V51.2C79.6797 54.02 81.9697 56.32 84.7997 56.32C87.5997 56.3 89.8797 54.01 89.8797 51.2V49.04C89.8997 48.97 89.9097 48.89 89.9097 48.81C89.9097 48.73 89.8997 48.66 89.8797 48.58V32.66C89.8997 32.59 89.9097 32.51 89.9097 32.43ZM81.7197 33.45H87.8297V47.78H81.7197V33.45ZM84.7697 25.64L87.4997 31.1C87.5497 31.2 87.5897 31.3 87.6297 31.4H81.9097C81.9497 31.3 81.9897 31.19 82.0397 31.09L84.7697 25.63V25.64ZM84.7797 54.26C83.0897 54.26 81.7097 52.88 81.7097 51.19V49.83H87.8197V51.19C87.8197 52.87 86.4497 54.25 84.7697 54.26H84.7797Z" fill="white"/>
<path d="M105.249 23.5605H97.0593C94.8093 23.5605 93.9893 25.4005 93.9893 26.6305V53.2305C93.9893 55.4805 95.8293 56.3005 97.0593 56.3005H105.249C107.499 56.3005 108.319 54.4605 108.319 53.2305V26.6305C108.319 24.3805 106.479 23.5605 105.249 23.5605ZM106.269 53.2205C106.259 53.6905 106.069 54.2605 105.249 54.2605H97.0793C96.6093 54.2505 96.0393 54.0605 96.0393 53.2405V50.1705H99.7893C100.359 50.1705 100.809 49.7105 100.809 49.1505C100.809 48.5905 100.349 48.1305 99.7893 48.1305H96.0393V44.0405H99.7893C100.359 44.0405 100.809 43.5805 100.809 43.0205C100.809 42.4605 100.349 42.0005 99.7893 42.0005H96.0393V37.9105H99.7893C100.359 37.9105 100.809 37.4505 100.809 36.8905C100.809 36.3305 100.349 35.8705 99.7893 35.8705H96.0393V31.7805H99.7893C100.359 31.7805 100.809 31.3205 100.809 30.7605C100.809 30.2005 100.349 29.7405 99.7893 29.7405H96.0393V26.6805C96.0493 26.2105 96.2393 25.6405 97.0593 25.6405H105.229C105.699 25.6505 106.269 25.8405 106.269 26.6605V53.2505V53.2205Z" fill="white"/>
</svg>
