<?xml version="1.0" encoding="utf-8"?>
<svg version="1.1" xmlns="http://www.w3.org/2000/svg" xmlns:xlink="http://www.w3.org/1999/xlink" x="0px" y="0px" viewBox="0 0 1024 1024" xml:space="preserve">
 <path d="M512.346,472.615C378.438,472.615,276.038,370.21500000000003,276.038,236.308C276.038,102.39999999999998,378.438,0,512.346,0C646.254,0,748.654,102.39999999999998,748.654,236.308C748.654,370.21500000000003,646.254,472.615,512.346,472.615C512.346,472.615,512.346,472.615,512.346,472.615M512.346,78.769C425.7,78.769,354.808,149.66200000000003,354.808,236.308C354.808,322.95399999999995,425.7,393.846,512.346,393.846C598.992,393.846,669.885,322.95399999999995,669.885,236.308C669.885,149.66200000000003,598.992,78.769,512.346,78.769C512.346,78.769,512.346,78.769,512.346,78.769M906.192,1024C906.192,1024,827.423,1024,827.423,1024C827.423,850.708,685.638,708.923,512.346,708.923C339.054,708.923,197.269,850.708,197.269,1024C197.269,1024,118.5,1024,118.5,1024C118.5,803.446,291.792,630.154,512.346,630.154C732.9,630.154,906.192,803.446,906.192,1024C906.192,1024,906.192,1024,906.192,1024" />
</svg>