<?xml version="1.0" encoding="utf-8"?>
<svg version="1.1" xmlns="http://www.w3.org/2000/svg" xmlns:xlink="http://www.w3.org/1999/xlink" x="0px" y="0px" viewBox="0 0 1024 1024" xml:space="preserve">
 <path d="M567.282,1024C567.282,1024,567.282,574.4639999999999,567.282,574.4639999999999C567.282,574.4639999999999,953.278,354.355,953.278,354.355C953.278,354.355,953.278,803.891,953.278,803.891C953.278,803.891,567.282,1024,567.282,1024C567.282,1024,567.282,1024,567.282,1024M622.424,606.3620000000001C622.424,606.3620000000001,622.424,928.819,622.424,928.819C622.424,928.819,898.136,770.355,898.136,770.355C898.136,770.355,898.136,447.898,898.136,447.898C898.136,447.898,622.424,606.3620000000001,622.424,606.3620000000001C622.424,606.3620000000001,622.424,606.3620000000001,622.424,606.3620000000001M456.997,1024C456.997,1024,71,803.891,71,803.891C71,803.891,71,267.418,71,267.418C71,267.418,536.408,0,536.408,0C536.408,0,945.598,234.957,945.598,234.957C945.598,234.957,456.997,515.5840000000001,456.997,515.5840000000001C456.997,515.5840000000001,456.997,1024,456.997,1024C456.997,1024,456.997,1024,456.997,1024M126.142,770.355C126.142,770.355,401.854,928.819,401.854,928.819C401.854,928.819,401.854,483.68600000000004,401.854,483.68600000000004C401.854,483.68600000000004,835.262,234.957,835.262,234.957C835.262,234.957,536.408,63.283000000000015,536.408,63.283000000000015C536.408,63.283000000000015,126.142,299.31500000000005,126.142,299.31500000000005C126.142,299.31500000000005,126.142,770.355,126.142,770.355C126.142,770.355,126.142,770.355,126.142,770.355" />
</svg>