<?xml version="1.0" encoding="utf-8"?>
<svg version="1.1" xmlns="http://www.w3.org/2000/svg" xmlns:xlink="http://www.w3.org/1999/xlink" x="0px" y="0px" viewBox="0 0 1024 1024" xml:space="preserve">
 <path d="M509.453,989.6753816450869C417.751,989.6753816450869,331.144,964.2023816450869,254.726,923.4463816450868C249.632,918.3523816450869,244.537,913.2573816450869,244.537,908.1633816450869C244.537,903.0683816450869,244.537,892.8793816450868,249.632,887.7843816450869C249.632,887.7843816450869,407.562,612.6803816450869,407.562,612.6803816450869C412.657,602.4913816450869,427.94,597.3963816450869,443.224,602.4913816450869C489.075,627.9643816450869,540.02,627.9643816450869,585.871,602.4913816450869C596.06,597.3963816450869,611.343,597.3963816450869,621.532,612.6803816450869C621.532,612.6803816450869,779.463,887.7843816450869,779.463,887.7843816450869C784.557,892.8793816450868,784.557,903.0683816450869,784.557,908.1633816450869C784.557,913.2573816450869,779.463,918.3523816450869,774.368,923.4463816450868C687.761,964.2023816450869,601.154,989.6753816450869,509.453,989.6753816450869C509.453,989.6753816450869,509.453,989.6753816450869,509.453,989.6753816450869M300.577,887.7843816450869C427.94,954.0133816450868,585.871,954.0133816450868,713.234,887.7843816450869C713.234,887.7843816450869,580.776,658.5313816450869,580.776,658.5313816450869C534.925,678.9093816450868,478.886,678.9093816450868,433.035,658.5313816450869C433.035,658.5313816450869,300.577,887.7843816450869,300.577,887.7843816450869C300.577,887.7843816450869,300.577,887.7843816450869,300.577,887.7843816450869M993.433,531.1683816450868C993.433,531.1683816450868,677.572,531.1683816450868,677.572,531.1683816450868C662.289,531.1683816450868,652.1,520.9783816450869,652.1,505.69538164508685C652.1,444.56138164508684,621.532,383.42638164508685,580.776,357.95438164508687C575.682,352.85938164508684,570.587,347.7653816450869,570.587,342.6703816450869C570.587,337.57538164508685,570.587,327.3863816450869,575.682,322.29238164508683C575.682,322.29238164508683,733.612,47.187381645086816,733.612,47.187381645086816C738.706,36.99838164508685,753.99,31.904381645086914,769.274,36.99838164508685C922.109,123.60538164508682,1024,312.10338164508687,1024,500.6003816450868C1018.905,520.9783816450869,1008.716,531.1683816450868,993.433,531.1683816450868C993.433,531.1683816450868,993.433,531.1683816450868,993.433,531.1683816450868M703.045,480.2223816450869C703.045,480.2223816450869,967.96,480.2223816450869,967.96,480.2223816450869C957.771,327.3863816450869,881.353,179.6453816450869,759.085,98.13338164508684C759.085,98.13338164508684,626.627,327.3863816450869,626.627,327.3863816450869C667.383,363.0483816450869,692.856,419.0883816450869,703.045,480.2223816450869C703.045,480.2223816450869,703.045,480.2223816450869,703.045,480.2223816450869M341.333,531.1683816450868C341.333,531.1683816450868,25.473,531.1683816450868,25.473,531.1683816450868C10.189,531.1683816450868,0,520.9783816450869,0,505.69538164508685C0,317.1973816450869,101.891,128.70038164508685,254.726,42.09338164508688C264.915,36.99838164508685,280.199,36.99838164508685,290.388,52.28238164508684C290.388,52.28238164508684,448.318,327.3863816450869,448.318,327.3863816450869C448.318,327.3863816450869,453.413,337.57538164508685,448.318,342.6703816450869C448.318,347.7653816450869,443.224,352.85938164508684,438.129,357.95438164508687C397.373,383.42638164508685,366.806,444.56138164508684,366.806,505.69538164508685C366.806,520.9783816450869,356.617,531.1683816450868,341.333,531.1683816450868C341.333,531.1683816450868,341.333,531.1683816450868,341.333,531.1683816450868M50.945,480.2223816450869C50.945,480.2223816450869,315.861,480.2223816450869,315.861,480.2223816450869C326.05,419.0883816450869,351.522,363.0483816450869,392.279,327.3863816450869C392.279,327.3863816450869,259.821,98.13338164508684,259.821,98.13338164508684C137.552,179.6453816450869,61.134,327.3863816450869,50.945,480.2223816450869C50.945,480.2223816450869,50.945,480.2223816450869,50.945,480.2223816450869M463.602,480.2223816450869C463.602,454.7503816450869,483.98,434.3723816450869,509.453,434.3723816450869C534.925,434.3723816450869,555.303,459.84438164508686,555.303,480.2223816450869C555.303,505.69538164508685,534.925,526.0733816450869,509.453,526.0733816450869C483.98,531.1683816450868,463.602,505.69538164508685,463.602,480.2223816450869C463.602,480.2223816450869,463.602,480.2223816450869,463.602,480.2223816450869" />
</svg>