<?xml version="1.0" encoding="utf-8"?>
<svg version="1.1" xmlns="http://www.w3.org/2000/svg" xmlns:xlink="http://www.w3.org/1999/xlink" x="0px" y="0px" viewBox="0 0 1024 1024" xml:space="preserve">
 <path d="M354.093,1024C338.258,1024,327.701,1013.443,327.701,997.608C327.701,997.608,327.701,242.80399999999997,327.701,242.80399999999997C327.701,226.96900000000005,338.258,216.41200000000003,354.093,216.41200000000003C369.928,216.41200000000003,380.485,226.96900000000005,380.485,242.80399999999997C380.485,242.80399999999997,380.485,1002.887,380.485,1002.887C380.485,1013.443,369.928,1024,354.093,1024C354.093,1024,354.093,1024,354.093,1024M670.794,807.588C654.959,807.588,644.402,797.031,644.402,781.196C644.402,781.196,644.402,26.392000000000053,644.402,26.392000000000053C644.402,10.557000000000016,654.959,0,670.794,0C686.629,0,697.186,10.557000000000016,697.186,26.392000000000053C697.186,26.392000000000053,697.186,786.4739999999999,697.186,786.4739999999999C697.186,797.031,681.351,807.588,670.794,807.588C670.794,807.588,670.794,807.588,670.794,807.588M971.66,1024C971.66,1024,665.515,818.144,665.515,818.144C665.515,818.144,364.649,1024,364.649,1024C364.649,1024,332.979,1024,332.979,1024C332.979,1024,16.278,807.588,16.278,807.588C16.278,807.588,11,781.196,11,781.196C11,781.196,11,26.392000000000053,11,26.392000000000053C11,26.392000000000053,53.227,5.27800000000002,53.227,5.27800000000002C53.227,5.27800000000002,359.371,211.13400000000001,359.371,211.13400000000001C359.371,211.13400000000001,660.237,5.27800000000002,660.237,5.27800000000002C660.237,5.27800000000002,691.907,5.27800000000002,691.907,5.27800000000002C691.907,5.27800000000002,1008.608,221.69100000000003,1008.608,221.69100000000003C1008.608,221.69100000000003,1013.887,242.80399999999997,1013.887,242.80399999999997C1013.887,242.80399999999997,1013.887,1002.887,1013.887,1002.887C1013.887,1002.887,971.66,1024,971.66,1024C971.66,1024,971.66,1024,971.66,1024M63.784,770.639C63.784,770.639,354.093,971.216,354.093,971.216C354.093,971.216,654.959,765.361,654.959,765.361C654.959,765.361,686.629,765.361,686.629,765.361C686.629,765.361,966.381,955.381,966.381,955.381C966.381,955.381,966.381,253.361,966.381,253.361C966.381,253.361,676.072,52.78399999999999,676.072,52.78399999999999C676.072,52.78399999999999,369.928,263.918,369.928,263.918C369.928,263.918,338.258,263.918,338.258,263.918C338.258,263.918,63.784,73.89700000000005,63.784,73.89700000000005C63.784,73.89700000000005,63.784,770.639,63.784,770.639C63.784,770.639,63.784,770.639,63.784,770.639" />
</svg>