<?xml version="1.0" encoding="utf-8"?>
<svg version="1.1" xmlns="http://www.w3.org/2000/svg" xmlns:xlink="http://www.w3.org/1999/xlink" x="0px" y="0px" viewBox="0 0 1024 1024" xml:space="preserve">
 <path d="M179.2,768C179.2,827.136,243.2,864.0509999999999,294.4,834.509C318.157,820.787,332.8,795.443,332.8,768C332.8,708.864,268.8,671.9490000000001,217.6,701.491C193.843,715.213,179.2,740.557,179.2,768M332.8,1024C148.48,1024,0,875.52,0,691.2C0,506.88,148.48,358.4,332.8,358.4C378.88,358.4,424.96,368.64,471.04,389.12C471.04,389.12,855.04,0,855.04,0C855.04,0,1024,0,1024,0C1024,0,1024,256,1024,256C1024,256,936.96,256,936.96,256C936.96,256,921.6,271.36,921.6,271.36C921.6,271.36,921.6,358.4,921.6,358.4C921.6,358.4,834.56,358.4,834.56,358.4C834.56,358.4,819.2,373.76,819.2,373.76C819.2,373.76,819.2,460.79999999999995,819.2,460.79999999999995C819.2,460.79999999999995,732.16,460.79999999999995,732.16,460.79999999999995C732.16,460.79999999999995,634.88,558.0799999999999,634.88,558.0799999999999C655.36,599.04,660.48,645.12,660.48,691.2C665.6,875.52,517.12,1024,332.8,1024C332.8,1024,332.8,1024,332.8,1024M332.8,404.48C179.2,404.48,51.2,532.48,51.2,686.0799999999999C51.2,839.6800000000001,179.2,972.8,332.8,972.8C486.4,972.8,614.4,844.8,614.4,691.2C614.4,645.12,604.16,604.1600000000001,583.68,563.2C583.68,563.2,573.44,547.8399999999999,573.44,547.8399999999999C573.44,547.8399999999999,711.68,409.6,711.68,409.6C711.68,409.6,768,409.6,768,409.6C768,409.6,768,353.28,768,353.28C768,353.28,814.08,307.20000000000005,814.08,307.20000000000005C814.08,307.20000000000005,870.4,307.20000000000005,870.4,307.20000000000005C870.4,307.20000000000005,870.4,250.88,870.4,250.88C870.4,250.88,916.48,204.79999999999995,916.48,204.79999999999995C916.48,204.79999999999995,972.8,204.79999999999995,972.8,204.79999999999995C972.8,204.79999999999995,972.8,51.200000000000045,972.8,51.200000000000045C972.8,51.200000000000045,875.52,51.200000000000045,875.52,51.200000000000045C875.52,51.200000000000045,476.16,450.55999999999995,476.16,450.55999999999995C476.16,450.55999999999995,460.8,435.20000000000005,460.8,435.20000000000005C419.84,414.72,378.88,404.48,332.8,404.48C332.8,404.48,332.8,404.48,332.8,404.48" />
</svg>