<?xml version="1.0" encoding="utf-8"?>
<svg version="1.1" xmlns="http://www.w3.org/2000/svg" xmlns:xlink="http://www.w3.org/1999/xlink" x="0px" y="0px" viewBox="0 0 1024 1024" xml:space="preserve">
 <path d="M781.039,466.961C781.039,466.961,333.056,18.977999999999952,333.056,18.977999999999952C320.359,6.280999999999949,305.391,0,288.017,0C270.643,0,255.674,6.280999999999949,242.978,18.977999999999952C230.415,31.673999999999978,224,46.64300000000003,224,64.01700000000005C224,64.01700000000005,224,959.983,224,959.983C224,977.224,230.415,992.326,242.978,1004.889C255.674,1017.585,270.776,1024,288.017,1024C305.391,1024,320.359,1017.585,333.056,1004.889C333.056,1004.889,781.039,556.905,781.039,556.905C793.735,544.342,800.017,529.24,800.017,512C800.017,494.626,793.735,479.658,781.039,466.961C781.039,466.961,781.039,466.961,781.039,466.961C781.039,466.961,781.039,466.961,781.039,466.961" />
</svg>