<?xml version="1.0" encoding="utf-8"?>
<svg version="1.1" xmlns="http://www.w3.org/2000/svg" xmlns:xlink="http://www.w3.org/1999/xlink" x="0px" y="0px" viewBox="0 0 1024 1024" xml:space="preserve">
 <path d="M928,832C928,832,289.92,832,289.92,832C289.92,832,289.92,0,289.92,0C289.92,0,544,0,544,0C544,0,928,384,928,384C928,384,928,832,928,832C928,832,928,832,928,832M544,0C544,0,544,384,544,384C544,384,928,384,928,384M800,832C800,832,800,1024,800,1024C800,1024,96,1024,96,1024C96,1024,96,128,96,128C96,128,274.56,128,274.56,128" />
</svg>