<?xml version="1.0" encoding="utf-8"?>
<svg version="1.1" xmlns="http://www.w3.org/2000/svg" xmlns:xlink="http://www.w3.org/1999/xlink" x="0px" y="0px" viewBox="0 0 1024 1024" xml:space="preserve">
 <path d="M845.2,1024C845.2,1024,179.6,1024,179.6,1024C164.24,1024,154,1013.76,154,998.4C154,998.4,154,153.60000000000002,154,153.60000000000002C154,153.60000000000002,205.2,153.60000000000002,205.2,153.60000000000002C205.2,153.60000000000002,205.2,972.8,205.2,972.8C205.2,972.8,819.6,972.8,819.6,972.8C819.6,972.8,819.6,153.60000000000002,819.6,153.60000000000002C819.6,153.60000000000002,870.8,153.60000000000002,870.8,153.60000000000002C870.8,153.60000000000002,870.8,998.4,870.8,998.4C870.8,1013.76,860.56,1024,845.2,1024C845.2,1024,845.2,1024,845.2,1024M461.2,358.4C461.2,358.4,461.2,409.6,461.2,409.6C461.2,409.6,712.08,409.6,712.08,409.6C712.08,409.6,712.08,358.4,712.08,358.4C712.08,358.4,461.2,358.4,461.2,358.4M307.6,358.4C307.6,358.4,307.6,409.6,307.6,409.6C307.6,409.6,358.8,409.6,358.8,409.6C358.8,409.6,358.8,358.4,358.8,358.4C358.8,358.4,307.6,358.4,307.6,358.4M461.2,460.79999999999995C461.2,460.79999999999995,461.2,512,461.2,512C461.2,512,712.08,512,712.08,512C712.08,512,712.08,460.79999999999995,712.08,460.79999999999995C712.08,460.79999999999995,461.2,460.79999999999995,461.2,460.79999999999995M307.6,460.79999999999995C307.6,460.79999999999995,307.6,512,307.6,512C307.6,512,358.8,512,358.8,512C358.8,512,358.8,460.79999999999995,358.8,460.79999999999995C358.8,460.79999999999995,307.6,460.79999999999995,307.6,460.79999999999995M461.2,563.2C461.2,563.2,461.2,614.4,461.2,614.4C461.2,614.4,712.08,614.4,712.08,614.4C712.08,614.4,712.08,563.2,712.08,563.2C712.08,563.2,461.2,563.2,461.2,563.2M307.6,563.2C307.6,563.2,307.6,614.4,307.6,614.4C307.6,614.4,358.8,614.4,358.8,614.4C358.8,614.4,358.8,563.2,358.8,563.2C358.8,563.2,307.6,563.2,307.6,563.2M461.2,665.6C461.2,665.6,461.2,716.8,461.2,716.8C461.2,716.8,712.08,716.8,712.08,716.8C712.08,716.8,712.08,665.6,712.08,665.6C712.08,665.6,461.2,665.6,461.2,665.6M307.6,665.6C307.6,665.6,307.6,716.8,307.6,716.8C307.6,716.8,358.8,716.8,358.8,716.8C358.8,716.8,358.8,665.6,358.8,665.6C358.8,665.6,307.6,665.6,307.6,665.6M461.2,768C461.2,768,461.2,819.2,461.2,819.2C461.2,819.2,712.08,819.2,712.08,819.2C712.08,819.2,712.08,768,712.08,768C712.08,768,461.2,768,461.2,768M307.6,768C307.6,768,307.6,819.2,307.6,819.2C307.6,819.2,358.8,819.2,358.8,819.2C358.8,819.2,358.8,768,358.8,768C358.8,768,307.6,768,307.6,768M768.4,204.79999999999995C768.4,204.79999999999995,691.6,204.79999999999995,691.6,204.79999999999995C676.24,204.79999999999995,666,194.55999999999995,666,184.32000000000005C650.64,107.51999999999998,589.2,51.200000000000045,512.4,51.200000000000045C435.6,51.200000000000045,369.04,107.51999999999998,358.8,184.32000000000005C353.68,194.55999999999995,343.44,204.79999999999995,333.2,204.79999999999995C333.2,204.79999999999995,256.4,204.79999999999995,256.4,204.79999999999995C256.4,204.79999999999995,256.4,153.60000000000002,256.4,153.60000000000002C256.4,153.60000000000002,312.72,153.60000000000002,312.72,153.60000000000002C333.2,66.55999999999995,420.24,0,512.4,0C604.56,0,686.48,61.440000000000055,712.08,153.60000000000002C712.08,153.60000000000002,768.4,153.60000000000002,768.4,153.60000000000002C768.4,153.60000000000002,768.4,204.79999999999995,768.4,204.79999999999995C768.4,204.79999999999995,768.4,204.79999999999995,768.4,204.79999999999995" />
</svg>