<?xml version="1.0" encoding="utf-8"?>
<svg version="1.1" xmlns="http://www.w3.org/2000/svg" xmlns:xlink="http://www.w3.org/1999/xlink" x="0px" y="0px" viewBox="0 0 1024 1024" xml:space="preserve">
 <path d="M353.767,890.0199999999999C341.925,901.8619999999999,325.829,908.5259999999998,309.066,908.5259999999998C292.355,908.5259999999998,276.258,901.8619999999999,264.417,890.0199999999999C264.417,890.0199999999999,93.662,719.2659999999998,93.662,719.2659999999998C-28.085,597.3129999999999,-30.853,400.6719999999998,87.408,275.3359999999998C87.408,275.3359999999998,90.279,271.9519999999999,90.279,271.9519999999999C90.279,271.9519999999999,97.097,266.26199999999983,97.097,266.26199999999983C222.433,147.9999999999999,419.075,150.7679999999998,541.027,272.51599999999985C541.027,272.51599999999985,711.73,443.26999999999987,711.73,443.26999999999987C736.439,467.9279999999999,736.439,507.9119999999998,711.73,532.6199999999999C687.073,557.2779999999998,647.089,557.2779999999998,622.38,532.6199999999999C622.38,532.6199999999999,451.677,361.8659999999999,451.677,361.8659999999999C376.732,287.89499999999987,256.266,287.89499999999987,181.321,361.8659999999999C107.349,436.8109999999998,107.349,557.2779999999998,181.321,632.2229999999998C181.321,632.2229999999998,352.075,802.9259999999998,352.075,802.9259999999998C375.758,826.8649999999998,376.476,865.1579999999999,353.767,890.0199999999999C353.767,890.0199999999999,353.767,890.0199999999999,353.767,890.0199999999999C353.767,890.0199999999999,353.767,890.0199999999999,353.767,890.0199999999999M671.233,134.00599999999986C683.075,122.16399999999987,699.171,115.49999999999989,715.934,115.49999999999989C732.697,115.49999999999989,748.742,122.16399999999987,760.583,134.00599999999986C760.583,134.00599999999986,931.338,304.7599999999999,931.338,304.7599999999999C1053.085,426.71299999999985,1055.853,623.3539999999998,937.592,748.6909999999998C937.592,748.6909999999998,934.721,752.0739999999998,934.721,752.0739999999998C934.721,752.0739999999998,927.903,757.7639999999999,927.903,757.7639999999999C802.567,876.0259999999998,605.925,873.2579999999998,483.973,751.5099999999998C483.973,751.5099999999998,313.27,580.8069999999998,313.27,580.8069999999998C288.561,556.0989999999998,288.561,516.1139999999998,313.27,491.40599999999984C337.927,466.7489999999998,377.911,466.7489999999998,402.62,491.40599999999984C402.62,491.40599999999984,573.323,662.1599999999999,573.323,662.1599999999999C648.268,736.1829999999998,768.785,736.1829999999998,843.679,662.1599999999999C917.651,587.2659999999998,917.651,466.7489999999998,843.679,391.8539999999998C843.679,391.8539999999998,672.925,221.0999999999998,672.925,221.0999999999998C649.242,197.16099999999983,648.524,158.86799999999982,671.233,134.00599999999986C671.233,134.00599999999986,671.233,134.00599999999986,671.233,134.00599999999986C671.233,134.00599999999986,671.233,134.00599999999986,671.233,134.00599999999986" />
</svg>