<?xml version="1.0" encoding="utf-8"?>
<svg version="1.1" xmlns="http://www.w3.org/2000/svg" xmlns:xlink="http://www.w3.org/1999/xlink" x="0px" y="0px" viewBox="0 0 1024 1024" xml:space="preserve">
 <path d="M956.1,68.26700000000005C956.1,68.26700000000005,580.633,68.26700000000005,580.633,68.26700000000005C580.633,68.26700000000005,444.1,68.26700000000005,444.1,68.26700000000005C444.1,68.26700000000005,68.633,68.26700000000005,68.633,68.26700000000005C48.153,68.26700000000005,34.5,81.91999999999996,34.5,102.39999999999998C34.5,102.39999999999998,34.5,443.73299999999995,34.5,443.73299999999995C34.5,464.21299999999997,48.153,477.86699999999996,68.633,477.86699999999996C68.633,477.86699999999996,956.1,477.86699999999996,956.1,477.86699999999996C976.58,477.86699999999996,990.233,464.21299999999997,990.233,443.73299999999995C990.233,443.73299999999995,990.233,102.39999999999998,990.233,102.39999999999998C990.233,81.91999999999996,973.167,68.26700000000005,956.1,68.26700000000005C956.1,68.26700000000005,956.1,68.26700000000005,956.1,68.26700000000005M921.967,409.6C921.967,409.6,102.767,409.6,102.767,409.6C102.767,409.6,102.767,136.53300000000002,102.767,136.53300000000002C102.767,136.53300000000002,921.967,136.53300000000002,921.967,136.53300000000002C921.967,136.53300000000002,921.967,409.6,921.967,409.6C921.967,409.6,921.967,409.6,921.967,409.6M956.1,546.133C956.1,546.133,68.633,546.133,68.633,546.133C48.153,546.133,34.5,559.787,34.5,580.267C34.5,580.267,34.5,989.867,34.5,989.867C34.5,1010.347,48.153,1024,68.633,1024C68.633,1024,205.167,1024,205.167,1024C215.407,1024,222.233,1020.587,229.06,1013.76C229.06,1013.76,307.567,935.253,307.567,935.253C307.567,935.253,386.073,1013.76,386.073,1013.76C392.9,1020.587,403.14,1024,409.967,1024C416.793,1024,427.033,1020.587,433.86,1013.76C447.513,1000.107,447.513,979.627,433.86,965.973C433.86,965.973,331.46,863.573,331.46,863.573C331.46,863.573,331.46,863.573,331.46,863.573C331.46,863.573,331.46,863.573,331.46,863.573C331.46,863.573,321.22,853.333,321.22,853.333C321.22,853.333,433.86,740.693,433.86,740.693C447.513,727.04,447.513,706.56,433.86,692.9069999999999C420.207,679.2529999999999,399.727,679.2529999999999,386.073,692.9069999999999C386.073,692.9069999999999,249.54,829.44,249.54,829.44C235.887,843.093,235.887,863.573,249.54,877.227C249.54,877.227,259.78,887.467,259.78,887.467C259.78,887.467,191.513,955.733,191.513,955.733C191.513,955.733,102.767,955.733,102.767,955.733C102.767,955.733,102.767,614.4,102.767,614.4C102.767,614.4,921.967,614.4,921.967,614.4C921.967,614.4,921.967,955.733,921.967,955.733C921.967,955.733,833.22,955.733,833.22,955.733C833.22,955.733,764.953,887.467,764.953,887.467C764.953,887.467,775.193,877.227,775.193,877.227C788.847,863.573,788.847,843.093,775.193,829.44C775.193,829.44,638.66,692.9069999999999,638.66,692.9069999999999C625.007,679.2529999999999,604.527,679.2529999999999,590.873,692.9069999999999C577.22,706.56,577.22,727.04,590.873,740.693C590.873,740.693,703.513,853.333,703.513,853.333C703.513,853.333,590.873,965.973,590.873,965.973C577.22,979.627,577.22,1000.107,590.873,1013.76C597.7,1020.587,607.94,1024,614.767,1024C621.593,1024,631.833,1020.587,638.66,1013.76C638.66,1013.76,717.167,935.253,717.167,935.253C717.167,935.253,795.673,1013.76,795.673,1013.76C799.087,1017.173,802.5,1020.587,805.913,1020.587C809.327,1024,816.153,1024,819.567,1024C819.567,1024,956.1,1024,956.1,1024C976.58,1024,990.233,1010.347,990.233,989.867C990.233,989.867,990.233,580.267,990.233,580.267C990.233,559.787,973.167,546.133,956.1,546.133C956.1,546.133,956.1,546.133,956.1,546.133M307.567,341.33299999999997C345.113,341.33299999999997,375.833,310.61300000000006,375.833,273.067C375.833,235.51999999999998,345.113,204.79999999999995,307.567,204.79999999999995C270.02,204.79999999999995,239.3,235.51999999999998,239.3,273.067C239.3,310.61300000000006,270.02,341.33299999999997,307.567,341.33299999999997C307.567,341.33299999999997,307.567,341.33299999999997,307.567,341.33299999999997M717.167,341.33299999999997C754.713,341.33299999999997,785.433,310.61300000000006,785.433,273.067C785.433,235.51999999999998,754.713,204.79999999999995,717.167,204.79999999999995C679.62,204.79999999999995,648.9,235.51999999999998,648.9,273.067C648.9,310.61300000000006,679.62,341.33299999999997,717.167,341.33299999999997C717.167,341.33299999999997,717.167,341.33299999999997,717.167,341.33299999999997M580.633,34.13300000000004C580.633,34.13300000000004,580.633,34.13300000000004,580.633,34.13300000000004C580.633,13.65300000000002,566.98,0,546.5,0C546.5,0,546.5,0,546.5,0C546.5,0,478.233,0,478.233,0C478.233,0,478.233,0,478.233,0C457.753,0,444.1,13.65300000000002,444.1,34.13300000000004C444.1,34.13300000000004,444.1,34.13300000000004,444.1,34.13300000000004C444.1,34.13300000000004,444.1,34.13300000000004,444.1,34.13300000000004C444.1,34.13300000000004,444.1,102.39999999999998,444.1,102.39999999999998C444.1,102.39999999999998,512.367,102.39999999999998,512.367,102.39999999999998C512.367,102.39999999999998,512.367,102.39999999999998,512.367,102.39999999999998C512.367,102.39999999999998,580.633,102.39999999999998,580.633,102.39999999999998C580.633,102.39999999999998,580.633,34.13300000000004,580.633,34.13300000000004C580.633,34.13300000000004,580.633,34.13300000000004,580.633,34.13300000000004C580.633,34.13300000000004,580.633,34.13300000000004,580.633,34.13300000000004" />
</svg>