<?xml version="1.0" encoding="utf-8"?>
<svg version="1.1" xmlns="http://www.w3.org/2000/svg" xmlns:xlink="http://www.w3.org/1999/xlink" x="0px" y="0px" viewBox="0 0 1024 1024" xml:space="preserve">
 <path d="M512,1024C229.222,1024,0,794.778,0,512C0,229.22199999999998,229.222,0,512,0C794.778,0,1024,229.22199999999998,1024,512C1024,794.778,794.778,1024,512,1024C512,1024,512,1024,512,1024M512,972.8C766.515,972.8,972.8,766.515,972.8,512C972.8,257.485,766.515,51.200000000000045,512,51.200000000000045C257.485,51.200000000000045,51.2,257.485,51.2,512C51.2,766.515,257.485,972.8,512,972.8C512,972.8,512,972.8,512,972.8M570.214,268.851C596.89,273.51,619.52,280.832,637.44,289.485C637.44,289.485,628.787,345.395,628.787,345.395C610.15,334.08000000000004,586.854,324.096,560.947,318.106C560.896,318.106,538.266,462.54100000000005,538.266,463.206C618.803,491.827,656.077,527.77,656.077,593.664C656.077,670.874,601.498,719.462,504.986,719.462C504.986,719.462,498.995,719.462,498.995,719.462C498.995,719.462,486.349,798.0029999999999,486.349,798.0029999999999C486.349,798.0029999999999,443.75,788.685,443.75,788.685C443.802,788.685,455.117,715.469,455.117,715.469C418.509,710.144,386.56,699.494,364.595,688.179C364.595,688.179,372.582,632.269,372.582,632.269C400.538,648.2429999999999,430.49,660.2239999999999,464.384,666.2139999999999C464.435,666.2139999999999,489.728,503.808,489.062,503.808C409.856,475.85299999999995,375.245,446.56600000000003,375.245,382.00300000000004C375.245,304.12800000000004,433.818,264.192,517.018,264.192C517.018,264.192,525.67,264.192,525.67,264.192C525.67,264.192,533.606,214.27200000000005,533.606,214.27200000000005C533.658,214.27200000000005,577.587,224.25599999999997,577.587,224.25599999999997C577.587,224.25599999999997,570.266,268.851,570.266,268.851C570.266,268.851,570.266,268.851,570.266,268.851M505.702,670.2080000000001C505.702,670.2080000000001,509.696,670.2080000000001,509.696,670.2080000000001C572.262,670.2080000000001,600.883,643.5840000000001,600.883,596.992C600.883,563.712,587.571,539.75,529.664,517.7860000000001C529.664,517.7860000000001,505.702,670.2080000000001,505.702,670.2080000000001C505.702,670.2080000000001,505.702,670.2080000000001,505.702,670.2080000000001M519.014,312.78099999999995C519.014,312.78099999999995,509.03,312.78099999999995,509.03,312.78099999999995C455.782,312.78099999999995,429.158,337.408,429.158,376.678C429.158,411.28999999999996,445.798,429.26099999999997,497.715,449.22900000000004C498.381,448.563,519.014,312.78099999999995,519.014,312.78099999999995C519.014,312.78099999999995,519.014,312.78099999999995,519.014,312.78099999999995" />
</svg>