<?xml version="1.0" encoding="UTF-8"?>
<svg width="24px" height="24px" viewBox="0 0 24 24" version="1.1" xmlns="http://www.w3.org/2000/svg" xmlns:xlink="http://www.w3.org/1999/xlink">
    <!-- Generator: Sketch 52.3 (67297) - http://www.bohemiancoding.com/sketch -->
    <title>build</title>
    <desc>Created with Sketch.</desc>
    <g id="build" stroke="none" stroke-width="1" fill="none" fill-rule="evenodd">
        <path d="M17.8639928,5.62525721 L17.1418556,4.90370361 C16.921359,4.68338514 16.9540013,4.31721691 17.2099921,4.13937519 L20.1608255,2.08937519 C20.3595305,1.95133104 20.6285682,1.97536937 20.7996528,2.14645395 L22.0496528,3.39645395 C22.2253795,3.57218068 22.245373,3.8502983 22.0965889,4.04935366 L19.9582555,6.91018699 C19.7759403,7.15410285 19.4197724,7.17977962 19.2043556,6.96453695 L18.5713854,6.33207818 L10.3799561,14.5235075 L11.7927362,15.936954 C11.9879523,16.1322622 11.9878776,16.4488447 11.7925694,16.6440608 C11.5972613,16.8392769 11.2806788,16.8392022 11.0854627,16.643894 L10.5558345,16.1140161 L5.43388906,21.2367411 C4.75011193,21.9215243 3.64020907,21.9214748 2.95943142,21.2371959 C2.27548355,20.5544151 2.27548355,19.4467664 2.95907557,18.7631744 L8.08183801,13.6388526 L7.55212935,13.108894 C7.35691325,12.9135858 7.3569879,12.5970034 7.55229608,12.4017873 C7.74760426,12.2065712 8.06418674,12.2066458 8.25940284,12.401954 L9.67301602,13.816234 L17.8639928,5.62525721 Z M3.66623615,19.4702274 C3.37321531,19.7632482 3.37321531,20.2372662 3.66714076,20.5306942 C3.95844054,20.8234904 4.43342635,20.8234904 4.72632809,20.5300888 L9.84810288,15.4075342 L8.78773657,14.3471679 L3.66623615,19.4702274 Z M21.0364163,3.79743104 L20.388102,3.14911668 L18.2719531,4.61924555 L19.5028547,5.84915248 L21.0364163,3.79743104 Z M12.3746056,9.90674008 L11.6675933,10.6139413 L8.54675992,7.49394128 C8.40275336,7.34997318 8.36044053,7.13305617 8.43978247,6.94552068 C8.8864882,5.88967078 8.65857016,4.65839171 7.83519518,3.83570982 C7.19080942,3.19186739 6.3375911,2.9148865 5.49508558,3.03454563 L6.52530292,4.19705413 C6.6063496,4.28850808 6.65109943,4.40647586 6.65109943,4.52867401 L6.65109943,6.19534068 C6.65109943,6.47148305 6.4272418,6.69534068 6.15109943,6.69534068 L4.48443276,6.69534068 C4.35834262,6.69534068 4.23690801,6.6477014 4.14445256,6.5619651 L3.02483226,5.52371255 C2.91100632,6.37006359 3.19010521,7.23420107 3.82896832,7.87360285 C4.64684878,8.69217235 5.87587705,8.91189921 6.9375643,8.46168544 C7.12497132,8.38221456 7.34184833,8.42429093 7.48594135,8.56807623 L10.607608,11.6830762 L9.9012575,12.3909385 L7.00646821,9.50233132 C5.65301143,9.94083659 4.14978692,9.60950113 3.12156375,8.58041171 C2.00708596,7.46499424 1.70044455,5.83065217 2.30401458,4.40536606 C2.43918471,4.08617178 2.85024311,3.99801806 3.10441296,4.23371626 L4.68058475,5.69534068 L5.65109943,5.69534068 L5.65109943,4.71834374 L4.21939593,3.10279389 C3.99257246,2.84684381 4.08389553,2.44381905 4.39889286,2.31064241 C5.82236485,1.7088176 7.42627919,2.01352113 8.54200392,3.12830512 C9.57350009,4.15893302 9.91440831,5.66305819 9.48033609,7.0132434 L12.3746056,9.90674008 Z M11.6674989,14.1490136 L12.3747,13.4420011 L15.4972,16.5653345 C15.6411337,16.7093066 15.683406,16.92617 15.6040831,17.1136607 C15.157406,18.1694428 15.3852478,19.3999087 16.2088195,20.2227873 C16.8418932,20.855861 17.7173342,21.1364414 18.5689971,21.0282927 L17.457707,19.8749331 C17.3679275,19.7817548 17.3177661,19.6574003 17.3177661,19.5280073 L17.3177661,17.8613407 C17.3177661,17.5851983 17.5416237,17.3613407 17.8177661,17.3613407 L19.4844328,17.3613407 C19.6101577,17.3613407 19.7312682,17.408705 19.8236366,17.4939978 L21.018383,18.5972247 C21.1343126,17.7399774 20.8540245,16.8552447 20.215046,16.2157274 C19.3919303,15.3926117 18.1612094,15.1645221 17.1059194,15.610991 C16.9183615,15.6903424 16.7014177,15.6480093 16.5574517,15.5039663 L13.4366183,12.3814663 L14.1439139,11.6745483 L17.038251,14.5704312 C18.3878597,14.1366587 19.8912814,14.4777492 20.9223018,15.5087696 C22.035596,16.6230026 22.3442065,18.2876537 21.7398028,19.7139288 C21.6047491,20.0326294 21.1945296,20.1210043 20.940229,19.8861836 L19.2888908,18.3613407 L18.3177661,18.3613407 L18.3177661,19.3263202 L19.8728252,20.9402483 C20.1163256,21.1929668 20.0305221,21.6113465 19.7072044,21.7478189 C18.2792506,22.3505585 16.6143669,22.0425482 15.5018616,20.9300429 C14.4703186,19.8993682 14.129458,18.3959059 14.5635559,17.0458435 L11.6674989,14.1490136 Z" id="Combined-Shape" fill="#000000" fill-rule="nonzero"></path>
    </g>
</svg>