<?xml version="1.0" encoding="utf-8"?>
<svg version="1.1" xmlns="http://www.w3.org/2000/svg" xmlns:xlink="http://www.w3.org/1999/xlink" x="0px" y="0px" viewBox="0 0 1024 1024" xml:space="preserve">
 <path d="M483.975,601.5529999999999C483.975,601.5529999999999,483.975,602.0919999999999,483.975,602.0919999999999C483.975,602.0919999999999,215.579,800.963,215.579,800.963C215.579,800.963,215.579,601.5529999999999,215.579,601.5529999999999C215.579,601.5529999999999,0,601.5529999999999,0,601.5529999999999C0,601.5529999999999,0,655.448,0,655.448C0,655.448,161.684,655.448,161.684,655.448C161.684,655.448,161.684,907.675,161.684,907.675C161.684,907.675,502.299,655.448,502.299,655.448C502.299,655.448,1022.922,655.448,1022.922,655.448C1022.922,655.448,1022.922,601.5529999999999,1022.922,601.5529999999999C1022.922,601.5529999999999,483.975,601.5529999999999,483.975,601.5529999999999C483.975,601.5529999999999,483.975,601.5529999999999,483.975,601.5529999999999M0,116.5C0,116.5,1024,116.5,1024,116.5C1024,116.5,1024,170.39499999999998,1024,170.39499999999998C1024,170.39499999999998,0,170.39499999999998,0,170.39499999999998C0,170.39499999999998,0,116.5,0,116.5C0,116.5,0,116.5,0,116.5M0,439.8689999999999C0,439.8689999999999,1022.922,439.8689999999999,1022.922,439.8689999999999C1022.922,439.8689999999999,1022.922,493.7629999999999,1022.922,493.7629999999999C1022.922,493.7629999999999,0,493.7629999999999,0,493.7629999999999C0,493.7629999999999,0,439.8689999999999,0,439.8689999999999C0,439.8689999999999,0,439.8689999999999,0,439.8689999999999M0,278.18399999999997C0,278.18399999999997,1024,278.18399999999997,1024,278.18399999999997C1024,278.18399999999997,1024,332.07899999999995,1024,332.07899999999995C1024,332.07899999999995,0,332.07899999999995,0,332.07899999999995C0,332.07899999999995,0,278.18399999999997,0,278.18399999999997C0,278.18399999999997,0,278.18399999999997,0,278.18399999999997" />
</svg>