<?xml version="1.0" encoding="utf-8"?>
<svg version="1.1" xmlns="http://www.w3.org/2000/svg" xmlns:xlink="http://www.w3.org/1999/xlink" x="0px" y="0px" viewBox="0 0 1024 1024" xml:space="preserve">
 <path d="M967.111,56.88900000000001C967.111,56.88900000000001,967.111,967.111,967.111,967.111C967.111,967.111,56.889,967.111,56.889,967.111C56.889,967.111,56.889,56.88900000000001,56.889,56.88900000000001C56.889,56.88900000000001,967.111,56.88900000000001,967.111,56.88900000000001M1024,0C1024,0,0,0,0,0C0,0,0,1024,0,1024C0,1024,1024,1024,1024,1024C1024,1024,1024,0,1024,0C1024,0,1024,0,1024,0C1024,0,1024,0,1024,0M284.444,455.111C284.444,455.111,341.333,455.111,341.333,455.111C341.333,455.111,455.111,568.889,455.111,568.889C455.111,568.889,682.667,341.33299999999997,682.667,341.33299999999997C682.667,341.33299999999997,739.556,341.33299999999997,739.556,341.33299999999997C739.556,341.33299999999997,739.556,398.222,739.556,398.222C739.556,398.222,455.111,682.6669999999999,455.111,682.6669999999999C455.111,682.6669999999999,284.444,512,284.444,512C284.444,512,284.444,455.111,284.444,455.111" />
</svg>