<?xml version="1.0" encoding="utf-8"?>
<svg version="1.1" xmlns="http://www.w3.org/2000/svg" xmlns:xlink="http://www.w3.org/1999/xlink" x="0px" y="0px" viewBox="0 0 1024 1024" xml:space="preserve">
 <path d="M967.111,56.88900000000001C967.111,56.88900000000001,967.111,967.111,967.111,967.111C967.111,967.111,56.889,967.111,56.889,967.111C56.889,967.111,56.889,56.88900000000001,56.889,56.88900000000001C56.889,56.88900000000001,967.111,56.88900000000001,967.111,56.88900000000001M1024,0C1024,0,0,0,0,0C0,0,0,1024,0,1024C0,1024,1024,1024,1024,1024C1024,1024,1024,0,1024,0C1024,0,1024,0,1024,0C1024,0,1024,0,1024,0" />
</svg>