<?xml version="1.0" encoding="utf-8"?>
<svg version="1.1" xmlns="http://www.w3.org/2000/svg" xmlns:xlink="http://www.w3.org/1999/xlink" x="0px" y="0px" viewBox="0 0 1024 1024" xml:space="preserve">
 <path d="M512,0C229.145,0,0,229.178,0,512C0,794.822,229.178,1024,512,1024C794.822,1024,1024,794.822,1024,512C1024,229.178,794.822,0,512,0C512,0,512,0,512,0M512,924.903C283.879,924.903,99.097,740.121,99.097,512C99.097,283.879,283.879,99.09699999999998,512,99.09699999999998C740.121,99.09699999999998,924.903,283.879,924.903,512C924.903,740.121,740.121,924.903,512,924.903C512,924.903,512,924.903,512,924.903M639.604,709.3679999999999C639.604,709.3679999999999,464.334,581.995,464.334,581.995C457.926,577.239,454.227,569.806,454.227,561.9780000000001C454.227,561.9780000000001,454.227,223.00099999999998,454.227,223.00099999999998C454.227,209.39099999999996,465.391,198.22699999999998,479.001,198.22699999999998C479.001,198.22699999999998,545.065,198.22699999999998,545.065,198.22699999999998C558.708,198.22699999999998,569.839,209.39099999999996,569.839,223.00099999999998C569.839,223.00099999999998,569.839,515.534,569.839,515.534C569.839,515.534,707.749,615.886,707.749,615.886C718.881,623.946,721.16,639.405,713.133,650.5699999999999C713.133,650.5699999999999,674.321,704.05,674.321,704.05C666.261,714.983,650.802,717.461,639.637,709.434C639.637,709.434,639.604,709.3679999999999,639.604,709.3679999999999" />
</svg>