<?xml version="1.0" encoding="utf-8"?>
<svg version="1.1" xmlns="http://www.w3.org/2000/svg" xmlns:xlink="http://www.w3.org/1999/xlink" x="0px" y="0px" viewBox="0 0 1024 1024" xml:space="preserve">
 <path d="M6.5,73.14999999999998C6.5,73.14999999999998,67.453,12.197000000000003,67.453,12.197000000000003C67.453,12.197000000000003,1018.303,963.047,1018.303,963.047C1018.303,963.047,957.35,1024,957.35,1024C957.35,1024,6.5,73.14999999999998,6.5,73.14999999999998C6.5,73.14999999999998,6.5,73.14999999999998,6.5,73.14999999999998M6.5,950.85C6.5,950.85,957.35,0,957.35,0C957.35,0,1018.303,60.952999999999975,1018.303,60.952999999999975C1018.303,60.952999999999975,67.453,1011.803,67.453,1011.803C67.453,1011.803,6.5,950.85,6.5,950.85C6.5,950.85,6.5,950.85,6.5,950.85" />
</svg>