<?xml version="1.0" encoding="utf-8"?>
<svg version="1.1" xmlns="http://www.w3.org/2000/svg" xmlns:xlink="http://www.w3.org/1999/xlink" x="0px" y="0px" viewBox="0 0 1024 1024" xml:space="preserve">
 <path d="M393.846,1024C393.846,1024,315.077,1024,315.077,1024C315.077,1024,315.077,708.923,315.077,708.923C315.077,708.923,0,708.923,0,708.923C0,708.923,0,630.154,0,630.154C0,630.154,393.846,630.154,393.846,630.154C393.846,630.154,393.846,1024,393.846,1024M1024,393.846C1024,393.846,630.154,393.846,630.154,393.846C630.154,393.846,630.154,0,630.154,0C630.154,0,708.923,0,708.923,0C708.923,0,708.923,315.077,708.923,315.077C708.923,315.077,1024,315.077,1024,315.077C1024,315.077,1024,393.846,1024,393.846" />
</svg>