<?xml version="1.0" encoding="utf-8"?>
<svg version="1.1" xmlns="http://www.w3.org/2000/svg" xmlns:xlink="http://www.w3.org/1999/xlink" x="0px" y="0px" viewBox="0 0 1024 1024" xml:space="preserve">
 <path d="M237.376,1023.99975C187.153,1023.99975,136.929,1001.67775,97.866,968.19575C97.866,968.19575,58.804,929.13375,58.804,929.13375C19.741,890.07075,3,845.42775,3,789.62375C3,739.40075,25.322,689.17675,58.804,650.11375C58.804,650.11375,315.501,393.41675,315.501,393.41675C388.046,320.8717499999999,516.395,320.8717499999999,588.94,393.41675C588.94,393.41675,628.003,432.47974999999997,628.003,432.47974999999997C639.163,443.63974999999994,639.163,460.3807499999999,628.003,471.54175C616.842,482.7027499999999,600.101,482.7027499999999,588.94,471.54175C588.94,471.54175,549.877,432.47974999999997,549.877,432.47974999999997C499.654,382.2557499999999,404.787,382.2557499999999,354.564,432.47974999999997C354.564,432.47974999999997,97.866,689.17675,97.866,689.17675C69.965,717.0787499999999,58.804,750.5607499999999,58.804,789.62375C58.804,828.68675,75.545,862.1687499999999,97.866,890.07075C97.866,890.07075,136.929,929.13375,136.929,929.13375C187.153,979.3567499999999,282.019,979.3567499999999,332.243,929.13375C332.243,929.13375,510.815,750.5607499999999,510.815,750.5607499999999C521.975,739.40075,538.717,739.40075,549.877,750.5607499999999C561.038,761.7217499999999,561.038,778.4627499999999,549.877,789.62375C549.877,789.62375,371.305,968.19575,371.305,968.19575C337.823,1001.67775,287.599,1023.99975,237.376,1023.99975C237.376,1023.99975,237.376,1023.99975,237.376,1023.99975M572.199,683.5967499999999C521.975,683.5967499999999,471.752,661.2747499999999,432.689,627.79275C421.529,616.63175,421.529,599.89075,432.689,588.72975C443.85,577.5687499999999,460.591,577.5687499999999,471.752,588.72975C521.975,638.9537499999999,616.842,638.9537499999999,667.065,588.72975C667.065,588.72975,923.763,332.03274999999996,923.763,332.03274999999996C979.567,276.22875,979.567,186.94274999999993,923.763,136.71875C923.763,136.71875,884.7,97.65674999999999,884.7,97.65674999999999C828.896,41.8527499999999,739.61,41.8527499999999,689.387,97.65674999999999C689.387,97.65674999999999,510.815,276.22875,510.815,276.22875C499.654,287.38974999999994,482.913,287.38974999999994,471.752,276.22875C460.591,265.06774999999993,460.591,248.32674999999995,471.752,237.16575C471.752,237.16575,650.324,58.59375,650.324,58.59375C728.45,-19.53125,851.218,-19.53125,923.763,58.59375C923.763,58.59375,962.826,97.65674999999999,962.826,97.65674999999999C1040.951,175.78175,1040.951,298.5497499999999,962.826,371.09475C962.826,371.09475,706.128,627.79275,706.128,627.79275C672.646,666.85575,622.422,683.5967499999999,572.199,683.5967499999999C572.199,683.5967499999999,572.199,683.5967499999999,572.199,683.5967499999999" />
</svg>