<?xml version="1.0" encoding="utf-8"?>
<svg version="1.1" xmlns="http://www.w3.org/2000/svg" xmlns:xlink="http://www.w3.org/1999/xlink" x="0px" y="0px" viewBox="0 0 1024 1024" xml:space="preserve">
 <path d="M435.6,512C435.6,571.136,499.6,608.0509999999999,550.8,578.509C574.557,564.787,589.2,539.443,589.2,512C589.2,452.86400000000003,525.2,415.94899999999996,474,445.491C450.243,459.21299999999997,435.6,484.557,435.6,512M870.8,460.79999999999995C870.8,460.79999999999995,672.144,460.79999999999995,672.144,460.79999999999995C672.144,460.79999999999995,563.6,345.08799999999997,563.6,345.08799999999997C563.6,345.08799999999997,563.6,0,563.6,0C563.6,0,870.8,0,870.8,0C870.8,0,870.8,460.79999999999995,870.8,460.79999999999995M694.16,409.6C694.16,409.6,819.6,409.6,819.6,409.6C819.6,409.6,819.6,51.200000000000045,819.6,51.200000000000045C819.6,51.200000000000045,614.8,51.200000000000045,614.8,51.200000000000045C614.8,51.200000000000045,614.8,325.12,614.8,325.12C614.8,325.12,694.16,409.6,694.16,409.6M870.8,1024C870.8,1024,563.6,1024,563.6,1024C563.6,1024,563.6,683.52,563.6,683.52C563.6,683.52,676.24,563.2,676.24,563.2C676.24,563.2,870.8,563.2,870.8,563.2C870.8,563.2,870.8,1024,870.8,1024M614.8,972.8C614.8,972.8,819.6,972.8,819.6,972.8C819.6,972.8,819.6,614.4,819.6,614.4C819.6,614.4,698.256,614.4,698.256,614.4C698.256,614.4,614.8,703.488,614.8,703.488C614.8,703.488,614.8,972.8,614.8,972.8M461.2,1024C461.2,1024,154,1024,154,1024C154,1024,154,563.2,154,563.2C154,563.2,348.56,563.2,348.56,563.2C348.56,563.2,461.2,683.52,461.2,683.52C461.2,683.52,461.2,1024,461.2,1024M205.2,972.8C205.2,972.8,410,972.8,410,972.8C410,972.8,410,703.488,410,703.488C410,703.488,326.544,614.4,326.544,614.4C326.544,614.4,205.2,614.4,205.2,614.4C205.2,614.4,205.2,972.8,205.2,972.8M352.656,460.79999999999995C352.656,460.79999999999995,154,460.79999999999995,154,460.79999999999995C154,460.79999999999995,154,0,154,0C154,0,461.2,0,461.2,0C461.2,0,461.2,345.08799999999997,461.2,345.08799999999997C461.2,345.08799999999997,352.656,460.79999999999995,352.656,460.79999999999995M205.2,409.6C205.2,409.6,330.64,409.6,330.64,409.6C330.64,409.6,410,325.12,410,325.12C410,325.12,410,51.200000000000045,410,51.200000000000045C410,51.200000000000045,205.2,51.200000000000045,205.2,51.200000000000045C205.2,51.200000000000045,205.2,409.6,205.2,409.6" />
</svg>