<?xml version="1.0" encoding="utf-8"?>
<svg version="1.1" xmlns="http://www.w3.org/2000/svg" xmlns:xlink="http://www.w3.org/1999/xlink" x="0px" y="0px" viewBox="0 0 1024 1024" xml:space="preserve">
 <path d="M26,0C26,0,26,1024,26,1024C26,1024,998.8,1024,998.8,1024C998.8,1024,998.8,0,998.8,0C998.8,0,26,0,26,0M947.6,972.8C947.6,972.8,77.2,972.8,77.2,972.8C77.2,972.8,77.2,51.200000000000045,77.2,51.200000000000045C77.2,51.200000000000045,947.6,51.200000000000045,947.6,51.200000000000045C947.6,51.200000000000045,947.6,972.8,947.6,972.8M742.8,614.4C742.8,614.4,794,614.4,794,614.4C794,614.4,794,460.79999999999995,794,460.79999999999995C794,460.79999999999995,845.2,460.79999999999995,845.2,460.79999999999995C845.2,460.79999999999995,845.2,409.6,845.2,409.6C845.2,409.6,794,409.6,794,409.6C794,409.6,794,153.60000000000002,794,153.60000000000002C794,153.60000000000002,742.8,153.60000000000002,742.8,153.60000000000002C742.8,153.60000000000002,742.8,409.6,742.8,409.6C742.8,409.6,691.6,409.6,691.6,409.6C691.6,409.6,691.6,460.79999999999995,691.6,460.79999999999995C691.6,460.79999999999995,742.8,460.79999999999995,742.8,460.79999999999995C742.8,460.79999999999995,742.8,614.4,742.8,614.4C742.8,614.4,742.8,614.4,742.8,614.4M486.8,614.4C486.8,614.4,538,614.4,538,614.4C538,614.4,538,307.20000000000005,538,307.20000000000005C538,307.20000000000005,589.2,307.20000000000005,589.2,307.20000000000005C589.2,307.20000000000005,589.2,256,589.2,256C589.2,256,538,256,538,256C538,256,538,153.60000000000002,538,153.60000000000002C538,153.60000000000002,486.8,153.60000000000002,486.8,153.60000000000002C486.8,153.60000000000002,486.8,256,486.8,256C486.8,256,435.6,256,435.6,256C435.6,256,435.6,307.20000000000005,435.6,307.20000000000005C435.6,307.20000000000005,486.8,307.20000000000005,486.8,307.20000000000005C486.8,307.20000000000005,486.8,614.4,486.8,614.4C486.8,614.4,486.8,614.4,486.8,614.4M230.8,614.4C230.8,614.4,282,614.4,282,614.4C282,614.4,282,409.6,282,409.6C282,409.6,333.2,409.6,333.2,409.6C333.2,409.6,333.2,358.4,333.2,358.4C333.2,358.4,282,358.4,282,358.4C282,358.4,282,153.60000000000002,282,153.60000000000002C282,153.60000000000002,230.8,153.60000000000002,230.8,153.60000000000002C230.8,153.60000000000002,230.8,358.4,230.8,358.4C230.8,358.4,179.6,358.4,179.6,358.4C179.6,358.4,179.6,409.6,179.6,409.6C179.6,409.6,230.8,409.6,230.8,409.6C230.8,409.6,230.8,614.4,230.8,614.4C230.8,614.4,230.8,614.4,230.8,614.4M691.6,793.6C691.6,852.736,755.6,889.6510000000001,806.8,860.109C830.557,846.387,845.2,821.043,845.2,793.6C845.2,734.4639999999999,781.2,697.549,730,727.091C706.243,740.813,691.6,766.1569999999999,691.6,793.6M435.6,793.6C435.6,852.736,499.6,889.6510000000001,550.8,860.109C574.557,846.387,589.2,821.043,589.2,793.6C589.2,734.4639999999999,525.2,697.549,474,727.091C450.243,740.813,435.6,766.1569999999999,435.6,793.6M179.6,793.6C179.6,852.736,243.6,889.6510000000001,294.8,860.109C318.557,846.387,333.2,821.043,333.2,793.6C333.2,734.4639999999999,269.2,697.549,218,727.091C194.243,740.813,179.6,766.1569999999999,179.6,793.6" />
</svg>