<?xml version="1.0" encoding="utf-8"?>
<svg version="1.1" xmlns="http://www.w3.org/2000/svg" xmlns:xlink="http://www.w3.org/1999/xlink" x="0px" y="0px" viewBox="0 0 1024 1024" xml:space="preserve">
 <path d="M1014.433,430.471C1014.433,430.471,1014.433,365.24800000000005,1014.433,365.24800000000005C1014.433,365.24800000000005,805.72,365.24800000000005,805.72,365.24800000000005C788.327,267.414,733.975,193.495,651.359,154.361C651.359,154.361,651.359,0,651.359,0C651.359,0,586.136,0,586.136,0C586.136,0,586.136,132.62,586.136,132.62C562.221,128.27200000000005,538.306,123.92399999999998,512.217,123.92399999999998C486.127,123.92399999999998,462.212,126.09799999999996,438.297,132.62C438.297,132.62,438.297,0,438.297,0C438.297,0,373.074,0,373.074,0C373.074,0,373.074,154.361,373.074,154.361C290.459,193.495,233.932,267.414,218.713,365.24800000000005C218.713,365.24800000000005,10,365.24800000000005,10,365.24800000000005C10,365.24800000000005,10,430.471,10,430.471C10,430.471,214.365,430.471,214.365,430.471C214.365,430.471,214.365,523.9580000000001,214.365,523.9580000000001C214.365,523.9580000000001,10,523.9580000000001,10,523.9580000000001C10,523.9580000000001,10,589.1800000000001,10,589.1800000000001C10,589.1800000000001,214.365,589.1800000000001,214.365,589.1800000000001C214.365,589.1800000000001,214.365,656.577,214.365,656.577C214.365,665.274,214.365,673.97,216.539,682.6669999999999C216.539,682.6669999999999,10,682.6669999999999,10,682.6669999999999C10,682.6669999999999,10,747.89,10,747.89C10,747.89,238.28,747.89,238.28,747.89C301.329,880.51,470.909,1002.259,492.65,1017.478C499.172,1021.826,505.694,1024,512.217,1024C518.739,1024,525.261,1021.826,531.783,1017.478C555.699,1002.259,725.278,878.335,786.153,747.89C786.153,747.89,1014.433,747.89,1014.433,747.89C1014.433,747.89,1014.433,682.6669999999999,1014.433,682.6669999999999C1014.433,682.6669999999999,807.894,682.6669999999999,807.894,682.6669999999999C810.068,673.97,810.068,665.274,810.068,656.577C810.068,656.577,810.068,589.1800000000001,810.068,589.1800000000001C810.068,589.1800000000001,1014.433,589.1800000000001,1014.433,589.1800000000001C1014.433,589.1800000000001,1014.433,523.9580000000001,1014.433,523.9580000000001C1014.433,523.9580000000001,810.068,523.9580000000001,810.068,523.9580000000001C810.068,523.9580000000001,810.068,430.471,810.068,430.471C810.068,430.471,1014.433,430.471,1014.433,430.471C1014.433,430.471,1014.433,430.471,1014.433,430.471M512.217,191.32100000000003C633.966,191.32100000000003,716.582,256.544,738.323,365.24800000000005C738.323,365.24800000000005,286.11,365.24800000000005,286.11,365.24800000000005C307.851,254.36900000000003,390.467,191.32100000000003,512.217,191.32100000000003C512.217,191.32100000000003,512.217,191.32100000000003,512.217,191.32100000000003M512.217,950.081C433.949,891.38,279.588,756.586,279.588,656.577C279.588,656.577,279.588,467.43100000000004,279.588,467.43100000000004C279.588,467.43100000000004,644.837,832.679,644.837,832.679C599.18,880.51,549.176,923.992,512.217,950.081C512.217,950.081,512.217,950.081,512.217,950.081M744.845,656.577C744.845,695.711,720.93,739.193,688.318,782.675C688.318,782.675,336.115,430.471,336.115,430.471C336.115,430.471,742.671,430.471,742.671,430.471C742.671,430.471,742.671,656.577,742.671,656.577C742.671,656.577,744.845,656.577,744.845,656.577" />
</svg>