<?xml version="1.0" encoding="utf-8"?>
<svg version="1.1" xmlns="http://www.w3.org/2000/svg" xmlns:xlink="http://www.w3.org/1999/xlink" x="0px" y="0px" viewBox="0 0 1024 1024" xml:space="preserve">
 <path d="M589.445,153.51800000000003C589.445,153.51800000000003,589.445,0,589.445,0C589.445,0,640.617,0,640.617,0C640.617,0,640.617,153.51800000000003,640.617,153.51800000000003C640.617,153.51800000000003,589.445,153.51800000000003,589.445,153.51800000000003C589.445,153.51800000000003,589.445,153.51800000000003,589.445,153.51800000000003M384.753,153.51800000000003C384.753,153.51800000000003,384.753,0,384.753,0C384.753,0,435.926,0,435.926,0C435.926,0,435.926,153.51800000000003,435.926,153.51800000000003C435.926,153.51800000000003,384.753,153.51800000000003,384.753,153.51800000000003C384.753,153.51800000000003,384.753,153.51800000000003,384.753,153.51800000000003M26,358.75300000000004C26,358.75300000000004,998.283,358.75300000000004,998.283,358.75300000000004C998.283,358.75300000000004,998.283,409.92600000000004,998.283,409.92600000000004C998.283,409.92600000000004,26,409.92600000000004,26,409.92600000000004C26,409.92600000000004,26,358.75300000000004,26,358.75300000000004C26,358.75300000000004,26,358.75300000000004,26,358.75300000000004M742.419,512.2719999999999C742.419,512.2719999999999,998.283,512.2719999999999,998.283,512.2719999999999C998.283,512.2719999999999,998.283,563.4449999999999,998.283,563.4449999999999C998.283,563.4449999999999,742.419,563.4449999999999,742.419,563.4449999999999C742.419,563.4449999999999,742.419,512.2719999999999,742.419,512.2719999999999C742.419,512.2719999999999,742.419,512.2719999999999,742.419,512.2719999999999M26,512.2719999999999C26,512.2719999999999,281.864,512.2719999999999,281.864,512.2719999999999C281.864,512.2719999999999,281.864,563.4449999999999,281.864,563.4449999999999C281.864,563.4449999999999,26,563.4449999999999,26,563.4449999999999C26,563.4449999999999,26,512.2719999999999,26,512.2719999999999C26,512.2719999999999,26,512.2719999999999,26,512.2719999999999M742.419,665.79C742.419,665.79,998.283,665.79,998.283,665.79C998.283,665.79,998.283,716.963,998.283,716.963C998.283,716.963,742.419,716.963,742.419,716.963C742.419,716.963,742.419,665.79,742.419,665.79C742.419,665.79,742.419,665.79,742.419,665.79M26,665.79C26,665.79,281.864,665.79,281.864,665.79C281.864,665.79,281.864,716.963,281.864,716.963C281.864,716.963,26,716.963,26,716.963C26,716.963,26,665.79,26,665.79C26,665.79,26,665.79,26,665.79M512.142,1024C507.024,1024,501.907,1024,496.79,1018.883C486.555,1008.648,230.691,788.605,230.691,635.087C230.691,635.087,230.691,384.34000000000003,230.691,384.34000000000003C246.043,225.70399999999995,353.506,128.476,512.142,128.476C670.777,128.476,778.24,230.82100000000003,793.592,384.34000000000003C793.592,384.34000000000003,793.592,384.34000000000003,793.592,384.34000000000003C793.592,384.34000000000003,793.592,635.087,793.592,635.087C793.592,788.605,537.728,1008.648,527.494,1018.883C522.376,1024,517.259,1024,512.142,1024C512.142,1024,512.142,1024,512.142,1024M512.142,179.649C379.092,179.649,292.099,256.408,281.864,384.34000000000003C281.864,384.34000000000003,281.864,629.969,281.864,629.969C281.864,732.315,435.383,890.951,512.142,962.593C588.901,890.951,742.419,732.315,742.419,629.969C742.419,629.969,742.419,384.34000000000003,742.419,384.34000000000003C732.185,256.408,645.191,179.649,512.142,179.649C512.142,179.649,512.142,179.649,512.142,179.649" />
</svg>