
<svg width="16px" height="16px" viewBox="0 0 16 16" version="1.1" xmlns="http://www.w3.org/2000/svg" xmlns:xlink="http://www.w3.org/1999/xlink">
    <g id="Page-1" stroke="none" stroke-width="1" fill="none" fill-rule="evenodd">
        <g id="Don't-(1)" fill="#DD2C00" fill-rule="nonzero">
            <path d="M3.56589603,5.68721677 C3.20441292,6.37883949 3,7.16554815 3,8 C3,10.7614237 5.23857625,13 8,13 C8.83445185,13 9.62116051,12.7955871 10.3127832,12.434104 L3.56589603,5.68721677 Z M5.68721626,3.5658963 L12.4341037,10.3127837 C12.795587,9.62116089 13,8.83445206 13,8 C13,5.23857625 10.7614237,3 8,3 C7.16554794,3 6.37883911,3.20441302 5.68721626,3.5658963 Z M8,16 C3.581722,16 0,12.418278 0,8 C0,3.581722 3.581722,0 8,0 C12.418278,0 16,3.581722 16,8 C16,12.418278 12.418278,16 8,16 Z" id="Combined-Shape"></path>
        </g>
    </g>
</svg>
