<?xml version="1.0" encoding="utf-8"?>
<svg version="1.1" xmlns="http://www.w3.org/2000/svg" xmlns:xlink="http://www.w3.org/1999/xlink" x="0px" y="0px" viewBox="0 0 1024 1024" xml:space="preserve">
 <path d="M527.992,0C527.992,0,79,0,79,0C79,0,79,1024,79,1024C79,1024,945.464,1024,945.464,1024C945.464,1024,945.464,417.472,945.464,417.472C945.464,417.472,527.992,0,527.992,0C527.992,0,527.992,0,527.992,0M551.608,133.91999999999996C551.608,133.91999999999996,811.544,393.856,811.544,393.856C811.544,393.856,551.608,393.856,551.608,393.856C551.608,393.856,551.608,133.91999999999996,551.608,133.91999999999996C551.608,133.91999999999996,551.608,133.91999999999996,551.608,133.91999999999996M157.784,945.216C157.784,945.216,157.784,78.75199999999995,157.784,78.75199999999995C157.784,78.75199999999995,472.856,78.75199999999995,472.856,78.75199999999995C472.856,78.75199999999995,472.856,472.60799999999995,472.856,472.60799999999995C472.856,472.60799999999995,866.712,472.60799999999995,866.712,472.60799999999995C866.712,472.60799999999995,866.712,945.216,866.712,945.216C866.712,945.216,157.784,945.216,157.784,945.216C157.784,945.216,157.784,945.216,157.784,945.216" />
</svg>