<?xml version="1.0" encoding="utf-8"?>
<svg version="1.1" xmlns="http://www.w3.org/2000/svg" xmlns:xlink="http://www.w3.org/1999/xlink" x="0px" y="0px" viewBox="0 0 1024 1024" xml:space="preserve">
 <path d="M973.131,512C973.131,257.34799999999996,766.652,50.86900000000003,512,50.86900000000003C257.297,50.86900000000003,50.869,257.34799999999996,50.869,512C50.869,766.652,257.297,973.131,512,973.131C766.652,973.131,973.131,766.652,973.131,512C973.131,512,973.131,512,973.131,512M1024,512C1024,794.783,794.783,1024,512,1024C229.217,1024,0,794.783,0,512C0,229.21699999999998,229.217,0,512,0C794.783,0,1024,229.21699999999998,1024,512C1024,512,1024,512,1024,512M537.435,799.514C537.435,799.514,537.435,224.486,537.435,224.486C537.435,210.44600000000003,526.04,199.05200000000002,512,199.05200000000002C497.96,199.05200000000002,486.565,210.44600000000003,486.565,224.486C486.565,224.486,486.565,799.514,486.565,799.514C486.565,813.554,497.96,824.948,512,824.948C526.04,824.948,537.435,813.554,537.435,799.514C537.435,799.514,537.435,799.514,537.435,799.514M286.7,538.249C276.729,528.329,260.655,528.329,250.735,538.249C240.765,548.168,240.765,564.294,250.735,574.213C250.735,574.213,493.992,817.521,493.992,817.521C503.912,827.441,520.037,827.441,529.957,817.521C529.957,817.521,773.265,574.213,773.265,574.213C783.185,564.294,783.185,548.168,773.265,538.249C763.345,528.329,747.22,528.329,737.3,538.249C737.3,538.249,512,763.549,512,763.549C512,763.549,286.7,538.249,286.7,538.249C286.7,538.249,286.7,538.249,286.7,538.249" />
</svg>