<?xml version="1.0" encoding="utf-8"?>
<svg version="1.1" xmlns="http://www.w3.org/2000/svg" xmlns:xlink="http://www.w3.org/1999/xlink" x="0px" y="0px" viewBox="0 0 1024 1024" xml:space="preserve">
 <path d="M1024,793.7C1024,793.7,204.8,793.7,204.8,793.7C204.8,793.7,204.8,230.5,204.8,230.5C204.8,230.5,1024,230.5,1024,230.5C1024,230.5,1024,793.7,1024,793.7C1024,793.7,1024,793.7,1024,793.7M256,742.5C256,742.5,972.8,742.5,972.8,742.5C972.8,742.5,972.8,281.70000000000005,972.8,281.70000000000005C972.8,281.70000000000005,256,281.70000000000005,256,281.70000000000005C256,281.70000000000005,256,742.5,256,742.5C256,742.5,256,742.5,256,742.5M614.4,531.3000000000001C614.4,531.3000000000001,947.149,281.7510000000001,947.149,281.7510000000001C947.149,281.7510000000001,972.8,281.7510000000001,972.8,281.7510000000001C972.8,281.7510000000001,972.8,326.244,972.8,326.244C972.8,326.244,614.4,595.3000000000001,614.4,595.3000000000001C614.4,595.3000000000001,256.051,326.55100000000004,256.051,326.55100000000004C256.051,326.55100000000004,256.051,281.70000000000005,256.051,281.70000000000005C256.051,281.70000000000005,281.651,281.70000000000005,281.651,281.70000000000005C281.651,281.70000000000005,614.4,531.3000000000001,614.4,531.3000000000001M230.4,230.5C244.531,230.5,256,241.96900000000005,256,256.1C256,270.231,244.531,281.70000000000005,230.4,281.70000000000005C230.4,281.70000000000005,25.6,281.70000000000005,25.6,281.70000000000005C11.469,281.70000000000005,0,270.231,0,256.1C0,241.96900000000005,11.469,230.5,25.6,230.5C25.6,230.5,230.4,230.5,230.4,230.5C230.4,230.5,230.4,230.5,230.4,230.5M128,384.1C142.131,384.1,153.6,395.5690000000001,153.6,409.70000000000005C153.6,423.831,142.131,435.30000000000007,128,435.30000000000007C128,435.30000000000007,25.6,435.30000000000007,25.6,435.30000000000007C11.469,435.30000000000007,0,423.831,0,409.70000000000005C0,395.5690000000001,11.469,384.1,25.6,384.1C25.6,384.1,128,384.1,128,384.1C128,384.1,128,384.1,128,384.1" />
</svg>