<?xml version="1.0" encoding="utf-8"?>
<svg version="1.1" xmlns="http://www.w3.org/2000/svg" xmlns:xlink="http://www.w3.org/1999/xlink" x="0px" y="0px" viewBox="0 0 1024 1024" xml:space="preserve">
 <path d="M393.846,1024C393.846,1024,0,1024,0,1024C0,1024,0,630.154,0,630.154C0,630.154,78.769,630.154,78.769,630.154C78.769,630.154,78.769,945.231,78.769,945.231C78.769,945.231,393.846,945.231,393.846,945.231C393.846,945.231,393.846,1024,393.846,1024M1024,393.846C1024,393.846,945.231,393.846,945.231,393.846C945.231,393.846,945.231,78.769,945.231,78.769C945.231,78.769,630.154,78.769,630.154,78.769C630.154,78.769,630.154,0,630.154,0C630.154,0,1024,0,1024,0C1024,0,1024,393.846,1024,393.846" />
</svg>