<?xml version="1.0" encoding="utf-8"?>
<svg version="1.1" xmlns="http://www.w3.org/2000/svg" xmlns:xlink="http://www.w3.org/1999/xlink" x="0px" y="0px" viewBox="0 0 1024 1024" xml:space="preserve">
 <path d="M512,57.77099999999996C512,57.77099999999996,915.797,503.72299999999996,915.797,503.72299999999996C915.797,503.72299999999996,512,966.144,512,966.144C512,966.144,562.517,1024,562.517,1024C562.517,1024,1024,503.72299999999996,1024,503.72299999999996C1024,503.72299999999996,562.517,0,562.517,0C562.517,0,512,57.77099999999996,512,57.77099999999996M0,57.77099999999996C0,57.77099999999996,403.797,503.72299999999996,403.797,503.72299999999996C403.797,503.72299999999996,0,966.144,0,966.144C0,966.144,50.517,1024,50.517,1024C50.517,1024,512,503.72299999999996,512,503.72299999999996C512,503.72299999999996,50.517,0,50.517,0C50.517,0,0,57.77099999999996,0,57.77099999999996" />
</svg>