<?xml version="1.0" encoding="utf-8"?>
<svg version="1.1" xmlns="http://www.w3.org/2000/svg" xmlns:xlink="http://www.w3.org/1999/xlink" x="0px" y="0px" viewBox="0 0 1024 1024" xml:space="preserve">
 <path d="M161.569,311.3995845909918C161.569,311.3995845909918,161.569,365.2555845909918,161.569,365.2555845909918C161.569,365.2555845909918,646.274,365.2555845909918,646.274,365.2555845909918C646.274,365.2555845909918,646.274,311.3995845909918,646.274,311.3995845909918C646.274,311.3995845909918,161.569,311.3995845909918,161.569,311.3995845909918M161.569,419.1115845909918C161.569,419.1115845909918,161.569,472.9685845909919,161.569,472.9685845909919C161.569,472.9685845909919,646.274,472.9685845909919,646.274,472.9685845909919C646.274,472.9685845909919,646.274,419.1115845909918,646.274,419.1115845909918C646.274,419.1115845909918,161.569,419.1115845909918,161.569,419.1115845909918M161.569,526.8245845909919C161.569,526.8245845909919,161.569,580.6805845909919,161.569,580.6805845909919C161.569,580.6805845909919,592.418,580.6805845909919,592.418,580.6805845909919C592.418,580.6805845909919,592.418,526.8245845909919,592.418,526.8245845909919C592.418,526.8245845909919,161.569,526.8245845909919,161.569,526.8245845909919M969.412,500.4345845909919C921.857,463.5975845909919,855.398,463.5975845909919,807.843,500.4345845909919C807.843,500.4345845909919,807.843,177.29758459099185,807.843,177.29758459099185C807.843,115.0935845909919,875.163,76.26358459099185,929.02,107.3385845909919C954.009,121.77158459099189,969.412,148.43058459099188,969.412,177.29758459099185C969.412,177.29758459099185,969.412,500.4345845909919,969.412,500.4345845909919M1023.268,177.29758459099185C1033.824,73.62458459099184,928.266,-2.5824154090080356,833.209,40.07158459099185C789.101,59.8915845909919,758.888,101.7375845909919,753.987,149.83058459099186C753.987,149.83058459099186,0,149.83058459099186,0,149.83058459099186C0,149.83058459099186,0,742.2495845909918,0,742.2495845909918C0,742.2495845909918,161.569,742.2495845909918,161.569,742.2495845909918C161.569,742.2495845909918,161.569,996.4505845909919,161.569,996.4505845909919C161.569,996.4505845909919,504.633,742.2495845909918,504.633,742.2495845909918C504.633,742.2495845909918,888.627,742.2495845909918,888.627,742.2495845909918C961.333,742.3035845909919,1020.952,684.5695845909919,1023.268,611.9175845909919C1023.268,611.9175845909919,1023.268,175.68158459099186,1023.268,175.68158459099186C1023.268,175.68158459099186,1023.268,177.29758459099185,1023.268,177.29758459099185M888.627,688.3925845909919C888.627,688.3925845909919,484.706,688.3925845909919,484.706,688.3925845909919C484.706,688.3925845909919,215.425,889.2765845909919,215.425,889.2765845909919C215.425,889.2765845909919,215.425,688.3925845909919,215.425,688.3925845909919C215.425,688.3925845909919,53.856,688.3925845909919,53.856,688.3925845909919C53.856,688.3925845909919,53.856,203.68758459099183,53.856,203.68758459099183C53.856,203.68758459099183,753.987,203.68758459099183,753.987,203.68758459099183C753.987,203.68758459099183,753.987,580.6805845909919,753.987,580.6805845909919C753.987,580.6805845909919,812.69,580.6805845909919,812.69,580.6805845909919C833.425,522.0315845909919,909.847,507.8665845909919,950.239,555.0985845909919C990.685,602.3845845909918,964.78,675.6825845909918,903.599,687.0465845909919C898.699,687.9625845909918,893.636,688.3925845909919,888.627,688.3925845909919C888.627,688.3925845909919,888.627,688.3925845909919,888.627,688.3925845909919" />
</svg>