<?xml version="1.0" encoding="utf-8"?>
<svg version="1.1" xmlns="http://www.w3.org/2000/svg" xmlns:xlink="http://www.w3.org/1999/xlink" x="0px" y="0px" viewBox="0 0 1024 1024" xml:space="preserve">
 <path d="M161.684,304.97399999999993C161.684,304.97399999999993,646.737,304.97399999999993,646.737,304.97399999999993C646.737,304.97399999999993,646.737,358.8689999999999,646.737,358.8689999999999C646.737,358.8689999999999,161.684,358.8689999999999,161.684,358.8689999999999C161.684,358.8689999999999,161.684,304.97399999999993,161.684,304.97399999999993C161.684,304.97399999999993,161.684,304.97399999999993,161.684,304.97399999999993M161.684,466.6579999999999C161.684,466.6579999999999,646.737,466.6579999999999,646.737,466.6579999999999C646.737,466.6579999999999,646.737,412.7629999999999,646.737,412.7629999999999C646.737,412.7629999999999,161.684,412.7629999999999,161.684,412.7629999999999C161.684,412.7629999999999,161.684,466.6579999999999,161.684,466.6579999999999C161.684,466.6579999999999,161.684,466.6579999999999,161.684,466.6579999999999M161.684,574.4479999999999C161.684,574.4479999999999,592.842,574.4479999999999,592.842,574.4479999999999C592.842,574.4479999999999,592.842,520.5529999999999,592.842,520.5529999999999C592.842,520.5529999999999,161.684,520.5529999999999,161.684,520.5529999999999C161.684,520.5529999999999,161.684,574.4479999999999,161.684,574.4479999999999C161.684,574.4479999999999,161.684,574.4479999999999,161.684,574.4479999999999M1024,170.23699999999985C1024,170.23699999999985,1024,606.7839999999999,1024,606.7839999999999C1024,676.848,964.716,736.1319999999998,889.263,736.1319999999998C889.263,736.1319999999998,506.611,736.1319999999998,506.611,736.1319999999998C506.611,736.1319999999998,161.684,989.4369999999999,161.684,989.4369999999999C161.684,989.4369999999999,161.684,736.1319999999998,161.684,736.1319999999998C161.684,736.1319999999998,0,736.1319999999998,0,736.1319999999998C0,736.1319999999998,0,143.28999999999985,0,143.28999999999985C0,143.28999999999985,754.526,143.28999999999985,754.526,143.28999999999985C765.305,78.61599999999987,819.2,35.499999999999886,889.263,35.499999999999886C964.716,35.499999999999886,1024,94.78399999999988,1024,170.23699999999985C1024,170.23699999999985,1024,170.23699999999985,1024,170.23699999999985M970.105,601.395C970.105,558.2789999999999,932.379,520.5529999999999,889.263,520.5529999999999C851.537,520.5529999999999,824.589,542.1109999999999,813.811,574.4479999999999C813.811,574.4479999999999,754.526,574.4479999999999,754.526,574.4479999999999C754.526,574.4479999999999,754.526,197.18399999999986,754.526,197.18399999999986C754.526,197.18399999999986,53.895,197.18399999999986,53.895,197.18399999999986C53.895,197.18399999999986,53.895,682.2369999999999,53.895,682.2369999999999C53.895,682.2369999999999,215.579,682.2369999999999,215.579,682.2369999999999C215.579,682.2369999999999,215.579,881.6479999999999,215.579,881.6479999999999C215.579,881.6479999999999,485.053,682.2369999999999,485.053,682.2369999999999C485.053,682.2369999999999,889.263,682.2369999999999,889.263,682.2369999999999C932.379,682.2369999999999,970.105,644.511,970.105,601.395C970.105,601.395,970.105,601.395,970.105,601.395M970.105,170.23699999999985C970.105,121.73199999999986,932.379,89.39499999999987,889.263,89.39499999999987C846.147,89.39499999999987,808.421,121.73199999999986,808.421,170.23699999999985C808.421,170.23699999999985,808.421,493.6049999999999,808.421,493.6049999999999C829.979,477.4369999999999,856.926,466.6579999999999,889.263,466.6579999999999C921.6,466.6579999999999,948.547,477.4369999999999,970.105,493.6049999999999C970.105,493.6049999999999,970.105,170.23699999999985,970.105,170.23699999999985C970.105,170.23699999999985,970.105,170.23699999999985,970.105,170.23699999999985" />
</svg>