<?xml version="1.0" encoding="UTF-8"?>
<svg width="14px" height="14px" viewBox="0 0 14 14" version="1.1" xmlns="http://www.w3.org/2000/svg" xmlns:xlink="http://www.w3.org/1999/xlink">
    <g id="Old-Voice-Filters" stroke="none" stroke-width="1" fill="none" fill-rule="evenodd">
        <g id="Voice-custom" transform="translate(-263.000000, -207.000000)" fill="#FFFFFF" fill-rule="nonzero">
            <g id="Group-25" transform="translate(240.000000, 169.000000)">
                <g id="Group-18">
                    <g id="filters-basic-disabled">
                        <g id="Group-4" transform="translate(13.000000, 26.000000)">
                            <path d="M18.3524737,25.199286 L15.6487622,25.199286 C15.3076571,25.199286 15.0308181,24.9224471 15.0308181,24.5813419 L15.0308181,18.6898629 L10.1498836,13.0212556 C9.99210192,12.8383442 9.95543723,12.5804555 10.0563681,12.3604674 C10.156887,12.1408913 10.3764631,12 10.6178733,12 L23.3821267,12 C23.6235369,12 23.843113,12.1408913 23.9436319,12.3604674 C24.0445628,12.5800435 24.0078981,12.8379322 23.8501164,13.0212556 L18.9691819,18.6898629 L18.9691819,24.5813419 C18.9704178,24.9224471 18.6935788,25.199286 18.3524737,25.199286 Z M16.2671183,23.9633978 L17.7349415,23.9633978 L17.7349415,18.4603996 C17.7349415,18.312505 17.7880847,18.1695539 17.884484,18.0570881 L22.0358325,13.2358882 L11.9658154,13.2358882 L16.1171639,18.0570881 C16.2135631,18.169142 16.2667063,18.312093 16.2667063,18.4603996 L16.2667063,23.9633978 L16.2671183,23.9633978 Z" id="Shape"></path>
                        </g>
                    </g>
                </g>
            </g>
        </g>
    </g>
</svg>
