<?xml version="1.0" encoding="utf-8"?>
<svg version="1.1" xmlns="http://www.w3.org/2000/svg" xmlns:xlink="http://www.w3.org/1999/xlink" x="0px" y="0px" viewBox="0 0 1024 1024" xml:space="preserve">
 <path d="M54.425,402.18422637117783C35.216,382.97622637117786,0,395.7812263711778,0,424.5952263711779C0,424.5952263711779,0,715.9292263711778,0,715.9292263711778C0,725.5332263711778,3.201,731.9362263711778,9.604,738.3392263711778C9.604,738.3392263711778,284.931,1013.6652263711778,284.931,1013.6652263711778C304.14,1032.8742263711779,339.356,1020.0682263711778,339.356,991.2552263711779C339.356,991.2552263711779,339.356,699.9212263711779,339.356,699.9212263711779C339.356,690.3172263711779,336.154,683.9142263711778,329.752,677.5112263711778C329.752,677.5112263711778,54.425,402.18422637117783,54.425,402.18422637117783C54.425,402.18422637117783,54.425,402.18422637117783,54.425,402.18422637117783M32.015,2.0002263711778596C16.007,2.0002263711778596,0,18.008226371177784,0,34.015226371177846C0,34.015226371177846,0,245.31222637117787,0,245.31222637117787C0,254.9172263711779,3.201,261.3202263711778,9.604,267.7232263711778C9.604,267.7232263711778,480.221,738.3392263711778,480.221,738.3392263711778C486.624,744.7422263711778,493.027,747.9432263711778,502.631,747.9432263711778C502.631,747.9432263711778,829.181,747.9432263711778,829.181,747.9432263711778C857.994,747.9432263711778,870.8,712.7272263711778,851.591,693.5182263711779C851.591,693.5182263711779,576.265,414.99022637117787,576.265,414.99022637117787C569.862,408.58722637117785,563.459,405.3862263711778,553.854,405.3862263711778C553.854,405.3862263711778,374.572,405.3862263711778,374.572,405.3862263711778C358.565,405.3862263711778,342.557,392.5802263711778,342.557,373.37122637117784C342.557,357.3642263711779,355.363,341.35622637117785,374.572,341.35622637117785C374.572,341.35622637117785,992.456,341.35622637117785,992.456,341.35622637117785C1021.269,341.35622637117785,1034.075,306.14022637117785,1014.866,286.9312263711778C1014.866,286.9312263711778,739.54,11.605226371177878,739.54,11.605226371177878C733.137,5.202226371177858,723.532,2.0002263711778596,717.13,2.0002263711778596C717.13,2.0002263711778596,32.015,2.0002263711778596,32.015,2.0002263711778596C32.015,2.0002263711778596,32.015,2.0002263711778596,32.015,2.0002263711778596" />
</svg>