<?xml version="1.0" encoding="utf-8"?>
<svg version="1.1" xmlns="http://www.w3.org/2000/svg" xmlns:xlink="http://www.w3.org/1999/xlink" x="0px" y="0px" viewBox="0 0 1024 1024" xml:space="preserve">
 <path d="M746.967,312.69999999999993C746.967,312.69999999999993,785.667,273.9999999999999,785.667,273.9999999999999C785.667,273.9999999999999,1024,512.2779999999999,1024,512.2779999999999C1024,512.2779999999999,785.667,750.6109999999999,785.667,750.6109999999999C785.667,750.6109999999999,746.967,711.9109999999998,746.967,711.9109999999998C746.967,711.9109999999998,946.545,512.2779999999999,946.545,512.2779999999999C946.545,512.2779999999999,746.967,312.69999999999993,746.967,312.69999999999993M985.3,484.9089999999999C985.3,484.9089999999999,985.3,539.6469999999999,985.3,539.6469999999999C985.3,539.6469999999999,0,539.6469999999999,0,539.6469999999999C0,539.6469999999999,0,484.9089999999999,0,484.9089999999999C0,484.9089999999999,985.3,484.9089999999999,985.3,484.9089999999999" />
</svg>