<?xml version="1.0" encoding="utf-8"?>
<svg version="1.1" xmlns="http://www.w3.org/2000/svg" xmlns:xlink="http://www.w3.org/1999/xlink" x="0px" y="0px" viewBox="0 0 1024 1024" xml:space="preserve">
 <path d="M421.271,948.0401859784836C421.271,1006.4391859784836,484.448,1042.9201859784837,535.036,1013.7201859784836C558.471,1000.1441859784836,572.957,975.1161859784836,572.957,948.0401859784836C572.957,889.6411859784836,509.78,853.1601859784836,459.192,882.3601859784836C435.757,895.9361859784836,421.271,920.9641859784836,421.271,948.0401859784836M535.036,705.3421859784836C535.036,705.3421859784836,459.192,705.3421859784836,459.192,705.3421859784836C459.192,546.0711859784836,535.036,470.22818597848357,595.71,409.5531859784836C648.8,364.04718597848364,686.722,318.54118597848367,686.722,250.28318597848363C686.722,151.68618597848365,610.879,75.84318597848358,512.283,75.84318597848358C512.283,75.84318597848358,512.283,75.84318597848358,512.283,75.84318597848358C413.686,75.84318597848358,337.843,151.68618597848365,337.843,250.28318597848363C337.843,250.28318597848363,262,250.28318597848363,262,250.28318597848363C262,113.7651859784836,375.765,0.0001859784836142353,512.283,0.0001859784836142353C512.283,0.0001859784836142353,512.283,0.0001859784836142353,512.283,0.0001859784836142353C648.8,0.0001859784836142353,762.565,113.7651859784836,762.565,250.28318597848363C762.565,348.87918597848363,709.475,409.5531859784836,648.8,462.6441859784836C595.71,523.3181859784836,535.036,583.9931859784836,535.036,705.3421859784836C535.036,705.3421859784836,535.036,705.3421859784836,535.036,705.3421859784836" />
</svg>