<?xml version="1.0" encoding="utf-8"?>
<svg version="1.1" xmlns="http://www.w3.org/2000/svg" xmlns:xlink="http://www.w3.org/1999/xlink" x="0px" y="0px" viewBox="0 0 1024 1024" xml:space="preserve">
 <path d="M835.579,161.68399999999997C835.579,161.68399999999997,296.632,161.68399999999997,296.632,161.68399999999997C280.463,161.68399999999997,269.684,145.51599999999996,269.684,134.73699999999997C269.684,123.95799999999997,280.463,107.78899999999999,296.632,107.78899999999999C296.632,107.78899999999999,835.579,107.78899999999999,835.579,107.78899999999999C846.358,107.78899999999999,862.526,118.56799999999998,862.526,134.73699999999997C862.526,150.90499999999997,846.358,161.68399999999997,835.579,161.68399999999997C835.579,161.68399999999997,835.579,161.68399999999997,835.579,161.68399999999997M916.421,1024C916.421,1024,226.568,1024,226.568,1024C161.895,1024,108,970.105,108,905.432C108,905.432,108,134.73699999999997,108,134.73699999999997C108,59.28399999999999,167.284,0,242.737,0C242.737,0,889.474,0,889.474,0C905.642,0,916.421,10.778999999999996,916.421,26.947000000000003C916.421,43.115999999999985,905.642,53.89499999999998,889.474,53.89499999999998C889.474,53.89499999999998,242.737,53.89499999999998,242.737,53.89499999999998C199.621,53.89499999999998,161.895,91.62099999999998,161.895,134.73699999999997C161.895,177.85299999999995,194.232,215.57899999999995,237.347,215.57899999999995C237.347,215.57899999999995,916.421,215.57899999999995,916.421,215.57899999999995C916.421,215.57899999999995,916.421,1024,916.421,1024C916.421,1024,916.421,1024,916.421,1024M161.895,242.52599999999995C161.895,242.52599999999995,161.895,910.821,161.895,910.821C161.895,943.158,188.842,970.105,226.568,970.105C226.568,970.105,862.526,970.105,862.526,970.105C862.526,970.105,862.526,264.08399999999995,862.526,264.08399999999995C862.526,264.08399999999995,242.737,264.08399999999995,242.737,264.08399999999995C210.4,264.08399999999995,183.453,258.69500000000005,161.895,242.52599999999995C161.895,242.52599999999995,161.895,242.52599999999995,161.895,242.52599999999995M512.211,803.032C490.653,803.032,479.874,819.2,479.874,840.758C479.874,862.316,496.042,878.484,512.211,878.484C533.768,878.484,544.547,862.316,544.547,840.758C544.547,819.2,528.379,803.032,512.211,803.032C512.211,803.032,512.211,803.032,512.211,803.032C512.211,803.032,512.211,803.032,512.211,803.032M539.158,754.5260000000001C539.158,754.5260000000001,485.263,754.5260000000001,485.263,754.5260000000001C485.263,754.5260000000001,485.263,673.684,485.263,673.684C485.263,630.568,522.989,592.842,566.105,592.842C582.274,592.842,593.053,582.063,593.053,565.895C593.053,565.895,593.053,458.105,593.053,458.105C593.053,441.937,582.274,431.158,566.105,431.158C566.105,431.158,458.316,431.158,458.316,431.158C442.147,431.158,431.368,441.937,431.368,458.105C431.368,458.105,431.368,538.947,431.368,538.947C431.368,538.947,377.474,538.947,377.474,538.947C377.474,538.947,377.474,458.105,377.474,458.105C377.474,414.98900000000003,415.2,377.26300000000003,458.316,377.26300000000003C458.316,377.26300000000003,566.105,377.26300000000003,566.105,377.26300000000003C609.221,377.26300000000003,646.947,414.98900000000003,646.947,458.105C646.947,458.105,646.947,565.895,646.947,565.895C646.947,609.011,609.221,646.7370000000001,566.105,646.7370000000001C549.937,646.7370000000001,539.158,657.5160000000001,539.158,673.684C539.158,673.684,539.158,754.5260000000001,539.158,754.5260000000001C539.158,754.5260000000001,539.158,754.5260000000001,539.158,754.5260000000001" />
</svg>