<?xml version="1.0" encoding="utf-8"?>
<svg version="1.1" xmlns="http://www.w3.org/2000/svg" xmlns:xlink="http://www.w3.org/1999/xlink" x="0px" y="0px" viewBox="0 0 1024 1024" xml:space="preserve">
 <path d="M512,838.977C238.145,838.977,17.868,541.289,11.903,529.385C11.903,529.385,0,511.51699999999994,0,511.51699999999994C0,511.51699999999994,11.903,493.649,11.903,493.649C23.807,481.746,238.145,184.058,512,184.058C785.855,184.058,1006.132,481.746,1012.097,493.649C1012.097,493.649,1024,511.51699999999994,1024,511.51699999999994C1024,511.51699999999994,1012.097,529.385,1012.097,529.385C1006.132,541.289,785.855,838.977,512,838.977C512,838.977,512,838.977,512,838.977M77.385,511.543C125.024,571.086,309.565,779.46,517.939,779.46C726.312,779.46,904.914,571.086,952.554,511.543C904.914,452.001,720.374,243.62699999999995,512,243.62699999999995C303.626,243.62699999999995,125.024,452.001,77.385,511.543C77.385,511.543,77.385,511.543,77.385,511.543M512,690.146C410.783,690.146,333.398,612.761,333.398,511.543C333.398,410.326,410.783,332.94100000000003,512,332.94100000000003C613.217,332.94100000000003,690.602,410.326,690.602,511.543C690.602,612.761,613.217,690.146,512,690.146C512,690.146,512,690.146,512,690.146M512,392.48400000000004C446.519,392.48400000000004,392.941,446.062,392.941,511.543C392.941,577.025,446.519,630.6030000000001,512,630.6030000000001C577.481,630.6030000000001,631.059,577.025,631.059,511.543C631.059,446.062,577.481,392.48400000000004,512,392.48400000000004C512,392.48400000000004,512,392.48400000000004,512,392.48400000000004M95.279,886.929C95.279,886.929,886.708,95.5,886.708,95.5C886.708,95.5,928.799,137.591,928.799,137.591C928.799,137.591,137.37,929.02,137.37,929.02C137.37,929.02,95.279,886.929,95.279,886.929C95.279,886.929,95.279,886.929,95.279,886.929" />
</svg>