<?xml version="1.0" encoding="utf-8"?>
<svg version="1.1" xmlns="http://www.w3.org/2000/svg" xmlns:xlink="http://www.w3.org/1999/xlink" x="0px" y="0px" viewBox="0 0 1024 1024" xml:space="preserve">
 <path d="M846.276,944.26C846.276,944.26,623.425,944.26,623.425,944.26C623.425,944.26,623.425,665.6969999999999,623.425,665.6969999999999C623.425,665.6969999999999,400.575,665.6969999999999,400.575,665.6969999999999C400.575,665.6969999999999,400.575,944.26,400.575,944.26C400.575,944.26,177.724,944.26,177.724,944.26C177.724,944.26,177.724,609.9839999999999,177.724,609.9839999999999C177.724,609.9839999999999,122.011,609.9839999999999,122.011,609.9839999999999C122.011,609.9839999999999,122.011,999.973,122.011,999.973C122.011,999.973,456.287,999.973,456.287,999.973C456.287,999.973,456.287,721.4089999999999,456.287,721.4089999999999C456.287,721.4089999999999,567.713,721.4089999999999,567.713,721.4089999999999C567.713,721.4089999999999,567.713,999.973,567.713,999.973C567.713,999.973,901.989,999.973,901.989,999.973C901.989,999.973,901.989,609.9839999999999,901.989,609.9839999999999C901.989,609.9839999999999,846.276,609.9839999999999,846.276,609.9839999999999C846.276,609.9839999999999,846.276,944.26,846.276,944.26M547.656,60.65599999999995C547.656,60.65599999999995,512,25,512,25C512,25,476.344,60.65599999999995,476.344,60.65599999999995C476.344,60.65599999999995,0,537,0,537C0,537,35.099,572.656,35.099,572.656C35.099,572.656,512,95.755,512,95.755C512,95.755,988.901,572.656,988.901,572.656C988.901,572.656,1024,537,1024,537C1024,537,547.656,60.65599999999995,547.656,60.65599999999995" />
</svg>