<?xml version="1.0" encoding="utf-8"?>
<svg version="1.1" xmlns="http://www.w3.org/2000/svg" xmlns:xlink="http://www.w3.org/1999/xlink" x="0px" y="0px" viewBox="0 0 1024 1024" xml:space="preserve">
 <path d="M512,1024C229.248,1024,0,794.752,0,512C0,229.24800000000005,229.248,0,512,0C794.752,0,1024,229.24800000000005,1024,512C1024,794.752,794.752,1024,512,1024C512,1024,512,1024,512,1024M448,466.048C448,466.048,448,864.256,448,864.256C448,864.256,576,864.256,576,864.256C576,864.256,576,466.048,576,466.048C576,466.048,448,466.048,448,466.048C448,466.048,448,466.048,448,466.048M511.04,362.688C558.208,362.688,596.48,324.48,596.48,277.312C596.48,230.20799999999997,558.208,192,511.04,192C463.872,192,425.6,230.20799999999997,425.6,277.312C425.6,324.48,463.872,362.688,511.04,362.688C511.04,362.688,511.04,362.688,511.04,362.688" />
</svg>