<?xml version="1.0" encoding="utf-8"?>
<svg version="1.1" xmlns="http://www.w3.org/2000/svg" xmlns:xlink="http://www.w3.org/1999/xlink" x="0px" y="0px" viewBox="0 0 1024 1024" xml:space="preserve">
 <path d="M512.382,0.49974999999994907C118.504,0.49974999999994907,-127.618,426.91774999999996,69.321,767.99675C266.259,1109.07575,758.504,1109.07575,955.443,767.99675C1000.329,690.23075,1024,602.02775,1024,512.1877499999999C1023.591,229.77475000000004,794.795,0.9087499999999409,512.382,0.49974999999994907C512.382,0.49974999999994907,512.382,0.49974999999994907,512.382,0.49974999999994907M512.382,955.58975C171.03,955.58975,-42.28,586.06575,128.395,290.48675000000003C299.071,-5.1622500000000855,725.693,-5.1622500000000855,896.368,290.48675000000003C935.32,357.88374999999996,955.784,434.35375,955.784,512.1877499999999C955.375,756.94575,757.14,955.18075,512.382,955.58975C512.382,955.58975,512.382,955.58975,512.382,955.58975M444.166,409.86375C444.166,409.86375,444.166,819.15875,444.166,819.15875C444.166,819.15875,580.598,819.15875,580.598,819.15875C580.598,819.15875,580.598,409.86375,580.598,409.86375C580.598,409.86375,444.166,409.86375,444.166,409.86375M444.166,205.21674999999993C444.166,205.21674999999993,444.166,341.64874999999995,444.166,341.64874999999995C444.166,341.64874999999995,580.598,341.64874999999995,580.598,341.64874999999995C580.598,341.64874999999995,580.598,205.21674999999993,580.598,205.21674999999993C580.598,205.21674999999993,444.166,205.21674999999993,444.166,205.21674999999993" />
</svg>