<?xml version="1.0" encoding="utf-8"?>
<svg version="1.1" xmlns="http://www.w3.org/2000/svg" xmlns:xlink="http://www.w3.org/1999/xlink" x="0px" y="0px" viewBox="0 0 1024 1024" xml:space="preserve">
 <path d="M666.327,690.031C666.327,704.212,654.818,715.721,640.637,715.721C626.456,715.721,614.947,704.212,614.947,690.031C614.947,690.031,614.947,667.938,614.947,667.938C614.947,657.559,621.164,648.2080000000001,630.772,644.2C766.415,587.682,843.279,443.30499999999995,814.455,299.18499999999995C785.682,155.11599999999999,659.134,51.379999999999995,512.188,51.379999999999995C365.241,51.379999999999995,238.693,155.11599999999999,209.92,299.18499999999995C181.096,443.30499999999995,257.96,587.682,393.603,644.2C403.211,648.2080000000001,409.428,657.559,409.428,667.938C409.428,667.938,409.428,691.059,409.428,691.059C409.428,705.24,397.919,716.749,383.738,716.749C369.557,716.749,358.048,705.24,358.048,691.059C358.048,691.059,358.048,684.636,358.048,684.636C209.663,614.3489999999999,127.044,451.577,159.516,289.11400000000003C193.119,120.99900000000002,340.733,0,512.188,0C683.642,0,831.256,120.99900000000002,864.859,289.11400000000003C897.331,451.577,814.712,614.3489999999999,666.327,684.636C666.327,684.636,666.327,690.031,666.327,690.031C666.327,690.031,666.327,690.031,666.327,690.031M384.766,818.481C370.585,818.481,359.076,806.972,359.076,792.7909999999999C359.076,778.61,370.585,767.101,384.766,767.101C384.766,767.101,641.665,767.101,641.665,767.101C655.846,767.101,667.355,778.61,667.355,792.7909999999999C667.355,806.972,655.846,818.481,641.665,818.481C641.665,818.481,384.766,818.481,384.766,818.481C384.766,818.481,384.766,818.481,384.766,818.481M384.766,921.24C370.585,921.24,359.076,909.731,359.076,895.55C359.076,881.37,370.585,869.861,384.766,869.861C384.766,869.861,641.665,869.861,641.665,869.861C655.846,869.861,667.355,881.37,667.355,895.55C667.355,909.731,655.846,921.24,641.665,921.24C641.665,921.24,384.766,921.24,384.766,921.24C384.766,921.24,384.766,921.24,384.766,921.24M436.145,1024C421.965,1024,410.456,1012.491,410.456,998.31C410.456,984.129,421.965,972.62,436.145,972.62C436.145,972.62,590.285,972.62,590.285,972.62C604.466,972.62,615.975,984.129,615.975,998.31C615.975,1012.491,604.466,1024,590.285,1024C590.285,1024,436.145,1024,436.145,1024C436.145,1024,436.145,1024,436.145,1024M641.665,433.13199999999995C641.665,447.313,630.156,458.822,615.975,458.822C601.794,458.822,590.285,447.313,590.285,433.13199999999995C590.285,433.13199999999995,590.285,330.37199999999996,590.285,330.37199999999996C590.285,316.19100000000003,601.794,304.682,615.975,304.682C630.156,304.682,641.665,316.19100000000003,641.665,330.37199999999996C641.665,330.37199999999996,641.665,433.13199999999995,641.665,433.13199999999995C641.665,433.13199999999995,641.665,433.13199999999995,641.665,433.13199999999995M538.905,381.75199999999995C538.905,395.933,527.396,407.442,513.215,407.442C499.034,407.442,487.525,395.933,487.525,381.75199999999995C487.525,381.75199999999995,487.525,330.37199999999996,487.525,330.37199999999996C487.525,316.19100000000003,499.034,304.682,513.215,304.682C527.396,304.682,538.905,316.19100000000003,538.905,330.37199999999996C538.905,330.37199999999996,538.905,381.75199999999995,538.905,381.75199999999995C538.905,381.75199999999995,538.905,381.75199999999995,538.905,381.75199999999995M641.665,330.37199999999996C641.665,344.553,630.156,356.062,615.975,356.062C601.794,356.062,590.285,344.553,590.285,330.37199999999996C590.285,316.19100000000003,578.776,304.682,564.595,304.682C550.414,304.682,538.905,316.19100000000003,538.905,330.37199999999996C538.905,344.553,527.396,356.062,513.215,356.062C499.034,356.062,487.525,344.553,487.525,330.37199999999996C487.525,287.83000000000004,522.053,253.303,564.595,253.303C607.138,253.303,641.665,287.83000000000004,641.665,330.37199999999996C641.665,330.37199999999996,641.665,330.37199999999996,641.665,330.37199999999996M384.766,278.99199999999996C384.766,264.812,396.275,253.303,410.456,253.303C424.636,253.303,436.145,264.812,436.145,278.99199999999996C436.145,278.99199999999996,436.145,381.75199999999995,436.145,381.75199999999995C436.145,395.933,424.636,407.442,410.456,407.442C396.275,407.442,384.766,395.933,384.766,381.75199999999995C384.766,381.75199999999995,384.766,278.99199999999996,384.766,278.99199999999996C384.766,278.99199999999996,384.766,278.99199999999996,384.766,278.99199999999996M384.766,381.75199999999995C384.766,367.571,396.275,356.062,410.456,356.062C424.636,356.062,436.145,367.571,436.145,381.75199999999995C436.145,395.933,447.655,407.442,461.835,407.442C476.016,407.442,487.525,395.933,487.525,381.75199999999995C487.525,367.571,499.034,356.062,513.215,356.062C527.396,356.062,538.905,367.571,538.905,381.75199999999995C538.905,424.29499999999996,504.378,458.822,461.835,458.822C419.293,458.822,384.766,424.29499999999996,384.766,381.75199999999995C384.766,381.75199999999995,384.766,381.75199999999995,384.766,381.75199999999995" />
</svg>