<?xml version="1.0" encoding="utf-8"?>
<svg version="1.1" xmlns="http://www.w3.org/2000/svg" xmlns:xlink="http://www.w3.org/1999/xlink" x="0px" y="0px" viewBox="0 0 1024 1024" xml:space="preserve">
 <path d="M414.72,512C414.72,586.906,495.77,633.702,560.64,596.2239999999999C590.746,578.867,609.28,546.765,609.28,512C609.28,437.09400000000005,528.23,390.298,463.36,427.77599999999995C433.254,445.13300000000004,414.72,477.235,414.72,512M512,1024C512,1024,512,1024,512,1024C373.76,1024,245.76,972.8,148.48,875.52C51.2,778.24,0,650.24,0,512C0,373.76,51.2,245.76,148.48,148.48000000000002C245.76,51.200000000000045,373.76,0,512,0C650.24,0,778.24,51.200000000000045,875.52,148.48000000000002C875.52,148.48000000000002,839.68,184.32000000000005,839.68,184.32000000000005C752.64,97.27999999999997,634.88,51.200000000000045,512,51.200000000000045C389.12,51.200000000000045,271.36,97.27999999999997,184.32,184.32000000000005C97.28,271.36,51.2,389.12,51.2,512C51.2,634.88,97.28,752.64,184.32,839.6800000000001C271.36,926.72,389.12,972.8,512,972.8C512,972.8,512,972.8,512,972.8C634.88,972.8,752.64,926.72,839.68,839.6800000000001C926.72,752.64,972.8,634.88,972.8,512C972.8,512,1024,512,1024,512C1024,650.24,972.8,778.24,875.52,875.52C778.24,972.8,650.24,1024,512,1024C512,1024,512,1024,512,1024M512,829.44C424.96,829.44,348.16,798.72,286.72,737.28C286.72,737.28,322.56,701.44,322.56,701.44C373.76,752.64,440.32,778.24,512,778.24C583.68,778.24,650.24,752.64,701.44,701.44C752.64,650.24,778.24,583.6800000000001,778.24,512C778.24,440.32000000000005,752.64,373.76,701.44,322.55999999999995C650.24,271.36,583.68,245.76,512,245.76C440.32,245.76,373.76,271.36,322.56,322.55999999999995C271.36,373.76,245.76,440.32000000000005,245.76,512C245.76,512,194.56,512,194.56,512C194.56,424.96000000000004,225.28,348.15999999999997,286.72,286.72C348.16,225.27999999999997,424.96,194.55999999999995,512,194.55999999999995C599.04,194.55999999999995,675.84,225.27999999999997,737.28,286.72C798.72,348.15999999999997,829.44,424.96000000000004,829.44,512C829.44,599.04,798.72,675.8399999999999,737.28,737.28C675.84,798.72,599.04,829.44,512,829.44C512,829.44,512,829.44,512,829.44" />
</svg>