<?xml version="1.0" encoding="utf-8"?>
<svg version="1.1" xmlns="http://www.w3.org/2000/svg" xmlns:xlink="http://www.w3.org/1999/xlink" x="0px" y="0px" viewBox="0 0 1024 1024" xml:space="preserve">
 <path d="M161.69,935.7060000000001C161.69,935.7060000000001,161.69,681.344,161.69,681.344C161.69,681.344,0,681.344,0,681.344C0,681.344,0,88.50000000000011,0,88.50000000000011C0,88.50000000000011,1024,88.50000000000011,1024,88.50000000000011C1024,88.50000000000011,1024,681.344,1024,681.344C1024,681.344,504.986,681.344,504.986,681.344C504.986,681.344,161.69,935.7060000000001,161.69,935.7060000000001C161.69,935.7060000000001,161.69,935.7060000000001,161.69,935.7060000000001M53.914,627.4310000000002C53.914,627.4310000000002,215.603,627.4310000000002,215.603,627.4310000000002C215.603,627.4310000000002,215.603,828.4420000000001,215.603,828.4420000000001C215.603,828.4420000000001,485.069,627.4310000000002,485.069,627.4310000000002C485.069,627.4310000000002,970.086,627.4310000000002,970.086,627.4310000000002C970.086,627.4310000000002,970.086,142.36200000000008,970.086,142.36200000000008C970.086,142.36200000000008,53.914,142.36200000000008,53.914,142.36200000000008C53.914,142.36200000000008,53.914,627.4310000000002,53.914,627.4310000000002C53.914,627.4310000000002,53.914,627.4310000000002,53.914,627.4310000000002M161.69,384.8960000000002C161.69,447.1560000000002,229.069,486.0160000000001,282.931,454.9380000000001C307.968,440.4480000000001,323.379,413.77300000000014,323.379,384.8960000000002C323.379,322.6880000000001,256,283.7760000000002,202.086,314.9060000000002C177.101,329.34400000000016,161.69,356.0200000000001,161.69,384.8960000000002M431.155,384.8960000000002C431.155,447.1560000000002,498.534,486.0160000000001,552.448,454.9380000000001C577.434,440.4480000000001,592.845,413.77300000000014,592.845,384.8960000000002C592.845,322.6880000000001,525.466,283.7760000000002,471.603,314.9060000000002C446.566,329.34400000000016,431.155,356.0200000000001,431.155,384.8960000000002M700.621,384.8960000000002C700.621,447.1560000000002,768,486.0160000000001,821.914,454.9380000000001C846.899,440.4480000000001,862.31,413.77300000000014,862.31,384.8960000000002C862.31,322.6880000000001,794.931,283.7760000000002,741.069,314.9060000000002C716.032,329.34400000000016,700.621,356.0200000000001,700.621,384.8960000000002" />
</svg>