<svg xmlns="http://www.w3.org/2000/svg" width="24" height="24" viewBox="0 0 24 24">
  <path fill="#282A2B" fill-rule="evenodd" d="M20.0293,4 C21.1163,4 22.0003,4.884 22.0003,5.971 L22.0003,18.029 C22.0003,19.116 21.1163,20 20.0293,20 L3.9703,20 C2.8833,20 2.0003,19.116 2.0003,18.029 L2.0003,5.971 C2.0003,4.884 2.8833,4 3.9703,4 L20.0293,4 Z M20.0293,5 L3.9703,5 C3.4343,5 3.0003,5.435 3.0003,5.971 L3.0003,18.029 C3.0003,18.565 3.4343,19 3.9703,19 L20.0293,19 C20.5653,19 21.0003,18.565 21.0003,18.029 L21.0003,5.971 C21.0003,5.435 20.5653,5 20.0293,5 Z M5,9 L5,7 L7,7 L7,9 L5,9 Z M9,9 L9,7 L11,7 L11,9 L9,9 Z M13,9 L13,7 L15,7 L15,9 L13,9 Z M17,9 L17,7 L19,7 L19,9 L17,9 Z M5,13 L5,11 L7,11 L7,13 L5,13 Z M9,13 L9,11 L11,11 L11,13 L9,13 Z M13,13 L13,11 L15,11 L15,13 L13,13 Z M17,13 L17,11 L19,11 L19,13 L17,13 Z M5,17 L5,15 L7,15 L7,17 L5,17 Z M9,17 L9,15 L15,15 L15,17 L9,17 Z M17,17 L17,15 L19,15 L19,17 L17,17 Z"/>
</svg>
