<?xml version="1.0" encoding="UTF-8"?>
<svg width="24px" height="24px" viewBox="0 0 24 24" version="1.1" xmlns="http://www.w3.org/2000/svg" xmlns:xlink="http://www.w3.org/1999/xlink">
    <!-- Generator: Sketch 52.3 (67297) - http://www.bohemiancoding.com/sketch -->
    <title>learn</title>
    <desc>Created with Sketch.</desc>
    <g id="learn" stroke="none" stroke-width="1" fill="none" fill-rule="evenodd">
        <path d="M5.80952381,12.0238095 C5.80952381,8.59147667 8.59147667,5.80952381 12.0238095,5.80952381 C15.4548697,5.80952381 18.2380952,8.59210862 18.2380952,12.0238095 C18.2380952,14.7392856 16.4767196,17.1020762 13.952381,17.9252046 L13.952381,18.6904762 C13.952381,18.9666186 13.7285233,19.1904762 13.452381,19.1904762 L10.5952381,19.1904762 C10.3190957,19.1904762 10.0952381,18.9666186 10.0952381,18.6904762 L10.0952381,17.9252824 C7.56997627,17.1024331 5.80952381,14.7400981 5.80952381,12.0238095 Z M12.952381,17.5504762 C12.952381,17.3224471 13.1066615,17.1233049 13.3274589,17.0663331 C15.61224,16.4767978 17.2380952,14.4124812 17.2380952,12.0238095 C17.2380952,9.14444492 14.9026365,6.80952381 12.0238095,6.80952381 C9.14376142,6.80952381 6.80952381,9.14376142 6.80952381,12.0238095 C6.80952381,14.4133463 8.43433867,16.4769853 10.7200696,17.0663098 C10.9409114,17.1232489 11.0952381,17.3224122 11.0952381,17.5504762 L11.0952381,18.1904762 L12.952381,18.1904762 L12.952381,17.5504762 Z M12.5,22 C12.7761424,22 13,22.2362007 13,22.5275689 C13,22.8189372 12.7761424,23.0551378 12.5,23.0551378 L11.547619,23.0551378 C11.2714767,23.0551378 11.047619,22.8189372 11.047619,22.5275689 C11.047619,22.2362007 11.2714767,22 11.547619,22 L12.5,22 Z M13.452381,20.0952381 C13.7285233,20.0952381 13.952381,20.3314387 13.952381,20.622807 C13.952381,20.9141753 13.7285233,21.1503759 13.452381,21.1503759 L10.5952381,21.1503759 C10.3190957,21.1503759 10.0952381,20.9141753 10.0952381,20.622807 C10.0952381,20.3314387 10.3190957,20.0952381 10.5952381,20.0952381 L13.452381,20.0952381 Z M11.5238095,2.5 C11.5238095,2.22385763 11.7600102,2 12.0513784,2 C12.3427467,2 12.5789474,2.22385763 12.5789474,2.5 L12.5789474,4.4047619 C12.5789474,4.68090428 12.3427467,4.9047619 12.0513784,4.9047619 C11.7600102,4.9047619 11.5238095,4.68090428 11.5238095,4.4047619 L11.5238095,2.5 Z M21.547619,11.5238095 C21.8237614,11.5238095 22.047619,11.7600102 22.047619,12.0513784 C22.047619,12.3427467 21.8237614,12.5789474 21.547619,12.5789474 L19.6428571,12.5789474 C19.3667148,12.5789474 19.1428571,12.3427467 19.1428571,12.0513784 C19.1428571,11.7600102 19.3667148,11.5238095 19.6428571,11.5238095 L21.547619,11.5238095 Z M2.5,12.5789474 C2.22385763,12.5789474 2,12.3427467 2,12.0513784 C2,11.7600102 2.22385763,11.5238095 2.5,11.5238095 L4.4047619,11.5238095 C4.68090428,11.5238095 4.9047619,11.7600102 4.9047619,12.0513784 C4.9047619,12.3427467 4.68090428,12.5789474 4.4047619,12.5789474 L2.5,12.5789474 Z M4.26139899,4.96945815 C4.06613684,4.77419601 4.06613684,4.45761352 4.26139899,4.26235137 C4.45666114,4.06708923 4.77324363,4.06708923 4.96850577,4.26235137 L6.98945815,6.28330375 C7.1847203,6.4785659 7.1847203,6.79514839 6.98945815,6.99041053 C6.79419601,7.18567268 6.47761352,7.18567268 6.28235137,6.99041053 L4.26139899,4.96945815 Z M19.0772085,4.26235137 C19.2724707,4.06708923 19.5890531,4.06708923 19.7843153,4.26235137 C19.9795774,4.45761352 19.9795774,4.77419601 19.7843153,4.96945815 L17.7633629,6.99041053 C17.5681008,7.18567268 17.2515183,7.18567268 17.0562561,6.99041053 C16.860994,6.79514839 16.860994,6.4785659 17.0562561,6.28330375 L19.0772085,4.26235137 Z" id="Combined-Shape" fill="#000000" fill-rule="nonzero"></path>
    </g>
</svg>