<?xml version="1.0" encoding="utf-8"?>
<svg version="1.1" xmlns="http://www.w3.org/2000/svg" xmlns:xlink="http://www.w3.org/1999/xlink" x="0px" y="0px" viewBox="0 0 1024 1024" xml:space="preserve">
 <path d="M381.074,473.23400000000004C381.074,473.23400000000004,642.926,678.7660000000001,642.926,678.7660000000001C642.926,678.7660000000001,1024,379.611,1024,379.611C1024,379.611,1024,286.72,1024,286.72C1024,286.72,642.926,585.874,642.926,585.874C642.926,585.874,381.074,380.34299999999996,381.074,380.34299999999996C381.074,380.34299999999996,73.143,621.7139999999999,73.143,621.7139999999999C73.143,621.7139999999999,73.143,0,73.143,0C73.143,0,0,0,0,0C0,0,0,679.4970000000001,0,679.4970000000001C0,679.4970000000001,0,726.309,0,726.309C0,726.309,0,950.857,0,950.857C0,950.857,0,1024,0,1024C0,1024,73.143,1024,73.143,1024C73.143,1024,1024,1024,1024,1024C1024,1024,1024,950.857,1024,950.857C1024,950.857,73.143,950.857,73.143,950.857C73.143,950.857,73.143,715.337,73.143,715.337C73.143,715.337,381.074,473.23400000000004,381.074,473.23400000000004C381.074,473.23400000000004,381.074,473.23400000000004,381.074,473.23400000000004" />
</svg>