<svg xmlns="http://www.w3.org/2000/svg" width="24" height="24" viewBox="0 0 24 24">
  <path fill="#282A2B" fill-rule="evenodd" d="M3.600509,10.1184737 L3.64306806,10.1597187 C3.68092586,10.1912694 3.71379391,10.2281632 3.74071793,10.2690006 L6.87578505,14.024933 C7.05281681,14.2368631 7.02452612,14.552179 6.81259602,14.7292108 C6.60066592,14.9062425 6.28535003,14.8779518 6.10831827,14.6660217 L3.69177953,11.7737517 C3.58744909,15.4367052 6.25765348,18.9155721 9.94712987,19.7865533 C12.6579354,20.4280065 15.4623695,19.6139406 17.4123598,17.6929824 C17.6090809,17.4991901 17.9256545,17.5015644 18.1194467,17.6982855 C18.3132389,17.8950066 18.3108646,18.2115802 18.1141435,18.4053724 C15.9215945,20.565278 12.7661619,21.4812312 9.71711697,20.7597409 C5.7488044,19.8229344 2.8364821,16.2171835 2.69401214,12.2849559 L0.915182065,14.9361649 C0.761267184,15.1654351 0.450634308,15.2265227 0.221364116,15.0726078 C-0.00790607538,14.9186929 -0.0689936249,14.60806 0.0849212556,14.3787898 L2.87092126,10.2287898 C3.03811971,9.97973257 3.37836124,9.93787578 3.600509,10.1184737 Z M13.8585157,3.24312087 C18.1269272,4.25042105 21.1362321,8.18521588 21.068663,12.445439 L22.6581675,10.0779209 C22.8121205,9.84867628 23.1227635,9.78764032 23.3520081,9.94159328 C23.5812528,10.0955462 23.6422887,10.4061893 23.4883358,10.6354339 L20.7013358,14.7854339 C20.5155152,15.0621311 20.1161064,15.0829944 19.9024691,14.8271628 L16.6974691,10.9891628 C16.5204698,10.7772056 16.5488089,10.461894 16.7607662,10.2848948 C16.9727235,10.1078956 17.288035,10.1362347 17.4650342,10.3481919 L19.9957987,13.3789919 C20.5660339,9.23690402 17.7541875,5.18992663 13.6285114,4.21631042 C10.7280996,3.52980622 7.73340557,4.51030512 5.79378379,6.7020391 C5.61077777,6.90883225 5.29478311,6.92811554 5.08798995,6.74510952 C4.8811968,6.5621035 4.86191351,6.24610884 5.04491953,6.03931568 C7.22643266,3.5742493 10.5961824,2.47095263 13.8585157,3.24312087 Z"/>
</svg>
