<?xml version="1.0" encoding="utf-8"?>
<svg version="1.1" xmlns="http://www.w3.org/2000/svg" xmlns:xlink="http://www.w3.org/1999/xlink" x="0px" y="0px" viewBox="0 0 1024 1024" xml:space="preserve">
 <path d="M512,0C229.306,0,0,229.30600000000004,0,512C0,794.694,229.306,1024,512,1024C794.694,1024,1024,794.694,1024,512C1024,229.30600000000004,794.899,0,512,0C512,0,512,0,512,0M512,888.994C303.763,888.994,135.006,720.2370000000001,135.006,512C135.006,303.76300000000003,303.763,135.00599999999997,512,135.00599999999997C720.237,135.00599999999997,888.994,303.76300000000003,888.994,512C888.994,720.2370000000001,720.237,888.994,512,888.994C512,888.994,512,888.994,512,888.994M533.274,384.35799999999995C533.274,466.241,621.913,517.4169999999999,692.826,476.475C725.737,457.47400000000005,746.01,422.36,746.01,384.35799999999995C746.01,302.475,657.371,251.29899999999998,586.458,292.241C553.547,311.24199999999996,533.274,346.356,533.274,384.35799999999995M533.274,639.437C533.274,721.321,621.913,772.496,692.826,731.5550000000001C725.737,712.553,746.01,677.44,746.01,639.437C746.01,557.554,657.371,506.379,586.458,547.3199999999999C553.547,566.322,533.274,601.435,533.274,639.437M278.194,639.437C278.194,721.321,366.834,772.496,437.747,731.5550000000001C470.657,712.553,490.931,677.44,490.931,639.437C490.931,557.554,402.291,506.379,331.378,547.3199999999999C298.468,566.322,278.194,601.435,278.194,639.437M278.194,384.563C278.194,466.446,366.834,517.621,437.747,476.67999999999995C470.657,457.678,490.931,422.56500000000005,490.931,384.563C490.931,302.679,402.291,251.50400000000002,331.378,292.44500000000005C298.468,311.447,278.194,346.55999999999995,278.194,384.563" />
</svg>