<?xml version="1.0" encoding="utf-8"?>
<svg version="1.1" xmlns="http://www.w3.org/2000/svg" xmlns:xlink="http://www.w3.org/1999/xlink" x="0px" y="0px" viewBox="0 0 1024 1024" xml:space="preserve">
 <path d="M1024,982.1002119485288C1024,982.1002119485288,685.264,643.3642119485288,685.264,643.3642119485288C821.403,484.4402119485288,807.631,246.36221194852885,654.083,104.18121194852881C500.485,-37.999788051471114,262.048,-33.39178805147117,114.082,114.57521194852882C-33.885,262.5412119485288,-38.493,501.02921194852877,103.637,654.5762119485289C245.818,808.1752119485288,483.947,821.9482119485289,642.871,685.8082119485289C642.871,685.8082119485289,981.607,1024.4932119485288,981.607,1024.4932119485288C981.607,1024.4932119485288,1024,982.1002119485288,1024,982.1002119485288C1024,982.1002119485288,1024,982.1002119485288,1024,982.1002119485288M390.764,719.8562119485289C209.313,719.8562119485289,62.217,572.7592119485289,62.217,391.3082119485289C62.217,209.8062119485288,209.313,62.71021194852881,390.764,62.71021194852881C572.215,62.71021194852881,719.312,209.8062119485288,719.312,391.3082119485289C719.004,572.6062119485289,572.113,719.4972119485288,390.764,719.8562119485289C390.764,719.8562119485289,390.764,719.8562119485289,390.764,719.8562119485289C390.764,719.8562119485289,390.764,719.8562119485289,390.764,719.8562119485289M271.316,391.3592119485288C271.316,483.31421194852885,370.899,540.8112119485288,450.565,494.83421194852883C487.531,473.4842119485288,510.315,434.06021194852883,510.315,391.3592119485288C510.315,299.3542119485288,410.732,241.85721194852886,331.065,287.8852119485289C294.099,309.18421194852885,271.316,348.6592119485289,271.316,391.3592119485288" />
</svg>