<?xml version="1.0" encoding="utf-8"?>
<svg version="1.1" xmlns="http://www.w3.org/2000/svg" xmlns:xlink="http://www.w3.org/1999/xlink" x="0px" y="0px" viewBox="0 0 1024 1024" xml:space="preserve">
 <path d="M153.6,852.86C153.6,852.86,153.6,632.7,153.6,632.7C153.6,632.7,0,632.7,0,632.7C0,632.7,0,69.5,0,69.5C0,69.5,921.6,69.5,921.6,69.5C921.6,69.5,921.6,632.7,921.6,632.7C921.6,632.7,450.56,632.7,450.56,632.7C450.56,632.7,153.6,852.86,153.6,852.86C153.6,852.86,153.6,852.86,153.6,852.86M51.2,581.5C51.2,581.5,204.8,581.5,204.8,581.5C204.8,581.5,204.8,750.972,204.8,750.972C204.8,750.972,433.664,581.5,433.664,581.5C433.664,581.5,870.4,581.5,870.4,581.5C870.4,581.5,870.4,120.70000000000005,870.4,120.70000000000005C870.4,120.70000000000005,51.2,120.70000000000005,51.2,120.70000000000005C51.2,120.70000000000005,51.2,581.5,51.2,581.5C51.2,581.5,51.2,581.5,51.2,581.5M768,955.26C768,955.26,453.12,719.2280000000001,453.12,719.2280000000001C453.12,719.2280000000001,494.592,689.02,494.592,689.02C494.592,689.02,716.8,853.372,716.8,853.372C716.8,853.372,716.8,683.9,716.8,683.9C716.8,683.9,972.8,683.9,972.8,683.9C972.8,683.9,972.8,223.10000000000002,972.8,223.10000000000002C972.8,223.10000000000002,1024,223.10000000000002,1024,223.10000000000002C1024,223.10000000000002,1024,735.0999999999999,1024,735.0999999999999C1024,735.0999999999999,768,735.0999999999999,768,735.0999999999999C768,735.0999999999999,768,955.26,768,955.26" />
</svg>