<?xml version="1.0" encoding="utf-8"?>
<svg version="1.1" xmlns="http://www.w3.org/2000/svg" xmlns:xlink="http://www.w3.org/1999/xlink" x="0px" y="0px" viewBox="0 0 1024 1024" xml:space="preserve">
 <path d="M179.712,512C179.712,571.136,243.712,608.0509999999999,294.912,578.509C318.669,564.787,333.312,539.443,333.312,512C333.312,452.86400000000003,269.312,415.94899999999996,218.112,445.491C194.355,459.21299999999997,179.712,484.557,179.712,512M435.2,512C435.2,571.136,499.2,608.0509999999999,550.4,578.509C574.157,564.787,588.8,539.443,588.8,512C588.8,452.86400000000003,524.8,415.94899999999996,473.6,445.491C449.843,459.21299999999997,435.2,484.557,435.2,512M690.688,512C690.688,571.136,754.688,608.0509999999999,805.888,578.509C829.645,564.787,844.288,539.443,844.288,512C844.288,452.86400000000003,780.288,415.94899999999996,729.088,445.491C705.331,459.21299999999997,690.688,484.557,690.688,512M512,1024C229.222,1024,0,794.778,0,512C0,229.22199999999998,229.222,0,512,0C794.778,0,1024,229.22199999999998,1024,512C1024,794.778,794.778,1024,512,1024C512,1024,512,1024,512,1024C512,1024,512,1024,512,1024M512,51.200000000000045C257.485,51.200000000000045,51.2,257.485,51.2,512C51.2,766.515,257.485,972.8,512,972.8C766.515,972.8,972.8,766.515,972.8,512C972.8,257.485,766.515,51.200000000000045,512,51.200000000000045C512,51.200000000000045,512,51.200000000000045,512,51.200000000000045C512,51.200000000000045,512,51.200000000000045,512,51.200000000000045" />
</svg>