<?xml version="1.0" encoding="utf-8"?>
<svg version="1.1" xmlns="http://www.w3.org/2000/svg" xmlns:xlink="http://www.w3.org/1999/xlink" x="0px" y="0px" viewBox="0 0 1024 1024" xml:space="preserve">
 <path d="M205.2,460.79999999999995C205.2,460.79999999999995,205.2,972.8,205.2,972.8C205.2,972.8,819.6,972.8,819.6,972.8C819.6,972.8,819.6,460.79999999999995,819.6,460.79999999999995C819.6,460.79999999999995,205.2,460.79999999999995,205.2,460.79999999999995C205.2,460.79999999999995,205.2,460.79999999999995,205.2,460.79999999999995M179.6,409.6C179.6,409.6,845.2,409.6,845.2,409.6C859.344,409.6,870.8,421.05600000000004,870.8,435.20000000000005C870.8,435.20000000000005,870.8,998.4,870.8,998.4C870.8,1012.544,859.344,1024,845.2,1024C845.2,1024,179.6,1024,179.6,1024C165.456,1024,154,1012.544,154,998.4C154,998.4,154,435.20000000000005,154,435.20000000000005C154,421.05600000000004,165.456,409.6,179.6,409.6C179.6,409.6,179.6,409.6,179.6,409.6M666,409.6C666,409.6,666,204.79999999999995,666,204.79999999999995C666,119.96799999999996,597.232,51.200000000000045,512.4,51.200000000000045C427.568,51.200000000000045,358.8,119.96799999999996,358.8,204.79999999999995C358.8,204.79999999999995,358.8,409.6,358.8,409.6C358.8,409.6,666,409.6,666,409.6C666,409.6,666,409.6,666,409.6M512.4,0C625.52,0,717.2,91.67999999999995,717.2,204.79999999999995C717.2,204.79999999999995,717.2,435.20000000000005,717.2,435.20000000000005C717.2,449.34400000000005,705.744,460.79999999999995,691.6,460.79999999999995C691.6,460.79999999999995,333.2,460.79999999999995,333.2,460.79999999999995C319.056,460.79999999999995,307.6,449.34400000000005,307.6,435.20000000000005C307.6,435.20000000000005,307.6,204.79999999999995,307.6,204.79999999999995C307.6,91.67999999999995,399.28,0,512.4,0C512.4,0,512.4,0,512.4,0M512.4,614.4C540.688,614.4,563.6,637.312,563.6,665.6C563.6,665.6,563.6,768,563.6,768C563.6,796.288,540.688,819.2,512.4,819.2C484.112,819.2,461.2,796.288,461.2,768C461.2,768,461.2,665.6,461.2,665.6C461.2,637.312,484.112,614.4,512.4,614.4C512.4,614.4,512.4,614.4,512.4,614.4" />
</svg>