<?xml version="1.0" encoding="utf-8"?>
<svg version="1.1" xmlns="http://www.w3.org/2000/svg" xmlns:xlink="http://www.w3.org/1999/xlink" x="0px" y="0px" viewBox="0 0 1024 1024" xml:space="preserve">
 <path d="M742.4,288.79999999999984C742.4,347.9359999999998,806.4,384.8509999999999,857.6,355.30899999999986C881.357,341.5869999999999,896,316.2429999999998,896,288.79999999999984C896,229.66399999999987,832,192.7489999999998,780.8,222.29099999999983C757.043,236.0129999999998,742.4,261.35699999999986,742.4,288.79999999999984M819.2,493.5999999999998C932.301,493.5999999999998,1024,401.90099999999984,1024,288.79999999999984C1024,175.69899999999984,932.301,83.99999999999989,819.2,83.99999999999989C706.099,83.99999999999989,614.4,175.69899999999984,614.4,288.79999999999984C614.4,401.90099999999984,706.099,493.5999999999998,819.2,493.5999999999998C819.2,493.5999999999998,819.2,493.5999999999998,819.2,493.5999999999998C819.2,493.5999999999998,819.2,493.5999999999998,819.2,493.5999999999998M819.2,135.19999999999982C904.038,135.19999999999982,972.8,203.96199999999988,972.8,288.79999999999984C972.8,373.6379999999998,904.038,442.39999999999986,819.2,442.39999999999986C734.362,442.39999999999986,665.6,373.6379999999998,665.6,288.79999999999984C665.6,203.96199999999988,734.362,135.19999999999982,819.2,135.19999999999982C819.2,135.19999999999982,819.2,135.19999999999982,819.2,135.19999999999982C819.2,135.19999999999982,819.2,135.19999999999982,819.2,135.19999999999982M921.6,647.1999999999998C921.6,647.1999999999998,462.848,647.1999999999998,462.848,647.1999999999998C462.848,647.1999999999998,204.8,838.1759999999998,204.8,838.1759999999998C204.8,838.1759999999998,204.8,647.1999999999998,204.8,647.1999999999998C204.8,647.1999999999998,51.2,647.1999999999998,51.2,647.1999999999998C51.2,647.1999999999998,51.2,186.39999999999986,51.2,186.39999999999986C51.2,186.39999999999986,563.2,186.39999999999986,563.2,186.39999999999986C563.2,186.39999999999986,563.2,135.19999999999982,563.2,135.19999999999982C563.2,135.19999999999982,0,135.19999999999982,0,135.19999999999982C0,135.19999999999982,0,698.3999999999999,0,698.3999999999999C0,698.3999999999999,153.6,698.3999999999999,153.6,698.3999999999999C153.6,698.3999999999999,153.6,940.0639999999999,153.6,940.0639999999999C153.6,940.0639999999999,480.256,698.3999999999999,480.256,698.3999999999999C480.256,698.3999999999999,972.8,698.3999999999999,972.8,698.3999999999999C972.8,698.3999999999999,972.8,544.7999999999998,972.8,544.7999999999998C972.8,544.7999999999998,921.6,544.7999999999998,921.6,544.7999999999998C921.6,544.7999999999998,921.6,647.1999999999998,921.6,647.1999999999998" />
</svg>