<?xml version="1.0" encoding="UTF-8"?>
<svg width="22px" height="22px" viewBox="0 0 22 22" version="1.1" xmlns="http://www.w3.org/2000/svg" xmlns:xlink="http://www.w3.org/1999/xlink">
    <!-- Generator: Sketch 52.3 (67297) - http://www.bohemiancoding.com/sketch -->
    <title>Group 49</title>
    <desc>Created with Sketch.</desc>
    <g id="R5-(MVP)---Concierge-&gt;Resource-Test" stroke="none" stroke-width="1" fill="none" fill-rule="evenodd">
        <g id="R5-DB1-NonDev-DB-Copy" transform="translate(-750.000000, -750.000000)" fill="#000000">
            <g id="Group-49" transform="translate(751.000000, 751.000000)">
                <path d="M19.7498648,10.7283266 C20.0833784,10.2928186 20.0833784,9.68775934 19.7498648,9.25225141 L18.7399186,7.93398035 C18.6219283,7.77981892 18.5703662,7.58493179 18.5966811,7.39259094 L18.8200345,5.78056151 C18.8966346,5.22747255 18.5860508,4.69346872 18.0674304,4.486568 L16.5379447,3.8747737 C16.3530504,3.80074679 16.2065365,3.65423288 16.1325096,3.46933859 L15.5207153,1.93985283 C15.3138145,1.42123248 14.7798107,1.11064864 14.2267218,1.18724872 L12.6146923,1.4106022 C12.4189581,1.43689234 12.2209389,1.38256848 12.0660197,1.26008138 L10.7283266,0.250135226 C10.2928186,-0.0833784088 9.68775934,-0.0833784088 9.25225141,0.250135226 L7.93398035,1.26008138 C7.77981892,1.37807174 7.58493179,1.42963381 7.39259094,1.40331893 L5.78056151,1.17996546 C5.22747255,1.10336538 4.69346872,1.41394922 4.486568,1.93256956 L3.8747737,3.46205532 C3.80074679,3.64694961 3.65423288,3.79346352 3.46933859,3.86749043 L1.93985283,4.47928474 C1.42123248,4.68618546 1.11064864,5.22018929 1.18724872,5.77327824 L1.4106022,7.38530768 C1.43689234,7.5810419 1.38256848,7.77906112 1.26008138,7.93398035 L0.250135226,9.27167345 C-0.0833784088,9.70718138 -0.0833784088,10.3122407 0.250135226,10.7477486 L1.26008138,12.0660197 C1.37870718,12.2208053 1.430304,12.4166983 1.40331893,12.6098368 L1.17996546,14.2218662 C1.10336538,14.7749552 1.41394922,15.308959 1.93256956,15.5158598 L3.46205532,16.1276541 C3.64694961,16.201681 3.79346352,16.3481949 3.86749043,16.5330892 L4.47928474,18.0625749 C4.68618546,18.5811953 5.22018929,18.8917791 5.77327824,18.815179 L7.38530768,18.5918256 C7.57764852,18.5655107 7.77253566,18.6170727 7.92669708,18.7350631 L9.27167345,19.7498648 C9.70718138,20.0833784 10.3122407,20.0833784 10.7477486,19.7498648 L12.0660197,18.7399186 C12.2208053,18.6212928 12.4166983,18.569696 12.6098368,18.5966811 L14.2218662,18.8200345 C14.7749552,18.8966346 15.308959,18.5860508 15.5158598,18.0674304 L16.1276541,16.5379447 C16.201681,16.3530504 16.3481949,16.2065365 16.5330892,16.1325096 L18.0625749,15.5207153 C18.5811953,15.3138145 18.8917791,14.7798107 18.815179,14.2267218 L18.5918256,12.6146923 C18.5648551,12.4192933 18.6182929,12.2213109 18.7399186,12.0660197 L19.7498648,10.7283266 Z M18.4030549,11.7720229 C18.2034196,12.0302933 18.1154078,12.3576973 18.1586379,12.681254 L18.3835015,14.3041825 C18.4300129,14.6384484 18.2423599,14.9612924 17.928886,15.0863168 L16.3890592,15.7022475 C16.0778823,15.8264645 15.8313528,16.072994 15.7071359,16.3841708 L15.0912051,17.9239976 C14.9664051,18.2364842 14.6449365,18.4239235 14.3115151,18.3786132 L12.6885865,18.1635262 C12.3650298,18.1202961 12.0376258,18.208308 11.7793554,18.4079432 L10.4423947,19.4320502 C10.1792262,19.633761 9.81344131,19.633761 9.55027281,19.4320502 L8.21575624,18.405499 C8.00421805,18.2468454 7.74692812,18.1610821 7.48250538,18.1610821 C7.42798366,18.1573227 7.37326775,18.1573227 7.31874602,18.1610821 L5.69581745,18.3859457 C5.3615516,18.4324571 5.03870758,18.244804 4.9136832,17.9313301 L4.29775248,16.3915033 C4.17353552,16.0803265 3.92700602,15.833797 3.61582918,15.70958 L2.07600238,15.0936493 C1.76252849,14.9686249 1.5748754,14.6457809 1.62138685,14.3115151 L1.83647376,12.6885865 C1.87970387,12.3650298 1.79169205,12.0376258 1.59205681,11.7793554 L0.567949777,10.4423947 C0.366238963,10.1792262 0.366238963,9.81344131 0.567949777,9.55027281 L1.59205681,8.21331207 C1.79169205,7.95504173 1.87970387,7.62763773 1.83647376,7.30408101 L1.61161017,5.68115244 C1.56629982,5.34773099 1.75373917,5.02626243 2.0662257,4.90146236 L3.6060525,4.28553163 C3.91722934,4.16131467 4.16375884,3.91478517 4.2879758,3.60360834 L4.90390653,2.06378153 C5.0289309,1.75030764 5.35177492,1.56265455 5.68604078,1.609166 L7.31141352,1.83647376 C7.63497024,1.87970387 7.96237424,1.79169205 8.22064458,1.59205681 L9.55760531,0.567949777 C9.82077381,0.366238963 10.1865587,0.366238963 10.4497272,0.567949777 L11.7866879,1.59205681 C12.0449583,1.79169205 12.3723623,1.87970387 12.695919,1.83647376 L14.3188476,1.61161017 C14.652269,1.56629982 14.9737376,1.75373917 15.0985376,2.0662257 L15.7144684,3.6060525 C15.8386853,3.91722934 16.0852148,4.16375884 16.3963917,4.2879758 L17.9362185,4.90390653 C18.248705,5.0287066 18.4361443,5.35017516 18.390834,5.68359661 L18.1635262,7.31141352 C18.1202961,7.63497024 18.208308,7.96237424 18.4079432,8.22064458 L19.4320502,9.55760531 C19.633761,9.82077381 19.633761,10.1865587 19.4320502,10.4497272 L18.4030549,11.7720229 Z" id="Shape" stroke="#222222" fill-rule="nonzero"></path>
                <path d="M13.7539586,7.0910992 C13.7556847,7.0910992 12.1943783,9.02032113 9.07003927,12.878765 L6.42384495,10.5659067 C6.3130205,10.4691141 6.14956791,10.4864137 6.05876336,10.6045463 C5.96795881,10.7226789 5.98418814,10.8969101 6.09501259,10.9937027 L8.94316694,13.4776794 C9.05173884,13.5724026 9.21133438,13.5577159 9.30307008,13.4445597 L14.1449325,7.45541579 C14.2050603,7.38047646 14.2231143,7.27703653 14.1922938,7.18406083 C14.1614733,7.09108513 14.0864606,7.02269887 13.9955122,7.00466251 C13.9045639,6.98662614 13.8114971,7.02167981 13.7513693,7.09661915 C13.7513693,7.09661915 13.7513693,7.0910992 13.7539586,7.0910992 Z" id="Path" stroke="#000000"></path>
            </g>
        </g>
    </g>
</svg>