<?xml version="1.0" encoding="UTF-8"?>
<svg x="0px" y="0px" viewBox="0 0 8 10" version="1.1" xmlns="http://www.w3.org/2000/svg"
     xmlns:xlink="http://www.w3.org/1999/xlink">
    <!-- Generator: Sketch 52.3 (67297) - http://www.bohemiancoding.com/sketch -->
    <title>Artboard Copy</title>
    <desc>Created with Sketch.</desc>
    <g>
        <path d="M0.5,1 C0.5,0.44771525 0.94771525,-2.66453526e-15 1.5,-2.66453526e-15 C2.05228475,-2.66453526e-15 2.5,0.44771525 2.5,1 L2.5,9 C2.5,9.55228475 2.05228475,10 1.5,10 C0.94771525,10 0.5,9.55228475 0.5,9 L0.5,1 Z M5.5,1 C5.5,0.44771525 5.94771525,-3.55271368e-15 6.5,-3.55271368e-15 C7.05228475,-3.55271368e-15 7.5,0.44771525 7.5,1 L7.5,9 C7.5,9.55228475 7.05228475,10 6.5,10 C5.94771525,10 5.5,9.55228475 5.5,9 L5.5,1 Z" id="Shape" fill="#000000" fill-rule="nonzero"></path>
    </g>
</svg>
