<?xml version="1.0" encoding="utf-8"?>
<svg version="1.1" xmlns="http://www.w3.org/2000/svg" xmlns:xlink="http://www.w3.org/1999/xlink" x="0px" y="0px" viewBox="0 0 1024 1024" xml:space="preserve">
 <path d="M69.183,766.7629639117087C-71.364,525.8629639117087,9.687,215.37996391170861,258.421,70.8909639117087C507.104,-73.64903608829127,815.282,12.00996391170861,955.829,258.2359639117087C1096.375,504.46096391170863,1015.273,809.5669639117086,766.59,954.1069639117087C517.907,1098.6469639117086,209.729,1012.9879639117087,69.183,766.7629639117087C69.183,766.7629639117087,69.183,766.7629639117087,69.183,766.7629639117087M410.078,358.8959639117087C410.078,358.8959639117087,410.078,666.1019639117087,410.078,666.1019639117087C410.078,666.1019639117087,461.279,666.1019639117087,461.279,666.1019639117087C461.279,666.1019639117087,461.279,358.8959639117087,461.279,358.8959639117087C461.279,358.8959639117087,410.078,358.8959639117087,410.078,358.8959639117087C410.078,358.8959639117087,410.078,358.8959639117087,410.078,358.8959639117087M563.681,358.8959639117087C563.681,358.8959639117087,563.681,666.1019639117087,563.681,666.1019639117087C563.681,666.1019639117087,614.882,666.1019639117087,614.882,666.1019639117087C614.882,666.1019639117087,614.882,358.8959639117087,614.882,358.8959639117087C614.882,358.8959639117087,563.681,358.8959639117087,563.681,358.8959639117087C563.681,358.8959639117087,563.681,358.8959639117087,563.681,358.8959639117087" />
</svg>