<svg xmlns="http://www.w3.org/2000/svg" width="20" height="20" viewBox="0 0 20 20">
  <path fill="#282A2B" fill-rule="evenodd" d="M8.33883476,15.8672178 L8.33883476,15 L11.3388348,15 L11.3388348,15.8672178 L11.3388348,2.5 C11.3388348,1.67157288 10.6672619,1 9.83883476,1 C9.01040764,1 8.33883476,1.67157288 8.33883476,2.5 L8.33883476,15.8672178 Z M8.41471032,16 L9.83883476,18.4922178 L11.2629592,16 L8.41471032,16 Z M9.83883476,-2.27373675e-13 C11.2195466,-2.27651231e-13 12.3388348,1.11928813 12.3388348,2.5 L12.3388348,16 C12.3388348,16.0870135 12.3161271,16.1725206 12.2729563,16.2480695 L10.2729563,19.7480695 C10.0810093,20.0839768 9.59666026,20.0839768 9.40471319,19.7480695 L7.40471319,16.2480695 C7.36154242,16.1725206 7.33883476,16.0870135 7.33883476,16 L7.33883476,2.5 C7.33883476,1.11928813 8.45812289,-2.2709612e-13 9.83883476,-2.27373675e-13 Z M8.33883476,4 L8.33883476,3 L11.3388348,3 L11.3388348,4 L8.33883476,4 Z" transform="rotate(45 9.839 10)"/>
</svg>
