<?xml version="1.0" encoding="utf-8"?>
<svg version="1.1" xmlns="http://www.w3.org/2000/svg" xmlns:xlink="http://www.w3.org/1999/xlink" x="0px" y="0px" viewBox="0 0 1024 1024" xml:space="preserve">
 <path d="M929.677,439.8209999999999C876.485,439.8209999999999,833.395,482.9119999999999,833.395,536.1039999999999C833.552,552.7819999999999,838.077,569.0919999999999,846.548,583.4559999999999C846.548,583.4559999999999,478.255,951.7489999999999,478.255,951.7489999999999C478.255,951.7489999999999,52.613,529.79,52.613,529.79C52.613,529.79,52.613,53.11399999999992,52.613,53.11399999999992C52.613,53.11399999999992,899.687,53.11399999999992,899.687,53.11399999999992C899.687,53.11399999999992,899.687,116.25,899.687,116.25C899.687,116.25,473.52,540.3129999999999,473.52,540.3129999999999C473.52,540.3129999999999,283.06,347.74799999999993,283.06,347.74799999999993C283.06,347.74799999999993,247.809,382.9989999999999,247.809,382.9989999999999C247.809,382.9989999999999,473.52,610.8149999999999,473.52,610.8149999999999C473.52,610.8149999999999,947.039,137.29499999999996,947.039,137.29499999999996C947.039,137.29499999999996,947.039,0.5,947.039,0.5C947.039,0.5,0,0.5,0,0.5C0,0.5,0,550.309,0,550.309C0,550.309,473.52,1023.829,473.52,1023.829C473.52,1023.829,879.168,618.18,879.168,618.18C893.847,626.809,910.578,631.334,927.572,631.334C1001.705,631.334,1048.004,551.0989999999999,1010.965,486.90999999999997C993.76,457.131,961.982,438.769,927.572,438.769C927.572,438.769,929.677,439.8209999999999,929.677,439.8209999999999" />
</svg>