<?xml version="1.0" encoding="utf-8"?>
<svg version="1.1" xmlns="http://www.w3.org/2000/svg" xmlns:xlink="http://www.w3.org/1999/xlink" x="0px" y="0px" viewBox="0 0 1024 1024" xml:space="preserve">
 <path d="M921.7,358.4C921.7,358.4,921.7,307.20000000000005,921.7,307.20000000000005C921.7,307.20000000000005,711.268,307.20000000000005,711.268,307.20000000000005C711.268,307.20000000000005,752.74,0,752.74,0C752.74,0,707.172,0,707.172,0C707.172,0,665.7,307.20000000000005,665.7,307.20000000000005C665.7,307.20000000000005,430.692,307.20000000000005,430.692,307.20000000000005C430.692,307.20000000000005,472.164,0,472.164,0C472.164,0,426.596,0,426.596,0C426.596,0,384.1,307.20000000000005,384.1,307.20000000000005C384.1,307.20000000000005,153.7,307.20000000000005,153.7,307.20000000000005C153.7,307.20000000000005,153.7,358.4,153.7,358.4C153.7,358.4,377.444,358.4,377.444,358.4C377.444,358.4,335.972,665.6,335.972,665.6C335.972,665.6,102.5,665.6,102.5,665.6C102.5,665.6,102.5,716.8,102.5,716.8C102.5,716.8,329.316,716.8,329.316,716.8C329.316,716.8,287.844,1024,287.844,1024C287.844,1024,333.412,1024,333.412,1024C333.412,1024,375.908,716.8,375.908,716.8C375.908,716.8,610.404,716.8,610.404,716.8C610.404,716.8,568.932,1024,568.932,1024C568.932,1024,614.5,1024,614.5,1024C614.5,1024,656.996,716.8,656.996,716.8C656.996,716.8,870.5,716.8,870.5,716.8C870.5,716.8,870.5,665.6,870.5,665.6C870.5,665.6,665.7,665.6,665.7,665.6C665.7,665.6,707.172,358.4,707.172,358.4C707.172,358.4,921.7,358.4,921.7,358.4C921.7,358.4,921.7,358.4,921.7,358.4M614.5,665.6C614.5,665.6,382.564,665.6,382.564,665.6C382.564,665.6,424.036,358.4,424.036,358.4C424.036,358.4,658.532,358.4,658.532,358.4C658.532,358.4,614.5,665.6,614.5,665.6C614.5,665.6,614.5,665.6,614.5,665.6" />
</svg>