<?xml version="1.0" encoding="utf-8"?>
<svg version="1.1" xmlns="http://www.w3.org/2000/svg" xmlns:xlink="http://www.w3.org/1999/xlink" x="0px" y="0px" viewBox="0 0 1024 1024" xml:space="preserve">
 <path d="M875.315,151.60791553642434C875.315,151.60791553642434,875.315,151.60791553642434,875.315,151.60791553642434C875.315,151.60791553642434,875.315,151.60791553642434,875.315,151.60791553642434C597.585,-127.60508446357562,121.788,-1.4400844635756584,18.838,378.67491553642435C-84.111,758.7899155364244,263.052,1107.7879155364244,643.732,1006.8849155364244C868.118,947.4009155364243,1024.271,744.3249155364244,1024.2,512.1769155364244C1024.271,375.9939155364244,969.938,245.3839155364244,873.198,149.49091553642438C873.198,149.49091553642438,875.315,151.60791553642434,875.315,151.60791553642434M547.909,73.28391553642439C640.274,80.55191553642442,727.912,116.89091553642436,798.403,177.0099155364244C798.403,177.0099155364244,547.909,426.7979155364244,547.909,426.7979155364244C547.909,426.7979155364244,547.909,73.28391553642439,547.909,73.28391553642439M512.629,953.1879155364244C173.157,947.6129155364245,-32.883,576.6709155364244,141.686,285.46291553642436C213.588,165.50791553642443,338.13,86.76191553642434,477.348,73.28391553642439C477.348,73.28391553642439,477.348,512.1769155364244,477.348,512.1769155364244C477.418,526.4309155364244,486.027,539.2029155364244,499.222,544.6359155364244C503.667,545.4829155364243,508.183,545.4829155364243,512.629,544.6359155364244C521.943,544.4949155364244,530.833,540.6839155364244,537.325,534.0519155364244C537.325,534.0519155364244,847.796,229.93091553642444,847.796,229.93091553642444C1065.62,489.59791553642435,920.616,887.7059155364244,586.789,946.4839155364244C562.304,950.8589155364244,537.537,953.0459155364244,512.629,953.1879155364244C512.629,953.1879155364244,512.629,953.1879155364244,512.629,953.1879155364244" />
</svg>