<?xml version="1.0" encoding="utf-8"?>
<svg version="1.1" xmlns="http://www.w3.org/2000/svg" xmlns:xlink="http://www.w3.org/1999/xlink" x="0px" y="0px" viewBox="0 0 1024 1024" xml:space="preserve">
 <path d="M510.866,1023.5213878620307C464.924,1023.5213878620307,424.086,1018.4163878620307,378.144,1008.2073878620307C245.422,972.4743878620307,138.224,885.6943878620307,66.758,768.2873878620306C-71.068,523.2623878620307,10.607,211.8763878620307,255.632,68.94538786203066C255.632,68.94538786203066,255.632,68.94538786203066,255.632,68.94538786203066C373.039,2.584387862030667,510.866,-17.834612137969316,643.588,17.89838786203063C776.309,53.63138786203069,883.508,140.4103878620307,954.973,257.8183878620307C1097.905,502.8433878620307,1011.125,814.2293878620306,766.1,957.1603878620307C689.53,1003.1023878620307,597.646,1023.5213878620307,510.866,1023.5213878620307C510.866,1023.5213878620307,510.866,1023.5213878620307,510.866,1023.5213878620307C510.866,1023.5213878620307,510.866,1023.5213878620307,510.866,1023.5213878620307M286.26,119.99238786203068C71.863,247.60938786203064,-4.707,523.2623878620307,117.805,742.7633878620306C179.061,849.9623878620307,276.05,921.4273878620306,393.458,957.1603878620307C510.866,987.7883878620307,633.378,972.4743878620307,735.472,911.2183878620307C949.869,783.6013878620307,1026.439,507.9483878620307,903.927,288.44638786203063C842.67,181.24838786203065,745.681,109.78238786203065,628.274,74.05038786203068C510.866,43.421387862030656,388.353,58.735387862030734,286.26,119.99238786203068C286.26,119.99238786203068,286.26,119.99238786203068,286.26,119.99238786203068C286.26,119.99238786203068,286.26,119.99238786203068,286.26,119.99238786203068C286.26,119.99238786203068,286.26,119.99238786203068,286.26,119.99238786203068M398.563,707.0313878620307C398.563,707.0313878620307,398.563,313.97038786203063,398.563,313.97038786203063C398.563,313.97038786203063,740.577,513.0523878620306,740.577,513.0523878620306C740.577,513.0523878620306,398.563,707.0313878620307,398.563,707.0313878620307" />
</svg>