<?xml version="1.0" encoding="utf-8"?>
<svg version="1.1" xmlns="http://www.w3.org/2000/svg" xmlns:xlink="http://www.w3.org/1999/xlink" x="0px" y="0px" viewBox="0 0 1024 1024" xml:space="preserve">
 <path d="M235.351,276.75699999999995C235.351,276.75699999999995,235.351,415.135,235.351,415.135C235.351,491.57500000000005,297.29,553.514,373.73,553.514C373.73,553.514,650.486,553.514,650.486,553.514C726.927,553.514,788.865,491.57500000000005,788.865,415.135C788.865,415.135,788.865,276.75699999999995,788.865,276.75699999999995C788.865,276.75699999999995,235.351,276.75699999999995,235.351,276.75699999999995C235.351,276.75699999999995,235.351,276.75699999999995,235.351,276.75699999999995M844.216,221.40499999999997C844.216,221.40499999999997,844.216,415.135,844.216,415.135C844.216,522.129,757.481,608.865,650.486,608.865C650.486,608.865,373.73,608.865,373.73,608.865C266.736,608.865,180,522.129,180,415.135C180,415.135,180,221.40499999999997,180,221.40499999999997C180,221.40499999999997,844.216,221.40499999999997,844.216,221.40499999999997C844.216,221.40499999999997,844.216,221.40499999999997,844.216,221.40499999999997M346.054,166.05399999999997C346.054,166.05399999999997,290.703,166.05399999999997,290.703,166.05399999999997C290.703,166.05399999999997,290.703,0,290.703,0C290.703,0,346.054,0,346.054,0C346.054,0,346.054,166.05399999999997,346.054,166.05399999999997M733.514,166.05399999999997C733.514,166.05399999999997,678.162,166.05399999999997,678.162,166.05399999999997C678.162,166.05399999999997,678.162,0,678.162,0C678.162,0,733.514,0,733.514,0C733.514,0,733.514,166.05399999999997,733.514,166.05399999999997M512.108,581.1890000000001C512.108,565.912,524.507,553.514,539.784,553.514C555.061,553.514,567.459,565.912,567.459,581.1890000000001C567.459,581.1890000000001,567.459,636.5409999999999,567.459,636.5409999999999C567.459,682.371,530.263,719.568,484.432,719.568C484.432,719.568,318.378,719.568,318.378,719.568C303.101,719.568,290.703,731.966,290.703,747.2429999999999C290.703,762.52,303.101,774.919,318.378,774.919C318.378,774.919,705.838,774.919,705.838,774.919C751.669,774.919,788.865,812.115,788.865,857.946C788.865,903.777,751.669,940.973,705.838,940.973C705.838,940.973,539.784,940.973,539.784,940.973C524.507,940.973,512.108,953.372,512.108,968.649C512.108,968.649,512.108,996.324,512.108,996.324C512.108,1011.601,499.709,1024,484.432,1024C469.155,1024,456.757,1011.601,456.757,996.324C456.757,996.324,456.757,968.649,456.757,968.649C456.757,922.818,493.953,885.6220000000001,539.784,885.6220000000001C539.784,885.6220000000001,705.838,885.6220000000001,705.838,885.6220000000001C721.115,885.6220000000001,733.514,873.223,733.514,857.946C733.514,842.669,721.115,830.27,705.838,830.27C705.838,830.27,318.378,830.27,318.378,830.27C272.547,830.27,235.351,793.0740000000001,235.351,747.2429999999999C235.351,701.412,272.547,664.216,318.378,664.216C318.378,664.216,484.432,664.216,484.432,664.216C499.709,664.216,512.108,651.818,512.108,636.5409999999999C512.108,636.5409999999999,512.108,581.1890000000001,512.108,581.1890000000001C512.108,581.1890000000001,512.108,581.1890000000001,512.108,581.1890000000001" />
</svg>