<?xml version="1.0" encoding="utf-8"?>
<svg version="1.1" xmlns="http://www.w3.org/2000/svg" xmlns:xlink="http://www.w3.org/1999/xlink" x="0px" y="0px" viewBox="0 0 1024 1024" xml:space="preserve">
 <path d="M0,433.216C0,433.216,1024,433.216,1024,433.216C1024,433.216,1024,590.752,1024,590.752C1024,590.752,0,590.752,0,590.752C0,590.752,0,433.216,0,433.216C0,433.216,0,433.216,0,433.216M433.216,0C433.216,0,590.752,0,590.752,0C590.752,0,590.752,1024,590.752,1024C590.752,1024,433.216,1024,433.216,1024C433.216,1024,433.216,0,433.216,0C433.216,0,433.216,0,433.216,0" />
</svg>