<svg xmlns="http://www.w3.org/2000/svg" width="24" height="24" viewBox="0 0 24 24">
  <path fill="#282A2B" fill-rule="evenodd" d="M12,3.5 C12.2761424,3.5 12.5,3.72385763 12.5,4 L12.5,4 L12.5,11.5 L20,11.5 C20.2454599,11.5 20.4496084,11.6768752 20.4919443,11.9101244 L20.5,12 C20.5,12.2761424 20.2761424,12.5 20,12.5 L20,12.5 L12.5,12.5 L12.5,20 C12.5,20.2454599 12.3231248,20.4496084 12.0898756,20.4919443 L12,20.5 C11.7238576,20.5 11.5,20.2761424 11.5,20 L11.5,20 L11.5,12.5 L4,12.5 C3.75454011,12.5 3.55039163,12.3231248 3.50805567,12.0898756 L3.5,12 C3.5,11.7238576 3.72385763,11.5 4,11.5 L4,11.5 L11.5,11.5 L11.5,4 C11.5,3.75454011 11.6768752,3.55039163 11.9101244,3.50805567 Z"/>
</svg>
