<?xml version="1.0" encoding="utf-8"?>
<svg version="1.1" xmlns="http://www.w3.org/2000/svg" xmlns:xlink="http://www.w3.org/1999/xlink" x="0px" y="0px" viewBox="0 0 1024 1024" xml:space="preserve">
 <path d="M768.5,256.5C768.5,256.5,512.5,256.5,512.5,256.5C512.5,256.5,512.5,0.5,512.5,0.5C512.5,0.5,1024.5,0.5,1024.5,0.5C1024.5,0.5,1024.5,512.5,1024.5,512.5C1024.5,512.5,768.5,512.5,768.5,512.5C768.5,512.5,768.5,256.5,768.5,256.5C768.5,256.5,768.5,256.5,768.5,256.5M538.1,26.100000000000023C538.1,26.100000000000023,538.1,256.5,538.1,256.5C538.1,256.5,768.5,256.5,768.5,256.5C768.5,256.5,768.5,486.9,768.5,486.9C768.5,486.9,998.9,486.9,998.9,486.9C998.9,486.9,998.9,26.100000000000023,998.9,26.100000000000023C998.9,26.100000000000023,538.1,26.100000000000023,538.1,26.100000000000023C538.1,26.100000000000023,538.1,26.100000000000023,538.1,26.100000000000023M512.5,512.5C512.5,512.5,256.5,512.5,256.5,512.5C256.5,512.5,256.5,256.5,256.5,256.5C256.5,256.5,768.5,256.5,768.5,256.5C768.5,256.5,768.5,768.5,768.5,768.5C768.5,768.5,512.5,768.5,512.5,768.5C512.5,768.5,512.5,512.5,512.5,512.5C512.5,512.5,512.5,512.5,512.5,512.5M282.1,282.1C282.1,282.1,282.1,512.5,282.1,512.5C282.1,512.5,512.5,512.5,512.5,512.5C512.5,512.5,512.5,742.9,512.5,742.9C512.5,742.9,742.9,742.9,742.9,742.9C742.9,742.9,742.9,282.1,742.9,282.1C742.9,282.1,282.1,282.1,282.1,282.1C282.1,282.1,282.1,282.1,282.1,282.1M26.1,538.1C26.1,538.1,26.1,998.9,26.1,998.9C26.1,998.9,486.9,998.9,486.9,998.9C486.9,998.9,486.9,538.1,486.9,538.1C486.9,538.1,26.1,538.1,26.1,538.1C26.1,538.1,26.1,538.1,26.1,538.1M512.5,512.5C512.5,512.5,512.5,1024.5,512.5,1024.5C512.5,1024.5,0.5,1024.5,0.5,1024.5C0.5,1024.5,0.5,512.5,0.5,512.5C0.5,512.5,512.5,512.5,512.5,512.5C512.5,512.5,512.5,512.5,512.5,512.5" />
</svg>