<?xml version="1.0" encoding="utf-8"?>
<svg version="1.1" xmlns="http://www.w3.org/2000/svg" xmlns:xlink="http://www.w3.org/1999/xlink" x="0px" y="0px" viewBox="0 0 1024 1024" xml:space="preserve">
 <path d="M1019.949,801.67C1019.949,801.67,4.5,801.67,4.5,801.67C4.5,801.67,4.5,213.779,4.5,213.779C4.5,213.779,1019.949,213.779,1019.949,213.779C1019.949,213.779,1019.949,801.67,1019.949,801.67M57.945,748.225C57.945,748.225,966.504,748.225,966.504,748.225C966.504,748.225,966.504,267.22299999999996,966.504,267.22299999999996C966.504,267.22299999999996,57.945,267.22299999999996,57.945,267.22299999999996C57.945,267.22299999999996,57.945,748.225,57.945,748.225M164.834,515.207C164.834,515.207,164.834,1024,164.834,1024C164.834,1024,859.615,510.39700000000005,859.615,510.39700000000005C859.615,510.39700000000005,859.615,0,859.615,0C859.615,0,164.834,515.207,164.834,515.207M806.17,481.00199999999995C806.17,481.00199999999995,218.279,918.1800000000001,218.279,918.1800000000001C218.279,918.1800000000001,218.279,544.067,218.279,544.067C218.279,544.067,806.17,106.88900000000001,806.17,106.88900000000001C806.17,106.88900000000001,806.17,481.00199999999995,806.17,481.00199999999995" />
</svg>