<svg xmlns="http://www.w3.org/2000/svg" width="20" height="20" viewBox="0 0 20 20">
  <path fill="#282A2B" fill-rule="evenodd" d="M15.2625178,6.87266498 C14.7707165,5.98900915 14.1035544,5.28934843 13.2609436,4.77359062 C12.418157,4.25783281 11.4981062,4 10.5001758,4 C9.50233335,4 8.58201883,4.25783281 7.73940803,4.77359062 C6.89670934,5.28925625 6.22954723,5.98891697 5.73774592,6.87266498 C5.24585671,7.75641298 5,8.72155762 5,9.76791452 C5,10.8143636 5.24594461,11.7793239 5.73765802,12.6631641 C6.22945933,13.5467277 6.89662144,14.2464806 7.73932013,14.7622384 C8.58201883,15.2779962 9.50224545,15.535829 10.5000879,15.535829 C11.4979304,15.535829 12.4182449,15.2779962 13.2608557,14.7622384 C14.1034665,14.2465728 14.7706286,13.5468199 15.2624299,12.6631641 C15.7541433,11.7794161 16,10.8142714 16,9.76791452 C16,8.72146544 15.7541433,7.7563208 15.2625178,6.87266498 L15.2625178,6.87266498 Z M11.4168864,13.3728726 C11.4168864,13.4429309 11.395263,13.5005446 11.3523677,13.5455293 C11.3095603,13.5905141 11.2546227,13.6130065 11.1878186,13.6130065 L9.81270876,13.6130065 C9.74590465,13.6130065 9.69096706,13.5905141 9.64798389,13.5455293 C9.60500072,13.5005446 9.58355308,13.4429309 9.58355308,13.3728726 L9.58355308,11.9307788 C9.58355308,11.8607205 9.60500072,11.8031068 9.64798389,11.7580299 C9.69096706,11.7131373 9.74590465,11.6906449 9.81270876,11.6906449 L11.1878186,11.6906449 C11.2546227,11.6906449 11.3095603,11.7131373 11.3523677,11.7580299 C11.395263,11.8031068 11.4168864,11.8607205 11.4168864,11.9307788 L11.4168864,13.3728726 L11.4168864,13.3728726 Z M13.1606495,8.9342213 C13.1009653,9.11950694 13.0341612,9.27105401 12.9601493,9.38867813 C12.8861373,9.50630225 12.7798661,9.62650747 12.6413354,9.74910941 C12.5030685,9.87180354 12.3931933,9.95946854 12.3118857,10.0121044 C12.2308418,10.0645559 12.1137588,10.1359969 11.9610762,10.2260586 C11.8035592,10.3211904 11.6735548,10.4450829 11.5709754,10.5978283 C11.468308,10.7504815 11.4169743,10.8744662 11.4169743,10.9695058 C11.4169743,11.0396562 11.3953509,11.0972699 11.3524556,11.1422547 C11.3096482,11.1873316 11.2547106,11.209824 11.1879065,11.209824 L9.81279666,11.209824 C9.74599255,11.209824 9.69105496,11.1873316 9.64807179,11.1422547 C9.60508862,11.0972699 9.58364098,11.0396562 9.58364098,10.9695058 L9.58364098,10.699044 C9.58364098,10.3635941 9.70889869,10.0493459 9.95958991,9.75648397 C10.2102811,9.46352984 10.4860239,9.24699453 10.7868182,9.10678584 C11.015886,8.99672063 11.1782375,8.88398215 11.2736971,8.76884694 C11.3693324,8.65371173 11.4170622,8.50087412 11.4170622,8.31070283 C11.4170622,8.14542066 11.3274041,7.99774523 11.1483515,7.86749219 C10.9692989,7.73733133 10.7653705,7.6722509 10.536127,7.6722509 C10.287809,7.6722509 10.0825622,7.73235351 9.92021064,7.85255872 C9.76260568,7.97267175 9.55735884,8.20303436 9.30429432,8.54346216 C9.26131115,8.60356477 9.20162695,8.63370826 9.12524173,8.63370826 C9.06793083,8.63370826 9.02257436,8.61868261 8.9891723,8.58872348 L8.04389414,7.83771743 C7.93410685,7.74756352 7.91503252,7.64247614 7.98658324,7.52227092 C8.59775295,6.45581836 9.48334692,5.92254599 10.643453,5.92254599 C11.058957,5.92254599 11.464792,6.02523664 11.8610459,6.23052577 C12.2572997,6.43572271 12.5878922,6.72618792 12.852999,7.10173703 C13.1177542,7.47719397 13.2503956,7.8852833 13.2503956,8.32591285 C13.2501319,8.54622762 13.2201579,8.74893565 13.1606495,8.9342213 L13.1606495,8.9342213 Z"/>
</svg>
