<svg xmlns="http://www.w3.org/2000/svg" width="20" height="20" viewBox="0 0 20 20">
  <path fill="#282A2B" fill-rule="evenodd" d="M9,8 L4,8 L4,3 L5,3 L5,6.29 C6.55115174,4.34719335 9.13976388,3.56221188 11.5087234,4.31626776 C13.8776829,5.07032363 15.5362449,7.20720942 15.6789585,9.68918489 C15.821672,12.1711604 14.4189732,14.4840686 12.1520575,15.5046873 C9.88514179,16.525306 7.22361506,16.0422076 5.46,14.29 L6.17,13.58 C7.64887702,15.0450655 9.88075248,15.44056 11.7730007,14.572867 C13.6652489,13.705174 14.8219099,11.7558616 14.6767348,9.67922523 C14.5315596,7.6025889 13.1149266,5.83317239 11.1203554,5.23720235 C9.12578429,4.6412323 6.97064631,5.34341762 5.71,7 L9,7 L9,8 Z"/>
</svg>
