<?xml version="1.0" encoding="utf-8"?>
<svg version="1.1" xmlns="http://www.w3.org/2000/svg" xmlns:xlink="http://www.w3.org/1999/xlink" x="0px" y="0px" viewBox="0 0 1024 1024" xml:space="preserve">
 <path d="M325.173,39.500000000000114C325.173,39.500000000000114,325.173,39.500000000000114,325.173,39.500000000000114C145.559,39.500000000000114,0,185.05900000000008,0,364.6730000000001C0,364.6730000000001,0,985.4580000000001,0,985.4580000000001C0,985.4580000000001,29.561,985.4580000000001,29.561,985.4580000000001C221.945,985.0440000000001,394.938,868.2180000000001,467.067,689.846C629.181,678.1400000000001,757.831,548.721,768.591,386.5480000000001C917.639,353.32100000000014,1023.764,221.1830000000001,1024,68.47000000000003C1024,68.47000000000003,1024,39.500000000000114,1024,39.500000000000114C1024,39.500000000000114,325.173,39.500000000000114,325.173,39.500000000000114M402.032,689.846C338.594,824.6450000000001,207.638,914.984,59.122,926.3360000000001C59.122,926.3360000000001,59.122,689.846,59.122,689.846C59.122,689.846,402.032,689.846,402.032,689.846M709.469,394.23400000000004C694.925,526.7270000000001,584.366,627.9450000000002,451.104,630.7240000000002C451.104,630.7240000000002,59.122,630.7240000000002,59.122,630.7240000000002C59.122,630.7240000000002,59.122,394.23400000000004,59.122,394.23400000000004C59.122,394.23400000000004,709.469,394.23400000000004,709.469,394.23400000000004M964.878,98.62200000000007C949.269,233.18500000000006,835.459,334.81600000000003,700.009,335.1120000000001C700.009,335.1120000000001,62.079,335.1120000000001,62.079,335.1120000000001C76.8,200.84500000000003,190.079,99.03600000000006,325.173,98.62200000000007C325.173,98.62200000000007,964.878,98.62200000000007,964.878,98.62200000000007" />
</svg>