<?xml version="1.0" encoding="utf-8"?>
<svg version="1.1" xmlns="http://www.w3.org/2000/svg" xmlns:xlink="http://www.w3.org/1999/xlink" x="0px" y="0px" viewBox="0 0 1024 1024" xml:space="preserve">
 <path d="M657.329,735.28125C560.888,735.28125,472.515,695.09725,400.183,622.76525C255.553,486.1712500000001,255.553,253.1042500000001,400.183,108.47325000000001C544.814,-36.15774999999985,769.845,-36.15774999999985,914.476,108.47325000000001C1059.106,253.1042500000001,1059.106,478.13525000000004,914.476,622.76525C842.144,695.09725,753.771,735.28125,657.329,735.28125C657.329,735.28125,657.329,735.28125,657.329,735.28125M657.329,84.39525000000003C584.998,84.39525000000003,512.699,108.50525000000005,456.441,164.76325000000008C343.926,277.27825000000007,343.926,454.0562500000001,456.441,566.54025C568.956,679.0232500000001,745.734,679.0552500000001,858.218,566.54025C970.701,454.02425000000005,970.733,277.24625000000003,858.218,164.76325000000008C801.96,108.50525000000005,729.629,84.39525000000003,657.329,84.39525000000003C657.329,84.39525000000003,657.329,84.39525000000003,657.329,84.39525000000003M1.5,967.1682500000001C1.5,967.1682500000001,268.565,700.1042500000001,268.565,700.1042500000001C268.565,700.1042500000001,325.396,756.93525,325.396,756.93525C325.396,756.93525,58.332,1024.00025,58.332,1024.00025C58.332,1024.00025,1.5,967.1682500000001,1.5,967.1682500000001C1.5,967.1682500000001,1.5,967.1682500000001,1.5,967.1682500000001" />
</svg>