<?xml version="1.0" encoding="utf-8"?>
<svg version="1.1" xmlns="http://www.w3.org/2000/svg" xmlns:xlink="http://www.w3.org/1999/xlink" x="0px" y="0px" viewBox="0 0 1024 1024" xml:space="preserve">
 <path d="M512.223,702.244C618.007,702.244,703.744,616.5070000000001,703.744,510.72299999999996C703.744,404.94000000000005,618.007,319.202,512.223,319.202C406.44,319.202,320.702,404.94000000000005,320.702,510.72299999999996C320.702,616.5070000000001,406.44,702.244,512.223,702.244C512.223,702.244,512.223,702.244,512.223,702.244M512.223,638.404C441.68,638.404,384.542,581.267,384.542,510.72299999999996C384.542,440.17999999999995,441.68,383.04200000000003,512.223,383.04200000000003C582.767,383.04200000000003,639.904,440.17999999999995,639.904,510.72299999999996C639.904,581.267,582.767,638.404,512.223,638.404C512.223,638.404,512.223,638.404,512.223,638.404M1022.946,427.731C1022.946,427.731,847.896,369.381,847.896,369.381C847.896,369.381,837.809,399.64099999999996,837.809,399.64099999999996C837.809,399.64099999999996,867.942,389.17100000000005,867.942,389.17100000000005C866.218,384.12800000000004,864.367,379.148,862.388,374.169C860.409,369.25300000000004,858.366,364.273,856.195,359.42100000000005C853.961,354.37800000000004,851.599,349.399,849.109,344.48299999999995C849.109,344.48299999999995,820.572,358.783,820.572,358.783C820.572,358.783,848.917,373.466,848.917,373.466C848.917,373.466,934.336,208.43899999999996,934.336,208.43899999999996C934.336,208.43899999999996,814.507,88.61000000000001,814.507,88.61000000000001C814.507,88.61000000000001,649.48,174.029,649.48,174.029C649.48,174.029,664.163,202.37400000000002,664.163,202.37400000000002C664.163,202.37400000000002,678.464,173.837,678.464,173.837C673.548,171.34799999999996,668.568,168.986,663.525,166.75099999999998C658.673,164.58100000000002,653.694,162.538,648.778,160.55899999999997C643.798,158.58000000000004,638.819,156.72799999999995,633.775,155.00400000000002C633.775,155.00400000000002,623.305,185.13699999999994,623.305,185.13699999999994C623.305,185.13699999999994,653.566,175.04999999999995,653.566,175.04999999999995C653.566,175.04999999999995,595.216,0,595.216,0C595.216,0,429.231,0,429.231,0C429.231,0,370.881,175.04999999999995,370.881,175.04999999999995C370.881,175.04999999999995,401.141,185.13699999999994,401.141,185.13699999999994C401.141,185.13699999999994,390.671,155.00400000000002,390.671,155.00400000000002C385.628,156.72799999999995,380.648,158.58000000000004,375.669,160.55899999999997C370.753,162.538,365.773,164.58100000000002,360.921,166.75099999999998C355.878,168.986,350.899,171.34799999999996,345.983,173.837C345.983,173.837,360.283,202.37400000000002,360.283,202.37400000000002C360.283,202.37400000000002,374.966,174.029,374.966,174.029C374.966,174.029,209.939,88.61000000000001,209.939,88.61000000000001C209.939,88.61000000000001,90.11,208.43899999999996,90.11,208.43899999999996C90.11,208.43899999999996,175.529,373.466,175.529,373.466C175.529,373.466,203.874,358.783,203.874,358.783C203.874,358.783,175.337,344.48299999999995,175.337,344.48299999999995C172.848,349.399,170.486,354.37800000000004,168.251,359.42100000000005C166.081,364.273,164.038,369.25300000000004,162.059,374.169C160.08,379.148,158.228,384.12800000000004,156.504,389.17100000000005C156.504,389.17100000000005,186.637,399.64099999999996,186.637,399.64099999999996C186.637,399.64099999999996,176.55,369.381,176.55,369.381C176.55,369.381,1.5,427.731,1.5,427.731C1.5,427.731,1.5,593.716,1.5,593.716C1.5,593.716,176.55,652.066,176.55,652.066C176.55,652.066,186.637,621.8050000000001,186.637,621.8050000000001C186.637,621.8050000000001,156.504,632.275,156.504,632.275C158.228,637.319,160.08,642.298,162.059,647.278C164.038,652.194,166.081,657.173,168.251,662.025C170.486,667.068,172.848,672.048,175.337,676.9639999999999C175.337,676.9639999999999,203.874,662.663,203.874,662.663C203.874,662.663,175.529,647.98,175.529,647.98C175.529,647.98,90.11,813.0070000000001,90.11,813.0070000000001C90.11,813.0070000000001,209.684,932.581,209.684,932.581C209.684,932.581,375.158,850.226,375.158,850.226C375.158,850.226,360.921,821.626,360.921,821.626C360.921,821.626,346.621,850.163,346.621,850.163C351.473,852.5889999999999,356.325,854.887,361.241,857.121C366.22,859.356,371.264,861.462,376.307,863.441C381.287,865.42,386.266,867.2719999999999,391.309,868.996C391.309,868.996,401.779,838.863,401.779,838.863C401.779,838.863,371.519,848.95,371.519,848.95C371.519,848.95,429.869,1024,429.869,1024C429.869,1024,595.854,1024,595.854,1024C595.854,1024,654.204,848.95,654.204,848.95C654.204,848.95,623.944,838.863,623.944,838.863C623.944,838.863,634.414,868.996,634.414,868.996C639.457,867.2719999999999,644.437,865.42,649.416,863.441C654.46,861.462,659.439,859.356,664.355,857.121C669.334,854.951,674.25,852.5889999999999,679.102,850.163C679.102,850.163,664.802,821.626,664.802,821.626C664.802,821.626,650.501,850.163,650.501,850.163C650.501,850.163,814.699,932.644,814.699,932.644C814.699,932.644,934.081,813.263,934.081,813.263C934.081,813.263,851.726,647.789,851.726,647.789C851.726,647.789,823.126,662.025,823.126,662.025C823.126,662.025,851.663,676.325,851.663,676.325C854.089,671.473,856.387,666.621,858.621,661.642C860.856,656.662,862.962,651.683,864.941,646.576C866.92,641.6600000000001,868.772,636.6800000000001,870.496,631.637C870.496,631.637,840.363,621.1669999999999,840.363,621.1669999999999C840.363,621.1669999999999,850.513,651.427,850.513,651.427C850.513,651.427,1022.946,593.716,1022.946,593.716C1022.946,593.716,1022.946,427.731,1022.946,427.731C1022.946,427.731,1022.946,427.731,1022.946,427.731M815.337,595.886C815.337,595.886,810.23,610.697,810.23,610.697C805.825,623.338,800.59,635.723,794.589,647.725C794.589,647.725,787.439,661.961,787.439,661.961C787.439,661.961,856.451,800.6220000000001,856.451,800.6220000000001C856.451,800.6220000000001,802.186,854.887,802.186,854.887C802.186,854.887,664.802,785.939,664.802,785.939C664.802,785.939,650.501,793.0889999999999,650.501,793.0889999999999C638.5,799.09,626.114,804.325,613.474,808.73C613.474,808.73,598.599,813.837,598.599,813.837C598.599,813.837,549.889,960.16,549.889,960.16C549.889,960.16,475.834,960.16,475.834,960.16C475.834,960.16,427.06,813.837,427.06,813.837C427.06,813.837,412.249,808.73,412.249,808.73C399.545,804.325,387.224,799.09,375.222,793.0889999999999C375.222,793.0889999999999,360.985,785.939,360.985,785.939C360.985,785.939,222.324,854.951,222.324,854.951C222.324,854.951,168.251,800.8779999999999,168.251,800.8779999999999C168.251,800.8779999999999,239.689,662.919,239.689,662.919C239.689,662.919,232.411,648.363,232.411,648.363C226.41,636.361,221.175,623.976,216.77,611.336C216.77,611.336,211.663,596.461,211.663,596.461C211.663,596.461,65.34,547.751,65.34,547.751C65.34,547.751,65.34,473.696,65.34,473.696C65.34,473.696,211.663,424.986,211.663,424.986C211.663,424.986,216.77,410.111,216.77,410.111C221.175,397.47,226.41,385.08500000000004,232.411,373.08299999999997C232.411,373.08299999999997,239.689,358.528,239.689,358.528C239.689,358.528,168.251,220.56899999999996,168.251,220.56899999999996C168.251,220.56899999999996,222.069,166.75099999999998,222.069,166.75099999999998C222.069,166.75099999999998,360.028,238.18899999999996,360.028,238.18899999999996C360.028,238.18899999999996,374.583,230.91099999999994,374.583,230.91099999999994C386.585,224.90999999999997,398.97,219.67499999999995,411.611,215.26999999999998C411.611,215.26999999999998,426.486,210.163,426.486,210.163C426.486,210.163,475.196,63.84000000000003,475.196,63.84000000000003C475.196,63.84000000000003,549.251,63.84000000000003,549.251,63.84000000000003C549.251,63.84000000000003,597.961,210.163,597.961,210.163C597.961,210.163,612.836,215.26999999999998,612.836,215.26999999999998C625.476,219.67499999999995,637.861,224.90999999999997,649.863,230.91099999999994C649.863,230.91099999999994,664.419,238.18899999999996,664.419,238.18899999999996C664.419,238.18899999999996,802.378,166.75099999999998,802.378,166.75099999999998C802.378,166.75099999999998,856.195,220.56899999999996,856.195,220.56899999999996C856.195,220.56899999999996,784.758,358.528,784.758,358.528C784.758,358.528,792.036,373.08299999999997,792.036,373.08299999999997C798.037,385.08500000000004,803.272,397.47,807.677,410.111C807.677,410.111,812.784,424.986,812.784,424.986C812.784,424.986,959.106,473.696,959.106,473.696C959.106,473.696,959.106,547.751,959.106,547.751C959.106,547.751,815.337,595.886,815.337,595.886C815.337,595.886,815.337,595.886,815.337,595.886" />
</svg>