<?xml version="1.0" encoding="utf-8"?>
<svg version="1.1" xmlns="http://www.w3.org/2000/svg" xmlns:xlink="http://www.w3.org/1999/xlink" x="0px" y="0px" viewBox="0 0 1024 1024" xml:space="preserve">
 <path d="M601.751,421.3917271528369C601.751,421.3917271528369,601.751,722.8237271528369,601.751,722.8237271528369C601.751,722.8237271528369,662.058,722.8237271528369,662.058,722.8237271528369C662.058,722.8237271528369,662.058,421.3917271528369,662.058,421.3917271528369C662.058,421.3917271528369,601.751,421.3917271528369,601.751,421.3917271528369M842.876,421.3917271528369C842.876,421.3917271528369,722.314,421.3917271528369,722.314,421.3917271528369C722.314,421.3917271528369,722.314,722.8237271528369,722.314,722.8237271528369C722.314,722.8237271528369,782.621,722.8237271528369,782.621,722.8237271528369C782.621,722.8237271528369,782.621,602.261727152837,782.621,602.261727152837C782.621,602.261727152837,842.876,602.261727152837,842.876,602.261727152837C876.174,602.261727152837,903.184,575.2517271528369,903.184,541.9537271528369C903.184,541.9537271528369,903.184,481.6987271528369,903.184,481.6987271528369C903.184,448.4007271528369,876.174,421.3917271528369,842.876,421.3917271528369C842.876,421.3917271528369,842.876,421.3917271528369,842.876,421.3917271528369C842.876,421.3917271528369,842.876,421.3917271528369,842.876,421.3917271528369M842.876,541.9537271528369C842.876,541.9537271528369,782.621,541.9537271528369,782.621,541.9537271528369C782.621,541.9537271528369,782.621,481.6987271528369,782.621,481.6987271528369C782.621,481.6987271528369,842.876,481.6987271528369,842.876,481.6987271528369C842.876,481.6987271528369,842.876,541.9537271528369,842.876,541.9537271528369C842.876,541.9537271528369,842.876,541.9537271528369,842.876,541.9537271528369M360.625,481.6987271528369C360.625,481.6987271528369,360.625,541.9537271528369,360.625,541.9537271528369C360.625,575.2517271528369,387.583,602.261727152837,420.881,602.261727152837C420.881,602.261727152837,481.188,602.261727152837,481.188,602.261727152837C481.188,602.261727152837,481.188,662.5167271528369,481.188,662.5167271528369C481.188,662.5167271528369,360.625,662.5167271528369,360.625,662.5167271528369C360.625,662.5167271528369,360.625,722.8237271528369,360.625,722.8237271528369C360.625,722.8237271528369,481.188,722.8237271528369,481.188,722.8237271528369C514.486,722.8237271528369,541.444,695.8147271528369,541.444,662.5167271528369C541.444,662.5167271528369,541.444,602.261727152837,541.444,602.261727152837C541.444,568.963727152837,514.486,541.9537271528369,481.188,541.9537271528369C481.188,541.9537271528369,420.881,541.9537271528369,420.881,541.9537271528369C420.881,541.9537271528369,420.881,481.6987271528369,420.881,481.6987271528369C420.881,481.6987271528369,541.444,481.6987271528369,541.444,481.6987271528369C541.444,481.6987271528369,541.444,421.3917271528369,541.444,421.3917271528369C541.444,421.3917271528369,420.881,421.3917271528369,420.881,421.3917271528369C387.583,421.3917271528369,360.625,448.4007271528369,360.625,481.6987271528369C360.625,481.6987271528369,360.625,481.6987271528369,360.625,481.6987271528369C360.625,481.6987271528369,360.625,481.6987271528369,360.625,481.6987271528369M903.184,59.651727152836884C877.308,59.80572715283688,852.154,68.25972715283694,831.434,83.77472715283693C617.06,-51.01527284716303,337.997,-19.624272847162956,158.931,159.44172715283696C-20.135,338.45572715283697,-51.525,617.569727152837,83.315,831.9437271528369C47.131,880.704727152837,52.852,948.743727152837,96.665,990.7527271528369C140.478,1032.761727152837,208.672,1035.6997271528369,255.887,997.556727152837C303.101,959.4137271528369,314.647,892.0967271528369,282.741,840.4487271528369C250.887,788.800727152837,185.58,768.8537271528369,130.324,793.955727152837C13.936,603.858727152837,43.007,358.7127271528369,200.631,201.08972715283699C358.254,43.46672715283694,603.349,14.395727152836912,793.445,130.83472715283688C771.539,179.59572715283696,784.373,236.96472715283699,824.939,271.7577271528369C865.505,306.5497271528369,924.162,310.51872715283696,969.006,281.3957271528369C1013.901,252.32472715283689,1034.21,197.17272715283696,1019.004,145.93672715283697C1003.799,94.64972715283693,956.635,59.54872715283693,903.184,59.651727152836884C903.184,59.651727152836884,903.184,59.651727152836884,903.184,59.651727152836884C903.184,59.651727152836884,903.184,59.651727152836884,903.184,59.651727152836884" />
</svg>