<?xml version="1.0" encoding="utf-8"?>
<svg version="1.1" xmlns="http://www.w3.org/2000/svg" xmlns:xlink="http://www.w3.org/1999/xlink" x="0px" y="0px" viewBox="0 0 1024 1024" xml:space="preserve">
 <path d="M128,896C128,896,128,640,128,640C128,640,0,640,0,640C0,640,0,0,0,0C0,0,1024,0,1024,0C1024,0,1024,640,1024,640C1024,640,441.6,640,441.6,640C441.6,640,128,896,128,896C128,896,128,896,128,896M64,576C64,576,192,576,192,576C192,576,192,761.6,192,761.6C192,761.6,416,576,416,576C416,576,960,576,960,576C960,576,960,64,960,64C960,64,64,64,64,64C64,64,64,576,64,576C64,576,64,576,64,576M192,192C192,192,192,256,192,256C192,256,832,256,832,256C832,256,832,192,832,192C832,192,192,192,192,192M192,384C192,384,192,448,192,448C192,448,640,448,640,448C640,448,640,384,640,384C640,384,192,384,192,384M441.6,1024" />
</svg>