<?xml version="1.0" encoding="utf-8"?>
<svg version="1.1" xmlns="http://www.w3.org/2000/svg" xmlns:xlink="http://www.w3.org/1999/xlink" x="0px" y="0px" viewBox="0 0 1024 1024" xml:space="preserve">
 <path d="M292.778,826.0740000000001C292.778,847.012,285.37,864.889,270.556,879.704C255.741,894.519,237.864,901.926,216.926,901.926C196.383,901.926,178.605,894.42,163.593,879.407C148.58,864.395,141.074,846.617,141.074,826.0740000000001C141.074,805.136,148.481,787.259,163.296,772.444C178.111,757.63,195.988,750.222,216.926,750.222C237.864,750.222,255.741,757.63,270.556,772.444C285.37,787.259,292.778,805.136,292.778,826.0740000000001C292.778,826.0740000000001,292.778,826.0740000000001,292.778,826.0740000000001M587.889,948.148C587.889,969.086,580.481,986.963,565.667,1001.778C550.852,1016.593,532.975,1024,512.037,1024C491.099,1024,473.222,1016.593,458.407,1001.778C443.593,986.963,436.185,969.086,436.185,948.148C436.185,927.21,443.593,909.333,458.407,894.519C473.222,879.704,491.099,872.296,512.037,872.296C532.975,872.296,550.852,879.704,565.667,894.519C580.481,909.333,587.889,927.21,587.889,948.148C587.889,948.148,587.889,948.148,587.889,948.148M170.704,530.963C170.704,551.9010000000001,163.296,569.778,148.481,584.5930000000001C133.667,599.4069999999999,115.79,606.815,94.852,606.815C73.914,606.815,56.037,599.4069999999999,41.222,584.5930000000001C26.407,569.778,19,551.9010000000001,19,530.963C19,510.025,26.407,492.148,41.222,477.33299999999997C56.037,462.519,73.914,455.111,94.852,455.111C115.79,455.111,133.667,462.519,148.481,477.33299999999997C163.296,492.148,170.704,510.025,170.704,530.963C170.704,530.963,170.704,530.963,170.704,530.963M883,826.0740000000001C883,846.617,875.494,864.395,860.481,879.407C845.469,894.42,827.692,901.926,807.148,901.926C786.21,901.926,768.333,894.519,753.519,879.704C738.704,864.889,731.296,847.012,731.296,826.0740000000001C731.296,805.136,738.704,787.259,753.519,772.444C768.333,757.63,786.21,750.222,807.148,750.222C828.086,750.222,845.963,757.63,860.778,772.444C875.593,787.259,883,805.136,883,826.0740000000001C883,826.0740000000001,883,826.0740000000001,883,826.0740000000001M311.741,235.85199999999998C311.741,261.92600000000004,302.457,284.24699999999996,283.889,302.81500000000005C265.321,321.38300000000004,243,330.66700000000003,216.926,330.66700000000003C190.852,330.66700000000003,168.531,321.38300000000004,149.963,302.81500000000005C131.395,284.24699999999996,122.111,261.92600000000004,122.111,235.85199999999998C122.111,209.77800000000002,131.395,187.457,149.963,168.889C168.531,150.32100000000003,190.852,141.03700000000003,216.926,141.03700000000003C243,141.03700000000003,265.321,150.32100000000003,283.889,168.889C302.457,187.457,311.741,209.77800000000002,311.741,235.85199999999998C311.741,235.85199999999998,311.741,235.85199999999998,311.741,235.85199999999998M1005.074,530.963C1005.074,551.9010000000001,997.667,569.778,982.852,584.5930000000001C968.037,599.4069999999999,950.16,606.815,929.222,606.815C908.284,606.815,890.407,599.4069999999999,875.593,584.5930000000001C860.778,569.778,853.37,551.9010000000001,853.37,530.963C853.37,510.025,860.778,492.148,875.593,477.33299999999997C890.407,462.519,908.284,455.111,929.222,455.111C950.16,455.111,968.037,462.519,982.852,477.33299999999997C997.667,492.148,1005.074,510.025,1005.074,530.963C1005.074,530.963,1005.074,530.963,1005.074,530.963M625.815,113.77800000000002C625.815,145.38300000000004,614.753,172.24699999999996,592.63,194.37C570.506,216.49400000000003,543.642,227.55600000000004,512.037,227.55600000000004C480.432,227.55600000000004,453.568,216.49400000000003,431.444,194.37C409.321,172.24699999999996,398.259,145.38300000000004,398.259,113.77800000000002C398.259,82.173,409.321,55.30799999999999,431.444,33.184999999999945C453.568,11.062000000000012,480.432,0,512.037,0C543.642,0,570.506,11.062000000000012,592.63,33.184999999999945C614.753,55.30799999999999,625.815,82.173,625.815,113.77800000000002C625.815,113.77800000000002,625.815,113.77800000000002,625.815,113.77800000000002M939.889,235.85199999999998C939.889,272.59299999999996,926.852,303.90099999999995,900.778,329.778C874.704,355.655,843.494,368.59299999999996,807.148,368.59299999999996C770.407,368.59299999999996,739.099,355.655,713.222,329.778C687.345,303.90099999999995,674.407,272.59299999999996,674.407,235.85199999999998C674.407,199.50599999999997,687.345,168.29600000000005,713.222,142.22199999999998C739.099,116.14800000000002,770.407,103.11099999999999,807.148,103.11099999999999C843.494,103.11099999999999,874.704,116.14800000000002,900.778,142.22199999999998C926.852,168.29600000000005,939.889,199.50599999999997,939.889,235.85199999999998C939.889,235.85199999999998,939.889,235.85199999999998,939.889,235.85199999999998" />
</svg>