<?xml version="1.0" encoding="utf-8"?>
<svg version="1.1" xmlns="http://www.w3.org/2000/svg" xmlns:xlink="http://www.w3.org/1999/xlink" x="0px" y="0px" viewBox="0 0 1024 1024" xml:space="preserve">
 <path d="M544,0C544,0,544,192,544,192C544,192,96,192,96,192C60.672,192,32,220.67200000000003,32,256C32,256,32,384,32,384C32,419.328,60.672,448,96,448C96,448,288,448,288,448C288,448,288,640,288,640C288,640,928,640,928,640C928,640,928,768,928,768C928,768,32,768,32,768C32,768,32,1024,32,1024C32,1024,480,1024,480,1024C480,1024,480,832,480,832C480,832,928,832,928,832C963.328,832,992,803.328,992,768C992,768,992,640,992,640C992,604.672,963.328,576,928,576C928,576,736,576,736,576C736,576,736,384,736,384C736,384,96,384,96,384C96,384,96,256,96,256C96,256,992,256,992,256C992,256,992,0,992,0C992,0,544,0,544,0M416,960C416,960,96,960,96,960C96,960,96,832,96,832C96,832,416,832,416,832C416,832,416,960,416,960M672,448C672,448,672,576,672,576C672,576,352,576,352,576C352,576,352,448,352,448C352,448,672,448,672,448M928,192C928,192,608,192,608,192C608,192,608,64,608,64C608,64,928,64,928,64C928,64,928,192,928,192" />
</svg>