<?xml version="1.0" encoding="utf-8"?>
<svg version="1.1" xmlns="http://www.w3.org/2000/svg" xmlns:xlink="http://www.w3.org/1999/xlink" x="0px" y="0px" viewBox="0 0 1024 1024" xml:space="preserve">
 <path d="M1,512C1,905.576,427.06,1151.522,767.861,954.734C926.154,863.419,1023.605,694.631,1023.605,512C1023.605,118.42399999999998,597.421,-127.52199999999993,256.62,69.26599999999996C98.45,160.58100000000002,1,329.369,1,512M409.992,795.149C409.992,795.149,166.17,551.326,166.17,551.326C166.17,551.326,276.283,441.21299999999997,276.283,441.21299999999997C276.283,441.21299999999997,394.262,559.191,394.262,559.191C394.262,559.191,701.006,205.25599999999997,701.006,205.25599999999997C701.006,205.25599999999997,818.985,307.504,818.985,307.504C818.985,307.504,409.992,795.149,409.992,795.149" />
</svg>