<?xml version="1.0" encoding="utf-8"?>
<svg version="1.1" xmlns="http://www.w3.org/2000/svg" xmlns:xlink="http://www.w3.org/1999/xlink" x="0px" y="0px" viewBox="0 0 1024 1024" xml:space="preserve">
 <path d="M455.111,967.111C455.111,967.111,420.978,961.422,420.978,961.422C238.933,927.289,102.4,785.067,68.267,608.711C68.267,608.711,56.889,568.889,56.889,568.889C56.889,568.889,347.022,568.889,347.022,568.889C347.022,568.889,352.711,585.956,352.711,585.956C369.778,620.0889999999999,398.222,648.533,432.356,665.6C432.356,665.6,455.111,671.289,455.111,671.289C455.111,671.289,455.111,967.111,455.111,967.111C455.111,967.111,455.111,967.111,455.111,967.111M130.844,625.778C170.667,756.6220000000001,267.378,853.333,398.222,893.156C398.222,893.156,398.222,705.422,398.222,705.422C364.089,682.6669999999999,335.644,654.222,312.889,620.0889999999999C312.889,620.0889999999999,130.844,620.0889999999999,130.844,620.0889999999999C130.844,620.0889999999999,130.844,625.778,130.844,625.778M568.889,967.111C568.889,967.111,568.889,676.9780000000001,568.889,676.9780000000001C568.889,676.9780000000001,585.956,671.289,585.956,671.289C620.089,654.222,648.533,625.778,665.6,591.644C665.6,591.644,671.289,574.578,671.289,574.578C671.289,574.578,967.111,574.578,967.111,574.578C967.111,574.578,961.422,608.711,961.422,608.711C927.289,790.756,785.067,927.289,608.711,961.422C608.711,961.422,568.889,967.111,568.889,967.111C568.889,967.111,568.889,967.111,568.889,967.111M625.778,711.111C625.778,711.111,625.778,898.844,625.778,898.844C756.622,859.0219999999999,853.333,762.3109999999999,893.156,631.467C893.156,631.467,705.422,631.467,705.422,631.467C688.356,659.9110000000001,659.911,688.356,625.778,711.111C625.778,711.111,625.778,711.111,625.778,711.111M967.111,455.111C967.111,455.111,676.978,455.111,676.978,455.111C676.978,455.111,671.289,438.044,671.289,438.044C654.222,403.91099999999994,625.778,375.467,591.644,358.4C591.644,358.4,568.889,352.711,568.889,352.711C568.889,352.711,568.889,56.88900000000001,568.889,56.88900000000001C568.889,56.88900000000001,603.022,62.577999999999975,603.022,62.577999999999975C785.067,96.71100000000001,921.6,238.933,955.733,415.289C955.733,415.289,967.111,455.111,967.111,455.111C967.111,455.111,967.111,455.111,967.111,455.111M711.111,398.222C711.111,398.222,898.844,398.222,898.844,398.222C853.333,267.37800000000004,756.622,170.66700000000003,625.778,130.84400000000005C625.778,130.84400000000005,625.778,318.578,625.778,318.578C659.911,335.644,688.356,364.08900000000006,711.111,398.222C711.111,398.222,711.111,398.222,711.111,398.222M352.711,455.111C352.711,455.111,56.889,455.111,56.889,455.111C56.889,455.111,62.578,420.97799999999995,62.578,420.97799999999995C96.711,238.933,238.933,102.39999999999998,415.289,68.26700000000005C415.289,68.26700000000005,455.111,56.88900000000001,455.111,56.88900000000001C455.111,56.88900000000001,455.111,347.02200000000005,455.111,347.02200000000005C455.111,347.02200000000005,438.044,358.4,438.044,358.4C403.911,375.467,375.467,403.91099999999994,358.4,438.044C358.4,438.044,352.711,455.111,352.711,455.111C352.711,455.111,352.711,455.111,352.711,455.111M130.844,398.222C130.844,398.222,318.578,398.222,318.578,398.222C335.644,364.08900000000006,364.089,335.644,398.222,312.889C398.222,312.889,398.222,130.84400000000005,398.222,130.84400000000005C267.378,170.66700000000003,170.667,267.37800000000004,130.844,398.222C130.844,398.222,130.844,398.222,130.844,398.222M426.667,329.956C426.667,329.956,426.667,329.956,426.667,329.956C426.667,329.956,426.667,329.956,426.667,329.956C426.667,329.956,426.667,329.956,426.667,329.956M625.778,1024C625.778,1024,398.222,1024,398.222,1024C398.222,1024,398.222,648.533,398.222,648.533C398.222,648.533,438.044,665.6,438.044,665.6C483.556,688.356,540.444,688.356,585.956,665.6C585.956,665.6,625.778,648.533,625.778,648.533C625.778,648.533,625.778,1024,625.778,1024C625.778,1024,625.778,1024,625.778,1024M455.111,967.111C455.111,967.111,568.889,967.111,568.889,967.111C568.889,967.111,568.889,733.867,568.889,733.867C529.067,745.244,494.933,745.244,455.111,733.867C455.111,733.867,455.111,967.111,455.111,967.111C455.111,967.111,455.111,967.111,455.111,967.111M625.778,375.467C625.778,375.467,585.956,358.4,585.956,358.4C540.444,335.644,483.556,335.644,438.044,358.4C438.044,358.4,398.222,375.467,398.222,375.467C398.222,375.467,398.222,0,398.222,0C398.222,0,625.778,0,625.778,0C625.778,0,625.778,375.467,625.778,375.467C625.778,375.467,625.778,375.467,625.778,375.467M512,284.44399999999996C529.067,284.44399999999996,551.822,284.44399999999996,568.889,290.13300000000004C568.889,290.13300000000004,568.889,56.88900000000001,568.889,56.88900000000001C568.889,56.88900000000001,455.111,56.88900000000001,455.111,56.88900000000001C455.111,56.88900000000001,455.111,290.13300000000004,455.111,290.13300000000004C472.178,284.44399999999996,494.933,284.44399999999996,512,284.44399999999996C512,284.44399999999996,512,284.44399999999996,512,284.44399999999996M375.467,625.778C375.467,625.778,0,625.778,0,625.778C0,625.778,0,398.222,0,398.222C0,398.222,375.467,398.222,375.467,398.222C375.467,398.222,358.4,438.044,358.4,438.044C347.022,460.79999999999995,341.333,489.244,341.333,512C341.333,534.756,347.022,563.2,358.4,585.956C358.4,585.956,375.467,625.778,375.467,625.778C375.467,625.778,375.467,625.778,375.467,625.778M56.889,568.889C56.889,568.889,290.133,568.889,290.133,568.889C284.444,551.822,284.444,529.067,284.444,512C284.444,494.933,284.444,472.178,290.133,455.111C290.133,455.111,56.889,455.111,56.889,455.111C56.889,455.111,56.889,568.889,56.889,568.889C56.889,568.889,56.889,568.889,56.889,568.889M1024,625.778C1024,625.778,648.533,625.778,648.533,625.778C648.533,625.778,665.6,585.956,665.6,585.956C676.978,563.2,682.667,540.444,682.667,512C682.667,483.55600000000004,676.978,460.79999999999995,665.6,438.044C665.6,438.044,648.533,398.222,648.533,398.222C648.533,398.222,1024,398.222,1024,398.222C1024,398.222,1024,625.778,1024,625.778C1024,625.778,1024,625.778,1024,625.778M733.867,568.889C733.867,568.889,967.111,568.889,967.111,568.889C967.111,568.889,967.111,455.111,967.111,455.111C967.111,455.111,733.867,455.111,733.867,455.111C739.556,472.178,739.556,494.933,739.556,512C739.556,529.067,739.556,551.822,733.867,568.889C733.867,568.889,733.867,568.889,733.867,568.889" />
</svg>