<?xml version="1.0" encoding="utf-8"?>
<svg version="1.1" xmlns="http://www.w3.org/2000/svg" xmlns:xlink="http://www.w3.org/1999/xlink" x="0px" y="0px" viewBox="0 0 1024 1024" xml:space="preserve">
 <path d="M512,0C229.222,0,0,229.22199999999998,0,512C0,794.778,229.222,1024,512,1024C794.778,1024,1024,794.778,1024,512C1024,376.21799999999996,970.035,245.96500000000003,874.035,149.96500000000003C778.035,53.96500000000003,647.782,0,512,0C512,0,512,0,512,0C512,0,512,0,512,0M969.728,460.79999999999995C969.728,460.79999999999995,764.928,460.79999999999995,764.928,460.79999999999995C744.141,359.629,664.576,280.88300000000004,563.2,261.12C563.2,261.12,563.2,56.32000000000005,563.2,56.32000000000005C776.294,80.12800000000004,944.845,247.808,969.728,460.79999999999995C969.728,460.79999999999995,969.728,460.79999999999995,969.728,460.79999999999995C969.728,460.79999999999995,969.728,460.79999999999995,969.728,460.79999999999995M512,716.8C398.899,716.8,307.2,625.101,307.2,512C307.2,398.899,398.899,307.20000000000005,512,307.20000000000005C625.101,307.20000000000005,716.8,398.899,716.8,512C716.8,566.323,695.245,618.394,656.794,656.794C618.394,695.245,566.323,716.8,512,716.8C512,716.8,512,716.8,512,716.8C512,716.8,512,716.8,512,716.8M460.8,54.27200000000005C460.8,54.27200000000005,460.8,259.072,460.8,259.072C359.629,279.85900000000004,280.883,359.424,261.12,460.79999999999995C261.12,460.79999999999995,56.32,460.79999999999995,56.32,460.79999999999995C80.128,247.70600000000002,247.808,79.15499999999997,460.8,54.27200000000005C460.8,54.27200000000005,460.8,54.27200000000005,460.8,54.27200000000005C460.8,54.27200000000005,460.8,54.27200000000005,460.8,54.27200000000005M54.272,563.2C54.272,563.2,259.072,563.2,259.072,563.2C279.859,664.371,359.424,743.117,460.8,762.88C460.8,762.88,460.8,967.68,460.8,967.68C247.706,943.872,79.155,776.192,54.272,563.2C54.272,563.2,54.272,563.2,54.272,563.2C54.272,563.2,54.272,563.2,54.272,563.2M563.2,969.728C563.2,969.728,563.2,764.928,563.2,764.928C664.371,744.1410000000001,743.117,664.576,762.88,563.2C762.88,563.2,967.68,563.2,967.68,563.2C943.872,776.294,776.192,944.845,563.2,969.728C563.2,969.728,563.2,969.728,563.2,969.728C563.2,969.728,563.2,969.728,563.2,969.728" />
</svg>