<?xml version="1.0" encoding="utf-8"?>
<svg version="1.1" xmlns="http://www.w3.org/2000/svg" xmlns:xlink="http://www.w3.org/1999/xlink" x="0px" y="0px" viewBox="0 0 1024 1024" xml:space="preserve">
 <path d="M511.999,51.32608381199577C615.069,51.32608381199577,715.048,86.19708381199575,795.814,150.22308381199582C795.814,150.22308381199582,795.814,150.22308381199582,795.814,150.22308381199582C795.814,150.22308381199582,692.796,253.24108381199574,692.796,253.24108381199574C692.796,253.24108381199574,924.071,253.24108381199574,924.071,253.24108381199574C924.071,253.24108381199574,924.071,21.451083811995773,924.071,21.451083811995773C924.071,21.451083811995773,832.385,113.13708381199581,832.385,113.13708381199581C678.992,-9.917916188004256,468.732,-34.23091618800413,291.283,50.50208381199582C113.886,135.28508381199583,0.67,314.1760838119958,0,510.7860838119958C0,510.7860838119958,51.509,510.7860838119958,51.509,510.7860838119958C52.076,256.84708381199584,258.06,51.32608381199577,511.999,51.32608381199577C511.999,51.32608381199577,511.999,51.32608381199577,511.999,51.32608381199577C511.999,51.32608381199577,511.999,51.32608381199577,511.999,51.32608381199577M972.49,510.7860838119958C972.438,687.1010838119957,871.532,847.8610838119957,712.833,924.6610838119958C554.082,1001.4610838119958,365.456,980.7540838119958,227.155,871.3490838119958C227.155,871.3490838119958,230.245,871.3490838119958,230.245,871.3490838119958C230.245,871.3490838119958,333.263,768.3310838119958,333.263,768.3310838119958C333.263,768.3310838119958,99.927,768.3310838119958,99.927,768.3310838119958C99.927,768.3310838119958,99.927,1000.1220838119958,99.927,1000.1220838119958C99.927,1000.1220838119958,190.068,909.9810838119957,190.068,909.9810838119957C343.617,1034.1690838119957,554.906,1058.9450838119958,733.076,973.6460838119958C911.194,888.3990838119958,1024.411,708.2720838119958,1023.999,510.7860838119958C1023.999,510.7860838119958,972.49,510.7860838119958,972.49,510.7860838119958C972.49,510.7860838119958,972.49,510.7860838119958,972.49,510.7860838119958M511.999,304.75008381199575C398.216,304.75008381199575,305.963,397.0030838119958,305.963,510.7860838119958C305.963,510.7860838119958,357.472,510.7860838119958,357.472,510.7860838119958C357.472,425.4360838119958,426.649,356.25908381199577,511.999,356.25908381199577C511.999,356.25908381199577,511.999,304.75008381199575,511.999,304.75008381199575C511.999,304.75008381199575,511.999,304.75008381199575,511.999,304.75008381199575M718.035,510.7860838119958C718.035,510.7860838119958,666.526,510.7860838119958,666.526,510.7860838119958C666.526,596.1360838119958,597.35,665.3130838119957,511.999,665.3130838119957C511.999,665.3130838119957,511.999,716.8220838119958,511.999,716.8220838119958C625.783,716.8220838119958,718.035,624.5690838119958,718.035,510.7860838119958C718.035,510.7860838119958,718.035,510.7860838119958,718.035,510.7860838119958C718.035,510.7860838119958,718.035,510.7860838119958,718.035,510.7860838119958" />
</svg>