<?xml version="1.0" encoding="UTF-8"?>
<svg width="16px" height="16px" viewBox="0 0 16 16" version="1.1" xmlns="http://www.w3.org/2000/svg" xmlns:xlink="http://www.w3.org/1999/xlink">
    <!-- Generator: Sketch 52.2 (67145) - http://www.bohemiancoding.com/sketch -->
    <title>table-view</title>
    <desc>Created with Sketch.</desc>
    <g id="table-view" stroke="none" stroke-width="1" fill="none" fill-rule="evenodd">
        <path d="M8,4 L8,2 L2,2 L2,4 L8,4 Z M9,1 L16,1 L16,5 L9,5 L1,5 L1,1 L9,1 Z M9,2 L9,4 L15,4 L15,2 L9,2 Z M8,9 L8,7 L2,7 L2,9 L8,9 Z M9,6 L16,6 L16,10 L9,10 L1,10 L1,6 L9,6 Z M9,7 L9,9 L15,9 L15,7 L9,7 Z M8,14 L8,12 L2,12 L2,14 L8,14 Z M9,11 L16,11 L16,15 L9,15 L1,15 L1,11 L9,11 Z M9,12 L9,14 L15,14 L15,12 L9,12 Z" id="Combined-Shape" fill="#666666" fill-rule="nonzero"></path>
    </g>
</svg>