<?xml version="1.0" encoding="utf-8"?>
<svg version="1.1" xmlns="http://www.w3.org/2000/svg" xmlns:xlink="http://www.w3.org/1999/xlink" x="0px" y="0px" viewBox="0 0 1024 1024" xml:space="preserve">
 <path d="M104.898,559.483C104.898,559.483,24.976,559.483,24.976,559.483C9.99,559.483,0,549.4929999999999,0,534.508C0,519.5219999999999,14.985,509.5319999999999,24.976,509.5319999999999C24.976,509.5319999999999,99.902,509.5319999999999,99.902,509.5319999999999C114.888,509.5319999999999,124.878,519.5219999999999,124.878,534.508C124.878,549.4929999999999,114.888,559.483,104.898,559.483C104.898,559.483,104.898,559.483,104.898,559.483M189.815,259.77599999999995C184.82,259.77599999999995,179.824,259.77599999999995,174.829,254.78099999999995C174.829,254.78099999999995,109.893,189.84399999999994,109.893,189.84399999999994C99.902,179.85399999999993,99.902,164.86899999999991,109.893,154.87900000000002C119.883,144.88799999999992,134.868,144.88799999999992,144.859,154.87900000000002C144.859,154.87900000000002,209.795,219.81499999999994,209.795,219.81499999999994C219.785,229.80499999999995,219.785,244.79099999999994,209.795,254.78099999999995C204.8,259.77599999999995,199.805,259.77599999999995,189.815,259.77599999999995C189.815,259.77599999999995,189.815,259.77599999999995,189.815,259.77599999999995M539.473,169.86399999999992C524.488,169.86399999999992,514.498,159.87400000000002,514.498,144.88799999999992C514.498,144.88799999999992,514.498,54.976,514.498,54.976C514.498,39.990999999999985,524.488,30,539.473,30C554.459,30,564.449,44.98599999999999,564.449,54.976C564.449,54.976,564.449,139.89299999999992,564.449,139.89299999999992C564.449,159.87400000000002,554.459,169.86399999999992,539.473,169.86399999999992C539.473,169.86399999999992,539.473,169.86399999999992,539.473,169.86399999999992M834.185,264.77099999999996C829.19,264.77099999999996,819.2,264.77099999999996,814.205,259.77599999999995C804.215,249.78599999999994,804.215,234.79999999999995,814.205,224.80999999999995C814.205,224.80999999999995,884.137,154.87900000000002,884.137,154.87900000000002C894.127,144.88799999999992,909.112,144.88799999999992,919.102,154.87900000000002C929.093,164.86899999999991,929.093,179.85399999999993,919.102,189.84399999999994C919.102,189.84399999999994,849.171,259.77599999999995,849.171,259.77599999999995C844.176,264.77099999999996,839.18,264.77099999999996,834.185,264.77099999999996C834.185,264.77099999999996,834.185,264.77099999999996,834.185,264.77099999999996M1004.02,559.483C1004.02,559.483,929.093,559.483,929.093,559.483C914.107,559.483,904.117,549.4929999999999,904.117,534.508C904.117,519.5219999999999,914.107,509.5319999999999,924.098,509.5319999999999C924.098,509.5319999999999,999.024,509.5319999999999,999.024,509.5319999999999C1014.01,509.5319999999999,1024,519.5219999999999,1024,534.508C1024,549.4929999999999,1014.01,559.483,1004.02,559.483C1004.02,559.483,1004.02,559.483,1004.02,559.483M764.254,994.059C764.254,994.059,619.395,849.1999999999999,619.395,849.1999999999999C594.42,854.1959999999999,564.449,859.191,539.473,859.191C359.649,859.191,214.79,714.332,214.79,534.508C214.79,354.683,359.649,209.82499999999993,539.473,209.82499999999993C719.298,209.82499999999993,864.156,354.683,864.156,534.508C864.156,624.42,829.19,709.337,764.254,769.279C764.254,769.279,764.254,994.059,764.254,994.059C764.254,994.059,764.254,994.059,764.254,994.059M634.38,794.2539999999999C634.38,794.2539999999999,714.302,874.1759999999999,714.302,874.1759999999999C714.302,874.1759999999999,714.302,744.303,714.302,744.303C714.302,744.303,724.293,739.308,724.293,739.308C784.234,689.357,814.205,614.43,814.205,534.508C814.205,384.654,689.327,259.77599999999995,539.473,259.77599999999995C389.62,259.77599999999995,264.741,384.654,264.741,534.508C264.741,684.361,389.62,809.239,539.473,809.239C564.449,809.239,594.42,804.2439999999999,619.395,799.249C619.395,799.249,634.38,794.2539999999999,634.38,794.2539999999999C634.38,794.2539999999999,634.38,794.2539999999999,634.38,794.2539999999999" />
</svg>