<?xml version="1.0" encoding="utf-8"?>
<svg version="1.1" xmlns="http://www.w3.org/2000/svg" xmlns:xlink="http://www.w3.org/1999/xlink" x="0px" y="0px" viewBox="0 0 1024 1024" xml:space="preserve">
 <path d="M853.85,711.3829999999999C853.85,711.3829999999999,740.084,711.3829999999999,740.084,711.3829999999999C740.084,711.3829999999999,515.93,512.2669999999999,515.93,512.2669999999999C515.93,512.2669999999999,740.084,313.14999999999986,740.084,313.14999999999986C740.084,313.14999999999986,853.85,313.14999999999986,853.85,313.14999999999986C853.85,313.14999999999986,853.85,426.91599999999994,853.85,426.91599999999994C853.85,426.91599999999994,1024.5,284.7339999999999,1024.5,284.7339999999999C1024.5,284.7339999999999,853.85,142.4999999999999,853.85,142.4999999999999C853.85,142.4999999999999,853.85,256.26699999999994,853.85,256.26699999999994C853.85,256.26699999999994,732.66,256.26699999999994,732.66,256.26699999999994C732.66,256.26699999999994,484.084,480.41999999999985,484.084,480.41999999999985C484.084,480.41999999999985,235.457,256.26699999999994,235.457,256.26699999999994C235.457,256.26699999999994,0.5,256.26699999999994,0.5,256.26699999999994C0.5,256.26699999999994,0.5,313.14999999999986,0.5,313.14999999999986C0.5,313.14999999999986,228.084,313.14999999999986,228.084,313.14999999999986C228.084,313.14999999999986,451.623,512.2669999999999,451.623,512.2669999999999C451.623,512.2669999999999,228.084,711.3829999999999,228.084,711.3829999999999C228.084,711.3829999999999,0.5,711.3829999999999,0.5,711.3829999999999C0.5,711.3829999999999,0.5,768.2669999999998,0.5,768.2669999999998C0.5,768.2669999999998,235.457,768.2669999999998,235.457,768.2669999999998C235.457,768.2669999999998,484.084,544.1129999999998,484.084,544.1129999999998C484.084,544.1129999999998,732.66,768.2669999999998,732.66,768.2669999999998C732.66,768.2669999999998,853.85,768.2669999999998,853.85,768.2669999999998C853.85,768.2669999999998,853.85,882.0329999999999,853.85,882.0329999999999C853.85,882.0329999999999,1024.5,739.8509999999999,1024.5,739.8509999999999C1024.5,739.8509999999999,853.85,597.617,853.85,597.617C853.85,597.617,853.85,711.3829999999999,853.85,711.3829999999999" />
</svg>