<?xml version="1.0" encoding="utf-8"?>
<svg version="1.1" xmlns="http://www.w3.org/2000/svg" xmlns:xlink="http://www.w3.org/1999/xlink" x="0px" y="0px" viewBox="0 0 1024 1024" xml:space="preserve">
 <path d="M26.256,26.755999999999972C26.256,26.755999999999972,26.256,446.85900000000004,26.256,446.85900000000004C26.256,446.85900000000004,446.359,446.85900000000004,446.359,446.85900000000004C446.359,446.85900000000004,446.359,26.755999999999972,446.359,26.755999999999972C446.359,26.755999999999972,26.256,26.755999999999972,26.256,26.755999999999972C26.256,26.755999999999972,26.256,26.755999999999972,26.256,26.755999999999972M472.615,0.5C472.615,0.5,472.615,473.115,472.615,473.115C472.615,473.115,0,473.115,0,473.115C0,473.115,0,0.5,0,0.5C0,0.5,472.615,0.5,472.615,0.5C472.615,0.5,472.615,0.5,472.615,0.5M577.641,26.755999999999972C577.641,26.755999999999972,577.641,446.85900000000004,577.641,446.85900000000004C577.641,446.85900000000004,997.744,446.85900000000004,997.744,446.85900000000004C997.744,446.85900000000004,997.744,26.755999999999972,997.744,26.755999999999972C997.744,26.755999999999972,577.641,26.755999999999972,577.641,26.755999999999972C577.641,26.755999999999972,577.641,26.755999999999972,577.641,26.755999999999972M1024,0.5C1024,0.5,1024,473.115,1024,473.115C1024,473.115,551.385,473.115,551.385,473.115C551.385,473.115,551.385,0.5,551.385,0.5C551.385,0.5,1024,0.5,1024,0.5C1024,0.5,1024,0.5,1024,0.5M26.256,578.1410000000001C26.256,578.1410000000001,26.256,998.244,26.256,998.244C26.256,998.244,446.359,998.244,446.359,998.244C446.359,998.244,446.359,578.1410000000001,446.359,578.1410000000001C446.359,578.1410000000001,26.256,578.1410000000001,26.256,578.1410000000001C26.256,578.1410000000001,26.256,578.1410000000001,26.256,578.1410000000001M472.615,551.885C472.615,551.885,472.615,1024.5,472.615,1024.5C472.615,1024.5,0,1024.5,0,1024.5C0,1024.5,0,551.885,0,551.885C0,551.885,472.615,551.885,472.615,551.885C472.615,551.885,472.615,551.885,472.615,551.885M577.641,578.1410000000001C577.641,578.1410000000001,577.641,998.244,577.641,998.244C577.641,998.244,997.744,998.244,997.744,998.244C997.744,998.244,997.744,578.1410000000001,997.744,578.1410000000001C997.744,578.1410000000001,577.641,578.1410000000001,577.641,578.1410000000001C577.641,578.1410000000001,577.641,578.1410000000001,577.641,578.1410000000001M1024,551.885C1024,551.885,1024,1024.5,1024,1024.5C1024,1024.5,551.385,1024.5,551.385,1024.5C551.385,1024.5,551.385,551.885,551.385,551.885C551.385,551.885,1024,551.885,1024,551.885C1024,551.885,1024,551.885,1024,551.885" />
</svg>