<?xml version="1.0" encoding="utf-8"?>
<svg version="1.1" xmlns="http://www.w3.org/2000/svg" xmlns:xlink="http://www.w3.org/1999/xlink" x="0px" y="0px" viewBox="0 0 1024 1024" xml:space="preserve">
 <path d="M453.386,453.00199999999995C453.386,453.00199999999995,453.386,177.30999999999995,453.386,177.30999999999995C453.386,171.55899999999997,451.574,166.83299999999997,447.872,163.13099999999997C444.17,159.42899999999997,439.444,157.538,433.693,157.61699999999996C427.943,157.69600000000003,423.217,159.50800000000004,419.515,163.13099999999997C415.813,166.75400000000002,414.001,171.481,414.001,177.30999999999995C414.001,177.30999999999995,414.001,453.00199999999995,414.001,453.00199999999995C414.001,458.75199999999995,415.813,463.47799999999995,419.515,467.17999999999995C423.217,470.88199999999995,427.943,472.773,433.693,472.69399999999996C439.444,472.615,444.17,470.804,447.872,467.17999999999995C451.574,463.557,453.386,458.831,453.386,453.00199999999995C453.386,453.00199999999995,453.386,453.00199999999995,453.386,453.00199999999995M866.924,669.617C866.924,680.251,863.065,689.546,855.266,697.344C847.468,705.142,838.252,709.081,827.54,709.002C827.54,709.002,563.505,709.002,563.505,709.002C563.505,709.002,532.155,1006.198,532.155,1006.198C531.289,1011.161,529.162,1015.335,525.696,1018.801C522.23,1022.267,518.055,1024,513.093,1024C513.093,1024,512.463,1024,512.463,1024C501.356,1024,494.818,1018.486,492.77,1007.38C492.77,1007.38,445.981,708.923,445.981,708.923C445.981,708.923,197.386,708.923,197.386,708.923C186.752,708.923,177.457,705.063,169.659,697.265C161.861,689.467,157.922,680.251,158.001,669.538C158.001,619.047,174.07,573.6759999999999,206.287,533.268C238.503,492.85900000000004,274.895,472.69399999999996,315.54,472.615C315.54,472.615,315.54,157.538,315.54,157.538C294.193,157.538,275.761,149.74,260.165,134.144C244.569,118.548,236.77,100.11599999999999,236.77,78.769C236.77,57.423,244.569,38.990999999999985,260.165,23.394000000000005C275.761,7.798000000000002,294.193,0,315.54,0C315.54,0,709.386,0,709.386,0C730.732,0,749.164,7.798000000000002,764.761,23.394000000000005C780.357,38.990999999999985,788.155,57.423,788.155,78.769C788.155,100.11599999999999,780.357,118.548,764.761,134.144C749.164,149.74,730.732,157.538,709.386,157.538C709.386,157.538,709.386,472.615,709.386,472.615C749.952,472.615,786.422,492.85900000000004,818.639,533.268C850.855,573.6759999999999,867.003,619.126,866.924,669.538C866.924,669.538,866.924,669.617,866.924,669.617" />
</svg>