<?xml version="1.0" encoding="utf-8"?>
<svg version="1.1" xmlns="http://www.w3.org/2000/svg" xmlns:xlink="http://www.w3.org/1999/xlink" x="0px" y="0px" viewBox="0 0 1024 1024" xml:space="preserve">
 <path d="M417.959,1019.0509999999999C417.959,1019.0509999999999,266.449,867.5409999999999,266.449,867.5409999999999C266.449,867.5409999999999,287.347,846.6429999999999,287.347,846.6429999999999C303.02,830.9689999999999,313.469,810.0709999999999,313.469,789.173C313.469,768.2749999999999,303.02,747.3779999999999,287.347,731.704C256,700.357,203.755,700.357,172.408,731.704C172.408,731.704,151.51,752.6019999999999,151.51,752.6019999999999C151.51,752.6019999999999,0,601.0919999999999,0,601.0919999999999C0,601.0919999999999,606.041,5.499999999999886,606.041,5.499999999999886C606.041,5.499999999999886,757.551,157.00999999999988,757.551,157.00999999999988C757.551,157.00999999999988,736.653,177.9079999999999,736.653,177.9079999999999C720.98,193.58199999999988,710.531,214.4799999999999,710.531,235.37799999999993C710.531,256.275,720.98,277.1729999999999,736.653,292.847C768,324.19399999999996,820.245,324.19399999999996,851.592,292.847C851.592,292.847,872.49,271.94899999999996,872.49,271.94899999999996C872.49,271.94899999999996,1024,423.45899999999995,1024,423.45899999999995C1024,423.45899999999995,417.959,1019.0509999999999,417.959,1019.0509999999999C417.959,1019.0509999999999,417.959,1019.0509999999999,417.959,1019.0509999999999M339.592,867.5409999999999C339.592,867.5409999999999,417.959,945.9079999999999,417.959,945.9079999999999C417.959,945.9079999999999,945.633,418.2349999999999,945.633,418.2349999999999C945.633,418.2349999999999,867.265,339.86699999999996,867.265,339.86699999999996C815.02,371.21399999999994,741.878,365.9899999999999,700.082,324.19399999999996C673.959,298.0709999999999,663.51,266.72399999999993,663.51,230.1529999999999C663.51,204.03099999999995,668.735,177.9079999999999,684.408,157.00999999999988C684.408,157.00999999999988,606.041,78.64299999999992,606.041,78.64299999999992C606.041,78.64299999999992,78.367,606.3159999999999,78.367,606.3159999999999C78.367,606.3159999999999,156.735,684.684,156.735,684.684C208.98,653.337,282.122,658.5609999999999,323.918,700.357C350.041,726.4799999999999,360.49,757.827,360.49,794.3979999999999C360.49,820.52,355.265,846.6429999999999,339.592,867.5409999999999C339.592,867.5409999999999,339.592,867.5409999999999,339.592,867.5409999999999M485.878,778.7239999999999C485.878,778.7239999999999,245.551,538.3979999999999,245.551,538.3979999999999C245.551,538.3979999999999,538.122,245.82699999999988,538.122,245.82699999999988C538.122,245.82699999999988,778.449,486.1529999999999,778.449,486.1529999999999C778.449,486.1529999999999,485.878,778.7239999999999,485.878,778.7239999999999C485.878,778.7239999999999,485.878,778.7239999999999,485.878,778.7239999999999M318.694,538.3979999999999C318.694,538.3979999999999,485.878,705.5819999999999,485.878,705.5819999999999C485.878,705.5819999999999,705.306,486.1529999999999,705.306,486.1529999999999C705.306,486.1529999999999,538.122,318.96899999999994,538.122,318.96899999999994C538.122,318.96899999999994,318.694,538.3979999999999,318.694,538.3979999999999C318.694,538.3979999999999,318.694,538.3979999999999,318.694,538.3979999999999" />
</svg>