<?xml version="1.0" encoding="utf-8"?>
<svg version="1.1" xmlns="http://www.w3.org/2000/svg" xmlns:xlink="http://www.w3.org/1999/xlink" x="0px" y="0px" viewBox="0 0 1024 1024" xml:space="preserve">
 <path d="M455.333,455.111C455.333,455.111,313.111,455.111,313.111,455.111C313.111,455.111,313.111,426.66700000000003,313.111,426.66700000000003C313.111,409.6,301.733,398.222,284.667,398.222C267.6,398.222,256.222,409.6,256.222,426.66700000000003C256.222,426.66700000000003,256.222,455.111,256.222,455.111C256.222,455.111,114,455.111,114,455.111C114,455.111,114,0,114,0C114,0,256.222,0,256.222,0C256.222,0,256.222,28.44399999999996,256.222,28.44399999999996C256.222,45.51099999999997,267.6,56.88900000000001,284.667,56.88900000000001C301.733,56.88900000000001,313.111,45.51099999999997,313.111,28.44399999999996C313.111,28.44399999999996,313.111,0,313.111,0C313.111,0,455.333,0,455.333,0C455.333,0,455.333,455.111,455.333,455.111C455.333,455.111,455.333,455.111,455.333,455.111M364.311,398.222C364.311,398.222,398.444,398.222,398.444,398.222C398.444,398.222,398.444,56.88900000000001,398.444,56.88900000000001C398.444,56.88900000000001,364.311,56.88900000000001,364.311,56.88900000000001C352.933,91.02200000000005,324.489,113.77800000000002,284.667,113.77800000000002C244.844,113.77800000000002,216.4,91.02200000000005,205.022,56.88900000000001C205.022,56.88900000000001,170.889,56.88900000000001,170.889,56.88900000000001C170.889,56.88900000000001,170.889,398.222,170.889,398.222C170.889,398.222,205.022,398.222,205.022,398.222C216.4,364.08900000000006,244.844,341.33299999999997,284.667,341.33299999999997C324.489,341.33299999999997,352.933,364.08900000000006,364.311,398.222C364.311,398.222,364.311,398.222,364.311,398.222M910.444,455.111C910.444,455.111,768.222,455.111,768.222,455.111C768.222,455.111,768.222,426.66700000000003,768.222,426.66700000000003C768.222,409.6,756.844,398.222,739.778,398.222C722.711,398.222,711.333,409.6,711.333,426.66700000000003C711.333,426.66700000000003,711.333,455.111,711.333,455.111C711.333,455.111,569.111,455.111,569.111,455.111C569.111,455.111,569.111,0,569.111,0C569.111,0,711.333,0,711.333,0C711.333,0,711.333,28.44399999999996,711.333,28.44399999999996C711.333,45.51099999999997,722.711,56.88900000000001,739.778,56.88900000000001C756.844,56.88900000000001,768.222,45.51099999999997,768.222,28.44399999999996C768.222,28.44399999999996,768.222,0,768.222,0C768.222,0,910.444,0,910.444,0C910.444,0,910.444,455.111,910.444,455.111C910.444,455.111,910.444,455.111,910.444,455.111M819.422,398.222C819.422,398.222,853.556,398.222,853.556,398.222C853.556,398.222,853.556,56.88900000000001,853.556,56.88900000000001C853.556,56.88900000000001,819.422,56.88900000000001,819.422,56.88900000000001C808.044,91.02200000000005,773.911,113.77800000000002,739.778,113.77800000000002C705.644,113.77800000000002,671.511,91.02200000000005,660.133,56.88900000000001C660.133,56.88900000000001,626,56.88900000000001,626,56.88900000000001C626,56.88900000000001,626,398.222,626,398.222C626,398.222,660.133,398.222,660.133,398.222C671.511,364.08900000000006,705.644,341.33299999999997,739.778,341.33299999999997C773.911,341.33299999999997,808.044,364.08900000000006,819.422,398.222C819.422,398.222,819.422,398.222,819.422,398.222M455.333,1024C455.333,1024,313.111,1024,313.111,1024C313.111,1024,313.111,995.556,313.111,995.556C313.111,978.489,301.733,967.111,284.667,967.111C267.6,967.111,256.222,978.489,256.222,995.556C256.222,995.556,256.222,1024,256.222,1024C256.222,1024,114,1024,114,1024C114,1024,114,568.889,114,568.889C114,568.889,256.222,568.889,256.222,568.889C256.222,568.889,256.222,597.3330000000001,256.222,597.3330000000001C256.222,614.4,267.6,625.778,284.667,625.778C301.733,625.778,313.111,614.4,313.111,597.3330000000001C313.111,597.3330000000001,313.111,568.889,313.111,568.889C313.111,568.889,455.333,568.889,455.333,568.889C455.333,568.889,455.333,1024,455.333,1024C455.333,1024,455.333,1024,455.333,1024M364.311,967.111C364.311,967.111,398.444,967.111,398.444,967.111C398.444,967.111,398.444,625.778,398.444,625.778C398.444,625.778,364.311,625.778,364.311,625.778C352.933,659.9110000000001,318.8,682.6669999999999,284.667,682.6669999999999C250.533,682.6669999999999,216.4,659.9110000000001,205.022,625.778C205.022,625.778,170.889,625.778,170.889,625.778C170.889,625.778,170.889,967.111,170.889,967.111C170.889,967.111,205.022,967.111,205.022,967.111C216.4,932.978,250.533,910.222,284.667,910.222C318.8,910.222,352.933,932.978,364.311,967.111C364.311,967.111,364.311,967.111,364.311,967.111M910.444,1024C910.444,1024,768.222,1024,768.222,1024C768.222,1024,768.222,995.556,768.222,995.556C768.222,978.489,756.844,967.111,739.778,967.111C722.711,967.111,711.333,978.489,711.333,995.556C711.333,995.556,711.333,1024,711.333,1024C711.333,1024,569.111,1024,569.111,1024C569.111,1024,569.111,568.889,569.111,568.889C569.111,568.889,711.333,568.889,711.333,568.889C711.333,568.889,711.333,597.3330000000001,711.333,597.3330000000001C711.333,614.4,722.711,625.778,739.778,625.778C756.844,625.778,768.222,614.4,768.222,597.3330000000001C768.222,597.3330000000001,768.222,568.889,768.222,568.889C768.222,568.889,910.444,568.889,910.444,568.889C910.444,568.889,910.444,1024,910.444,1024C910.444,1024,910.444,1024,910.444,1024M819.422,967.111C819.422,967.111,853.556,967.111,853.556,967.111C853.556,967.111,853.556,625.778,853.556,625.778C853.556,625.778,819.422,625.778,819.422,625.778C808.044,659.9110000000001,773.911,682.6669999999999,739.778,682.6669999999999C705.644,682.6669999999999,671.511,659.9110000000001,660.133,625.778C660.133,625.778,626,625.778,626,625.778C626,625.778,626,967.111,626,967.111C626,967.111,660.133,967.111,660.133,967.111C671.511,932.978,705.644,910.222,739.778,910.222C773.911,910.222,808.044,932.978,819.422,967.111C819.422,967.111,819.422,967.111,819.422,967.111" />
</svg>