<?xml version="1.0" encoding="utf-8"?>
<svg version="1.1" xmlns="http://www.w3.org/2000/svg" xmlns:xlink="http://www.w3.org/1999/xlink" x="0px" y="0px" viewBox="0 0 1024 1024" xml:space="preserve">
 <path d="M998.4,358.69999999999993C998.4,358.69999999999993,25.6,358.69999999999993,25.6,358.69999999999993C10.24,358.69999999999993,0,348.4599999999999,0,333.0999999999999C0,333.0999999999999,0,77.09999999999991,0,77.09999999999991C0,61.739999999999895,10.24,51.499999999999886,25.6,51.499999999999886C25.6,51.499999999999886,998.4,51.499999999999886,998.4,51.499999999999886C1013.76,51.499999999999886,1024,61.739999999999895,1024,77.09999999999991C1024,77.09999999999991,1024,333.0999999999999,1024,333.0999999999999C1024,348.4599999999999,1013.76,358.69999999999993,998.4,358.69999999999993C998.4,358.69999999999993,998.4,358.69999999999993,998.4,358.69999999999993M51.2,307.4999999999999C51.2,307.4999999999999,972.8,307.4999999999999,972.8,307.4999999999999C972.8,307.4999999999999,972.8,102.69999999999993,972.8,102.69999999999993C972.8,102.69999999999993,51.2,102.69999999999993,51.2,102.69999999999993C51.2,102.69999999999993,51.2,307.4999999999999,51.2,307.4999999999999C51.2,307.4999999999999,51.2,307.4999999999999,51.2,307.4999999999999M952.32,973.0999999999999C952.32,973.0999999999999,76.8,973.0999999999999,76.8,973.0999999999999C61.44,973.0999999999999,51.2,962.8599999999999,51.2,947.4999999999999C51.2,947.4999999999999,51.2,333.0999999999999,51.2,333.0999999999999C51.2,317.7399999999999,61.44,307.4999999999999,76.8,307.4999999999999C76.8,307.4999999999999,952.32,307.4999999999999,952.32,307.4999999999999C967.68,307.4999999999999,977.92,317.7399999999999,977.92,333.0999999999999C977.92,333.0999999999999,977.92,947.4999999999999,977.92,947.4999999999999C977.92,962.8599999999999,962.56,973.0999999999999,952.32,973.0999999999999C952.32,973.0999999999999,952.32,973.0999999999999,952.32,973.0999999999999M102.4,921.8999999999999C102.4,921.8999999999999,926.72,921.8999999999999,926.72,921.8999999999999C926.72,921.8999999999999,926.72,358.69999999999993,926.72,358.69999999999993C926.72,358.69999999999993,102.4,358.69999999999993,102.4,358.69999999999993C102.4,358.69999999999993,102.4,921.8999999999999,102.4,921.8999999999999C102.4,921.8999999999999,102.4,921.8999999999999,102.4,921.8999999999999M691.2,619.8199999999999C691.2,619.8199999999999,332.8,619.8199999999999,332.8,619.8199999999999C317.44,619.8199999999999,307.2,609.5799999999999,307.2,594.2199999999999C307.2,594.2199999999999,307.2,491.81999999999994,307.2,491.81999999999994C307.2,471.3399999999999,317.44,461.0999999999999,332.8,461.0999999999999C332.8,461.0999999999999,691.2,461.0999999999999,691.2,461.0999999999999C706.56,461.0999999999999,716.8,471.3399999999999,716.8,486.69999999999993C716.8,486.69999999999993,716.8,589.0999999999999,716.8,589.0999999999999C716.8,604.4599999999999,706.56,619.8199999999999,691.2,619.8199999999999C691.2,619.8199999999999,691.2,619.8199999999999,691.2,619.8199999999999M358.4,568.6199999999999C358.4,568.6199999999999,665.6,568.6199999999999,665.6,568.6199999999999C665.6,568.6199999999999,665.6,517.4199999999998,665.6,517.4199999999998C665.6,517.4199999999998,358.4,517.4199999999998,358.4,517.4199999999998C358.4,517.4199999999998,358.4,568.6199999999999,358.4,568.6199999999999C358.4,568.6199999999999,358.4,568.6199999999999,358.4,568.6199999999999" />
</svg>