<?xml version="1.0" encoding="utf-8"?>
<svg version="1.1" xmlns="http://www.w3.org/2000/svg" xmlns:xlink="http://www.w3.org/1999/xlink" x="0px" y="0px" viewBox="0 0 1024 1024" xml:space="preserve">
 <path d="M614.433,231.034C614.433,290.03599999999994,678.289,326.869,729.374,297.39300000000003C753.077,283.702,767.687,258.41499999999996,767.687,231.034C767.687,172.03099999999995,703.831,135.19799999999998,652.747,164.67399999999998C629.043,178.365,614.433,203.65200000000004,614.433,231.034M972.027,767.424C972.027,767.424,972.027,716.3389999999999,972.027,716.3389999999999C972.027,716.3389999999999,716.603,716.3389999999999,716.603,716.3389999999999C716.603,716.3389999999999,716.603,458.361,716.603,458.361C892.488,438.693,981.12,236.03999999999996,876.14,93.56399999999996C771.161,-48.91100000000006,551.343,-24.338999999999942,480.437,137.80399999999997C418.369,279.717,511.599,441.145,665.518,458.361C665.518,458.361,665.518,920.679,665.518,920.679C665.518,920.679,972.027,920.679,972.027,920.679C972.027,920.679,972.027,869.594,972.027,869.594C972.027,869.594,716.603,869.594,716.603,869.594C716.603,869.594,716.603,767.424,716.603,767.424C716.603,767.424,972.027,767.424,972.027,767.424M691.06,409.83000000000004C553.438,409.83000000000004,467.411,260.81600000000003,536.222,141.635C605.033,22.45399999999995,777.087,22.45399999999995,845.898,141.635C861.581,168.812,869.857,199.66700000000003,869.857,231.034C869.857,329.78,789.807,409.83000000000004,691.06,409.83000000000004C691.06,409.83000000000004,691.06,409.83000000000004,691.06,409.83000000000004M256.839,792.966C256.839,851.969,320.695,888.802,371.78,859.326C395.483,845.635,410.094,820.348,410.094,792.966C410.094,733.9639999999999,346.238,697.131,295.153,726.607C271.45,740.298,256.839,765.585,256.839,792.966M52.5,256.576C52.5,256.576,52.5,307.66099999999994,52.5,307.66099999999994C52.5,307.66099999999994,307.924,307.66099999999994,307.924,307.66099999999994C307.924,307.66099999999994,307.924,565.639,307.924,565.639C132.039,585.307,43.407,787.96,148.386,930.436C253.365,1072.911,473.183,1048.339,544.089,886.196C606.157,744.283,512.927,582.855,359.009,565.639C359.009,565.639,359.009,103.32100000000003,359.009,103.32100000000003C359.009,103.32100000000003,52.5,103.32100000000003,52.5,103.32100000000003C52.5,103.32100000000003,52.5,154.40599999999995,52.5,154.40599999999995C52.5,154.40599999999995,307.924,154.40599999999995,307.924,154.40599999999995C307.924,154.40599999999995,307.924,256.576,307.924,256.576C307.924,256.576,52.5,256.576,52.5,256.576M333.466,614.1700000000001C471.089,614.1700000000001,557.116,763.184,488.305,882.365C419.493,1001.546,247.44,1001.546,178.628,882.365C162.945,855.188,154.67,824.333,154.67,792.966C154.67,694.22,234.72,614.1700000000001,333.466,614.1700000000001C333.466,614.1700000000001,333.466,614.1700000000001,333.466,614.1700000000001" />
</svg>