<?xml version="1.0" encoding="UTF-8"?>
<svg width="20px" height="20px" viewBox="0 0 20 20" version="1.1" xmlns="http://www.w3.org/2000/svg" xmlns:xlink="http://www.w3.org/1999/xlink">
    <!-- Generator: Sketch 53.2 (72643) - https://sketchapp.com -->
    <title>Action / Upload</title>
    <desc>Created with Sketch.</desc>
    <g id="Action-/-Upload" stroke="none" stroke-width="1" fill="none" fill-rule="evenodd">
        <path d="M17.1555076,9.5 C17.1555076,5.27207704 13.727923,1.84449244 9.5,1.84449244 C5.27207704,1.84449244 1.84449244,5.27207704 1.84449244,9.5 C1.84449244,13.727923 5.27207704,17.1555076 9.5,17.1555076 C13.727923,17.1555076 17.1555076,13.727923 17.1555076,9.5 Z M18,9.5 C18,14.1943233 14.1943233,18 9.5,18 C4.80567674,18 1,14.1943233 1,9.5 C1,4.80567674 4.80567674,1 9.5,1 C14.1943233,1 18,4.80567674 18,9.5 Z M10,5.55125774 L10,14.5 C10,14.7761424 9.77614237,15 9.5,15 C9.22385763,15 9,14.7761424 9,14.5 L9,5.55125774 L5.72710104,8.87337323 C5.56076662,9.04220892 5.29108524,9.04220892 5.12475082,8.87337323 C4.95841639,8.70453754 4.95841639,8.4308008 5.12475082,8.26196511 L9.19882489,4.12662677 C9.36515931,3.95779108 9.63484069,3.95779108 9.80117511,4.12662677 L13.8752492,8.26196511 C14.0415836,8.4308008 14.0415836,8.70453754 13.8752492,8.87337323 C13.7089148,9.04220892 13.4392334,9.04220892 13.272899,8.87337323 L10,5.55125774 Z" id="Combined-Shape" fill="#666666"></path>
    </g>
</svg>