<?xml version="1.0" encoding="utf-8"?>
<svg version="1.1" xmlns="http://www.w3.org/2000/svg" xmlns:xlink="http://www.w3.org/1999/xlink" x="0px" y="0px" viewBox="0 0 1024 1024" xml:space="preserve">
 <path d="M844.8,484.08000000000004C778.24,484.08000000000004,721.92,427.76,721.92,361.20000000000005C721.92,294.64,778.24,238.32000000000005,844.8,238.32000000000005C911.36,238.32000000000005,967.68,294.64,967.68,361.20000000000005C967.68,427.76,911.36,484.08000000000004,844.8,484.08000000000004C844.8,484.08000000000004,844.8,484.08000000000004,844.8,484.08000000000004C844.8,484.08000000000004,844.8,484.08000000000004,844.8,484.08000000000004M844.8,279.28C798.72,279.28,762.88,315.12,762.88,361.20000000000005C762.88,407.28,798.72,443.12,844.8,443.12C890.88,443.12,926.72,407.28,926.72,361.20000000000005C926.72,315.12,890.88,279.28,844.8,279.28C844.8,279.28,844.8,279.28,844.8,279.28C844.8,279.28,844.8,279.28,844.8,279.28M179.2,484.08000000000004C112.64,484.08000000000004,56.32,427.76,56.32,361.20000000000005C56.32,294.64,112.64,238.32000000000005,179.2,238.32000000000005C245.76,238.32000000000005,302.08,294.64,302.08,361.20000000000005C302.08,427.76,245.76,484.08000000000004,179.2,484.08000000000004C179.2,484.08000000000004,179.2,484.08000000000004,179.2,484.08000000000004C179.2,484.08000000000004,179.2,484.08000000000004,179.2,484.08000000000004M179.2,279.28C133.12,279.28,97.28,315.12,97.28,361.20000000000005C97.28,407.28,133.12,443.12,179.2,443.12C225.28,443.12,261.12,407.28,261.12,361.20000000000005C261.12,315.12,225.28,279.28,179.2,279.28C179.2,279.28,179.2,279.28,179.2,279.28C179.2,279.28,179.2,279.28,179.2,279.28M512,489.20000000000005C424.96,489.20000000000005,358.4,422.64,358.4,335.6C358.4,248.56000000000006,424.96,182,512,182C599.04,182,665.6,248.56000000000006,665.6,335.6C665.6,422.64,599.04,489.20000000000005,512,489.20000000000005C512,489.20000000000005,512,489.20000000000005,512,489.20000000000005C512,489.20000000000005,512,489.20000000000005,512,489.20000000000005M512,233.20000000000005C455.68,233.20000000000005,409.6,279.28,409.6,335.6C409.6,391.9200000000001,455.68,438,512,438C568.32,438,614.4,391.9200000000001,614.4,335.6C614.4,279.28,568.32,233.20000000000005,512,233.20000000000005C512,233.20000000000005,512,233.20000000000005,512,233.20000000000005C512,233.20000000000005,512,233.20000000000005,512,233.20000000000005M819.2,842.48C819.2,842.48,768,842.48,768,842.48C768,699.12,655.36,586.48,512,586.48C368.64,586.48,256,699.12,256,842.48C256,842.48,204.8,842.48,204.8,842.48C204.8,673.52,343.04,535.28,512,535.28C680.96,535.28,819.2,673.52,819.2,842.48C819.2,842.48,819.2,842.48,819.2,842.48C819.2,842.48,819.2,842.48,819.2,842.48M1024,724.72C1024,724.72,972.8,724.72,972.8,724.72C972.8,647.9200000000001,911.36,591.6,834.56,591.6C788.48,591.6,747.52,612.08,721.92,653.04C721.92,653.04,680.96,622.3199999999999,680.96,622.3199999999999C716.8,571.12,773.12,540.4000000000001,839.68,540.4000000000001C942.08,535.28,1024,622.3199999999999,1024,724.72C1024,724.72,1024,724.72,1024,724.72C1024,724.72,1024,724.72,1024,724.72M51.2,724.72C51.2,724.72,0,724.72,0,724.72C0,622.3199999999999,81.92,540.4000000000001,189.44,540.4000000000001C250.88,540.4000000000001,312.32,571.12,348.16,627.44C348.16,627.44,307.2,653.04,307.2,653.04C281.6,612.08,240.64,591.6,194.56,591.6C112.64,586.48,51.2,647.9200000000001,51.2,724.72C51.2,724.72,51.2,724.72,51.2,724.72C51.2,724.72,51.2,724.72,51.2,724.72" />
</svg>