<?xml version="1.0" encoding="utf-8"?>
<svg version="1.1" xmlns="http://www.w3.org/2000/svg" xmlns:xlink="http://www.w3.org/1999/xlink" x="0px" y="0px" viewBox="0 0 1024 1024" xml:space="preserve">
 <path d="M754.534,862.6210000000001C754.534,862.6210000000001,0,862.6210000000001,0,862.6210000000001C0,862.6210000000001,0,162.0000000000001,0,162.0000000000001C0,162.0000000000001,754.534,162.0000000000001,754.534,162.0000000000001C754.534,162.0000000000001,754.534,387.2800000000001,754.534,387.2800000000001C754.534,387.2800000000001,1024,215.86300000000006,1024,215.86300000000006C1024,215.86300000000006,1024,808.7070000000001,1024,808.7070000000001C1024,808.7070000000001,754.534,638.979,754.534,638.979C754.534,638.979,754.534,862.6210000000001,754.534,862.6210000000001C754.534,862.6210000000001,754.534,862.6210000000001,754.534,862.6210000000001M53.914,808.7070000000001C53.914,808.7070000000001,700.621,808.7070000000001,700.621,808.7070000000001C700.621,808.7070000000001,700.621,539.2420000000001,700.621,539.2420000000001C700.621,539.2420000000001,970.138,709.0210000000001,970.138,709.0210000000001C970.138,709.0210000000001,970.138,315.03700000000015,970.138,315.03700000000015C970.138,315.03700000000015,700.621,485.37900000000013,700.621,485.37900000000013C700.621,485.37900000000013,700.621,215.86300000000006,700.621,215.86300000000006C700.621,215.86300000000006,53.914,215.86300000000006,53.914,215.86300000000006C53.914,215.86300000000006,53.914,808.7070000000001,53.914,808.7070000000001C53.914,808.7070000000001,53.914,808.7070000000001,53.914,808.7070000000001" />
</svg>