<?xml version="1.0" encoding="utf-8"?>
<svg version="1.1" xmlns="http://www.w3.org/2000/svg" xmlns:xlink="http://www.w3.org/1999/xlink" x="0px" y="0px" viewBox="0 0 1024 1024" xml:space="preserve">
 <path d="M512,839.884C238.14,839.884,23.814,542.21,11.907,530.303C11.907,530.303,0,512.442,0,512.442C0,512.442,11.907,494.582,11.907,494.582C23.814,482.67500000000007,238.14,185,512,185C785.86,185,1006.14,482.67500000000007,1012.093,494.582C1012.093,494.582,1024,512.442,1024,512.442C1024,512.442,1012.093,530.303,1012.093,530.303C1006.14,542.21,785.86,839.884,512,839.884C512,839.884,512,839.884,512,839.884M77.395,512.442C125.023,571.9770000000001,309.581,780.349,517.953,780.349C726.326,780.349,904.93,571.9770000000001,958.512,512.442C904.93,452.90700000000004,720.372,244.53499999999997,512,244.53499999999997C303.628,244.53499999999997,125.023,452.90700000000004,77.395,512.442C77.395,512.442,77.395,512.442,77.395,512.442M512,691.047C410.791,691.047,333.395,613.6510000000001,333.395,512.442C333.395,411.23300000000006,410.791,333.837,512,333.837C613.209,333.837,690.605,411.23300000000006,690.605,512.442C690.605,613.6510000000001,613.209,691.047,512,691.047C512,691.047,512,691.047,512,691.047M512,393.37200000000007C446.512,393.37200000000007,392.93,446.95400000000006,392.93,512.442C392.93,577.931,446.512,631.512,512,631.512C577.488,631.512,631.07,577.931,631.07,512.442C631.07,446.95400000000006,577.488,393.37200000000007,512,393.37200000000007C512,393.37200000000007,512,393.37200000000007,512,393.37200000000007" />
</svg>