<?xml version="1.0" encoding="utf-8"?>
<svg version="1.1" xmlns="http://www.w3.org/2000/svg" xmlns:xlink="http://www.w3.org/1999/xlink" x="0px" y="0px" viewBox="0 0 1024 1024" xml:space="preserve">
 <path d="M230.963,1024C230.963,1024,248.627,1014.374,248.627,1014.374C408.832,925.798,555.878,815.258,685.363,685.875C814.746,556.39,925.286,409.395,1013.811,249.19000000000005C1013.811,249.19000000000005,1024,231.47500000000002,1024,231.47500000000002C1024,231.47500000000002,792.525,0,792.525,0C792.525,0,527.309,265.26700000000005,527.309,265.26700000000005C527.309,265.26700000000005,640.87,378.82899999999995,640.87,378.82899999999995C640.87,378.82899999999995,378.88,641.3820000000001,378.88,641.3820000000001C378.88,641.3820000000001,265.267,527.821,265.267,527.821C265.267,527.821,0,795.75,0,795.75C0,795.75,230.963,1024,230.963,1024C230.963,1024,230.963,1024,230.963,1024M957.594,240.58900000000006C873.114,389.63199999999995,768.922,526.643,647.834,647.8340000000001C526.643,768.922,389.683,873.114,240.589,957.542C240.589,957.542,76.083,793.037,76.083,793.037C76.083,793.037,265.779,603.341,265.779,603.341C265.779,603.341,379.392,716.954,379.392,716.954C379.392,716.954,716.954,378.82899999999995,716.954,378.82899999999995C716.954,378.82899999999995,603.392,265.26700000000005,603.392,265.26700000000005C603.392,265.26700000000005,792.525,76.08299999999997,792.525,76.08299999999997C792.525,76.08299999999997,957.594,240.58900000000006,957.594,240.58900000000006C957.594,240.58900000000006,957.594,240.58900000000006,957.594,240.58900000000006" />
</svg>