<?xml version="1.0" encoding="utf-8"?>
<svg version="1.1" xmlns="http://www.w3.org/2000/svg" xmlns:xlink="http://www.w3.org/1999/xlink" x="0px" y="0px" viewBox="0 0 1024 1024" xml:space="preserve">
 <path d="M873.226,148.87900000000002C777.363,53.01700000000005,650.126,0.22100000000000364,514.377,0C234.584,0,7.117,227.71500000000003,6.869,507.26C6.869,596.7919999999999,30.226,683.894,74.508,761.014C74.508,761.014,2.5,1024,2.5,1024C2.5,1024,271.568,953.458,271.568,953.458C345.76,993.844,429.211,1015.266,514.127,1015.266C514.127,1015.266,514.376,1015.266,514.376,1015.266C514.376,1015.266,514.376,1015.266,514.376,1015.266C793.921,1015.266,1021.636,787.5509999999999,1021.885,507.75699999999995C1021.885,372.256,969.089,244.77099999999996,873.226,148.90800000000002C873.226,148.90800000000002,873.226,148.87900000000002,873.226,148.87900000000002M514.376,929.573C514.376,929.573,514.376,929.573,514.376,929.573C438.472,929.573,364.28,909.146,299.543,870.6949999999999C299.543,870.6949999999999,284.229,861.463,284.229,861.463C284.229,861.463,124.624,903.313,124.624,903.313C124.624,903.313,167.193,747.604,167.193,747.604C167.193,747.604,157.214,731.543,157.214,731.543C114.894,664.4010000000001,92.753,586.78,92.753,507.227C92.753,274.64700000000005,282.019,85.60199999999998,514.628,85.60199999999998C627.269,85.60199999999998,733.111,129.635,812.886,209.18899999999996C892.44,288.99199999999996,936.224,394.80600000000004,936.224,507.447C935.975,740.2760000000001,746.71,929.542,514.349,929.542C514.349,929.542,514.376,929.573,514.376,929.573M745.74,613.5419999999999C733.08,607.212,670.801,576.556,659.137,572.19C647.472,568.043,638.93,565.86,630.665,578.52C622.152,591.1800000000001,597.827,619.8720000000001,590.528,628.137C583.231,636.65,575.684,637.619,563.023,631.289C550.363,624.9590000000001,509.509,611.5799999999999,461.08,568.264C423.375,534.679,398.055,493.077,390.537,480.446C383.24,467.78499999999997,389.819,460.98699999999997,396.122,454.65599999999995C401.706,449.071,408.782,439.812,415.083,432.515C421.384,425.21799999999996,423.596,419.85400000000004,427.744,411.341C431.89,402.828,429.928,395.529,426.777,389.201C423.625,382.87199999999996,398.305,320.34400000000005,387.608,295.05100000000004C377.38,270.22900000000004,366.931,273.629,359.136,273.408C351.839,272.90999999999997,343.324,272.90999999999997,334.811,272.90999999999997C326.298,272.90999999999997,312.67,276.062,301.004,288.72299999999996C289.34,301.38300000000004,256.721,332.03700000000003,256.721,394.56399999999996C256.721,457.091,302.22,517.184,308.551,525.6990000000001C314.881,534.212,397.834,662.196,525.071,717.175C555.228,730.3050000000001,578.834,738.1,597.328,743.933C627.735,753.663,655.239,752.197,677.131,749.048C701.456,745.399,752.07,718.393,762.767,688.7049999999999C773.216,659.018,773.216,633.725,770.064,628.3620000000001C766.913,623,758.4,619.8489999999999,745.739,613.518C745.739,613.518,745.74,613.5419999999999,745.74,613.5419999999999" />
</svg>