<?xml version="1.0" encoding="utf-8"?>
<svg version="1.1" xmlns="http://www.w3.org/2000/svg" xmlns:xlink="http://www.w3.org/1999/xlink" x="0px" y="0px" viewBox="0 0 1024 1024" xml:space="preserve">
 <path d="M642.387,317.6292043416289C642.387,317.6292043416289,382.576,317.6292043416289,382.576,317.6292043416289C317.934,317.6962043416289,265.544,370.0862043416289,265.477,434.72720434162886C265.477,434.72720434162886,265.477,781.1432043416289,265.477,781.1432043416289C265.544,845.7852043416289,317.934,898.1742043416289,382.576,898.2412043416289C382.576,898.2412043416289,642.387,898.2412043416289,642.387,898.2412043416289C707.029,898.1742043416289,759.418,845.7852043416289,759.486,781.1432043416289C759.486,781.1432043416289,759.486,434.72720434162886,759.486,434.72720434162886C759.418,370.0862043416289,707.029,317.6962043416289,642.387,317.6292043416289C642.387,317.6292043416289,642.387,317.6292043416289,642.387,317.6292043416289M698.497,434.72720434162886C698.497,434.72720434162886,698.497,624.6462043416288,698.497,624.6462043416288C698.497,624.6462043416288,452.347,378.61820434162894,452.347,378.61820434162894C452.347,378.61820434162894,642.387,378.61820434162894,642.387,378.61820434162894C673.363,378.6542043416289,698.46,403.75120434162886,698.497,434.72720434162886C698.497,434.72720434162886,698.497,434.72720434162886,698.497,434.72720434162886M326.466,781.1432043416289C326.466,781.1432043416289,326.466,577.5632043416289,326.466,577.5632043416289C326.466,577.5632043416289,586.217,837.3142043416289,586.217,837.3142043416289C586.217,837.3142043416289,382.576,837.3142043416289,382.576,837.3142043416289C351.575,837.2772043416289,326.466,812.1442043416289,326.466,781.1432043416289C326.466,781.1432043416289,326.466,781.1432043416289,326.466,781.1432043416289M666.783,831.5812043416289C666.783,831.5812043416289,326.466,491.2642043416289,326.466,491.2642043416289C326.466,491.2642043416289,326.466,434.72720434162886,326.466,434.72720434162886C326.564,409.3992043416289,343.598,387.26620434162885,368.06,380.6912043416289C368.06,380.6912043416289,698.497,711.1282043416288,698.497,711.1282043416288C698.497,711.1282043416288,698.497,781.2652043416289,698.497,781.2652043416289C698.436,802.7452043416289,686.122,822.3042043416289,666.783,831.6422043416289C666.783,831.6422043416289,666.783,831.5812043416289,666.783,831.5812043416289M863.593,141.6772043416289C863.593,141.6772043416289,739.786,17.87020434162889,739.786,17.87020434162889C728.375,6.39220434162894,712.848,-0.041795658371029276,696.667,0.00020434162888705032C696.667,0.00020434162888705032,247.181,0.00020434162888705032,247.181,0.00020434162888705032C189.918,0.00020434162888705032,143.5,46.41920434162887,143.5,103.68120434162893C143.5,103.68120434162893,143.5,920.3192043416288,143.5,920.3192043416288C143.5,977.5822043416289,189.918,1024.000204341629,247.181,1024.000204341629C247.181,1024.000204341629,777.782,1024.000204341629,777.782,1024.000204341629C835.044,1024.000204341629,881.463,977.5822043416289,881.463,920.3192043416288C881.463,920.3192043416288,881.463,184.79620434162894,881.463,184.79620434162894C881.506,168.61620434162887,875.071,153.08820434162885,863.593,141.6772043416289C863.593,141.6772043416289,863.593,141.6772043416289,863.593,141.6772043416289M820.474,920.3192043416288C820.474,943.8972043416289,801.36,963.0112043416289,777.782,963.0112043416289C777.782,963.0112043416289,247.181,963.0112043416289,247.181,963.0112043416289C223.603,963.0112043416289,204.489,943.8972043416289,204.489,920.3192043416288C204.489,920.3192043416288,204.489,103.62020434162889,204.489,103.62020434162889C204.489,80.04220434162892,223.603,60.928204341628884,247.181,60.928204341628884C247.181,60.928204341628884,696.667,60.928204341628884,696.667,60.928204341628884C696.667,60.928204341628884,820.474,184.7352043416289,820.474,184.7352043416289C820.474,184.7352043416289,820.474,920.3192043416288,820.474,920.3192043416288" />
</svg>