<svg xmlns="http://www.w3.org/2000/svg" width="20" height="20" fill="none" viewBox="0 0 20 20">
  <path fill="#606B85" d="M2.75 2.665a.75.75 0 1 1 0 1.5.75.75 0 0 1 0-1.5Zm2.75.25a.5.5 0 0 0 0 1h10a.5.5 0 0 0 0-1h-10Zm8.5 8.5a.5.5 0 0 0-1 0v1.5h-1.5a.5.5 0 0 0 0 1H13v1.5a.5.5 0 1 0 1 0v-1.5h1.5a.5.5 0 1 0 0-1H14v-1.5Z"/>
  <path fill="#606B85" fill-rule="evenodd" d="M13.5 8.915a4.5 4.5 0 1 0 0 9 4.5 4.5 0 0 0 0-9Zm-3.5 4.5a3.5 3.5 0 1 1 7 0 3.5 3.5 0 0 1-7 0Z" clip-rule="evenodd"/>
  <path fill="#606B85" d="M5 7.415a.5.5 0 0 1 .5-.5h10a.5.5 0 0 1 0 1h-10a.5.5 0 0 1-.5-.5Zm.5 3.5a.5.5 0 0 0 0 1h2a.5.5 0 1 0 0-1h-2Zm-2.75-4.25a.75.75 0 1 1 0 1.5.75.75 0 0 1 0-1.5ZM2 11.415a.75.75 0 1 0 1.5 0 .75.75 0 0 0-1.5 0Z"/>
</svg>
