<svg xmlns="http://www.w3.org/2000/svg" width="20" height="20" fill="none" viewBox="0 0 20 20">
  <path fill="#606B85" fill-rule="evenodd" d="M3 2.5a.5.5 0 0 0-1 0v15a.5.5 0 0 0 .5.5h15a.5.5 0 0 0 0-1H3v-1.19l2.459-1.23a1.5 1.5 0 0 0 2.453-.575l3.645.405a1.501 1.501 0 1 0 .03-.915l-3.644-.405a1.5 1.5 0 0 0-2.932.595L3 14.691V2.5Zm9.646 11.146a.5.5 0 1 1 .708.708.5.5 0 0 1-.708-.708ZM6.5 13a.5.5 0 1 0 0 1 .5.5 0 0 0 0-1Z" clip-rule="evenodd"/>
  <path fill="#606B85" d="M13 4.5a.5.5 0 0 1 .5.5v1.5H15a.5.5 0 0 1 0 1h-1.5V9a.5.5 0 0 1-1 0V7.5H11a.5.5 0 0 1 0-1h1.5V5a.5.5 0 0 1 .5-.5Z"/>
  <path fill="#606B85" fill-rule="evenodd" d="M13 2.5a4.5 4.5 0 1 0 0 9 4.5 4.5 0 0 0 0-9ZM9.5 7a3.5 3.5 0 1 1 7 0 3.5 3.5 0 0 1-7 0Z" clip-rule="evenodd"/>
</svg>
