<svg xmlns="http://www.w3.org/2000/svg" width="20" height="20" fill="none" viewBox="0 0 20 20">
  <path fill="#606B85" fill-rule="evenodd" d="M10 14.3a.5.5 0 0 1 .5.5V18a.5.5 0 1 1-1 0v-3.2a.5.5 0 0 1 .5-.5Zm0-6.4a.5.5 0 0 1 .5.5v2.4a.5.5 0 1 1-1 0V8.4a.5.5 0 0 1 .5-.5Zm0-6.4a.5.5 0 0 1 .5.5v2.4a.5.5 0 0 1-1 0V2a.5.5 0 0 1 .5-.5Z" clip-rule="evenodd"/>
  <path fill="#606B85" fill-rule="evenodd" d="M6.5 4.9c-.25 0-.375.176-.375.3v2.4c0 .124.125.3.375.3h7c.25 0 .375-.176.375-.3V5.2c0-.124-.125-.3-.375-.3h-7Zm-1.375.3c0-.76.659-1.3 1.375-1.3h7c.716 0 1.375.54 1.375 1.3v2.4c0 .76-.659 1.3-1.375 1.3h-7c-.716 0-1.375-.54-1.375-1.3V5.2Zm-1.25 6.1c-.25 0-.375.175-.375.3V14c0 .124.125.3.375.3h12.25c.25 0 .375-.176.375-.3v-2.4c0-.124-.125-.3-.375-.3H3.875Zm-1.375.3c0-.76.659-1.3 1.375-1.3h12.25c.716 0 1.375.54 1.375 1.3V14c0 .76-.659 1.3-1.375 1.3H3.875c-.716 0-1.375-.54-1.375-1.3v-2.4Z" clip-rule="evenodd"/>
</svg>
