<svg xmlns="http://www.w3.org/2000/svg" width="20" height="20" fill="none" viewBox="0 0 20 20">
  <path fill="#606B85" fill-rule="evenodd" d="M17.4 1.5a.5.5 0 0 1 .5.5v16a.5.5 0 0 1-1 0V2a.5.5 0 0 1 .5-.5ZM15 7.9a.3.3 0 0 0 .3-.3V5.2a.3.3 0 0 0-.3-.3H8.6a.3.3 0 0 0-.3.3v2.4a.3.3 0 0 0 .3.3H15Zm1.3-.3A1.3 1.3 0 0 1 15 8.9H8.6a1.3 1.3 0 0 1-1.3-1.3V5.2a1.3 1.3 0 0 1 1.3-1.3H15a1.3 1.3 0 0 1 1.3 1.3v2.4ZM15 14.3a.3.3 0 0 0 .3-.3v-2.4a.3.3 0 0 0-.3-.3H3.8a.3.3 0 0 0-.3.3V14a.3.3 0 0 0 .3.3H15Zm1.3-.3a1.3 1.3 0 0 1-1.3 1.3H3.8A1.3 1.3 0 0 1 2.5 14v-2.4a1.3 1.3 0 0 1 1.3-1.3H15a1.3 1.3 0 0 1 1.3 1.3V14Z" clip-rule="evenodd"/>
</svg>
