<svg xmlns="http://www.w3.org/2000/svg" width="20" height="20" fill="none" viewBox="0 0 20 20">
  <path fill="#606B85" fill-rule="evenodd" d="M3.5 1a.5.5 0 0 1 .5.5v16a.5.5 0 0 1-1 0v-16a.5.5 0 0 1 .5-.5Zm2.333 3.4a.29.29 0 0 0-.277.3v2.4c0 .18.137.3.277.3h6.223a.29.29 0 0 0 .277-.3V4.7a.29.29 0 0 0-.277-.3H5.833Zm-1.277.3c0-.705.558-1.3 1.277-1.3h6.223c.718 0 1.277.595 1.277 1.3v2.4c0 .705-.559 1.3-1.277 1.3H5.833c-.719 0-1.277-.595-1.277-1.3V4.7Zm1.277 6.1a.29.29 0 0 0-.277.3v2.4c0 .179.137.3.277.3h10.89a.29.29 0 0 0 .277-.3v-2.4a.29.29 0 0 0-.278-.3H5.833Zm-1.277.3c0-.705.558-1.3 1.277-1.3h10.89c.718 0 1.277.595 1.277 1.3v2.4c0 .705-.559 1.3-1.278 1.3H5.833c-.719 0-1.277-.595-1.277-1.3v-2.4Z" clip-rule="evenodd"/>
</svg>
