<svg xmlns="http://www.w3.org/2000/svg" xmlns:xlink="http://www.w3.org/1999/xlink" viewBox="0 0 55 66" fill="#fff" fill-rule="evenodd" stroke="#000" stroke-linecap="round" stroke-linejoin="round"><use xlink:href="#A" x=".5" y=".5"/><symbol id="A" overflow="visible"><g stroke="none" fill-rule="nonzero"><path d="M26.535 47.935l26.526-12.2-26.526-1.1-26.526 1.1z" fill="#fcbf91"/><path d="M0 13.247v18.72h31.903V2.656L26.635 0z" fill="#9d5125"/><path d="M26.635 64l26.526-18.818-26.6-3.887-26.56 3.887z" fill="#fcbf91"/><g fill="#9d5125"><path d="M26.635 13.28v18.688h14.024v-19.95l-4.124-1.654z"/><path d="M36.535 19.4v12.567h10.85V19.012l-3.1-.907z"/><path d="M44.275 17.07v14.9h8.777l.097-14.964-2.656-1.07z"/></g><path d="M31.903 31.968V2.656L26.635 0v31.968zm8.745 0v-19.95l-4.113-1.654v21.603zm6.737 0V19.012l-3.1-.907v13.862zm3.1 0V15.935l2.656 1.07V31.97zm2.568 3.757v5.603l-26.518 6.607V38.38zm.097 14.963v-5.506l-26.615 9.393V64z" fill="#f58532"/><path d="M0 50.753v-5.57l26.535 9.327v9.5zm0-9.425v-5.603l26.535 2.655v9.555z" fill="#9d5125"/></g></symbol></svg>