<svg xmlns="http://www.w3.org/2000/svg" width="20" height="20" fill="none" viewBox="0 0 20 20">
  <path fill="#606B85" fill-rule="evenodd" d="M2.007 5.002a1.5 1.5 0 0 1 1.5-1.5h9a1.5 1.5 0 0 1 1.5 1.5V6.5h2.5a1.5 1.5 0 0 1 1.5 1.5v7a1.5 1.5 0 0 1-1.5 1.5h-9a1.5 1.5 0 0 1-1.5-1.5v-1.498h-2.5a1.5 1.5 0 0 1-1.5-1.5v-7Zm1.5-.5a.5.5 0 0 0-.5.5v1.5h10v-1.5a.5.5 0 0 0-.5-.5h-9Zm9.5 3h-10v4.5a.5.5 0 0 0 .5.5h9a.5.5 0 0 0 .5-.5v-4.5Zm1 4.5v-1.5h3V15a.5.5 0 0 1-.5.5h-9a.5.5 0 0 1-.5-.5v-1.498h5.5a1.5 1.5 0 0 0 1.5-1.5Zm2.5-4.502h-2.5v2.002h3V8a.5.5 0 0 0-.5-.5Z" clip-rule="evenodd"/>
</svg>
