<svg xmlns="http://www.w3.org/2000/svg" width="20" height="20" fill="none" viewBox="0 0 20 20">
  <path fill="#606B85" fill-rule="evenodd" d="M2.44 3.106a1.5 1.5 0 0 1 1.06-.44h13a1.5 1.5 0 0 1 1.5 1.5v2a.5.5 0 0 1-.5.5h-15a.5.5 0 0 1-.5-.5v-2c0-.397.158-.779.44-1.06Zm1.06.56a.5.5 0 0 0-.5.5v1.5h14v-1.5a.5.5 0 0 0-.5-.5h-13Z" clip-rule="evenodd"/>
  <path fill="#606B85" d="M3.5 8a.5.5 0 0 1 .5.5v6.333a1.5 1.5 0 0 0 1.5 1.5h9a1.5 1.5 0 0 0 1.5-1.5V8.5a.5.5 0 0 1 1 0v6.333a2.5 2.5 0 0 1-2.5 2.5h-9a2.5 2.5 0 0 1-2.5-2.5V8.5a.5.5 0 0 1 .5-.5Z"/>
  <path fill="#606B85" d="M10 14.5a.5.5 0 0 1-.191-.038l.542-.106A.499.499 0 0 1 10 14.5Zm2.354-2.146-2 2-.545.108a.499.499 0 0 1-.163-.108l-2-2a.5.5 0 0 1 .708-.708L9.5 12.793V9a.5.5 0 0 1 1 0v3.793l1.146-1.147a.5.5 0 0 1 .708.708Z"/>
</svg>
