<svg xmlns="http://www.w3.org/2000/svg" width="24" height="24" viewBox="0 0 24 24">
  <path fill="#666A6D" fill-rule="evenodd" d="M14.2506575,15.9466902 L14.3199054,15.8888348 L17.8554393,12.3533009 C17.8809637,12.3277764 17.9031517,12.3001789 17.9220031,12.2710503 L17.9650653,12.1884123 L17.994273,12.0871048 L18,12.0441525 L18,11.9562291 L17.9896477,11.889307 L17.9792486,11.8506622 L17.9459,11.7695613 L17.8989455,11.6958244 L17.8554393,11.6461941 L14.3199054,8.11066017 C14.1246432,7.91539803 13.8080607,7.91539803 13.6127986,8.11066017 C13.4392322,8.28422652 13.4199471,8.55365092 13.5549431,8.74851907 L13.6127986,8.81776695 L16.294374,11.5003036 L7.5,11.4997475 C7.22385763,11.4997475 7,11.7236051 7,11.9997475 C7,12.2452074 7.17675079,12.4493558 7.41,12.4916918 L7.5,12.4997475 L16.294374,12.5001526 L13.6127986,15.181728 C13.4392322,15.3552943 13.4199471,15.6247187 13.5549431,15.8195869 L13.6127986,15.8888348 C13.7863649,16.0624011 14.0557893,16.0816863 14.2506575,15.9466902 Z"/>
</svg>
