<svg xmlns="http://www.w3.org/2000/svg" width="24" height="24" viewBox="0 0 24 24">
  <path fill="#666A6D" fill-rule="evenodd" d="M12,7 L12.0109107,7.00011832 C12.0319816,7.00057536 12.0530291,7.00235654 12.0739178,7.00546187 L12,7 C12.0353751,7 12.0698922,7.00376685 12.1031905,7.0109307 C12.122016,7.01464896 12.140853,7.01975173 12.1593977,7.02597174 C12.1677827,7.02948466 12.1764447,7.03274157 12.1849907,7.03623321 C12.2050236,7.04332868 12.2242294,7.05243152 12.2429105,7.06282365 C12.2477119,7.06719932 12.2526986,7.07016035 12.2576298,7.07320617 C12.2668511,7.07690563 12.2756518,7.08259627 12.2843055,7.08859116 L12.3535534,7.14644661 L15.8890873,10.6819805 C16.0843494,10.8772427 16.0843494,11.1938252 15.8890873,11.3890873 C15.7155209,11.5626536 15.4460965,11.5819388 15.2512284,11.4469427 L15.1819805,11.3890873 L12.4994661,8.706 L12.5,17.4873192 C12.5,17.770465 12.2761424,18 12,18 C11.7545401,18 11.5503916,17.818639 11.5080557,17.5794742 L11.5,17.4873192 L11.4994661,8.708 L8.81801948,11.3890873 C8.64445313,11.5626536 8.37502873,11.5819388 8.18016059,11.4469427 L8.1109127,11.3890873 C7.93734635,11.2155209 7.9180612,10.9460965 8.05305725,10.7512284 L8.1109127,10.6819805 L11.6464466,7.14644661 C11.6758501,7.1170431 11.7080047,7.09206731 11.7420817,7.07151924 C11.7472606,7.07018554 11.7522056,7.06724831 11.7572033,7.06439639 C11.7770321,7.05172979 11.7975726,7.04210521 11.8185526,7.0339499 C11.8241981,7.03254183 11.8302028,7.03027402 11.8362603,7.02812227 C11.8564152,7.02049791 11.876604,7.01493807 11.8970083,7.01066341 C11.9062548,7.00889532 11.9159593,7.00710853 11.9257565,7.00561315 C11.9469709,7.00235654 11.9680184,7.00057536 11.9890893,7.00011832 C11.9925095,7.00004233 11.9962499,7 12,7 Z"/>
</svg>
