<svg xmlns="http://www.w3.org/2000/svg" width="24" height="24" viewBox="0 0 24 24">
  <path fill="#666A6D" fill-rule="evenodd" d="M9.74934254,15.9466902 L9.68009465,15.8888348 L6.14456074,12.3533009 C6.11903628,12.3277764 6.09684835,12.3001789 6.07799695,12.2710503 L6.0349347,12.1884123 L6.00572697,12.0871048 L6,12.0441525 L6,11.9562291 L6.01035225,11.889307 L6.02075136,11.8506622 L6.05410004,11.7695613 L6.10105448,11.6958244 L6.14456074,11.6461941 L9.68009465,8.11066017 C9.8753568,7.91539803 10.1919393,7.91539803 10.3872014,8.11066017 C10.5607678,8.28422652 10.5800529,8.55365092 10.4450569,8.74851907 L10.3872014,8.81776695 L7.705626,11.5003036 L16.5,11.4997475 C16.7761424,11.4997475 17,11.7236051 17,11.9997475 C17,12.2452074 16.8232492,12.4493558 16.59,12.4916918 L16.5,12.4997475 L7.705626,12.5001526 L10.3872014,15.181728 C10.5607678,15.3552943 10.5800529,15.6247187 10.4450569,15.8195869 L10.3872014,15.8888348 C10.2136351,16.0624011 9.94421068,16.0816863 9.74934254,15.9466902 Z"/>
</svg>
