<svg xmlns="http://www.w3.org/2000/svg" width="24" height="24" viewBox="0 0 24 24">
  <path fill="#666A6D" fill-rule="evenodd" d="M11.8970083,17.9893366 L11.9574767,17.9981841 L11.9574767,17.9981841 L12.0109107,17.9998817 C12.0319816,17.9994246 12.0530291,17.9976435 12.0739178,17.9945381 L12,18 C12.0353751,18 12.0698922,17.9962332 12.1031905,17.9890693 L12.1593977,17.9740283 L12.1593977,17.9740283 L12.2429105,17.9371764 L12.2429105,17.9371764 L12.2576298,17.9267938 L12.2576298,17.9267938 L12.2843055,17.9114088 L12.2843055,17.9114088 L12.3535534,17.8535534 L15.8890873,14.3180195 C16.0843494,14.1227573 16.0843494,13.8061748 15.8890873,13.6109127 C15.7155209,13.4373464 15.4460965,13.4180612 15.2512284,13.5530573 L15.1819805,13.6109127 L12.4994661,16.294 L12.5,7.51268083 C12.5,7.22953503 12.2761424,7 12,7 C11.7545401,7 11.5503916,7.18136101 11.5080557,7.4205258 L11.5,7.51268083 L11.4994661,16.292 L8.81801948,13.6109127 C8.64445313,13.4373464 8.37502873,13.4180612 8.18016059,13.5530573 L8.1109127,13.6109127 C7.93734635,13.7844791 7.9180612,14.0539035 8.05305725,14.2487716 L8.1109127,14.3180195 L11.6464466,17.8535534 L11.6925116,17.8943379 L11.6925116,17.8943379 L11.7572033,17.9356036 C11.7770321,17.9482702 11.7975726,17.9578948 11.8185526,17.9660501 L11.8970083,17.9893366 L11.8970083,17.9893366 Z"/>
</svg>
