<svg xmlns="http://www.w3.org/2000/svg" width="20" height="20" viewBox="0 0 20 20">
  <path fill="#707578" fill-rule="evenodd" d="M9.90958826,14.9913621 L9.9599089,14.9982558 L9.9599089,14.9982558 L10.0405756,14.9982558 L10.0405756,14.9982558 L10.1108485,14.9871274 L10.1108485,14.9871274 L10.1388947,14.9780178 C10.2516628,14.9454915 10.3474927,14.8714586 10.4113748,14.7733233 L13.8548429,10.9409624 C14.0483857,10.7257042 14.0483857,10.3767018 13.8548429,10.1614436 C13.6828048,9.97010303 13.4157528,9.94884297 13.2226005,10.0976634 L13.1539624,10.1614436 L10.495,13.118 L10.4955974,5.51268083 C10.4955974,5.22953503 10.2737109,5 10,5 C9.75670145,5 9.55435055,5.18136101 9.51238736,5.4205258 L9.50440263,5.51268083 L9.504,13.117 L6.84603764,10.1614436 C6.67399958,9.97010303 6.40694753,9.94884297 6.21379525,10.0976634 L6.14515711,10.1614436 C5.97311905,10.3527842 5.95400371,10.6497993 6.08781109,10.8646231 L6.14515711,10.9409624 L9.5886252,14.7733233 C9.65250727,14.8714586 9.74833722,14.9454915 9.86069331,14.9794688 L9.90958826,14.9913621 L9.90958826,14.9913621 Z"/>
</svg>
