<svg xmlns="http://www.w3.org/2000/svg" width="20" height="20" viewBox="0 0 20 20">
  <path fill="#707578" fill-rule="evenodd" d="M14.9913621,9.90958826 L14.9982558,9.9599089 L14.9982558,9.9599089 L14.9982558,10.0405756 L14.9982558,10.0405756 L14.9871274,10.1108485 L14.9871274,10.1108485 L14.9780178,10.1388947 C14.9454915,10.2516628 14.8714586,10.3474927 14.7733233,10.4113748 L10.9409624,13.8548429 C10.7257042,14.0483857 10.3767018,14.0483857 10.1614436,13.8548429 C9.97010303,13.6828048 9.94884297,13.4157528 10.0976634,13.2226005 L10.1614436,13.1539624 L13.118,10.495 L5.51268083,10.4955974 C5.22953503,10.4955974 5,10.2737109 5,10 C5,9.75670145 5.18136101,9.55435055 5.4205258,9.51238736 L5.51268083,9.50440263 L13.117,9.504 L10.1614436,6.84603764 C9.97010303,6.67399958 9.94884297,6.40694753 10.0976634,6.21379525 L10.1614436,6.14515711 C10.3527842,5.97311905 10.6497993,5.95400371 10.8646231,6.08781109 L10.9409624,6.14515711 L14.7733233,9.5886252 C14.8714586,9.65250727 14.9454915,9.74833722 14.9794688,9.86069331 L14.9913621,9.90958826 L14.9913621,9.90958826 Z"/>
</svg>
