<svg xmlns="http://www.w3.org/2000/svg" width="24" height="24" viewBox="0 0 24 24">
  <path fill="#707578" fill-rule="evenodd" d="M11.5033005,6.38539394 C12.2314154,5.63152099 13.3096436,5.32917901 14.3235675,5.59457339 C15.3374913,5.85996776 16.1293204,6.65179694 16.3947148,7.66572076 C16.643522,8.61627433 16.3933422,9.6233455 15.745113,10.3403651 L15.6101898,10.479799 L10.7959599,15.2965907 C10.129018,15.9409482 9.06871728,15.9319015 8.41286729,15.2762577 C7.79559672,14.6591811 7.75097778,13.6836567 8.28996879,13.009657 L8.39787146,12.8869766 L13.206396,8.07685214 C13.4016256,7.88155752 13.7182081,7.88150486 13.9135027,8.07673452 C14.087098,8.250272 14.1064279,8.51969319 13.9714643,8.71458378 L13.9136204,8.78384129 L9.1111821,13.5877708 C8.84594523,13.8624768 8.84980756,14.2990693 9.11986294,14.5690398 C9.36291278,14.8120132 9.74085858,14.8393279 10.0096691,14.6534121 L10.0948958,14.5835461 L14.9091825,9.7666995 C15.4030988,9.28965911 15.6011848,8.58323425 15.4273059,7.91893987 C15.2534269,7.25464549 14.7346427,6.73586127 14.0703483,6.56198234 C13.4571535,6.40147871 12.8080606,6.55791558 12.3318173,6.97630103 L12.2164784,7.08632284 L7.4079735,11.8942944 C6.19734217,13.1049257 6.19734217,15.0677469 7.4079735,16.2783783 C8.57204209,17.4424468 10.4315525,17.4872187 11.6491023,16.4127082 L11.7920413,16.2783944 L17.6464305,10.4234718 C17.8416838,10.2282007 18.1582662,10.2281863 18.3535373,10.4234396 C18.5271115,10.596998 18.546409,10.8664216 18.4114218,11.0612958 L18.3535695,11.1305464 L12.4991641,16.985485 C10.8980085,18.5866407 8.30202234,18.5866407 6.70086672,16.985485 C5.15308295,15.4377013 5.10149016,12.9603036 6.54610605,11.3505279 L6.70088633,11.187168 L11.5033005,6.38539394 Z"/>
</svg>
