<svg xmlns="http://www.w3.org/2000/svg" width="24" height="24" viewBox="0 0 24 24">
  <path fill="#707578" fill-rule="evenodd" d="M6.37859064,10.7638346 L11.9689444,5.03424322 C12.7986784,4.15364416 14.0273893,3.80047847 15.1828211,4.11048566 C16.3382529,4.42049285 17.2405935,5.34542859 17.5430275,6.52979308 C17.8276713,7.64448908 17.5392186,8.82572209 16.7933278,9.66461378 L16.6481409,9.81779434 L11.024517,15.5853232 C10.2780412,16.3245806 9.09129797,16.3142015 8.35723683,15.5619955 C7.65813099,14.8456089 7.61531774,13.7081331 8.24088605,12.9347517 L8.33973567,12.8215734 L13.957735,7.06097976 C14.1532449,6.86050744 14.4702819,6.86045338 14.6658569,7.06085902 C14.8397014,7.23899737 14.8590591,7.51556151 14.7239017,7.71561909 L14.6659747,7.78671278 L9.05407039,13.5409472 C8.71256186,13.9035047 8.71753485,14.4797201 9.0652475,14.8360277 C9.38621302,15.164927 9.88988646,15.1944161 10.2386722,14.9265377 L10.3224464,14.8533742 L15.9461272,9.08578901 C16.5448844,8.493009 16.7850169,7.61519121 16.5742297,6.78972561 C16.3634424,5.96426 15.7345388,5.31960826 14.9292384,5.10354279 C14.1814595,4.90291056 13.3896429,5.10081749 12.8124235,5.6266263 L12.6831462,5.75375538 L7.08669288,11.4897085 C5.6396744,12.9729612 5.63968134,15.3777808 7.08670563,16.8610395 C8.48705172,18.2964511 10.7293784,18.3427613 12.1840259,16.9999778 L12.3268047,16.8610691 L19.145205,9.8712932 C19.3407385,9.67084506 19.6577755,9.67083021 19.853327,9.87126004 C20.0271504,10.0494199 20.0464756,10.3259864 19.9112947,10.5260273 L19.8533593,10.5971138 L13.0349428,17.5869063 C11.1968385,19.4710379 8.21669198,19.4710289 6.37858367,17.5868932 C4.59153392,15.7550947 4.54188531,12.8167927 6.22966856,10.9235068 L6.37859064,10.7638346 Z"/>
</svg>
