<svg width="20" height="20" viewBox="0 0 20 20" fill="none" xmlns="http://www.w3.org/2000/svg">
<path fill-rule="evenodd" clip-rule="evenodd" d="M16.5 3H3.5C3.22386 3 3 3.22386 3 3.5V16.5C3 16.7761 3.22386 17 3.5 17H16.5C16.7761 17 17 16.7761 17 16.5V3.5C17 3.22386 16.7761 3 16.5 3ZM3.5 2C2.67157 2 2 2.67157 2 3.5V16.5C2 17.3284 2.67157 18 3.5 18H16.5C17.3284 18 18 17.3284 18 16.5V3.5C18 2.67157 17.3284 2 16.5 2H3.5Z" fill="#606B85"/>
<path fill-rule="evenodd" clip-rule="evenodd" d="M7.09851 10.1086C6.33007 10.8771 6.33007 12.123 7.09854 12.8914C7.867 13.6599 9.1129 13.6599 9.88137 12.8915V12.8915L13.8819 8.89059C14.0771 8.69532 14.3937 8.6953 14.589 8.89055C14.7842 9.08581 14.7843 9.40239 14.589 9.59766L10.5885 13.5985C9.42952 14.7575 7.55042 14.7575 6.39143 13.5985C5.23244 12.4395 5.23243 10.5605 6.39142 9.40147L9.67213 6.12113C10.2107 5.56592 11.0066 5.34356 11.7551 5.53948C12.5051 5.7358 13.0908 6.32153 13.2872 7.07155C13.4831 7.82004 13.2607 8.61591 12.7056 9.15447L9.40645 12.4554C8.88758 12.9567 8.06262 12.9496 7.55237 12.4395C7.04212 11.9294 7.03482 11.1045 7.53597 10.5855L7.542 10.5793L10.8383 7.28201C11.0335 7.08672 11.3501 7.08667 11.5454 7.2819C11.7407 7.47713 11.7407 7.79371 11.5455 7.989L8.25305 11.2825C8.13316 11.4093 8.1357 11.6087 8.25936 11.7323C8.38302 11.8559 8.58244 11.8584 8.70913 11.7385L12.0074 8.4384C12.3051 8.15088 12.4246 7.72515 12.3197 7.32476C12.2149 6.92438 11.9023 6.61169 11.5019 6.50689C11.1015 6.40209 10.6757 6.52148 10.3882 6.81918L10.3821 6.82545L7.09851 10.1086V10.1086Z" fill="#606B85"/>
</svg>
