<svg xmlns="http://www.w3.org/2000/svg" width="20" height="20" viewBox="0 0 20 20">
  <path fill="#707578" fill-rule="evenodd" d="M3.87859064,9.26383456 L9.46894445,3.53424322 C10.2986784,2.65364416 11.5273893,2.30047847 12.6828211,2.61048566 C13.8382529,2.92049285 14.7405935,3.84542859 15.0430275,5.02979308 C15.3276713,6.14448908 15.0392186,7.32572209 14.2933278,8.16461378 L14.1481409,8.31779434 L8.52451697,14.0853232 C7.77804123,14.8245806 6.59129797,14.8142015 5.85723683,14.0619955 C5.15813099,13.3456089 5.11531774,12.2081331 5.74088605,11.4347517 L5.83973567,11.3215734 L11.457735,5.56097976 C11.6532449,5.36050744 11.9702819,5.36045338 12.1658569,5.56085902 C12.3397014,5.73899737 12.3590591,6.01556151 12.2239017,6.21561909 L12.1659747,6.28671278 L6.55407039,12.0409472 C6.21256186,12.4035047 6.21753485,12.9797201 6.5652475,13.3360277 C6.88621302,13.664927 7.38988646,13.6944161 7.73867217,13.4265377 L7.8224464,13.3533742 L13.4461272,7.58578901 C14.0448844,6.993009 14.2850169,6.11519121 14.0742297,5.28972561 C13.8634424,4.46426 13.2345388,3.81960826 12.4292384,3.60354279 C11.6814595,3.40291056 10.8896429,3.60081749 10.3124235,4.1266263 L10.1831462,4.25375538 L4.58669288,9.98970853 C3.1396744,11.4729612 3.13968134,13.8777808 4.58670563,15.3610395 C5.98705172,16.7964511 8.22937841,16.8427613 9.68402591,15.4999778 L9.82680471,15.3610691 L16.645205,8.3712932 C16.8407385,8.17084506 17.1577755,8.17083021 17.353327,8.37126004 C17.5271504,8.54941988 17.5464756,8.82598642 17.4112947,9.02602728 L17.3533593,9.0971138 L10.5349428,16.0869063 C8.69683846,17.9710379 5.71669198,17.9710289 3.87858367,16.0868932 C2.09153392,14.2550947 2.04188531,11.3167927 3.72966856,9.4235068 L3.87859064,9.26383456 Z"/>
</svg>
