<svg xmlns="http://www.w3.org/2000/svg" width="20" height="20" fill="none" viewBox="0 0 20 20">
  <path fill="#606B85" fill-rule="evenodd" d="M3.5 6.5A.5.5 0 0 0 3 7v9a.5.5 0 0 0 .5.5h13a.5.5 0 0 0 .5-.5V7a.5.5 0 0 0-.5-.5h-13ZM2 7a1.5 1.5 0 0 1 1.5-1.5h13A1.5 1.5 0 0 1 18 7v9a1.5 1.5 0 0 1-1.5 1.5h-13A1.5 1.5 0 0 1 2 16V7Z" clip-rule="evenodd"/>
  <path fill="#606B85" fill-rule="evenodd" d="M8.72 2.5a1.5 1.5 0 0 0-.876.283Zm0 1a.5.5 0 0 0-.448.28V5.5h3.456V3.78a.5.5 0 0 0-.449-.28H8.721Zm0-1h2.56a1.5 1.5 0 0 1 1.422 1.025.498.498 0 0 1 .026.158V6a.5.5 0 0 1-.5.5H7.772a.5.5 0 0 1-.5-.5V3.683a.5.5 0 0 1 .026-.158 1.5 1.5 0 0 1 .546-.742" clip-rule="evenodd"/>
</svg>
