<svg xmlns="http://www.w3.org/2000/svg" width="20" height="20" viewBox="0 0 20 20">
  <path fill="#606B85" fill-rule="evenodd" d="M16.5,2 C17.3284271,2 18,2.67157288 18,3.5 L18,16.5 C18,17.3284271 17.3284271,18 16.5,18 L3.5,18 C2.67157288,18 2,17.3284271 2,16.5 L2,3.5 C2,2.67157288 2.67157288,2 3.5,2 L16.5,2 Z M16.5,3 L3.5,3 C3.25454011,3 3.05039163,3.17687516 3.00805567,3.41012437 L3,3.5 L3,16.5 C3,16.7454599 3.17687516,16.9496084 3.41012437,16.9919443 L3.5,17 L16.5,17 C16.7454599,17 16.9496084,16.8231248 16.9919443,16.5898756 L17,16.5 L17,3.5 C17,3.25454011 16.8231248,3.05039163 16.5898756,3.00805567 L16.5,3 Z M8.99977769,10.4999999 L9.17568473,10.5076669 C9.64181156,10.5485971 10.0809971,10.7520515 10.414566,11.0854721 C10.6696481,11.3404409 10.8487565,11.6572055 10.9373164,12.0005901 L14.5006667,12 C14.776809,12 15.0006667,12.2238576 15.0006667,12.5 C15.0006667,12.7454599 14.8237915,12.9496084 14.5905423,12.9919443 L14.5006667,13 L10.9374068,13.0009732 C10.7150728,13.8629915 9.93241685,14.4998619 9.00096282,14.4999999 C8.06934893,14.5001378 7.28639554,13.8632806 7.06396024,13.0011029 L5.50066667,13 C5.22452429,13 5.00066667,12.7761424 5.00066667,12.5 C5.00066667,12.2545401 5.17754183,12.0503916 5.41079103,12.0080557 L5.50066667,12 L7.06366365,12.0000444 C7.28558804,11.1377352 8.0681639,10.5004141 8.99977769,10.4999999 L8.99977769,10.4999999 Z M9.00022204,11.4999997 L8.88361603,11.506778 C8.3863519,11.5647529 8.00051477,11.987514 8.0006666,12.5002961 C8.00083029,13.052523 8.44858787,13.5000816 9.00081474,13.4999997 C9.55304166,13.4999181 10.0006666,13.0522268 10.0006666,12.4999997 C10.0006666,12.2347064 9.89524881,11.9802851 9.70761633,11.792736 C9.51998382,11.6051868 9.26551565,11.499882 9.00022204,11.4999997 L9.00022204,11.4999997 Z M13.0009628,5.50000017 C14.1054167,5.50016372 15.0006666,6.39554626 15.0006666,7.50022229 C15.0001759,8.60481272 14.1045906,9.50000017 12.9997777,9.50000017 C12.0685225,9.49958605 11.2861905,8.86275537 11.0639202,8.00095114 L5.50066667,8 C5.22452429,8 5.00066667,7.77614237 5.00066667,7.5 C5.00066667,7.25454011 5.17754183,7.05039163 5.41079103,7.00805567 L5.50066667,7 L11.0637036,6.99989278 C11.2857928,6.13720978 12.0689903,5.49986216 13.0009628,5.50000017 Z M13.0008147,6.50000016 C12.4485879,6.49991838 12.0008303,6.94747704 12.0006666,7.49970384 C12.0005031,8.05193073 12.4479954,8.49975467 13,8.50000016 C13.5524794,8.50000016 14.0004213,8.05225724 14.0006666,7.50000016 C14.0006666,6.9477732 13.5530417,6.50008193 13.0008147,6.50000016 Z"/>
</svg>
