<svg width="20" height="20" viewBox="0 0 20 20" fill="none"><path d="M7.187 6.09a.63.63 0 1 0 0 1.258.63.63 0 0 0 0-1.258Zm3.443.629a.63.63 0 1 0-1.26 0 .63.63 0 0 0 1.26 0Zm2.812 0a.63.63 0 1 0-1.259 0 .63.63 0 0 0 1.259 0ZM7.187 10.16a.63.63 0 1 1 0-1.258.63.63 0 0 1 0 1.258Zm3.443-.629a.63.63 0 1 0-1.26 0 .63.63 0 0 0 1.26 0Zm2.812 0a.63.63 0 1 0-1.259 0 .63.63 0 0 0 1.259 0Zm-6.255 3.442a.63.63 0 1 1 0-1.258.63.63 0 0 1 0 1.258Zm3.443-.629a.63.63 0 1 0-1.26 0 .63.63 0 0 0 1.26 0Zm2.812 0a.63.63 0 1 0-1.259 0 .63.63 0 0 0 1.259 0Z" fill="#606B85"/><path fill-rule="evenodd" clip-rule="evenodd" d="M5.428 2.792a.395.395 0 0 1 .353-.218h8.438c.15 0 .286.085.353.218l.934 1.869a.39.39 0 0 1 .044.162v.014l.001.007V17.03a.395.395 0 0 1-.395.395H4.844a.395.395 0 0 1-.395-.395V4.844c0-.067.016-.13.046-.184l.933-1.868Zm.597.572-.543 1.085h9.036l-.543-1.085h-7.95Zm-.787 1.875v11.398H8.2v-1.012a1.801 1.801 0 0 1 3.602 0v1.012h2.96V5.239H5.239Zm5.773 10.386v1.012H8.989v-1.012a1.012 1.012 0 0 1 2.024 0Z" fill="#606B85"/></svg>