<svg xmlns="http://www.w3.org/2000/svg" width="20" height="20" fill="none" viewBox="0 0 20 20">
  <path fill="#606B85" fill-rule="evenodd" d="M5.667 2.833a1.5 1.5 0 0 0-1.5 1.5v4a1.5 1.5 0 0 0 1.5 1.5h1a.5.5 0 1 1 0 1h-1a2.5 2.5 0 0 1-2.5-2.5v-4a2.5 2.5 0 0 1 2.5-2.5h8.666a2.5 2.5 0 0 1 2.5 2.5v4a2.5 2.5 0 0 1-2.5 2.5h-1a.5.5 0 0 1 0-1h1a1.5 1.5 0 0 0 1.5-1.5v-4a1.5 1.5 0 0 0-1.5-1.5H5.667Z" clip-rule="evenodd"/>
  <path fill="#606B85" fill-rule="evenodd" d="M10 8.167a.5.5 0 0 0-.5.5v6.549a.5.5 0 0 1-.885.32l-1.563-1.883a.5.5 0 0 0-.77.64l2.539 3.054a.5.5 0 1 1-.77.64l-2.537-3.055a1.501 1.501 0 0 1 2.306-1.918l.68.818V8.667a1.5 1.5 0 0 1 3 0V12.5H13a3.167 3.167 0 0 1 3.167 3.167v2a.5.5 0 1 1-1 0v-2A2.167 2.167 0 0 0 13 13.5h-2a.5.5 0 0 1-.5-.5V8.667a.5.5 0 0 0-.5-.5Z" clip-rule="evenodd"/>
</svg>
