<svg xmlns="http://www.w3.org/2000/svg" width="20" height="20" viewBox="0 0 20 20">
  <path fill="#606B85" fill-rule="evenodd" d="M13.5,2 C13.7454599,2 13.9496084,2.17687516 13.9919443,2.41012437 L14,2.5 L14,3.999 L17.5,4 C17.7454599,4 17.9496084,4.17687516 17.9919443,4.41012437 L18,4.5 L18,17.5 C18,17.7761424 17.7761424,18 17.5,18 L17.5,18 L2.5,18 C2.22385763,18 2,17.7761424 2,17.5 L2,17.5 L2,4.5 C2,4.22385763 2.22385763,4 2.5,4 L2.5,4 L6,3.999 L6,2.5 C6,2.22385763 6.22385763,2 6.5,2 C6.74545989,2 6.94960837,2.17687516 6.99194433,2.41012437 L7,2.5 L7,3.999 L13,3.999 L13,2.5 C13,2.22385763 13.2238576,2 13.5,2 Z M16.999,8.999 L2.999,8.999 L2.99965714,16.9992 L16.9992,16.9992 L16.999,8.999 Z M5.74452915,14.0000213 L5.8633747,14.0084101 C5.98061759,14.0261555 6.09201869,14.0715496 6.1882737,14.1408011 L6.27913541,14.2178646 C6.42100422,14.3590856 6.50034882,14.5512771 6.49942611,14.746873 C6.50080512,15.0506375 6.31888767,15.3252625 6.03864138,15.4424712 C5.75839149,15.5596814 5.43511992,15.4963386 5.21982877,15.2820305 C5.00453762,15.0677224 4.93971593,14.7447441 5.0556423,14.4639607 C5.15868796,14.2143755 5.38646984,14.0419136 5.64916559,14.0066678 L5.74452915,14.0000213 Z M9.9971548,14.0000025 L10.1154374,14.0088513 C10.2321007,14.0269538 10.3428899,14.0724002 10.4386586,14.1414401 L10.5290819,14.2182054 C10.6703154,14.3587941 10.7497272,14.5498617 10.7497118,14.7468727 C10.751091,15.0506373 10.5691735,15.3252625 10.2889271,15.4424712 C10.0086772,15.5596814 9.68540563,15.4963386 9.47011448,15.2820305 C9.25482333,15.0677224 9.19000164,14.7447441 9.30592801,14.4639607 C9.40897355,14.2143758 9.63675635,14.0419091 9.89945523,14.0066644 L9.9971548,14.0000025 Z M14.2497143,13.9999974 L14.3657231,14.0088513 C14.4823864,14.0269538 14.5931756,14.0724002 14.6889444,14.1414401 L14.7793676,14.2182054 C14.9206012,14.3587941 15.0000053,14.5498617 15.0000053,14.7468727 C15.0013767,15.0506373 14.8194592,15.3252625 14.5392128,15.4424712 C14.2589629,15.5596814 13.9356913,15.4963386 13.7204002,15.2820305 C13.505109,15.0677224 13.4402874,14.7447441 13.5562137,14.4639607 C13.67214,14.1831777 13.9459368,13.9999974 14.2497143,13.9999974 Z M5.74914286,10.4994259 L5.86549308,10.5083325 C5.98248871,10.5265413 6.09355877,10.5722509 6.18948098,10.641667 L6.28001234,10.7188448 C6.42134392,10.8601764 6.50033704,11.0521245 6.49943891,11.2497143 C6.49943891,11.6640868 6.16351309,12 5.74914286,12 C5.3347715,12 4.99885714,11.6640856 4.99885714,11.2497143 C4.99885714,10.8353441 5.33477037,10.4994259 5.74914286,10.4994259 Z M14.2497143,10.4994286 L14.3438285,10.5052744 C14.7137771,10.5515719 15,10.8672176 15,11.2497143 C15,11.6640856 14.6640856,12 14.2497143,12 C13.8353429,12 13.4994286,11.6640856 13.4994286,11.2497143 C13.4994286,10.8672176 13.7856515,10.5515719 14.1556,10.5052744 L14.2497143,10.4994286 Z M9.99942857,10.4994286 L10.0935428,10.5052744 C10.4634914,10.5515719 10.7497143,10.8672176 10.7497143,11.2497143 C10.7497143,11.5531765 10.566913,11.8267579 10.2865505,11.9428879 C10.0061879,12.0590179 9.68347667,11.9948266 9.46889646,11.7802464 C9.25431624,11.5656662 9.19012498,11.2429549 9.30625496,10.9625924 C9.4094816,10.7133812 9.63711431,10.5412555 9.89955618,10.5060821 L9.99942857,10.4994286 Z M6,4.999 L2.99965714,4.99945714 L2.999,7.999 L16.999,7.999 L16.9992,4.99945714 L14,4.999 L14,5.99942857 C14,6.27557095 13.7761424,6.49942857 13.5,6.49942857 C13.2545401,6.49942857 13.0503916,6.32255341 13.0080557,6.0893042 L13,5.99942857 L13,4.999 L7,4.999 L7,5.99942857 C7,6.27557095 6.77614237,6.49942857 6.5,6.49942857 C6.25454011,6.49942857 6.05039163,6.32255341 6.00805567,6.0893042 L6,5.99942857 L6,4.999 Z"/>
</svg>
