<svg width="20" height="20" viewBox="0 0 20 20" fill="none"><path fill-rule="evenodd" clip-rule="evenodd" d="M12 2.75a.75.75 0 0 1 1.5 0v3.5a.75.75 0 0 1-1.5 0v-3.5Zm3 0a.75.75 0 0 1 1.5 0v3.5a.75.75 0 0 1-1.5 0v-3.5ZM5.302 2.5c-.433 0-.851.172-1.16.48l-.483.482a3.95 3.95 0 0 0-.543 4.915l.001.002.015.023a31.55 31.55 0 0 0 8.48 8.468l.003.003a3.939 3.939 0 0 0 4.917-.526l.481-.481a1.654 1.654 0 0 0 .487-1.175 1.662 1.662 0 0 0-.487-1.175l-2.03-2.026a1.647 1.647 0 0 0-1.788-.356c-.2.082-.381.203-.534.357a.653.653 0 0 1-.923 0L8.492 8.248a.63.63 0 0 1 0-.892 1.657 1.657 0 0 0 .36-1.813 1.656 1.656 0 0 0-.36-.537L6.463 2.98a1.643 1.643 0 0 0-1.16-.481Zm-.461 1.21a.653.653 0 0 1 .923 0l2.029 2.026a.635.635 0 0 1 .186.446.626.626 0 0 1-.186.446 1.66 1.66 0 0 0 0 2.35l3.245 3.241a1.643 1.643 0 0 0 2.322 0 .648.648 0 0 1 .462-.19.656.656 0 0 1 .462.19l2.03 2.026a.634.634 0 0 1 .186.446.626.626 0 0 1-.186.446l-.482.48a2.949 2.949 0 0 1-3.66.409l-.006-.005a30.541 30.541 0 0 1-8.202-8.185l-.006-.01a2.917 2.917 0 0 1 .4-3.635l.483-.481Z" fill="#606B85"/></svg>