<svg width="20" height="20" viewBox="0 0 20 20" fill="none"><path fill-rule="evenodd" clip-rule="evenodd" d="M4.141 2.98a1.643 1.643 0 0 1 2.322.001l2.03 2.026a1.656 1.656 0 0 1 .359 1.812 1.657 1.657 0 0 1-.36.538.63.63 0 0 0 0 .892l3.245 3.241a.654.654 0 0 0 .924 0 1.646 1.646 0 0 1 1.789-.356c.199.082.38.203.534.356l2.03 2.026a1.656 1.656 0 0 1 .486 1.175 1.662 1.662 0 0 1-.487 1.175l-.48.48a3.94 3.94 0 0 1-4.918.527l-.004-.003a31.55 31.55 0 0 1-8.494-8.491v-.002a3.953 3.953 0 0 1 .542-4.915l.482-.481Zm1.161.54c-.175 0-.34.07-.461.19l-.482.48a2.922 2.922 0 0 0-.4 3.637l.005.009a30.541 30.541 0 0 0 8.202 8.185l.006.005a2.954 2.954 0 0 0 3.66-.408l.482-.48a.637.637 0 0 0 .186-.447.626.626 0 0 0-.186-.446l-2.03-2.026a.647.647 0 0 0-.462-.19.656.656 0 0 0-.462.19 1.644 1.644 0 0 1-2.322 0L7.793 8.977a1.66 1.66 0 0 1 0-2.349.637.637 0 0 0 .186-.446.626.626 0 0 0-.186-.447L5.763 3.71a.653.653 0 0 0-.46-.19Z" fill="#606B85"/></svg>