<svg width="20" height="20" viewBox="0 0 20 20" fill="none"><path fill-rule="evenodd" clip-rule="evenodd" d="M12.854 1.146a.5.5 0 0 1 0 .708l-.647.646H16a.5.5 0 0 1 0 1h-3.793l.647.646a.5.5 0 0 1-.708.708l-1.5-1.5a.5.5 0 0 1 0-.708l1.5-1.5a.5.5 0 0 1 .708 0Zm2.792 6.5L16.293 7H12.5a.5.5 0 0 1 0-1h3.793l-.647-.646a.5.5 0 0 1 .708-.708l1.5 1.5a.5.5 0 0 1 0 .708l-1.5 1.5a.5.5 0 0 1-.708-.708ZM5.302 2.5a1.66 1.66 0 0 0-1.16.471l-.483.472a3.815 3.815 0 0 0-.543 4.82l.001.001.015.023a31.25 31.25 0 0 0 8.48 8.302l.003.003a4.001 4.001 0 0 0 4.917-.516l.481-.471a1.622 1.622 0 0 0 .487-1.152 1.603 1.603 0 0 0-.487-1.152l-2.03-1.986a1.649 1.649 0 0 0-1.16-.472 1.669 1.669 0 0 0-1.162.472.66.66 0 0 1-.923 0L8.492 8.136a.612.612 0 0 1-.186-.437c0-.162.066-.32.186-.437A1.622 1.622 0 0 0 8.98 6.11a1.604 1.604 0 0 0-.487-1.152l-2.03-1.986a1.66 1.66 0 0 0-1.16-.472Zm-.461 1.186a.66.66 0 0 1 .461-.186.66.66 0 0 1 .462.186l2.029 1.986a.622.622 0 0 1 .186.438.603.603 0 0 1-.186.437c-.31.304-.487.718-.487 1.152 0 .434.177.848.487 1.152l3.245 3.178a1.66 1.66 0 0 0 2.322 0 .649.649 0 0 1 .462-.186.669.669 0 0 1 .462.186l2.03 1.986a.622.622 0 0 1 .186.438.603.603 0 0 1-.186.437l-.482.472a3.001 3.001 0 0 1-3.66.4l-.006-.005a30.252 30.252 0 0 1-8.202-8.026l-.006-.008a2.815 2.815 0 0 1 .4-3.565l.483-.472Z" fill="#606B85"/></svg>