<svg fill="none" xmlns="http://www.w3.org/2000/svg" width="20" height="20" viewBox="0 0 20 20"><path d="M7 17a1 1 0 1 1-2 0 1 1 0 0 1 2 0Zm4 0a1 1 0 1 1-2 0 1 1 0 0 1 2 0Zm4 0a1 1 0 1 1-2 0 1 1 0 0 1 2 0Zm2-12.5a.5.5 0 0 1 1 0v7a.5.5 0 0 1-1 0v-7Zm-15 0a.5.5 0 0 1 1 0v7a.5.5 0 0 1-1 0v-7Z" fill="#606B85"/><path fill-rule="evenodd" clip-rule="evenodd" d="M13 4H7a1 1 0 0 0-1 1v6a1 1 0 0 0 1 1h6a1 1 0 0 0 1-1V5a1 1 0 0 0-1-1ZM7 3a2 2 0 0 0-2 2v6a2 2 0 0 0 2 2h6a2 2 0 0 0 2-2V5a2 2 0 0 0-2-2H7Z" fill="#606B85"/></svg>