<svg width="20" height="20" viewBox="0 0 20 20" fill="none" xmlns="http://www.w3.org/2000/svg">
<path fill-rule="evenodd" clip-rule="evenodd" d="M16.9838 2.82929C16.8528 2.82925 16.726 2.87558 16.626 2.95998C16.526 3.04442 16.4589 3.16158 16.4369 3.29062M16.4369 3.29062L14.5571 14.34C14.4944 14.7088 14.3033 15.0436 14.0176 15.285C13.7317 15.5263 13.3696 15.6589 12.9954 15.6589H5.92297C5.63876 15.6589 5.40835 15.4285 5.40835 15.1442C5.40835 14.86 5.63876 14.6296 5.92297 14.6296H12.9954C13.1263 14.6297 13.2532 14.5833 13.3535 14.4987C13.4535 14.4141 13.5204 14.2969 13.5424 14.1677L15.4222 3.11799C15.4851 2.74941 15.6763 2.41471 15.9621 2.17348C16.248 1.93219 16.61 1.79998 16.9839 1.80005H17.6854C17.9696 1.80005 18.2 2.03045 18.2 2.31467C18.2 2.59889 17.9696 2.82929 17.6854 2.82929H16.9838" fill="#606B85"/>
<path fill-rule="evenodd" clip-rule="evenodd" d="M7.25955 17.2629C7.3961 17.2629 7.50691 17.1522 7.50691 17.0156C7.50691 16.8791 7.39628 16.7683 7.25955 16.7683V16.2337C6.82785 16.2337 6.47767 16.5836 6.47767 17.0156C6.47767 17.4474 6.82767 17.7975 7.25955 17.7975V17.2629Z" fill="#606B85"/>
<path fill-rule="evenodd" clip-rule="evenodd" d="M7.25955 16.2337C7.69125 16.2337 8.04147 16.5835 8.04147 17.0156C8.04147 17.4474 7.69142 17.7975 7.25955 17.7975V17.2629C7.12316 17.2629 7.01223 17.1523 7.01223 17.0156C7.01223 16.879 7.12298 16.7683 7.25955 16.7683V16.2337Z" fill="#606B85"/>
<path fill-rule="evenodd" clip-rule="evenodd" d="M12.6062 17.2629C12.7426 17.2629 12.8535 17.1523 12.8535 17.0156C12.8535 16.879 12.7428 16.7683 12.6062 16.7683V16.2337C12.1745 16.2337 11.8242 16.5835 11.8242 17.0156C11.8242 17.4474 12.1743 17.7975 12.6062 17.7975V17.2629Z" fill="#606B85"/>
<path fill-rule="evenodd" clip-rule="evenodd" d="M12.6062 16.2337C13.0379 16.2337 13.3881 16.5835 13.3881 17.0156C13.3881 17.4474 13.0381 17.7975 12.6062 17.7975V17.2629C12.4698 17.2629 12.3589 17.1523 12.3589 17.0156C12.3589 16.879 12.4696 16.7683 12.6062 16.7683V16.2337Z" fill="#606B85"/>
<path fill-rule="evenodd" clip-rule="evenodd" d="M3.24916 6.03229C3.2465 6.03228 3.24346 6.03289 3.24029 6.03443C3.23772 6.03568 3.23541 6.03754 3.23338 6.04014C3.23171 6.04227 3.23033 6.04503 3.22961 6.04844C3.22897 6.05146 3.22911 6.0542 3.22986 6.05723L4.26351 10.1919C4.3514 10.5432 4.55416 10.855 4.8395 11.0778C5.12491 11.3006 5.47661 11.4217 5.83878 11.4218C5.83875 11.4218 5.8388 11.4218 5.83878 11.4218H14.4439C14.7281 11.4218 14.9585 11.6522 14.9585 11.9364C14.9585 12.2206 14.7281 12.451 14.4439 12.451H5.83878C5.24716 12.4509 4.6725 12.2532 4.20612 11.8891C3.73982 11.525 3.40861 11.0155 3.26505 10.4417L2.23136 6.30686C2.23136 6.30686 2.23136 6.30686 2.23136 6.30686C2.1927 6.15222 2.18975 5.99075 2.2228 5.83473C2.2559 5.6791 2.32403 5.53223 2.42248 5.40628C2.52056 5.28081 2.64602 5.17909 2.78953 5.10915C2.93244 5.03956 3.08982 5.00298 3.24959 5.00305C3.24956 5.00305 3.24963 5.00305 3.24959 5.00305H15.5353C15.8195 5.00305 16.0499 5.23345 16.0499 5.51767C16.0499 5.80188 15.8195 6.03229 15.5353 6.03229H3.24916Z" fill="#606B85"/>
</svg>
