<svg width="20" height="20" viewBox="0 0 20 20" fill="none" xmlns="http://www.w3.org/2000/svg">
  <path fill-rule="evenodd" clip-rule="evenodd" d="M3.3017 3.25472C3.91641 2.76438 4.67988 2.49818 5.46619 2.50001L5.46736 2.50001H7.73384C8.48041 2.50012 9.20708 2.74114 9.8057 3.18725C10.4043 3.63338 10.843 4.26078 11.0565 4.97619C11.1355 5.2408 11.414 5.39128 11.6787 5.31231C11.9433 5.23334 12.0937 4.95481 12.0148 4.6902C11.7397 3.7685 11.1745 2.96019 10.4032 2.38542C9.63199 1.81065 8.69584 1.50013 7.73396 1.50001H5.46791C4.45443 1.49779 3.47043 1.84096 2.67812 2.47297C1.88565 3.1051 1.33227 3.98843 1.10924 4.97729C0.886215 5.96615 1.00685 7.0015 1.45126 7.91259C1.84839 8.72677 2.48287 9.39827 3.26745 9.84092V13.3327C3.26745 13.535 3.38927 13.7173 3.5761 13.7947C3.76294 13.8721 3.978 13.8293 4.121 13.6863L6.38755 11.4198C6.58281 11.2245 6.58281 10.9079 6.38755 10.7126C6.19228 10.5174 5.8757 10.5174 5.68044 10.7126L4.26745 12.1256V9.53703C4.26745 9.34362 4.1559 9.16756 3.98102 9.08494C3.27004 8.74907 2.69476 8.18092 2.35004 7.47419C2.00531 6.76746 1.91174 5.96436 2.08474 5.1973C2.25774 4.43025 2.68699 3.74506 3.3017 3.25472ZM12.267 7.16638C11.0824 7.16638 9.94636 7.63695 9.10874 8.47458C8.27111 9.3122 7.80054 10.4483 7.80054 11.6328C7.80054 12.8174 8.27111 13.9535 9.10874 14.7911C9.94636 15.6287 11.0824 16.0993 12.267 16.0993H12.6265L15.8799 19.3527C16.0229 19.4957 16.238 19.5384 16.4248 19.4611C16.6116 19.3837 16.7335 19.2013 16.7335 18.9991V15.5072C17.371 15.1473 17.9116 14.635 18.3057 14.0142C18.7576 13.3023 18.9983 12.477 19 11.6338C19 10.4493 18.5294 9.3122 17.6918 8.47458C16.8542 7.63695 15.7181 7.16638 14.5335 7.16638H12.267ZM9.81584 9.18168C10.4659 8.5316 11.3476 8.16638 12.267 8.16638H14.5335C15.4529 8.16638 16.3346 8.5316 16.9847 9.18168C17.6347 9.83165 17.9999 10.7131 18 11.6323C17.9986 12.2862 17.8119 12.9262 17.4615 13.4783C17.1109 14.0304 16.611 14.4719 16.0198 14.7514C15.845 14.834 15.7335 15.01 15.7335 15.2034V17.792L13.1872 15.2457C13.0934 15.152 12.9662 15.0993 12.8336 15.0993H12.267C11.3476 15.0993 10.4659 14.7341 9.81584 14.084C9.16576 13.4339 8.80054 12.5522 8.80054 11.6328C8.80054 10.7135 9.16576 9.83177 9.81584 9.18168Z" fill="#606B85"/>
</svg>
