<svg width="20" height="20" viewBox="0 0 20 20" fill="none"><path fill-rule="evenodd" clip-rule="evenodd" d="M3.302 2.755A3.458 3.458 0 0 1 5.466 2h2.268a3.468 3.468 0 0 1 3.322 2.476.5.5 0 0 0 .959-.286A4.468 4.468 0 0 0 7.734 1H5.468a4.458 4.458 0 0 0-2.2 8.34v3.493a.5.5 0 0 0 .853.353l2.267-2.266a.5.5 0 0 0-.708-.707l-1.413 1.413V9.037a.5.5 0 0 0-.286-.452 3.458 3.458 0 0 1-.68-5.83Zm8.965 3.911a4.466 4.466 0 1 0 0 8.933h.36l3.253 3.254a.5.5 0 0 0 .853-.354v-3.492A4.459 4.459 0 0 0 19 11.134a4.469 4.469 0 0 0-4.466-4.468h-2.267ZM9.816 8.682a3.466 3.466 0 0 1 2.451-1.016h2.267A3.467 3.467 0 0 1 18 11.132a3.459 3.459 0 0 1-1.98 3.12.5.5 0 0 0-.287.451v2.589l-2.546-2.546a.5.5 0 0 0-.353-.147h-.567a3.466 3.466 0 0 1-2.451-5.917Z" fill="#606B85"/></svg>