<svg xmlns="http://www.w3.org/2000/svg" width="24" height="24" viewBox="0 0 24 24">
  <path fill="#666A6D" fill-rule="evenodd" d="M12,3.99933333 C16.4181424,3.99933333 20,7.58119096 20,11.9993333 C20,16.4174757 16.4181424,19.9993333 12,19.9993333 C7.58185763,19.9993333 4,16.4174757 4,11.9993333 C4,7.58119096 7.58185763,3.99933333 12,3.99933333 Z M12,4.99933333 C8.13414237,4.99933333 5,8.13347571 5,11.9993333 C5,15.865191 8.13414237,18.9993333 12,18.9993333 C15.8658576,18.9993333 19,15.865191 19,11.9993333 C19,8.13347571 15.8658576,4.99933333 12,4.99933333 Z M16.3100426,8.15973272 C16.5026143,8.31193874 16.5530982,8.57729285 16.4416779,8.78653681 L16.3922673,8.86204255 L11.1692477,15.4700942 C11.0898065,15.5745027 10.9928781,15.6654089 10.8814803,15.7408261 C10.3680213,16.0845555 9.68462079,15.9789924 9.30185635,15.5241168 L9.22460847,15.4213333 L7.59127514,13.1033333 C7.43221714,12.8776008 7.48626752,12.5656665 7.71200002,12.4066085 C7.91265114,12.2652236 8.18141235,12.2922206 8.3503714,12.4585046 L8.40872486,12.5273334 L10.0488261,14.8551864 C10.1098551,14.9463508 10.2339581,14.9709122 10.3230046,14.9113094 L10.351818,14.8881085 L10.3790661,14.8572908 L15.6077327,8.24195745 C15.7789645,8.02531421 16.0933993,7.98850095 16.3100426,8.15973272 Z"/>
</svg>
