<svg xmlns="http://www.w3.org/2000/svg" width="24" height="24" viewBox="0 0 24 24">
  <path fill="#707578" fill-rule="evenodd" d="M11.7489487,7.24407768 C12.0579349,7.54448098 12.0817031,8.01717353 11.8202532,8.34408287 L11.7489487,8.42258898 L8.07,12 L11.7489487,15.577411 C12.0579349,15.8778143 12.0817031,16.3505069 11.8202532,16.6774162 L11.7489487,16.7559223 C11.4399624,17.0563256 10.9537644,17.0794336 10.6175148,16.8252462 L10.5367656,16.7559223 L6.25105133,12.5892557 C5.94206508,12.2888523 5.9182969,11.8161598 6.17974681,11.4892505 L6.25105133,11.4107443 L10.5367656,7.24407768 C10.8715007,6.91864077 11.4142136,6.91864077 11.7489487,7.24407768 Z M17.7489487,7.24407768 C18.0579349,7.54448098 18.0817031,8.01717353 17.8202532,8.34408287 L17.7489487,8.42258898 L14.07,12 L17.7489487,15.577411 C18.0579349,15.8778143 18.0817031,16.3505069 17.8202532,16.6774162 L17.7489487,16.7559223 C17.4399624,17.0563256 16.9537644,17.0794336 16.6175148,16.8252462 L16.5367656,16.7559223 L12.2510513,12.5892557 C11.9420651,12.2888523 11.9182969,11.8161598 12.1797468,11.4892505 L12.2510513,11.4107443 L16.5367656,7.24407768 C16.8715007,6.91864077 17.4142136,6.91864077 17.7489487,7.24407768 Z"/>
</svg>
