<svg xmlns="http://www.w3.org/2000/svg" width="24" height="24" viewBox="0 0 24 24">
  <path fill="#707578" fill-rule="evenodd" d="M13.3824852,7.17475384 L13.4632344,7.24407768 L17.7489487,11.4107443 C18.0579349,11.7111477 18.0817031,12.1838402 17.8202532,12.5107495 L17.7489487,12.5892557 L13.4632344,16.7559223 C13.1284993,17.0813592 12.5857864,17.0813592 12.2510513,16.7559223 C11.9420651,16.455519 11.9182969,15.9828265 12.1797468,15.6559171 L12.2510513,15.577411 L15.93,12 L12.2510513,8.42258898 C11.9420651,8.12218568 11.9182969,7.64949314 12.1797468,7.3225838 L12.2510513,7.24407768 C12.5600376,6.94367438 13.0462356,6.92056643 13.3824852,7.17475384 Z M7.38248524,7.17475384 L7.46323438,7.24407768 L11.7489487,11.4107443 C12.0579349,11.7111477 12.0817031,12.1838402 11.8202532,12.5107495 L11.7489487,12.5892557 L7.46323438,16.7559223 C7.12849928,17.0813592 6.58578644,17.0813592 6.25105133,16.7559223 C5.94206508,16.455519 5.9182969,15.9828265 6.17974681,15.6559171 L6.25105133,15.577411 L9.93,12 L6.25105133,8.42258898 C5.94206508,8.12218568 5.9182969,7.64949314 6.17974681,7.3225838 L6.25105133,7.24407768 C6.56003758,6.94367438 7.04623563,6.92056643 7.38248524,7.17475384 Z"/>
</svg>
