<svg xmlns="http://www.w3.org/2000/svg" width="24" height="24" viewBox="0 0 24 24">
  <path fill="#707578" fill-rule="evenodd" d="M9.61289944,14.2097046 L9.70710678,14.2928932 L12,16.585 L14.2928932,14.2928932 C14.6533772,13.9324093 15.2206082,13.9046797 15.6128994,14.2097046 L15.7071068,14.2928932 C16.0675907,14.6533772 16.0953203,15.2206082 15.7902954,15.6128994 L15.7071068,15.7071068 L12.7071068,18.7071068 C12.3466228,19.0675907 11.7793918,19.0953203 11.3871006,18.7902954 L11.2928932,18.7071068 L8.29289322,15.7071068 C7.90236893,15.3165825 7.90236893,14.6834175 8.29289322,14.2928932 C8.65337718,13.9324093 9.22060824,13.9046797 9.61289944,14.2097046 Z M12.6128994,5.20970461 L12.7071068,5.29289322 L15.7071068,8.29289322 C16.0976311,8.68341751 16.0976311,9.31658249 15.7071068,9.70710678 C15.3466228,10.0675907 14.7793918,10.0953203 14.3871006,9.79029539 L14.2928932,9.70710678 L12,7.415 L9.70710678,9.70710678 C9.34662282,10.0675907 8.77939176,10.0953203 8.38710056,9.79029539 L8.29289322,9.70710678 C7.93240926,9.34662282 7.90467972,8.77939176 8.20970461,8.38710056 L8.29289322,8.29289322 L11.2928932,5.29289322 C11.6533772,4.93240926 12.2206082,4.90467972 12.6128994,5.20970461 Z"/>
</svg>
