<svg xmlns="http://www.w3.org/2000/svg" width="20" height="20" viewBox="0 0 20 20">
  <path fill="#707578" fill-rule="evenodd" d="M15.8580288,4.14197121 C16.0230688,4.30701122 16.0414902,4.56311669 15.9131258,4.74841205 L15.8634078,4.80896283 L10.6719504,9.99931082 L15.8634078,15.1910372 C16.0490778,15.3767072 16.0436988,15.6723588 15.8580288,15.8580288 C15.6929888,16.0230688 15.4368833,16.0414902 15.2515879,15.9131258 L15.1910372,15.8634078 L10,10.6712612 L4.80896283,15.8634078 C4.62329282,16.0490778 4.32764122,16.0436988 4.14197121,15.8580288 C3.97693119,15.6929888 3.95850979,15.4368833 4.08687425,15.2515879 L4.13659224,15.1910372 L9.32804964,9.99931082 L4.13659224,4.80896283 C3.95092223,4.62329282 3.95630119,4.32764122 4.14197121,4.14197121 C4.30701122,3.97693119 4.56311669,3.95850979 4.74841205,4.08687425 L4.80896283,4.13659224 L10,9.32736046 L15.1910372,4.13659224 C15.3767072,3.95092223 15.6723588,3.95630119 15.8580288,4.14197121 Z"/>
</svg>
