<svg xmlns="http://www.w3.org/2000/svg" width="24" height="24" viewBox="0 0 24 24">
  <path fill="#666A6D" fill-rule="evenodd" d="M18.0104076,5.98959236 C18.1797407,6.15892539 18.1986412,6.42169266 18.0669378,6.61180792 L18.0159265,6.67393375 L12.6894291,11.9992929 L18.0159265,17.3260662 C18.2064262,17.5165659 18.2009073,17.819908 18.0104076,18.0104076 C17.8410746,18.1797407 17.5783073,18.1986412 17.3881921,18.0669378 L17.3260662,18.0159265 L12,12.688722 L6.67393375,18.0159265 C6.4834341,18.2064262 6.18009201,18.2009073 5.98959236,18.0104076 C5.82025933,17.8410746 5.80135876,17.5783073 5.93306222,17.3881921 L5.98407348,17.3260662 L11.3105709,11.9992929 L5.98407348,6.67393375 C5.79357382,6.4834341 5.79909271,6.18009201 5.98959236,5.98959236 C6.15892539,5.82025933 6.42169266,5.80135876 6.61180792,5.93306222 L6.67393375,5.98407348 L12,11.3098638 L17.3260662,5.98407348 C17.5165659,5.79357382 17.819908,5.79909271 18.0104076,5.98959236 Z"/>
</svg>
