<svg xmlns="http://www.w3.org/2000/svg" width="24" height="24" viewBox="0 0 24 24">
  <path fill="#666A6D" fill-rule="evenodd" d="M0.669704612,0.847100557 L0.752893219,0.752893219 C1.11337718,0.392409257 1.68060824,0.364679722 2.07289944,0.669704612 L2.16710678,0.752893219 L12.0016667,10.5876667 L21.8362266,0.752893219 C22.1967105,0.392409257 22.7639416,0.364679722 23.1562328,0.669704612 L23.2504401,0.752893219 C23.6109241,1.11337718 23.6386536,1.68060824 23.3336287,2.07289944 L23.2504401,2.16710678 L13.4156667,12.0016667 L23.2504401,21.8362266 C23.6109241,22.1967105 23.6386536,22.7639416 23.3336287,23.1562328 L23.2504401,23.2504401 C22.8899562,23.6109241 22.3227251,23.6386536 21.9304339,23.3336287 L21.8362266,23.2504401 L12.0016667,13.4156667 L2.16710678,23.2504401 C1.80662282,23.6109241 1.23939176,23.6386536 0.847100557,23.3336287 L0.752893219,23.2504401 C0.392409257,22.8899562 0.364679722,22.3227251 0.669704612,21.9304339 L0.752893219,21.8362266 L10.5876667,12.0016667 L0.752893219,2.16710678 C0.392409257,1.80662282 0.364679722,1.23939176 0.669704612,0.847100557 L0.752893219,0.752893219 L0.669704612,0.847100557 Z"/>
</svg>
