<?xml version="1.0" encoding="UTF-8"?>
<svg width="20px" height="20px" viewBox="0 0 20 20" version="1.1" xmlns="http://www.w3.org/2000/svg" xmlns:xlink="http://www.w3.org/1999/xlink">
    <title>action/Close</title>
    <g id="action/Close" stroke="none" stroke-width="1" fill="none" fill-rule="evenodd">
        <path d="M15.7834702,8.78347025 L11.0155196,8.78347025 L11.0155196,4.01551963 C11.0155196,3.40003815 10.5149764,2.89949494 9.89949494,2.89949494 C9.28401346,2.89949494 8.78347025,3.40003815 8.78347025,4.01551963 L8.78347025,8.78347025 L4.01551963,8.78347025 C3.40003815,8.78347025 2.89949494,9.28401346 2.89949494,9.89949494 C2.89949494,10.5149764 3.40003815,11.0155196 4.01551963,11.0155196 L8.78347025,11.0155196 L8.78347025,15.7834702 C8.78347025,16.3989517 9.28401346,16.8994949 9.89949494,16.8994949 C10.5149764,16.8994949 11.0155196,16.3989517 11.0155196,15.7834702 L11.0155196,11.0155196 L15.7834702,11.0155196 C16.3989517,11.0155196 16.8994949,10.5149764 16.8994949,9.89949494 C16.8994949,9.28401346 16.3989517,8.78347025 15.7834702,8.78347025 Z" id="close" fill="#707578" transform="translate(9.899495, 9.899495) rotate(-315.000000) translate(-9.899495, -9.899495) "></path>
    </g>
</svg>