<svg xmlns="http://www.w3.org/2000/svg" width="24" height="24" viewBox="0 0 24 24">
  <path fill="#707578" fill-rule="evenodd" d="M17.8580288,6.14197121 C18.0230688,6.30701122 18.0414902,6.56311669 17.9131258,6.74841205 L17.8634078,6.80896283 L12.6719504,11.9993108 L17.8634078,17.1910372 C18.0490778,17.3767072 18.0436988,17.6723588 17.8580288,17.8580288 C17.6929888,18.0230688 17.4368833,18.0414902 17.2515879,17.9131258 L17.1910372,17.8634078 L12,12.6712612 L6.80896283,17.8634078 C6.62329282,18.0490778 6.32764122,18.0436988 6.14197121,17.8580288 C5.97693119,17.6929888 5.95850979,17.4368833 6.08687425,17.2515879 L6.13659224,17.1910372 L11.3280496,11.9993108 L6.13659224,6.80896283 C5.95092223,6.62329282 5.95630119,6.32764122 6.14197121,6.14197121 C6.30701122,5.97693119 6.56311669,5.95850979 6.74841205,6.08687425 L6.80896283,6.13659224 L12,11.3273605 L17.1910372,6.13659224 C17.3767072,5.95092223 17.6723588,5.95630119 17.8580288,6.14197121 Z"/>
</svg>
