<svg xmlns="http://www.w3.org/2000/svg" width="20" height="20" fill="none" viewBox="0 0 20 20">
  <path fill="#606B85" fill-rule="evenodd" d="M2 14.75c0 .69.56 1.25 1.25 1.25h13.5c.69 0 1.25-.56 1.25-1.25v-9.5C18 4.56 17.44 4 16.75 4H3.25C2.56 4 2 4.56 2 5.25v9.5Zm1-9.5A.25.25 0 0 1 3.25 5h13.5a.25.25 0 0 1 .25.25v9.5a.25.25 0 0 1-.25.25H3.25a.25.25 0 0 1-.25-.25v-9.5ZM6 13a.5.5 0 0 1-.355-.855l1.95-1.945a.255.255 0 0 0-.005-.355l-2-1.97a.5.5 0 1 1 .7-.71l2 1.97a1.25 1.25 0 0 1 0 1.77L6.375 12.83A.5.5 0 0 1 6 13Zm4.5 0H14a.5.5 0 0 0 0-1h-3.5a.5.5 0 0 0 0 1Z" clip-rule="evenodd"/>
</svg>
