<svg xmlns="http://www.w3.org/2000/svg" width="20" height="20" fill="none" viewBox="0 0 20 20">
  <path fill="#606B85" fill-rule="evenodd" d="M3.576 3.5H16.43c.404.001.797.15 1.094.423.298.275.474.656.475 1.063v10.02c0 .409-.177.793-.476 1.069a1.624 1.624 0 0 1-1.098.423H3.5c-.386 0-.763-.14-1.046-.403A1.388 1.388 0 0 1 2 15.075V4.992c0-.408.177-.792.476-1.068a1.626 1.626 0 0 1 1.1-.424Zm12.852 1H3.576a.624.624 0 0 0-.42.159.457.457 0 0 0-.155.334v10.082a.39.39 0 0 0 .132.286.544.544 0 0 0 .368.137h12.922a.624.624 0 0 0 .422-.158.458.458 0 0 0 .154-.334V4.989a.455.455 0 0 0-.153-.331.62.62 0 0 0-.418-.158Zm0 0Z" clip-rule="evenodd"/>
  <path fill="#606B85" fill-rule="evenodd" d="M12.646 7.647a.5.5 0 0 1 .707 0l2 1.998a.5.5 0 0 1 0 .707l-2 2a.5.5 0 0 1-.707-.707l1.647-1.646-1.646-1.645a.5.5 0 0 1 0-.707Zm-5.292 0a.5.5 0 0 1 0 .707L5.706 9.999l1.647 1.646a.5.5 0 0 1-.708.707l-2-2a.5.5 0 0 1 0-.707l2-1.999a.5.5 0 0 1 .708 0Zm3.87-.094a.5.5 0 0 1 .223.67l-2 4a.5.5 0 1 1-.894-.447l2-4a.5.5 0 0 1 .67-.223Z" clip-rule="evenodd"/>
</svg>
