<svg xmlns="http://www.w3.org/2000/svg" width="20" height="20" fill="none" viewBox="0 0 20 20">
  <path fill="#606B85" fill-rule="evenodd" d="M3.143 2.5a.643.643 0 0 0-.643.643v13.714c0 .355.288.643.643.643h13.714a.643.643 0 0 0 .643-.643V3.143a.643.643 0 0 0-.643-.643H3.143ZM1.5 3.143c0-.907.736-1.643 1.643-1.643h13.714c.908 0 1.643.736 1.643 1.643v13.714c0 .908-.735 1.643-1.643 1.643H3.143A1.643 1.643 0 0 1 1.5 16.857V3.143Z" clip-rule="evenodd"/>
  <path fill="#606B85" fill-rule="evenodd" d="M10 1.5a.5.5 0 0 1 .5.5v16a.5.5 0 0 1-1 0V2a.5.5 0 0 1 .5-.5Z" clip-rule="evenodd"/>
</svg>
