<svg width="20" height="20" viewBox="0 0 20 20" fill="none"><path fill-rule="evenodd" clip-rule="evenodd" d="M10 2a8 8 0 1 0 0 16 8 8 0 0 0 0-16Zm6.11 11.416a7 7 0 1 0-11.983.393 5 5 0 0 1 3.29-1.31 3.25 3.25 0 1 1 3.294-3.754.507.507 0 0 1 .018.133 3.25 3.25 0 0 1-3.144 3.62 5 5 0 0 1 3.374 1.389 3.503 3.503 0 0 1 1.651-1.197 2.249 2.249 0 0 1 1.14-4.19 2.25 2.25 0 0 1 1.14 4.19 3.5 3.5 0 0 1 1.22.726Zm-5.49 1.579a.499.499 0 0 0 .05.063l.005.007c.402.523.666 1.137.772 1.784a7 7 0 0 1-6.714-2.238 3.999 3.999 0 0 1 5.888.384Zm1.008-.319a2.501 2.501 0 0 1 3.922-.41 7.02 7.02 0 0 1-3.136 2.305 4.998 4.998 0 0 0-.786-1.895ZM9.643 8.562a2.251 2.251 0 0 0-3.851-.776 4.067 4.067 0 0 0 3.851.776ZM5.32 8.69a5.067 5.067 0 0 0 4.406.89 2.25 2.25 0 1 1-4.406-.89ZM13.75 12a1.25 1.25 0 1 0 0-2.5 1.25 1.25 0 0 0 0 2.5Z" fill="#606B85"/></svg>