<svg xmlns="http://www.w3.org/2000/svg" width="24" height="24" viewBox="0 0 24 24">
  <path fill="#666A6D" fill-rule="evenodd" d="M17,1 C17.5128358,1 17.9355072,1.38604019 17.9932723,1.88337887 L18,2 L18,6 L22,6 C22.5128358,6 22.9355072,6.38604019 22.9932723,6.88337887 L23,7 L23,22 C23,22.5522847 22.5522847,23 22,23 L22,23 L7,23 C6.44771525,23 6,22.5522847 6,22 L6,22 L6,18 L2,18 C1.48716416,18 1.06449284,17.6139598 1.00672773,17.1166211 L1,17 L1,2 C1,1.48716416 1.38604019,1.06449284 1.88337887,1.00672773 L2,1 L17,1 Z M21,8 L8,8 L8,21 L21,21 L21,8 Z M16,6 L16,3 L3,3 L3,16 L6,16 L6,7 C6,6.48716416 6.38604019,6.06449284 6.88337887,6.00672773 L7,6 L16,6 Z"/>
</svg>
