<svg xmlns="http://www.w3.org/2000/svg" width="20" height="20" viewBox="0 0 20 20">
  <path fill="#707578" fill-rule="evenodd" d="M13.46875,2.5 C14.0997785,2.5 14.6187956,2.9795778 14.6812077,3.59413989 L14.6875,3.71875 L14.687,5.312 L16.09375,5.3125 C16.8247151,5.3125 17.4254206,5.87020758 17.4935626,6.58331874 L17.5,6.71875 L17.5,16.09375 C17.5,16.8704004 16.8704004,17.5 16.09375,17.5 L16.09375,17.5 L6.71875,17.5 C5.94209957,17.5 5.3125,16.8704004 5.3125,16.09375 L5.3125,16.09375 L5.312,14.687 L3.71875,14.6875 C3.08772153,14.6875 2.56870445,14.2079222 2.50629227,13.5933601 L2.5,13.46875 L2.5,3.71875 C2.5,3.08772153 2.9795778,2.56870445 3.59413989,2.50629227 L3.71875,2.5 L13.46875,2.5 Z M16.09375,6.25 L6.71875,6.25 C6.45986652,6.25 6.25,6.45986652 6.25,6.71875 L6.25,6.71875 L6.25,16.09375 C6.25,16.3526335 6.45986652,16.5625 6.71875,16.5625 L6.71875,16.5625 L16.09375,16.5625 C16.3526335,16.5625 16.5625,16.3526335 16.5625,16.09375 L16.5625,16.09375 L16.5625,6.71875 C16.5625,6.45986652 16.3526335,6.25 16.09375,6.25 L16.09375,6.25 Z M13.46875,3.4375 L3.71875,3.4375 C3.58560993,3.4375 3.47407733,3.53001259 3.44492801,3.65426196 L3.4375,3.71875 L3.4375,13.46875 C3.4375,13.6018901 3.53001259,13.7134227 3.65426196,13.742572 L3.71875,13.75 L5.312,13.749 L5.3125,6.71875 C5.3125,5.98778489 5.87020758,5.38707936 6.58331874,5.31893742 L6.71875,5.3125 L13.75,5.312 L13.75,3.71875 C13.75,3.58560993 13.6574874,3.47407733 13.533238,3.44492801 L13.46875,3.4375 Z"/>
</svg>
