<svg xmlns="http://www.w3.org/2000/svg" xmlns:xlink="http://www.w3.org/1999/xlink" x="0px" y="0px" viewBox="0 0 1024 1024" xml:space="preserve">
 <path d="M751.167,204.79999999999995C751.167,204.79999999999995,751.167,0,751.167,0C751.167,0,68.5,0,68.5,0C68.5,0,68.5,819.2,68.5,819.2C68.5,819.2,273.3,819.2,273.3,819.2C273.3,819.2,273.3,1024,273.3,1024C273.3,1024,955.967,1024,955.967,1024C955.967,1024,955.967,204.79999999999995,955.967,204.79999999999995C955.967,204.79999999999995,751.167,204.79999999999995,751.167,204.79999999999995C751.167,204.79999999999995,751.167,204.79999999999995,751.167,204.79999999999995M887.7,955.733C887.7,955.733,341.567,955.733,341.567,955.733C341.567,955.733,341.567,819.2,341.567,819.2C341.567,819.2,341.567,785.067,341.567,785.067C341.567,785.067,341.567,750.933,341.567,750.933C341.567,750.933,341.567,273.067,341.567,273.067C341.567,273.067,682.9,273.067,682.9,273.067C682.9,273.067,717.033,273.067,717.033,273.067C717.033,273.067,751.167,273.067,751.167,273.067C751.167,273.067,887.7,273.067,887.7,273.067C887.7,273.067,887.7,955.733,887.7,955.733C887.7,955.733,887.7,955.733,887.7,955.733M136.767,68.26700000000005C136.767,68.26700000000005,682.9,68.26700000000005,682.9,68.26700000000005C682.9,68.26700000000005,682.9,204.79999999999995,682.9,204.79999999999995C682.9,204.79999999999995,273.3,204.79999999999995,273.3,204.79999999999995C273.3,204.79999999999995,273.3,750.933,273.3,750.933C273.3,750.933,136.767,750.933,136.767,750.933C136.767,750.933,136.767,68.26700000000005,136.767,68.26700000000005C136.767,68.26700000000005,136.767,68.26700000000005,136.767,68.26700000000005" />
 </svg>
