<svg xmlns="http://www.w3.org/2000/svg" width="24" height="24" viewBox="0 0 24 24">
  <path fill="#666A6D" fill-rule="evenodd" d="M15.7,4 C16.373097,4 16.9267153,4.51154965 16.9932882,5.16708255 L17,5.3 L17,7 L18.5,7 C19.2796961,7 19.9204487,7.59488808 19.9931334,8.35553999 L20,8.5 L20,18.5 C20,19.3284271 19.3284271,20 18.5,20 L18.5,20 L8.5,20 C7.67157288,20 7,19.3284271 7,18.5 L7,18.5 L7,17 L5.3,17 C4.62690296,17 4.07328475,16.4884503 4.00671175,15.8329174 L4,15.7 L4,5.3 C4,4.62690296 4.51154965,4.07328475 5.16708255,4.00671175 L5.3,4 L15.7,4 Z M18.5,8 L8.5,8 C8.22385763,8 8,8.22385763 8,8.5 L8,8.5 L8,18.5 C8,18.7761424 8.22385763,19 8.5,19 L8.5,19 L18.5,19 C18.7761424,19 19,18.7761424 19,18.5 L19,18.5 L19,8.5 C19,8.22385763 18.7761424,8 18.5,8 L18.5,8 Z M15.7687872,5.00792321 L15.7,5 L5.3,5 C5.15798392,5 5.03901581,5.0986801 5.00792321,5.23121275 L5,5.3 L5,15.7 C5,15.8420161 5.0986801,15.9609842 5.23121275,15.9920768 L5.3,16 L7,16 L7,8.5 C7,7.72030388 7.59488808,7.07955132 8.35553999,7.00686658 L8.5,7 L16,7 L16,5.3 C16,5.15798392 15.9013199,5.03901581 15.7687872,5.00792321 Z"/>
</svg>
