<svg width="20" height="20" viewBox="0 0 20 20" fill="none" xmlns="http://www.w3.org/2000/svg">
<path fill-rule="evenodd" clip-rule="evenodd" d="M4.75332 3.78227L4.83881 3.60099C5.62653 2.12645 7.46053 1.56998 8.93477 2.35787C9.18005 2.48873 9.40765 2.65442 9.61178 2.85057L10 3.22761L10.39 2.84946C11.55 1.7298 13.373 1.72129 14.543 2.80074L14.6703 2.92515C14.8164 3.07662 14.946 3.2422 15.0652 3.43319L15.1652 3.60734C15.7435 4.73289 15.514 6.10458 14.6097 6.97311L11.0356 10.5953C10.4715 11.1672 9.55127 11.1734 8.97662 10.6076L5.26834 6.84499C4.51652 6.02172 4.30885 4.82961 4.75332 3.78227ZM8.9897 3.49413C8.84647 3.35651 8.6857 3.23947 8.51313 3.1474L8.37607 3.08022C7.36374 2.62765 6.15942 3.02851 5.63897 4.00145L5.57076 4.14658C5.25293 4.89602 5.42995 5.76707 6.02757 6.34191L9.59949 9.96462L9.68513 10.0365C9.90438 10.186 10.2055 10.1623 10.3984 9.96675L13.9811 6.33608C14.6087 5.73305 14.7665 4.79002 14.3796 4.03577L14.2983 3.8945C14.2203 3.76989 14.1292 3.65344 14.0262 3.5467C13.2083 2.69946 11.859 2.67562 11.0127 3.49247L10.3118 4.17316C10.1381 4.34188 9.86167 4.34182 9.68802 4.17301L8.9897 3.49413Z" fill="#606B85"/>
<path d="M3.45455 9.14077C4.21532 9.14077 4.84009 9.72547 4.90375 10.4698L4.90909 10.5952V13.1126C4.90909 13.3597 4.70871 13.5601 4.46154 13.5601C4.24183 13.5601 4.05909 13.4018 4.0212 13.193L4.01399 13.1126V10.5952C4.01399 10.2866 3.76323 10.0358 3.45455 10.0358C3.17392 10.0358 2.94118 10.243 2.90118 10.5126L2.8951 10.5952V14.0671C2.8951 14.5864 3.05224 15.0919 3.33804 15.5118L3.45119 15.6651L4.80324 17.2634C4.96287 17.4522 4.93929 17.7345 4.75057 17.8941C4.58282 18.036 4.34106 18.0332 4.17729 17.8982L4.11983 17.8415L2.75992 16.2336C2.31274 15.6743 2.05058 14.9922 2.00661 14.2812L2 14.0671V10.5952C2 9.79224 2.65151 9.14077 3.45455 9.14077Z" fill="#606B85"/>
<path d="M4.68592 12.0106C5.30328 11.6376 6.09473 11.8024 6.50711 12.3557L7.34655 13.6119C7.68485 14.1186 7.88278 14.7047 7.92259 15.3106L7.93007 15.5386V17.5525C7.93007 17.7996 7.72969 18 7.48252 18C7.2628 18 7.08007 17.8417 7.04218 17.6329L7.03496 17.5525V15.5386C7.03496 15.0929 6.91967 14.6562 6.70177 14.2708L6.60214 14.1089L5.82461 12.9439C5.69942 12.7367 5.44665 12.6547 5.22357 12.7407L5.13897 12.7827L5.12988 12.7887C4.95001 12.9094 4.87291 13.1302 4.91867 13.3109L4.94586 13.3855L5.8535 14.8959C5.98081 15.1078 5.91226 15.3827 5.70039 15.51C5.51206 15.6232 5.27388 15.5816 5.13387 15.4222L5.08625 15.3569L4.16143 13.8151C3.8707 13.23 4.0292 12.5281 4.52794 12.1219L4.66284 12.0247L4.68592 12.0106Z" fill="#606B85"/>
<path d="M16.5455 9.14077C17.3062 9.14077 17.931 9.72547 17.9947 10.4698L18 10.5952V14.0671C18 14.7829 17.7785 15.4793 17.3627 16.0694L17.2322 16.2431L15.8802 17.8415C15.7205 18.0302 15.4381 18.0538 15.2494 17.8941C15.0817 17.7523 15.0444 17.5134 15.1503 17.3295L15.1968 17.2634L16.541 15.6747C16.8655 15.2688 17.0587 14.7759 17.0976 14.2611L17.1049 14.0671V10.5952C17.1049 10.2866 16.8541 10.0358 16.5455 10.0358C16.2648 10.0358 16.0321 10.243 15.9921 10.5126L15.986 10.5952V13.1126C15.986 13.3597 15.7856 13.5601 15.5385 13.5601C15.3187 13.5601 15.136 13.4018 15.0981 13.193L15.0909 13.1126V10.5952C15.0909 9.79224 15.7424 9.14077 16.5455 9.14077Z" fill="#606B85"/>
<path d="M12.6534 13.612L13.4086 12.4808C13.7797 11.8627 14.5562 11.6375 15.1893 11.9383L15.3481 12.0266L15.3678 12.04C15.9139 12.4041 16.1257 13.0951 15.8784 13.721L15.8227 13.8452L14.9151 15.3556C14.7878 15.5674 14.5128 15.636 14.301 15.5087C14.1126 15.3955 14.0375 15.1657 14.1126 14.9672L14.1478 14.8946L15.0388 13.4145C15.1376 13.2169 15.092 12.9821 14.9255 12.8287L14.852 12.7722C14.6447 12.648 14.3825 12.6941 14.2204 12.8823L14.1647 12.9595L13.3979 14.1089C13.1509 14.4788 13.0047 14.906 12.9721 15.3482L12.965 15.5386V17.5525C12.965 17.7996 12.7647 18 12.5175 18C12.2978 18 12.115 17.8417 12.0771 17.6329L12.0699 17.5525V15.5386C12.0699 14.9287 12.2303 14.3312 12.5331 13.8056L12.6534 13.612Z" fill="#606B85"/>
</svg>
