<svg xmlns="http://www.w3.org/2000/svg" width="20" height="20" viewBox="0 0 20 20">
  <path fill="#606B85" fill-rule="evenodd" d="M9.49866667,4.99933333 C9.77480904,4.99933333 9.99866667,5.22319096 9.99866667,5.49933333 C9.99866667,5.74479322 9.82179151,5.9489417 9.5885423,5.99127766 L9.49866667,5.99933333 L4.49866667,5.99933333 C4.25320678,5.99933333 4.0490583,6.17620849 4.00672234,6.4094577 L3.99866667,6.49933333 L3.99866667,16.4993333 C3.99866667,16.7447932 4.17554183,16.9489417 4.40879103,16.9912777 L4.49866667,16.9993333 L14.4986667,16.9993333 C14.7441266,16.9993333 14.948275,16.8224582 14.990611,16.589209 L14.9986667,16.4993333 L14.9986667,11.4993333 C14.9986667,11.223191 15.2225243,10.9993333 15.4986667,10.9993333 C15.7441266,10.9993333 15.948275,11.1762085 15.990611,11.4094577 L15.9986667,11.4993333 L15.9986667,16.4993333 C15.9986667,17.2790295 15.4037786,17.919782 14.6431267,17.9924668 L14.4986667,17.9993333 L4.49866667,17.9993333 C3.71897055,17.9993333 3.07821799,17.4044453 3.00553324,16.6437933 L2.99866667,16.4993333 L2.99866667,6.49933333 C2.99866667,5.71963722 3.59355475,5.07888466 4.35420666,5.00619991 L4.49866667,4.99933333 L9.49866667,4.99933333 Z M16.6133124,2.07840503 C17.3336823,1.98804322 18.0252378,1.99028314 18.5051484,2.04223784 C18.7377164,2.06741543 18.921742,2.25047789 18.9481396,2.48291051 C19.2546433,5.18169298 18.1519678,7.47871079 16.1988212,8.9245385 C14.6913848,10.0404267 12.8966466,10.4417405 11.8243824,9.87344301 L9.67288672,12.0248867 C9.47762458,12.2201489 9.16104209,12.2201489 8.96577994,12.0248867 C8.79221359,11.8513204 8.77292844,11.581896 8.90792449,11.3870278 L8.96577994,11.3177799 L11.1175262,9.1650127 C10.2896539,7.58409916 11.6396478,4.47591773 13.7221975,3.08427678 C14.5492136,2.53163241 15.5388886,2.21317868 16.6133124,2.07840503 Z M17.8623668,3.00678744 C17.5270112,3.00251404 17.1372054,3.02052554 16.7377751,3.07062931 C15.8058094,3.18753329 14.9604551,3.45954808 14.2778025,3.91572322 C12.7097454,4.96356009 11.6498274,7.24678348 11.8886447,8.39495277 L14.8551133,5.42844661 C15.0503754,5.23318446 15.3669579,5.23318446 15.5622201,5.42844661 C15.7357864,5.60201296 15.7550716,5.87143736 15.6200755,6.0663055 L15.5622201,6.13555339 L12.598523,9.09877137 C13.322842,9.24821887 14.5277168,8.91740513 15.6038455,8.12079484 C17.1516485,6.97502495 18.0702934,5.22125227 17.9944247,3.12641619 L17.9944247,3.12641619 L17.987,3.009 Z"/>
</svg>
