<svg width="20" height="20" fill="none" xmlns="http://www.w3.org/2000/svg"><path fill-rule="evenodd" clip-rule="evenodd" d="M7.023 7h5.956c.8.003 1.567.32 2.133.882A3 3 0 0 1 16 9.998v.004a3 3 0 0 1-.888 2.116 3.045 3.045 0 0 1-2.133.882H7.021a3.045 3.045 0 0 1-2.133-.882A3 3 0 0 1 4 10.002v-.004a3 3 0 0 1 .888-2.116A3.045 3.045 0 0 1 7.021 7h.002Zm0 .956a2.078 2.078 0 0 0-1.454.602A2.047 2.047 0 0 0 4.963 10c.003.541.22 1.06.606 1.442.386.383.909.6 1.455.602h5.952a2.079 2.079 0 0 0 1.455-.602c.385-.382.603-.9.606-1.442a2.047 2.047 0 0 0-.606-1.442 2.078 2.078 0 0 0-1.455-.602H7.024Z" fill="#606B85"/><path fill-rule="evenodd" clip-rule="evenodd" d="M11.747 8.911a1.557 1.557 0 0 1 2.194 0 1.534 1.534 0 0 1 0 2.178 1.557 1.557 0 0 1-2.194 0 1.534 1.534 0 0 1 0-2.178Zm1.097.505a.59.59 0 0 0-.416.171.582.582 0 0 0 .416.997.59.59 0 0 0 .416-.171.582.582 0 0 0-.416-.997Z" fill="#606B85"/></svg>