<svg width="20" height="20" viewBox="0 0 20 20" fill="none" xmlns="http://www.w3.org/2000/svg">
<path fill-rule="evenodd" clip-rule="evenodd" d="M8.29309 3.2929C8.48063 3.10536 8.73499 3 9.00021 3H11.0003C11.2655 3 11.5199 3.10536 11.7074 3.2929C11.8949 3.48044 12.0003 3.73479 12.0003 4.00002V16.0004H13.0004V8.00012C13.0004 7.7349 13.1057 7.48054 13.2933 7.293C13.4808 7.10546 13.7352 7.0001 14.0004 7.0001H16.0004C16.2657 7.0001 16.52 7.10546 16.7076 7.293C16.8951 7.48054 17.0005 7.7349 17.0005 8.00012V16.0004H17.5005C17.7766 16.0004 18.0005 16.2243 18.0005 16.5004C18.0005 16.7766 17.7766 17.0004 17.5005 17.0004H16.5019C16.5014 17.0004 16.5009 17.0004 16.5005 17.0004H13.5004C13.4999 17.0004 13.4994 17.0004 13.499 17.0004H2.5C2.22386 17.0004 2 16.7766 2 16.5004C2 16.2243 2.22386 16.0004 2.5 16.0004H3.00004V10.0002C3.00004 9.73499 3.1054 9.48063 3.29293 9.29309C3.48047 9.10555 3.73483 9.00019 4.00005 9.00019H6.00012C6.26534 9.00019 6.5197 9.10555 6.70724 9.29309C6.89478 9.48063 7.00013 9.73499 7.00013 10.0002V16.0004H8.00019V4.00002C8.00019 3.73479 8.10555 3.48044 8.29309 3.2929ZM16.0005 16.0004V8.00012L16.0005 8.00011L16.0004 8.0001H14.0004L14.0004 8.00011L14.0004 8.00012V16.0004H16.0005ZM9.00021 4L9.0002 4L9.00019 4.00002V16.0004H11.0003V4.00002L11.0003 4L11.0003 4H9.00021ZM4.00004 10.0002L4.00005 10.0002H6.00012L6.00013 10.0002L6.00013 10.0002V16.0004H4.00004V10.0002L4.00004 10.0002Z" fill="#606B85"/>
</svg>
