<svg fill="none" xmlns="http://www.w3.org/2000/svg" viewBox="0 0 20 20"><path fill-rule="evenodd" clip-rule="evenodd" d="M13.674 5.294a1.21 1.21 0 0 0-.907-.29h-.91a.5.5 0 0 1 0-1h.894a2.21 2.21 0 0 1 2.337 2.071v1.507a1.024 1.024 0 0 0 .56.88l1.922 1.105a.5.5 0 0 1 0 .867l-1.922 1.104-.014.008a1.027 1.027 0 0 0-.546.873v1.507l-.001.04a2.21 2.21 0 0 1-2.336 2.03h-.895a.5.5 0 0 1 0-1h.911l.034.001a1.21 1.21 0 0 0 1.287-1.092v-1.508a2.027 2.027 0 0 1 1.069-1.73l1.16-.667-1.16-.667a2.025 2.025 0 0 1-1.069-1.73V6.097a1.21 1.21 0 0 0-.414-.803ZM7.32 4.004h.895a.5.5 0 0 1 0 1h-.91l-.035-.001a1.21 1.21 0 0 0-1.287 1.094v1.506a2.025 2.025 0 0 1-1.069 1.73L3.753 10l1.16.667a2.028 2.028 0 0 1 1.069 1.73v1.508a1.21 1.21 0 0 0 1.321 1.091h.91a.5.5 0 0 1 0 1H7.32a2.21 2.21 0 0 1-2.337-2.07v-1.508a1.027 1.027 0 0 0-.545-.872l-.015-.008L2.5 10.434a.5.5 0 0 1 0-.867l1.92-1.105a1.025 1.025 0 0 0 .56-.88V6.075a2.21 2.21 0 0 1 2.337-2.071Z" fill="#606B85"/></svg>