<svg width="20" height="20" viewBox="0 0 20 20" fill="none" xmlns="http://www.w3.org/2000/svg">
<path fill-rule="evenodd" clip-rule="evenodd" d="M5.05025 14.9497C3.7375 13.637 3 11.8565 3 10C3 8.14348 3.7375 6.36301 5.05025 5.05025C6.36301 3.7375 8.14348 3 10 3C11.8565 3 13.637 3.7375 14.9497 5.05025C16.2625 6.36301 17 8.14348 17 10C17 11.8565 16.2625 13.637 14.9497 14.9497C13.637 16.2625 11.8565 17 10 17C8.14348 17 6.36301 16.2625 5.05025 14.9497ZM15.9791 9.5C15.8614 8.09183 15.2494 6.76412 14.2426 5.75736C13.2359 4.7506 11.9082 4.13856 10.5 4.02085V9.5H15.9791ZM9.5 4.02085C8.09183 4.13856 6.76412 4.7506 5.75736 5.75736C4.63214 6.88258 4 8.4087 4 10C4 11.5913 4.63214 13.1174 5.75736 14.2426C6.88258 15.3679 8.4087 16 10 16C10.843 16 11.6677 15.8226 12.4242 15.4885L9.5655 10.2476C9.54359 10.2092 9.52661 10.1676 9.51544 10.1238C9.50416 10.0798 9.49913 10.035 9.5 9.99069V4.02085ZM10.8423 10.5H15.9791C15.8614 11.9082 15.2494 13.2359 14.2426 14.2426C13.9537 14.5316 13.6382 14.7881 13.3021 15.0096L10.8423 10.5Z" fill="#606B85"/>
</svg>
