<svg width="20" height="20" viewBox="0 0 20 20" fill="none" xmlns="http://www.w3.org/2000/svg">
<path d="M4 3.5C4 3.22386 3.77614 3 3.5 3C3.22386 3 3 3.22386 3 3.5V16.5C3 16.7761 3.22386 17 3.5 17H16.5C16.7761 17 17 16.7761 17 16.5C17 16.2239 16.7761 16 16.5 16H4V3.5Z" fill="#606B85"/>
<path d="M15.8536 8.35351C16.0488 8.15822 16.0488 7.84164 15.8535 7.6464C15.6582 7.45116 15.3416 7.4512 15.1464 7.64649L11.8389 10.9548C11.8273 10.9664 11.8134 10.9757 11.7983 10.982C11.7831 10.9883 11.7668 10.9915 11.7504 10.9915C11.734 10.9915 11.7177 10.9883 11.7026 10.982C11.6874 10.9757 11.6736 10.9665 11.662 10.9549L10.0462 9.33906C9.94171 9.23457 9.81759 9.15157 9.6811 9.09501C9.54456 9.03842 9.39821 9.0093 9.25042 9.0093C9.10262 9.0093 8.95627 9.03842 8.81973 9.09501C8.68326 9.15156 8.55927 9.23444 8.45482 9.3389L5.14649 12.6464C4.9512 12.8416 4.95116 13.1582 5.1464 13.3535C5.34164 13.5488 5.65822 13.5488 5.85351 13.3536L9.16184 10.0461C9.17345 10.0345 9.18739 10.0251 9.20256 10.0188C9.21773 10.0125 9.23399 10.0093 9.25042 10.0093C9.26684 10.0093 9.2831 10.0125 9.29827 10.0188C9.31344 10.0251 9.32722 10.0343 9.33883 10.0459L10.9547 11.6618C11.0591 11.7663 11.1832 11.8492 11.3197 11.9058C11.4563 11.9624 11.6026 11.9915 11.7504 11.9915C11.8982 11.9915 12.0446 11.9624 12.1811 11.9058C12.3176 11.8493 12.4416 11.7664 12.5461 11.6618L15.8536 8.35351Z" fill="#606B85"/>
</svg>
