<svg fill="none" xmlns="http://www.w3.org/2000/svg" viewBox="0 0 20 20"><path fill-rule="evenodd" clip-rule="evenodd" d="M3.877 7a.46.46 0 0 1 .461.461v5.748a.461.461 0 0 1-.922 0V7.46a.46.46 0 0 1 .461-.461Z" fill="#606B85"/><path fill-rule="evenodd" clip-rule="evenodd" d="M3.877 7a.46.46 0 0 1 .461.461c0 1.049-.85 1.898-1.898 1.898h-.479a.461.461 0 1 1 0-.922h.48a.976.976 0 0 0 .975-.976A.46.46 0 0 1 3.877 7ZM1.5 13.209a.46.46 0 0 1 .461-.461h3.832a.461.461 0 1 1 0 .922H1.96a.461.461 0 0 1-.461-.461ZM15.552 7h.718a1.778 1.778 0 0 1 1.27 3.023c.455.347.748.894.748 1.51v.239c0 1.048-.85 1.898-1.898 1.898h-.958c-.827 0-1.53-.529-1.79-1.265a.461.461 0 0 1 .87-.308c.134.38.496.65.92.65h.958a.976.976 0 0 0 .976-.975v-.24a.976.976 0 0 0-.976-.975h-.479a.461.461 0 0 1 0-.923h.36a.856.856 0 0 0 0-1.712h-.72a.856.856 0 0 0-.823.623.461.461 0 0 1-.887-.251A1.779 1.779 0 0 1 15.55 7ZM7.666 8.265A1.899 1.899 0 0 1 9.456 7h.995a1.86 1.86 0 0 1 .746 3.566l-2.132.932a.976.976 0 0 0-.585.894v.356h3.37a.461.461 0 0 1 0 .922H8.02a.461.461 0 0 1-.461-.461v-.817c0-.754.446-1.436 1.137-1.739l2.132-.932a.938.938 0 0 0-.376-1.799h-.995a.976.976 0 0 0-.92.65.461.461 0 0 1-.87-.307Z" fill="#606B85"/></svg>