<svg fill="none" xmlns="http://www.w3.org/2000/svg" viewBox="0 0 20 20"><path fill-rule="evenodd" clip-rule="evenodd" d="M5.233 5A.233.233 0 0 0 5 5.233v9.534a.233.233 0 0 0 .233.233h1.833a.5.5 0 0 1 0 1H5.233A1.233 1.233 0 0 1 4 14.767V5.233A1.233 1.233 0 0 1 5.233 4h1.833a.5.5 0 0 1 0 1H5.233Zm7.2-.5a.5.5 0 0 1 .5-.5h1.833A1.233 1.233 0 0 1 16 5.233v9.534A1.233 1.233 0 0 1 14.766 16h-1.833a.5.5 0 0 1 0-1h1.833a.234.234 0 0 0 .233-.233V5.233A.234.234 0 0 0 14.766 5h-1.833a.5.5 0 0 1-.5-.5Z" fill="#606B85"/></svg>