<svg width="20" height="20" fill="none" xmlns="http://www.w3.org/2000/svg"><path fill-rule="evenodd" clip-rule="evenodd" d="M3.715 8.106a.155.155 0 0 1 .295 0l.89 2.673H2.825l.89-2.673ZM2.49 11.78h2.744l.516 1.548a.5.5 0 1 0 .949-.316l-1.74-5.22a1.155 1.155 0 0 0-2.193 0l-1.74 5.22a.5.5 0 0 0 .948.316l.516-1.548ZM8.623 7a.5.5 0 0 0-.5.5v5.67a.5.5 0 0 0 .5.5h2.244a2.035 2.035 0 0 0 1.146-3.719A1.8 1.8 0 0 0 10.631 7H8.623Zm.5 3.598h1.744a1.035 1.035 0 1 1 0 2.071H9.123V10.6Zm1.516-1A.8.8 0 0 0 10.631 8H9.123v1.598h1.516Zm3.662-.68c0-1.06.859-1.918 1.918-1.918h.944c.836 0 1.546.534 1.809 1.278a.5.5 0 0 1-.943.333.918.918 0 0 0-.866-.611h-.944a.917.917 0 0 0-.918.917v2.835c0 .506.411.917.918.917h.944c.4 0 .74-.254.866-.611a.5.5 0 0 1 .943.333 1.918 1.918 0 0 1-1.809 1.278h-.944a1.917 1.917 0 0 1-1.918-1.917V8.917Z" fill="#606B85"/></svg>