<svg xmlns="http://www.w3.org/2000/svg" width="24" height="24" viewBox="0 0 24 24">
  <path fill="#666A6D" fill-rule="evenodd" d="M14.25,4 C15.2164983,4 16,4.78350169 16,5.75 L16,5.75 L15.999,7 L19.5,7 C19.7761424,7 20,7.22385763 20,7.5 C20,7.74545989 19.8231248,7.94960837 19.5898756,7.99194433 L19.5,8 L17.999,8 L18,18.25 C18,19.1681734 17.2928897,19.9211923 16.3935272,19.9941988 L16.25,20 L7.74,20 C6.77415762,20 6,19.2171909 6,18.25 L6,18.25 L5.999,8 L4.5,8 C4.22385763,8 4,7.77614237 4,7.5 C4,7.25454011 4.17687516,7.05039163 4.41012437,7.00805567 L4.5,7 L7.999,7 L8,5.75 C8,4.8318266 8.70711027,4.07880766 9.60647279,4.0058012 L9.75,4 Z M16.999,8 L6.999,8 L7,18.25 C7,18.632597 7.27640549,18.9439745 7.6390898,18.9932138 L7.6390898,18.9932138 L7.74,19 L16.25,19 C16.6642136,19 17,18.6642136 17,18.25 L17,18.25 L16.999,8 Z M10.5,11 C10.7454599,11 10.9496084,11.1768752 10.9919443,11.4101244 L11,11.5 L11,15.5 C11,15.7761424 10.7761424,16 10.5,16 C10.2545401,16 10.0503916,15.8231248 10.0080557,15.5898756 L10,15.5 L10,11.5 C10,11.2238576 10.2238576,11 10.5,11 Z M13.5,11 C13.7454599,11 13.9496084,11.1768752 13.9919443,11.4101244 L14,11.5 L14,15.5 C14,15.7761424 13.7761424,16 13.5,16 C13.2545401,16 13.0503916,15.8231248 13.0080557,15.5898756 L13,15.5 L13,11.5 C13,11.2238576 13.2238576,11 13.5,11 Z M14.25,5 L9.75,5 C9.33578644,5 9,5.33578644 9,5.75 L9,5.75 L8.999,7 L14.999,7 L15,5.75 C15,5.37030423 14.7178461,5.05650904 14.3517706,5.00684662 L14.3517706,5.00684662 L14.25,5 Z"/>
</svg>
