<svg xmlns="http://www.w3.org/2000/svg" width="20" height="20" viewBox="0 0 20 20">
  <path fill="#707578" fill-rule="evenodd" d="M12.25,2 C13.2164983,2 14,2.78350169 14,3.75 L14,3.75 L13.999,5 L17.5,5 C17.7761424,5 18,5.22385763 18,5.5 C18,5.74545989 17.8231248,5.94960837 17.5898756,5.99194433 L17.5,6 L15.999,6 L16,16.25 C16,17.1681734 15.2928897,17.9211923 14.3935272,17.9941988 L14.25,18 L5.74,18 C4.77415762,18 4,17.2171909 4,16.25 L4,16.25 L3.999,6 L2.5,6 C2.22385763,6 2,5.77614237 2,5.5 C2,5.25454011 2.17687516,5.05039163 2.41012437,5.00805567 L2.5,5 L5.999,5 L6,3.75 C6,2.8318266 6.70711027,2.07880766 7.60647279,2.0058012 L7.75,2 Z M14.999,6 L4.999,6 L5,16.25 C5,16.632597 5.27640549,16.9439745 5.6390898,16.9932138 L5.6390898,16.9932138 L5.74,17 L14.25,17 C14.6642136,17 15,16.6642136 15,16.25 L15,16.25 L14.999,6 Z M8.5,9 C8.74545989,9 8.94960837,9.17687516 8.99194433,9.41012437 L9,9.5 L9,13.5 C9,13.7761424 8.77614237,14 8.5,14 C8.25454011,14 8.05039163,13.8231248 8.00805567,13.5898756 L8,13.5 L8,9.5 C8,9.22385763 8.22385763,9 8.5,9 Z M11.5,9 C11.7454599,9 11.9496084,9.17687516 11.9919443,9.41012437 L12,9.5 L12,13.5 C12,13.7761424 11.7761424,14 11.5,14 C11.2545401,14 11.0503916,13.8231248 11.0080557,13.5898756 L11,13.5 L11,9.5 C11,9.22385763 11.2238576,9 11.5,9 Z M12.25,3 L7.75,3 C7.33578644,3 7,3.33578644 7,3.75 L7,3.75 L6.999,5 L12.999,5 L13,3.75 C13,3.37030423 12.7178461,3.05650904 12.3517706,3.00684662 L12.3517706,3.00684662 L12.25,3 Z"/>
</svg>
