<svg width="20" height="20" viewBox="0 0 20 20" fill="none"><path d="M11.922 6.828a.5.5 0 0 1 .078.703l-2.106 2.633a.498.498 0 0 1-.787 0L7.001 7.531a.5.5 0 0 1 .78-.625l1.22 1.524V7.22A3.719 3.719 0 0 0 5.28 3.5H4.228a.5.5 0 0 1 0-1h1.055A4.719 4.719 0 0 1 10 7.219V8.43l1.219-1.524a.5.5 0 0 1 .702-.078Z" fill="#606B85"/><path fill-rule="evenodd" clip-rule="evenodd" d="M3.742 11a1.555 1.555 0 0 0-1.554 1.555v3.164a1.555 1.555 0 0 0 1.554 1.554h12.513c.414 0 .806-.165 1.096-.455a1.56 1.56 0 0 0 .462-1.1v-3.163c0-.42-.176-.813-.462-1.1A1.547 1.547 0 0 0 16.255 11h-2.55a.5.5 0 0 0-.435.252 3.683 3.683 0 0 1-6.4 0A.5.5 0 0 0 6.438 11H3.742Zm-.392 1.162A.554.554 0 0 1 3.742 12h2.415a4.685 4.685 0 0 0 7.827 0h2.271c.146 0 .284.057.389.162a.56.56 0 0 1 .169.393v3.164a.56.56 0 0 1-.17.392.547.547 0 0 1-.388.162H3.742a.555.555 0 0 1-.554-.554v-3.164c0-.147.058-.288.162-.393Z" fill="#606B85"/></svg>