<svg width="20" height="20" viewBox="0 0 20 20" fill="none"><path fill-rule="evenodd" clip-rule="evenodd" d="M4.5 4c-.346 0-.5.229-.5.367v11.266c0 .138.154.367.5.367H6V4H4.5ZM7 4v12h8.5c.346 0 .5-.229.5-.367V4.367c0-.138-.154-.367-.5-.367H7ZM4.5 17h11c.759 0 1.5-.547 1.5-1.367V4.367C17 3.547 16.259 3 15.5 3h-11C3.741 3 3 3.547 3 4.367v11.266C3 16.453 3.741 17 4.5 17Zm7-10a1.25 1.25 0 1 0 0 2.5 1.25 1.25 0 0 0 0-2.5ZM9.25 8.25a2.25 2.25 0 1 1 3.39 1.94A3.5 3.5 0 0 1 15 13.5a.5.5 0 0 1-1 0 2.5 2.5 0 0 0-5 0 .5.5 0 0 1-1 0 3.5 3.5 0 0 1 2.36-3.31 2.249 2.249 0 0 1-1.11-1.94Z" fill="#606B85"/></svg>