<svg xmlns="http://www.w3.org/2000/svg" width="20" height="20" fill="none" viewBox="0 0 20 20">
  <path fill="#606B85" fill-rule="evenodd" d="M5.555 3.348A8 8 0 0 1 10 2a8.016 8.016 0 0 1 8 8 8.003 8.003 0 0 1-4.938 7.391A8 8 0 0 1 5.555 3.348ZM10 3a7 7 0 1 0 7 7 7.014 7.014 0 0 0-7-7Zm1.685 2.81a4.447 4.447 0 0 0-1.68-.31L10 5l.003.5a4.5 4.5 0 0 0-4.47 4.5v.005a4.44 4.44 0 0 0 .31 1.677l5.842-5.872ZM9.995 4.5a5.447 5.447 0 0 1 2.79.734.5.5 0 0 1 .103.785l-6.834 6.867a.5.5 0 0 1-.787-.102 5.447 5.447 0 0 1-.734-2.787A5.5 5.5 0 0 1 9.996 4.5Zm4.367 2.47a.5.5 0 0 1 .367.24A5.45 5.45 0 0 1 15.5 10a5.501 5.501 0 0 1-5.5 5.5 5.448 5.448 0 0 1-2.79-.77.5.5 0 0 1-.097-.784l6.833-6.833a.5.5 0 0 1 .416-.143Zm-6.053 7.195c.535.22 1.109.335 1.691.335a4.5 4.5 0 0 0 4.5-4.5c0-.582-.115-1.156-.335-1.69l-5.856 5.855Z" clip-rule="evenodd"/>
</svg>
