<svg xmlns="http://www.w3.org/2000/svg" width="20" height="20" fill="none" viewBox="0 0 20 20">
  <path fill="#606B85" d="M10.497 12.5a.5.5 0 0 0-1 0v4.793L7.684 15.48a.5.5 0 0 0-.708.707l2.667 2.667a.5.5 0 0 0 .707 0l2.667-2.667a.5.5 0 0 0-.707-.707l-1.813 1.813V12.5Zm-1-5a.5.5 0 1 0 1 0V2.707L12.31 4.52a.5.5 0 1 0 .707-.707L10.35 1.146a.5.5 0 0 0-.707 0L6.976 3.813a.5.5 0 1 0 .708.707l1.813-1.813V7.5Z"/>
  <path fill="#606B85" fill-rule="evenodd" d="M2 10c0-.276.21-.5.47-.5h15.06c.26 0 .47.224.47.5s-.21.5-.47.5H2.47c-.26 0-.47-.224-.47-.5Z" clip-rule="evenodd"/>
</svg>
