<svg width="20" height="20" viewBox="0 0 20 20" fill="none"><path fill-rule="evenodd" clip-rule="evenodd" d="M9.374 5.458c.05.034.091.065.126.092v9.992a7.543 7.543 0 0 0-.822-.389c-1.145-.464-2.951-.92-5.678-.972V4.003c2.614.05 4.5.535 5.304.897.43.194.861.414 1.07.558Zm.262 11.385Zm.003.003-.002-.002-.003-.003a2.543 2.543 0 0 0-.26-.203 5.623 5.623 0 0 0-1.072-.558c-1.034-.42-2.763-.866-5.475-.901h-.008a.85.85 0 0 1-.576-.248.824.824 0 0 1-.243-.587V3.834a.829.829 0 0 1 .53-.775A.85.85 0 0 1 2.852 3c2.811.036 4.663.5 5.828.974a6.595 6.595 0 0 1 1.32.702 6.598 6.598 0 0 1 1.32-.702c1.165-.474 3.017-.938 5.828-.974a.85.85 0 0 1 .599.238.83.83 0 0 1 .253.596v10.51a.824.824 0 0 1-.242.587.85.85 0 0 1-.577.248h-.008c-2.712.035-4.44.481-5.475.9a5.63 5.63 0 0 0-1.072.558 2.53 2.53 0 0 0-.26.204l-.003.003-.002.002a.499.499 0 0 1-.361.15.499.499 0 0 1-.361-.15Zm.725-.003Zm.958-1.69a7.539 7.539 0 0 0-.822.39V5.55c.035-.027.077-.058.126-.092.209-.144.64-.364 1.07-.558.804-.362 2.69-.848 5.304-.897V14.18c-2.727.052-4.533.508-5.678.972Zm-7.46-6.055a.5.5 0 0 1 .534-.463c1.156.082 2.298.311 3.397.68a.5.5 0 0 1-.32.949 12.725 12.725 0 0 0-3.148-.632.5.5 0 0 1-.463-.534Zm0 2.61a.5.5 0 0 1 .534-.463c1.156.083 2.298.312 3.397.681a.5.5 0 1 1-.32.948 12.726 12.726 0 0 0-3.148-.632.5.5 0 0 1-.463-.534Zm11.817-2.076a.5.5 0 0 0-.072-.997 13.726 13.726 0 0 0-3.396.68.5.5 0 0 0 .318.949 12.724 12.724 0 0 1 3.15-.632Zm.463 2.076a.5.5 0 0 1-.463.534c-1.073.077-2.13.29-3.15.632a.5.5 0 0 1-.318-.948c1.098-.37 2.24-.598 3.396-.681a.5.5 0 0 1 .535.463Z" fill="#606B85"/></svg>