<svg xmlns="http://www.w3.org/2000/svg" width="24" height="24" viewBox="0 0 24 24">
  <path fill="#666A6D" fill-rule="evenodd" d="M18.5,19 C18.7761424,19 19,19.2238576 19,19.5 C19,19.7454599 18.8231248,19.9496084 18.5898756,19.9919443 L18.5,20 L5.5,20 C5.22385763,20 5,19.7761424 5,19.5 C5,19.2545401 5.17687516,19.0503916 5.41012437,19.0080557 L5.5,19 L18.5,19 Z M12,6 C12.2454599,6 12.4496084,6.17687516 12.4919443,6.41012437 L12.5,6.5 L12.5,15.342 L14.7964466,13.0464466 C14.970013,12.8728803 15.2394374,12.8535951 15.4343055,12.9885912 L15.5035534,13.0464466 C15.6771197,13.220013 15.6964049,13.4894374 15.5614088,13.6843055 L15.5035534,13.7535534 L12.3785534,16.8785534 C12.204987,17.0521197 11.9355626,17.0714049 11.7406945,16.9364088 L11.6714466,16.8785534 L8.54644661,13.7535534 C8.35118446,13.5582912 8.35118446,13.2417088 8.54644661,13.0464466 C8.72001296,12.8728803 8.98943736,12.8535951 9.1843055,12.9885912 L9.25355339,13.0464466 L11.5,15.292 L11.5,6.5 C11.5,6.22385763 11.7238576,6 12,6 Z"/>
</svg>
