<svg xmlns="http://www.w3.org/2000/svg" width="20" height="20" viewBox="0 0 20 20">
  <path fill="#707578" fill-rule="evenodd" d="M16.5,16 C16.7761424,16 17,16.2238576 17,16.5 C17,16.7454599 16.8231248,16.9496084 16.5898756,16.9919443 L16.5,17 L3.5,17 C3.22385763,17 3,16.7761424 3,16.5 C3,16.2545401 3.17687516,16.0503916 3.41012437,16.0080557 L3.5,16 L16.5,16 Z M10,3 C10.2454599,3 10.4496084,3.17687516 10.4919443,3.41012437 L10.5,3.5 L10.5,12.342 L12.7964466,10.0464466 C12.970013,9.87288026 13.2394374,9.85359511 13.4343055,9.98859116 L13.5035534,10.0464466 C13.6771197,10.220013 13.6964049,10.4894374 13.5614088,10.6843055 L13.5035534,10.7535534 L10.3785534,13.8785534 C10.204987,14.0521197 9.93556264,14.0714049 9.7406945,13.9364088 L9.67144661,13.8785534 L6.54644661,10.7535534 C6.35118446,10.5582912 6.35118446,10.2417088 6.54644661,10.0464466 C6.72001296,9.87288026 6.98943736,9.85359511 7.1843055,9.98859116 L7.25355339,10.0464466 L9.5,12.292 L9.5,3.5 C9.5,3.22385763 9.72385763,3 10,3 Z"/>
</svg>
