<svg xmlns="http://www.w3.org/2000/svg" width="20" height="20" viewBox="0 0 20 20">
  <path fill="#606B85" fill-rule="evenodd" d="M12.3452152,3.64578817 C13.3177447,2.67355237 14.7786104,2.8014269 15.991038,4.01361699 C17.2019018,5.22424374 17.3238103,6.675976 16.3517908,7.65012264 L16.3517908,7.65012264 L8.38941709,15.6127634 C8.38582944,15.6165731 8.38217279,15.6203416 8.37844716,15.6240673 L8.366,15.634 L8.08659594,15.9141154 C8.04098405,15.9597207 7.98742508,15.9961486 7.92884668,16.0217789 L7.83758046,16.0519237 L3.75661395,16.9885058 C3.66623593,17.0092475 3.57234959,17.0093922 3.4819081,16.988929 C3.14890424,16.9135839 2.94003053,16.5825517 3.01537561,16.2495478 L3.01537561,16.2495478 L3.94057583,12.1604256 C3.96205431,12.0654968 4.0099848,11.9785944 4.07881629,11.909783 L4.07881629,11.909783 L10.9191702,5.06966779 C10.92222,5.0664591 10.9253192,5.06328006 10.9284676,5.06013163 L10.938,5.052 Z M4.847,12.821 L4.1645074,15.8373844 L7.172,15.147 L4.847,12.821 Z M11.293,6.153 L5.464,11.981 L8.013,14.53 L13.841,8.701 L11.293,6.153 Z M15.2625562,4.74224145 C14.4269391,3.90678796 13.6127529,3.83551949 13.0736603,4.37444927 L13.0736603,4.37444927 L12.022,5.425 L14.57,7.973 L15.6228661,6.92194148 C16.1033001,6.44045589 16.1032703,5.75091399 15.5121498,5.01855879 L15.3943609,4.88078081 Z"/>
</svg>
