<svg xmlns="http://www.w3.org/2000/svg" width="20" height="20" viewBox="0 0 20 20">
  <path fill="#707578" fill-rule="evenodd" d="M7.67939521,15.2021339 C8.42075129,15.6162232 8.67473131,16.5329201 8.24675135,17.2499078 C7.8187714,17.9668954 6.87080992,18.2128141 6.12913682,17.799256 C5.38746371,17.3856978 5.1327815,16.4691831 5.56021207,15.751889 C5.76567427,15.407092 6.10446656,15.1554148 6.5019582,15.0522982 C6.89944985,14.9491815 7.32303171,15.0030848 7.67939521,15.2021339 Z M3.55039196,6.09656634 C5.19439206,3.25128623 8.45978733,1.65548075 11.8040492,2.06298682 C12.0895108,2.09748924 12.2919966,2.34921694 12.2563139,2.62523636 C12.2206312,2.90125578 11.9602923,3.09704399 11.6748307,3.06254156 C8.75307386,2.71094993 5.90231695,4.10613422 4.46531396,6.59093941 C3.02831096,9.0757446 3.29161548,12.1546743 5.1312067,14.3775013 C5.3083303,14.5917816 5.27372775,14.9040563 5.05367561,15.0771896 L5.05367561,15.0771896 L5.05367561,15.0871851 C4.94624614,15.1704719 4.80888775,15.2088677 4.67206877,15.1938556 C4.53524979,15.1788436 4.4102813,15.1116649 4.32488336,15.0072208 C2.21280398,12.4671696 1.90639187,8.94184645 3.55039196,6.09656634 Z M10.7806388,8.01033755 C11.0343825,8.01033755 11.2454205,8.18713395 11.2891852,8.42027931 L11.2975128,8.51011492 C11.2975128,8.78613434 11.0661004,9.00989229 10.7806388,9.00989229 L9.74689095,9.00989229 L9.74689095,10.009447 L10.7806388,10.009447 C11.0661004,10.009447 11.2975128,10.233205 11.2975128,10.5092244 L11.2975128,12.5083339 C11.2975128,12.7843533 11.0661004,13.0081113 10.7806388,13.0081113 L9.23001702,13.0081113 C8.97627338,13.0081113 8.76523532,12.8313149 8.72147061,12.5981695 L8.71314308,12.5083339 C8.71314308,12.2323145 8.94455542,12.0085565 9.23001702,12.0085565 L10.2637649,12.0085565 L10.2637649,11.0090018 L9.23001702,11.0090018 C8.94455542,11.0090018 8.71314308,10.7852438 8.71314308,10.5092244 L8.71314308,8.51011492 C8.71314308,8.2340955 8.94455542,8.01033755 9.23001702,8.01033755 L10.7806388,8.01033755 Z M16.9831261,8.01033755 C17.2685877,8.01033755 17.5,8.2340955 17.5,8.51011492 L17.5,8.51011492 L17.5,10.5092244 C17.5,10.7852438 17.2685877,11.0090018 16.9831261,11.0090018 L16.9831261,11.0090018 L15.4325043,11.0090018 L15.4325043,12.5083339 C15.4325043,12.7843533 15.2010919,13.0081113 14.9156303,13.0081113 L14.9156303,13.0081113 L14.8227216,13.0000592 C14.5816007,12.9577421 14.3987564,12.7536845 14.3987564,12.5083339 L14.3987564,12.5083339 L14.3987564,8.51011492 C14.3987564,8.2340955 14.6301687,8.01033755 14.9156303,8.01033755 L14.9156303,8.01033755 Z M12.8481346,8.01033755 C13.1335962,8.01033755 13.3650085,8.2340955 13.3650085,8.51011492 L13.3650085,12.5083339 C13.3650085,12.7536845 13.1821642,12.9577421 12.9410433,13.0000592 L12.8481346,13.0081113 C12.562673,13.0081113 12.3312606,12.7843533 12.3312606,12.5083339 L12.3312606,8.51011492 C12.3312606,8.26476432 12.514105,8.06070674 12.7552258,8.01838963 L12.8481346,8.01033755 Z M16.4662521,9.00989229 L15.4325043,9.00989229 L15.4325043,10.009447 L16.4662521,10.009447 L16.4662521,9.00989229 Z M13.3133211,2.76767291 C13.7415757,2.05083855 14.6896313,1.8052594 15.4311459,2.21908312 C16.1726606,2.63290685 16.4269917,3.54951274 15.9992864,4.26665363 C15.5715811,4.98379453 14.6237139,5.23005265 13.8818824,4.81676014 C13.5252904,4.61809398 13.2650038,4.29050788 13.1583597,3.906164 C13.0517156,3.52182013 13.1074628,3.11224902 13.3133211,2.76767291 Z"/>
</svg>
