<svg width="20" height="20" viewBox="0 0 20 20" fill="none"><path d="M6.674 11.02a.5.5 0 0 0-.964.268c.653 2.35 3.241 3.766 5.577 3.117a.531.531 0 0 0 .037-.012c1.403-.51 2.572-1.663 2.966-3.108a.5.5 0 0 0-.965-.263c-.297 1.089-1.197 2.008-2.324 2.425-1.813.492-3.828-.629-4.327-2.427Zm.787-3.885a.788.788 0 1 0 0 1.577.788.788 0 0 0 0-1.577Zm5.077 0a.788.788 0 0 0 0 1.577.789.789 0 1 0 0-1.577Z" fill="#606B85"/><path fill-rule="evenodd" clip-rule="evenodd" d="M10 2a8 8 0 1 0 0 16 8 8 0 0 0 0-16Zm-7 8a7 7 0 1 1 14 0 7 7 0 0 1-14 0Z" fill="#606B85"/></svg>