<svg xmlns="http://www.w3.org/2000/svg" width="24" height="24" viewBox="0 0 24 24">
  <path fill="#666A6D" fill-rule="evenodd" d="M13.2472301,4.51661961 L19.4833804,10.7527699 C20.1722065,11.4415961 20.1722065,12.5584039 19.4833804,13.2472301 L13.2472301,19.4833804 C12.5584039,20.1722065 11.4415961,20.1722065 10.7527699,19.4833804 L4.51661961,13.2472301 C3.82779346,12.5584039 3.82779346,11.4415961 4.51661961,10.7527699 L10.7527699,4.51661961 C11.4415961,3.82779346 12.5584039,3.82779346 13.2472301,4.51661961 Z M12,14 C11.4477153,14 11,14.4477153 11,15 C11,15.5522847 11.4477153,16 12,16 C12.5522847,16 13,15.5522847 13,15 C13,14.4477153 12.5522847,14 12,14 Z M12.0101104,9 L11.9897467,9 C11.3856252,9 10.9172613,9.59236125 11.0122916,10.2439586 L11.4399282,12.4816839 C11.4806555,12.7778645 11.7182314,13 11.9965346,13 L12.0033225,13 C12.2816257,13 12.5192015,12.7778645 12.5599288,12.4816839 L12.9875654,10.2439586 C13.0825958,9.59236125 12.6210198,9.00740452 12.0101104,9 Z"/>
</svg>
