<svg xmlns="http://www.w3.org/2000/svg" width="24" height="24" viewBox="0 0 24 24">
  <path fill="#666A6D" fill-rule="evenodd" d="M11.999837,2.00021922 C14.7559149,2.00021922 17.2513199,3.11479062 19.0599686,4.91785002 C19.0635852,4.92156447 19.0673485,4.92521291 19.0710678,4.92893219 L19.0819507,4.93983197 C20.8205052,6.68375809 21.9189614,9.06617785 21.995355,11.7051269 L21.9996177,12 C21.9996177,17.5233572 17.5231941,21.9997808 11.999837,21.9997808 C9.24113667,21.9997808 6.74325382,20.8827357 4.9340163,19.0761481 C4.93266247,19.0747694 4.93079183,19.0729275 4.92893219,19.0710678 C3.11690629,17.2560967 2.00005618,14.7586259 2.00005618,12 C2.00005618,6.47664283 6.47734933,2.00021922 11.999837,2.00021922 Z M18.7085028,6.00003416 L5.99831798,18.706802 C7.59073686,20.132716 9.69400589,20.9997808 11.999837,20.9997808 C16.8821402,20.9997808 20.8554348,17.1136702 20.9958803,12.2790825 L20.9997222,12.0144548 L20.9957737,11.7340633 C20.931991,9.53074399 20.0776989,7.52937445 18.7085028,6.00003416 Z M11.999837,3.00021922 C7.02932031,3.00021922 3.00005618,7.02924133 3.00005618,12 C3.00005618,14.3054661 3.86681421,16.4083499 5.2922335,18.0006271 L18.0004235,5.29214832 C16.4066816,3.86605611 14.3025415,3.00021922 11.999837,3.00021922 Z"/>
</svg>
