<svg xmlns="http://www.w3.org/2000/svg" width="24" height="24" viewBox="0 0 24 24">
  <path fill="#666A6D" fill-rule="evenodd" d="M19.7781746,4.22182541 C24.0739418,8.51759262 24.0739418,15.4824074 19.7781746,19.7781746 C15.4824074,24.0739418 8.51759262,24.0739418 4.22182541,19.7781746 C-0.0739418021,15.4824074 -0.0739418021,8.51759262 4.22182541,4.22182541 C8.51759262,-0.0739418021 15.4824074,-0.0739418021 19.7781746,4.22182541 Z M5.63603897,5.63603897 C2.3602553,8.91182264 2.13756344,14.0845544 4.9679634,17.6182518 L17.6182518,4.9679634 C14.0845544,2.13756344 8.91182264,2.3602553 5.63603897,5.63603897 Z M19.0326647,6.38253242 L6.38253242,19.0326647 C9.91621093,21.8624036 15.0884197,21.6395024 18.363961,18.363961 C21.6395024,15.0884197 21.8624036,9.91621093 19.0326647,6.38253242 Z"/>
</svg>
