<svg xmlns="http://www.w3.org/2000/svg" width="20" height="20" viewBox="0 0 20 20">
  <path fill="#707578" fill-rule="evenodd" d="M7.558,11.5505504 C7.71591139,11.392639 7.94607226,11.3309676 8.16178323,11.3887672 C8.3774942,11.4465668 8.54598365,11.6150562 8.60378323,11.8307672 C8.66158281,12.0464781 8.59991139,12.276639 8.442,12.4345504 L8.442,12.4345504 L6.634,14.2425504 C6.61051979,14.265916 6.59731906,14.2976753 6.59731906,14.3308004 C6.59731906,14.3639255 6.61051979,14.3956849 6.634,14.4190504 L6.634,14.4190504 L7.3535,15.1390504 C7.49645396,15.2820475 7.53921095,15.4970687 7.46183899,15.6838777 C7.38446703,15.8706867 7.20219795,15.9925504 6.99999984,15.9925504 L6.99999984,15.9925504 L4.49999984,15.9925504 C4.22385763,15.9925504 3.99999984,15.7686928 3.99999984,15.4925504 L3.99999984,15.4925504 L3.99999984,12.9925504 C3.99984085,12.7902614 4.12158727,12.6078072 4.30844166,12.530307 C4.49529604,12.4528067 4.71043853,12.495532 4.8535,12.6385504 L4.8535,12.6385504 L5.573,13.3580504 C5.59645107,13.3815608 5.62829318,13.3947739 5.6615,13.3947739 C5.69470682,13.3947739 5.72654893,13.3815608 5.75,13.3580504 L5.75,13.3580504 Z M11.5510362,11.5505219 C11.795146,11.3064121 12.1909263,11.3064121 12.4350362,11.5505219 L12.4350362,11.5505219 L14.2430362,13.3585219 C14.2664872,13.3820324 14.2983294,13.3952454 14.3315362,13.3952454 C14.364743,13.3952454 14.3965851,13.3820324 14.4200362,13.3585219 L14.4200362,13.3585219 L15.1395362,12.6390219 C15.2825333,12.496068 15.4975545,12.453311 15.6843634,12.5306829 C15.8711724,12.6080549 15.9930362,12.790324 15.9930362,12.9925219 L15.9930362,12.9925219 L15.9930362,15.4925219 C15.9930362,15.7686643 15.7691785,15.9925219 15.4930362,15.9925219 L15.4930362,15.9925219 L12.9930362,15.9925219 C12.7908382,15.9925219 12.6085691,15.8706582 12.5311972,15.6838492 C12.4538252,15.4970402 12.4965822,15.2820191 12.6395362,15.1390219 L12.6395362,15.1390219 L13.3590362,14.4190219 C13.3825164,14.3956564 13.3957171,14.363897 13.3957171,14.3307719 C13.3957171,14.2976469 13.3825164,14.2658875 13.3590362,14.2425219 L13.3590362,14.2425219 L11.5510362,12.4345219 C11.3069263,12.1904121 11.3069263,11.7946318 11.5510362,11.5505219 Z M6.99999998,4 C7.20197856,4.00024462 7.38397381,4.12198626 7.46130055,4.30857665 C7.53862728,4.49516704 7.49609711,4.70995644 7.3535,4.853 L7.3535,4.853 L6.634,5.573 C6.61048957,5.59645107 6.59727655,5.62829318 6.59727655,5.6615 C6.59727655,5.69470682 6.61048957,5.72654893 6.634,5.75 L6.634,5.75 L8.442,7.5575 C8.59991139,7.71541139 8.66158281,7.94557226 8.60378323,8.16128323 C8.54598365,8.3769942 8.3774942,8.54548365 8.16178323,8.60328323 C7.94607226,8.66108281 7.71591139,8.59941139 7.558,8.4415 L7.558,8.4415 L5.6615,6.545 L4.8535,7.3535 C4.75975363,7.44727469 4.63259741,7.49997168 4.49999998,7.5 C4.43427306,7.50021228 4.36916588,7.48729284 4.3085,7.462 C4.12170463,7.38455183 3.99994911,7.20221455 3.99999998,7 L3.99999998,7 L3.99999998,4.5 C3.99999998,4.22385763 4.22385763,4 4.49999998,4 L4.49999998,4 Z M15.4930362,4 C15.7691785,4 15.9930362,4.22385763 15.9930362,4.5 L15.9930362,4.5 L15.9930362,7 C15.9930871,7.20221455 15.8713315,7.38455183 15.6845362,7.462 C15.6238703,7.48729284 15.5587631,7.50021228 15.4930362,7.5 C15.360367,7.49983913 15.2332006,7.44695808 15.1395362,7.353 L15.1395362,7.353 L14.4200362,6.6335 C14.3965851,6.60998957 14.364743,6.59677655 14.3315362,6.59677655 C14.2983294,6.59677655 14.2664872,6.60998957 14.2430362,6.6335 L14.2430362,6.6335 L12.4350362,8.4415 C12.1909263,8.68560986 11.795146,8.68560986 11.5510362,8.4415 C11.3069263,8.19739014 11.3069263,7.80160986 11.5510362,7.5575 L11.5510362,7.5575 L13.3590362,5.75 C13.3825466,5.72654893 13.3957596,5.69470682 13.3957596,5.6615 C13.3957596,5.62829318 13.3825466,5.59645107 13.3590362,5.573 L13.3590362,5.573 L12.6395362,4.8535 C12.4965822,4.71050287 12.4538252,4.49548169 12.5311972,4.30867272 C12.6085691,4.12186375 12.7908382,4 12.9930362,4 L12.9930362,4 Z"/>
</svg>
