<svg xmlns="http://www.w3.org/2000/svg" width="20" height="20" fill="none" viewBox="0 0 20 20">
  <path fill="#606B85" d="M2.6 3.232a12.018 12.018 0 0 1 14.17 14.16.5.5 0 0 0 .98.198A13.018 13.018 0 0 0 2.4 2.252a.5.5 0 1 0 .2.98Z"/>
  <path fill="#606B85" d="M6.546 8.165a7.052 7.052 0 0 0-3.883.204.5.5 0 1 1-.326-.946A8.052 8.052 0 0 1 12.573 17.66a.5.5 0 1 1-.946-.326 7.053 7.053 0 0 0-5.081-9.168Z"/>
  <path fill="#606B85" fill-rule="evenodd" d="M2.879 12.877a3 3 0 1 1 4.242 4.242 3 3 0 0 1-4.242-4.242ZM5 12.998a2 2 0 1 0 0 4 2 2 0 0 0 0-4Z" clip-rule="evenodd"/>
</svg>
