<svg xmlns="http://www.w3.org/2000/svg" width="20" height="20" fill="none" viewBox="0 0 20 20">
  <path fill="#606B85" d="M6.062 6.5H6.06a.813.813 0 1 0 .002 0Z"/>
  <path fill="#606B85" fill-rule="evenodd" d="M11.747 8.86a1.124 1.124 0 0 0-.932.482v.002L9.457 11.28l-.614-.491a1.125 1.125 0 0 0-1.638.254l-2.122 3.18A.5.5 0 0 0 5.5 15h9.982a.5.5 0 0 0 .416-.776L12.673 9.36a1.124 1.124 0 0 0-.926-.5Zm-.066 1.014a.124.124 0 0 1 .16.04L14.55 14H6.434l1.603-2.402a.127.127 0 0 1 .084-.054.124.124 0 0 1 .098.026l1.03.824a.5.5 0 0 0 .722-.104l1.663-2.375v-.002a.125.125 0 0 1 .046-.04Z" clip-rule="evenodd"/>
  <path fill="#606B85" fill-rule="evenodd" d="M3.5 2A1.5 1.5 0 0 0 2 3.5v13A1.5 1.5 0 0 0 3.5 18h13a1.5 1.5 0 0 0 1.5-1.5V6.621a1.5 1.5 0 0 0-.44-1.06l-3.12-3.122A1.5 1.5 0 0 0 13.378 2H3.5Zm0 15h13a.5.5 0 0 0 .5-.5V6.621a.5.5 0 0 0-.146-.353l-3.122-3.122A.5.5 0 0 0 13.38 3H3.5a.5.5 0 0 0-.5.5v13a.5.5 0 0 0 .5.5Z" clip-rule="evenodd"/>
</svg>
