<svg width="20" height="20" viewBox="0 0 20 20" fill="none"><path fill-rule="evenodd" clip-rule="evenodd" d="M5 17H3.5a.5.5 0 0 1-.5-.5V15h2v2Zm-2-5v2h2v-2H3Zm3 1h8v4H6v-4Zm9 2v2h1.5a.5.5 0 0 0 .5-.5V15h-2Zm2-1v-2h-2v2h2ZM3 9v2h2V9H3Zm3 3V7h8v5H6Zm11-1V9h-2v2h2ZM3 6v2h2V6H3Zm14 2V6.621a.5.5 0 0 0-.146-.353L15 4.414V8h2ZM5 5H3V3.5a.5.5 0 0 1 .5-.5H5v2Zm1 1h8V3.414l-.268-.268A.5.5 0 0 0 13.38 3H6v3Zm11.56-.44-3.12-3.12A1.5 1.5 0 0 0 13.378 2H3.5A1.5 1.5 0 0 0 2 3.5v13A1.5 1.5 0 0 0 3.5 18h13a1.5 1.5 0 0 0 1.5-1.5V6.621a1.5 1.5 0 0 0-.44-1.06Z" fill="#606B85"/></svg>