<svg width="20" height="20" viewBox="0 0 20 20" fill="none" xmlns="http://www.w3.org/2000/svg">
<path d="M5.5 6C5.22386 6 5 6.22386 5 6.5C5 6.77614 5.22386 7 5.5 7H11.5C11.7761 7 12 6.77614 12 6.5C12 6.22386 11.7761 6 11.5 6H5.5Z" fill="#606B85"/>
<path d="M5 10C5 9.72386 5.22386 9.5 5.5 9.5H14.5C14.7761 9.5 15 9.72386 15 10C15 10.2761 14.7761 10.5 14.5 10.5H5.5C5.22386 10.5 5 10.2761 5 10Z" fill="#606B85"/>
<path d="M5.5 13C5.22386 13 5 13.2239 5 13.5C5 13.7761 5.22386 14 5.5 14H13.5C13.7761 14 14 13.7761 14 13.5C14 13.2239 13.7761 13 13.5 13H5.5Z" fill="#606B85"/>
<path fill-rule="evenodd" clip-rule="evenodd" d="M2 3.5C2 2.67157 2.67157 2 3.5 2H16.5C17.3284 2 18 2.67157 18 3.5V16.5C18 17.3284 17.3284 18 16.5 18H3.5C2.67157 18 2 17.3284 2 16.5V3.5ZM3.5 3H16.5C16.7761 3 17 3.22386 17 3.5V16.5C17 16.7761 16.7761 17 16.5 17H3.5C3.22386 17 3 16.7761 3 16.5V3.5C3 3.22386 3.22386 3 3.5 3Z" fill="#606B85"/>
</svg>
