<svg width="20" height="20" viewBox="0 0 20 20" fill="none"><path fill-rule="evenodd" clip-rule="evenodd" d="M16.5 17h-13a.5.5 0 0 1-.5-.5v-13a.5.5 0 0 1 .5-.5h9.879a.5.5 0 0 1 .353.146l3.122 3.122A.5.5 0 0 1 17 6.62v9.88a.5.5 0 0 1-.5.5ZM2 3.5A1.5 1.5 0 0 1 3.5 2h9.879a1.5 1.5 0 0 1 1.06.44l3.122 3.12A1.5 1.5 0 0 1 18 6.622V16.5a1.5 1.5 0 0 1-1.5 1.5h-13A1.5 1.5 0 0 1 2 16.5v-13ZM5.5 6a.5.5 0 0 0 0 1h6a.5.5 0 0 0 0-1h-6ZM5 10a.5.5 0 0 1 .5-.5h9a.5.5 0 0 1 0 1h-9A.5.5 0 0 1 5 10Zm.5 3a.5.5 0 0 0 0 1h8a.5.5 0 0 0 0-1h-8Z" fill="#606B85"/></svg>