<svg width="20" height="20" viewBox="0 0 20 20" fill="none"><path fill-rule="evenodd" clip-rule="evenodd" d="M16.5 17h-13a.5.5 0 0 1-.5-.5v-13a.5.5 0 0 1 .5-.5h1.81l-.324 2.61a2.127 2.127 0 0 0 .516 1.671l.007.008a2.2 2.2 0 0 0 3.236 0l.006-.008a2.126 2.126 0 0 0 .517-1.67L8.94 3h4.438a.5.5 0 0 1 .353.146l3.122 3.122A.5.5 0 0 1 17 6.62v9.88a.5.5 0 0 1-.5.5ZM7.934 3H6.317l-.34 2.734a1.127 1.127 0 0 0 .271.881 1.2 1.2 0 0 0 1.757 0 1.126 1.126 0 0 0 .27-.88L7.935 3Zm5.445-1a1.5 1.5 0 0 1 1.06.44l3.122 3.12A1.5 1.5 0 0 1 18 6.622V16.5a1.5 1.5 0 0 1-1.5 1.5h-13A1.5 1.5 0 0 1 2 16.5v-13A1.5 1.5 0 0 1 3.5 2h9.879ZM7.125 9.625a.812.812 0 1 0 0 1.625.812.812 0 0 0 0-1.625Zm-.575 3.988a.813.813 0 1 1 1.15 1.15.813.813 0 0 1-1.15-1.15Z" fill="#606B85"/></svg>