<svg width="20" height="20" viewBox="0 0 20 20" fill="none"><path fill-rule="evenodd" clip-rule="evenodd" d="M5 3.5a.5.5 0 0 0-1 0v14a.5.5 0 0 0 1 0v-4.678l.822-.258a5.433 5.433 0 0 1 4.544.59 5.434 5.434 0 0 0 4.437.628l1.726-.504a.65.65 0 0 0 .34-.24.676.676 0 0 0 .131-.4V5.706a.678.678 0 0 0-.259-.53.644.644 0 0 0-.57-.11l-1.368.4a5.435 5.435 0 0 1-4.437-.623 5.433 5.433 0 0 0-4.544-.591L5 4.51V3.5Zm0 8.274V5.558l1.123-.353a4.433 4.433 0 0 1 3.71.484 6.435 6.435 0 0 0 5.25.738L16 6.159v6.231l-1.477.433a4.435 4.435 0 0 1-3.624-.514 6.433 6.433 0 0 0-5.377-.699L5 11.774Z" fill="#606B85"/></svg>