<svg width="20" height="20" fill="none" xmlns="http://www.w3.org/2000/svg"><path fill-rule="evenodd" clip-rule="evenodd" d="M3.432 3.432A1.474 1.474 0 0 1 4.475 3h3.011a1.474 1.474 0 0 1 1.475 1.475v.534h6.556a1.474 1.474 0 0 1 1.475 1.475v1.538h.533a1.474 1.474 0 0 1 1.427 1.85l-1.474 6.032A1.476 1.476 0 0 1 16.053 17H4.606a.47.47 0 0 1-.143-.022A1.608 1.608 0 0 1 3 15.398V4.474c0-.39.155-.766.432-1.043Zm2.632 12.626h9.989a.533.533 0 0 0 .514-.392l1.474-6.031a.534.534 0 0 0-.516-.67H8.242a.535.535 0 0 0-.51.375L6.16 15.795a1.611 1.611 0 0 1-.096.263Zm9.987-8.036V6.484a.534.534 0 0 0-.534-.533H8.49a.47.47 0 0 1-.47-.471V4.475a.534.534 0 0 0-.534-.533H4.475a.533.533 0 0 0-.534.533v10.912a.668.668 0 0 0 1.307.176L6.82 9.106a1.475 1.475 0 0 1 1.422-1.083h7.81Z" fill="#606B85"/></svg>