<svg xmlns="http://www.w3.org/2000/svg" width="20" height="20" fill="none" viewBox="0 0 20 20">
  <path fill="#606B85" fill-rule="evenodd" d="M2.146 10.354a.5.5 0 0 1 0-.708l7.5-7.5a.5.5 0 0 1 .707 0l7.5 7.5a.5.5 0 0 1 0 .707l-7.5 7.5a.5.5 0 0 1-.707 0l-7.5-7.5ZM3.206 10 10 16.793 16.793 10 10 3.207 8.124 5.083 9.229 6.19a1.667 1.667 0 0 1 2.249 2.249l.751.75a1.667 1.667 0 1 1-.707.707l-.751-.75a1.658 1.658 0 0 1-.271.112v2.486a1.667 1.667 0 1 1-1 0V9.257a1.667 1.667 0 0 1-.978-2.361L7.417 5.79 3.207 10Zm6.797-1.667h-.007a.667.667 0 0 1-.48-1.125l.013-.012.012-.013a.667.667 0 0 1 .94.945l-.01.01-.01.01a.665.665 0 0 1-.458.185Zm2.526 1.862-.012.012a.667.667 0 1 0 .024-.024l-.012.012Zm-2.53 2.472A.667.667 0 1 0 10 14a.667.667 0 0 0 0-1.333Z" clip-rule="evenodd"/>
</svg>
