<svg xmlns="http://www.w3.org/2000/svg" width="20" height="20" fill="none" viewBox="0 0 20 20">
  <path fill="#606B85" fill-rule="evenodd" d="M2.146 10.354a.5.5 0 0 1 0-.708l7.5-7.5a.5.5 0 0 1 .707 0l7.5 7.5a.5.5 0 0 1 0 .707l-7.5 7.5a.5.5 0 0 1-.707 0l-7.5-7.5ZM3.206 10 10 16.793 16.793 10 10 3.207 3.207 10Z" clip-rule="evenodd"/>
  <path fill="#606B85" fill-rule="evenodd" d="M7.063 4.73a.5.5 0 0 1 .707 0l1.76 1.758a.5.5 0 0 1-.707.708l-1.759-1.76a.5.5 0 0 1 0-.706Zm4.27 5.937a1.667 1.667 0 1 1 3.334 0 1.667 1.667 0 0 1-3.334 0Zm-3 2.666a1.667 1.667 0 1 1 3.334 0 1.667 1.667 0 0 1-3.334 0Z" clip-rule="evenodd"/>
  <path fill="#606B85" fill-rule="evenodd" d="M8.333 7.667a1.667 1.667 0 1 1 3.334 0 1.667 1.667 0 0 1-3.334 0Z" clip-rule="evenodd"/>
  <path fill="#606B85" fill-rule="evenodd" d="M10.471 8.138a.5.5 0 0 1 .707 0l1.35 1.35a.5.5 0 1 1-.706.707l-1.35-1.35a.5.5 0 0 1 0-.707Z" clip-rule="evenodd"/>
  <path fill="#606B85" fill-rule="evenodd" d="M10 8.333a.5.5 0 0 1 .5.5v3.334a.5.5 0 1 1-1 0V8.833a.5.5 0 0 1 .5-.5Z" clip-rule="evenodd"/>
</svg>
