<svg xmlns="http://www.w3.org/2000/svg" width="20" height="20" fill="none" viewBox="0 0 20 20">
  <path fill="#606B85" fill-rule="evenodd" d="M2 10a8 8 0 1 1 16 0 8 8 0 0 1-16 0Zm6.903-6.915a7.053 7.053 0 0 1 2.194 0c.461.685.858 1.696 1.138 2.915h-4.47c.28-1.219.677-2.23 1.138-2.915ZM6.741 6c.207-.966.486-1.838.826-2.566A7.02 7.02 0 0 0 4.255 6H6.74ZM3.674 7h2.884a19.979 19.979 0 0 0-.218 2.5H3.018c.062-.89.291-1.733.656-2.5ZM7.57 7h4.858c.127.78.207 1.622.23 2.5H7.34c.024-.878.104-1.72.23-2.5Zm5.87 0c.122.796.197 1.637.219 2.5h3.322a6.959 6.959 0 0 0-.656-2.5h-2.884Zm2.304-1a7.02 7.02 0 0 0-3.312-2.566c.34.728.62 1.6.826 2.566h2.486ZM3.018 10.5h3.32c.02.866.093 1.707.213 2.5H3.674a6.959 6.959 0 0 1-.656-2.5ZM4.255 14h2.477c.205.96.483 1.83.822 2.56a7.02 7.02 0 0 1-3.3-2.56Zm7.989 0H7.756c.275 1.202.667 2.206 1.125 2.911a7.053 7.053 0 0 0 2.238 0c.458-.705.85-1.709 1.125-2.911Zm-4.681-1h4.874c.125-.779.204-1.62.224-2.5H7.34c.02.88.099 1.721.224 2.5Zm4.883 3.56c.339-.73.617-1.6.822-2.56h2.477a7.02 7.02 0 0 1-3.299 2.56ZM13.45 13h2.877c.365-.767.594-1.61.656-2.5h-3.32a19.84 19.84 0 0 1-.213 2.5Z" clip-rule="evenodd"/>
</svg>
