<svg xmlns="http://www.w3.org/2000/svg" width="20" height="20" fill="none" viewBox="0 0 20 20">
  <path fill="#606B85" fill-rule="evenodd" d="M6.138 2.942a4.284 4.284 0 0 0-3.073 7.106c.049.055 6.49 6.778 6.577 6.864a.647.647 0 0 0 .271.17.44.44 0 0 0 .18 0 .584.584 0 0 0 .253-.158c.073-.071 6.523-6.803 6.58-6.866a4.317 4.317 0 0 0 .93-1.735 4.34 4.34 0 0 0 .135-.833.308.308 0 0 1 .01-.085 1.68 1.68 0 0 0 .005-.193c0-.109-.002-.194-.005-.19-.003.006-.007-.024-.01-.07a4.278 4.278 0 0 0-.67-2.044 4.283 4.283 0 0 0-6.185-1.104c-.196.148-.271.217-.718.663L10 4.883l-.411-.41c-.448-.446-.53-.522-.725-.669a4.277 4.277 0 0 0-2.726-.862Zm-.032 1.001a3.83 3.83 0 0 0-.3.032 3.242 3.242 0 0 0-1.713.803 3.277 3.277 0 0 0-.105 4.79l3.074 3.206c1.613 1.683 2.935 3.06 2.938 3.06.005 0 6.11-6.368 6.18-6.446a3.285 3.285 0 0 0 .782-2.652 3.272 3.272 0 0 0-1.055-1.958 3.25 3.25 0 0 0-1.691-.8 3.315 3.315 0 0 0-.91-.013 3.307 3.307 0 0 0-1.543.62c-.172.129-.253.205-.86.81-.368.367-.622.614-.647.632a.415.415 0 0 1-.256.09.415.415 0 0 1-.256-.09 22.49 22.49 0 0 1-.646-.632c-.608-.605-.689-.681-.861-.81a3.309 3.309 0 0 0-1.738-.64 4.854 4.854 0 0 0-.393-.002ZM2.003 7.22c0 .11 0 .155.002.101a6.131 6.131 0 0 0 0-.198c-.001-.056-.002-.012-.002.097Z" clip-rule="evenodd"/>
</svg>
