<svg xmlns="http://www.w3.org/2000/svg" width="20" height="20" fill="none" viewBox="0 0 20 20">
  <path fill="#606B85" fill-rule="evenodd" d="M13.75 2a1.75 1.75 0 1 1 0 3.5 1.75 1.75 0 0 1 0-3.5Zm.75 1.75a.75.75 0 1 0-1.5 0 .75.75 0 0 0 1.5 0ZM2 8a5 5 0 1 1 10 0A5 5 0 0 1 2 8Zm5-4a4 4 0 1 0 0 8 4 4 0 0 0 0-8Z" clip-rule="evenodd"/>
  <path fill="#606B85" fill-rule="evenodd" d="M7 15.5a2.5 2.5 0 1 1 5 0 2.5 2.5 0 0 1-5 0ZM9.5 14a1.5 1.5 0 1 0 0 3 1.5 1.5 0 0 0 0-3ZM15 9a3 3 0 1 0 0 6 3 3 0 0 0 0-6Zm-2 3a2 2 0 1 1 4 0 2 2 0 0 1-4 0Zm-7.5 3.75a1.75 1.75 0 1 0-3.5 0 1.75 1.75 0 0 0 3.5 0ZM3.75 15a.75.75 0 1 1 0 1.5.75.75 0 0 1 0-1.5Z" clip-rule="evenodd"/>
</svg>
