<svg xmlns="http://www.w3.org/2000/svg" width="20" height="20" fill="none" viewBox="0 0 20 20">
  <path fill="#606B85" fill-rule="evenodd" d="M14.25 2.5a1.75 1.75 0 1 1 0 3.5 1.75 1.75 0 0 1 0-3.5ZM15 4.25a.75.75 0 1 0-1.5 0 .75.75 0 0 0 1.5 0ZM2.5 8.5a5 5 0 1 1 10 0 5 5 0 0 1-10 0Zm5-4a4 4 0 1 0 0 8 4 4 0 0 0 0-8Z" clip-rule="evenodd"/>
  <path fill="#606B85" fill-rule="evenodd" d="M7.5 16a2.5 2.5 0 1 1 5 0 2.5 2.5 0 0 1-5 0Zm2.5-1.5a1.5 1.5 0 1 0 0 3 1.5 1.5 0 0 0 0-3Zm5.5-5a3 3 0 1 0 0 6 3 3 0 0 0 0-6Zm-2 3a2 2 0 1 1 4 0 2 2 0 0 1-4 0ZM6 16.25a1.75 1.75 0 1 0-3.5 0 1.75 1.75 0 0 0 3.5 0Zm-1.75-.75a.75.75 0 1 1 0 1.5.75.75 0 0 1 0-1.5Z" clip-rule="evenodd"/>
</svg>
