<svg width="20" height="20" viewBox="0 0 20 20" fill="none" xmlns="http://www.w3.org/2000/svg">
<path fill-rule="evenodd" clip-rule="evenodd" d="M17.5539 3.17336C17.5028 3.11995 17.4417 3.07716 17.374 3.04744C17.3064 3.01771 17.2335 3.00163 17.1596 3.00012C17.0857 2.99861 17.0123 3.0117 16.9434 3.03863C16.8746 3.06557 16.8118 3.10583 16.7586 3.15709L2.69722 16.656C2.64373 16.7071 2.60085 16.7682 2.57104 16.8359C2.54122 16.9036 2.52505 16.9766 2.52346 17.0505C2.52187 17.1245 2.53489 17.198 2.56177 17.2669C2.58865 17.3359 2.62886 17.3988 2.6801 17.4521C2.73134 17.5055 2.79261 17.5482 2.86039 17.5779C2.92817 17.6075 3.00113 17.6235 3.07509 17.6249C3.14905 17.6263 3.22256 17.613 3.29141 17.586C3.36026 17.5589 3.42309 17.5185 3.47631 17.4672L17.5377 3.96826C17.5909 3.91715 17.6336 3.85603 17.6633 3.78842C17.6929 3.7208 17.709 3.648 17.7105 3.57418C17.712 3.50036 17.6989 3.42696 17.6721 3.35819C17.6452 3.28941 17.6051 3.22661 17.5539 3.17336ZM18.5319 9.66045C17.809 8.8682 17.0085 8.15041 16.1425 7.51783C16.0829 7.47429 16.0152 7.44293 15.9434 7.42554C15.8716 7.40815 15.7971 7.40507 15.7241 7.41647C15.5768 7.43951 15.4446 7.52014 15.3566 7.64065C15.2687 7.76115 15.2322 7.91165 15.2553 8.05903C15.2783 8.20642 15.3589 8.33861 15.4794 8.42654C16.2836 9.01388 17.0269 9.68029 17.6983 10.4158C17.8117 10.5411 17.8746 10.7041 17.875 10.8731C17.8753 11.0421 17.813 11.2053 17.7 11.3311C15.8947 13.3181 12.931 15.419 9.99463 15.3742C9.28124 15.3734 8.57179 15.2684 7.88873 15.0626C7.74622 15.0185 7.59203 15.0328 7.46006 15.1024C7.32809 15.1719 7.22915 15.2911 7.18499 15.4335C7.14083 15.576 7.15507 15.7302 7.22458 15.8622C7.29409 15.9942 7.41317 16.0932 7.55565 16.1374C8.32325 16.3759 9.1223 16.4978 9.92609 16.4991C9.98641 16.4991 10.0463 16.4995 10.1064 16.5L10.1067 16.5C13.3597 16.5 16.585 14.2308 18.5345 12.0856C18.8346 11.7529 19.0005 11.3206 19 10.8725C18.9995 10.4244 18.8327 9.99251 18.5319 9.66045ZM4.16048 13.9654C4.06501 14.0335 3.95063 14.0701 3.83335 14.07C3.70856 14.0701 3.58732 14.0285 3.48885 13.9518C2.76412 13.3884 2.08836 12.7647 1.46883 12.0874C1.16762 11.7554 1.00053 11.3234 1 10.8751C0.999478 10.4269 1.16556 9.99442 1.46599 9.66176C3.41547 7.51785 6.64101 5.24914 9.89314 5.24914C9.95904 5.24871 10.0243 5.24914 10.0904 5.24959C10.7152 5.25057 11.3376 5.3273 11.9439 5.4781C12.0157 5.49577 12.0832 5.52742 12.1428 5.57124C12.2023 5.61506 12.2526 5.67019 12.2908 5.73347C12.329 5.79675 12.3544 5.86694 12.3654 5.94003C12.3765 6.01312 12.373 6.08767 12.3552 6.15942C12.3374 6.23117 12.3057 6.2987 12.2617 6.35816C12.2178 6.41762 12.1626 6.46783 12.0993 6.50593C12.0359 6.54403 11.9657 6.56926 11.8926 6.58019C11.8195 6.59112 11.7449 6.58752 11.6732 6.56961C11.128 6.43276 10.5673 6.36733 10.0052 6.37495C7.06988 6.3376 4.10557 8.43098 2.30001 10.4167C2.18717 10.5424 2.1249 10.7054 2.12523 10.8743C2.12555 11.0431 2.18845 11.2059 2.30176 11.3311C2.87744 11.9604 3.50534 12.5399 4.17873 13.0633C4.27137 13.1352 4.3392 13.2343 4.37274 13.3467C4.40628 13.4591 4.40385 13.5792 4.36579 13.6901C4.32773 13.801 4.25594 13.8973 4.16048 13.9654ZM12.8111 10.3113C12.7372 10.3113 12.6641 10.3259 12.5958 10.3542C12.5276 10.3825 12.4656 10.424 12.4134 10.4763C12.3611 10.5285 12.3197 10.5906 12.2915 10.6589C12.2633 10.7271 12.2488 10.8003 12.2489 10.8742C12.2482 11.4706 12.011 12.0424 11.5893 12.4643C11.1677 12.8861 10.5959 13.1235 9.99949 13.1244C9.85032 13.1245 9.70726 13.1838 9.6018 13.2893C9.49634 13.3948 9.43711 13.5378 9.43714 13.687C9.43717 13.8362 9.49646 13.9792 9.60196 14.0847C9.70746 14.1902 9.85053 14.2494 9.9997 14.2494H9.99992C10.8947 14.248 11.7524 13.8918 12.3849 13.2589C13.0174 12.626 13.373 11.7681 13.3737 10.8733C13.3736 10.7242 13.3143 10.5813 13.2088 10.4759C13.1033 10.3706 12.9604 10.3113 12.8113 10.3113L12.8111 10.3113ZM7.40226 11.3941C7.33402 11.4224 7.26087 11.437 7.18699 11.437L7.18678 11.437C7.0377 11.437 6.89473 11.3778 6.78927 11.2724C6.68381 11.167 6.62449 11.0241 6.62433 10.875C6.62509 9.98024 6.98072 9.12231 7.61321 8.48941C8.24569 7.8565 9.10339 7.50031 9.99815 7.49896H9.99836C10.1475 7.49893 10.2906 7.55816 10.3961 7.66362C10.5016 7.76908 10.5609 7.91213 10.5609 8.06131C10.561 8.21048 10.5017 8.35355 10.3963 8.45905C10.2908 8.56455 10.1478 8.62384 9.99858 8.62387C9.40215 8.6248 8.83042 8.86221 8.40875 9.28404C7.98709 9.70587 7.74991 10.2777 7.74922 10.8741C7.74928 10.948 7.73478 11.0212 7.70656 11.0895C7.67833 11.1577 7.63693 11.2198 7.58472 11.2721C7.53251 11.3243 7.47051 11.3658 7.40226 11.3941Z" fill="#606B85"/>
</svg>
