<svg xmlns="http://www.w3.org/2000/svg" width="20" height="20" fill="none" viewBox="0 0 20 20">
  <path fill="#606B85" fill-rule="evenodd" d="M3.362 2.84a.521.521 0 0 0-.522.522v13.276a.521.521 0 0 0 .522.522h6.127a.5.5 0 0 1 0 1H3.362a1.521 1.521 0 0 1-1.522-1.522V3.362c0-.404.16-.79.446-1.076m0 0a1.521 1.521 0 0 1 1.076-.446h10.213c.396 0 .776.155 1.06.431l.001.001 2.043 1.963a1.521 1.521 0 0 1 .46 1.09v4.164a.5.5 0 0 1-1 0V5.325a.52.52 0 0 0-.157-.372l-.001-.002-2.043-1.962a.521.521 0 0 0-.364-.149H3.363m1.542 4.607a.5.5 0 0 1 .5-.5h8.17a.5.5 0 0 1 0 1h-8.17a.5.5 0 0 1-.5-.5Zm0 3.064a.5.5 0 0 1 .5-.5H9.49a.5.5 0 0 1 0 1H5.404a.5.5 0 0 1-.5-.5Zm6.128 1.7c0-.653.529-1.182 1.18-1.182h4.767c.652 0 1.18.529 1.18 1.181v4.766a1.18 1.18 0 0 1-1.18 1.181h-3.354a.497.497 0 0 1-.104 0h-1.308a1.18 1.18 0 0 1-1.181-1.18V12.21Zm3.404 4.946h2.543a.18.18 0 0 0 .076-.017l-1.396-2.093-.004-.004h-.005m-.005 0-.003.004-1.206 2.11m2.724-1.662V12.21a.18.18 0 0 0-.181-.18h-4.766a.18.18 0 0 0-.181.18v4.766c0 .1.08.181.18.181h1.072l1.489-2.604a1.01 1.01 0 0 1 1.34-.399m1.047 1.34-.668-1a1.011 1.011 0 0 0-.38-.34m-3.229-.646a.755.755 0 1 1 1.51 0 .755.755 0 0 1-1.51 0Zm-7.979.067a.5.5 0 0 1 .5-.5H9.49a.5.5 0 0 1 0 1H5.404a.5.5 0 0 1-.5-.5Z" clip-rule="evenodd"/>
</svg>
