<svg xmlns="http://www.w3.org/2000/svg" width="20" height="20" fill="none" viewBox="0 0 20 20">
  <path fill="#606B85" d="M2 5.5c0-.276.21-.5.47-.5h15.06c.26 0 .47.224.47.5s-.21.5-.47.5H2.47C2.21 6 2 5.776 2 5.5ZM10.941 8c-.26 0-.47.224-.47.5s.21.5.47.5h6.588c.26 0 .471-.224.471-.5s-.21-.5-.47-.5h-6.59Zm-.471 3.5c0-.276.211-.5.471-.5h6.588c.26 0 .471.224.471.5s-.21.5-.47.5h-6.59c-.26 0-.47-.224-.47-.5ZM2 14.5c0-.276.21-.5.47-.5h15.06c.26 0 .47.224.47.5s-.21.5-.47.5H2.47c-.26 0-.47-.224-.47-.5Zm5.589-2.261a.55.55 0 0 1-.778 0l-1.65-1.65-.046-.052a.55.55 0 0 1 .046-.726l1.65-1.65.052-.046a.55.55 0 0 1 .726.046l.046.052a.55.55 0 0 1-.046.726L6.329 10.2l1.26 1.261.046.052a.55.55 0 0 1-.046.726Z"/>
</svg>
