<svg xmlns="http://www.w3.org/2000/svg" width="24" height="24" viewBox="0 0 24 24">
  <path fill="#666A6D" fill-rule="evenodd" d="M12,2 C17.5221607,2 22,6.47755813 22,12 C22,17.5224419 17.5221607,22 12,22 C6.47669422,22 2,17.5230247 2,12 C2,6.47697534 6.47669422,2 12,2 Z M12,2.99352052 C7.02541441,2.99352052 2.99352052,7.02566761 2.99352052,12 C2.99352052,16.9743324 7.02541441,21.0064795 12,21.0064795 C16.9734684,21.0064795 21.0064795,16.9737217 21.0064795,12 C21.0064795,7.02627832 16.9734684,2.99352052 12,2.99352052 Z M12.2391304,10.5 C12.4845903,10.5 12.6887388,10.6768752 12.7310748,10.9101244 L12.7391304,11 L12.739,16.25 L14.8724415,16.25 C15.1499969,16.25 15.375,16.4738576 15.375,16.75 C15.375,16.9954599 15.1972198,17.1996084 14.962777,17.2419443 L14.8724415,17.25 L9.62755848,17.25 C9.3500031,17.25 9.125,17.0261424 9.125,16.75 C9.125,16.5045401 9.30278022,16.3003916 9.53722296,16.2580557 L9.62755848,16.25 L11.739,16.25 L11.7386364,11.4992727 L10.5,11.5 C10.2545401,11.5 10.0503916,11.3231248 10.0080557,11.0898756 L10,11 C10,10.7545401 10.1768752,10.5503916 10.4101244,10.5080557 L10.5,10.5 L12.2391304,10.5 Z M11.8347826,6.75454545 C12.3500554,6.75454545 12.7695652,7.17405525 12.7695652,7.68932806 C12.7695652,8.20604997 12.3503481,8.62411067 11.8347826,8.62411067 C11.3177707,8.62411067 10.9,8.20634 10.9,7.68932806 C10.9,7.17376262 11.3180607,6.75454545 11.8347826,6.75454545 Z"/>
</svg>
