<svg xmlns="http://www.w3.org/2000/svg" width="24" height="24" viewBox="0 0 24 24">
  <path fill="#666A6D" fill-rule="evenodd" d="M12.0017391,0.48 C18.3642532,0.48 23.5234783,5.63890109 23.5234783,12.0017391 C23.5234783,18.3645772 18.3642532,23.5234783 12.0017391,23.5234783 C5.63794459,23.5234783 0.48,18.3652098 0.48,12.0017391 C0.48,5.6382685 5.63794459,0.48 12.0017391,0.48 Z M12.0017391,2.48 C6.7425422,2.48 2.48,6.74280988 2.48,12.0017391 C2.48,17.2606684 6.7425422,21.5234783 12.0017391,21.5234783 C17.2597118,21.5234783 21.5234783,17.2599796 21.5234783,12.0017391 C21.5234783,6.7434987 17.2597118,2.48 12.0017391,2.48 Z M12.3030435,10.0886957 C12.8553282,10.0886957 13.3030435,10.5364109 13.3030435,11.0886957 L13.3030435,11.0886957 L13.303,16.697 L15.1691304,16.6973913 C15.6819663,16.6973913 16.1046376,17.0834315 16.1624027,17.5807702 L16.1691304,17.6973913 C16.1691304,18.2496761 15.7214152,18.6973913 15.1691304,18.6973913 L15.1691304,18.6973913 L9.43,18.6973913 C8.87771525,18.6973913 8.43,18.2496761 8.43,17.6973913 C8.43,17.1451066 8.87771525,16.6973913 9.43,16.6973913 L9.43,16.6973913 L11.303,16.697 L11.3030435,12.0886957 L10.39,12.0886957 C9.83771525,12.0886957 9.39,11.6409804 9.39,11.0886957 C9.39,10.5364109 9.83771525,10.0886957 10.39,10.0886957 L10.39,10.0886957 Z M11.8282609,5.78434783 C12.6435891,5.78434783 13.3065217,6.44728047 13.3065217,7.2626087 C13.3065217,8.07980963 12.6436331,8.74086957 11.8282609,8.74086957 C11.0110196,8.74086957 10.35,8.07984997 10.35,7.2626087 C10.35,6.44723642 11.0110599,5.78434783 11.8282609,5.78434783 Z"/>
</svg>
