<svg xmlns="http://www.w3.org/2000/svg" width="24" height="24" viewBox="0 0 24 24">
  <path fill="#666A6D" fill-rule="evenodd" d="M12,4 C16.418278,4 20,7.581722 20,12 C20,16.418278 16.418278,20 12,20 C7.581722,20 4,16.418278 4,12 C4,7.581722 7.581722,4 12,4 Z M12.0000053,11.0006167 C11.740193,11.0103855 11.4723943,11.0803986 11.2925308,11.2399711 C11.1146692,11.3979126 11.0007517,11.5949296 11.0007517,11.8147377 L11.0007517,11.8147377 L11.0007517,15.1852555 C11.0007517,15.3953034 11.1106654,15.6134632 11.2925308,15.7616358 C11.4663992,15.9016965 11.7501919,16.0091368 12.0000053,15.9993852 C12.259807,15.9911869 12.5276057,15.9211997 12.7074692,15.7616358 C12.8853308,15.6020719 12.9992483,15.4066946 12.9992483,15.1852555 L12.9992483,15.1852555 L12.9992483,11.8147377 C12.9992483,11.6063209 12.8893346,11.3881351 12.7074692,11.2399711 C12.5336008,11.0983139 12.2498081,10.9908478 12.0000053,11.0006167 Z M12,8.00073698 L11.7341979,8.03600271 C11.5643227,8.08302368 11.4164365,8.16727305 11.2925308,8.2887612 L11.2925308,8.2887612 L11.1366477,8.48664804 C11.0467106,8.63947657 11.0007517,8.80406036 11.0007517,8.98039938 L11.0007517,8.98039938 L11.0007517,9.01959044 C10.9947566,9.15478612 11.0247321,9.28017883 11.086685,9.39774164 C11.1266594,9.51921941 11.1946073,9.62502697 11.2925308,9.71319129 C11.3824679,9.80724362 11.4903796,9.87582279 11.6142854,9.91500347 C11.7341979,9.97574235 11.8621075,10.0051408 12,9.99926322 C12.0879299,9.98750798 12.1778669,9.97574235 12.2658021,9.96398711 C12.4356773,9.91696614 12.5835635,9.83271677 12.7074692,9.71123901 L12.7074692,9.71123901 L12.8633523,9.51334179 C12.9532894,9.36051325 12.9992483,9.19592947 12.9992483,9.01959044 L12.9992483,9.01959044 L12.9992483,8.98039938 C13.0052434,8.8452037 12.9752679,8.71981099 12.913315,8.60224818 C12.8733406,8.48077041 12.8053927,8.37496285 12.7074692,8.28679853 C12.6175321,8.1927462 12.5096204,8.12417742 12.3857146,8.08498635 C12.2658021,8.02424747 12.1378925,7.99485936 12,8.00073698 L12,8.00073698 Z"/>
</svg>
