<svg xmlns="http://www.w3.org/2000/svg" width="20" height="20" fill="none" viewBox="0 0 20 20">
  <path fill="#606B85" fill-rule="evenodd" d="M13.16 4.069a.625.625 0 0 1 .271.84l-5.5 10.75a.625.625 0 0 1-1.112-.569l5.5-10.75a.625.625 0 0 1 .84-.271Z" clip-rule="evenodd"/>
  <path fill="#606B85" fill-rule="evenodd" d="M4 15.375c0-.345.28-.625.625-.625h5.75a.625.625 0 1 1 0 1.25h-5.75A.625.625 0 0 1 4 15.375Zm5-10.75C9 4.28 9.28 4 9.625 4h5.75a.625.625 0 1 1 0 1.25h-5.75A.625.625 0 0 1 9 4.625Z" clip-rule="evenodd"/>
</svg>
