<svg width="20" height="20" viewBox="0 0 20 20" fill="none" xmlns="http://www.w3.org/2000/svg">
<path fill-rule="evenodd" clip-rule="evenodd" d="M13.1597 4.06861C13.467 4.22583 13.5886 4.60239 13.4314 4.90968L7.93141 15.6597C7.77418 15.967 7.39762 16.0886 7.09033 15.9314C6.78303 15.7742 6.66137 15.3976 6.81859 15.0903L12.3186 4.34034C12.4758 4.03304 12.8524 3.91138 13.1597 4.06861Z" fill="#606B85"/>
<path fill-rule="evenodd" clip-rule="evenodd" d="M4 15.375C4 15.0298 4.27982 14.75 4.625 14.75H10.375C10.7202 14.75 11 15.0298 11 15.375C11 15.7202 10.7202 16 10.375 16H4.625C4.27982 16 4 15.7202 4 15.375Z" fill="#606B85"/>
<path fill-rule="evenodd" clip-rule="evenodd" d="M9 4.62501C9 4.27983 9.27982 4.00001 9.625 4.00001L15.375 4.00001C15.7202 4.00001 16 4.27983 16 4.62501C16 4.97019 15.7202 5.25001 15.375 5.25001H9.625C9.27982 5.25001 9 4.97019 9 4.62501Z" fill="#606B85"/>
</svg>
