<svg xmlns="http://www.w3.org/2000/svg" width="20" height="20" fill="none" viewBox="0 0 20 20">
  <path fill="#606B85" fill-rule="evenodd" d="M2 3.5a1 1 0 0 1 1-1h4a1 1 0 0 1 1 1v2a1 1 0 0 1-1 1H5.5V8A1.5 1.5 0 0 0 7 9.5h2.5V8a1 1 0 0 1 1-1h7a1 1 0 0 1 1 1v4a1 1 0 0 1-1 1h-7a1 1 0 0 1-1-1v-1.5H7A1.5 1.5 0 0 0 5.5 12v1.5H7a1 1 0 0 1 1 1v2a1 1 0 0 1-1 1H3a1 1 0 0 1-1-1v-2a1 1 0 0 1 1-1h1.5V12c0-.818.393-1.544 1-2a2.496 2.496 0 0 1-1-2V6.5H3a1 1 0 0 1-1-1v-2Zm5 0H3v2h4v-2Zm3.5 6.584a.5.5 0 0 0 0-.167V8h7v4h-7v-1.916ZM3 16.5v-2h4v2H3Z" clip-rule="evenodd"/>
</svg>
