<svg xmlns="http://www.w3.org/2000/svg" width="20" height="20" fill="none" viewBox="0 0 20 20">
  <path fill="#606B85" fill-rule="evenodd" d="m9.875 2.004-.077.01c-.13.015-.28.056-.399.11-.056.024-6.557 3.38-6.887 3.554a.911.911 0 0 0-.065 1.604c.02.012.447.234.95.494.502.26.913.473.912.474l-.927.48c-.508.263-.947.493-.976.512a.909.909 0 0 0-.388.573 1.087 1.087 0 0 0 0 .369.917.917 0 0 0 .466.62c.031.017.452.236.936.486.483.25.878.457.877.46 0 .004-.408.217-.905.473l-.945.491a.925.925 0 0 0-.432.614 1.23 1.23 0 0 0 0 .34.942.942 0 0 0 .147.348c.051.075.158.182.232.232.06.04 6.89 3.578 7.001 3.626.124.054.273.094.42.114.078.01.292.01.37 0 .147-.02.297-.06.42-.114.046-.02 6.695-3.452 6.896-3.559a.918.918 0 0 0 .493-.695.786.786 0 0 0 .006-.202c-.005.007-.006.003-.006-.015a.91.91 0 0 0-.043-.198.936.936 0 0 0-.405-.49c-.023-.014-.45-.236-.948-.494l-.906-.47.876-.455c.965-.499.975-.504 1.035-.544a.907.907 0 0 0 .382-.593.58.58 0 0 0 .015-.245c-.004.002-.006-.005-.006-.017a.91.91 0 0 0-.4-.656 49.309 49.309 0 0 0-.97-.508c-.505-.261-.92-.477-.923-.48-.003-.003.372-.2.835-.439 1.17-.603 1.08-.554 1.195-.668A.915.915 0 0 0 18 6.579a.306.306 0 0 0 .006-.088c0-.057-.002-.081-.006-.075-.005.007-.006.004-.006-.014 0-.07-.04-.207-.087-.3a.981.981 0 0 0-.425-.427c-.242-.128-6.818-3.524-6.861-3.543a1.578 1.578 0 0 0-.394-.116 2.787 2.787 0 0 0-.352-.012Zm.07 1.001a.525.525 0 0 0-.188.057c-.13.064-6.643 3.433-6.643 3.437 0 .002.533.279 1.185.616.944.486 1.195.614 1.23.622a.401.401 0 0 1 .168.087c.038.031.318.178 2.012 1.054l2.032 1.05a.534.534 0 0 0 .505.006c.029-.013.942-.485 2.03-1.046 1.782-.921 1.981-1.026 2.023-1.061a.4.4 0 0 1 .175-.09c.04-.01.233-.107 1.233-.623a70.79 70.79 0 0 0 1.18-.616 3415.86 3415.86 0 0 0-6.599-3.413c-.142-.072-.227-.092-.342-.08ZM2.004 6.5c0 .048 0 .067.002.043a1.012 1.012 0 0 0 0-.086c-.001-.024-.002-.004-.002.043Zm2.251 2.907c-.627.325-1.14.592-1.14.594 0 .002.531.278 1.181.614.992.513 1.189.613 1.224.62.06.012.124.045.18.091.042.036.256.148 2.056 1.079 1.105.572 2.025 1.046 2.045 1.055a.534.534 0 0 0 .4 0c.02-.009.94-.483 2.046-1.055 1.796-.93 2.014-1.044 2.056-1.08a.417.417 0 0 1 .179-.09c.036-.007.232-.107 1.224-.62.65-.336 1.181-.612 1.181-.614 0-.002-.514-.27-1.143-.595L14.6 8.814l-.075.039c-.183.096-3.72 1.922-3.81 1.968a1.615 1.615 0 0 1-.494.163c-.108.017-.35.015-.458-.003a1.58 1.58 0 0 1-.459-.15L7.32 9.804a413.062 413.062 0 0 0-1.913-.986c-.007-.002-.5.25-1.153.587ZM2.003 10c0 .047 0 .067.002.043a1.012 1.012 0 0 0 0-.086c-.001-.024-.002-.005-.002.043Zm2.323 2.868-1.14.59-.078.04 3.184 1.648 3.355 1.734c.205.104.23.112.353.112.11 0 .153-.011.272-.07.197-.099 6.614-3.417 6.614-3.42 0-.004-2.256-1.174-2.279-1.182-.007-.003-.709.357-1.98 1.015a167.96 167.96 0 0 1-2.054 1.053 1.57 1.57 0 0 1-.365.1 2.626 2.626 0 0 1-.416 0 1.571 1.571 0 0 1-.365-.1c-.051-.02-.835-.423-2.052-1.052a290.642 290.642 0 0 0-1.978-1.019c-.004 0-.486.248-1.07.55Zm-2.323.63c0 .045 0 .063.002.04a.93.93 0 0 0 0-.084c-.001-.022-.002-.002-.002.044Z" clip-rule="evenodd"/>
</svg>
