<svg xmlns="http://www.w3.org/2000/svg" width="20" height="20" fill="none" viewBox="0 0 20 20">
  <path fill="#606B85" fill-rule="evenodd" d="M8.5 2a.5.5 0 0 0-.5.5v1.314A6.509 6.509 0 0 0 3.815 8H2.5a.5.5 0 0 0-.5.5v3a.5.5 0 0 0 .5.5h1.314A6.51 6.51 0 0 0 8 16.186V17.5a.5.5 0 0 0 .5.5h3a.5.5 0 0 0 .5-.5v-1.314A6.51 6.51 0 0 0 16.186 12H17.5a.5.5 0 0 0 .5-.5v-3a.5.5 0 0 0-.5-.5h-1.314A6.509 6.509 0 0 0 12 3.814V2.5a.5.5 0 0 0-.5-.5h-3ZM12 4.876V5.5a.5.5 0 0 1-.5.5h-3a.5.5 0 0 1-.5-.5v-.624A5.509 5.509 0 0 0 4.876 8H5.5a.5.5 0 0 1 .5.5v3a.5.5 0 0 1-.5.5h-.624A5.51 5.51 0 0 0 8 15.124V14.5a.5.5 0 0 1 .5-.5h3a.5.5 0 0 1 .5.5v.624A5.51 5.51 0 0 0 15.124 12H14.5a.5.5 0 0 1-.5-.5v-3a.5.5 0 0 1 .5-.5h.624A5.509 5.509 0 0 0 12 4.876ZM11 15v2H9v-2h2ZM9 4.17a.5.5 0 0 1 0 .039V5h2V3H9v1.17ZM3 9h2v2H3V9Zm12 0v2h2V9h-2Z" clip-rule="evenodd"/>
</svg>
