<svg xmlns="http://www.w3.org/2000/svg" width="20" height="20" viewBox="0 0 20 20">
  <path fill="#707578" fill-rule="evenodd" d="M8.4,4.5 C8.67614237,4.5 8.9,4.72385763 8.9,5 L8.9,5.1 C8.9,5.37614237 8.67614237,5.6 8.4,5.6 L5.6,5.6 L5.6,14.4 L14.4,14.4 L14.4,11.6 C14.4,11.3545401 14.5768752,11.1503916 14.8101244,11.1080557 L14.9,11.1 L15,11.1 C15.2454599,11.1 15.4496084,11.2768752 15.4919443,11.5101244 L15.5,11.6 L15.5,15 C15.5,15.2454599 15.3231248,15.4496084 15.0898756,15.4919443 L15,15.5 L5,15.5 C4.75454011,15.5 4.55039163,15.3231248 4.50805567,15.0898756 L4.5,15 L4.5,5 C4.5,4.75454011 4.67687516,4.55039163 4.91012437,4.50805567 L5,4.5 L8.4,4.5 Z M15,4.5 C15.2761424,4.5 15.5,4.72385763 15.5,5 L15.5,5.1 L15.499,5.11 L15.5,8.4 C15.5,8.67614237 15.2761424,8.9 15,8.9 L14.9,8.9 C14.6238576,8.9 14.4,8.67614237 14.4,8.4 L14.3988889,6.465 L10.4321208,10.4321208 C10.2199842,10.6442575 9.89068767,10.6678282 9.6525155,10.502833 L9.56787919,10.4321208 C9.35574254,10.2199842 9.3321718,9.89068767 9.49716697,9.6525155 L9.56787919,9.56787919 L13.5338889,5.6 L11.6,5.6 C11.3238576,5.6 11.1,5.37614237 11.1,5.1 L11.1,5 C11.1,4.72385763 11.3238576,4.5 11.6,4.5 L15,4.5 Z"/>
</svg>
