<svg xmlns="http://www.w3.org/2000/svg" width="20" height="20" fill="none" viewBox="0 0 20 20">
  <path fill="#606B85" d="M13.074 5.674a2.3 2.3 0 0 1 3.252 3.252l-2.97 2.97A2.3 2.3 0 0 1 9.869 8.92a.5.5 0 1 0-.808-.588 3.3 3.3 0 0 0 5.004 4.272l2.97-2.97a3.3 3.3 0 0 0-4.667-4.666l-.467.466a.5.5 0 1 0 .707.707l.467-.466Z"/>
  <path fill="#606B85" d="M9.18 7.163a2.3 2.3 0 0 1 1.952 3.65.5.5 0 1 0 .809.59A3.3 3.3 0 0 0 6.936 7.13l-2.97 2.97a3.3 3.3 0 0 0 4.667 4.667l.58-.58a.5.5 0 1 0-.707-.707l-.58.58a2.3 2.3 0 1 1-3.252-3.252l2.97-2.97c.409-.41.958-.652 1.536-.675Z"/>
</svg>
