<svg xmlns="http://www.w3.org/2000/svg" width="24" height="24" viewBox="0 0 24 24">
  <path fill="#666A6D" fill-rule="evenodd" d="M15.5,8 L15.5115408,8.00013238 C15.5324012,8.000611 15.5532373,8.0023875 15.5739178,8.00546187 L15.5,8 C15.536097,8 15.5713007,8.00382515 15.6052277,8.01109223 C15.6204743,8.01439613 15.6358347,8.01844802 15.6510116,8.02324135 C15.6647369,8.0275581 15.6780251,8.03240845 15.6910366,8.03779224 C15.7045389,8.04335147 15.7182757,8.04974961 15.7317582,8.05680497 C15.7440467,8.06329334 15.7556825,8.07001934 15.7670103,8.07718801 C15.7788346,8.08460935 15.7906092,8.09277454 15.8020925,8.10150261 C15.8157542,8.11192025 15.8288187,8.1229392 15.8412864,8.13458875 C15.845325,8.13835695 15.8494658,8.142359 15.8535534,8.14644661 L15.8654113,8.15871357 C15.8770608,8.17118132 15.8880797,8.18424576 15.8984173,8.19785608 L15.8535534,8.14644661 C15.8803877,8.17328088 15.9035342,8.20240643 15.922993,8.23319348 C15.9299807,8.24431753 15.9367067,8.25595333 15.9429657,8.26787276 C15.9502504,8.28172431 15.9566485,8.29546114 15.9623894,8.3094049 C15.9675915,8.32197493 15.9724419,8.33526315 15.9767316,8.34880083 C15.981552,8.36416529 15.9856039,8.37952575 15.9889143,8.39501295 C15.9899978,8.39986139 15.9910104,8.40497916 15.9919443,8.41012437 L15.9948333,8.42809589 C15.9973429,8.44546098 15.9989382,8.46293275 15.9996194,8.48043349 L16,8.5 L16,16.5 C16,16.7761424 15.7761424,17 15.5,17 C15.2545401,17 15.0503916,16.8231248 15.0080557,16.5898756 L15,16.5 L15,9.706 L6.85355339,17.8535534 C6.65829124,18.0488155 6.34170876,18.0488155 6.14644661,17.8535534 C5.97288026,17.679987 5.95359511,17.4105626 6.08859116,17.2156945 L6.14644661,17.1464466 L14.292,9 L7.5,9 C7.25454011,9 7.05039163,8.82312484 7.00805567,8.58987563 L7,8.5 C7,8.25454011 7.17687516,8.05039163 7.41012437,8.00805567 L7.5,8 L15.5,8 Z"/>
</svg>
