<svg xmlns="http://www.w3.org/2000/svg" width="24" height="24" viewBox="0 0 24 24">
  <path fill="#707578" fill-rule="evenodd" d="M10.5,7 C10.7761424,7 11,7.22385763 11,7.5 C11,7.77614237 10.7761424,8 10.5,8 L8,8 L8,16 L16,16 L16,13.5 C16,13.2545401 16.1768752,13.0503916 16.4101244,13.0080557 L16.5,13 C16.7454599,13 16.9496084,13.1768752 16.9919443,13.4101244 L17,13.5 L17,16.5 C17,16.7454599 16.8231248,16.9496084 16.5898756,16.9919443 L16.5,17 L7.5,17 C7.25454011,17 7.05039163,16.8231248 7.00805567,16.5898756 L7,16.5 L7,7.5 C7,7.25454011 7.17687516,7.05039163 7.41012437,7.00805567 L7.5,7 L10.5,7 Z M16.5,7 C16.7761424,7 17,7.22385763 17,7.5 L17,10.5 C17,10.7761424 16.7761424,11 16.5,11 C16.2238576,11 16,10.7761424 16,10.5 L15.9994444,8.785 L12.3928371,12.3928371 C12.1999856,12.5856886 11.9006252,12.6071165 11.684105,12.4571209 L11.6071629,12.3928371 C11.4143114,12.1999856 11.3928835,11.9006252 11.5428791,11.684105 L11.6071629,11.6071629 L15.2134444,8 L13.5,8 C13.2238576,8 13,7.77614237 13,7.5 C13,7.22385763 13.2238576,7 13.5,7 L16.5,7 Z"/>
</svg>
