<svg xmlns="http://www.w3.org/2000/svg" width="24" height="24" viewBox="0 0 24 24">
  <path fill="#666A6D" fill-rule="evenodd" d="M14.6464466,9.35355339 L14.6723516,9.35419494 C14.7954092,9.34763692 14.9206464,9.39135705 15.0146447,9.48535534 C15.1092939,9.58000458 15.1529662,9.70632682 15.1456616,9.83020467 L15.1464466,9.85355339 L15.1464466,14.8535534 C15.1464466,15.1296958 14.922589,15.3535534 14.6464466,15.3535534 C14.4009867,15.3535534 14.1968382,15.1766782 14.1545023,14.943429 L14.1464466,14.8535534 L14.1455534,10.9905534 L7.62175144,17.5146447 C7.44601551,17.6903806 7.16109127,17.6903806 6.98535534,17.5146447 C6.82914562,17.3584349 6.81178899,17.115953 6.93328543,16.9405717 L6.98535534,16.8782486 L13.5085534,10.3535534 L9.64644661,10.3535534 C9.40098672,10.3535534 9.19683824,10.1766782 9.15450228,9.94342902 L9.14644661,9.85355339 C9.14644661,9.6080935 9.32332177,9.40394502 9.55657098,9.36160906 L9.64644661,9.35355339 L14.6464466,9.35355339 Z"/>
</svg>
