<svg xmlns="http://www.w3.org/2000/svg" width="20" height="20" viewBox="0 0 20 20">
  <path fill="#707578" fill-rule="evenodd" d="M17.0430761,11.3908738 L17.1227207,11.4042462 C17.3617241,11.4661803 17.5038832,11.7049413 17.440242,11.9375338 C16.5493764,15.1934194 13.5081758,17.5 9.99633496,17.5 C7.06091021,17.5 4.4433369,15.8874647 3.14612876,13.43612 L2.86766504,16.2851386 L2.85281891,16.3632593 C2.79530441,16.5646217 2.59927019,16.7062379 2.38180872,16.6904314 C2.13716456,16.6726491 1.9580433,16.4623626 1.98173018,16.2207433 L1.98173018,16.2207433 L2.39261964,12.0294437 L2.40915621,11.9452098 C2.48173246,11.7028464 2.75279925,11.558642 3.00073564,11.6506453 L3.00073564,11.6506453 L6.96185144,13.120521 L7.03347505,13.1547078 C7.21227772,13.261046 7.29103965,13.4831027 7.20996496,13.6848688 L7.20996496,13.6848688 L7.17362109,13.7562752 C7.06158785,13.9350196 6.83443284,14.0177966 6.63155431,13.9425132 L6.63155431,13.9425132 L3.8836597,12.9233118 C5.00833956,15.1531494 7.35703261,16.6283587 9.99633496,16.6283587 C13.0997717,16.6283587 15.7876804,14.5897302 16.5747341,11.7132503 C16.6313041,11.5065015 16.8314401,11.3742191 17.0430761,11.3908738 Z M10.0036189,2.5 C12.9390436,2.5 15.5566169,4.11253525 16.8538251,6.56388003 L17.132335,3.71500674 L17.1471811,3.63688603 C17.2046956,3.43552368 17.4007298,3.2939075 17.6181913,3.30971396 C17.8628354,3.32749624 18.0419567,3.53778275 18.0182698,3.77940204 L18.0182698,3.77940204 L17.6073804,7.97070162 L17.5908438,8.05493556 C17.5182675,8.29729894 17.2472007,8.44150338 16.9992644,8.3495001 L16.9992644,8.3495001 L13.0381486,6.8796244 L12.9665249,6.84543753 C12.7877223,6.73909937 12.7089603,6.51704268 12.790035,6.31527656 L12.790035,6.31527656 L12.8263789,6.24387018 C12.9384121,6.06512573 13.1655672,5.98234876 13.3684457,6.05763215 L13.3684457,6.05763215 L16.1162941,7.07668816 C14.9916143,4.84685064 12.6429212,3.37164129 10.0036189,3.37164129 C6.90018216,3.37164129 4.21227341,5.41026975 3.42521971,8.28674965 C3.36864971,8.4934985 3.16851373,8.62578093 2.95687773,8.60912624 L2.87723312,8.59575385 C2.63822972,8.53381969 2.49607061,8.2950587 2.55971185,8.06246624 C3.45057739,4.80658061 6.49177804,2.5 10.0036189,2.5 Z"/>
</svg>
