<svg xmlns="http://www.w3.org/2000/svg" width="24" height="24" viewBox="0 0 24 24">
  <path fill="#707578" fill-rule="evenodd" d="M19.0430761,13.3908738 L19.1227207,13.4042462 C19.3617241,13.4661803 19.5038832,13.7049413 19.440242,13.9375338 C18.5493764,17.1934194 15.5081758,19.5 11.996335,19.5 C9.06091021,19.5 6.4433369,17.8874647 5.14612876,15.43612 L4.86766504,18.2851386 L4.85281891,18.3632593 C4.79530441,18.5646217 4.59927019,18.7062379 4.38180872,18.6904314 C4.13716456,18.6726491 3.9580433,18.4623626 3.98173018,18.2207433 L3.98173018,18.2207433 L4.39261964,14.0294437 L4.40915621,13.9452098 C4.48173246,13.7028464 4.75279925,13.558642 5.00073564,13.6506453 L5.00073564,13.6506453 L8.96185144,15.120521 L9.03347505,15.1547078 C9.21227772,15.261046 9.29103965,15.4831027 9.20996496,15.6848688 L9.20996496,15.6848688 L9.17362109,15.7562752 C9.06158785,15.9350196 8.83443284,16.0177966 8.63155431,15.9425132 L8.63155431,15.9425132 L5.8836597,14.9233118 C7.00833956,17.1531494 9.35703261,18.6283587 11.996335,18.6283587 C15.0997717,18.6283587 17.7876804,16.5897302 18.5747341,13.7132503 C18.6313041,13.5065015 18.8314401,13.3742191 19.0430761,13.3908738 Z M12.0036189,4.5 C14.9390436,4.5 17.5566169,6.11253525 18.8538251,8.56388003 L19.132335,5.71500674 L19.1471811,5.63688603 C19.2046956,5.43552368 19.4007298,5.2939075 19.6181913,5.30971396 C19.8628354,5.32749624 20.0419567,5.53778275 20.0182698,5.77940204 L20.0182698,5.77940204 L19.6073804,9.97070162 L19.5908438,10.0549356 C19.5182675,10.2972989 19.2472007,10.4415034 18.9992644,10.3495001 L18.9992644,10.3495001 L15.0381486,8.8796244 L14.9665249,8.84543753 C14.7877223,8.73909937 14.7089603,8.51704268 14.790035,8.31527656 L14.790035,8.31527656 L14.8263789,8.24387018 C14.9384121,8.06512573 15.1655672,7.98234876 15.3684457,8.05763215 L15.3684457,8.05763215 L18.1162941,9.07668816 C16.9916143,6.84685064 14.6429212,5.37164129 12.0036189,5.37164129 C8.90018216,5.37164129 6.21227341,7.41026975 5.42521971,10.2867497 C5.36864971,10.4934985 5.16851373,10.6257809 4.95687773,10.6091262 L4.87723312,10.5957538 C4.63822972,10.5338197 4.49607061,10.2950587 4.55971185,10.0624662 C5.45057739,6.80658061 8.49177804,4.5 12.0036189,4.5 Z"/>
</svg>
