<svg xmlns="http://www.w3.org/2000/svg" width="24" height="24" viewBox="0 0 24 24">
  <path fill="#282A2B" fill-rule="evenodd" d="M20.0851746,13.1234155 C20.6188631,13.2655248 20.9363008,13.8133671 20.7941915,14.3470556 C19.7415992,18.3000447 16.1489145,21.1 12,21.1 C9.06360108,21.1 6.39648839,19.6965418 4.71755533,17.4596859 L4.56863263,19.2158973 C4.52170345,19.7661846 4.03756384,20.174237 3.48727655,20.1273078 C2.93698927,20.0803786 2.52893691,19.596239 2.57586609,19.0459517 L2.98289956,14.273115 C3.03954334,13.6089154 3.7179147,13.1850335 4.33971843,13.4253037 L8.81008478,15.1526907 C9.32524721,15.3517538 9.58149637,15.9307479 9.38243329,16.4459104 C9.18337021,16.9610728 8.60437603,17.217322 8.08921359,17.0182589 L6.39882557,16.3657966 C7.7126841,18.0490429 9.75563834,19.1 12,19.1 C15.2369585,19.1 18.0407514,16.9148667 18.8615345,13.8324324 C19.0036438,13.2987439 19.5514861,12.9813062 20.0851746,13.1234155 Z M12.0081102,2.89168727 C14.9445091,2.89168727 17.6116218,4.29514544 19.2905549,6.53200133 L19.4394776,4.77578994 C19.4864068,4.22550266 19.9705464,3.8174503 20.5208337,3.86437948 C21.0711209,3.91130867 21.4791733,4.39544828 21.4322441,4.94573556 L21.0252106,9.71857231 C20.9685669,10.3827719 20.2901955,10.8066538 19.6683918,10.5663836 L15.1980254,8.83899659 C14.682863,8.63993351 14.4266138,8.06093933 14.6256769,7.54577689 C14.82474,7.03061446 15.4037342,6.7743653 15.9188966,6.97342838 L17.6092846,7.62589071 C16.2954261,5.94264442 14.2524719,4.89168727 12.0081102,4.89168727 C8.7711517,4.89168727 5.96735881,7.07682054 5.14657569,10.1592549 C5.00446642,10.6929434 4.45662409,11.010381 3.92293561,10.8682718 C3.38924712,10.7261625 3.07180945,10.1783202 3.21391872,9.64463167 C4.26651104,5.69164261 7.85919573,2.89168727 12.0081102,2.89168727 Z"/>
</svg>
