<svg xmlns="http://www.w3.org/2000/svg" width="24" height="24" viewBox="0 0 24 24">
  <path fill="#666A6D" fill-rule="evenodd" d="M19.8675966,13.5912381 L19.9565188,13.6065798 C20.223363,13.6776344 20.3820819,13.9515556 20.3110272,14.2183998 C19.3163872,17.9537502 15.9209255,20.6 12,20.6 C8.71862757,20.6 5.79300076,18.7454735 4.34652499,15.9273467 L4.0704145,19.1734178 L4.05475098,19.2622838 C3.99274829,19.491092 3.77430858,19.6499804 3.52973646,19.629123 C3.25459281,19.6056584 3.05056663,19.3635886 3.07403122,19.088445 L3.07403122,19.088445 L3.4810647,14.3156082 L3.49854803,14.219795 C3.57694088,13.944441 3.87966245,13.783581 4.15947413,13.8917026 L4.15947413,13.8917026 L8.62984048,15.6190896 L8.71077149,15.6589982 C8.91308325,15.7825598 9.00448721,16.0367383 8.91601473,16.2656994 L8.91601473,16.2656994 L8.87610616,16.3466304 C8.75254453,16.5489422 8.49836597,16.6403462 8.26940489,16.5518737 L8.26940489,16.5518737 L5.17931793,15.3575664 C6.43658776,17.9111756 9.05641063,19.6 12,19.6 C15.4649475,19.6 18.4659633,17.2611612 19.3446988,13.9610882 C19.4078584,13.7238933 19.6313077,13.5721309 19.8675966,13.5912381 Z M12.0081324,3.391086 C15.2887318,3.391086 18.2137532,5.24473883 19.6605849,8.0617479 L19.9377695,4.81783499 L19.953433,4.72896893 C20.0154357,4.50016073 20.2338754,4.34127235 20.4784475,4.36212976 C20.7535911,4.38559435 20.9576173,4.62766416 20.9341527,4.9028078 L20.9341527,4.9028078 L20.5271192,9.67564455 L20.5096359,9.7714578 C20.4312431,10.0468118 20.1285215,10.2076718 19.8487098,10.0995502 L19.8487098,10.0995502 L15.3783435,8.37216318 L15.2974125,8.33225461 C15.0951007,8.20869298 15.0036967,7.95451442 15.0921692,7.72555334 L15.0921692,7.72555334 L15.1320778,7.64462232 C15.2556394,7.44231056 15.509818,7.3509066 15.7387791,7.43937908 L15.7387791,7.43937908 L18.8288144,8.63351958 C17.5715446,6.07991039 14.9517217,4.391086 12.0081324,4.391086 C8.54318488,4.391086 5.54216904,6.72992479 4.66343362,10.0299978 C4.60027394,10.2671927 4.37682466,10.4189552 4.14053578,10.3998479 L4.05161358,10.3845062 C3.78476933,10.3134516 3.6260505,10.0395304 3.69710513,9.77268621 C4.69174515,6.03733583 8.0872069,3.391086 12.0081324,3.391086 Z"/>
</svg>
