<svg xmlns="http://www.w3.org/2000/svg" width="20" height="20" fill="none" viewBox="0 0 20 20">
  <path fill="#606B85" d="M14.59 3.5h.022c.362.016.717.154.982.404.264.25.42.594.405.965V15.13c.015.37-.14.716-.405.965a1.53 1.53 0 0 1-1.004.404H8.408a.5.5 0 0 1 0-1h6.17a.528.528 0 0 0 .33-.132.255.255 0 0 0 .092-.199l-.001-.026V4.83c.004-.057-.018-.13-.09-.199a.528.528 0 0 0-.33-.131h-6.17a.5.5 0 1 1 0-1h6.181Z"/>
  <path fill="#606B85" d="M8.145 12.856a.5.5 0 0 0 .708 0l2.5-2.5a.499.499 0 0 0 .146-.347v-.006a.5.5 0 0 0-.146-.354l-2.5-2.5a.5.5 0 0 0-.708.707l1.647 1.647H4.499a.5.5 0 0 0 0 1h5.293l-1.647 1.646a.5.5 0 0 0 0 .707Z"/>
</svg>
