<svg width="20" height="20" viewBox="0 0 20 20" fill="none" xmlns="http://www.w3.org/2000/svg">
<path fill-rule="evenodd" clip-rule="evenodd" d="M5.48956 1L14.3179 1C14.9538 1.00071 15.5635 1.25365 16.0132 1.70332C16.4629 2.153 16.7158 2.76268 16.7165 3.39862V3.40439L16.7152 3.54395V9.75301C16.7145 10.3919 16.4604 11.0044 16.0086 11.4562C15.5569 11.908 14.9443 12.1621 14.3054 12.1628H9.46414L6.94553 17.8064L6.94371 17.8102C6.77599 18.1655 6.5109 18.4659 6.17923 18.6765C5.84758 18.8871 5.46296 18.9993 5.07009 19H5.06861C4.51989 18.999 3.99398 18.7804 3.6062 18.3921C3.21842 18.0039 3.00042 17.4777 3 16.929L3 13.0341C3.00069 12.4154 3.23898 11.8215 3.66425 11.3743C3.25941 10.933 3.03319 10.355 3.03252 9.75365L3.03252 9.74852L3.09056 3.39633C3.09056 3.39584 3.09056 3.39535 3.09056 3.39486C3.09226 2.75978 3.34548 2.15122 3.79482 1.70238C4.24451 1.25318 4.85395 1.00061 5.48956 1ZM5.48955 2.53816C5.26127 2.53851 5.04243 2.62935 4.88101 2.79078C4.71959 2.9522 4.62875 3.17103 4.62839 3.39931V3.4044L4.57005 9.7559C4.57118 9.98344 4.66218 10.2013 4.82328 10.3621C4.98487 10.5234 5.20381 10.614 5.43211 10.6141H8.47223L12.0745 2.53816H5.48955ZM14.4962 2.60263C14.303 2.5592 14.1007 2.58285 13.9226 2.66969C13.7458 2.75595 13.6034 2.89943 13.5185 3.07679L10.1552 10.6141H14.2586C14.487 10.6138 14.7059 10.523 14.8674 10.3615C15.0289 10.2 15.1197 9.98107 15.12 9.7527V9.74851L15.1771 3.5344V3.45355C15.1771 3.25548 15.1097 3.0633 14.9859 2.90864C14.8622 2.75398 14.6895 2.64606 14.4962 2.60263ZM5.41072 12.1628C5.17943 12.1631 4.95769 12.2551 4.79412 12.4186C4.63062 12.5821 4.53858 12.8037 4.53816 13.0348V16.9282C4.53853 17.0486 4.57977 17.1654 4.65512 17.2594C4.73056 17.3535 4.83572 17.4191 4.95336 17.4456C5.07101 17.4721 5.19417 17.4579 5.30267 17.4053C5.40983 17.3532 5.49641 17.2668 5.5486 17.1598L7.77848 12.1628H5.41072Z" fill="#606B85"/>
</svg>
