<svg xmlns="http://www.w3.org/2000/svg" width="24" height="24" viewBox="0 0 24 24">
  <path fill="#707578" fill-rule="evenodd" d="M12,0 C5.372583,0 0,5.372583 0,12 C0,18.627417 5.372583,24 12,24 C18.627417,24 24,18.627417 24,12 C24,8.81740212 22.7357179,5.76515517 20.4852814,3.51471863 C18.2348448,1.26428208 15.1825979,0 12,0 Z M12,20.8 C7.1398942,20.8 3.2,16.8601058 3.2,12 C3.2,7.1398942 7.1398942,3.2 12,3.2 C16.8601058,3.2 20.8,7.1398942 20.8,12 C20.8,14.3339051 19.8728598,16.5722195 18.2225397,18.2225397 C16.5722195,19.8728598 14.3339051,20.8 12,20.8 Z M17.44,9.04 C17.44,10.4096662 16.3296662,11.52 14.96,11.52 C13.5903338,11.52 12.48,10.4096662 12.48,9.04 C12.48,7.67033382 13.5903338,6.56 14.96,6.56 C16.3260342,6.56872892 17.4312711,7.67396579 17.44,9.04 L17.44,9.04 Z M17.44,14.96 C17.44,16.3296662 16.3296662,17.44 14.96,17.44 C13.5903338,17.44 12.48,16.3296662 12.48,14.96 C12.48,13.5903338 13.5903338,12.48 14.96,12.48 C16.3260342,12.4887289 17.4312711,13.5939658 17.44,14.96 L17.44,14.96 Z M11.52,14.96 C11.52,16.3296662 10.4096662,17.44 9.04,17.44 C7.67033382,17.44 6.56,16.3296662 6.56,14.96 C6.56,13.5903338 7.67033382,12.48 9.04,12.48 C10.4060342,12.4887289 11.5112711,13.5939658 11.52,14.96 L11.52,14.96 Z M11.52,9.04 C11.52,10.4096662 10.4096662,11.52 9.04,11.52 C7.67033382,11.52 6.56,10.4096662 6.56,9.04 C6.56,7.67033382 7.67033382,6.56 9.04,6.56 C10.4060342,6.56872892 11.5112711,7.67396579 11.52,9.04 L11.52,9.04 Z"/>
</svg>
