<svg xmlns="http://www.w3.org/2000/svg" width="20" height="20" fill="none" viewBox="0 0 20 20">
  <path fill="#606B85" fill-rule="evenodd" d="M5.409 3.5a1.528 1.528 0 0 0-1.004.404c-.264.25-.42.594-.405.965V15.13c-.015.37.14.716.405.965a1.529 1.529 0 0 0 1.004.404h6.182a.5.5 0 1 0 0-1H5.42a.529.529 0 0 1-.33-.132.255.255 0 0 1-.092-.199L5 15.143V4.83c-.004-.057.018-.13.09-.199a.528.528 0 0 1 .331-.131h6.17a.5.5 0 1 0 0-1H5.409Zm7.237 3.65a.5.5 0 0 1 .708 0l2.5 2.5A.5.5 0 0 1 16 10v.006a.497.497 0 0 1-.146.35l-2.5 2.5a.5.5 0 1 1-.707-.707l1.646-1.646H9a.5.5 0 0 1 0-1h5.293l-1.646-1.647a.5.5 0 0 1 0-.707Z" clip-rule="evenodd"/>
</svg>
