<svg xmlns="http://www.w3.org/2000/svg" width="20" height="20" viewBox="0 0 20 20">
  <path fill="#606B85" fill-rule="evenodd" d="M16.5,3 C17.3280232,3.00097424 17.9990258,3.67197676 18,4.5 L18,4.5 L18,14.5 C17.9990258,15.3280232 17.3280232,15.9990258 16.5,16 L16.5,16 L9.6668,16 L5.8,18.9 C5.64849118,19.0136316 5.44578522,19.0319096 5.2763932,18.9472136 C5.10700119,18.8625176 5,18.689386 5,18.5 L5,18.5 L5,16 L3.5,16 C2.67197676,15.9990258 2.00097424,15.3280232 2,14.5 L2,14.5 L2,4.5 C2.00097424,3.67197676 2.67197676,3.00097424 3.5,3 L3.5,3 Z M16.5,4 L3.5,4 C3.22396365,4.00025581 3.00025581,4.22396365 3,4.5 L3,4.5 L3,14.5 C3.00025581,14.7760363 3.22396365,14.9997442 3.5,15 L3.5,15 L5.5,15 C5.63261117,15 5.75979368,15.0526658 5.85356394,15.1464361 C5.9473342,15.2402063 6,15.3673888 6,15.5 L6,15.5 L6,17.5 L9.2,15.1 C9.28657435,15.0351391 9.39182397,15.0000559 9.5,15 L9.5,15 L16.5,15 C16.7760363,14.9997442 16.9997442,14.7760363 17,14.5 L17,14.5 L17,4.5 C16.9997442,4.22396365 16.7760363,4.00025581 16.5,4 L16.5,4 Z M11.5154473,6.88604218 C11.8457543,6.88975428 12.1528795,7.05647703 12.335936,7.331444 L12.335936,7.331444 L14.916796,11.223632 C14.92544,11.236696 14.926464,11.251832 14.93374,11.265356 C14.9645868,11.3247998 14.984053,11.3894848 14.991136,11.45608 C14.992528,11.471288 15,11.484424 15,11.5 L15,11.5 L14.990428,11.547388 C14.9872444,11.5811795 14.9805127,11.614542 14.970344,11.646924 C14.9523806,11.7068843 14.9224863,11.7625965 14.882456,11.810716 C14.861012,11.8371981 14.8368298,11.8613401 14.810312,11.88274 C14.797568,11.893116 14.79018,11.90752 14.77618,11.916796 C14.741734,11.9329056 14.707286,11.9490109 14.672836,11.965112 C14.6178876,11.9868971 14.5594953,11.9987113 14.5004,12 L14.5004,12 L5.5,12 C5.22385763,12 5,11.7761424 5,11.5 C5,11.2238576 5.22385763,11 5.5,11 L5.5,11 L6.246484,11 L7.795312,8.676564 C7.81496568,8.64667547 7.83663039,8.61815893 7.860156,8.591212 C8.02317936,8.39135561 8.25870674,8.26418204 8.515236,8.2375 C8.77936794,8.20667543 9.04481162,8.2832406 9.251952,8.45 L9.251952,8.45 L9.658592,8.776564 L10.685156,7.312892 C10.8743458,7.04210845 11.1851403,6.88233008 11.5154473,6.88604218 Z M11.503104,7.88496 L10.170704,9.787696 C10.0913117,9.90093609 9.96856574,9.97623852 9.83164394,9.99570317 C9.69472214,10.0151678 9.55585335,9.97705628 9.448048,9.890428 L9.448048,9.890428 L8.626564,9.230468 L7.447876,11 L13.568456,11 L11.503104,7.88496 Z M6.80742,5.5 C7.22163356,5.5 7.55742,5.83578644 7.55742,6.25 C7.55742,6.66421356 7.22163356,7 6.80742,7 C6.39320644,7 6.05742,6.66421356 6.05742,6.25 C6.05742,5.83578644 6.39320644,5.5 6.80742,5.5 Z"/>
</svg>
