<?xml version="1.0" encoding="utf-8"?>
<svg version="1.1" xmlns="http://www.w3.org/2000/svg" xmlns:xlink="http://www.w3.org/1999/xlink" x="0px" y="0px" viewBox="0 0 1024 1024" xml:space="preserve">
 <path d="M128,944C128,944,128,720,128,720C128,720,0,720,0,720C0,720,0,80,0,80C0,80,1024,80,1024,80C1024,80,1024,720,1024,720C1024,720,441.6,720,441.6,720C441.6,720,128,944,128,944C128,944,128,944,128,944M64,656C64,656,192,656,192,656C192,656,192,816,192,816C192,816,416,656,416,656C416,656,960,656,960,656C960,656,960,144,960,144C960,144,64,144,64,144C64,144,64,656,64,656C64,656,64,656,64,656M128,272C128,321.28,181.312,352.06399999999996,224,327.424C243.776,315.96799999999996,256,294.84799999999996,256,272C256,222.72000000000003,202.688,191.93600000000004,160,216.57600000000002C140.224,228.03200000000004,128,249.15200000000004,128,272M582.4,278.4C582.4,278.4,390.4,470.4,390.4,470.4C390.4,470.4,345.6,425.6,345.6,425.6C345.6,425.6,179.2,592,179.2,592C179.2,592,268.8,592,268.8,592C268.8,592,345.6,515.2,345.6,515.2C345.6,515.2,390.4,560,390.4,560C390.4,560,390.4,560,390.4,560C390.4,560,435.2,515.2,435.2,515.2C435.2,515.2,582.4,368,582.4,368C582.4,368,806.4,592,806.4,592C806.4,592,896,592,896,592C896,592,582.4,278.4,582.4,278.4" />
</svg>