<svg xmlns="http://www.w3.org/2000/svg" width="20" height="20" viewBox="0 0 20 20">
  <path fill="#707578" fill-rule="evenodd" d="M10,14.5 C10.827,14.5 11.5,15.173 11.5,16 C11.5,16.827 10.827,17.5 10,17.5 C9.173,17.5 8.5,16.827 8.5,16 C8.5,15.173 9.173,14.5 10,14.5 Z M10,8.5 C10.827,8.5 11.5,9.173 11.5,10 C11.5,10.827 10.827,11.5 10,11.5 C9.173,11.5 8.5,10.827 8.5,10 C8.5,9.173 9.173,8.5 10,8.5 Z M10,2.5 C10.827,2.5 11.5,3.173 11.5,4 C11.5,4.827 10.827,5.5 10,5.5 C9.173,5.5 8.5,4.827 8.5,4 C8.5,3.173 9.173,2.5 10,2.5 Z"/>
</svg>
