<svg xmlns="http://www.w3.org/2000/svg" width="24" height="24" viewBox="0 0 24 24">
  <path fill="#666A6D" fill-rule="evenodd" d="M12,18 C13.1026667,18 14,18.8973333 14,20 C14,21.1026667 13.1026667,22 12,22 C10.8973333,22 10,21.1026667 10,20 C10,18.8973333 10.8973333,18 12,18 Z M12,10 C13.1026667,10 14,10.8973333 14,12 C14,13.1026667 13.1026667,14 12,14 C10.8973333,14 10,13.1026667 10,12 C10,10.8973333 10.8973333,10 12,10 Z M12,2 C13.1026667,2 14,2.89733333 14,4 C14,5.10266667 13.1026667,6 12,6 C10.8973333,6 10,5.10266667 10,4 C10,2.89733333 10.8973333,2 12,2 Z"/>
</svg>
