<svg xmlns="http://www.w3.org/2000/svg" width="24" height="24" viewBox="0 0 24 24">
  <path fill="#666A6D" fill-rule="evenodd" d="M12,17 C12.827,17 13.5,17.673 13.5,18.5 C13.5,19.327 12.827,20 12,20 C11.173,20 10.5,19.327 10.5,18.5 C10.5,17.673 11.173,17 12,17 Z M12,10.5 C12.827,10.5 13.5,11.173 13.5,12 C13.5,12.827 12.827,13.5 12,13.5 C11.173,13.5 10.5,12.827 10.5,12 C10.5,11.173 11.173,10.5 12,10.5 Z M12,4 C12.827,4 13.5,4.673 13.5,5.5 C13.5,6.327 12.827,7 12,7 C11.173,7 10.5,6.327 10.5,5.5 C10.5,4.673 11.173,4 12,4 Z"/>
</svg>
