<svg xmlns="http://www.w3.org/2000/svg" width="20" height="20" viewBox="0 0 20 20">
  <path fill="#606B85" fill-rule="evenodd" d="M10,2 C14.418278,2 18,5.581722 18,10 C18,14.418278 14.418278,18 10,18 C5.581722,18 2,14.418278 2,10 C2,5.581722 5.581722,2 10,2 Z M10.0000053,9.00061665 C9.74019301,9.01038552 9.47239432,9.0803986 9.29253079,9.23997113 C9.11466916,9.39791264 9.00075171,9.59492962 9.00075171,9.81473774 L9.00075171,9.81473774 L9.00075171,13.1852555 C9.00075171,13.3953034 9.11066537,13.6134632 9.29253079,13.7616358 C9.46639922,13.9016965 9.7501919,14.0091368 10.0000053,13.9993852 C10.259807,13.9911869 10.5276057,13.9211997 10.7074692,13.7616358 C10.8853308,13.6020719 10.9992483,13.4066946 10.9992483,13.1852555 L10.9992483,13.1852555 L10.9992483,9.81473774 C10.9992483,9.60632088 10.8893346,9.38813515 10.7074692,9.23997113 C10.5336008,9.09831394 10.2498081,8.99084779 10.0000053,9.00061665 Z M10,6.00073698 L9.73419791,6.03600271 C9.56432268,6.08302368 9.41643654,6.16727305 9.29253079,6.2887612 L9.29253079,6.2887612 L9.13664766,6.48664804 C9.0467106,6.63947657 9.00075171,6.80406036 9.00075171,6.98039938 L9.00075171,6.98039938 L9.00075171,7.01959044 C8.99475662,7.15478612 9.02473211,7.28017883 9.08668498,7.39774164 C9.12665936,7.51921941 9.19460733,7.62502697 9.29253079,7.71319129 C9.38246785,7.80724362 9.49037961,7.87582279 9.61428536,7.91500347 C9.73419791,7.97574235 9.86210745,8.00514084 10,7.99926322 C10.0879299,7.98750798 10.1778669,7.97574235 10.2658021,7.96398711 C10.4356773,7.91696614 10.5835635,7.83271677 10.7074692,7.71123901 L10.7074692,7.71123901 L10.8633523,7.51334179 C10.9532894,7.36051325 10.9992483,7.19592947 10.9992483,7.01959044 L10.9992483,7.01959044 L10.9992483,6.98039938 C11.0052434,6.8452037 10.9752679,6.71981099 10.913315,6.60224818 C10.8733406,6.48077041 10.8053927,6.37496285 10.7074692,6.28679853 C10.6175321,6.1927462 10.5096204,6.12417742 10.3857146,6.08498635 C10.2658021,6.02424747 10.1378925,5.99485936 10,6.00073698 L10,6.00073698 Z"/>
</svg>
