<svg xmlns="http://www.w3.org/2000/svg" width="24" height="24" viewBox="0 0 24 24">
  <path fill="#707578" fill-rule="evenodd" d="M8.99141205,9.50714251 C8.99407139,8.8284028 10.0119816,8.83223527 10.0095298,9.51097576 C9.99794915,12.4667092 11.3980233,13.9215977 14.5024045,13.9915764 C15.1746563,14.0067302 15.161412,15.0121205 14.4889943,15.0095608 C11.5909249,14.9985287 10.1617521,16.4557577 10.0088995,19.5163217 C9.9760441,20.1741843 8.99808513,20.1547189 8.9914341,19.49607 C8.96086892,16.4692141 7.60878923,15.0054745 4.50973614,15.009564 C3.83532994,15.010454 3.82751794,14.0010462 4.50185714,13.9914981 C7.52145998,13.948743 8.98045889,12.5394539 8.99141205,9.50714251 Z M9.49584074,12.2643323 L9.38136161,12.5056602 C8.92209391,13.405114 8.21487505,14.0639563 7.26614694,14.481792 L7.26614694,14.481792 L7.44178261,14.5616059 C8.41466046,15.027335 9.10608838,15.7734703 9.52463773,16.7818892 L9.52463773,16.7818892 L9.54471074,16.832625 L9.63302062,16.6395813 C10.0971942,15.6674237 10.8064299,14.9553033 11.7558079,14.5159017 L11.7558079,14.5159017 L11.794767,14.4980818 L11.6765602,14.4475095 C10.7143678,14.0128204 10.0097247,13.3307244 9.56430376,12.4135393 L9.56430376,12.4135393 L9.49584074,12.2643323 Z M19.8528461,4.14359286 C20.0272507,4.31377699 20.046629,4.57795121 19.910981,4.76902203 L19.8528461,4.83692051 L17.8989112,6.74218489 L19.8528461,8.65022257 C20.0490513,8.84167972 20.0490513,9.15209308 19.8528461,9.34355022 C19.6784415,9.51373435 19.4077159,9.5326437 19.2119067,9.40027827 L19.1423243,9.34355022 L17.1883895,7.43551253 L15.2344546,9.34355022 C15.0382494,9.53500737 14.720138,9.53500737 14.5239328,9.34355022 C14.3495282,9.1733661 14.3301499,8.90919187 14.4657979,8.71812105 L14.5239328,8.65022257 L16.4778677,6.74218489 L14.5239328,4.83692051 C14.3277276,4.64546336 14.3277276,4.33505 14.5239328,4.14359286 C14.6983374,3.97340873 14.969063,3.95449938 15.1648723,4.08686482 L15.2344546,4.14359286 L17.1883895,6.04885724 L19.1423243,4.14359286 C19.3385295,3.95213571 19.656641,3.95213571 19.8528461,4.14359286 Z"/>
</svg>
