<svg xmlns="http://www.w3.org/2000/svg" width="20" height="20" fill="none" viewBox="0 0 20 20">
  <path fill="#606B85" d="M5.635 8.35c0-.227.185-.412.412-.412h7.906a.412.412 0 0 1 0 .825H6.047a.412.412 0 0 1-.412-.412Zm.412 1.568a.412.412 0 0 0 0 .824h7.906a.412.412 0 0 0 0-.824H6.047Zm-.412 2.392c0-.229.185-.413.412-.413h7.906a.412.412 0 0 1 0 .825H6.047a.412.412 0 0 1-.412-.413Zm.412 1.566a.412.412 0 0 0 0 .825h4.612a.412.412 0 0 0 0-.825H6.047Z"/>
  <path fill="#606B85" fill-rule="evenodd" d="M6.047 2c.227 0 .412.185.412.412v.908H8.27v-.908a.412.412 0 1 1 .823 0v.908h1.812v-.908a.412.412 0 1 1 .823 0v.908h1.812v-.908a.412.412 0 1 1 .823 0v.908h1.565c.592 0 1.071.48 1.071 1.072v12.536A1.07 1.07 0 0 1 15.93 18H4.07C3.48 18 3 17.52 3 16.928V4.392C3 3.8 3.48 3.32 4.07 3.32h1.565v-.908c0-.227.184-.412.412-.412Zm4.859 2.144v.908a.412.412 0 1 0 .823 0v-.908h1.812v.908a.412.412 0 1 0 .823 0v-.908h1.565c.137 0 .248.111.248.248v12.536a.248.248 0 0 1-.248.247H4.071a.247.247 0 0 1-.247-.247V4.392c0-.137.11-.248.247-.248h1.564v.908a.412.412 0 1 0 .824 0v-.908H8.27v.908a.412.412 0 1 0 .823 0v-.908h1.812Z" clip-rule="evenodd"/>
</svg>