<svg width="20" height="20" viewBox="0 0 20 20" fill="none" xmlns="http://www.w3.org/2000/svg">
  <path d="M16.5 17.5H3.5C2.94772 17.5 2.5 17.0523 2.5 16.5V3.5C2.5 2.94772 2.94772 2.5 3.5 2.5H16.5C17.0523 2.5 17.5 2.94772 17.5 3.5V16.5C17.5 17.0523 17.0523 17.5 16.5 17.5Z" stroke="#606B85"/>
  <path d="M13 4V1" stroke="#606B85" stroke-linecap="round" stroke-linejoin="round"/>
  <path d="M7 4V1" stroke="#606B85" stroke-linecap="round" stroke-linejoin="round"/>
  <path d="M10 4V1" stroke="#606B85" stroke-linecap="round" stroke-linejoin="round"/>
  <line x1="5.5" y1="7.5" x2="14.5" y2="7.5" stroke="#606B85" stroke-linecap="round"/>
  <line x1="5.5" y1="10.5" x2="14.5" y2="10.5" stroke="#606B85" stroke-linecap="round"/>
  <line x1="5.5" y1="13.5" x2="11.5" y2="13.5" stroke="#606B85" stroke-linecap="round"/>
  <path d="M5.5 7C5.22386 7 5 7.22386 5 7.5C5 7.77614 5.22386 8 5.5 8H14.5C14.7761 8 15 7.77614 15 7.5C15 7.22386 14.7761 7 14.5 7H5.5Z" fill="#606B85"/>
  <path d="M5 10.5C5 10.2239 5.22386 10 5.5 10H14.5C14.7761 10 15 10.2239 15 10.5C15 10.7761 14.7761 11 14.5 11H5.5C5.22386 11 5 10.7761 5 10.5Z" fill="#606B85"/>
  <path d="M5.5 13C5.22386 13 5 13.2239 5 13.5C5 13.7761 5.22386 14 5.5 14H11.5C11.7761 14 12 13.7761 12 13.5C12 13.2239 11.7761 13 11.5 13H5.5Z" fill="#606B85"/>
  <path fill-rule="evenodd" clip-rule="evenodd" d="M13 0.5C13.2761 0.5 13.5 0.723858 13.5 1V2H16.5C17.3284 2 18 2.67157 18 3.5V16.5C18 17.3284 17.3284 18 16.5 18H3.5C2.67157 18 2 17.3284 2 16.5V3.5C2 2.67157 2.67157 2 3.5 2H6.5V1C6.5 0.723858 6.72386 0.5 7 0.5C7.27614 0.5 7.5 0.723858 7.5 1V2H9.5V1C9.5 0.723858 9.72386 0.5 10 0.5C10.2761 0.5 10.5 0.723858 10.5 1V2H12.5V1C12.5 0.723858 12.7239 0.5 13 0.5ZM7.5 3H9.5V4C9.5 4.27614 9.72386 4.5 10 4.5C10.2761 4.5 10.5 4.27614 10.5 4V3H12.5V4C12.5 4.27614 12.7239 4.5 13 4.5C13.2761 4.5 13.5 4.27614 13.5 4V3H16.5C16.7761 3 17 3.22386 17 3.5V16.5C17 16.7761 16.7761 17 16.5 17H3.5C3.22386 17 3 16.7761 3 16.5V3.5C3 3.22386 3.22386 3 3.5 3H6.5V4C6.5 4.27614 6.72386 4.5 7 4.5C7.27614 4.5 7.5 4.27614 7.5 4V3Z" fill="#606B85"/>
</svg>
