<svg width="20" height="20" viewBox="0 0 20 20" fill="none"><path fill-rule="evenodd" clip-rule="evenodd" d="M10 3.08a4.376 4.376 0 0 0-3.111 1.303 4.48 4.48 0 0 0-1.291 3.151c0 2.794-.406 4.512-.837 5.55a5.742 5.742 0 0 1-.259.544h10.994a5.725 5.725 0 0 1-.257-.54c-.431-1.036-.837-2.754-.837-5.554a4.48 4.48 0 0 0-1.291-3.151A4.376 4.376 0 0 0 10 3.08Zm6.792 10.642a1.29 1.29 0 0 1-.15-.162c-.12-.148-.296-.415-.48-.856-.366-.882-.76-2.462-.76-5.17a5.48 5.48 0 0 0-1.58-3.855A5.377 5.377 0 0 0 10 2.08c-1.434 0-2.81.576-3.822 1.6a5.48 5.48 0 0 0-1.58 3.854c0 2.702-.393 4.282-.76 5.166-.184.442-.361.71-.48.86a1.33 1.33 0 0 1-.152.163.5.5 0 0 0 .294.905h13a.5.5 0 0 0 .292-.906Zm-8.42 1.874a.5.5 0 0 1 .612.357c.072.275.235.52.464.695a1.32 1.32 0 0 0 1.604 0 1.29 1.29 0 0 0 .465-.695.5.5 0 1 1 .967.254c-.13.492-.42.926-.824 1.235a2.32 2.32 0 0 1-2.82 0 2.288 2.288 0 0 1-.824-1.235.5.5 0 0 1 .357-.61Z" fill="#606B85"/></svg>