<svg xmlns="http://www.w3.org/2000/svg" width="20" height="20" fill="none" viewBox="0 0 20 20">
  <path fill="#606B85" d="M4.333 6.5a.5.5 0 0 1 .5.5v4.833h.834a.5.5 0 1 1 0 1H3a.5.5 0 0 1 0-1h.833V8.778a1.39 1.39 0 0 1-.389.055H3a.5.5 0 1 1 0-1h.444a.389.389 0 0 0 .39-.389V7a.5.5 0 0 1 .5-.5Z"/>
  <path fill="#606B85" fill-rule="evenodd" d="M10 6.5c-.767 0-1.543.481-1.805 1.222a.5.5 0 0 0 .726.597l1.179.97-1.024.597c-.563.329-.91.932-.91 1.584v.863a.5.5 0 0 0 .5.5h2.667a.5.5 0 1 0 0-1H9.166v-.364c0-.296.158-.57.414-.72l1.343-.783c.564-.329.91-.932.91-1.584v-.049c0-1.012-.82-1.833-1.833-1.833ZM8.92 8.32a.498.498 0 0 0 .217-.264c.104-.295.467-.556.862-.556.46 0 .833.373.833.833v.05c0 .296-.157.57-.413.72l-.32.186-1.179-.97Z" clip-rule="evenodd"/>
  <path fill="#606B85" d="M15.666 6.5a1.61 1.61 0 0 0-1.289.644.5.5 0 1 0 .8.6.611.611 0 0 1 1.1.366v.179a.656.656 0 0 1-.655.655.5.5 0 1 0 0 1h.044c.46 0 .834.373.834.834V11c0 .46-.373.833-.834.833-.394 0-.757-.26-.862-.555a.5.5 0 1 0-.943.333c.262.74 1.038 1.222 1.805 1.222 1.013 0 1.834-.82 1.834-1.833v-.222a1.83 1.83 0 0 0-.64-1.391 1.65 1.65 0 0 0 .417-1.098V8.11a1.61 1.61 0 0 0-1.61-1.611Z"/>
</svg>
