<svg xmlns="http://www.w3.org/2000/svg" width="20" height="20" fill="none" viewBox="0 0 20 20">
  <path fill="#606B85" d="M5.595 4.6a.625.625 0 0 0-.993-.505l-1.37 1a.625.625 0 1 0 .736 1.01l.377-.275V8.4a.625.625 0 1 0 1.25 0V4.6ZM8.5 5a.5.5 0 0 0 0 1h8a.5.5 0 0 0 0-1h-8ZM8 9.5a.5.5 0 0 1 .5-.5h8a.5.5 0 0 1 0 1h-8a.5.5 0 0 1-.5-.5Zm0 4a.5.5 0 0 1 .5-.5h8a.5.5 0 0 1 0 1h-8a.5.5 0 0 1-.5-.5Zm-3.362-2.4a.523.523 0 0 0-.375.162.588.588 0 0 0-.163.409.5.5 0 0 1-1 0c0-.412.158-.81.445-1.105a1.52 1.52 0 0 1 2.187 0c.286.295.445.693.445 1.105 0 .22-.026.425-.109.637-.08.202-.2.38-.342.563-.144.186-.55.607-.918.979H5.85a.5.5 0 1 1 0 1H3.6a.5.5 0 0 1-.35-.856l.062-.062a108.383 108.383 0 0 0 .7-.699c.41-.415.815-.834.924-.974a1.36 1.36 0 0 0 .202-.317.696.696 0 0 0 .039-.271.589.589 0 0 0-.163-.41.523.523 0 0 0-.376-.161Z"/>
</svg>
