<svg xmlns="http://www.w3.org/2000/svg" width="20" height="20" fill="none" viewBox="0 0 20 20">
  <path fill="#606B85" d="M5.625 4.63a.625.625 0 0 0-.994-.505l-1.37 1a.625.625 0 0 0 .737 1.01l.377-.275v2.52a.625.625 0 1 0 1.25 0V4.63Zm1.749.62c0-.345.28-.625.625-.625h8.376a.625.625 0 1 1 0 1.25H7.999a.625.625 0 0 1-.625-.625Zm0 4.75c0-.345.28-.625.625-.625h8.376a.625.625 0 1 1 0 1.25H7.999A.625.625 0 0 1 7.374 10Zm.625 4.125a.625.625 0 1 0 0 1.25h8.376a.625.625 0 1 0 0-1.25H7.999Zm-3.331-1.87a.398.398 0 0 0-.285.124.463.463 0 0 0-.128.322.625.625 0 1 1-1.25 0c0-.444.17-.873.48-1.192a1.643 1.643 0 0 1 2.366 0c.31.32.48.748.48 1.192 0 .231-.026.452-.117.682a2.427 2.427 0 0 1-.36.595c-.12.156-.416.467-.718.777h.744a.625.625 0 1 1 0 1.25H3.63a.625.625 0 0 1-.439-1.07l.063-.062a91.194 91.194 0 0 0 .698-.697c.415-.419.812-.831.915-.964a1.25 1.25 0 0 0 .184-.286.575.575 0 0 0 .03-.225.463.463 0 0 0-.127-.322.398.398 0 0 0-.286-.124Z"/>
</svg>
