<svg xmlns="http://www.w3.org/2000/svg" width="24" height="24" viewBox="0 0 24 24">
  <path fill="#707578" fill-rule="evenodd" d="M10.5,6 C11.0522847,6 11.5,6.48841664 11.5,7.09090909 L11.5,16.9090909 C11.5,17.5115834 11.0522847,18 10.5,18 L9,18 C8.44771525,18 8,17.5115834 8,16.9090909 L8,7.09090909 C8,6.48841664 8.44771525,6 9,6 L10.5,6 Z M15,6 C15.5522847,6 16,6.48841664 16,7.09090909 L16,16.9090909 C16,17.5115834 15.5522847,18 15,18 L13.5,18 C12.9477153,18 12.5,17.5115834 12.5,16.9090909 L12.5,7.09090909 C12.5,6.48841664 12.9477153,6 13.5,6 L15,6 Z M10.5,7.09090909 L9,7.09090909 L9,16.9090909 L10.5,16.9090909 L10.5,7.09090909 Z M15,7.09090909 L13.5,7.09090909 L13.5,16.9090909 L15,16.9090909 L15,7.09090909 Z"/>
</svg>
