<svg xmlns="http://www.w3.org/2000/svg" width="20" height="20" viewBox="0 0 20 20">
  <path fill="#707578" fill-rule="evenodd" d="M8.5,4 C9.05228475,4 9.5,4.48841664 9.5,5.09090909 L9.5,14.9090909 C9.5,15.5115834 9.05228475,16 8.5,16 L7,16 C6.44771525,16 6,15.5115834 6,14.9090909 L6,5.09090909 C6,4.48841664 6.44771525,4 7,4 L8.5,4 Z M13,4 C13.5522847,4 14,4.48841664 14,5.09090909 L14,14.9090909 C14,15.5115834 13.5522847,16 13,16 L11.5,16 C10.9477153,16 10.5,15.5115834 10.5,14.9090909 L10.5,5.09090909 C10.5,4.48841664 10.9477153,4 11.5,4 L13,4 Z M8.5,5.09090909 L7,5.09090909 L7,14.9090909 L8.5,14.9090909 L8.5,5.09090909 Z M13,5.09090909 L11.5,5.09090909 L11.5,14.9090909 L13,14.9090909 L13,5.09090909 Z"/>
</svg>
