<svg width="20" height="20" viewBox="0 0 20 20" fill="none" xmlns="http://www.w3.org/2000/svg">
<path fill-rule="evenodd" clip-rule="evenodd" d="M6.93852 2.60896C7.90913 2.20693 8.94941 2 9.99999 2C11.0506 2 12.0909 2.20693 13.0615 2.60896C14.0321 3.011 14.914 3.60028 15.6568 4.34315C16.3997 5.08601 16.989 5.96793 17.391 6.93853C17.7931 7.90914 18 8.94943 18 10C18 11.0506 17.7931 12.0909 17.391 13.0615C16.989 14.0321 16.3997 14.914 15.6568 15.6569C14.914 16.3997 14.0321 16.989 13.0615 17.391C12.0909 17.7931 11.0506 18 9.99999 18C8.94941 18 7.90913 17.7931 6.93852 17.391C5.96792 16.989 5.086 16.3997 4.34313 15.6569C3.60027 14.914 3.01099 14.0321 2.60895 13.0615C2.20691 12.0909 1.99999 11.0506 1.99999 10C1.99999 8.94943 2.20691 7.90914 2.60895 6.93853C3.01099 5.96793 3.60027 5.08601 4.34313 4.34315C5.086 3.60028 5.96792 3.011 6.93852 2.60896ZM9.99999 3.16556C9.10248 3.16556 8.21375 3.34234 7.38456 3.6858C6.55537 4.02927 5.80195 4.53269 5.16731 5.16732C4.53268 5.80196 4.02925 6.55538 3.68579 7.38457C3.34233 8.21377 3.16555 9.10249 3.16555 10C3.16555 10.8975 3.34233 11.7862 3.68579 12.6154C4.02925 13.4446 4.53268 14.198 5.16731 14.8327C5.80195 15.4673 6.55537 15.9707 7.38456 16.3142C8.21375 16.6577 9.10248 16.8344 9.99999 16.8344C10.8975 16.8344 11.7862 16.6577 12.6154 16.3142C13.4446 15.9707 14.198 15.4673 14.8327 14.8327C15.4673 14.198 15.9707 13.4446 16.3142 12.6154C16.6576 11.7862 16.8344 10.8975 16.8344 10C16.8344 9.10249 16.6576 8.21377 16.3142 7.38457C15.9707 6.55538 15.4673 5.80196 14.8327 5.16732C14.198 4.53269 13.4446 4.02927 12.6154 3.6858C11.7862 3.34234 10.8975 3.16556 9.99999 3.16556Z" fill="#606B85"/>
<path fill-rule="evenodd" clip-rule="evenodd" d="M10.3447 7.68444C10.1801 7.61627 9.99901 7.59844 9.8243 7.63319C9.64959 7.66794 9.48911 7.75372 9.36315 7.87968C9.23719 8.00564 9.15141 8.16612 9.11666 8.34084C9.0819 8.51555 9.09974 8.69664 9.16791 8.86122C9.23608 9.02579 9.35152 9.16645 9.49963 9.26542C9.64774 9.36439 9.82188 9.41721 10 9.41721C10.4087 9.41721 10.8082 9.53839 11.1479 9.76543C11.4877 9.99247 11.7526 10.3152 11.909 10.6927C12.0653 11.0703 12.1063 11.4857 12.0265 11.8865C11.9468 12.2873 11.75 12.6555 11.4611 12.9445C11.1721 13.2334 10.8039 13.4302 10.4031 13.51C10.0023 13.5897 9.58686 13.5488 9.2093 13.3924C8.83175 13.236 8.50905 12.9712 8.28201 12.6314C8.05497 12.2916 7.93379 11.8921 7.93379 11.4834C7.93379 11.1616 8.19471 10.9007 8.51657 10.9007C8.83843 10.9007 9.09935 11.1616 9.09935 11.4834C9.09935 11.6616 9.15217 11.8357 9.25114 11.9838C9.3501 12.1319 9.49077 12.2474 9.65534 12.3155C9.81992 12.3837 10.001 12.4015 10.1757 12.3668C10.3504 12.332 10.5109 12.2463 10.6369 12.1203C10.7628 11.9943 10.8486 11.8339 10.8834 11.6591C10.9181 11.4844 10.9003 11.3033 10.8321 11.1388C10.7639 10.9742 10.6485 10.8335 10.5004 10.7346C10.3523 10.6356 10.1781 10.5828 10 10.5828C9.59135 10.5828 9.19187 10.4616 8.85208 10.2345C8.51229 10.0075 8.24746 9.68481 8.09107 9.30726C7.93468 8.9297 7.89376 8.51425 7.97349 8.11345C8.05321 7.71264 8.25 7.34447 8.53897 7.0555C8.82794 6.76654 9.1961 6.56975 9.59691 6.49002C9.99772 6.4103 10.4132 6.45122 10.7907 6.6076C11.1683 6.76399 11.491 7.02882 11.718 7.36861C11.9451 7.7084 12.0662 8.10789 12.0662 8.51655C12.0662 8.83841 11.8053 9.09933 11.4835 9.09933C11.1616 9.09933 10.9007 8.83841 10.9007 8.51655C10.9007 8.33841 10.8479 8.16428 10.7489 8.01617C10.6499 7.86805 10.5093 7.75261 10.3447 7.68444Z" fill="#606B85"/>
<path fill-rule="evenodd" clip-rule="evenodd" d="M9.99999 5.46137C10.3218 5.46137 10.5828 5.72229 10.5828 6.04415V7.03312C10.5828 7.35498 10.3218 7.6159 9.99999 7.6159C9.67813 7.6159 9.41721 7.35498 9.41721 7.03312V6.04415C9.41721 5.72229 9.67813 5.46137 9.99999 5.46137Z" fill="#606B85"/>
<path fill-rule="evenodd" clip-rule="evenodd" d="M9.99999 12.3841C10.3218 12.3841 10.5828 12.645 10.5828 12.9669V13.9559C10.5828 14.2777 10.3218 14.5386 9.99999 14.5386C9.67813 14.5386 9.41721 14.2777 9.41721 13.9559V12.9669C9.41721 12.645 9.67813 12.3841 9.99999 12.3841Z" fill="#606B85"/>
</svg>
