<svg xmlns="http://www.w3.org/2000/svg" width="24" height="24" viewBox="0 0 24 24">
  <path fill="#707578" fill-rule="evenodd" d="M13.7931625,6.00715462 C14.1549066,5.96749389 14.515102,6.09415594 14.7724033,6.35149453 L14.7724033,6.35149453 L17.6488268,9.22810827 C17.9060842,9.48555109 18.0326046,9.84584674 17.9927902,10.2076223 C17.9529757,10.5693978 17.7511297,10.893551 17.4441456,11.0888131 L17.4441456,11.0888131 L14.4943769,12.9654279 L14.5134228,13.0863496 C14.6186161,13.9141522 14.4727151,14.7568625 14.0914672,15.5044104 L14.0914672,15.5044104 L13.9816673,15.705845 C13.7934795,16.026611 13.4672099,16.2419877 13.0983124,16.2889641 C12.7294148,16.3359406 12.3595857,16.2092071 12.0975098,15.9463289 L12.0975098,15.9463289 L10.401,14.25 L6.78783051,17.8648207 C6.60760338,18.0450598 6.31539747,18.0450598 6.13517035,17.8648207 C5.97496845,17.7046082 5.95716824,17.4559128 6.08176972,17.2760375 L6.13517035,17.2121174 L9.749,13.597 L8.05500773,11.903559 C7.82457762,11.6738011 7.69874995,11.3619122 7.702362,11.0403811 L7.71190731,10.902203 C7.75888068,10.5332811 7.97424314,10.2069899 8.29661139,10.0178416 C9.09080649,9.55617852 10.0113456,9.3722158 10.9143149,9.48699633 L10.9143149,9.48699633 L11.0340467,9.50486894 L12.9117695,6.55550407 C13.0827875,6.28688668 13.3523801,6.09888492 13.6594464,6.02951204 L13.6594464,6.02951204 Z M13.9559258,6.92492277 L13.8937486,6.92471895 L13.8330936,6.93838814 C13.774723,6.95865579 13.724196,6.99809973 13.6904223,7.05114796 L13.6904223,7.05114796 L11.6450524,10.2658648 C11.5392124,10.4322138 11.3393941,10.512952 11.1477107,10.4668195 C10.3366892,10.2716309 9.48164279,10.396655 8.76207222,10.8149346 C8.68805419,10.8583654 8.63835516,10.9336634 8.62751515,11.0187992 C8.61667514,11.103935 8.64591939,11.1892858 8.70718003,11.2503685 L8.70718003,11.2503685 L12.7506571,15.2941135 C12.8112485,15.3548903 12.8965937,15.3841365 12.9817239,15.3732958 C13.0668541,15.362455 13.1421471,15.3127527 13.184627,15.2403533 C13.603827,14.5191117 13.7288428,13.6640087 13.5336671,12.8529336 C13.4875404,12.661249 13.5682608,12.4614284 13.7345816,12.3555763 L13.7345816,12.3555763 L16.9486955,10.3100064 C17.0195615,10.2649309 17.0661414,10.1901263 17.0753293,10.1066397 C17.0845173,10.023153 17.0553202,9.94000785 16.9960599,9.88070478 L16.9960599,9.88070478 L14.1197302,7.00418498 C14.0603501,6.94479618 13.977228,6.91556647 13.8937486,6.92471895 Z"/>
</svg>
