<svg xmlns="http://www.w3.org/2000/svg" width="24" height="24" viewBox="0 0 24 24">
  <path fill="#707578" fill-rule="evenodd" d="M7.15340352,6.46522223 C7.42635285,6.03353829 7.97813371,5.88204117 8.42992352,6.09660543 L8.53223529,6.15265748 L16.5343505,11.1546503 C16.6612098,11.2339481 16.768524,11.3405788 16.848361,11.4666609 C17.1215962,11.8981661 17.0201074,12.4583099 16.6300135,12.7703782 L16.5349078,12.8378187 L8.53279264,17.8471245 C8.37324073,17.9470036 8.18854086,18 8,18 C7.48716416,18 7.06449284,17.6161659 7.00672773,17.1216693 L7,17.0057146 L7,6.994416 C7,6.80717518 7.05317458,6.62373965 7.15340352,6.46522223 Z M8,6.994416 L8,17.0057146 L16.0021152,11.9964089 L8,6.994416 Z"/>
</svg>
