<svg xmlns="http://www.w3.org/2000/svg" width="24" height="24" viewBox="0 0 24 24">
  <path fill="#666A6D" fill-rule="evenodd" d="M12,4 C12.2454599,4 12.4496084,4.17357349 12.4919443,4.40246871 L12.5,4.49066667 L12.5,11.5 L19.5093333,11.5 C19.7803211,11.5 20,11.7238576 20,12 C20,12.2454599 19.8264265,12.4496084 19.5975313,12.4919443 L19.5093333,12.5 L12.5,12.5 L12.5,19.5093333 C12.5,19.7803211 12.2761424,20 12,20 C11.7545401,20 11.5503916,19.8264265 11.5080557,19.5975313 L11.5,19.5093333 L11.5,12.5 L4.49066667,12.5 C4.21967895,12.5 4,12.2761424 4,12 C4,11.7545401 4.17357349,11.5503916 4.40246871,11.5080557 L4.49066667,11.5 L11.5,11.5 L11.5,4.49066667 C11.5,4.21967895 11.7238576,4 12,4 Z"/>
</svg>
