<svg xmlns="http://www.w3.org/2000/svg" width="24" height="24" viewBox="0 0 24 24">
  <path fill="#282A2B" fill-rule="evenodd" d="M12,3.34782609 C12.5522847,3.34782609 13,3.79554134 13,4.34782609 L13,4.34782609 L12.9998261,10.9998261 L19.6521739,11 C20.1650098,11 20.5876811,11.3860402 20.6454462,11.8833789 L20.6521739,12 C20.6521739,12.5522847 20.2044587,13 19.6521739,13 L19.6521739,13 L12.9998261,12.9998261 L13,19.6521739 C13,20.1650098 12.6139598,20.5876811 12.1166211,20.6454462 L12,20.6521739 C11.4477153,20.6521739 11,20.2044587 11,19.6521739 L11,19.6521739 L10.9998261,12.9998261 L4.34782609,13 C3.83499025,13 3.41231893,12.6139598 3.35455382,12.1166211 L3.34782609,12 C3.34782609,11.4477153 3.79554134,11 4.34782609,11 L4.34782609,11 L10.9998261,10.9998261 L11,4.34782609 C11,3.83499025 11.3860402,3.41231893 11.8833789,3.35455382 Z"/>
</svg>
