<svg xmlns="http://www.w3.org/2000/svg" width="24" height="24" viewBox="0 0 24 24">
  <path fill="#707578" fill-rule="evenodd" d="M17.0434074,11.0434074 L12.9565926,11.0434074 L12.9565926,6.95659259 C12.9565926,6.42903704 12.5275556,6 12,6 C11.4724444,6 11.0434074,6.42903704 11.0434074,6.95659259 L11.0434074,11.0434074 L6.95659259,11.0434074 C6.42903704,11.0434074 6,11.4724444 6,12 C6,12.5275556 6.42903704,12.9565926 6.95659259,12.9565926 L11.0434074,12.9565926 L11.0434074,17.0434074 C11.0434074,17.570963 11.4724444,18 12,18 C12.5275556,18 12.9565926,17.570963 12.9565926,17.0434074 L12.9565926,12.9565926 L17.0434074,12.9565926 C17.570963,12.9565926 18,12.5275556 18,12 C18,11.4724444 17.570963,11.0434074 17.0434074,11.0434074 Z"/>
</svg>
