<svg width="20" height="20" viewBox="0 0 20 20" fill="none" xmlns="http://www.w3.org/2000/svg">
<path fill-rule="evenodd" clip-rule="evenodd" d="M9.99433 3.5H10.0057C10.5579 3.50047 11.0053 3.94857 11.0048 4.50086C11.0043 5.05314 10.5562 5.50047 10.004 5.5H9.99604C9.44376 5.50047 8.99566 5.05314 8.99519 4.50086C8.99471 3.94857 9.44205 3.50047 9.99433 3.5ZM11.8803 4.73361C12.1565 4.25533 12.7681 4.09149 13.2463 4.36766L13.2561 4.37333C13.7339 4.65033 13.8967 5.26222 13.6197 5.74001C13.3427 6.2178 12.7308 6.38058 12.253 6.10357L12.2462 6.09965C11.768 5.82348 11.6041 5.21188 11.8803 4.73361ZM8.1197 4.73361C8.39587 5.21188 8.23203 5.82348 7.75375 6.09966L7.74698 6.10357C7.26918 6.38058 6.6573 6.2178 6.3803 5.74001C6.10329 5.26222 6.26607 4.65033 6.74386 4.37333L6.75365 4.36766C7.23192 4.09149 7.84352 4.25533 8.1197 4.73361ZM14.26 6.3803C14.7378 6.10329 15.3497 6.26607 15.6267 6.74386L15.6323 6.75365C15.9085 7.23192 15.7447 7.84352 15.2664 8.1197C14.7881 8.39587 14.1765 8.23203 13.9003 7.75375L13.8964 7.74698C13.6194 7.26918 13.7822 6.6573 14.26 6.3803ZM5.74001 6.3803C6.2178 6.6573 6.38058 7.26918 6.10357 7.74698L6.09965 7.75375C5.82348 8.23203 5.21188 8.39587 4.73361 8.1197C4.25533 7.84352 4.09149 7.23192 4.36766 6.75365L4.37333 6.74386C4.65033 6.26607 5.26222 6.10329 5.74001 6.3803ZM15.4991 8.99519C16.0514 8.99471 16.4995 9.44205 16.5 9.99433L16.5 10L16.5 10.0057C16.4995 10.5579 16.0514 11.0053 15.4991 11.0048C14.9469 11.0043 14.4995 10.5562 14.5 10.004V9.99604C14.4995 9.44376 14.9469 8.99566 15.4991 8.99519ZM4.50086 8.99519C5.05314 8.99566 5.50047 9.44376 5.5 9.99604V10.004C5.50047 10.5562 5.05314 11.0043 4.50086 11.0048C3.94857 11.0053 3.50047 10.5579 3.5 10.0057V9.99433C3.50047 9.44205 3.94857 8.99471 4.50086 8.99519ZM15.2664 11.8803C15.7447 12.1565 15.9085 12.7681 15.6323 13.2463L15.6267 13.2561C15.3497 13.7339 14.7378 13.8967 14.26 13.6197C13.7822 13.3427 13.6194 12.7308 13.8964 12.253L13.9003 12.2462C14.1765 11.768 14.7881 11.6041 15.2664 11.8803ZM4.73361 11.8803C5.21188 11.6041 5.82348 11.768 6.09966 12.2462L6.10357 12.253C6.38058 12.7308 6.2178 13.3427 5.74001 13.6197C5.26222 13.8967 4.65033 13.7339 4.37333 13.2561L4.36766 13.2463C4.09149 12.7681 4.25533 12.1565 4.73361 11.8803ZM6.3803 14.26C6.6573 13.7822 7.26918 13.6194 7.74698 13.8964L7.75375 13.9003C8.23203 14.1765 8.39587 14.7881 8.1197 15.2664C7.84352 15.7447 7.23192 15.9085 6.75365 15.6323L6.74386 15.6267C6.26607 15.3497 6.10329 14.7378 6.3803 14.26ZM13.6197 14.26C13.8967 14.7378 13.7339 15.3497 13.2561 15.6267L13.2463 15.6323C12.7681 15.9085 12.1565 15.7447 11.8803 15.2664C11.6041 14.7881 11.768 14.1765 12.2462 13.9003L12.253 13.8964C12.7308 13.6194 13.3427 13.7822 13.6197 14.26ZM8.99519 15.4991C8.99566 14.9469 9.44376 14.4995 9.99604 14.5H10.004C10.5562 14.4995 11.0043 14.9469 11.0048 15.4991C11.0053 16.0514 10.5579 16.4995 10.0057 16.5L10 16.5L9.99433 16.5C9.44205 16.4995 8.99471 16.0514 8.99519 15.4991Z" fill="#606B85"/>
</svg>
