<svg xmlns="http://www.w3.org/2000/svg" width="32" height="32" viewBox="0 0 32 32"><g id="b4f61a75-d0c3-48e5-9bab-eafd0b9e3cab" data-name="Rounder Expanded Red"><path d="M29.5,24.66254V20a4.98137,4.98137,0,0,0-2.03094-4A4.98137,4.98137,0,0,0,29.5,12V7.33746a3.5,3.5,0,1,0-2,0V12a3.00328,3.00328,0,0,1-3,3h-2V10.84961a3.00328,3.00328,0,0,0-3-3h-6a3.00328,3.00328,0,0,0-3,3V12a1,1,0,0,0,2,0V10.84961a1.0013,1.0013,0,0,1,1-1h6a1.0013,1.0013,0,0,1,1,1V21a1.001,1.001,0,0,1-1,1h-6a1.001,1.001,0,0,1-1-1V19.9248a1,1,0,0,0-2,0V21a3.00328,3.00328,0,0,0,3,3h6a3.00328,3.00328,0,0,0,3-3V17h2a3.00328,3.00328,0,0,1,3,3v4.66254a3.5,3.5,0,1,0,2,0Z" style="fill:#ee3248"/><path d="M8.5,17h4.96729a1,1,0,0,0,0-2H8.5a3.00328,3.00328,0,0,1-3-3V7.858a4,4,0,1,0-2,0V12a4.98137,4.98137,0,0,0,2.03094,4A4.98137,4.98137,0,0,0,3.5,20v4.142a4,4,0,1,0,2,0V20A3.00328,3.00328,0,0,1,8.5,17ZM2.5,4a2,2,0,1,1,2,2A2.002,2.002,0,0,1,2.5,4Zm4,24a2,2,0,1,1-2-2A2.00229,2.00229,0,0,1,6.5,28Z" style="fill:#ee3248"/><path d="M14.53271,18.15234a.9999.9999,0,1,0,1.41407,1.41407l1.874-1.874a2.49909,2.49909,0,0,0,0-3.53515l-1.874-1.874a.9999.9999,0,1,0-1.41407,1.41407l1.874,1.874a.49983.49983,0,0,1,0,.707Z" style="fill:#ee3248"/></g></svg>