<svg xmlns="http://www.w3.org/2000/svg" width="24" height="24" viewBox="0 0 24 24">
  <path fill="#707578" fill-rule="evenodd" d="M11.9250451,3.00112964 C12.7311734,2.99414195 13.4546645,3.49415948 13.7333677,4.25089343 L13.7333677,4.25089343 L14.0739714,5.17852203 C14.1510511,5.39314129 14.3096061,5.56613724 14.5146888,5.66081549 C14.7188573,5.75820295 14.9538774,5.76829493 15.1657344,5.68877199 C15.1930662,5.67890132 15.2198323,5.66752571 15.2459099,5.6546973 L15.2459099,5.6546973 L16.1430547,5.22357944 C16.8702705,4.87073465 17.7404319,5.01367771 18.3162281,5.58057073 C18.8920243,6.14746375 19.0489312,7.01570813 18.7080932,7.74895644 L18.7080932,7.74895644 L18.291422,8.64676098 C18.0941333,9.07391985 18.2793417,9.58007624 18.7055432,9.77851375 C18.7305306,9.78948633 18.7579624,9.80101715 18.7857839,9.8104763 L18.7857839,9.8104763 L19.7171015,10.1332171 C20.4803186,10.3979577 20.9943618,11.1144946 21.0009925,11.9228628 C21.0076231,12.7312311 20.5054078,13.4566951 19.7466434,13.7348052 L19.7466434,13.7348052 L18.8153849,14.0749654 C18.3735532,14.2378243 18.1464046,14.7275175 18.3074113,15.1700691 C18.3172102,15.1975334 18.3285117,15.2244368 18.3412645,15.2506574 L18.3412645,15.2506574 L18.7739666,16.1401074 C19.1271619,16.8675964 18.9844536,17.7390271 18.4176057,18.3161807 C17.8507578,18.8933343 16.9824545,19.0512961 16.2493419,18.7106314 L16.2493419,18.7106314 L15.3528532,18.2940043 C14.9256922,18.0990743 14.4210648,18.2836651 14.2199992,18.7083982 C14.2086304,18.7332497 14.196701,18.762776 14.1863042,18.7929261 L14.1863042,18.7929261 L13.8633781,19.7245818 C13.5968015,20.4841937 12.883331,20.9956097 12.078905,21.003693 C11.2744791,21.0117764 10.5514638,20.514795 10.2705593,19.7606846 L10.2705593,19.7606846 L9.9291431,18.8273741 C9.85214499,18.6145291 9.69321683,18.4414084 9.48779357,18.3466113 C9.28192077,18.2542719 9.04842884,18.2445671 8.83551636,18.3195002 C8.81084473,18.3287129 8.78209865,18.3402946 8.75549242,18.3531885 L8.75549242,18.3531885 L7.86103691,18.7853883 C7.40462959,19.0069645 6.8787089,19.0367053 6.40047872,18.8679826 C6.37112197,18.8579062 6.34207383,18.8470623 6.31333429,18.8354508 C5.83023442,18.6393622 5.44826844,18.2542745 5.25594625,17.7694211 C5.06362407,17.2845677 5.07763899,16.7420332 5.29474344,16.2675346 L5.29474344,16.2675346 L5.71381906,15.367134 C5.91217429,14.9399574 5.72719943,14.4329548 5.30054721,14.234386 C5.2755654,14.2234111 5.24605944,14.2114899 5.21570801,14.2005655 L5.21570801,14.2005655 L4.28517047,13.8781308 C3.80490332,13.7160256 3.41051085,13.3667119 3.19143122,12.909405 C2.95514018,12.4233285 2.93551486,11.8597832 3.13740862,11.3581778 C3.33930545,10.8565737 3.74386379,10.4637607 4.25100592,10.2769132 L4.25100592,10.2769132 L5.1809672,9.93667662 C5.62305496,9.77380351 5.85060338,9.28407491 5.69001295,8.84111081 C5.67990435,8.81376309 5.66842729,8.78694215 5.65562527,8.7607496 L5.65562527,8.7607496 L5.22426228,7.86693473 C4.87359262,7.14054271 5.01669243,6.27179221 5.58186882,5.69592648 C6.14704522,5.12006074 7.01254974,4.96113091 7.74476537,5.29876069 L7.74476537,5.29876069 L8.64279375,5.71600524 C9.06926299,5.91507534 9.57647627,5.73066428 9.77601918,5.30399058 C9.78854586,5.27740604 9.79956358,5.25013621 9.80901982,5.22231114 L9.80901982,5.22231114 L10.1371871,4.28206586 C10.4036135,3.52060662 11.1189169,3.00811732 11.9250451,3.00112964 Z M12.2226252,4.10799848 C11.778257,3.95279706 11.2920251,4.18714555 11.1361002,4.63166935 L11.1361002,4.63166935 L10.8098577,5.56600946 C10.7879713,5.63027249 10.7623878,5.69321669 10.7332355,5.75452652 C10.5202454,6.21464872 10.1325122,6.57073789 9.65614627,6.74371114 C9.17978039,6.91668438 8.65421751,6.89222224 8.1961785,6.67575744 L8.1961785,6.67575744 L7.29992666,6.25967375 C6.97324999,6.10976717 6.58757485,6.18115812 6.33589873,6.43812153 C6.0842226,6.69508494 6.02068111,7.08234787 6.17707135,7.4061183 L6.17707135,7.4061183 L6.60820372,8.2993969 C6.84468715,8.78587101 6.86387849,9.3499808 6.66101298,9.8516706 C6.45814747,10.3533604 6.05225075,10.7455795 5.54409778,10.9309487 L5.54409778,10.9309487 L4.61467015,11.2709715 C4.27664841,11.3958171 4.05341189,11.7197321 4.05698233,12.0801735 C4.06055278,12.4406149 4.2901595,12.7597797 4.63058413,12.8775087 L4.63058413,12.8775087 L5.56550686,13.2012676 C5.59753999,13.2124466 5.62812446,13.2238899 5.65801494,13.2359665 C5.68713246,13.2477307 5.71556393,13.2601085 5.74345147,13.2727142 C6.20410435,13.4855491 6.56101675,13.8731779 6.73535196,14.3499792 C6.90968716,14.8267805 6.88709979,15.3535202 6.67257908,15.8138491 L6.67257908,15.8138491 L6.2554601,16.7105591 C6.15069505,16.9409674 6.15369433,17.2059941 6.26364548,17.4338468 C6.36005677,17.6387775 6.53556975,17.7956686 6.74991743,17.8685254 C6.96325459,17.943849 7.19787885,17.9307158 7.40158743,17.832048 L7.40158743,17.832048 L8.29444565,17.4005595 C8.34995865,17.373472 8.40883862,17.3490879 8.46878946,17.3264702 C8.94510018,17.151124 9.47143668,17.1724394 9.93180585,17.3857191 C10.392175,17.5989987 10.7487916,17.9867374 10.9230649,18.4634859 L10.9230649,18.4634859 L11.2631116,19.3935663 C11.3485593,19.6308473 11.5378022,19.8159269 11.7768341,19.8959869 C11.9899807,19.9714827 12.2244318,19.9590464 12.4285048,19.8614194 C12.6325777,19.7637924 12.7895176,19.5889901 12.8647286,19.3755462 L12.8647286,19.3755462 L13.187818,18.443486 C13.2099166,18.3810407 13.2333121,18.3231347 13.2593163,18.2653919 C13.4712929,17.8035465 13.8587613,17.4454142 14.3356517,17.2705484 C14.8125421,17.0956827 15.3393661,17.1185631 15.799098,17.334107 L15.799098,17.334107 L16.6951944,17.7505756 C16.9277668,17.8582688 17.1964277,17.855797 17.4271071,17.7438415 C17.6307929,17.6451753 17.7869234,17.4695158 17.8610585,17.2556022 C17.9351937,17.0416886 17.9212411,16.8070999 17.8222792,16.6035924 L17.8222792,16.6035924 L17.3893677,15.7136102 C17.3606239,15.6541841 17.3349281,15.5933284 17.3123803,15.53128 C16.9534082,14.5401049 17.4629712,13.444599 18.452248,13.0806862 L18.452248,13.0806862 L19.3835105,12.7405277 C19.7218589,12.6161349 19.9456827,12.2924316 19.9426794,11.9318344 C19.9396761,11.5712371 19.7104938,11.2515704 19.3701238,11.1332255 L19.3701238,11.1332255 L18.436736,10.8100959 C18.3745693,10.7885602 18.3183967,10.7654173 18.2626177,10.7402044 C17.8024767,10.5274865 17.4458406,10.1403976 17.2712864,9.66422415 C17.0967322,9.18805075 17.1185829,8.66186546 17.3320243,8.20160172 L17.3320243,8.20160172 L17.7488502,7.3034029 C17.8571432,7.07086594 17.8547674,6.80190049 17.7423847,6.57144133 C17.6454349,6.36628167 17.4691381,6.20952602 17.2541177,6.137295 C17.040683,6.06290189 16.8063392,6.07694776 16.6032076,6.17630861 L16.6032076,6.17630861 L15.7080625,6.60690517 C15.6490766,6.6361534 15.5883921,6.66183546 15.5263362,6.68381294 C15.0505931,6.85722854 14.5255911,6.83445309 14.0668538,6.62049819 C13.6081166,6.4065433 13.253232,6.01893994 13.0802903,5.54297798 L13.0802903,5.54297798 L12.7404075,4.61696534 C12.6554228,4.37651971 12.4644017,4.18875079 12.2226252,4.10799848 Z M8.56616096,10.6174102 C9.33286914,8.71974087 11.4915081,7.8024043 13.387616,8.56848163 C15.2820682,9.33624397 16.1969224,11.4939742 15.4325752,13.3916216 C14.665867,15.289291 12.507228,16.2066275 10.6111201,15.4405502 C8.71501218,14.6744729 7.79945279,12.5150795 8.56616096,10.6174102 Z M12.9909738,9.55020571 C11.6366109,9.00300762 10.094726,9.65824803 9.54707728,11.0137261 C8.99942858,12.3692042 9.65339957,13.911628 11.0077624,14.4588261 C12.3621098,15.0042558 13.9027502,14.3495443 14.4516588,12.9953057 C14.9993075,11.6398276 14.3453366,10.0974038 12.9909738,9.55020571 Z"/>
</svg>
