<svg xmlns="http://www.w3.org/2000/svg" width="24" height="24" viewBox="0 0 24 24">
  <path fill="#707578" fill-rule="evenodd" d="M18.7136108,5.46098783 C18.4742011,5.16949689 18.1163121,5.00032486 17.738376,5 L9.52428508,5 C7.02559143,5 5,7.01904515 5,9.50966356 L5,17.7423049 C5.00081936,18.0952663 5.15039828,18.4316404 5.41221264,18.6692913 C5.64077912,18.8801852 5.94026366,18.9981619 6.25171887,19 L6.35728552,19 C10.2632516,18.6592699 11.8015086,16.0336435 11.8869673,14.3299928 C13.7597678,13.7985131 15.1561864,12.2367677 15.4712065,10.321403 C17.2590897,9.7947564 18.6077416,8.32509848 18.9750139,6.50322119 C19.0500789,6.13429226 18.9540211,5.75130282 18.7136108,5.46098783 Z M6.27182681,17.9878311 C6.20546862,17.9893457 6.14093279,17.9661164 6.0908554,17.9226915 C6.03804223,17.8773269 6.00698876,17.8117791 6.00539669,17.7423049 L6.00539669,14.5204009 L10.5296818,14.5204009 C10.6453024,14.5204009 10.755896,14.5204009 10.8715166,14.5204009 C10.6654103,15.7179671 9.43882636,17.722262 6.27182681,17.9978525 L6.27182681,17.9878311 Z M10.5296818,13.5182539 L6.00539669,13.5182539 L6.00539669,10.511811 L14.0485702,10.511811 L14.4255939,10.511811 C13.9669462,12.2824061 12.3642733,13.5191753 10.5296818,13.5182539 Z M14.0485702,9.50966365 L6.00539669,9.50966365 C6.00539669,7.57251591 7.58085668,6.0021183 9.52428508,6.0021183 L17.738376,6.0021183 C17.8152069,6.00095643 17.8880133,6.03631158 17.9344284,6.09735147 C17.9846035,6.15316145 18.0051355,6.2294425 17.9897252,6.3027917 C17.6074584,8.16945671 15.9599041,9.5100524 14.0485702,9.50966365 Z"/>
</svg>
