<svg width="20" height="20" viewBox="0 0 20 20" fill="none" xmlns="http://www.w3.org/2000/svg">
<path fill-rule="evenodd" clip-rule="evenodd" d="M3.80915 2.94118C3.33284 2.94118 2.94118 3.33284 2.94118 3.80915V8.82876C2.94118 9.30507 3.33284 9.69673 3.80915 9.69673H4.14379C4.40369 9.69673 4.61438 9.90742 4.61438 10.1673C4.61438 10.4272 4.40369 10.6379 4.14379 10.6379H3.80915C2.81304 10.6379 2 9.82487 2 8.82876V3.80915C2 2.81304 2.81304 2 3.80915 2H8.82876C9.82487 2 10.6379 2.81304 10.6379 3.80915V4.14379C10.6379 4.40369 10.4272 4.61438 10.1673 4.61438C9.90742 4.61438 9.69673 4.40369 9.69673 4.14379V3.80915C9.69673 3.33284 9.30507 2.94118 8.82876 2.94118H3.80915Z" fill="#606B85"/>
<path fill-rule="evenodd" clip-rule="evenodd" d="M7.4902 6.62222C7.01389 6.62222 6.62222 7.01389 6.62222 7.4902V12.5098C6.62222 12.9861 7.01389 13.3778 7.4902 13.3778H7.82484C8.08473 13.3778 8.29542 13.5885 8.29542 13.8484C8.29542 14.1083 8.08473 14.319 7.82484 14.319H7.4902C6.49409 14.319 5.68105 13.5059 5.68105 12.5098V7.4902C5.68105 6.49409 6.49409 5.68105 7.4902 5.68105H12.5098C13.5059 5.68105 14.319 6.49409 14.319 7.4902V7.82484C14.319 8.08473 14.1083 8.29542 13.8484 8.29542C13.5885 8.29542 13.3778 8.08473 13.3778 7.82484V7.4902C13.3778 7.01389 12.9861 6.62222 12.5098 6.62222H7.4902Z" fill="#606B85"/>
<path fill-rule="evenodd" clip-rule="evenodd" d="M11.1712 10.3033C10.6949 10.3033 10.3033 10.6949 10.3033 11.1712V16.1909C10.3033 16.6672 10.6949 17.0588 11.1712 17.0588H16.1909C16.6672 17.0588 17.0588 16.6672 17.0588 16.1909V11.1712C17.0588 10.6949 16.6672 10.3033 16.1909 10.3033H11.1712ZM9.36209 11.1712C9.36209 10.1751 10.1751 9.36209 11.1712 9.36209H16.1909C17.187 9.36209 18 10.1751 18 11.1712V16.1909C18 17.187 17.187 18 16.1909 18H11.1712C10.1751 18 9.36209 17.187 9.36209 16.1909V11.1712Z" fill="#606B85"/>
</svg>
