<svg width="20" height="20" viewBox="0 0 20 20" fill="none" xmlns="http://www.w3.org/2000/svg">
<path fill-rule="evenodd" clip-rule="evenodd" d="M2.57143 3H17.4286C17.5036 2.99996 17.578 3.01471 17.6473 3.04341C17.7166 3.07211 17.7797 3.1142 17.8327 3.16727C17.8858 3.22034 17.9279 3.28335 17.9566 3.3527C17.9853 3.42205 18 3.49638 18 3.57143V16.7143C18 16.7893 17.9853 16.8637 17.9566 16.933C17.9279 17.0024 17.8858 17.0654 17.8327 17.1184C17.7797 17.1715 17.7166 17.2136 17.6473 17.2423C17.578 17.271 17.5036 17.2858 17.4286 17.2857H2.57143C2.49638 17.2858 2.42205 17.271 2.3527 17.2423C2.28335 17.2136 2.22034 17.1715 2.16727 17.1184C2.1142 17.0654 2.07211 17.0024 2.04341 16.933C2.01471 16.8637 1.99996 16.7893 2 16.7143V3.57143C1.99996 3.49638 2.01471 3.42205 2.04341 3.3527C2.07211 3.28335 2.1142 3.22034 2.16727 3.16727C2.22034 3.1142 2.28335 3.07211 2.3527 3.04341C2.42205 3.01471 2.49638 2.99996 2.57143 3ZM15.7143 16.1429H16.8571V4.14286H15.7143V4.71429C15.7143 4.86584 15.6541 5.01118 15.5469 5.11835C15.4398 5.22551 15.2944 5.28571 15.1429 5.28571C14.9913 5.28571 14.846 5.22551 14.7388 5.11835C14.6316 5.01118 14.5714 4.86584 14.5714 4.71429V4.14286H12.2857V4.71429C12.2857 4.86584 12.2255 5.01118 12.1183 5.11835C12.0112 5.22551 11.8658 5.28571 11.7143 5.28571C11.5627 5.28571 11.4174 5.22551 11.3102 5.11835C11.2031 5.01118 11.1429 4.86584 11.1429 4.71429V4.14286H8.85714V4.71429C8.85714 4.86584 8.79694 5.01118 8.68978 5.11835C8.58261 5.22551 8.43727 5.28571 8.28571 5.28571C8.13416 5.28571 7.98882 5.22551 7.88165 5.11835C7.77449 5.01118 7.71429 4.86584 7.71429 4.71429V4.14286H5.42857V4.71429C5.42857 4.86584 5.36837 5.01118 5.2612 5.11835C5.15404 5.22551 5.0087 5.28571 4.85714 5.28571C4.70559 5.28571 4.56025 5.22551 4.45308 5.11835C4.34592 5.01118 4.28571 4.86584 4.28571 4.71429V4.14286H3.14286V16.1429H4.28571V15.5714C4.28571 15.4199 4.34592 15.2745 4.45308 15.1674C4.56025 15.0602 4.70559 15 4.85714 15C5.0087 15 5.15404 15.0602 5.2612 15.1674C5.36837 15.2745 5.42857 15.4199 5.42857 15.5714V16.1429H7.71429V15.5714C7.71429 15.4199 7.77449 15.2745 7.88165 15.1674C7.98882 15.0602 8.13416 15 8.28571 15C8.43727 15 8.58261 15.0602 8.68978 15.1674C8.79694 15.2745 8.85714 15.4199 8.85714 15.5714V16.1429H11.1429V15.5714C11.1429 15.4199 11.2031 15.2745 11.3102 15.1674C11.4174 15.0602 11.5627 15 11.7143 15C11.8658 15 12.0112 15.0602 12.1183 15.1674C12.2255 15.2745 12.2857 15.4199 12.2857 15.5714V16.1429H14.5714V15.5714C14.5714 15.4199 14.6316 15.2745 14.7388 15.1674C14.846 15.0602 14.9913 15 15.1429 15C15.2944 15 15.4398 15.0602 15.5469 15.1674C15.6541 15.2745 15.7143 15.4199 15.7143 15.5714V16.1429ZM4.85714 6.42858H15.1429C15.2179 6.42853 15.2922 6.44329 15.3616 6.47199C15.4309 6.50069 15.4939 6.54278 15.547 6.59585C15.6001 6.64892 15.6422 6.71193 15.6709 6.78128C15.6996 6.85063 15.7143 6.92495 15.7143 7.00001V13.2857C15.7143 13.3608 15.6996 13.4351 15.6709 13.5044C15.6422 13.5738 15.6001 13.6368 15.547 13.6899C15.4939 13.7429 15.4309 13.785 15.3616 13.8137C15.2922 13.8424 15.2179 13.8572 15.1429 13.8571H4.85714C4.78209 13.8572 4.70776 13.8424 4.63842 13.8137C4.56907 13.785 4.50606 13.7429 4.45299 13.6899C4.39992 13.6368 4.35783 13.5738 4.32913 13.5044C4.30042 13.4351 4.28567 13.3608 4.28571 13.2857V7.00001C4.28567 6.92495 4.30042 6.85063 4.32913 6.78128C4.35783 6.71193 4.39992 6.64892 4.45299 6.59585C4.50606 6.54278 4.56907 6.50069 4.63842 6.47199C4.70776 6.44329 4.78209 6.42853 4.85714 6.42858ZM5.42857 12.7143H14.5714V7.57143H7.71429V8.14286C7.71429 8.29441 7.65408 8.43976 7.54692 8.54692C7.43976 8.65409 7.29441 8.71429 7.14286 8.71429C6.99131 8.71429 6.84596 8.65409 6.7388 8.54692C6.63163 8.43976 6.57143 8.29441 6.57143 8.14286V7.57143H5.42857V12.7143Z" fill="#606B85"/>
</svg>
