<svg xmlns="http://www.w3.org/2000/svg" width="24" height="24" viewBox="0 0 24 24">
  <path fill="#707578" fill-rule="evenodd" d="M17.6568542,6.34314575 C20.7810486,9.46734008 20.7810486,14.5326599 17.6568542,17.6568542 C14.5326599,20.7810486 9.46734008,20.7810486 6.34314575,17.6568542 C3.21895142,14.5326599 3.21895142,9.46734008 6.34314575,6.34314575 C9.46734008,3.21895142 14.5326599,3.21895142 17.6568542,6.34314575 Z M8.31630954,10.4383036 L6.10302186,8.22556576 C4.63214203,10.5187306 4.63232607,13.4822978 6.10357399,15.7752949 L8.31672656,13.5626806 C7.89456353,12.5666968 7.89442453,11.4343772 8.31630954,10.4383036 Z M15.7744342,17.8969781 L13.5616964,15.6836905 C12.5659509,16.1054365 11.4340491,16.1054365 10.4383036,15.6836905 L8.22556576,17.8969781 C10.5184437,19.367674 13.4815563,19.367674 15.7744342,17.8969781 Z M14.1213203,9.87867966 C12.9497475,8.70710678 11.0502525,8.70710678 9.87867966,9.87867966 C8.70710678,11.0502525 8.70710678,12.9497475 9.87867966,14.1213203 C11.0502525,15.2928932 12.9497475,15.2928932 14.1213203,14.1213203 C15.2928932,12.9497475 15.2928932,11.0502525 14.1213203,9.87867966 Z M8.2247051,6.10357399 L10.4373194,8.31672656 C11.4336312,7.89442448 12.5663688,7.89442448 13.5626806,8.31672656 L15.7752949,6.10357399 C13.5610897,4.68288104 10.7216068,4.63389163 8.46427901,5.95660575 L8.2247051,6.10357399 Z M17.8969781,8.22556576 L15.6836905,10.4383036 C16.1055755,11.4343772 16.1054365,12.5666968 15.6832734,13.5626806 L17.896426,15.7752949 C19.3676739,13.4822978 19.367858,10.5187306 17.8969781,8.22556576 Z"/>
</svg>
