<svg width="20" height="20" viewBox="0 0 20 20" fill="none"><path d="M4.213 10.942c-.213.448-.88.352-.954-.139v.005L2 2.582v-.128a.52.52 0 0 1 .443-.449h12.832c.224.027.4.198.437.422l.661 4.337h-.005a.505.505 0 0 1-.501.576H6.24a.496.496 0 0 0-.459.289l-1.568 3.313ZM18 17.477v.059a.503.503 0 0 1-.507.464l-.032-.005H4.795a.514.514 0 0 1-.502-.427l-.661-4.332a.5.5 0 0 1 .501-.577h9.627a.517.517 0 0 0 .459-.288l1.562-3.307c.214-.443.886-.353.955.138l1.259 8.227a.208.208 0 0 1 .005.048Z" fill="#606B85"/></svg>