<svg xmlns="http://www.w3.org/2000/svg" width="24" height="24" viewBox="0 0 24 24">
  <path fill="#282A2B" fill-rule="evenodd" d="M21.9040253,5.5 C22.268366,5.5 22.5598386,5.6457363 22.7784431,5.93720889 C22.9970475,6.22868149 23.0699157,6.59302223 22.9241794,6.95736297 L22.9241794,6.95736297 L18.6978267,19.9278934 C18.4792223,20.3651023 18.1148815,20.729443 17.6048045,20.8751793 L17.6048045,20.8751793 L17.2404638,20.8751793 C16.876123,20.8751793 16.5117823,20.729443 16.2203097,20.4379705 L16.2203097,20.4379705 L13.6699245,17.8875853 L9.37070372,17.8875853 L8.71489038,19.7821571 C8.49628594,20.3651023 7.9862089,20.8023112 7.33039556,20.8023112 L7.33039556,20.8023112 L1.06373479,20.8023112 C0.699394043,20.8023112 0.407921449,20.6565749 0.189317003,20.3651023 C-0.0292874423,20.0736297 -0.0292874423,19.709289 0.0435807062,19.3449482 L0.0435807062,19.3449482 L3.32264739,9.43488002 C3.54125184,8.85193483 4.12419703,8.41472594 4.70714221,8.41472594 L4.70714221,8.41472594 L7.76760445,8.41472594 L8.42341779,6.52015408 C8.64202224,5.93720889 9.15209928,5.5 9.80791261,5.5 L9.80791261,5.5 Z M21.3939482,6.95736297 L9.80791261,6.95736297 L6.67458223,16.4302223 L13.9613971,16.4302223 C14.1800015,16.4302223 14.3257378,16.5030904 14.4714741,16.6488267 L14.4714741,16.6488267 L17.2404638,19.4178164 L21.3939482,6.95736297 Z M7.25752741,9.87208891 L4.70714221,9.87208891 L1.57381183,19.3449482 L6.82031852,19.3449482 L5.07148296,17.6689808 L4.99861481,17.5961127 C4.85287851,17.3775082 4.85287851,17.1589038 4.92574666,16.9402993 L4.92574666,16.9402993 L7.25752741,9.87208891 Z M11.4110119,9.72635262 C11.9210889,9.36201187 12.6497704,9.43488002 13.0869793,9.87208891 L13.0869793,9.87208891 L13.8885289,10.7465067 L14.7629467,9.94495706 C15.2001556,9.50774817 15.9288371,9.43488002 16.4389141,9.79922077 C16.5117823,9.87208891 16.5117823,9.87208891 16.5846504,10.0178252 C17.0947275,10.4550341 17.0947275,11.2565837 16.5846504,11.7666608 L16.5846504,11.7666608 L14.3257378,13.9527052 C14.1071334,14.1713097 13.6699245,14.1713097 13.45132,13.9527052 L13.45132,13.9527052 L11.2652756,11.6209245 C11.1924074,11.6209245 11.1924074,11.5480563 11.1195393,11.4751882 C10.6823304,10.892243 10.8280667,10.0906934 11.4110119,9.72635262 Z"/>
</svg>
