<svg xmlns="http://www.w3.org/2000/svg" width="24" height="24" viewBox="0 0 24 24">
  <path fill="#707578" fill-rule="evenodd" d="M17,14 L20,15.5 L17,17 L17,14 Z M7,8 C8.95,8 10.1,9.45 11,11 C11.9,9.45 13.05,8 15,8 L15,8 L15.5,8 C15.7761424,8 16,8.22385763 16,8.5 L16,8.5 L15.9919443,8.58987563 C15.9496084,8.82312484 15.7454599,9 15.5,9 L15.5,9 L15,9 C13.4,9 12.5,10.4 11.6,12 C12.5,13.6 13.4,15 15,15 L15,15 L15.5,15 C15.7761424,15 16,15.2238576 16,15.5 C16,15.7761424 15.7761424,16 15.5,16 L15.5,16 L15,16 C13.05,16 11.9,14.55 11,13 C10.1,14.55 8.95,16 7,16 L7,16 L4.5,16 C4.22385763,16 4,15.7761424 4,15.5 C4,15.2238576 4.22385763,15 4.5,15 L4.5,15 L7,15 C8.6,15 9.5,13.6 10.4,12 C9.5,10.4 8.6,9 7,9 L7,9 L4.5,9 C4.22385763,9 4,8.77614237 4,8.5 C4,8.22385763 4.22385763,8 4.5,8 L4.5,8 Z M17,7 L20,8.5 L17,10 L17,7 Z"/>
</svg>
