<svg xmlns="http://www.w3.org/2000/svg" width="24" height="24" viewBox="0 0 24 24">
  <path fill="#707578" fill-rule="evenodd" d="M18.8698399,9.92214362 C19.263699,10.157996 19.5035477,10.5862711 19.4999603,11.0472178 L19.4999603,16.0696421 C19.4995999,16.5715035 19.2332159,17.0351221 18.8009997,17.2860527 L14.424685,19.8269994 C14.235064,19.9376586 14.0202563,19.9972462 13.8010333,20 C13.0884126,20 12.5107193,19.4190874 12.5107193,18.7024953 L12.5107193,13.6584459 C12.5121408,13.1568826 12.7782302,12.6937768 13.2096394,12.4420353 L17.5859541,9.90108867 C17.9872518,9.67827638 18.4759809,9.68629124 18.8698399,9.92214362 Z M12.6988901,4.18666186 L17.0698285,6.7276085 C17.4701294,6.95767217 17.7171634,7.38577043 17.7171634,7.84940941 C17.7171634,8.31304839 17.4701294,8.74114665 17.0698285,8.97121032 L12.5107193,11.6202824 C11.844363,12.0071462 11.4343236,12.7225292 11.4354577,13.4962579 L11.4354577,18.675464 C11.4368703,19.1396146 11.1905984,19.5688648 10.7903008,19.799968 C10.5933207,19.9117249 10.371307,19.9712585 10.1451438,19.9729687 C9.91898058,19.9712585 9.69696691,19.9117249 9.49998685,19.799968 L5.19894045,17.2860527 C4.76508885,17.0367708 4.49810305,16.5721048 4.50001015,16.0696421 L4.50001015,8.96039778 C4.49810305,8.45793509 4.76508885,7.99326911 5.19894045,7.74398716 L11.30105,4.18666186 C11.7341293,3.93777938 12.2658108,3.93777938 12.6988901,4.18666186 Z M18.231111,10.8092885 C18.1935067,10.8084909 18.156367,10.8178276 18.1235849,10.8363733 L13.7472702,13.3773199 C13.6474,13.4353013 13.585907,13.5424832 13.5859809,13.6584459 L13.5859809,18.6808703 C13.586384,18.7585298 13.6271758,18.8303133 13.6935071,18.8700897 C13.7600445,18.9087192 13.842022,18.9087192 13.9085594,18.8700897 L18.2848741,16.3615807 C18.3831774,16.3020387 18.4441095,16.1958345 18.4461634,16.0804546 L18.4461634,11.0472178 C18.4457603,10.9695582 18.4049685,10.8977747 18.3386372,10.8579984 C18.3049001,10.8419976 18.2683671,10.8328134 18.231111,10.830967 L18.231111,10.8092885 Z M11.9999701,5.07869632 C11.9433972,5.07888276 11.8878343,5.0937821 11.8386808,5.12194647 L5.71506602,8.67927177 C5.61350529,8.73553655 5.5513788,8.84382259 5.55370978,8.96039778 L5.55370978,16.0696421 C5.55370978,16.1856049 5.61519586,16.2927868 5.71506602,16.3507681 L10.0161124,18.8592771 C10.0807351,18.9045254 10.1665421,18.9045254 10.2311647,18.8592771 C10.30017,18.8249616 10.3423911,18.7527858 10.3386909,18.675464 L10.3386909,13.4962579 C10.3379515,12.3366303 10.9528817,11.2648114 11.9515833,10.6849977 L16.5106925,8.03592571 C16.5787341,8.0005774 16.620553,7.92908918 16.6182186,7.85211255 C16.6213409,7.77354454 16.5795919,7.70007653 16.5106925,7.66289311 L12.1397541,5.12194647 C12.0965907,5.0980696 12.0490156,5.08334953 11.9999701,5.07869632 Z"/>
</svg>
