<svg xmlns="http://www.w3.org/2000/svg" width="24" height="24" viewBox="0 0 24 24">
  <path fill="#707578" fill-rule="evenodd" d="M18.5,4 C19.3280232,4.00097424 19.9990258,4.67197676 20.0000302,5.5 L20.0000302,5.5 L20.0000302,10.624608 C20.0116259,15.2648603 16.6604018,19.2305376 12.0832,19.992968 C12.0281295,20.0023431 11.9718705,20.0023431 11.9168,19.992968 C7.33959817,19.2305376 3.98837408,15.2648603 3.99996984,10.624608 L3.99996984,10.624608 L3.99996984,5.5 C4.00097424,4.67197676 4.67197676,4.00097424 5.5,4 L5.5,4 Z M18.5,5 L5.5,5 C5.22396365,5.00025581 5.00025581,5.22396365 4.99997272,5.5 L4.99997272,5.5 L4.99997272,10.624608 C4.98961941,14.7444464 7.94310253,18.2751127 12,18.99258 C16.0568975,18.2751127 19.0103806,14.7444464 19.0000273,10.624608 L19.0000273,10.624608 L19.0000273,5.5 C18.9997442,5.22396365 18.7760363,5.00025581 18.5,5 L18.5,5 Z M12.0106165,6.99471423 C13.4600636,6.99964104 14.6571098,8.1282317 14.7472676,9.57488037 C14.8374255,11.021529 13.7897695,12.2900137 12.352148,12.474852 C13.9275246,12.5960987 15.3251249,13.5314669 16.037892,14.9416 C16.1614084,15.1880749 16.0621008,15.48802 15.8159029,15.6120877 C15.5697051,15.7361555 15.2695385,15.6375195 15.14492,15.3916 C14.54653,14.2038199 13.3299971,13.4545027 12,13.4545027 C10.6700029,13.4545027 9.45347002,14.2038199 8.85508,15.3916 C8.7304615,15.6375195 8.43029489,15.7361555 8.18409706,15.6120877 C7.93789922,15.48802 7.83859163,15.1880749 7.962108,14.9416 C8.39988494,14.0778208 9.10154157,13.3760282 9.965236,12.938084 C10.4854163,12.6764008 11.0514734,12.5182481 11.63196,12.472412 C10.1956239,12.2778368 9.15658717,11.0022823 9.25654534,9.55627778 C9.35650352,8.11027323 10.5611695,6.98981958 12.0106165,6.99471423 Z M12,8 C11.0335017,8 10.25,8.78350169 10.25,9.75 C10.2511022,10.7160414 11.0339586,11.4988978 12,11.5 C12.9664983,11.5 13.75,10.7164983 13.75,9.75 C13.75,8.78350169 12.9664983,8 12,8 Z"/>
</svg>
