<svg xmlns="http://www.w3.org/2000/svg" width="24" height="24" viewBox="0 0 24 24">
  <path fill="#707578" fill-rule="evenodd" d="M20.4375,9.27272727 C20.5866876,9.27272727 20.7297679,9.33018088 20.8352594,9.43247571 C20.940751,9.53477053 21,9.67351509 21,9.81818182 L21,9.81818182 L21,16.3636364 C20.9989832,17.2669663 20.244059,17.999014 19.3125,18 L19.3125,18 L6.9375,18 C6.62683983,18 6.375,17.7557917 6.375,17.4545455 C6.375,17.1532992 6.62683983,16.9090909 6.9375,16.9090909 L6.9375,16.9090909 L19.3125,16.9090909 C19.6230409,16.9088118 19.8747122,16.6647669 19.875,16.3636364 L19.875,16.3636364 L19.875,9.81818182 C19.8749893,9.67351509 19.934249,9.53477053 20.0397406,9.43247571 C20.1452321,9.33018088 20.2883124,9.27272727 20.4375,9.27272727 Z M17.0625,6 C17.994059,6.00098602 18.7489832,6.73303369 18.75,7.63636364 L18.75,7.63636364 L18.75,14.1818182 C18.7489832,15.0851481 17.994059,15.8171958 17.0625,15.8181818 L17.0625,15.8181818 L4.6875,15.8181818 C3.755941,15.8171958 3.00101684,15.0851481 3,14.1818182 L3,14.1818182 L3,7.63636364 C3.00101684,6.73303369 3.755941,6.00098602 4.6875,6 L4.6875,6 Z M17.0625,7.09090909 L4.6875,7.09090909 C4.37695911,7.09118815 4.12528778,7.33523308 4.125,7.63636364 L4.125,7.63636364 L4.125,14.1818182 C4.12528778,14.4829487 4.37695911,14.7269937 4.6875,14.7272727 L4.6875,14.7272727 L17.0625,14.7272727 C17.3730409,14.7269937 17.6247122,14.4829487 17.625,14.1818182 L17.625,14.1818182 L17.625,7.63636364 C17.6247122,7.33523308 17.3730409,7.09118815 17.0625,7.09090909 L17.0625,7.09090909 Z M15.65625,12 C16.1219967,12.0005698 16.4994124,12.3665487 16.5,12.8181818 C16.5,13.2700512 16.1222403,13.6363636 15.65625,13.6363636 C15.1902597,13.6363636 14.8125,13.2700512 14.8125,12.8181818 C14.8125,12.3663125 15.1902597,12 15.65625,12 Z M10.875,8.18181818 C12.4275812,8.18350155 13.685764,9.4035576 13.6875,10.9090909 C13.6875,12.415322 12.4283009,13.6363636 10.875,13.6363636 C9.32169914,13.6363636 8.0625,12.415322 8.0625,10.9090909 C8.0625,9.40285977 9.32169914,8.18181818 10.875,8.18181818 Z M10.875,9.27272727 C9.94301948,9.27272727 9.1875,10.0053522 9.1875,10.9090909 C9.1875,11.8128296 9.94301948,12.5454545 10.875,12.5454545 C11.806559,12.5444685 12.5614832,11.8124209 12.5625,10.9090909 C12.5625,10.0053522 11.8069805,9.27272727 10.875,9.27272727 Z M6.09375,8.18181818 C6.55949665,8.18238797 6.93691241,8.54836688 6.9375,9 C6.9375,9.45186934 6.55974026,9.81818182 6.09375,9.81818182 C5.62775974,9.81818182 5.25,9.45186934 5.25,9 C5.25,8.54813066 5.62775974,8.18181818 6.09375,8.18181818 Z"/>
</svg>
