<svg xmlns="http://www.w3.org/2000/svg" width="20" height="20" fill="none" viewBox="0 0 20 20">
  <path fill="#606B85" fill-rule="evenodd" d="M10 6.174c-.96 0-1.74.779-1.74 1.739C8.26 8.873 9.04 10 10 10s1.74-1.127 1.74-2.087c0-.96-.78-1.74-1.74-1.74Zm-2.783 7.304h5.566a.348.348 0 0 0 .347-.348v-.775c0-.617-.407-1.16-1-1.335a7.634 7.634 0 0 0-2.13-.324 7.593 7.593 0 0 0-2.134.32 1.391 1.391 0 0 0-.996 1.335v.78c0 .191.155.347.347.347Z" clip-rule="evenodd"/>
  <path fill="#606B85" d="M17.26 6.637a2.78 2.78 0 0 1-.603.357c.42.932.647 1.953.647 3.006A7.312 7.312 0 0 1 10 17.304 7.312 7.312 0 0 1 2.696 10 7.312 7.312 0 0 1 10 2.696c1.399 0 2.765.41 3.933 1.157a1.723 1.723 0 0 0-.107.582c0 .958.78 1.739 1.74 1.739a1.74 1.74 0 0 0 1.738-1.74 1.732 1.732 0 0 0-3.011-1.176A8.011 8.011 0 0 0 10 2c-4.411 0-8 3.589-8 8s3.589 8 8 8 8-3.589 8-8a8 8 0 0 0-.74-3.363Z"/>
</svg>
