<svg xmlns="http://www.w3.org/2000/svg" width="24" height="24" viewBox="0 0 24 24">
  <path fill="#707578" fill-rule="evenodd" d="M7.5,15.4688271 C7.63290149,15.4680614 7.76064058,15.5200558 7.855,15.6133249 C7.94859326,15.7073575 8.00076838,15.8346541 8,15.9670953 L8,18.3438345 L11.165,15.5884115 C11.2581731,15.5089606 11.3773962,15.4664018 11.5,15.4688271 L19.5,15.4688271 C19.7761424,15.4688271 20,15.6919094 20,15.9670953 C20,16.2422812 19.7761424,16.4653635 19.5,16.4653635 L11.69,16.4653635 L8.455,19.2855613 C8.29665742,19.4223304 8.09453782,19.4983044 7.885,19.4998167 C7.75227525,19.5025216 7.62065634,19.4752669 7.5,19.4200937 C7.19066825,19.2752854 6.99506737,18.963408 7,18.6228647 L7,16.4653635 L4.5,16.4653635 C4.22385763,16.4653635 4,16.2422812 4,15.9670953 C4,15.6919094 4.22385763,15.4688271 4.5,15.4688271 L7.5,15.4688271 Z M19.5,12.4792181 C19.7761424,12.4792181 20,12.7023003 20,12.9774863 C20,13.2526722 19.7761424,13.4757544 19.5,13.4757544 L19.5,13.4757544 L4.5,13.4757544 C4.22385763,13.4757544 4,13.2526722 4,12.9774863 C4,12.7023003 4.22385763,12.4792181 4.5,12.4792181 L4.5,12.4792181 Z M19.5,9.48960904 C19.7761424,9.48960904 20,9.7126913 20,9.98787722 C20,10.2630631 19.7761424,10.4861454 19.5,10.4861454 L19.5,10.4861454 L4.5,10.4861454 C4.22385763,10.4861454 4,10.2630631 4,9.98787722 C4,9.7126913 4.22385763,9.48960904 4.5,9.48960904 L4.5,9.48960904 Z M19.5,6.5 C19.7761424,6.5 20,6.72308226 20,6.99826817 C20,7.27345409 19.7761424,7.49653635 19.5,7.49653635 L4.5,7.49653635 C4.22385763,7.49653635 4,7.27345409 4,6.99826817 C4,6.72308226 4.22385763,6.5 4.5,6.5 L19.5,6.5 Z"/>
</svg>
