<svg xmlns="http://www.w3.org/2000/svg" width="24" height="24" viewBox="0 0 24 24">
  <path fill="#707578" fill-rule="evenodd" d="M13.7488565,15.5615213 C14.0216464,15.6012123 14.2115092,15.8606305 14.172973,16.1410109 L13.7738046,19.0640999 C13.7367676,19.3150033 13.5267483,19.5003325 13.2798337,19.4999996 L13.2099792,19.4999996 C12.9371894,19.4603081 12.7473265,19.2008899 12.7858628,18.9205095 L13.1850312,16.0025488 C13.2023748,15.8669734 13.2716823,15.7441317 13.3775542,15.6613181 C13.4834262,15.5785044 13.6170935,15.542578 13.7488565,15.5615213 Z M15.1599134,4.50042239 L15.2507277,4.5050654 C15.5262959,4.54471678 15.7184132,4.80645908 15.6798337,5.0896832 L15.6798337,5.0896832 L15.1409563,9.05380213 L17.5010395,9.05380213 C17.7766078,9.05380213 18,9.28340064 18,9.56662476 C18,9.84984888 17.7766078,10.0794474 17.5010395,10.0794474 L17.5010395,10.0794474 L15.006237,10.0794474 L14.5072765,13.6692058 L16.977131,13.6692058 C17.2526993,13.6692058 17.4760915,13.8988043 17.4760915,14.1820284 C17.4760915,14.4652525 17.2526993,14.6948511 16.977131,14.6948511 L16.977131,14.6948511 L10.3758836,14.6948511 L9.78711019,19.0538434 C9.75205842,19.3087246 9.53859394,19.4974043 9.28814969,19.4948961 L9.28814969,19.4948961 L9.21829522,19.4948961 C8.94550536,19.4551799 8.75564255,19.1957617 8.79417879,18.9153813 L8.79417879,18.9153813 L9.36798337,14.6948511 L6.4989605,14.6948511 C6.22339222,14.6948511 6,14.4652525 6,14.1820284 C6,13.8988043 6.22339222,13.6692058 6.4989605,13.6692058 L6.4989605,13.6692058 L9.49272349,13.6692058 L9.99168399,10.0794474 L6.997921,10.0794474 C6.72235272,10.0794474 6.4989605,9.84984888 6.4989605,9.56662476 C6.4989605,9.28340064 6.72235272,9.05380213 6.997921,9.05380213 L6.997921,9.05380213 L10.1413721,9.05380213 L10.6902287,4.94609287 C10.7288082,4.66286875 10.9834754,4.46541403 11.2590437,4.5050654 C11.5346119,4.54471678 11.7267292,4.80645908 11.6881497,5.0896832 L11.6881497,5.0896832 L11.1392931,9.05380213 L14.1330561,9.05380213 L14.6819127,4.94609287 C14.7204922,4.66286875 14.9751594,4.46541403 15.2507277,4.5050654 Z M13.983368,10.0794474 L10.989605,10.0794474 L10.4906445,13.6692058 L13.4844075,13.6692058 L13.983368,10.0794474 Z"/>
</svg>
