<svg width="20" height="20" viewBox="0 0 20 20" fill="none"><path fill-rule="evenodd" clip-rule="evenodd" d="M14.335 2h-8.67a3.771 3.771 0 0 0-2.578 1.02A3.435 3.435 0 0 0 2 5.497v.004A3.435 3.435 0 0 0 3.087 7.98 3.771 3.771 0 0 0 5.665 9h8.67a3.771 3.771 0 0 0 2.578-1.02A3.435 3.435 0 0 0 18 5.503v-.004a3.435 3.435 0 0 0-1.087-2.479A3.771 3.771 0 0 0 14.335 2ZM3.775 7.255A2.435 2.435 0 0 1 3 5.5a2.435 2.435 0 0 1 .775-1.755A2.771 2.771 0 0 1 5.668 3h8.664a2.772 2.772 0 0 1 1.893.745A2.44 2.44 0 0 1 17 5.5a2.436 2.436 0 0 1-.775 1.755A2.772 2.772 0 0 1 14.332 8H5.668a2.771 2.771 0 0 1-1.893-.745ZM14.335 10h-8.67a3.77 3.77 0 0 0-2.578 1.02A3.435 3.435 0 0 0 2 13.497v.004a3.435 3.435 0 0 0 1.087 2.479A3.77 3.77 0 0 0 5.665 17h8.67a3.77 3.77 0 0 0 2.578-1.02A3.435 3.435 0 0 0 18 13.503v-.004a3.435 3.435 0 0 0-1.087-2.479A3.77 3.77 0 0 0 14.335 10Zm-10.56 5.255A2.436 2.436 0 0 1 3 13.5a2.436 2.436 0 0 1 .775-1.755A2.771 2.771 0 0 1 5.668 11h8.664a2.772 2.772 0 0 1 1.893.745A2.44 2.44 0 0 1 17 13.5a2.436 2.436 0 0 1-.775 1.755 2.772 2.772 0 0 1-1.893.745H5.668a2.772 2.772 0 0 1-1.893-.745ZM6 4.5a1 1 0 1 0 0 2 1 1 0 0 0 0-2Zm-2 1a2 2 0 1 1 4 0 2 2 0 0 1-4 0Zm9 8a1 1 0 1 1 2 0 1 1 0 0 1-2 0Zm1-2a2 2 0 1 0 0 4 2 2 0 0 0 0-4Z" fill="#606B85"/></svg>