<svg xmlns="http://www.w3.org/2000/svg" width="24" height="24" viewBox="0 0 24 24">
  <path fill="#707578" fill-rule="evenodd" d="M12.0046407,6 C14.4097448,6.01095712 16.7103275,6.95468213 18.3933942,8.62073891 C20.0861935,10.2778146 21.0249031,12.522777 21.0002442,14.8551273 L21.0002442,14.8551273 L21.0002442,16.3636364 C20.9990715,17.2669036 20.2442385,17.9988628 19.3127442,18 L19.3127442,18 L4.6877442,18 C3.75624987,17.9988628 3.00141691,17.2669036 3.0002442,16.3636364 L3.0002442,16.3636364 L3.0002442,14.8529847 C2.96389117,9.99976765 6.99097732,6.03652803 12.0046407,6 Z M12.0087447,15.2735389 L12.0002307,15.274848 C11.0638987,15.2788542 10.3140928,16.0091732 10.3127442,16.9090909 L10.3127442,16.9090909 L13.6877442,16.9090909 C13.6864135,16.0092318 12.9367087,15.2789272 12.0087447,15.2735389 L12.0087447,15.2735389 Z M15.975691,8.13531859 C13.5209879,6.74354319 10.4832311,6.74288588 8.02788774,8.13359884 C5.57254438,9.5243118 4.08090176,12.0904329 4.1252442,14.8474429 L4.1252442,16.3636364 C4.12553198,16.6647669 4.37720331,16.9088118 4.6877442,16.9090909 L4.6877442,16.9090909 L9.1877442,16.9090909 C9.19017564,15.5601704 10.2085611,14.4153364 11.5842192,14.215056 L11.5842192,14.215056 L13.1542467,9.64773382 C13.2527192,9.36225722 13.5711009,9.20813713 13.8655771,9.30339765 C14.1600534,9.39865817 14.3192439,9.70726873 14.2212417,9.99289745 L14.2212417,9.99289745 L12.7467357,14.2823869 C13.9655778,14.608693 14.8105387,15.6829684 14.8127442,16.9090909 L14.8127442,16.9090909 L19.3127442,16.9090909 C19.6232851,16.9088118 19.8749564,16.6647669 19.8752442,16.3636364 L19.8752442,16.3636364 L19.8752442,14.8508509 C19.9208555,12.0938604 18.430394,9.52709399 15.975691,8.13531859 Z M17.3439942,13.6363636 C17.8099845,13.6363636 18.1877442,14.0026761 18.1877442,14.4545455 C18.1877442,14.9064148 17.8099845,15.2727273 17.3439942,15.2727273 C16.8780039,15.2727273 16.5002442,14.9064148 16.5002442,14.4545455 C16.5002442,14.0026761 16.8780039,13.6363636 17.3439942,13.6363636 Z M6.6564942,13.6363636 C7.08615776,13.6053622 7.46174838,13.9149414 7.49941375,14.3311371 C7.53707912,14.7473328 7.22283443,15.1156153 6.79416985,15.1576554 C6.36550527,15.1996955 5.98158005,14.899884 5.93254536,14.4848034 C5.88351067,14.0697227 6.18757265,13.6934884 6.6149367,13.6404393 C6.6210612,13.6400116 6.6269427,13.6388945 6.6330942,13.6386545 C6.6410592,13.6384407 6.6484752,13.6363636 6.6564942,13.6363636 Z M7.7814942,10.9112204 C8.24748446,10.9112204 8.6252442,11.2775328 8.6252442,11.7294022 C8.6252442,12.1812715 8.24748446,12.547584 7.7814942,12.547584 C7.31550394,12.547584 6.9377442,12.1812715 6.9377442,11.7294022 C6.9377442,11.2775328 7.31550394,10.9112204 7.7814942,10.9112204 Z M16.2247728,10.9117598 C16.2503735,10.9131946 16.2701539,10.9151322 16.2897747,10.9181455 C16.7256148,10.9528405 17.0614871,11.3053494 17.0627442,11.7294022 C17.0627442,12.1812715 16.6849845,12.547584 16.2189942,12.547584 C15.7530039,12.547584 15.3752442,12.1812715 15.3752442,11.7294022 C15.3752442,11.2775328 15.7530039,10.9112204 16.2189942,10.9112204 C16.2229497,10.9112204 16.2266037,10.9122851 16.2305277,10.9123418 Z M10.0314942,8.73169472 L10.0988952,8.736 C10.5503172,8.77108015 10.8926725,9.1454776 10.8745698,9.58427255 C10.8564672,10.0230675 10.4843634,10.369749 10.0314942,10.369749 C9.57862495,10.369749 9.20652124,10.0230675 9.18841857,9.58427255 C9.1703159,9.1454776 9.5126712,8.77108015 9.9640932,8.736 C10.0088322,8.73025963 10.0541562,8.73025963 10.0988952,8.736 Z"/>
</svg>
