<svg xmlns="http://www.w3.org/2000/svg" width="24" height="24" viewBox="0 0 24 24">
  <path fill="#707578" fill-rule="evenodd" d="M13.7499683,17 L5.24999594,17 C4.55964224,17 4,16.4403559 4,15.75 L4,8.25 C4,7.55964406 4.55964224,7 5.24999594,7 L13.7499683,7 C14.440322,7 14.9999643,7.55964406 14.9999643,8.25 L14.9999643,10.19 L18.1899539,8.595 C18.5778338,8.4006318 19.0387588,8.42129238 19.4076934,8.64958416 C19.7766281,8.87787594 20.0008016,9.28114513 19.9999742,9.715 L19.9999742,14.29 C20.0027572,14.723562 19.7798067,15.1273607 19.4113969,15.3559592 C19.0429872,15.5845577 18.5821833,15.605029 18.1949539,15.41 L14.9999643,13.83 L14.9999643,15.75 C14.9999643,16.4403559 14.440322,17 13.7499683,17 Z M5.24999594,8 C5.1119252,8 4.99999675,8.11192881 4.99999675,8.25 L4.99999675,15.75 C4.99999675,15.8880712 5.1119252,16 5.24999594,16 L13.7499683,16 C13.8880391,16 13.9999675,15.8880712 13.9999675,15.75 L13.9999675,13.025 C13.9996215,12.8522491 14.088474,12.6915572 14.2349663,12.5999992 C14.3814586,12.5084413 14.5648356,12.4989891 14.7199652,12.575 L18.6399524,14.5 C18.714722,14.5409105 18.8051821,14.5409105 18.8799517,14.5 C18.9535013,14.4530162 18.9985717,14.3722649 18.9999513,14.285 L18.9999513,9.715 C18.9985717,9.62773512 18.9535013,9.54698375 18.8799517,9.5 C18.8051821,9.4590895 18.714722,9.4590895 18.6399524,9.5 L14.7249652,11.455 C14.5686107,11.5338197 14.3824174,11.5251061 14.2341075,11.4320285 C14.0857976,11.3389509 13.996983,11.1750728 13.9999675,11 L13.9999675,8.25 C13.9999675,8.11192881 13.8880391,8 13.7499683,8 L5.24999594,8 Z"/>
</svg>
