<svg xmlns="http://www.w3.org/2000/svg" width="20" height="20" viewBox="0 0 20 20">
  <path fill="#707578" fill-rule="evenodd" d="M16.75,2.5 C17.4403559,2.5 18,3.05264337 18,3.73436351 L18,4.06517294 C17.9996499,4.45788885 17.841385,4.834394 17.56,5.1119132 L10.885,11.7083518 C10.3943324,12.1864691 9.60566763,12.1864691 9.115,11.7083518 L6.645,9.26924951 C6.44893892,9.07564099 6.44893892,8.76173956 6.64500001,8.56813104 C6.84106109,8.37452252 7.15893891,8.37452252 7.355,8.56813104 L9.825,11.0072333 C9.87036667,11.0549673 9.93370705,11.082045 10,11.082045 C10.066293,11.082045 10.1296333,11.0549673 10.175,11.0072333 L16.855,4.41573217 C16.9485933,4.32255312 17.0007684,4.19641194 17,4.06517294 L17,3.73436351 C17,3.59801949 16.8880712,3.48749081 16.75,3.48749081 L3.25,3.48749081 C3.11192881,3.48749081 3,3.59801949 3,3.73436351 L3,9.4963724 C2.99923162,9.6276114 3.05140674,9.75375258 3.145,9.84693164 L9.825,16.4384328 C9.87036667,16.4861667 9.93370705,16.5132444 10,16.5132444 C10.066293,16.5132444 10.1296333,16.4861667 10.175,16.4384328 L14.145,12.5180943 C14.3410611,12.3244858 14.6589389,12.3244858 14.855,12.5180943 C15.0510611,12.7117028 15.0510611,13.0256042 14.855,13.2192128 L10.885,17.1395513 C10.6504357,17.3713684 10.3318559,17.5011164 10,17.5 C9.66814406,17.5011164 9.34956426,17.3713684 9.115,17.1395513 L2.44,10.5431127 C2.15861503,10.2655935 2.0003501,9.88908831 2,9.4963724 L2,3.73436351 C2,3.05264337 2.55964406,2.5 3.25,2.5 L16.75,2.5 Z M16.5,9.32356151 C17.3284271,9.32356151 18,9.98673355 18,10.8047977 C18,11.6228619 17.3284271,12.2860339 16.5,12.2860339 C15.6715729,12.2860339 15,11.6228619 15,10.8047977 C15,9.98673355 15.6715729,9.32356151 16.5,9.32356151 Z"/>
</svg>
