<svg width="20" height="20" viewBox="0 0 20 20" fill="none" xmlns="http://www.w3.org/2000/svg">
<path fill-rule="evenodd" clip-rule="evenodd" d="M4.86667 3.50999C4.09055 3.50999 3.51 4.09054 3.51 4.86666V15.1333C3.51 15.9094 4.09055 16.49 4.86667 16.49H15.1333C15.9208 16.49 16.49 15.8982 16.49 15.1955V4.86666C16.49 4.09054 15.9094 3.50999 15.1333 3.50999H4.86667ZM2.49 4.86666C2.49 3.52721 3.52722 2.48999 4.86667 2.48999H15.1333C16.4728 2.48999 17.51 3.52721 17.51 4.86666V15.1955C17.51 16.484 16.4614 17.51 15.1333 17.51H4.86667C3.52722 17.51 2.49 16.4728 2.49 15.1333V4.86666Z" fill="#606B85"/>
<path fill-rule="evenodd" clip-rule="evenodd" d="M2.49 5.73777C2.49 5.45611 2.71833 5.22777 3 5.22777H17C17.2817 5.22777 17.51 5.45611 17.51 5.73777C17.51 6.01944 17.2817 6.24777 17 6.24777H3C2.71833 6.24777 2.49 6.01944 2.49 5.73777Z" fill="#606B85"/>
<path fill-rule="evenodd" clip-rule="evenodd" d="M14.5394 8.45138C14.7288 8.6598 14.7135 8.98235 14.505 9.17182L10.4491 12.859C10.2527 13.0376 9.95212 13.0356 9.75805 12.8545L7.87628 11.0982L5.41987 13.1668C5.20442 13.3482 4.88269 13.3206 4.70126 13.1052C4.51983 12.8897 4.5474 12.568 4.76285 12.3866L7.56515 10.0267C7.76254 9.8605 8.05299 9.86791 8.24164 10.044L10.1106 11.7883L13.8189 8.41708C14.0273 8.22761 14.3499 8.24297 14.5394 8.45138Z" fill="#606B85"/>
<path fill-rule="evenodd" clip-rule="evenodd" d="M11.2184 8.79445C11.2184 8.51278 11.4468 8.28445 11.7284 8.28445H14.162C14.4437 8.28445 14.672 8.51278 14.672 8.79445V11.1543C14.672 11.436 14.4437 11.6643 14.162 11.6643C13.8804 11.6643 13.652 11.436 13.652 11.1543V9.30445H11.7284C11.4468 9.30445 11.2184 9.07611 11.2184 8.79445Z" fill="#606B85"/>
</svg>
