<svg xmlns="http://www.w3.org/2000/svg" width="20" height="20" viewBox="0 0 20 20">
  <path fill="#707578" fill-rule="evenodd" d="M17.5,3 C17.7761424,3 18,3.22385763 18,3.5 L18,7.5 C18,7.77614237 17.7761424,8 17.5,8 L17,8 L17,16.5 C17,16.7761424 16.7761424,17 16.5,17 L3.5,17 C3.22385763,17 3,16.7761424 3,16.5 L3,8 L2.5,8 C2.22385763,8 2,7.77614237 2,7.5 L2,3.5 C2,3.22385763 2.22385763,3 2.5,3 L17.5,3 Z M16,8 L4,8 L4,15.999 L16,15.999 L16,8 Z M12.5,9 C12.7761424,9 13,9.22385763 13,9.5 L13,11.5 C13,11.7761424 12.7761424,12 12.5,12 L7.5,12 C7.22385763,12 7,11.7761424 7,11.5 L7,9.5 C7,9.22385763 7.22385763,9 7.5,9 L12.5,9 Z M12,10 L8,10 L8,11 L12,11 L12,10 Z M17,4 L3,4 L3,7 L17,7 L17,4 Z"/>
</svg>
