<svg xmlns="http://www.w3.org/2000/svg" width="20" height="20" viewBox="0 0 20 20">
  <path fill="#707578" fill-rule="evenodd" d="M5.86166203,9.84607818 C7.59217206,9.84563413 9.12877534,10.9075559 9.75468209,12.4913801 L9.75468209,12.4913801 L9.791,12.591 L14.7956863,12.5911765 C14.8725391,12.5911765 14.9471939,12.6132972 15.0110739,12.6541168 L15.0110739,12.6541168 L15.0710448,12.7010426 L16.1086919,13.6858465 C16.2693019,13.8382773 16.2755175,14.0921867 16.1225583,14.2522935 L16.1225583,14.2522935 L15.0945191,15.3283719 C15.0194958,15.4069009 14.9157657,15.4515476 14.8071608,15.4520545 L14.8071608,15.4520545 L13.937,15.455 L13.3698707,16.0002975 C13.2377167,16.1270059 13.0402175,16.1455531 12.8889297,16.0556607 L12.8889297,16.0556607 L12.8176532,16.0016765 L12.243,15.456 L11.878,15.456 L11.3079471,16.0047834 C11.1722228,16.1352144 10.9675011,16.1512749 10.8147867,16.0531216 L10.8147867,16.0531216 L10.7528746,16.0040637 L10.182,15.453 L9.801,15.453 L9.76464926,15.5537053 C9.06539472,17.3293509 7.23488756,18.4153057 5.3265137,18.1580458 L5.3265137,18.1580458 L5.1217951,18.1253126 C3.00428235,17.7333427 1.53242935,15.7949463 1.72359552,13.6499623 C1.9147617,11.5049784 3.70620413,9.85741482 5.86166203,9.84607818 Z M5.862,10.6459999 L5.67852378,10.6520734 C4.02131218,10.7508756 2.66944946,12.0489837 2.5204372,13.7209788 C2.36590597,15.4548996 3.55569415,17.0218231 5.2674083,17.3386762 C6.97912246,17.6555293 8.65095867,16.6183172 9.12732711,14.9439713 C9.17624408,14.7720373 9.33330154,14.6534314 9.51205882,14.6534314 L9.51205882,14.6534314 L10.3445098,14.6534314 C10.4482016,14.6534314 10.5478415,14.6936978 10.6224195,14.7657402 L10.6224195,14.7657402 L11.031,15.16 L11.439896,14.7684519 C11.4957755,14.7147518 11.565615,14.678833 11.6406359,14.6642298 L11.6406359,14.6642298 L11.7170588,14.6568627 L12.4033333,14.6568627 C12.5058169,14.6568627 12.6043911,14.6961986 12.6787193,14.7667549 L12.6787193,14.7667549 L13.091,15.158 L13.4990509,14.7681339 C13.5545566,14.7149154 13.6237996,14.6792062 13.6982059,14.6644759 L13.6982059,14.6644759 L13.7740157,14.6568671 L14.633,14.653 L15.266,13.99 L14.636,13.391 L9.50245098,13.3911765 C9.34938729,13.3911765 9.2122158,13.3042124 9.14524093,13.1712412 L9.14524093,13.1712412 L9.11785462,13.1011112 C8.70237665,11.6476003 7.37359349,10.6456903 5.862,10.6459999 L5.862,10.6459999 Z M3.92721868,12.7137396 C4.34187967,12.5298949 4.82304305,12.5528755 5.22107844,12.7826813 C5.66333998,13.0380211 5.93578431,13.5099086 5.93578431,14.0205882 C5.93578431,14.5312679 5.66333998,15.0031553 5.22107844,15.2584951 C4.7788169,15.513835 4.2339282,15.513835 3.79166666,15.2584951 C3.34940512,15.0031553 3.07696078,14.5312679 3.07696078,14.0205882 C3.07696078,13.5099086 3.34940512,13.0380211 3.79166666,12.7826813 L3.79166666,12.7826813 Z M4.82107844,13.4755016 C4.62633776,13.363068 4.38640734,13.363068 4.19166666,13.4755016 C3.99692599,13.5879352 3.87696078,13.7957211 3.87696078,14.0205882 C3.87696078,14.2454554 3.99692599,14.4532412 4.19166666,14.5656748 C4.38640734,14.6781084 4.62633775,14.6781084 4.82107843,14.5656748 C5.01581911,14.4532412 5.13578431,14.2454554 5.13578431,14.0205882 C5.13578431,13.7957211 5.01581911,13.5879352 4.82107844,13.4755016 Z M13.4158766,1.61072217 C15.278158,1.60251429 16.8060663,3.05511002 16.913592,4.89217912 L16.919604,5.0835481 L16.924916,6.41768755 L17.2058774,6.41813725 C17.763841,6.41813028 18.2239345,6.83891127 18.2852347,7.38268373 L18.2921569,7.50098039 L18.2921569,12.9740196 C18.2921569,13.5739525 17.8058152,14.0602941 17.2058824,14.0602941 C16.9849685,14.0602941 16.8058824,13.881208 16.8058824,13.6602941 C16.8058824,13.4669945 16.9429951,13.3057192 17.1252684,13.2684207 L17.2058824,13.2602941 C17.341401,13.2602941 17.4549261,13.1661288 17.4845961,13.0396597 L17.4921569,12.9740196 L17.4921619,7.50298039 C17.4914867,7.36794116 17.3973942,7.2551238 17.2711014,7.22564733 L17.2055551,7.21813712 L10.3708563,7.21402141 C10.3633678,7.21445736 10.3558239,7.21468741 10.34823,7.21470596 L10.322916,7.21268755 L9.65686275,7.21196078 C9.52134413,7.21196078 9.40781901,7.3061261 9.37814895,7.43259518 L9.37058824,7.49823529 L9.37058824,9.57696078 C9.37058824,9.79787468 9.19150214,9.97696078 8.97058824,9.97696078 C8.77728857,9.97696078 8.61601332,9.83984799 8.57871481,9.65757474 L8.57058824,9.57696078 L8.57058824,7.49823529 C8.57058824,6.93829797 8.99424586,6.47731119 9.53876725,6.418335 L9.65719002,6.41196092 L9.94591598,6.41168755 L9.94307511,5.11451555 C9.93458303,3.18802422 11.4893708,1.61935452 13.4158766,1.61072217 Z M13.4313725,8.47352941 C14.2208149,8.47352941 14.8607843,9.11349886 14.8607843,9.90294118 C14.8607843,10.6923835 14.2208149,11.3323529 13.4313725,11.3323529 C12.6419302,11.3323529 12.0019608,10.6923835 12.0019608,9.90294118 C12.0019608,9.11349886 12.6419302,8.47352941 13.4313725,8.47352941 Z M13.4313725,9.27352941 C13.083758,9.27352941 12.8019608,9.55532666 12.8019608,9.90294118 C12.8019608,10.2505557 13.083758,10.5323529 13.4313725,10.5323529 C13.7789871,10.5323529 14.0607843,10.2505557 14.0607843,9.90294118 C14.0607843,9.55532666 13.7789871,9.27352941 13.4313725,9.27352941 Z M13.4194321,2.41074917 C11.9918559,2.41712003 10.8291254,3.53508004 10.7476408,4.9416491 L10.7431049,5.11177004 L10.745916,6.41268755 L16.124916,6.41668755 L16.1196118,5.08707188 C16.1130133,3.60240133 14.9040997,2.40417777 13.4194321,2.41074917 Z"/>
</svg>
