<svg xmlns="http://www.w3.org/2000/svg" width="24" height="24" viewBox="0 0 24 24">
  <path fill="#707578" fill-rule="evenodd" d="M5.45454545,11.1407695 C6.21531691,11.1407695 6.84009128,11.7254684 6.9037496,12.4697727 L6.90910043,12.5952284 L6.90948435,13.9012652 C7.48375667,13.681583 8.14310849,13.8672762 8.50710654,14.3556686 L9.34655298,15.6119019 C9.68484976,16.1186322 9.88278047,16.704662 9.92258857,17.3105681 L9.93006993,17.5385985 L9.93006993,19.5524647 C9.93006993,19.7996263 9.72969387,19.9999905 9.48251748,19.9999905 C9.26280513,19.9999905 9.08007083,19.8416781 9.0421757,19.632908 L9.03496503,19.5524647 L9.03496503,17.5385985 C9.03496503,17.0928549 8.91967489,16.65625 8.70176997,16.2708396 L8.60213656,16.1089206 L7.82460791,14.9439132 C7.6994191,14.7367381 7.44665094,14.6546515 7.22356806,14.7406845 L7.13896801,14.7826875 L7.12987846,14.788685 C6.95001321,14.9094093 6.87290742,15.1302301 6.91866771,15.3109429 L6.9458603,15.3855268 L7.85349666,16.8959264 C7.98080631,17.1077827 7.91225752,17.3827249 7.70038865,17.5100269 C7.51206076,17.6231843 7.27388425,17.5815986 7.13386754,17.4221669 L7.08625159,17.356928 L6.16142701,15.8151487 C6.05555203,15.6020584 6.00925503,15.373472 6.01727239,15.1493208 L6.01398601,15.1125611 L6.01398601,12.5952284 C6.01398601,12.286563 5.7632292,12.0358211 5.45454545,12.0358211 C5.17392387,12.0358211 4.94117578,12.2430458 4.90117713,12.5126279 L4.8951049,12.5952284 L4.8951049,16.0671336 C4.8951049,16.5863959 5.05223755,17.0919049 5.33803662,17.5118008 L5.45118691,17.6651083 L6.80324285,19.2634467 C6.96287254,19.4521536 6.93929171,19.7345285 6.75057359,19.8941487 C6.58282415,20.0360333 6.34106101,20.0331676 6.17729382,19.8982443 L6.11983407,19.8414826 L4.75991731,18.2335865 C4.31274428,17.6743031 4.05058229,16.9921769 4.00661212,16.2811987 L4,16.0671336 L4,12.5952284 C4,11.7922396 4.65150892,11.1407695 5.45454545,11.1407695 Z M18.5454545,11.1407695 C19.306226,11.1407695 19.9310004,11.7254684 19.9946587,12.4697727 L20,12.5952284 L20,16.0671336 C20,16.7829423 19.7784901,17.4792981 19.3627451,18.069391 L19.2322219,18.2431441 L17.8801659,19.8414826 C17.7205362,20.0301895 17.4381445,20.0537689 17.2494264,19.8941487 C17.081677,19.7522641 17.0444064,19.5133881 17.150308,19.3295213 L17.1967572,19.2634467 L18.5409523,17.6746659 C18.8654606,17.2688004 19.0586497,16.775891 19.0975743,16.261085 L19.1048951,16.0671336 L19.1048951,12.5952284 C19.1048951,12.286563 18.8541383,12.0358211 18.5454545,12.0358211 C18.264833,12.0358211 18.0320849,12.2430458 17.9920862,12.5126279 L17.986014,12.5952284 L17.986014,15.1125611 L17.980833,15.1746959 C17.9826056,15.3559725 17.949435,15.5411716 17.8783613,15.7209948 L17.8227274,15.8451858 L16.9150911,17.3555855 C16.7877814,17.5674417 16.5128229,17.6359864 16.300954,17.5086844 C16.1126261,17.395527 16.0375388,17.1657157 16.1125914,16.9672501 L16.147846,16.8945839 L17.0388018,15.4145454 C17.1376053,15.2169501 17.0919798,14.9820777 16.9255447,14.8286799 L16.852035,14.772195 C16.6446592,14.6480272 16.3824689,14.6940788 16.2204245,14.8822867 L16.1646549,14.9594734 L15.3979096,16.1088515 C15.1509045,16.4788372 15.0047387,16.9059723 14.9720567,17.3482475 L14.965035,17.5385985 L14.965035,19.5524647 C14.965035,19.7996263 14.7646589,19.9999905 14.5174825,19.9999905 C14.2977702,19.9999905 14.1150359,19.8416781 14.0771407,19.632908 L14.0699301,19.5524647 L14.0699301,17.5385985 C14.0699301,16.9286518 14.2302723,16.3311535 14.5331383,15.8056194 L14.6533591,15.6120337 L15.4086137,14.4807952 C15.7606974,13.8943188 16.4777759,13.6615529 17.0910695,13.8962684 L17.0908996,12.5952284 C17.0908996,11.7922396 17.742418,11.1407695 18.5454545,11.1407695 Z M12.3900373,4.84945935 C13.5500281,3.72979682 15.3730448,3.72129343 16.5430299,4.80073904 L16.5430299,4.80073904 L16.6702741,4.92515342 C16.8164243,5.07661992 16.9459776,5.24219886 17.0651747,5.4331868 L17.0651747,5.4331868 L17.1651895,5.60733973 C17.7435079,6.73288559 17.5139971,8.10457944 16.6097186,8.97310736 L16.6097186,8.97310736 L13.0355992,12.5953464 C12.4715138,13.1671515 11.5512673,13.173446 10.9766235,12.6075831 L10.9766235,12.6075831 L7.2683368,8.84498512 C6.5165226,8.0217227 6.30885034,6.8296065 6.7533225,5.78226785 L6.7533225,5.78226785 L6.8388074,5.60099284 C7.62653496,4.1264546 9.4605288,3.56997889 10.9347674,4.35787354 C11.1800483,4.48873435 11.407654,4.65441824 11.6117789,4.8505684 L11.6117789,4.8505684 L12,5.22761089 Z M16.0261896,5.54670146 C15.2083098,4.69946395 13.8589686,4.67561814 13.0126881,5.49247379 L13.0126881,5.49247379 L12.311821,6.17316055 C12.1380963,6.3418831 11.8616691,6.34181691 11.6880253,6.17301117 L11.6880253,6.17301117 L10.9897025,5.49413468 C10.8464703,5.35650573 10.6856987,5.23947319 10.5131258,5.14740303 L10.5131258,5.14740303 L10.3760687,5.08022074 C9.36374225,4.62765165 8.15942263,5.02850582 7.63897034,6.0014517 L7.63897034,6.0014517 L7.57076117,6.14658325 C7.25293165,6.89601985 7.42995048,7.76706795 8.02756928,8.34190815 L8.02756928,8.34190815 L11.5994883,11.9646167 L11.6851278,12.0364501 C11.9043764,12.185964 12.2054619,12.162321 12.3983933,11.9667492 L12.3983933,11.9667492 L15.9810597,8.33607558 C16.6087435,7.73305343 16.7665308,6.79002246 16.3796015,6.03577186 L16.3796015,6.03577186 L16.2982806,5.89450367 C16.2202939,5.76988783 16.1291835,5.65344184 16.0261896,5.54670146 Z"/>
</svg>
