<svg width="21" height="20" viewBox="0 0 21 20" fill="none" xmlns="http://www.w3.org/2000/svg">
<path fill-rule="evenodd" clip-rule="evenodd" d="M20.3102 1.97505C20.3664 2.03666 20.4097 2.1089 20.4375 2.1875C20.4673 2.26538 20.4812 2.34844 20.4784 2.43179C20.4756 2.51513 20.4562 2.59708 20.4213 2.67279C20.3863 2.74851 20.3366 2.81646 20.275 2.87266C20.2133 2.92885 20.1411 2.97215 20.0625 3L18.4375 3.5L19.4375 4.875C19.528 5.01066 19.5653 5.17494 19.5423 5.33639C19.5192 5.49784 19.4374 5.64511 19.3125 5.75C19.1985 5.81933 19.0703 5.86205 18.9375 5.875C18.7068 5.86539 18.4862 5.77717 18.3125 5.625L17.3125 4.25L16.3125 5.625C16.2577 5.70619 16.1829 5.77187 16.0953 5.81567C16.0077 5.85947 15.9103 5.8799 15.8125 5.875C15.6797 5.86205 15.5515 5.81933 15.4375 5.75C15.3149 5.64356 15.2348 5.49651 15.2119 5.3358C15.1889 5.1751 15.2246 5.0115 15.3125 4.875L16.3125 3.5L14.6875 3C14.6089 2.97215 14.5367 2.92885 14.475 2.87266C14.4134 2.81646 14.3637 2.74851 14.3287 2.67279C14.2938 2.59708 14.2744 2.51513 14.2716 2.43179C14.2688 2.34844 14.2827 2.26538 14.3125 2.1875C14.3404 2.1089 14.3836 2.03666 14.4398 1.97505C14.496 1.91343 14.564 1.86369 14.6397 1.82874C14.7154 1.7938 14.7974 1.77436 14.8807 1.77157C14.9641 1.76878 15.0471 1.7827 15.125 1.8125L16.75 2.3125V0.625C16.75 0.45924 16.8158 0.300268 16.9331 0.183058C17.0503 0.065848 17.2092 0 17.375 0C17.5408 0 17.6997 0.065848 17.8169 0.183058C17.9342 0.300268 18 0.45924 18 0.625V2.3125L19.625 1.8125C19.7029 1.7827 19.7859 1.76878 19.8693 1.77157C19.9526 1.77436 20.0346 1.7938 20.1103 1.82874C20.186 1.86369 20.254 1.91343 20.3102 1.97505ZM5.5 16.25V10C5.5 9.83424 5.56585 9.67527 5.68306 9.55806C5.80027 9.44085 5.95924 9.375 6.125 9.375H11.125C11.2908 9.375 11.4497 9.44085 11.5669 9.55806C11.6842 9.67527 11.75 9.83424 11.75 10V16.25C11.75 16.4158 11.6842 16.5747 11.5669 16.6919C11.4497 16.8092 11.2908 16.875 11.125 16.875H6.125C5.95924 16.875 5.80027 16.8092 5.68306 16.6919C5.56585 16.5747 5.5 16.4158 5.5 16.25ZM8.875 10.625L10.5 12.25V10.625H8.875ZM8.375 15.625L6.75 14V15.625H8.375ZM6.75 12.25L10.125 15.625H10.5V14L7.125 10.625H6.75V12.25ZM11.625 4.375C11.9046 4.38501 12.171 4.49603 12.375 4.6875L13.9375 6.3125C14.127 6.4924 14.239 6.73895 14.25 7V17.8125C14.25 18.2269 14.0854 18.6243 13.7924 18.9174C13.4993 19.2104 13.1019 19.375 12.6875 19.375H4.5625C4.1481 19.375 3.75067 19.2104 3.45765 18.9174C3.16462 18.6243 3 18.2269 3 17.8125V5.9375C3 5.5231 3.16462 5.12567 3.45765 4.83265C3.75067 4.53962 4.1481 4.375 4.5625 4.375H11.625ZM4.5625 18.125H12.6875C12.7704 18.125 12.8499 18.0921 12.9085 18.0335C12.9671 17.9749 13 17.8954 13 17.8125V7.125L11.5 5.625H4.5625C4.47962 5.625 4.40013 5.65792 4.34153 5.71653C4.28292 5.77513 4.25 5.85462 4.25 5.9375V17.8125C4.25 17.8954 4.28292 17.9749 4.34153 18.0335C4.40013 18.0921 4.47962 18.125 4.5625 18.125Z" fill="#606B85"/>
</svg>
