<svg xmlns="http://www.w3.org/2000/svg" width="20" height="20" fill="none" viewBox="0 0 20 20">
  <path fill="#606B85" fill-rule="evenodd" d="M6.96 4.61C7.778 3.7 8.874 3.202 10 3.202c1.128 0 2.223.498 3.042 1.408.82.913 1.29 2.163 1.29 3.478v5.54H5.67v-5.54c0-1.315.47-2.565 1.29-3.478Zm8.573 3.478v5.54h1.409v1.2H3.06v-1.2h1.409v-5.54c0-1.594.569-3.135 1.598-4.28C7.1 2.661 8.512 2.002 10.001 2.002c1.489 0 2.902.659 3.933 1.806 1.03 1.145 1.599 2.686 1.599 4.28Zm-7.717 8.71v1.2h4.37v-1.2h-4.37Z" clip-rule="evenodd"/>
</svg>
