<?xml version="1.0" encoding="utf-8"?>
<!-- Generator: Adobe Illustrator 26.3.1, SVG Export Plug-In . SVG Version: 6.00 Build 0)  -->
<svg version="1.1" id="Red" xmlns="http://www.w3.org/2000/svg" xmlns:xlink="http://www.w3.org/1999/xlink" x="0px" y="0px"
	 viewBox="0 0 32 32" style="enable-background:new 0 0 32 32;" xml:space="preserve">
<style type="text/css">
	.st0{fill:#F22F46;}
</style>
<path class="st0" d="M5.9,15.5c0-0.6,0.4-1,1-1h2c0.6,0,1,0.4,1,1s-0.4,1-1,1h-2C6.3,16.5,5.9,16.1,5.9,15.5z M5.5,11.1L3.6,8.9
	c-0.4-0.4-1-0.5-1.4-0.1c-0.4,0.4-0.5,1-0.1,1.4l1.8,2.2c0.1,0.1,0.1,0.2,0,0.3l-1.9,2.3c-0.4,0.4-0.3,1.1,0.1,1.4
	c0.2,0.2,0.4,0.2,0.6,0.2c0.3,0,0.6-0.1,0.8-0.4l1.9-2.3C6.2,13.1,6.1,11.9,5.5,11.1z M29.9,12.2v9.7c0,1-0.5,1.9-1.3,2.5l-7,4.7
	c-0.5,0.3-1.1,0.5-1.7,0.5c-0.6,0-1.2-0.2-1.7-0.5l-11-7.6c-0.3-0.2-0.6-0.5-0.8-0.8c-0.2-0.3-0.4-0.7-0.4-1.1c0-0.1,0-0.1,0-0.2
	c-0.1-0.5,0.3-1,0.9-1.1c0.6-0.1,1,0.3,1.1,0.9l0,0.1c0,0.1,0.1,0.2,0.1,0.4c0.1,0.1,0.2,0.2,0.3,0.3l10.2,7c0.1,0.1,0.2,0,0.3,0
	c0.1,0,0.1-0.1,0.1-0.2v-8c0-0.3-0.2-0.6-0.4-0.8L6.3,9.4l0,0c0,0-0.1,0-0.1-0.1C6.2,9.2,6.1,9.1,6,9C5.9,8.8,5.9,8.6,5.9,8.4
	C5.9,8,6,7.7,6.3,7.5L14.2,2c1-0.7,2.4-0.7,3.4,0l10.7,7.4c0,0,0,0,0.1,0.1l0.3,0.2C29.4,10.3,29.9,11.2,29.9,12.2z M8.6,8.2
	C8.5,8.2,8.5,8.3,8.5,8.3c0,0.1,0,0.1,0.1,0.2l10.7,7.4c0,0,0,0,0,0c0.3,0.2,0.8,0.2,1.1,0l6.7-4.4c0.1-0.1,0.1-0.1,0.1-0.2
	c0-0.1,0-0.1-0.1-0.2L16.4,3.7c-0.3-0.2-0.8-0.2-1.1,0L8.6,8.2z M27.9,13.9c0-0.1-0.1-0.2-0.1-0.2c-0.1,0-0.2-0.1-0.3,0l-6.2,4.1
	c-0.3,0.2-0.4,0.5-0.4,0.8v8v0c0,0.1,0.1,0.2,0.1,0.2c0.1,0,0.2,0.1,0.3,0l6.2-4.1c0.3-0.2,0.4-0.5,0.4-0.8V13.9z M17.9,11.5
	c1.1,0,2-0.9,2-2s-0.9-2-2-2s-2,0.9-2,2S16.7,11.5,17.9,11.5z"/>
</svg>
