<svg xmlns="http://www.w3.org/2000/svg" width="20" height="20" fill="none" viewBox="0 0 20 20">
  <path fill="#606B85" fill-rule="evenodd" d="m7.08 9.33.01-.027 2.694-7.599C10.12.762 11.521 1 11.521 2v5.896h.77a.89.89 0 0 1 .852 1.153l-.008.027-2.982 8.549c-.33.947-1.738.71-1.738-.292v-6.845h-.482A.89.89 0 0 1 7.08 9.33Zm3.547-.545V2L7.933 9.599h1.376v7.734l2.981-8.548h-1.663ZM4.622 3.98a.446.446 0 0 0-.443-.425.446.446 0 0 0-.45.44l-.084 11.236v.023c.01.235.204.423.444.425a.446.446 0 0 0 .45-.441l.084-11.236V3.98ZM.447 6.32c.24 0 .435.187.446.422v6.272a.446.446 0 0 1-.893.022V6.764c0-.245.2-.444.447-.444Zm19 0c.24 0 .435.187.446.422v6.272a.446.446 0 0 1-.893.022V6.764c0-.245.2-.444.447-.444Zm-3.413-2.764c.24.001.433.19.443.425v.022l-.083 11.236a.446.446 0 0 1-.45.441.446.446 0 0 1-.444-.425v-.023l.084-11.235a.446.446 0 0 1 .45-.441Z" clip-rule="evenodd"/>
</svg>
