<svg xmlns="http://www.w3.org/2000/svg" width="20" height="20" viewBox="0 0 20 20">
  <path fill="#707578" fill-rule="evenodd" d="M9.92504515,1.00112964 C10.7311734,0.994141952 11.4546645,1.49415948 11.7333677,2.25089343 L11.7333677,2.25089343 L12.0739714,3.17852203 C12.1510511,3.39314129 12.3096061,3.56613724 12.5146888,3.66081549 C12.7188573,3.75820295 12.9538774,3.76829493 13.1657344,3.68877199 C13.1930662,3.67890132 13.2198323,3.66752571 13.2459099,3.6546973 L13.2459099,3.6546973 L14.1430547,3.22357944 C14.8702705,2.87073465 15.7404319,3.01367771 16.3162281,3.58057073 C16.8920243,4.14746375 17.0489312,5.01570813 16.7080932,5.74895644 L16.7080932,5.74895644 L16.291422,6.64676098 C16.0941333,7.07391985 16.2793417,7.58007624 16.7055432,7.77851375 C16.7305306,7.78948633 16.7579624,7.80101715 16.7857839,7.8104763 L16.7857839,7.8104763 L17.7171015,8.1332171 C18.4803186,8.39795768 18.9943618,9.11449461 19.0009925,9.92286285 C19.0076231,10.7312311 18.5054078,11.4566951 17.7466434,11.7348052 L17.7466434,11.7348052 L16.8153849,12.0749654 C16.3735532,12.2378243 16.1464046,12.7275175 16.3074113,13.1700691 C16.3172102,13.1975334 16.3285117,13.2244368 16.3412645,13.2506574 L16.3412645,13.2506574 L16.7739666,14.1401074 C17.1271619,14.8675964 16.9844536,15.7390271 16.4176057,16.3161807 C15.8507578,16.8933343 14.9824545,17.0512961 14.2493419,16.7106314 L14.2493419,16.7106314 L13.3528532,16.2940043 C12.9256922,16.0990743 12.4210648,16.2836651 12.2199992,16.7083982 C12.2086304,16.7332497 12.196701,16.762776 12.1863042,16.7929261 L12.1863042,16.7929261 L11.8633781,17.7245818 C11.5968015,18.4841937 10.883331,18.9956097 10.078905,19.003693 C9.2744791,19.0117764 8.55146383,18.514795 8.27055933,17.7606846 L8.27055933,17.7606846 L7.9291431,16.8273741 C7.85214499,16.6145291 7.69321683,16.4414084 7.48779357,16.3466113 C7.28192077,16.2542719 7.04842884,16.2445671 6.83551636,16.3195002 C6.81084473,16.3287129 6.78209865,16.3402946 6.75549242,16.3531885 L6.75549242,16.3531885 L5.86103691,16.7853883 C5.40462959,17.0069645 4.8787089,17.0367053 4.40047872,16.8679826 C4.37112197,16.8579062 4.34207383,16.8470623 4.31333429,16.8354508 C3.83023442,16.6393622 3.44826844,16.2542745 3.25594625,15.7694211 C3.06362407,15.2845677 3.07763899,14.7420332 3.29474344,14.2675346 L3.29474344,14.2675346 L3.71381906,13.367134 C3.91217429,12.9399574 3.72719943,12.4329548 3.30054721,12.234386 C3.2755654,12.2234111 3.24605944,12.2114899 3.21570801,12.2005655 L3.21570801,12.2005655 L2.28517047,11.8781308 C1.80490332,11.7160256 1.41051085,11.3667119 1.19143122,10.909405 C0.955140183,10.4233285 0.935514863,9.85978317 1.13740862,9.35817781 C1.33930545,8.85657368 1.74386379,8.46376072 2.25100592,8.27691324 L2.25100592,8.27691324 L3.1809672,7.93667662 C3.62305496,7.77380351 3.85060338,7.28407491 3.69001295,6.84111081 C3.67990435,6.81376309 3.66842729,6.78694215 3.65562527,6.7607496 L3.65562527,6.7607496 L3.22426228,5.86693473 C2.87359262,5.14054271 3.01669243,4.27179221 3.58186882,3.69592648 C4.14704522,3.12006074 5.01254974,2.96113091 5.74476537,3.29876069 L5.74476537,3.29876069 L6.64279375,3.71600524 C7.06926299,3.91507534 7.57647627,3.73066428 7.77601918,3.30399058 C7.78854586,3.27740604 7.79956358,3.25013621 7.80901982,3.22231114 L7.80901982,3.22231114 L8.13718715,2.28206586 C8.40361348,1.52060662 9.11891692,1.00811732 9.92504515,1.00112964 Z M10.2226252,2.10799848 C9.77825697,1.95279706 9.29202506,2.18714555 9.13610019,2.63166935 L9.13610019,2.63166935 L8.80985773,3.56600946 C8.78797125,3.63027249 8.76238775,3.69321669 8.73323547,3.75452652 C8.52024544,4.21464872 8.13251216,4.57073789 7.65614627,4.74371114 C7.17978039,4.91668438 6.65421751,4.89222224 6.1961785,4.67575744 L6.1961785,4.67575744 L5.29992666,4.25967375 C4.97324999,4.10976717 4.58757485,4.18115812 4.33589873,4.43812153 C4.0842226,4.69508494 4.02068111,5.08234787 4.17707135,5.4061183 L4.17707135,5.4061183 L4.60820372,6.2993969 C4.84468715,6.78587101 4.86387849,7.3499808 4.66101298,7.8516706 C4.45814747,8.3533604 4.05225075,8.74557946 3.54409778,8.93094867 L3.54409778,8.93094867 L2.61467015,9.27097152 C2.27664841,9.39581714 2.05341189,9.71973212 2.05698233,10.0801735 C2.06055278,10.4406149 2.2901595,10.7597797 2.63058413,10.8775087 L2.63058413,10.8775087 L3.56550686,11.2012676 C3.59753999,11.2124466 3.62812446,11.2238899 3.65801494,11.2359665 C3.68713246,11.2477307 3.71556393,11.2601085 3.74345147,11.2727142 C4.20410435,11.4855491 4.56101675,11.8731779 4.73535196,12.3499792 C4.90968716,12.8267805 4.88709979,13.3535202 4.67257908,13.8138491 L4.67257908,13.8138491 L4.2554601,14.7105591 C4.15069505,14.9409674 4.15369433,15.2059941 4.26364548,15.4338468 C4.36005677,15.6387775 4.53556975,15.7956686 4.74991743,15.8685254 C4.96325459,15.943849 5.19787885,15.9307158 5.40158743,15.832048 L5.40158743,15.832048 L6.29444565,15.4005595 C6.34995865,15.373472 6.40883862,15.3490879 6.46878946,15.3264702 C6.94510018,15.151124 7.47143668,15.1724394 7.93180585,15.3857191 C8.39217501,15.5989987 8.74879155,15.9867374 8.92306495,16.4634859 L8.92306495,16.4634859 L9.26311164,17.3935663 C9.34855927,17.6308473 9.53780224,17.8159269 9.7768341,17.8959869 C9.98998071,17.9714827 10.2244318,17.9590464 10.4285048,17.8614194 C10.6325777,17.7637924 10.7895176,17.5889901 10.8647286,17.3755462 L10.8647286,17.3755462 L11.187818,16.443486 C11.2099166,16.3810407 11.2333121,16.3231347 11.2593163,16.2653919 C11.4712929,15.8035465 11.8587613,15.4454142 12.3356517,15.2705484 C12.8125421,15.0956827 13.3393661,15.1185631 13.799098,15.334107 L13.799098,15.334107 L14.6951944,15.7505756 C14.9277668,15.8582688 15.1964277,15.855797 15.4271071,15.7438415 C15.6307929,15.6451753 15.7869234,15.4695158 15.8610585,15.2556022 C15.9351937,15.0416886 15.9212411,14.8070999 15.8222792,14.6035924 L15.8222792,14.6035924 L15.3893677,13.7136102 C15.3606239,13.6541841 15.3349281,13.5933284 15.3123803,13.53128 C14.9534082,12.5401049 15.4629712,11.444599 16.452248,11.0806862 L16.452248,11.0806862 L17.3835105,10.7405277 C17.7218589,10.6161349 17.9456827,10.2924316 17.9426794,9.93183438 C17.9396761,9.57123713 17.7104938,9.2515704 17.3701238,9.13322549 L17.3701238,9.13322549 L16.436736,8.81009591 C16.3745693,8.78856021 16.3183967,8.76541733 16.2626177,8.74020435 C15.8024767,8.52748648 15.4458406,8.14039755 15.2712864,7.66422415 C15.0967322,7.18805075 15.1185829,6.66186546 15.3320243,6.20160172 L15.3320243,6.20160172 L15.7488502,5.3034029 C15.8571432,5.07086594 15.8547674,4.80190049 15.7423847,4.57144133 C15.6454349,4.36628167 15.4691381,4.20952602 15.2541177,4.137295 C15.040683,4.06290189 14.8063392,4.07694776 14.6032076,4.17630861 L14.6032076,4.17630861 L13.7080625,4.60690517 C13.6490766,4.6361534 13.5883921,4.66183546 13.5263362,4.68381294 C13.0505931,4.85722854 12.5255911,4.83445309 12.0668538,4.62049819 C11.6081166,4.4065433 11.253232,4.01893994 11.0802903,3.54297798 L11.0802903,3.54297798 L10.7404075,2.61696534 C10.6554228,2.37651971 10.4644017,2.18875079 10.2226252,2.10799848 Z M6.56616096,8.61741021 C7.33286914,6.71974087 9.4915081,5.8024043 11.387616,6.56848163 C13.2820682,7.33624397 14.1969224,9.49397421 13.4325752,11.3916216 C12.665867,13.289291 10.507228,14.2066275 8.6111201,13.4405502 C6.71501218,12.6744729 5.79945279,10.5150795 6.56616096,8.61741021 Z M10.9909738,7.55020571 C9.63661095,7.00300762 8.09472598,7.65824803 7.54707728,9.01372613 C6.99942858,10.3692042 7.65339957,11.911628 9.00776237,12.4588261 C10.3621098,13.0042558 11.9027502,12.3495443 12.4516588,10.9953057 C12.9993075,9.63982761 12.3453366,8.0974038 10.9909738,7.55020571 Z"/>
</svg>
