<svg xmlns="http://www.w3.org/2000/svg" width="20" height="20" fill="none" viewBox="0 0 20 20">
  <path fill="#606B85" fill-rule="evenodd" d="M1.4 10a8.6 8.6 0 1 1 17.2 0 8.6 8.6 0 0 1-17.2 0ZM10 2.6a7.4 7.4 0 1 0 0 14.8 7.4 7.4 0 0 0 0-14.8Zm.23 3.713a2.01 2.01 0 0 0-2.239 2v.6l-1.2.002v-.6a3.21 3.21 0 1 1 3.903 3.13l-.013.002a.1.1 0 0 0-.081.096v.957H9.4v-.97a1.301 1.301 0 0 1 1.04-1.258 2.01 2.01 0 0 0-.21-3.959Zm-1.003 8.139a.774.774 0 1 1 1.548 0 .774.774 0 0 1-1.548 0Z" clip-rule="evenodd"/>
</svg>
