<svg xmlns="http://www.w3.org/2000/svg" width="20" height="20" viewBox="0 0 20 20">
  <path fill="#707578" fill-rule="evenodd" d="M8.35609085,10.5483276 C8.96116385,10.5483276 9.45167243,11.0388362 9.45167243,11.6439091 L9.45167243,11.6439091 L9.45167243,16.9044184 C9.45167243,17.5094914 8.96116385,18 8.35609085,18 L8.35609085,18 L3.09558157,18 C2.49050858,18 2,17.5094914 2,16.9044184 L2,16.9044184 L2,11.6439091 C2,11.0388362 2.49050858,10.5483276 3.09558157,10.5483276 L3.09558157,10.5483276 Z M16.9044184,10.5483276 C17.5094914,10.5483276 18,11.0388362 18,11.6439091 L18,11.6439091 L18,16.9044184 C18,17.5094914 17.5094914,18 16.9044184,18 L16.9044184,18 L11.6439091,18 C11.0388362,18 10.5483276,17.5094914 10.5483276,16.9044184 L10.5483276,16.9044184 L10.5483276,11.6439091 C10.5483276,11.0388362 11.0388362,10.5483276 11.6439091,10.5483276 L11.6439091,10.5483276 Z M8.35609085,11.4243634 L3.09558157,11.4243634 C2.97432981,11.4243634 2.87603583,11.5226574 2.87603583,11.6439091 L2.87603583,11.6439091 L2.87603583,16.9044184 C2.87603583,17.0256702 2.97432981,17.1239642 3.09558157,17.1239642 L3.09558157,17.1239642 L8.35609085,17.1239642 C8.47734262,17.1239642 8.5756366,17.0256702 8.5756366,16.9044184 L8.5756366,16.9044184 L8.5756366,11.6439091 C8.5756366,11.5226574 8.47734262,11.4243634 8.35609085,11.4243634 L8.35609085,11.4243634 Z M16.9044184,11.4243634 L11.6439091,11.4243634 C11.5226574,11.4243634 11.4243634,11.5226574 11.4243634,11.6439091 L11.4243634,11.6439091 L11.4243634,16.9044184 C11.4243634,17.0256702 11.5226574,17.1239642 11.6439091,17.1239642 L11.6439091,17.1239642 L16.9044184,17.1239642 C17.0256702,17.1239642 17.1239642,17.0256702 17.1239642,16.9044184 L17.1239642,16.9044184 L17.1239642,11.6439091 C17.1239642,11.5226574 17.0256702,11.4243634 16.9044184,11.4243634 L16.9044184,11.4243634 Z M8.35609085,2 C8.96116385,2 9.45167243,2.49050858 9.45167243,3.09558157 L9.45167243,3.09558157 L9.45167243,8.35609085 C9.45167243,8.96116385 8.96116385,9.45167243 8.35609085,9.45167243 L8.35609085,9.45167243 L3.09558157,9.45167243 C2.49050858,9.45167243 2,8.96116385 2,8.35609085 L2,8.35609085 L2,3.09558157 C2,2.49050858 2.49050858,2 3.09558157,2 L3.09558157,2 Z M16.9044184,2 C17.5094914,2 18,2.49050858 18,3.09558157 L18,3.09558157 L18,8.35609085 C18,8.96116385 17.5094914,9.45167243 16.9044184,9.45167243 L16.9044184,9.45167243 L11.6439091,9.45167243 C11.0388362,9.45167243 10.5483276,8.96116385 10.5483276,8.35609085 L10.5483276,8.35609085 L10.5483276,3.09558157 C10.5483276,2.49050858 11.0388362,2 11.6439091,2 L11.6439091,2 Z M8.35609085,2.87603583 L3.09558157,2.87603583 C2.97432981,2.87603583 2.87603583,2.97432981 2.87603583,3.09558157 L2.87603583,3.09558157 L2.87603583,8.35609085 C2.87603583,8.47734262 2.97432981,8.5756366 3.09558157,8.5756366 L3.09558157,8.5756366 L8.35609085,8.5756366 C8.47734262,8.5756366 8.5756366,8.47734262 8.5756366,8.35609085 L8.5756366,8.35609085 L8.5756366,3.09558157 C8.5756366,2.97432981 8.47734262,2.87603583 8.35609085,2.87603583 L8.35609085,2.87603583 Z M16.9044184,2.87603583 L11.6439091,2.87603583 C11.5226574,2.87603583 11.4243634,2.97432981 11.4243634,3.09558157 L11.4243634,3.09558157 L11.4243634,8.35609085 C11.4243634,8.47734262 11.5226574,8.5756366 11.6439091,8.5756366 L11.6439091,8.5756366 L16.9044184,8.5756366 C17.0256702,8.5756366 17.1239642,8.47734262 17.1239642,8.35609085 L17.1239642,8.35609085 L17.1239642,3.09558157 C17.1239642,2.97432981 17.0256702,2.87603583 16.9044184,2.87603583 L16.9044184,2.87603583 Z"/>
</svg>
