<svg xmlns="http://www.w3.org/2000/svg" width="24" height="24" viewBox="0 0 24 24">
  <path fill="#707578" fill-rule="evenodd" d="M4.30987257,10.1666564 C4.49494037,10.0902122 4.70761681,10.1317883 4.85052811,10.272349 L4.85052811,10.272349 L9.15236857,14.5877251 C9.25117311,14.6771719 9.30600518,14.8055159 9.30243277,14.9389766 L9.30243277,14.9389766 L9.30243277,19.5052467 C9.29962154,19.7059996 9.1777923,19.8857466 8.9927245,19.9621908 C8.8076567,20.038635 8.59498026,19.9970589 8.45206896,19.8564982 L8.45206896,19.8564982 L4.1502285,15.5411221 C4.05142396,15.4516753 3.99659189,15.3233313 4.0001643,15.1898706 L4.0001643,15.1898706 L4.0001643,10.6236005 C4.00297553,10.4228476 4.12480477,10.2431006 4.30987257,10.1666564 Z M15.2049581,4 C15.3360244,4.00586294 15.460485,4.05937108 15.5551079,4.15053638 L15.5551079,4.15053638 L19.8569483,8.46591247 C19.9970681,8.60927343 20.0385138,8.82261906 19.9623094,9.00826917 C19.886105,9.19391928 19.7069217,9.31613185 19.5067985,9.31895193 L19.5067985,9.31895193 L9.85266818,9.31895193 C9.57640761,9.31895193 9.35245417,9.54361004 9.35245417,9.82073985 C9.35245417,10.0978697 9.57640761,10.3225278 9.85266818,10.3225278 L9.85266818,10.3225278 L12.6538666,10.3225278 C12.7869087,10.3189441 12.9148502,10.3739487 13.0040164,10.4730641 L13.0040164,10.4730641 L17.3058569,14.838619 C17.4459767,14.98198 17.4874223,15.1953256 17.4112179,15.3809757 C17.3350136,15.5666258 17.1558303,15.6888384 16.9557071,15.6916585 L16.9557071,15.6916585 L11.8535242,15.6916585 C11.7204821,15.6952421 11.5925406,15.6402375 11.5033744,15.5411221 L11.5033744,15.5411221 L4.1502285,8.16483972 C4.05142396,8.07539292 3.99659189,7.94704887 4.0001643,7.81358818 L4.0001643,7.81358818 L4.0001643,4.50178792 C4.01937211,4.23304338 4.23247671,4.01926825 4.50037831,4 L4.50037831,4 Z"/>
</svg>
