<svg xmlns="http://www.w3.org/2000/svg" width="24" height="24" viewBox="0 0 24 24">
  <path fill="#707578" fill-rule="evenodd" d="M6.34182302,6.34237777 C9.46630103,3.21920741 14.5299096,3.21920741 17.6543877,6.34237777 C17.8243146,6.5408499 17.8128897,6.83670397 17.6281633,7.02147413 C17.4434369,7.20624429 17.1476529,7.21767185 16.9492278,7.04770468 C14.2147984,4.31262757 9.78141235,4.3126276 7.04698295,7.04770475 C4.31255356,9.78278191 4.31255352,14.2172181 7.04698288,16.9522953 C9.04943163,18.9554228 12.0611177,19.5546897 14.6775652,18.4706326 C17.2940126,17.3865754 18.999897,14.8327056 18.9996926,12 C18.9996926,11.7237296 19.223601,11.4997681 19.499806,11.4997681 C19.776011,11.4997681 19.9999599,11.7237296 19.9999599,12 C20.0067033,14.1238807 19.1618234,16.1618028 17.6543877,17.6576222 C14.5299096,20.7807926 9.46630103,20.7807926 6.34182302,17.6576222 C3.21939233,14.5324041 3.21939233,9.46759594 6.34182302,6.34237777 Z M16.6182014,10.0837848 C17.5316636,12.2884632 16.7608964,14.8315413 14.7772793,16.1577442 C12.7936622,17.4839472 10.1496741,17.2238996 8.46230374,15.5366392 C8.29237682,15.3381671 8.30380168,15.042313 8.48852808,14.8575428 C8.67325448,14.6727727 8.96903849,14.6613451 9.16746361,14.8313123 C9.91790677,15.5827687 10.9362276,16.0050029 11.9981053,16.0050029 C13.0599831,16.0050029 14.0783039,15.5827687 14.8287471,14.8313123 C16.1080158,13.5503151 16.3680277,11.5697684 15.4627735,10.0018449 C14.5575194,8.43392129 12.7125496,7.66927977 10.9639036,8.13730343 C9.21525769,8.6053271 7.99862284,10.1894046 7.9971983,12 C7.9971983,12.2762704 7.77328991,12.5002319 7.49708492,12.5002319 C7.22087993,12.5002319 6.99697143,12.2762704 6.99697143,12 C6.99646198,9.61349307 8.68145716,7.55897226 11.0214616,7.09292456 C13.361466,6.62687686 15.7047392,7.87910634 16.6182014,10.0837848 Z M11.9981053,10.4993044 C12.8267203,10.4993044 13.4984455,11.1711887 13.4984455,12 C13.4984455,12.8288113 12.8267203,13.5006956 11.9981053,13.5006956 C11.1694904,13.5006956 10.4977652,12.8288113 10.4977652,12 C10.4977652,11.1711887 11.1694904,10.4993044 11.9981053,10.4993044 Z"/>
</svg>
