<svg xmlns="http://www.w3.org/2000/svg" width="20" height="20" viewBox="0 0 20 20">
  <path fill="#707578" fill-rule="evenodd" d="M10.0046407,4 C12.4097448,4.01095712 14.7103275,4.95468213 16.3933942,6.62073891 C18.0861935,8.27781459 19.0249031,10.522777 19.0002442,12.8551273 L19.0002442,12.8551273 L19.0002442,14.3636364 C18.9990715,15.2669036 18.2442385,15.9988628 17.3127442,16 L17.3127442,16 L2.6877442,16 C1.75624987,15.9988628 1.00141691,15.2669036 1.0002442,14.3636364 L1.0002442,14.3636364 L1.0002442,12.8529847 C0.96389117,7.99976765 4.99097732,4.03652803 10.0046407,4 Z M10.0087447,13.2735389 L10.0002307,13.274848 C9.06389867,13.2788542 8.31409285,14.0091732 8.3127442,14.9090909 L8.3127442,14.9090909 L11.6877442,14.9090909 C11.6864135,14.0092318 10.9367087,13.2789272 10.0087447,13.2735389 L10.0087447,13.2735389 Z M13.975691,6.13531859 C11.5209879,4.74354319 8.4832311,4.74288588 6.02788774,6.13359884 C3.57254438,7.5243118 2.08090176,10.0904329 2.1252442,12.8474429 L2.1252442,14.3636364 C2.12553198,14.6647669 2.37720331,14.9088118 2.6877442,14.9090909 L2.6877442,14.9090909 L7.1877442,14.9090909 C7.19017564,13.5601704 8.20856115,12.4153364 9.5842192,12.215056 L9.5842192,12.215056 L11.1542467,7.64773382 C11.2527192,7.36225722 11.5711009,7.20813713 11.8655771,7.30339765 C12.1600534,7.39865817 12.3192439,7.70726873 12.2212417,7.99289745 L12.2212417,7.99289745 L10.7467357,12.2823869 C11.9655778,12.608693 12.8105387,13.6829684 12.8127442,14.9090909 L12.8127442,14.9090909 L17.3127442,14.9090909 C17.6232851,14.9088118 17.8749564,14.6647669 17.8752442,14.3636364 L17.8752442,14.3636364 L17.8752442,12.8508509 C17.9208555,10.0938604 16.430394,7.52709399 13.975691,6.13531859 Z M15.3439942,11.6363636 C15.8099845,11.6363636 16.1877442,12.0026761 16.1877442,12.4545455 C16.1877442,12.9064148 15.8099845,13.2727273 15.3439942,13.2727273 C14.8780039,13.2727273 14.5002442,12.9064148 14.5002442,12.4545455 C14.5002442,12.0026761 14.8780039,11.6363636 15.3439942,11.6363636 Z M4.6564942,11.6363636 C5.08615776,11.6053622 5.46174838,11.9149414 5.49941375,12.3311371 C5.53707912,12.7473328 5.22283443,13.1156153 4.79416985,13.1576554 C4.36550527,13.1996955 3.98158005,12.899884 3.93254536,12.4848034 C3.88351067,12.0697227 4.18757265,11.6934884 4.6149367,11.6404393 C4.6210612,11.6400116 4.6269427,11.6388945 4.6330942,11.6386545 C4.6410592,11.6384407 4.6484752,11.6363636 4.6564942,11.6363636 Z M5.7814942,8.91122036 C6.24748446,8.91122036 6.6252442,9.27753284 6.6252442,9.72940218 C6.6252442,10.1812715 6.24748446,10.547584 5.7814942,10.547584 C5.31550394,10.547584 4.9377442,10.1812715 4.9377442,9.72940218 C4.9377442,9.27753284 5.31550394,8.91122036 5.7814942,8.91122036 Z M14.2247728,8.91175982 C14.2503735,8.91319458 14.2701539,8.91513221 14.2897747,8.91814545 C14.7256148,8.95284047 15.0614871,9.30534942 15.0627442,9.72940218 C15.0627442,10.1812715 14.6849845,10.547584 14.2189942,10.547584 C13.7530039,10.547584 13.3752442,10.1812715 13.3752442,9.72940218 C13.3752442,9.27753284 13.7530039,8.91122036 14.2189942,8.91122036 C14.2229497,8.91122036 14.2266037,8.91228509 14.2305277,8.91234182 Z M8.0314942,6.73169472 L8.0988952,6.736 C8.5503172,6.77108015 8.8926725,7.1454776 8.87456983,7.58427255 C8.85646716,8.02306749 8.48436344,8.36974895 8.0314942,8.36974895 C7.57862495,8.36974895 7.20652124,8.02306749 7.18841857,7.58427255 C7.1703159,7.1454776 7.5126712,6.77108015 7.9640932,6.736 C8.00883223,6.73025963 8.05415617,6.73025963 8.0988952,6.736 Z"/>
</svg>
