<svg xmlns="http://www.w3.org/2000/svg" width="24" height="24" viewBox="0 0 24 24">
  <path fill="#707578" fill-rule="evenodd" d="M14.8800139,4 L15.0270274,4.00485143 C15.3678481,4.03287451 15.6905643,4.17679061 15.9400061,4.415 L15.9400061,4.415 L17.5599942,6.035 C17.8426047,6.31725862 18.0009698,6.70057693 17.9999955,7.1 L17.9999955,7.1 L17.9999955,18.75 C17.9999955,19.4403559 17.4403511,20 16.7500002,20 L16.7500002,20 L7.25006977,20 C6.91681169,20 6.59734673,19.8669428 6.36263839,19.630355 C6.12793005,19.3937673 5.99741286,19.0732499 6.00003887,18.74 L6.00003887,18.74 L6.00003887,5.24 C6.00826515,4.55469075 6.56472189,4.00268162 7.25006977,4 L7.25006977,4 L14.8800139,4 Z M14.8800139,5 L7.25006977,5 C7.1119996,5 7.0000716,5.11192881 7.0000716,5.25 L7.0000716,5.25 L7.0000716,18.75 C7.0000716,18.8880712 7.1119996,19 7.25006977,19 L7.25006977,19 L16.7500002,19 C16.8880704,19 16.9999983,18.8880712 16.9999983,18.75 L16.9999983,18.75 L16.9999983,7.1 C16.9943747,6.97579806 16.9426797,6.85814647 16.8549994,6.77 L16.8549994,6.77 L15.2350113,5.15 C15.1414762,5.05457218 15.0136358,5.00055471 14.8800139,5 L14.8800139,5 Z M14.5000167,9 C15.3284377,9 16.0000057,9.67157288 16.0000057,10.5 L16.0000057,10.5 L16.0000057,16.5 C16.0000057,17.3284271 15.3284377,18 14.5000167,18 L14.5000167,18 L9.50005329,18 C8.67163223,18 8.00006428,17.3284271 8.00006428,16.5 L8.00006428,16.5 L8.00006428,10.5 C8.00006428,9.67157288 8.67163223,9 9.50005329,9 L9.50005329,9 Z M9.00005695,12.805 L9.00005695,16.5 C9.00005695,16.7761424 9.22391294,17 9.50005695,17 L9.50005695,17 L13.1950262,17 L9.00005695,12.805 Z M9.91505025,10 L9.50005695,10 C9.22391294,10 9.00005695,10.2238576 9.00005695,10.5 L9.00005695,10.5 L9.00005695,11.39 L14.595016,17 C14.8335683,16.9538754 15.0044312,16.7429321 15.000013,16.5 L15.000013,16.5 L15.000013,15.085 L9.91505025,10 Z M14.5000167,10 L11.3250399,10 L15.000013,13.675 L15.000013,10.5 C15.000013,10.2238576 14.776157,10 14.5000167,10 L14.5000167,10 Z"/>
</svg>
