<svg xmlns="http://www.w3.org/2000/svg" width="24" height="24" viewBox="0 0 24 24">
  <path fill="#707578" fill-rule="evenodd" d="M11,5.99647034 C11.2761424,5.99647034 11.5,6.21953783 11.5,6.49470551 C11.5,6.76987319 11.2761424,6.99294067 11,6.99294068 L5.25,6.99294068 C5.11192881,6.99294068 5,7.10447442 5,7.24205826 L5,14.7155858 C5,14.8531696 5.11192881,14.9647034 5.25,14.9647034 L7.5,14.9647034 C7.63290149,14.9639377 7.76064058,15.0159287 7.855,15.1091916 C7.94859326,15.2032179 8.00076838,15.3305062 8,15.4629385 L8,17.8395203 L11.165,15.0842798 C11.2581731,15.0048342 11.3773962,14.9622782 11.5,14.9647034 L18.75,14.9647034 C18.8880712,14.9647034 19,14.8531696 19,14.7155858 L19,12.9717627 C19,12.696595 19.2238576,12.4735275 19.5,12.4735275 C19.7761424,12.4735275 20,12.696595 20,12.9717627 L20,14.7155858 C20,15.403505 19.4403559,15.9611737 18.75,15.9611737 L11.69,15.9611737 L8.455,18.7811848 C8.19244172,19.0125863 7.81663835,19.0655228 7.5,18.9157083 C7.19066825,18.7709095 6.99506737,18.4590527 7,18.118532 L7,15.9611737 L5.25,15.9611737 C4.55964406,15.9611737 4,15.403505 4,14.7155858 L4,7.24205826 C4,6.55413905 4.55964406,5.99647034 5.25,5.99647034 L11,5.99647034 Z M16.5,5 C18.4329966,5 20,6.56147238 20,8.48764618 C20,10.41382 18.4329966,11.9752924 16.5,11.9752924 C14.5670034,11.9752924 13,10.41382 13,8.48764618 C13,6.56147238 14.5670034,5 16.5,5 Z M16.5,5.99647034 C15.1192881,5.99647034 14,7.11180775 14,8.48764618 C14,9.86348461 15.1192881,10.978822 16.5,10.978822 C17.8807119,10.978822 19,9.86348461 19,8.48764618 C19,7.11180775 17.8807119,5.99647034 16.5,5.99647034 Z M16.5,7.49117584 C17.0522847,7.49117584 17.5,7.93731081 17.5,8.48764618 C17.5,9.03798155 17.0522847,9.48411652 16.5,9.48411652 C15.9477153,9.48411652 15.5,9.03798155 15.5,8.48764618 C15.5,7.93731081 15.9477153,7.49117584 16.5,7.49117584 Z"/>
</svg>
