<svg xmlns="http://www.w3.org/2000/svg" width="24" height="24" viewBox="0 0 24 24">
  <path fill="#707578" fill-rule="evenodd" d="M18.75,7.04555395 L17,7.04555395 L17,5.49432644 C17.0011648,5.12815248 16.798562,4.79117074 16.4730909,4.61793814 C16.1476198,4.44470553 15.7523066,4.46344532 15.445,4.66667469 L14.5,5.2911305 L11.85,7.04555395 L5.25,7.04555395 C4.55964406,7.04555395 4,7.60027297 4,8.28455356 L4,15.7185512 C4,16.4028318 4.55964406,16.9575508 5.25,16.9575508 L7,16.9575508 L7,18.5087784 C6.9991362,18.8759073 7.20306906,19.21344 7.53,19.3859901 C7.67537976,19.460261 7.83644761,19.4993243 8,19.4999892 C8.19722329,19.5009033 8.39031892,19.4440017 8.555,19.3364301 L12.15,16.9575508 L18.75,16.9575508 C19.4403559,16.9575508 20,16.4028318 20,15.7185512 L20,8.28455356 C20,7.60027297 19.4403559,7.04555395 18.75,7.04555395 Z M14.5,6.48552612 L16,5.49432644 L16,7.04555395 L13.65,7.04555395 L14.5,6.48552612 Z M16,8.03675364 L16,12.9580601 C15.9991347,13.1238477 15.9146926,13.2782258 15.775,13.369408 L14.5,14.2119277 L11.85,15.9663512 L8,15.9663512 L8,11.0450447 C8.00086532,10.8792571 8.08530739,10.724879 8.225,10.6336968 L12.15,8.03675364 L16,8.03675364 Z M5.25,15.9663512 C5.11192881,15.9663512 5,15.8554074 5,15.7185512 L5,8.28455356 C5,8.14769744 5.11192881,8.03675364 5.25,8.03675364 L10.35,8.03675364 L7.67,9.80604508 C7.25135354,10.0817035 6.99981234,10.5468668 7,11.0450447 L7,15.9663512 L5.25,15.9663512 Z M8,18.5087784 L8,16.9575508 L10.35,16.9575508 L8,18.5087784 Z M19,15.7185512 C19,15.8554074 18.8880712,15.9663512 18.75,15.9663512 L13.65,15.9663512 L14.5,15.4063233 L16.33,14.1970597 C16.7486465,13.9214013 17.0001877,13.456238 17,12.9580601 L17,8.03675364 L18.75,8.03675364 C18.8880712,8.03675364 19,8.14769744 19,8.28455356 L19,15.7185512 Z"/>
</svg>
