<svg xmlns="http://www.w3.org/2000/svg" width="20" height="20" fill="none" viewBox="0 0 20 20">
  <path fill="#606B85" d="M12.325 3.495a.495.495 0 1 1-.99 0 .495.495 0 0 1 .99 0Zm4.309 1.244a.663.663 0 1 1-1.327 0 .663.663 0 0 1 1.327 0Zm1.703 2.471a.664.664 0 0 0-.663.663c0 .026.004.05.007.075l.003.02-1.915 1.168-.007-.007a1.272 1.272 0 1 0 .288.447l1.903-1.163a.664.664 0 1 0 .384-1.203Zm-4.431 7.886-.654-1.686a1.272 1.272 0 1 0-.481.206l.648 1.669a.661.661 0 0 0 .464 1.136.664.664 0 0 0 .663-.663.657.657 0 0 0-.64-.661v-.001Zm-4.626 2.38a.705.705 0 1 0 0-1.41.705.705 0 0 0 0 1.41Zm0-3.894a.466.466 0 1 1 .932 0 .466.466 0 0 1-.933 0Zm8.124.162a.663.663 0 1 0-.213-1.31.663.663 0 0 0 .213 1.31ZM5.823 4.529a.663.663 0 1 1-.939.938.663.663 0 0 1 .939-.938Zm.74 8.98a.984.984 0 1 0-.452-1.916.984.984 0 0 0 .452 1.916Z"/>
  <path fill="#606B85" d="M11.088 9.129a1.267 1.267 0 0 0-1.02-.367c-.053-.157-.11-.326-.167-.5L9.9 8.258l-.179-.535-.358-1.07a1.041 1.041 0 0 0-.571-1.915 1.042 1.042 0 1 0 0 2.085l.053-.002.024-.002c.195.583.455 1.358.7 2.097a1.273 1.273 0 0 0-.425.386L3.085 7.747a1.042 1.042 0 1 0-.13.504l5.983 1.537a1.272 1.272 0 1 0 2.148-.66h.002Zm2.339-2.339a1.272 1.272 0 1 1-1.8 1.799 1.272 1.272 0 0 1 1.8-1.799Z"/>
</svg>
