<svg xmlns="http://www.w3.org/2000/svg" width="20" height="20" viewBox="0 0 20 20">
  <path fill="#707578" fill-rule="evenodd" d="M17.5378927,2.46269133 C17.2433241,2.16573212 16.8421045,1.99910084 16.4238287,2.00000365 C16.348296,2.00000365 16.2728599,2.00541165 16.1980487,2.01582733 C14.0454019,2.34827425 12.0258003,3.26684889 10.3605487,4.67089533 C10.2598994,4.74792997 10.1374256,4.79108524 10.0107167,4.79416333 C10.0069327,4.79409133 10.0038087,4.79199133 10,4.79199133 C9.99650871,4.79199133 9.99365271,4.79389533 9.99018471,4.79396733 C9.86982904,4.79492114 9.75244834,4.75658117 9.65586071,4.68476733 C7.98434637,3.27223519 5.9551982,2.34876886 3.79218871,2.01620733 C3.37803101,1.95839481 2.95788555,2.06768679 2.62439634,2.3199839 C2.29090713,2.572281 2.07146311,2.94686246 2.01445271,3.36113133 C2.00476117,3.4325304 2,3.50450554 2,3.57655933 L2,13.6193353 C2.00231154,14.4057766 2.58527151,15.0695805 3.36482871,15.1734353 C5.45448005,15.435839 7.4222157,16.3020727 9.02695271,17.6660073 C9.30414848,17.8806103 9.64458218,17.9974267 9.99514071,17.9982313 L10,17.9992073 L10.0048607,17.9982313 C10.3552851,17.9973414 10.6955678,17.8805295 10.9726567,17.6660073 C10.9781247,17.6617073 10.9839847,17.6570193 10.9894567,17.6523353 C12.5907862,16.2948981 14.5528852,15.4333652 16.6359407,15.1730353 C17.4142818,15.068091 17.9956913,14.404709 17.9976715,13.6193273 L17.9976715,3.57714733 C17.9992115,3.15920283 17.8336825,2.75796821 17.5378927,2.46269133 Z M3.49296871,14.1816393 C3.21119316,14.1437762 3.00066968,13.9036426 2.99999521,13.6193353 L2.99999521,3.57655933 C2.99988544,3.55010771 3.0015814,3.52367925 3.00507671,3.49745933 C3.04467518,3.21402342 3.28608345,3.00246665 3.57226471,3.00040586 C3.59722374,3.00040586 3.62215597,3.00204619 3.64687671,3.00548733 C5.63253098,3.31284882 7.49458495,4.1630953 9.02734471,5.46230333 C9.16952891,5.57201315 9.32936865,5.6566918 9.49999521,5.71270333 L9.49999521,16.7661833 C7.78132203,15.3556404 5.69891133,14.4596768 3.49296871,14.1816393 Z M16.9976588,13.6193353 C16.9973254,13.9025772 16.7883621,14.1422841 16.5078127,14.1812473 C14.3015934,14.4589855 12.2188709,15.3548921 10.5000007,16.7655753 L10.5000007,5.70898333 C10.6765661,5.65037586 10.8419269,5.56228014 10.9890647,5.44843533 C12.5149724,4.15802928 14.3667979,3.3128014 16.3414087,3.00546733 C16.506717,2.98195965 16.6740829,3.03143648 16.8000384,3.14104779 C16.925994,3.25065909 16.99811,3.40958859 16.9976588,3.57655933 L16.9976588,13.6193353 Z"/>
</svg>
