<svg xmlns="http://www.w3.org/2000/svg" width="20" height="20" viewBox="0 0 20 20">
  <path fill="#707578" fill-rule="evenodd" d="M15,12 L18,13.5 L15,15 L15,12 Z M5,6 C6.95,6 8.1,7.45 9,9 C9.9,7.45 11.05,6 13,6 L13,6 L13.5,6 C13.7761424,6 14,6.22385763 14,6.5 L14,6.5 L13.9919443,6.58987563 C13.9496084,6.82312484 13.7454599,7 13.5,7 L13.5,7 L13,7 C11.4,7 10.5,8.4 9.6,10 C10.5,11.6 11.4,13 13,13 L13,13 L13.5,13 C13.7761424,13 14,13.2238576 14,13.5 C14,13.7761424 13.7761424,14 13.5,14 L13.5,14 L13,14 C11.05,14 9.9,12.55 9,11 C8.1,12.55 6.95,14 5,14 L5,14 L2.5,14 C2.22385763,14 2,13.7761424 2,13.5 C2,13.2238576 2.22385763,13 2.5,13 L2.5,13 L5,13 C6.6,13 7.5,11.6 8.4,10 C7.5,8.4 6.6,7 5,7 L5,7 L2.5,7 C2.22385763,7 2,6.77614237 2,6.5 C2,6.22385763 2.22385763,6 2.5,6 L2.5,6 Z M15,5 L18,6.5 L15,8 L15,5 Z"/>
</svg>
