<svg xmlns="http://www.w3.org/2000/svg" width="24" height="24" viewBox="0 0 24 24">
  <path fill="#707578" fill-rule="evenodd" d="M5.75644688,5.75644688 C8.02978595,3.4831078 11.6914151,3.40695239 14.0573103,5.58380359 C16.4232054,7.76065479 16.65154,11.4159511 14.5749415,13.8703105 L14.5749415,13.8703105 L19.8521782,19.1425498 C19.946785,19.236384 20,19.364115 20,19.497364 C20,19.630613 19.946785,19.7583441 19.8521782,19.8521782 C19.7583441,19.946785 19.630613,20 19.497364,20 C19.364115,20 19.236384,19.946785 19.1425498,19.8521782 L19.1425498,19.8521782 L13.8703105,14.5749415 C11.4159511,16.65154 7.76065479,16.4232054 5.58380359,14.0573103 C3.40695239,11.6914151 3.4831078,8.02978595 5.75644688,5.75644688 Z M10.0023359,5.00495265 C7.24235734,5.00495265 5.00495265,7.24235734 5.00495265,10.0023359 C5.00495265,11.3277243 5.53146116,12.5988283 6.46865231,13.5360195 C7.40584347,14.4732106 8.67694745,14.9997191 10.0023359,14.9997191 C12.7623144,14.9997191 14.9997191,12.7623144 14.9997191,10.0023359 C14.9997191,7.24235734 12.7623144,5.00495265 10.0023359,5.00495265 Z M10.0023359,8.50312092 C10.8303295,8.50312092 11.5015509,9.17434232 11.5015509,10.0023359 C11.5015509,10.8303295 10.8303295,11.5015509 10.0023359,11.5015509 C9.17434232,11.5015509 8.50312092,10.8303295 8.50312092,10.0023359 C8.50312092,9.17434232 9.17434232,8.50312092 10.0023359,8.50312092 Z"/>
</svg>
