<svg xmlns="http://www.w3.org/2000/svg" width="24" height="24" viewBox="0 0 24 24">
  <path fill="#707578" fill-rule="evenodd" d="M18.75,4.5 C19.4403559,4.5 20,5.05264337 20,5.73436351 L20,6.06517294 C19.9996499,6.45788885 19.841385,6.834394 19.56,7.1119132 L12.885,13.7083518 C12.3943324,14.1864691 11.6056676,14.1864691 11.115,13.7083518 L8.645,11.2692495 C8.44893892,11.075641 8.44893892,10.7617396 8.64500001,10.568131 C8.84106109,10.3745225 9.15893891,10.3745225 9.355,10.568131 L11.825,13.0072333 C11.8703667,13.0549673 11.933707,13.082045 12,13.082045 C12.066293,13.082045 12.1296333,13.0549673 12.175,13.0072333 L18.855,6.41573217 C18.9485933,6.32255312 19.0007684,6.19641194 19,6.06517294 L19,5.73436351 C19,5.59801949 18.8880712,5.48749081 18.75,5.48749081 L5.25,5.48749081 C5.11192881,5.48749081 5,5.59801949 5,5.73436351 L5,11.4963724 C4.99923162,11.6276114 5.05140674,11.7537526 5.145,11.8469316 L11.825,18.4384328 C11.8703667,18.4861667 11.933707,18.5132444 12,18.5132444 C12.066293,18.5132444 12.1296333,18.4861667 12.175,18.4384328 L16.145,14.5180943 C16.3410611,14.3244858 16.6589389,14.3244858 16.855,14.5180943 C17.0510611,14.7117028 17.0510611,15.0256042 16.855,15.2192128 L12.885,19.1395513 C12.6504357,19.3713684 12.3318559,19.5011164 12,19.5 C11.6681441,19.5011164 11.3495643,19.3713684 11.115,19.1395513 L4.44,12.5431127 C4.15861503,12.2655935 4.0003501,11.8890883 4,11.4963724 L4,5.73436351 C4,5.05264337 4.55964406,4.5 5.25,4.5 L18.75,4.5 Z M18.5,11.3235615 C19.3284271,11.3235615 20,11.9867336 20,12.8047977 C20,13.6228619 19.3284271,14.2860339 18.5,14.2860339 C17.6715729,14.2860339 17,13.6228619 17,12.8047977 C17,11.9867336 17.6715729,11.3235615 18.5,11.3235615 Z"/>
</svg>
