<svg xmlns="http://www.w3.org/2000/svg" width="24" height="24" viewBox="0 0 24 24">
  <path fill="#707578" fill-rule="evenodd" d="M19.5378927,4.46269133 C19.2433241,4.16573212 18.8421045,3.99910084 18.4238287,4.00000365 C18.348296,4.00000365 18.2728599,4.00541165 18.1980487,4.01582733 C16.0454019,4.34827425 14.0258003,5.26684889 12.3605487,6.67089533 C12.2598994,6.74792997 12.1374256,6.79108524 12.0107167,6.79416333 C12.0069327,6.79409133 12.0038087,6.79199133 12,6.79199133 C11.9965087,6.79199133 11.9936527,6.79389533 11.9901847,6.79396733 C11.869829,6.79492114 11.7524483,6.75658117 11.6558607,6.68476733 C9.98434637,5.27223519 7.9551982,4.34876886 5.79218871,4.01620733 C5.37803101,3.95839481 4.95788555,4.06768679 4.62439634,4.3199839 C4.29090713,4.572281 4.07146311,4.94686246 4.01445271,5.36113133 C4.00476117,5.4325304 4,5.50450554 4,5.57655933 L4,15.6193353 C4.00231154,16.4057766 4.58527151,17.0695805 5.36482871,17.1734353 C7.45448005,17.435839 9.4222157,18.3020727 11.0269527,19.6660073 C11.3041485,19.8806103 11.6445822,19.9974267 11.9951407,19.9982313 L12,19.9992073 L12.0048607,19.9982313 C12.3552851,19.9973414 12.6955678,19.8805295 12.9726567,19.6660073 C12.9781247,19.6617073 12.9839847,19.6570193 12.9894567,19.6523353 C14.5907862,18.2948981 16.5528852,17.4333652 18.6359407,17.1730353 C19.4142818,17.068091 19.9956913,16.404709 19.9976715,15.6193273 L19.9976715,5.57714733 C19.9992115,5.15920283 19.8336825,4.75796821 19.5378927,4.46269133 Z M5.49296871,16.1816393 C5.21119316,16.1437762 5.00066968,15.9036426 4.99999521,15.6193353 L4.99999521,5.57655933 C4.99988544,5.55010771 5.0015814,5.52367925 5.00507671,5.49745933 C5.04467518,5.21402342 5.28608345,5.00246665 5.57226471,5.00040586 C5.59722374,5.00040586 5.62215597,5.00204619 5.64687671,5.00548733 C7.63253098,5.31284882 9.49458495,6.1630953 11.0273447,7.46230333 C11.1695289,7.57201315 11.3293686,7.6566918 11.4999952,7.71270333 L11.4999952,18.7661833 C9.78132203,17.3556404 7.69891133,16.4596768 5.49296871,16.1816393 Z M18.9976588,15.6193353 C18.9973254,15.9025772 18.7883621,16.1422841 18.5078127,16.1812473 C16.3015934,16.4589855 14.2188709,17.3548921 12.5000007,18.7655753 L12.5000007,7.70898333 C12.6765661,7.65037586 12.8419269,7.56228014 12.9890647,7.44843533 C14.5149724,6.15802928 16.3667979,5.3128014 18.3414087,5.00546733 C18.506717,4.98195965 18.6740829,5.03143648 18.8000384,5.14104779 C18.925994,5.25065909 18.99811,5.40958859 18.9976588,5.57655933 L18.9976588,15.6193353 Z"/>
</svg>
