<svg xmlns="http://www.w3.org/2000/svg" width="24" height="24" viewBox="0 0 24 24">
  <path fill="#707578" fill-rule="evenodd" d="M15.4996777,5.98603146 C16.3062131,4.92626785 17.8046208,4.68480358 18.9045822,5.43734048 C19.5565806,5.91041328 19.9555831,6.6506196 19.9965109,7.4473388 L19.9995515,7.6321044 L19.9995515,13.4681812 C19.9995515,14.1296443 19.7361668,14.7640157 19.267339,15.2317408 C18.845394,15.6526934 18.2881472,15.9076284 17.6975738,15.9544059 L17.4996216,15.9622311 L11.6897845,15.9622311 L8.43987555,18.7854956 C8.18034746,19.0108651 7.81251549,19.0635678 7.4999019,18.9201743 C7.22494805,18.7913158 7.03985311,18.5303085 7.00557964,18.2344633 L6.99991591,18.1220783 L6.99991591,15.9622311 L5.24996496,15.9622311 C4.60277441,15.9622311 4.07046413,15.4715271 4.00645343,14.8427072 L4,14.7152061 L4,7.23305642 C4,6.58738811 4.49186088,6.05632985 5.12216331,5.99246971 L5.24996496,5.98603146 L15.4996777,5.98603146 Z M14.9996917,6.98365143 L5.24996496,6.98365143 C5.13162155,6.98365143 5.03248424,7.06568912 5.00657446,7.17587014 L4.99997197,7.23305642 L4.99997197,14.7152061 C4.99997197,14.8332712 5.08220308,14.9321753 5.19264386,14.9580242 L5.24996496,14.9646111 L7.4999019,14.9646111 C7.63208668,14.9625147 7.75972358,15.012732 7.85489195,15.1042779 C7.93075705,15.1805612 7.97938606,15.2786856 7.99472253,15.3836499 L7.99988788,15.4634211 L7.99988788,17.8477328 L11.169799,15.0893136 C11.2381612,15.0291655 11.3212377,14.9891925 11.409775,14.9728917 L11.4997898,14.9646111 L17.5921305,14.9642597 C18.297816,14.9292601 18.8923605,14.402484 18.9995796,13.6926457 C19.0656197,13.2585727 18.9372542,12.8174652 18.6484833,12.4861598 C18.3597124,12.1548543 17.9396731,11.9667796 17.4996216,11.9717512 C17.0496973,11.9670237 16.6257484,12.1693036 16.3470227,12.51479 L16.2596564,12.6351685 C16.1357627,12.8376037 15.9173447,12.9634621 15.6796726,12.9693712 C15.3382698,12.9693712 15.0556317,12.7183615 15.0070644,12.3912359 L14.9996917,12.2909896 L14.9996917,6.98365143 Z M11.0009798,11.9717512 C11.2764649,11.9717512 11.4997898,12.1950761 11.4997898,12.4705612 C11.4997898,12.7460464 11.2764649,12.9693712 11.0009798,12.9693712 L7.49872589,12.9693712 C7.22324075,12.9693712 6.99991591,12.7460464 6.99991591,12.4705612 C6.99991591,12.1950761 7.22324075,11.9717512 7.49872589,11.9717512 L11.0009798,11.9717512 Z M17.4378908,5.97034973 L17.2746279,5.98603146 C16.5631161,6.09299831 16.035098,6.68614447 16.0000159,7.39017009 L15.9996637,11.4729413 C16.8362415,10.8469836 17.9680821,10.8101626 18.8393968,11.3624781 L18.9995796,11.4729413 L18.9995796,7.48246141 C19.0045629,7.043445 18.8160448,6.62439363 18.4839583,6.33630194 C18.1933825,6.0842217 17.8185414,5.95466297 17.4378908,5.97034973 L17.4378908,5.97034973 Z M12.0009518,8.97889135 C12.2764369,8.97889135 12.4997618,9.20221619 12.4997618,9.47770133 C12.4997618,9.75318648 12.2764369,9.97651132 12.0009518,9.97651132 L7.49872589,9.97651132 C7.22324075,9.97651132 6.99991591,9.75318648 6.99991591,9.47770133 C6.99991591,9.20221619 7.22324075,8.97889135 7.49872589,8.97889135 L12.0009518,8.97889135 Z"/>
</svg>
