<svg xmlns="http://www.w3.org/2000/svg" width="20" height="20" viewBox="0 0 20 20">
  <path fill="#707578" fill-rule="evenodd" d="M16.3439593,12.022317 C17.6996478,13.0795637 18.4988149,14.7440442 18.4999999,16.5128515 C18.5001574,16.7482173 18.3406081,16.944666 18.1284429,16.9901006 L18.0346058,17 L13.4933069,17 C13.2362768,17 13.0279128,16.7820489 13.0279128,16.5131926 C13.0279128,16.2779433 13.1874415,16.0816683 13.3995137,16.0362753 L13.4933069,16.0263851 L17.5428737,16.0257503 L17.5383253,15.9702795 C17.4061229,14.8055015 16.8550806,13.7319268 15.9922196,12.9724561 L15.7876113,12.8028709 C14.6673654,11.9292364 13.2186557,11.659856 11.8791961,12.0761203 C11.6328103,12.1526897 11.3737336,12.0058362 11.3005323,11.7481138 C11.227331,11.4903913 11.3677248,11.2193943 11.6141107,11.1428248 C13.2350851,10.639074 14.9882708,10.9650703 16.3439593,12.022317 Z M6.85602372,10.9107309 C9.81407392,10.9107309 12.2120474,13.4190384 12.2120474,16.5131926 C12.2120474,16.7820489 12.0036834,17 11.7466534,17 L11.7466534,17 L1.96539403,17 C1.70836401,17 1.5,16.7820489 1.5,16.5131926 C1.5,13.4190384 3.89797351,10.9107309 6.85602372,10.9107309 Z M6.85602372,11.8843458 C4.64115764,11.8843458 2.80633869,13.5863896 2.48177673,15.8082648 L2.48177673,15.8082648 L2.45363572,16.0257503 L11.2565638,16.0257503 L11.2302707,15.8082648 C10.9169005,13.663006 9.19563324,12.0023463 7.08374575,11.8903689 L7.08374575,11.8903689 Z M6.85602372,3 C8.75295886,3 10.2907286,4.60852466 10.2907286,6.59274038 C10.2907286,8.5769561 8.75295886,10.1854808 6.85602372,10.1854808 C4.95908857,10.1854808 3.4213188,8.5769561 3.4213188,6.59274038 C3.4213188,4.60852466 4.95908857,3 6.85602372,3 Z M15.3029473,3.79877828 C16.7523748,5.02247609 17.0049101,7.23173843 15.8721539,8.77838585 C14.7393977,10.3250333 12.6343947,10.645101 11.1254819,9.4982324 C10.9828569,9.38857342 10.848328,9.26783676 10.7230362,9.13704631 C10.5411038,8.94712954 10.5408043,8.63890027 10.7223671,8.44859697 C10.9039299,8.25829367 11.198601,8.25798032 11.3805333,8.44789709 C11.4727529,8.54416393 11.5717714,8.63303079 11.6746872,8.71216797 C12.7731061,9.54702876 14.3075476,9.31371543 15.13327,8.18628709 C15.9589924,7.05885875 15.7749068,5.4484174 14.7183469,4.55640312 C13.661787,3.66438885 12.1180135,3.81606298 11.2387302,4.89827184 C11.0722795,5.10313687 10.7785739,5.12806931 10.5827204,4.95396001 C10.3868669,4.77985071 10.3630311,4.47263132 10.5294818,4.26776629 C11.7357148,2.7831526 13.8535198,2.57508048 15.3029473,3.79877828 Z M6.85602372,3.97361489 C5.47314863,3.97361489 4.35210687,5.14623731 4.35210687,6.59274038 C4.35210687,8.03924344 5.47314863,9.21186586 6.85602372,9.21186586 C8.23889881,9.21186586 9.35994056,8.03924344 9.35994056,6.59274038 C9.35994056,5.14623731 8.23889881,3.97361489 6.85602372,3.97361489 Z"/>
</svg>
