<svg width="20" height="20" viewBox="0 0 20 20" fill="none"><path fill-rule="evenodd" clip-rule="evenodd" d="M6 8.5a.5.5 0 0 1 .5-.5h4a.5.5 0 0 1 0 1h-4a.5.5 0 0 1-.5-.5Zm0 3a.5.5 0 0 1 .5-.5h2a.5.5 0 0 1 0 1h-2a.5.5 0 0 1-.5-.5Zm0 3a.5.5 0 0 1 .5-.5h2a.5.5 0 0 1 0 1h-2a.5.5 0 0 1-.5-.5Z" fill="#606B85"/><path fill-rule="evenodd" clip-rule="evenodd" d="M9.5 3a2 2 0 0 0-2 2 .5.5 0 0 1-.5.5H4.5A.5.5 0 0 0 4 6v10.5a.5.5 0 0 0 .5.5h5a.5.5 0 0 1 0 1h-5A1.5 1.5 0 0 1 3 16.5V6a1.5 1.5 0 0 1 1.5-1.5h2.042a3 3 0 0 1 5.916 0H14.5A1.5 1.5 0 0 1 16 6v1.5a.5.5 0 0 1-1 0V6a.5.5 0 0 0-.5-.5H12a.5.5 0 0 1-.5-.5 2 2 0 0 0-.586-1.414M9.5 3a2 2 0 0 1 1.414.586L9.5 3Z" fill="#606B85"/><path fill-rule="evenodd" clip-rule="evenodd" d="M10 13.5a4.5 4.5 0 1 1 9 0 4.5 4.5 0 0 1-9 0Zm4.5-3.5a3.5 3.5 0 1 0 0 7 3.5 3.5 0 0 0 0-7ZM8.75 4.757a.75.75 0 1 1 1.5 0 .75.75 0 0 1-1.5 0Z" fill="#606B85"/><path fill-rule="evenodd" clip-rule="evenodd" d="M16.58 11.937a.5.5 0 0 1 .1.7l-1.936 2.582c-.086.114-.196.21-.322.278m2.159-3.56a.5.5 0 0 0-.7.1l.7-.1Zm-.7.1-1.937 2.582 1.937-2.582Zm-1.937 2.582-1-1a.5.5 0 0 0-.708.707l1 1a1.002 1.002 0 0 0 1.186.171" fill="#606B85"/><path d="m16.58 11.937-.7.1-1.936 2.582-1-1a.5.5 0 0 0-.708.707l1 1a1.002 1.002 0 0 0 1.186.171l2.159-3.56Z" fill="#606B85"/></svg>