<svg xmlns="http://www.w3.org/2000/svg" width="24" height="24" viewBox="0 0 24 24">
  <path fill="#707578" fill-rule="evenodd" d="M11.991016,6.5 C14.7372117,6.53164379 16.9584877,8.74495179 17,11.491016 C17.0177699,13.2838207 16.060308,14.9447827 14.5,15.827904 L14.5,15.827904 L14.5,17 C14.4990961,17.8280524 13.8280524,18.4990961 13,18.5 L13,18.5 L12.5,18.5 L12.5,19.5 C12.5,19.7761424 12.2761424,20 12,20 C11.7238576,20 11.5,19.7761424 11.5,19.5 L11.5,19.5 L11.5,18.5 L11,18.5 C10.1719476,18.4990961 9.50090386,17.8280524 9.5,17 L9.5,17 L9.5,15.828 C7.94127263,14.9459274 6.98403618,13.2874134 7,11.496484 C7.0364142,8.75434992 9.24892343,6.53941673 11.991016,6.5 Z M13.5,16 L10.5,16 L10.5,17 C10.5002558,17.2760363 10.7239637,17.4997442 11,17.5 L11,17.5 L13,17.5 C13.2760363,17.4997442 13.4997442,17.2760363 13.5,17 L13.5,17 L13.5,16 Z M11.991016,7.5 C9.79532989,7.53904828 8.02790142,9.31547195 8,11.511328 C7.98693255,12.9673527 8.78186437,14.3106905 10.064452,15 L10.064452,15 L11.5,15 L11.5,13.207032 L10.146484,11.853516 C10.01979,11.7272961 9.97016532,11.5430156 10.0163439,11.370243 C10.0625225,11.1974705 10.1974705,11.0625225 10.370243,11.0163439 C10.5430156,10.9701653 10.7272961,11.01979 10.853516,11.146484 L10.853516,11.146484 L12,12.292968 L13.146484,11.146484 C13.3418323,10.9518667 13.6578709,10.9521629 13.852854,11.147146 C14.0478371,11.3421291 14.0481333,11.6581677 13.853516,11.853516 L13.853516,11.853516 L12.5,13.207032 L12.5,15 L13.935548,15 C15.2195142,14.309778 16.0146464,12.9642961 16,11.50664 C15.9675659,9.30649855 14.191176,7.53114737 11.991016,7.5 Z M6,11 C6.27614237,11 6.5,11.2238576 6.5,11.5 C6.5,11.7761424 6.27614237,12 6,12 L6,12 L5,12 C4.72385763,12 4.5,11.7761424 4.5,11.5 C4.5,11.2238576 4.72385763,11 5,11 L5,11 Z M19,11 C19.2761424,11 19.5,11.2238576 19.5,11.5 C19.5,11.7761424 19.2761424,12 19,12 L19,12 L18,12 C17.7238576,12 17.5,11.7761424 17.5,11.5 C17.5,11.2238576 17.7238576,11 18,11 L18,11 Z M6.14046509,6.15448957 C6.33144305,5.95575969 6.64721754,5.94903398 6.846484,6.139452 L6.846484,6.139452 L7.579884,6.84414 C7.77898285,7.03550997 7.78527731,7.35203792 7.593944,7.551172 C7.40256121,7.75023649 7.08606374,7.75653217 6.886916,7.565236 L6.886916,7.565236 L6.153516,6.860548 C5.95532429,6.66901161 5.94948713,6.35321944 6.14046509,6.15448957 Z M17.5099487,5.99985625 C17.6425815,6.00249453 17.7687188,6.05777766 17.860548,6.153516 C18.051878,6.35265204 18.0455818,6.66917819 17.846484,6.860548 L17.846484,6.860548 L17.113084,7.565236 C16.9138175,7.75565402 16.598043,7.74892831 16.4070651,7.55019843 C16.2160871,7.35146856 16.2219243,7.03567639 16.420116,6.84414 L16.420116,6.84414 L17.153516,6.139452 C17.2490798,6.0474412 17.3773158,5.99721797 17.5099487,5.99985625 Z M12,4 C12.2761424,4 12.5,4.22385763 12.5,4.5 L12.5,4.5 L12.5,5.5 C12.5,5.63261117 12.4473342,5.75979368 12.3535639,5.85356394 C12.2597937,5.9473342 12.1326112,6 12,6 C11.8673888,6 11.7402063,5.9473342 11.6464361,5.85356394 C11.5526658,5.75979368 11.5,5.63261117 11.5,5.5 L11.5,5.5 L11.5,4.5 C11.5,4.22385763 11.7238576,4 12,4 Z"/>
</svg>
