<svg xmlns="http://www.w3.org/2000/svg" width="20" height="20" viewBox="0 0 20 20">
  <path fill="#707578" fill-rule="evenodd" d="M12.9910868,5.15821129 L16.4359247,6.32955218 C16.63309,6.14123242 16.883467,6.02076319 17.1582465,6.00262458 L17.2857143,6.00159563 L18.5,6.00159563 C18.7761424,6.00159563 19,6.22564678 19,6.50202787 C19,6.74769994 18.8231248,6.95202491 18.5898756,6.99439746 L18.5,7.0024601 L17.2614832,7.0018721 C17.1591745,6.99690387 17.0462286,7.10138921 17.0108292,7.25949263 L17,7.34275401 L16.9996224,13.1483394 C17.0071954,13.3432504 17.1106328,13.4771775 17.2325555,13.5035147 L17.2857143,13.5080791 L18.5,13.5080791 C18.7761424,13.5080791 19,13.7321302 19,14.0085113 C19,14.2541834 18.8231248,14.4585084 18.5898756,14.5008809 L18.5,14.5089436 L17.3088464,14.5084077 C16.9564746,14.5247415 16.6393365,14.3841115 16.4053787,14.1448823 L16.3921196,14.1500402 L16.3921196,14.1500402 L16.3053531,14.1748428 L12.7755114,14.8499267 C12.7263219,14.8593342 12.6774396,14.8611808 12.6300617,14.8562802 L12.489,14.8582453 L12.473327,14.926243 L12.4107383,15.1075637 C12.0754406,15.9465327 11.2417683,16.4365737 10.3874635,16.3728165 L10.307,16.3635454 L10.3044732,16.4350899 C10.2671966,16.8207407 10.1013629,17.1828407 9.833724,17.4635246 L9.71286663,17.5786644 C9.02968961,18.1685815 8.01675676,18.1297968 7.386335,17.5203032 L7.27919978,17.406833 L4.212,13.9934984 L4.01588993,13.9979448 L3.94781393,13.9933538 C3.71033374,14.2906401 3.35526019,14.4855476 2.96279243,14.507879 L2.83333333,14.5089436 L1.5,14.5089436 C1.22385763,14.5089436 1,14.2848924 1,14.0085113 C1,13.7628393 1.17687516,13.5585143 1.41012437,13.5161417 L1.5,13.5080791 L2.85316648,13.508473 C3.03767074,13.5158036 3.19623816,13.3925586 3.23901718,13.2364273 L3.25,13.1677852 L3.25051378,7.3654346 C3.24219107,7.18182961 3.10563262,7.03461128 2.91709516,7.00681778 L2.83333333,7.0024601 L1.5,7.0024601 C1.22385763,7.0024601 1,6.77840895 1,6.50202787 C1,6.22564678 1.22385763,6.00159563 1.5,6.00159563 L2.81255734,6.00202784 C3.37204478,5.97873981 3.86772525,6.29171232 4.10436321,6.77093711 L6.14309917,5.95457536 C6.42963036,5.83893871 6.73509077,5.77972841 7.04416667,5.77972841 C7.49706858,5.77972841 7.93922137,5.90643994 8.33614376,6.15515033 L8.50338362,6.26919607 L8.603,6.351 L10.8991024,5.28527813 C11.5536848,4.95487524 12.3143644,4.91005374 12.9910868,5.15821129 Z M7.04416667,6.78059287 C6.86312994,6.78059287 6.68463678,6.8151919 6.5157427,6.88335102 L4.25,7.789 L4.249,12.992 L4.42133313,12.9884782 C4.53765043,12.9860716 4.65019431,13.0243096 4.74034425,13.0951166 L4.80346689,13.1542024 L8.02957836,16.7453329 C8.29273031,17.0506137 8.7543165,17.0844914 9.05927317,16.8211644 C9.1933887,16.7051338 9.27983031,16.5458899 9.30491875,16.3733893 L9.3125,16.2685378 L9.312,15.912 L8.56244661,15.1608845 C8.36718446,14.9654535 8.36718446,14.6485973 8.56244661,14.4531664 C8.73601296,14.27945 9.00543736,14.2601482 9.2003055,14.3952609 L9.26955339,14.4531664 L10.093,15.277 L10.1588005,15.3039584 C10.6806799,15.5131367 11.2732024,15.2589518 11.4822617,14.7358519 C11.5066317,14.674874 11.5249915,14.6114948 11.5371254,14.5468395 L10.3554466,13.365417 C10.1601845,13.1699861 10.1601845,12.8531299 10.3554466,12.657699 C10.529013,12.4839826 10.7984374,12.4646807 10.9933055,12.5997935 L11.0625534,12.657699 L12.261,13.857 L12.5023001,13.8579561 C12.970029,13.8573789 13.3482461,13.4784801 13.347676,13.0106405 C13.347676,12.8648266 13.3098045,12.7220526 13.2416218,12.5997265 L13.1849196,12.5120879 L10.523,9.099 L9.0044856,9.60238296 C8.25360484,9.84973901 7.43732858,9.49431732 7.10699576,8.77774498 C6.79538566,8.10808679 6.99626641,7.32758212 7.56475572,6.8807422 C7.40116215,6.81461159 7.22415822,6.78059287 7.04416667,6.78059287 Z M11.4954115,6.11482369 L11.3347865,6.18600934 L8.27131802,7.60907402 C7.99847131,7.7475659 7.88441223,8.07777033 8.01425471,8.35681274 C8.11932799,8.58473985 8.361098,8.71025276 8.60147781,8.67341603 L8.69128537,8.65187506 L10.5457101,8.03856407 C10.5483962,8.03768191 10.5510875,8.03682348 10.5537838,8.03598873 L11.8702854,7.60046694 C12.132483,7.51374889 12.4152743,7.65618691 12.5019174,7.91861116 C12.5789335,8.15187716 12.4750445,8.4014288 12.2668574,8.51490974 L12.184048,8.55078922 L11.532,8.766 L13.9794613,11.9044397 C14.2184148,12.2241589 14.347677,12.6119312 14.347677,13.0100297 C14.3479039,13.1963406 14.3205579,13.3762123 14.2694892,13.5457921 L16.003,13.213 L16,13.1677852 L16.0003776,7.32330821 L16.007,7.241 L12.6582432,6.10193624 C12.2839527,5.96476226 11.8748725,5.96896294 11.4954115,6.11482369 Z"/>
</svg>
