<svg xmlns="http://www.w3.org/2000/svg" width="24" height="24" viewBox="0 0 24 24">
  <path fill="#707578" fill-rule="evenodd" d="M19.465887,13.6780335 C19.7604081,13.6780335 19.9991646,13.4397609 19.9991646,13.1458368 C19.9991646,12.8519126 19.7604081,12.61364 19.465887,12.61364 L18.3993317,12.61364 C18.3989366,11.9922545 18.3073134,11.3742795 18.1273814,10.7794049 C18.5434161,10.5873191 18.996236,10.4875357 19.454637,10.4869308 L19.465887,10.4869308 C19.7604081,10.4873905 19.999538,10.2494906 20.0000007,9.95556645 C20.0004593,9.66164231 19.7620762,9.42299706 19.4675551,9.42253736 L19.454637,9.42253736 C18.8605696,9.42246459 18.2731269,9.54706944 17.7304437,9.78826296 C17.7245051,9.77634175 17.7190401,9.76412251 17.7130247,9.75221834 C17.7106271,9.74642378 17.707581,9.74135727 17.7050042,9.73563934 C17.1838215,8.71186051 16.3970832,7.84628686 15.4267525,7.22909493 C16.6290462,6.36778774 16.7711668,5.36845852 16.7711668,3.53219673 C16.7711668,3.23827259 16.5324103,3 16.2378892,3 C15.943368,3 15.7046115,3.23827259 15.7046115,3.53219673 C15.7046115,5.43703527 15.578758,5.990175 14.31864,6.66771253 C12.8173841,6.07628737 11.1462515,6.08063965 9.64810908,6.67987642 C8.36699274,5.99682533 8.23872453,5.44833487 8.23872453,3.53223505 C8.23872453,3.23831091 7.999968,3 7.70544689,3 C7.41092578,3 7.17216925,3.23831091 7.17216925,3.53223505 C7.17216925,5.38161868 7.31676428,6.38198249 8.54299143,7.24750468 C7.58627738,7.86378169 6.81055782,8.72237325 6.29502139,9.73563083 C6.29241899,9.7413743 6.28934731,9.74644081 6.2869497,9.75229071 C6.28093433,9.76421192 6.27549489,9.77638007 6.26955631,9.78830553 C5.72687208,9.54711505 5.13943002,9.42251034 4.54536304,9.42257994 L4.53244493,9.42257994 C4.23792382,9.42303964 3.9995407,9.66168489 4.00000066,9.95560902 C4.00046196,10.2495332 4.23959191,10.4874331 4.53411302,10.4869734 C4.53785136,10.487391 4.54162471,10.487391 4.54536304,10.4869734 C5.00376402,10.4875783 5.45658387,10.5873617 5.87261857,10.7794474 C5.69269073,11.3743084 5.60106759,11.9922687 5.6006683,12.61364 L4.53411302,12.61364 C4.23959191,12.61364 4.00083538,12.8519126 4.00083538,13.1458368 C4.00083538,13.4397609 4.23959191,13.6780335 4.53411302,13.6780335 L5.69701237,13.6780335 C5.84111982,14.5354794 6.16036395,15.3541934 6.63491123,16.0833115 C6.05406866,16.5904306 5.30877771,16.8703401 4.53703111,16.8712139 L4.53411302,16.8712139 C4.23959191,16.8710963 4.00073989,17.1092736 4.00062208,17.4031977 C4.00050427,17.6971219 4.23916529,17.9354898 4.5336864,17.9356073 L4.53702258,17.9356073 C5.54596093,17.9339099 6.52148086,17.5745461 7.28954579,16.9216278 C8.4964268,18.2454045 10.2066505,19 12.0000007,19 C13.7933324,19 15.5035561,18.2454045 16.7104371,16.9216278 C17.4785043,17.574548 18.4540276,17.9339119 19.4629689,17.9356073 L19.4663136,17.9356073 C19.7608347,17.9354898 19.9994957,17.6971219 19.9993779,17.4031977 C19.9992601,17.1092736 19.7604081,16.8710963 19.465887,16.8712139 L19.4629689,16.8712139 C18.6912223,16.8703401 17.9459313,16.5904306 17.3650888,16.0833115 C17.839636,15.3541934 18.1588802,14.5354794 18.3029876,13.6780335 L19.465887,13.6780335 Z M12,7.29167275 C12.6908728,7.29174062 13.3750676,7.42660858 14.014083,7.68868725 C14.0751782,7.73375491 14.1452858,7.7651574 14.2196338,7.78075728 C15.0238226,8.15094278 15.7235111,8.71431316 16.2560931,9.42045967 L7.74390688,9.42045967 C8.74778606,8.08188687 10.3246391,7.29318602 12,7.29167275 L12,7.29167275 Z M6.66722358,12.61364 C6.66722358,11.8806994 6.81990781,11.155763 7.11560343,10.4848531 L11.4667224,10.4848531 L11.4667224,17.9086782 C8.74344644,17.6322081 6.67066882,15.34542 6.66722358,12.61364 L6.66722358,12.61364 Z M12.5332776,17.9086782 L12.5332776,10.4848531 L16.8844392,10.4848531 C17.5691321,12.0431322 17.4649059,13.8343579 16.6040812,15.303072 C15.7432565,16.7717861 14.2298905,17.7404488 12.5332776,17.9086782 Z"/>
</svg>
