<svg xmlns="http://www.w3.org/2000/svg" width="20" height="20" viewBox="0 0 20 20">
  <path fill="#707578" fill-rule="evenodd" d="M8.26105095,1.72552109 C8.48096694,1.67687075 8.71108047,1.73058377 8.88673218,1.87156737 C9.06241825,2.01257856 9.16470588,2.22568108 9.16470588,2.45098039 L9.16470588,2.45098039 L9.16423529,3.07997146 L13.9117647,3.08039216 C14.2879861,3.08039216 14.59891,3.35996424 14.648118,3.72269009 L14.654902,3.82352941 L14.654902,4.85294118 C14.654902,5.07385508 14.4758159,5.25294118 14.254902,5.25294118 C14.0616023,5.25294118 13.900327,5.11582838 13.8630285,4.93355513 L13.854902,4.85294118 L13.854,3.88 L9.16423529,3.87997146 L9.16423529,16.1189715 L13.854,16.119 L13.854902,15.1614706 C13.854902,14.9681709 13.9920148,14.8068957 14.174288,14.7695972 L14.254902,14.7614706 C14.4482016,14.7614706 14.6094769,14.8985834 14.6467754,15.0808566 L14.654902,15.1614706 L14.654902,16.1764706 C14.654902,16.552692 14.3753299,16.8636159 14.012604,16.9128239 L13.9117647,16.9196078 L9.16423529,16.9189715 L9.16470588,17.5490196 C9.16470588,17.736769 9.0936728,17.9160485 8.96832493,18.0521967 L8.88673218,18.1284326 C8.71108047,18.2694162 8.48096694,18.3231292 8.26071497,18.2744044 L8.26071497,18.2744044 L2.77085493,17.0549691 C2.43061775,16.9797011 2.1883724,16.6781304 2.18823529,16.3295098 L2.18823529,16.3295098 L2.18823529,3.67101912 C2.1883724,3.32255592 2.43061775,3.02098519 2.77047238,2.94580198 L2.77047238,2.94580198 Z M8.364,2.522 L2.988,3.716 L2.988,16.283 L8.364,17.478 L8.364,2.522 Z M13.9117647,5.8254902 C15.2154166,5.8254902 16.2821086,6.84003613 16.3653581,8.1226454 L16.3705882,8.28431373 L16.3702353,8.56997146 L17,8.57058824 C17.1932997,8.57058824 17.3545749,8.70770103 17.3918734,8.88997428 L17.4,8.97058824 L17.4,13.7745098 C17.4,13.9954237 17.2209139,14.1745098 17,14.1745098 L17,14.1745098 L10.8235294,14.1745098 C10.6026155,14.1745098 10.4235294,13.9954237 10.4235294,13.7745098 L10.4235294,13.7745098 L10.4235294,8.97058824 C10.4235294,8.74967434 10.6026155,8.57058824 10.8235294,8.57058824 L10.8235294,8.57058824 L11.4522353,8.56997146 L11.4529412,8.28431373 C11.4529412,6.92634299 12.553794,5.8254902 13.9117647,5.8254902 Z M16.599,9.37 L11.223,9.37 L11.223,13.374 L16.599,13.374 L16.599,9.37 Z M13.9117647,10.1147059 L14.0044761,10.1221868 C14.2760543,10.1664836 14.4833333,10.4021727 14.4833333,10.6862745 C14.4833333,10.846022 14.417798,10.9904628 14.3121462,11.0941783 L14.3117647,12.4019608 C14.3117647,12.6228747 14.1326786,12.8019608 13.9117647,12.8019608 C13.718465,12.8019608 13.5571898,12.664848 13.5198913,12.4825747 L13.5117647,12.4019608 L13.5113832,11.0941783 C13.4057314,10.9904628 13.3401961,10.846022 13.3401961,10.6862745 C13.3401961,10.4021727 13.5474751,10.1664836 13.8190533,10.1221868 L13.9117647,10.1147059 Z M5.78359123,8.69315133 C6.19825222,8.50930666 6.6794156,8.53228724 7.07745099,8.76209308 C7.51971253,9.01743291 7.79215686,9.48932036 7.79215686,10 C7.79215686,10.5106796 7.51971253,10.9825671 7.07745099,11.2379069 C6.63518945,11.4932467 6.09030075,11.4932467 5.64803921,11.2379069 C5.20577767,10.9825671 4.93333333,10.5106796 4.93333333,10 C4.93333333,9.48932036 5.20577767,9.01743291 5.64803921,8.76209308 L5.64803921,8.76209308 Z M6.67745098,9.4549134 C6.4827103,9.34247982 6.24277989,9.34247982 6.04803921,9.4549134 C5.85329854,9.56734699 5.73333333,9.77513282 5.73333333,10 C5.73333333,10.2248672 5.85329854,10.432653 6.04803921,10.5450866 C6.24277989,10.6575202 6.4827103,10.6575202 6.67745098,10.5450866 C6.87219166,10.432653 6.99215686,10.2248672 6.99215686,10 C6.99215686,9.77513282 6.87219166,9.56734699 6.67745098,9.4549134 Z M13.9117647,6.6254902 C13.0438398,6.6254902 12.3315986,7.29205117 12.25903,8.14118408 L12.2529412,8.28431373 L12.2522353,8.56997146 L15.5702353,8.56997146 L15.5705882,8.28431373 C15.5705882,7.36817079 14.8279076,6.6254902 13.9117647,6.6254902 Z"/>
</svg>
