<svg xmlns="http://www.w3.org/2000/svg" width="24" height="24" viewBox="0 0 24 24">
  <path fill="#707578" fill-rule="evenodd" d="M7.885,18.9998167 C7.75227525,19.0025216 7.62065634,18.9752669 7.5,18.9200937 C7.19066825,18.7752854 6.99506737,18.463408 7,18.1228647 L7,15.9653635 L5.25,15.9653635 C4.55964406,15.9653635 4,15.4076578 4,14.719693 L4,7.24567043 C4,6.55770565 4.55964406,6 5.25,6 L18.75,6 C19.4403559,6 20,6.55770565 20,7.24567043 L20,14.719693 C20,15.4076578 19.4403559,15.9653635 18.75,15.9653635 L11.69,15.9653635 L8.455,18.7855613 C8.29665742,18.9223304 8.09453782,18.9983044 7.885,18.9998167 L7.885,18.9998167 Z M5.25,6.99653635 C5.11192881,6.99653635 5,7.10807748 5,7.24567043 L5,14.719693 C5,14.857286 5.11192881,14.9688271 5.25,14.9688271 L7.5,14.9688271 C7.63290149,14.9680614 7.76064058,15.0200558 7.855,15.1133249 C7.94859326,15.2073575 8.00076838,15.3346541 8,15.4670953 L8,17.8438345 L11.165,15.0884115 C11.2581731,15.0089606 11.3773962,14.9664018 11.5,14.9688271 L18.75,14.9688271 C18.8880712,14.9688271 19,14.857286 19,14.719693 L19,7.24567043 C19,7.10807748 18.8880712,6.99653635 18.75,6.99653635 L5.25,6.99653635 Z"/>
</svg>
