<svg xmlns="http://www.w3.org/2000/svg" width="24" height="24" viewBox="0 0 24 24">
  <path fill="#707578" fill-rule="evenodd" d="M17.75,12.5333333 C18.4403559,12.5333333 19,13.130287 19,13.8666667 L19,18.6666667 C19,19.4030463 18.4403559,20 17.75,20 L16.915,20 C16.5173093,19.9996266 16.1360347,19.8308106 15.855,19.5306667 L14.96,18.5813333 L13.795,19.8186667 C13.7026848,19.9191543 13.5768846,19.9766629 13.445,19.9786667 C13.2418675,19.9799267 13.05821,19.8499713 12.9803145,19.6498568 C12.9024191,19.4497423 12.94577,19.2192482 13.09,19.0666667 L14.255,17.824 L13.145,16.6453333 C12.9489389,16.4362015 12.9489389,16.0971318 13.145,15.888 C13.3410611,15.6788682 13.6589389,15.6788682 13.855,15.888 L16.56,18.7786667 C16.6543594,18.8784995 16.7820985,18.9341529 16.915,18.9333333 L17.75,18.9333333 C17.8880712,18.9333333 18,18.8139426 18,18.6666667 L18,13.8666667 C18,13.7193907 17.8880712,13.6 17.75,13.6 L6.25,13.6 C6.11192881,13.6 6,13.7193907 6,13.8666667 L6,18.6666667 C6,18.8139426 6.11192881,18.9333333 6.25,18.9333333 L7.085,18.9333333 C7.21790149,18.9341529 7.34564058,18.8784995 7.44,18.7786667 L10.145,15.888 C10.2718293,15.7527154 10.456687,15.6998808 10.629939,15.7493984 C10.803191,15.798916 10.9385163,15.9432629 10.984939,16.128065 C11.0313618,16.3128672 10.9818293,16.5100488 10.855,16.6453333 L9.745,17.824 L10.895,19.0506667 C11.0356643,19.2037364 11.0767525,19.4317576 10.9993105,19.6295438 C10.9218685,19.82733 10.7409449,19.9564471 10.54,19.9573333 C10.4070985,19.9581529 10.2793594,19.9024995 10.185,19.8026667 L9.04,18.5813333 L8.145,19.5306667 C7.86396528,19.8308106 7.4826907,19.9996266 7.085,20 L6.25,20 C5.55964406,20 5,19.4030463 5,18.6666667 L5,13.8666667 C5,13.130287 5.55964406,12.5333333 6.25,12.5333333 L17.75,12.5333333 Z M12.5,4 C12.7761424,4 13,4.23878147 13,4.53333333 L13,4.53333333 L13,5.06666667 L17.75,5.06666667 C18.4403559,5.06666667 19,5.66362033 19,6.4 L19,6.4 L19,10.1333333 C19,10.869713 18.4403559,11.4666667 17.75,11.4666667 L17.75,11.4666667 L6.25,11.4666667 C5.55964406,11.4666667 5,10.869713 5,10.1333333 L5,10.1333333 L5,6.4 C5,5.66362033 5.55964406,5.06666667 6.25,5.06666667 L6.25,5.06666667 L11,5.06666667 L11,4.53333333 C11,4.23878147 11.2238576,4 11.5,4 L11.5,4 Z M17.75,6.13333333 L6.25,6.13333333 C6.11192881,6.13333333 6,6.25272407 6,6.4 L6,6.4 L6,10.1333333 C6,10.2806093 6.11192881,10.4 6.25,10.4 L6.25,10.4 L17.75,10.4 C17.8880712,10.4 18,10.2806093 18,10.1333333 L18,10.1333333 L18,6.4 C18,6.25272407 17.8880712,6.13333333 17.75,6.13333333 L17.75,6.13333333 Z M9,7.2 C9.55228475,7.2 10,7.67756293 10,8.26666667 C10,8.8557704 9.55228475,9.33333333 9,9.33333333 C8.44771525,9.33333333 8,8.8557704 8,8.26666667 C8,7.67756293 8.44771525,7.2 9,7.2 Z M15,7.2 C15.5522847,7.2 16,7.67756293 16,8.26666667 C16,8.8557704 15.5522847,9.33333333 15,9.33333333 C14.4477153,9.33333333 14,8.8557704 14,8.26666667 C14,7.67756293 14.4477153,7.2 15,7.2 Z"/>
</svg>
