<svg xmlns="http://www.w3.org/2000/svg" width="24" height="24" viewBox="0 0 24 24">
  <path fill="#707578" fill-rule="evenodd" d="M19.2375828,6 C19.4910372,6 19.6938008,6.1042654 19.8458734,6.31279621 C19.9979461,6.52132701 20.048637,6.78199052 19.9472552,7.04265403 L19.9472552,7.04265403 L17.0071838,16.3222749 C16.8551112,16.6350711 16.6016567,16.8957346 16.2468205,17 L16.2468205,17 L15.9933661,17 C15.7399117,17 15.4864572,16.8957346 15.2836937,16.6872038 L15.2836937,16.6872038 L13.5095127,14.8625592 L10.5187504,14.8625592 L10.0625324,16.2180095 C9.91045978,16.6350711 9.55562358,16.9478673 9.09940561,16.9478673 L9.09940561,16.9478673 L4.73998942,16.9478673 C4.48653499,16.9478673 4.28377144,16.8436019 4.13169878,16.6350711 C3.97962613,16.4265403 3.97962613,16.1658768 4.03031701,15.9052133 L4.03031701,15.9052133 L6.31140688,8.81516588 C6.46347954,8.39810427 6.86900663,8.08530806 7.27453371,8.08530806 L7.27453371,8.08530806 L9.40355092,8.08530806 L9.8597689,6.72985782 C10.0118416,6.31279621 10.3666778,6 10.8228957,6 L10.8228957,6 Z M18.8827466,7.04265403 L10.8228957,7.04265403 L8.64318763,13.8199052 L13.7122762,13.8199052 C13.8643489,13.8199052 13.9657307,13.8720379 14.0671124,13.9763033 L14.0671124,13.9763033 L15.9933661,15.957346 L18.8827466,7.04265403 Z M9.04871472,9.12796209 L7.27453371,9.12796209 L5.09482562,15.9052133 L8.74456941,15.9052133 L7.52798814,14.7061611 L7.47729726,14.6540284 C7.37591549,14.4976303 7.37591549,14.3412322 7.42660637,14.1848341 L7.42660637,14.1848341 L9.04871472,9.12796209 Z M11.9380952,9.02369668 C12.2929314,8.76303318 12.7998403,8.81516588 13.1039856,9.12796209 L13.1039856,9.12796209 L13.6615853,9.7535545 L14.269876,9.18009479 C14.5740213,8.86729858 15.0809302,8.81516588 15.4357664,9.07582938 C15.4864572,9.12796209 15.4864572,9.12796209 15.5371481,9.23222749 C15.8919843,9.5450237 15.8919843,10.1184834 15.5371481,10.4834123 L15.5371481,10.4834123 L13.9657307,12.0473934 C13.813658,12.2037915 13.5095127,12.2037915 13.35744,12.0473934 L13.35744,12.0473934 L11.8367135,10.3791469 C11.7860226,10.3791469 11.7860226,10.3270142 11.7353317,10.2748815 C11.4311864,9.85781991 11.5325681,9.28436019 11.9380952,9.02369668 Z"/>
</svg>
