<svg xmlns="http://www.w3.org/2000/svg" width="24" height="24" viewBox="0 0 24 24">
  <path fill="#707578" fill-rule="evenodd" d="M17.6813754,4.00000458 C18.2943432,4.00103498 18.8463575,4.36640043 19.0801148,4.92580231 C19.3138721,5.4852042 19.1833601,6.12853094 18.7494127,6.55591671 L18.7494127,6.55591671 L18.3935322,6.9056878 L19.5688839,8.06679858 C20.1474315,8.65171131 20.1431456,9.5868181 19.55926,10.1665383 C18.9753745,10.7462585 18.0281976,10.755827 17.4324175,10.1880239 L17.4324175,10.1880239 L16.2499632,9.02068311 L15.5362307,9.72567756 L16.7123742,10.8856117 C16.7218403,10.8953477 16.7309145,10.9050876 16.7395968,10.9152144 C17.3110865,11.5086185 17.2931265,12.4453383 16.6992993,13.0169672 C16.105472,13.588596 15.1564702,13.5826911 14.5699889,13.0037181 L14.5699889,13.0037181 L13.3954251,11.8406729 L11.7576663,13.4559337 C12.5123169,15.2129165 11.9001152,17.2514497 10.2973776,18.3184604 C8.69463991,19.3854711 6.55077342,19.1817698 5.18359878,17.8325704 C3.81642415,16.483371 3.60929664,14.3669885 4.68953618,12.7843493 C5.76977572,11.2017102 7.83448354,10.5965859 9.61449725,11.3409423 L9.61449725,11.3409423 L16.6082112,4.43701267 C16.8919127,4.15632487 17.277355,3.9990218 17.6790079,4.00000458 L17.6790079,4.00000458 Z M18.0358075,5.14461149 C17.8388743,4.94987734 17.5194933,4.94906948 17.3215518,5.14280482 L17.3215518,5.14280482 L10.0757205,12.2956166 C9.91812664,12.4518908 9.67506039,12.4869409 9.47877253,12.3816963 C8.1573716,11.6771796 6.51248754,12.0363189 5.61527179,13.225242 C4.71805603,14.4141652 4.84017138,16.0728849 5.9020961,17.1212401 C6.96402081,18.1695952 8.64422082,18.2901603 9.84854687,17.4044231 C11.0528729,16.5186859 11.4166741,14.8948338 10.7030423,13.590322 C10.5969633,13.3961899 10.6324023,13.1563542 10.7902368,13.0002282 L10.7902368,13.0002282 L13.0391487,10.7824054 C13.1340066,10.6891923 13.2623726,10.6368212 13.3962129,10.6367296 L13.3962129,10.6367296 L13.4761265,10.6429843 C13.5806497,10.6594986 13.6780046,10.7082151 13.753673,10.7831792 L13.753673,10.7831792 L15.2845133,12.2991185 C15.4122908,12.4249845 15.5983804,12.4739926 15.772684,12.4276818 C15.9469875,12.381371 16.0830241,12.246777 16.1295502,12.0746002 C16.1760763,11.9024234 16.1260233,11.7188214 15.9982458,11.5929554 C15.9907473,11.5851579 15.9832528,11.5769855 15.9757543,11.5688051 L15.9757543,11.5688051 L14.4646461,10.0789625 C14.2673734,9.8841592 14.2673734,9.56837652 14.4646461,9.37357321 L14.4646461,9.37357321 L15.892903,7.96318546 C16.0933556,7.77641948 16.4065748,7.77641948 16.6070274,7.96318546 L16.6070274,7.96318546 L18.1402352,9.47678749 C18.3416312,9.66313492 18.6574196,9.65479924 18.8484408,9.45809341 C19.0382189,9.26541215 19.0382189,8.95862716 18.8484408,8.7659459 L18.8484408,8.7659459 L17.3215518,7.25740926 C17.2268516,7.16369041 17.1737674,7.03665517 17.1739895,6.90427898 C17.1742115,6.7719028 17.2277215,6.6450418 17.3227355,6.55163306 L17.3227355,6.55163306 L18.036468,5.84973767 C18.2330362,5.6546443 18.2327408,5.33934565 18.0358075,5.14461149 Z M8.04459684,13.2611834 C9.02030578,13.2623504 9.8109794,14.0429154 9.81216148,15.0061501 C9.81216148,15.9698686 9.02079583,16.7511168 8.04459684,16.7511168 C7.06839785,16.7511168 6.27703221,15.9698686 6.27703221,15.0061501 C6.27703221,14.0424316 7.06839785,13.2611834 8.04459684,13.2611834 Z M8.04459684,14.2583072 C7.62622584,14.2583072 7.28706914,14.5931279 7.28706914,15.0061501 C7.28706914,15.4191723 7.62622584,15.7539929 8.04459684,15.7539929 C8.4628072,15.7536103 8.80173698,15.4190137 8.80212454,15.0061501 C8.80212454,14.5931279 8.46296784,14.2583072 8.04459684,14.2583072 Z"/>
</svg>
