<svg xmlns="http://www.w3.org/2000/svg" width="20" height="20" fill="none" viewBox="0 0 20 20">
  <path fill="#606B85" fill-rule="evenodd" d="M10 7.5a2.5 2.5 0 1 0 0 5 2.5 2.5 0 0 0 0-5ZM8.94 8.94a1.5 1.5 0 1 1 2.12 2.12 1.5 1.5 0 0 1-2.12-2.12Z" clip-rule="evenodd"/>
  <path fill="#606B85" fill-rule="evenodd" d="M10 2a.5.5 0 0 1 .5.5v2.023A5.5 5.5 0 0 1 15.477 9.5H17.5a.5.5 0 0 1 0 1h-2.023a5.5 5.5 0 0 1-4.977 4.977V17.5a.5.5 0 0 1-1 0v-2.023A5.5 5.5 0 0 1 4.523 10.5H2.5a.5.5 0 0 1 0-1h2.023A5.5 5.5 0 0 1 9.5 4.523V2.5A.5.5 0 0 1 10 2Zm4.5 8a4.5 4.5 0 1 0-9 0 4.5 4.5 0 0 0 9 0Z" clip-rule="evenodd"/>
</svg>
