<svg xmlns="http://www.w3.org/2000/svg" width="20" height="20" viewBox="0 0 20 20">
  <path fill="#707578" fill-rule="evenodd" d="M15.6568542,4.34314575 C18.7810486,7.46734008 18.7810486,12.5326599 15.6568542,15.6568542 C12.5326599,18.7810486 7.46734008,18.7810486 4.34314575,15.6568542 C1.21895142,12.5326599 1.21895142,7.46734008 4.34314575,4.34314575 C7.46734008,1.21895142 12.5326599,1.21895142 15.6568542,4.34314575 Z M6.31630954,8.43830364 L4.10302186,6.22556576 C2.63214203,8.51873063 2.63232607,11.4822978 4.10357399,13.7752949 L6.31672656,11.5626806 C5.89456353,10.5666968 5.89442453,9.43437717 6.31630954,8.43830364 Z M13.7744342,15.8969781 L11.5616964,13.6836905 C10.5659509,14.1054365 9.43404908,14.1054365 8.43830364,13.6836905 L6.22556576,15.8969781 C8.51844374,17.367674 11.4815563,17.367674 13.7744342,15.8969781 Z M12.1213203,7.87867966 C10.9497475,6.70710678 9.05025253,6.70710678 7.87867966,7.87867966 C6.70710678,9.05025253 6.70710678,10.9497475 7.87867966,12.1213203 C9.05025253,13.2928932 10.9497475,13.2928932 12.1213203,12.1213203 C13.2928932,10.9497475 13.2928932,9.05025253 12.1213203,7.87867966 Z M6.2247051,4.10357399 L8.43731943,6.31672656 C9.43363122,5.89442448 10.5663688,5.89442448 11.5626806,6.31672656 L13.7752949,4.10357399 C11.5610897,2.68288104 8.72160683,2.63389163 6.46427901,3.95660575 L6.2247051,4.10357399 Z M15.8969781,6.22556576 L13.6836905,8.43830364 C14.1055755,9.43437717 14.1054365,10.5666968 13.6832734,11.5626806 L15.896426,13.7752949 C17.3676739,11.4822978 17.367858,8.51873063 15.8969781,6.22556576 Z"/>
</svg>
