<svg xmlns="http://www.w3.org/2000/svg" width="20" height="20" viewBox="0 0 20 20">
  <path fill="#707578" fill-rule="evenodd" d="M7.0409635,10.8456787 C9.82501074,10.8456787 12.081927,13.1748214 12.081927,16.0479645 C12.081927,16.2976168 11.8858197,16.5 11.6439091,16.5 L11.6439091,16.5 L2.43801791,16.5 C2.1961073,16.5 2,16.2976168 2,16.0479645 C2,13.1748214 4.25691625,10.8456787 7.0409635,10.8456787 Z M15.9707852,11.8778658 C17.2467274,12.8595949 17.9988846,14.4051839 17.9999999,16.0476478 C18.0001482,16.2662017 17.8499841,16.4486184 17.6502992,16.4908077 L17.561982,16.5 L13.2878182,16.5 C13.0459076,16.5 12.8498003,16.2976168 12.8498003,16.0479645 C12.8498003,15.8295187 12.999945,15.6472634 13.1995423,15.6051128 L13.2878182,15.595929 L17.0991753,15.5953395 L17.0948944,15.5438309 C16.9704686,14.4622514 16.4518405,13.4653606 15.6397361,12.7601378 L15.4471636,12.6026659 C14.3928145,11.7914338 13.029323,11.5412948 11.7686552,11.927826 C11.5367626,11.9989262 11.2929258,11.8625622 11.2240304,11.6232485 C11.155135,11.3839348 11.2872704,11.1322947 11.519163,11.0611945 C13.044786,10.5934259 14.6948431,10.8961367 15.9707852,11.8778658 Z M7.0409635,11.7497497 C4.95638366,11.7497497 3.22949523,13.3302189 2.92402516,15.3933888 L2.92402516,15.3933888 L2.8975395,15.5953395 L11.1826483,15.5953395 L11.1579018,15.3933888 C10.8629652,13.4013627 9.24294893,11.8593215 7.25529012,11.7553425 L7.25529012,11.7553425 Z M7.0409635,3.5 C8.82631422,3.5 10.2736269,4.99363004 10.2736269,6.83611606 C10.2736269,8.67860209 8.82631422,10.1722321 7.0409635,10.1722321 C5.25561277,10.1722321 3.80830005,8.67860209 3.80830005,6.83611606 C3.80830005,4.99363004 5.25561277,3.5 7.0409635,3.5 Z M14.9910092,4.24172269 C16.3551763,5.37801351 16.5928566,7.42947139 15.5267331,8.86564401 C14.4606096,10.3018166 12.4794303,10.5990224 11.0592771,9.53407295 C10.9250417,9.43224675 10.7984263,9.32013413 10.6805046,9.19868586 C10.5092742,9.02233457 10.5089923,8.73612168 10.6798749,8.55941147 C10.8507576,8.38270126 11.128095,8.3824103 11.2993255,8.55876159 C11.3861204,8.64815222 11.4793142,8.73067145 11.5761762,8.80415597 C12.6099822,9.57938385 14.0541624,9.36273576 14.8313129,8.31583801 C15.6084634,7.26894027 15.4352064,5.77353044 14.4407971,4.94523147 C13.4463878,4.1169325 11.9934245,4.25777277 11.1658637,5.262681 C11.0092043,5.4529128 10.7327755,5.47606436 10.5484427,5.31439143 C10.36411,5.15271851 10.3416764,4.86744337 10.4983358,4.67721156 C11.633614,3.2986417 13.6268421,3.10543187 14.9910092,4.24172269 Z M7.0409635,4.40407097 C5.739434,4.40407097 4.68433588,5.49293465 4.68433588,6.83611606 C4.68433588,8.17929748 5.739434,9.26816116 7.0409635,9.26816116 C8.34249299,9.26816116 9.39759112,8.17929748 9.39759112,6.83611606 C9.39759112,5.49293465 8.34249299,4.40407097 7.0409635,4.40407097 Z"/>
</svg>
