<svg xmlns="http://www.w3.org/2000/svg" width="20" height="20" viewBox="0 0 20 20">
  <path fill="#707578" fill-rule="evenodd" d="M16.75,2 L8.25,2 C7.55994451,2.0007248 7.0007248,2.55994451 7,3.25 L7,7 L3.25,7 C2.55994451,7.0007248 2.0007248,7.55994451 2,8.25 L2,16.75 C2.00063676,17.440092 2.55990799,17.9993632 3.25,18 L11.75,18 C12.440092,17.9993632 12.9993632,17.440092 13,16.75 L13,13 L16.75,13 C17.440092,12.9993632 17.9993632,12.440092 18,11.75 L18,3.25 C17.9992752,2.55994451 17.4400555,2.0007248 16.75,2 Z M12,16.75 C11.9997249,16.8879571 11.8879571,16.9997249 11.75,17 L3.25,17 C3.11204292,16.9997249 3.00027509,16.8879571 3,16.75 L3,8.25 C3.00017905,8.11200304 3.11200304,8.00017905 3.25,8 L7,8 L7,11.75 C7.00063676,12.440092 7.55990799,12.9993632 8.25,13 L12,13 L12,16.75 Z M12,12 L8.25,12 C8.11204292,11.9997249 8.00027509,11.8879571 8,11.75 L8,8 L11.75,8 C11.887997,8.00017905 11.999821,8.11200304 12,8.25 L12,12 Z M17,11.75 C16.9997249,11.8879571 16.8879571,11.9997249 16.75,12 L13,12 L13,8.25 C12.9992752,7.55994451 12.4400555,7.0007248 11.75,7 L8,7 L8,3.25 C8.00017905,3.11200304 8.11200304,3.00017905 8.25,3 L16.75,3 C16.887997,3.00017905 16.999821,3.11200304 17,3.25 L17,11.75 Z"/>
</svg>
