<svg xmlns="http://www.w3.org/2000/svg" width="20" height="20" viewBox="0 0 20 20">
  <path fill="#707578" fill-rule="evenodd" d="M12.8800139,2 L13.0270274,2.00485143 C13.3678481,2.03287451 13.6905643,2.17679061 13.9400061,2.415 L13.9400061,2.415 L15.5599942,4.035 C15.8426047,4.31725862 16.0009698,4.70057693 15.9999955,5.1 L15.9999955,5.1 L15.9999955,16.75 C15.9999955,17.4403559 15.4403511,18 14.7500002,18 L14.7500002,18 L5.25006977,18 C4.91681169,18 4.59734673,17.8669428 4.36263839,17.630355 C4.12793005,17.3937673 3.99741286,17.0732499 4.00003887,16.74 L4.00003887,16.74 L4.00003887,3.24 C4.00826515,2.55469075 4.56472189,2.00268162 5.25006977,2 L5.25006977,2 L12.8800139,2 Z M12.8800139,3 L5.25006977,3 C5.1119996,3 5.0000716,3.11192881 5.0000716,3.25 L5.0000716,3.25 L5.0000716,16.75 C5.0000716,16.8880712 5.1119996,17 5.25006977,17 L5.25006977,17 L14.7500002,17 C14.8880704,17 14.9999983,16.8880712 14.9999983,16.75 L14.9999983,16.75 L14.9999983,5.1 C14.9943747,4.97579806 14.9426797,4.85814647 14.8549994,4.77 L14.8549994,4.77 L13.2350113,3.15 C13.1414762,3.05457218 13.0136358,3.00055471 12.8800139,3 L12.8800139,3 Z M12.5000167,7 C13.3284377,7 14.0000057,7.67157288 14.0000057,8.5 L14.0000057,8.5 L14.0000057,14.5 C14.0000057,15.3284271 13.3284377,16 12.5000167,16 L12.5000167,16 L7.50005329,16 C6.67163223,16 6.00006428,15.3284271 6.00006428,14.5 L6.00006428,14.5 L6.00006428,8.5 C6.00006428,7.67157288 6.67163223,7 7.50005329,7 L7.50005329,7 Z M7.00005695,10.805 L7.00005695,14.5 C7.00005695,14.7761424 7.22391294,15 7.50005695,15 L7.50005695,15 L11.1950262,15 L7.00005695,10.805 Z M7.91505025,8 L7.50005695,8 C7.22391294,8 7.00005695,8.22385763 7.00005695,8.5 L7.00005695,8.5 L7.00005695,9.39 L12.595016,15 C12.8335683,14.9538754 13.0044312,14.7429321 13.000013,14.5 L13.000013,14.5 L13.000013,13.085 L7.91505025,8 Z M12.5000167,8 L9.32503992,8 L13.000013,11.675 L13.000013,8.5 C13.000013,8.22385763 12.776157,8 12.5000167,8 L12.5000167,8 Z"/>
</svg>
