<svg xmlns="http://www.w3.org/2000/svg" width="20" height="20" viewBox="0 0 20 20">
  <path fill="#707578" fill-rule="evenodd" d="M18.4375,7.27272727 C18.5866876,7.27272727 18.7297679,7.33018088 18.8352594,7.43247571 C18.940751,7.53477053 19,7.67351509 19,7.81818182 L19,7.81818182 L19,14.3636364 C18.9989832,15.2669663 18.244059,15.999014 17.3125,16 L17.3125,16 L4.9375,16 C4.62683983,16 4.375,15.7557917 4.375,15.4545455 C4.375,15.1532992 4.62683983,14.9090909 4.9375,14.9090909 L4.9375,14.9090909 L17.3125,14.9090909 C17.6230409,14.9088118 17.8747122,14.6647669 17.875,14.3636364 L17.875,14.3636364 L17.875,7.81818182 C17.8749893,7.67351509 17.934249,7.53477053 18.0397406,7.43247571 C18.1452321,7.33018088 18.2883124,7.27272727 18.4375,7.27272727 Z M15.0625,4 C15.994059,4.00098602 16.7489832,4.73303369 16.75,5.63636364 L16.75,5.63636364 L16.75,12.1818182 C16.7489832,13.0851481 15.994059,13.8171958 15.0625,13.8181818 L15.0625,13.8181818 L2.6875,13.8181818 C1.755941,13.8171958 1.00101684,13.0851481 1,12.1818182 L1,12.1818182 L1,5.63636364 C1.00101684,4.73303369 1.755941,4.00098602 2.6875,4 L2.6875,4 Z M15.0625,5.09090909 L2.6875,5.09090909 C2.37695911,5.09118815 2.12528778,5.33523308 2.125,5.63636364 L2.125,5.63636364 L2.125,12.1818182 C2.12528778,12.4829487 2.37695911,12.7269937 2.6875,12.7272727 L2.6875,12.7272727 L15.0625,12.7272727 C15.3730409,12.7269937 15.6247122,12.4829487 15.625,12.1818182 L15.625,12.1818182 L15.625,5.63636364 C15.6247122,5.33523308 15.3730409,5.09118815 15.0625,5.09090909 L15.0625,5.09090909 Z M13.65625,10 C14.1219967,10.0005698 14.4994124,10.3665487 14.5,10.8181818 C14.5,11.2700512 14.1222403,11.6363636 13.65625,11.6363636 C13.1902597,11.6363636 12.8125,11.2700512 12.8125,10.8181818 C12.8125,10.3663125 13.1902597,10 13.65625,10 Z M8.875,6.18181818 C10.4275812,6.18350155 11.685764,7.4035576 11.6875,8.90909091 C11.6875,10.415322 10.4283009,11.6363636 8.875,11.6363636 C7.32169914,11.6363636 6.0625,10.415322 6.0625,8.90909091 C6.0625,7.40285977 7.32169914,6.18181818 8.875,6.18181818 Z M8.875,7.27272727 C7.94301948,7.27272727 7.1875,8.00535223 7.1875,8.90909091 C7.1875,9.81282959 7.94301948,10.5454545 8.875,10.5454545 C9.806559,10.5444685 10.5614832,9.81242085 10.5625,8.90909091 C10.5625,8.00535223 9.80698052,7.27272727 8.875,7.27272727 Z M4.09375,6.18181818 C4.55949665,6.18238797 4.93691241,6.54836688 4.9375,7 C4.9375,7.45186934 4.55974026,7.81818182 4.09375,7.81818182 C3.62775974,7.81818182 3.25,7.45186934 3.25,7 C3.25,6.54813066 3.62775974,6.18181818 4.09375,6.18181818 Z"/>
</svg>
