<svg xmlns="http://www.w3.org/2000/svg" width="20" height="20" viewBox="0 0 20 20">
  <path fill="#707578" fill-rule="evenodd" d="M6.00813816,9.94478964 C7.67758394,9.94436127 9.15996533,10.9688112 9.7637858,12.4967472 L9.7637858,12.4967472 L9.79882217,12.5928518 L14.6269088,12.5930221 C14.7010498,12.5930221 14.7730702,12.6143623 14.8346962,12.6537415 L14.8346962,12.6537415 L14.8925509,12.6990114 L15.8935826,13.6490647 C16.0485252,13.7961166 16.0545215,14.0410663 15.9069597,14.1955235 L15.9069597,14.1955235 L14.9151968,15.2336305 C14.8428209,15.3093885 14.742751,15.3524598 14.6379784,15.3529487 L14.6379784,15.3529487 L13.7985229,15.3557903 L13.2514058,15.8818459 C13.1239151,16.0040832 12.933385,16.021976 12.7874357,15.9352555 L12.7874357,15.9352555 L12.7186744,15.8831763 L12.1642988,15.356755 L11.8121785,15.356755 L11.262241,15.8861735 C11.131306,16.0120021 10.9338083,16.0274958 10.7864827,15.9328061 L10.7864827,15.9328061 L10.7267553,15.8854793 L10.176025,15.3538609 L9.8084693,15.3538609 L9.77340126,15.4510126 C9.09882122,17.1640013 7.33290689,18.2116361 5.49187353,17.9634541 L5.49187353,17.9634541 L5.2943788,17.931876 C3.2515864,17.5537374 1.83167045,15.6837409 2.01609097,13.6144467 C2.2005115,11.5451525 3.92873957,9.95572625 6.00813816,9.94478964 Z M6.0084642,10.7164847 L5.83146228,10.7223439 C4.23272846,10.8176596 2.9285687,12.0699616 2.78481462,13.6829572 C2.63573631,15.3556934 3.78354061,16.8673251 5.43485377,17.1729975 C7.08616693,17.4786699 8.69900931,16.4780577 9.15856821,14.8627942 C9.20575905,14.6969272 9.35727444,14.5825065 9.52972395,14.5825065 L9.52972395,14.5825065 L10.3328004,14.5825065 C10.4328332,14.5825065 10.5289571,14.6213521 10.6009035,14.6908523 L10.6009035,14.6908523 L10.9950665,15.0711999 L11.3895339,14.6934683 C11.4434415,14.6416631 11.5108166,14.6070117 11.5831903,14.5929239 L11.5831903,14.5929239 L11.6569164,14.5858168 L12.3189745,14.5858168 C12.4178417,14.5858168 12.5129376,14.6237646 12.584643,14.6918312 L12.584643,14.6918312 L12.9823756,15.0692705 L13.3760276,14.6931615 C13.4295747,14.6418209 13.4963743,14.6073718 13.5681551,14.5931613 L13.5681551,14.5931613 L13.6412898,14.585821 L14.4699633,14.5820903 L15.0806267,13.9424855 L14.4728574,13.3646223 L9.52045514,13.3647926 C9.37279258,13.3647926 9.24046144,13.2808972 9.1758499,13.1526181 L9.1758499,13.1526181 L9.14942997,13.0849628 C8.74861291,11.6827417 7.46671832,10.7161859 6.0084642,10.7164847 L6.0084642,10.7164847 Z M4.14195521,12.7112603 C4.54198412,12.5339029 5.00616877,12.5560726 5.39015874,12.7777693 C5.81681427,13.024099 6.0796449,13.479335 6.0796449,13.9719944 C6.0796449,14.4646538 5.81681426,14.9198898 5.39015874,15.1662195 C4.96350321,15.4125492 4.43784192,15.4125492 4.0111864,15.1662195 C3.58453088,14.9198898 3.32170024,14.4646538 3.32170024,13.9719944 C3.32170024,13.479335 3.58453087,13.024099 4.01118639,12.7777693 L4.01118639,12.7777693 Z M5.00427348,13.4461422 C4.81640458,13.337676 4.58494056,13.337676 4.39707166,13.4461422 C4.20920277,13.5546083 4.09347076,13.7550621 4.09347076,13.9719944 C4.09347076,14.1889267 4.20920277,14.3893804 4.39707166,14.4978466 C4.58494056,14.6063128 4.81640458,14.6063128 5.00427347,14.4978466 C5.19214237,14.3893804 5.30787438,14.1889267 5.30787438,13.9719944 C5.30787438,13.7550621 5.19214237,13.5546083 5.00427348,13.4461422 Z M13.2957883,2.00003339 C15.0923556,1.99211514 16.5663489,3.39345335 16.6700803,5.16569807 L16.6758802,5.35031424 L16.681,6.637 L16.9520519,6.63780995 C17.4903267,6.63780322 17.934185,7.04373618 17.9933221,7.56832062 L18,7.68244297 L18,12.9623559 C18,13.541119 17.5308198,14.0102992 16.9520567,14.0102992 C16.7389381,14.0102992 16.5661714,13.8375325 16.5661714,13.6244139 C16.5661714,13.4379352 16.698446,13.2823508 16.8742874,13.2463685 L16.9520567,13.2385287 C17.0827933,13.2385287 17.1923125,13.1476861 17.2209356,13.0256798 L17.2282295,12.9623559 L17.2282343,7.68437239 C17.2275829,7.55409827 17.1368107,7.44526188 17.0149744,7.41682554 L16.951741,7.40958034 L10.3607913,7.40545146 C10.3527226,7.40597478 10.3445861,7.40625023 10.3363892,7.40627026 L10.312,7.404 L9.6694182,7.40362195 C9.53868161,7.40362195 9.42916243,7.49446447 9.40053933,7.61647085 L9.39324541,7.67979474 L9.39324541,9.68516855 C9.39324541,9.8982871 9.2204787,10.0710538 9.00736015,10.0710538 C8.82088143,10.0710538 8.66529707,9.9387793 8.62931471,9.76293789 L8.62147489,9.68516855 L8.62147489,7.67979474 C8.62147489,7.13961584 9.03018298,6.69489582 9.55548992,6.63800072 L9.66973392,6.63185156 L9.948,6.631 L9.94553103,5.38018895 C9.9373386,3.52167742 11.4372628,2.00836113 13.2957883,2.00003339 Z M13.3107374,8.6206738 C14.0723228,8.6206738 14.6897098,9.23806074 14.6897098,9.99964613 C14.6897098,10.7612315 14.0723228,11.3786185 13.3107374,11.3786185 C12.5491521,11.3786185 11.9317651,10.7612315 11.9317651,9.99964613 C11.9317651,9.23806074 12.5491521,8.6206738 13.3107374,8.6206738 Z M13.3107374,9.39244432 C12.9753891,9.39244432 12.7035356,9.66429783 12.7035356,9.99964613 C12.7035356,10.3349944 12.9753891,10.6068479 13.3107374,10.6068479 C13.6460857,10.6068479 13.9179393,10.3349944 13.9179393,9.99964613 C13.9179393,9.66429783 13.6460857,9.39244432 13.3107374,9.39244432 Z M13.2992184,2.77182996 C11.9220168,2.77797602 10.8003154,3.85648674 10.7217062,5.21342241 L10.7173303,5.37754031 L10.72,6.632 L15.909,6.636 L15.9041172,5.35371368 C15.8977515,3.92143248 14.7314967,2.76549045 13.2992184,2.77182996 Z"/>
</svg>
