<svg xmlns="http://www.w3.org/2000/svg" width="20" height="20" viewBox="0 0 20 20">
  <path fill="#707578" fill-rule="evenodd" d="M17.2375828,4 C17.4910372,4 17.6938008,4.1042654 17.8458734,4.31279621 C17.9979461,4.52132701 18.048637,4.78199052 17.9472552,5.04265403 L17.9472552,5.04265403 L15.0071838,14.3222749 C14.8551112,14.6350711 14.6016567,14.8957346 14.2468205,15 L14.2468205,15 L13.9933661,15 C13.7399117,15 13.4864572,14.8957346 13.2836937,14.6872038 L13.2836937,14.6872038 L11.5095127,12.8625592 L8.51875042,12.8625592 L8.06253244,14.2180095 C7.91045978,14.6350711 7.55562358,14.9478673 7.09940561,14.9478673 L7.09940561,14.9478673 L2.73998942,14.9478673 C2.48653499,14.9478673 2.28377144,14.8436019 2.13169878,14.6350711 C1.97962613,14.4265403 1.97962613,14.1658768 2.03031701,13.9052133 L2.03031701,13.9052133 L4.31140688,6.81516588 C4.46347954,6.39810427 4.86900663,6.08530806 5.27453371,6.08530806 L5.27453371,6.08530806 L7.40355092,6.08530806 L7.8597689,4.72985782 C8.01184156,4.31279621 8.36667776,4 8.82289573,4 L8.82289573,4 Z M16.8827466,5.04265403 L8.82289573,5.04265403 L6.64318763,11.8199052 L11.7122762,11.8199052 C11.8643489,11.8199052 11.9657307,11.8720379 12.0671124,11.9763033 L12.0671124,11.9763033 L13.9933661,13.957346 L16.8827466,5.04265403 Z M7.04871472,7.12796209 L5.27453371,7.12796209 L3.09482562,13.9052133 L6.74456941,13.9052133 L5.52798814,12.7061611 L5.47729726,12.6540284 C5.37591549,12.4976303 5.37591549,12.3412322 5.42660637,12.1848341 L5.42660637,12.1848341 L7.04871472,7.12796209 Z M9.93809522,7.02369668 C10.2929314,6.76303318 10.7998403,6.81516588 11.1039856,7.12796209 L11.1039856,7.12796209 L11.6615853,7.7535545 L12.269876,7.18009479 C12.5740213,6.86729858 13.0809302,6.81516588 13.4357664,7.07582938 C13.4864572,7.12796209 13.4864572,7.12796209 13.5371481,7.23222749 C13.8919843,7.5450237 13.8919843,8.11848341 13.5371481,8.48341232 L13.5371481,8.48341232 L11.9657307,10.0473934 C11.813658,10.2037915 11.5095127,10.2037915 11.35744,10.0473934 L11.35744,10.0473934 L9.83671345,8.37914692 C9.78602256,8.37914692 9.78602256,8.32701422 9.73533168,8.27488152 C9.43118636,7.85781991 9.53256813,7.28436019 9.93809522,7.02369668 Z"/>
</svg>
