<svg xmlns="http://www.w3.org/2000/svg" width="20" height="20" viewBox="0 0 20 20">
  <path fill="#707578" fill-rule="evenodd" d="M8.49877451,10.5007353 C9.05132999,10.5007353 9.49926471,10.94867 9.49926471,11.5012255 L9.49926471,11.5012255 L9.49926471,16.3051471 C9.49926471,16.8577025 9.05132999,17.3056373 8.49877451,17.3056373 L8.49877451,17.3056373 L3.69485294,17.3056373 C3.14229746,17.3056373 2.69436275,16.8577025 2.69436275,16.3051471 L2.69436275,16.3051471 L2.69436275,11.5012255 C2.69436275,10.94867 3.14229746,10.5007353 3.69485294,10.5007353 L3.69485294,10.5007353 Z M16.3051471,10.5007353 C16.8577025,10.5007353 17.3056373,10.94867 17.3056373,11.5012255 L17.3056373,11.5012255 L17.3056373,16.3051471 C17.3056373,16.8577025 16.8577025,17.3056373 16.3051471,17.3056373 L16.3051471,17.3056373 L11.5012255,17.3056373 C10.94867,17.3056373 10.5007353,16.8577025 10.5007353,16.3051471 L10.5007353,16.3051471 L10.5007353,11.5012255 C10.5007353,10.94867 10.94867,10.5007353 11.5012255,10.5007353 L11.5012255,10.5007353 Z M8.49877451,11.3007353 L3.69485294,11.3007353 C3.58412526,11.3007353 3.49436275,11.3904978 3.49436275,11.5012255 L3.49436275,11.5012255 L3.49436275,16.3051471 C3.49436275,16.4158747 3.58412526,16.5056373 3.69485294,16.5056373 L3.69485294,16.5056373 L8.49877451,16.5056373 C8.60950219,16.5056373 8.69926471,16.4158747 8.69926471,16.3051471 L8.69926471,16.3051471 L8.69926471,11.5012255 C8.69926471,11.3904978 8.60950219,11.3007353 8.49877451,11.3007353 L8.49877451,11.3007353 Z M16.3051471,11.3007353 L11.5012255,11.3007353 C11.3904978,11.3007353 11.3007353,11.3904978 11.3007353,11.5012255 L11.3007353,11.5012255 L11.3007353,16.3051471 C11.3007353,16.4158747 11.3904978,16.5056373 11.5012255,16.5056373 L11.5012255,16.5056373 L16.3051471,16.5056373 C16.4158747,16.5056373 16.5056373,16.4158747 16.5056373,16.3051471 L16.5056373,16.3051471 L16.5056373,11.5012255 C16.5056373,11.3904978 16.4158747,11.3007353 16.3051471,11.3007353 L16.3051471,11.3007353 Z M8.49877451,2.69436275 C9.05132999,2.69436275 9.49926471,3.14229746 9.49926471,3.69485294 L9.49926471,3.69485294 L9.49926471,8.49877451 C9.49926471,9.05132999 9.05132999,9.49926471 8.49877451,9.49926471 L8.49877451,9.49926471 L3.69485294,9.49926471 C3.14229746,9.49926471 2.69436275,9.05132999 2.69436275,8.49877451 L2.69436275,8.49877451 L2.69436275,3.69485294 C2.69436275,3.14229746 3.14229746,2.69436275 3.69485294,2.69436275 L3.69485294,2.69436275 Z M16.3051471,2.69436275 C16.8577025,2.69436275 17.3056373,3.14229746 17.3056373,3.69485294 L17.3056373,3.69485294 L17.3056373,8.49877451 C17.3056373,9.05132999 16.8577025,9.49926471 16.3051471,9.49926471 L16.3051471,9.49926471 L11.5012255,9.49926471 C10.94867,9.49926471 10.5007353,9.05132999 10.5007353,8.49877451 L10.5007353,8.49877451 L10.5007353,3.69485294 C10.5007353,3.14229746 10.94867,2.69436275 11.5012255,2.69436275 L11.5012255,2.69436275 Z M8.49877451,3.49436275 L3.69485294,3.49436275 C3.58412526,3.49436275 3.49436275,3.58412526 3.49436275,3.69485294 L3.49436275,3.69485294 L3.49436275,8.49877451 C3.49436275,8.60950219 3.58412526,8.69926471 3.69485294,8.69926471 L3.69485294,8.69926471 L8.49877451,8.69926471 C8.60950219,8.69926471 8.69926471,8.60950219 8.69926471,8.49877451 L8.69926471,8.49877451 L8.69926471,3.69485294 C8.69926471,3.58412526 8.60950219,3.49436275 8.49877451,3.49436275 L8.49877451,3.49436275 Z M16.3051471,3.49436275 L11.5012255,3.49436275 C11.3904978,3.49436275 11.3007353,3.58412526 11.3007353,3.69485294 L11.3007353,3.69485294 L11.3007353,8.49877451 C11.3007353,8.60950219 11.3904978,8.69926471 11.5012255,8.69926471 L11.5012255,8.69926471 L16.3051471,8.69926471 C16.4158747,8.69926471 16.5056373,8.60950219 16.5056373,8.49877451 L16.5056373,8.49877451 L16.5056373,3.69485294 C16.5056373,3.58412526 16.4158747,3.49436275 16.3051471,3.49436275 L16.3051471,3.49436275 Z"/>
</svg>
