<svg xmlns="http://www.w3.org/2000/svg" width="20" height="20" viewBox="0 0 20 20">
  <path fill="#707578" fill-rule="evenodd" d="M9.94042942,2.60222251 C12.5340416,2.61751313 15.0095699,4.01573601 16.3145221,6.41161397 C16.8993371,7.48317036 17.2052513,8.68497188 17.2039419,9.90573137 C17.2035183,11.6971118 16.5541826,13.3520045 15.4666651,14.6317163 C15.4492243,14.6566915 15.4292517,14.6802227 15.4068636,14.701208 C14.2623729,16.0140164 12.6517872,16.9183273 10.8092472,17.148933 C10.523753,17.1846645 10.2396696,17.2033479 9.95808693,17.2057265 C9.91724528,17.2130048 9.87522308,17.2127801 9.83405152,17.2060848 C7.7237324,17.1877981 5.76332479,16.2549565 4.41599113,14.722797 C4.37472608,14.6911641 4.34046662,14.6513101 4.31481024,14.6059475 C3.62499438,13.7864945 3.10651277,12.8043938 2.82670114,11.7051338 C2.22726858,9.35022017 2.84693967,6.94385898 4.32310282,5.19327672 C4.34494542,5.15583925 4.37335659,5.12300837 4.40628305,5.09538382 C5.15459915,4.23979246 6.112309,3.54792182 7.23501282,3.10729802 C8.09169797,2.77107767 8.97746075,2.60743827 9.85173182,2.60161535 L9.94042942,2.60222251 L9.94042942,2.60222251 Z M11.6739226,14.8096803 L8.22545805,14.8095298 C8.67521497,15.3923681 9.22139021,15.8993478 9.84403275,16.3066133 L9.911,16.348 L9.95089218,16.3265192 C10.6246053,15.9370521 11.2087522,15.4199056 11.6739226,14.8096803 Z M7.2455244,14.8095796 L5.63505485,14.8091215 C6.43940166,15.5082464 7.41052283,16.0062002 8.46396878,16.2453913 C7.99849712,15.8204628 7.58902101,15.3378583 7.2455244,14.8095796 Z M14.1695441,14.8095075 L12.6465746,14.8101635 C12.3173145,15.3323916 11.9168282,15.8062567 11.4568949,16.2179011 C12.4818531,15.965977 13.4055648,15.4747505 14.1695441,14.8095075 Z M6.7936996,5.80150264 L4.85767375,5.80216795 C3.59869289,7.35255434 3.07873376,9.45218456 3.60197888,11.5077904 C3.8419236,12.4504304 4.2789688,13.2963169 4.85999895,14.0092272 L6.7933136,14.0098203 C6.68862023,13.7945726 6.5940285,13.5736279 6.51007286,13.3476251 C6.43314414,13.1405383 6.53865808,12.9102983 6.74574484,12.8333696 C6.95283159,12.7564409 7.18307162,12.8619548 7.26000034,13.0690416 C7.38118031,13.3952496 7.52719442,13.7096478 7.69602405,14.0098224 L12.1867108,14.0095576 C12.3016088,13.793387 12.4033008,13.5692783 12.4908465,13.3383376 L12.5806297,13.0839417 C12.6493293,12.8739814 12.8752278,12.759467 13.0851881,12.8281666 C13.2951483,12.8968663 13.4096627,13.1227648 13.3409631,13.332725 C13.2652637,13.564078 13.1772925,13.7899845 13.077737,14.0096358 L14.9434856,14.0097499 C15.8596956,12.8852057 16.4035758,11.4524033 16.4039416,9.90520686 C16.4051074,8.81832162 16.1328163,7.74861043 15.6119727,6.79426838 C15.4179107,6.43797268 15.1947757,6.10645527 14.9469517,5.80131163 L13.0028932,5.80150264 C13.1075346,6.01676865 13.2020681,6.23773265 13.2859586,6.4637549 C13.3628291,6.67086329 13.2572504,6.90107363 13.050142,6.97794408 C12.8430336,7.05481454 12.6128233,6.94923584 12.5359528,6.74212745 C12.4148751,6.41591356 12.268949,6.10150933 12.1001948,5.80133096 L7.69662064,5.8009349 C7.57692585,6.01381272 7.46871232,6.2338462 7.37270074,6.46017347 L7.26063999,6.74212745 C7.18376954,6.94923584 6.9535592,7.05481454 6.74645081,6.97794408 C6.53934242,6.90107363 6.43376372,6.67086329 6.51063418,6.4637549 C6.59452471,6.23773265 6.68905817,6.01676865 6.7936996,5.80150264 Z M10.7990317,8.30465686 C10.9923314,8.30465686 11.1536066,8.44176966 11.1909051,8.62404291 L11.1990317,8.70465686 L11.1990317,9.51244395 C11.1988962,9.93666763 11.1314306,10.357635 10.9995957,10.7598527 L10.9127941,10.9988095 L10.5699142,11.855709 C10.4391607,12.1824784 9.99490038,12.1853797 9.84493923,11.8955376 L9.81393192,11.8169963 L9.598,11.061 L9.38217068,11.8169963 C9.28548026,12.1554128 8.84384023,12.2036796 8.66505642,11.9306721 L8.62618838,11.855709 L8.28323364,10.9986223 C8.12583183,10.6046801 8.03215519,10.1887597 8.0052078,9.76638864 L7.99707091,9.51231618 L7.99707091,8.70465686 C7.99707091,8.48374296 8.17615701,8.30465686 8.39707091,8.30465686 C8.59037057,8.30465686 8.75164582,8.44176966 8.78894433,8.62404291 L8.79707091,8.70465686 L8.79707089,9.5121884 C8.79714899,9.75667756 8.82516579,9.99981551 8.88020763,10.2369006 L8.939,10.453 L9.21344172,9.49550371 C9.31545897,9.13844334 9.79039626,9.11097716 9.94978582,9.41310516 L9.98266088,9.49550371 L10.256,10.453 L10.3158788,10.2369492 C10.3525841,10.0788737 10.3772712,9.91813419 10.3896739,9.75611994 L10.3990317,9.51231618 L10.3990317,8.70465686 C10.3990317,8.48374296 10.5781178,8.30465686 10.7990317,8.30465686 Z M14.4019729,8.30465686 C14.5952725,8.30465686 14.7565478,8.44176966 14.7938463,8.62404291 L14.8019729,8.70465686 L14.8019729,9.51244395 C14.8018373,9.93666763 14.7343717,10.357635 14.6025369,10.7598527 L14.5157353,10.9988095 L14.1728554,11.855709 C14.0421018,12.1824784 13.5978416,12.1853797 13.4478804,11.8955376 L13.4168731,11.8169963 L13.201,11.061 L12.9851119,11.8169963 C12.8884214,12.1554128 12.4467814,12.2036796 12.2679976,11.9306721 L12.2291296,11.855709 L11.8861748,10.9986223 C11.728773,10.6046801 11.6350964,10.1887597 11.608149,9.76638864 L11.6000121,9.51231618 L11.6000121,8.70465686 C11.6000121,8.48374296 11.7790982,8.30465686 12.0000121,8.30465686 C12.1933117,8.30465686 12.354587,8.44176966 12.3918855,8.62404291 L12.4000121,8.70465686 L12.4000121,9.5121884 C12.4000902,9.75667756 12.428107,9.99981551 12.4831488,10.2369006 L12.542,10.453 L12.8163829,9.49550371 C12.9184001,9.13844334 13.3933374,9.11097716 13.552727,9.41310516 L13.5856021,9.49550371 L13.859,10.453 L13.91882,10.2369492 C13.9555253,10.0788737 13.9802123,9.91813419 13.9926151,9.75611994 L14.0019729,9.51231618 L14.0019729,8.70465686 C14.0019729,8.48374296 14.181059,8.30465686 14.4019729,8.30465686 Z M7.19609052,8.30465686 C7.38939018,8.30465686 7.55066543,8.44176966 7.58796394,8.62404291 L7.59609052,8.70465686 L7.59609052,9.51244395 C7.59595498,9.93666763 7.52848939,10.357635 7.39665451,10.7598527 L7.30985295,10.9988095 L6.96697305,11.855709 C6.83621948,12.1824784 6.39195921,12.1853797 6.24199806,11.8955376 L6.21099074,11.8169963 L5.995,11.061 L5.77922951,11.8169963 C5.68253909,12.1554128 5.24089906,12.2036796 5.06211525,11.9306721 L5.0232472,11.855709 L4.68029246,10.9986223 C4.52289066,10.6046801 4.42921402,10.1887597 4.40226663,9.76638864 L4.39412973,9.51231618 L4.39412973,8.70465686 C4.39412973,8.48374296 4.57321583,8.30465686 4.79412973,8.30465686 C4.9874294,8.30465686 5.14870465,8.44176966 5.18600315,8.62404291 L5.19412973,8.70465686 L5.19412971,9.5121884 C5.19420781,9.75667756 5.22222462,9.99981551 5.27726645,10.2369006 L5.3359382,10.4526154 L5.61050055,9.49550371 C5.71251779,9.13844334 6.18745508,9.11097716 6.34684464,9.41310516 L6.3797197,9.49550371 L6.653,10.453 L6.71293763,10.2369492 C6.74964296,10.0788737 6.77432999,9.91813419 6.78673277,9.75611994 L6.79609052,9.51231618 L6.79609052,8.70465686 C6.79609052,8.48374296 6.97517662,8.30465686 7.19609052,8.30465686 Z M8.46901415,3.56115134 L8.2377261,3.61890939 C7.99916193,3.68231216 7.76199671,3.75988075 7.52728278,3.85199814 C6.81633428,4.13102171 6.17968992,4.52319292 5.63154865,5.00081853 L7.24574058,5.00167915 C7.5903545,4.4714942 8.0014554,3.9873202 8.46901415,3.56115134 Z M9.898,3.47 L9.84401468,3.50464553 C9.22166601,3.91166539 8.67575331,4.41836233 8.22621961,5.00088582 L11.5709406,5.00162117 C11.1212989,4.41878875 10.5751886,3.91183665 9.95257812,3.50464553 L9.898,3.47 Z M11.3232805,3.55950106 L11.3708952,3.60094879 C11.8205598,4.01738086 12.2169205,4.48792865 12.5508522,5.00167915 L14.1743402,5.00161515 C13.3542194,4.2873215 12.3711296,3.79470295 11.3232805,3.55950106 Z"/>
</svg>
