<svg xmlns="http://www.w3.org/2000/svg" width="20" height="20" viewBox="0 0 20 20">
  <path fill="#707578" fill-rule="evenodd" d="M15.75,10.5333333 C16.4403559,10.5333333 17,11.130287 17,11.8666667 L17,16.6666667 C17,17.4030463 16.4403559,18 15.75,18 L14.915,18 C14.5173093,17.9996266 14.1360347,17.8308106 13.855,17.5306667 L12.96,16.5813333 L11.795,17.8186667 C11.7026848,17.9191543 11.5768846,17.9766629 11.445,17.9786667 C11.2418675,17.9799267 11.05821,17.8499713 10.9803145,17.6498568 C10.9024191,17.4497423 10.94577,17.2192482 11.09,17.0666667 L12.255,15.824 L11.145,14.6453333 C10.9489389,14.4362015 10.9489389,14.0971318 11.145,13.888 C11.3410611,13.6788682 11.6589389,13.6788682 11.855,13.888 L14.56,16.7786667 C14.6543594,16.8784995 14.7820985,16.9341529 14.915,16.9333333 L15.75,16.9333333 C15.8880712,16.9333333 16,16.8139426 16,16.6666667 L16,11.8666667 C16,11.7193907 15.8880712,11.6 15.75,11.6 L4.25,11.6 C4.11192881,11.6 4,11.7193907 4,11.8666667 L4,16.6666667 C4,16.8139426 4.11192881,16.9333333 4.25,16.9333333 L5.085,16.9333333 C5.21790149,16.9341529 5.34564058,16.8784995 5.44,16.7786667 L8.145,13.888 C8.27182928,13.7527154 8.45668699,13.6998808 8.62993902,13.7493984 C8.80319104,13.798916 8.93851628,13.9432629 8.98493902,14.128065 C9.03136176,14.3128672 8.98182928,14.5100488 8.855,14.6453333 L7.745,15.824 L8.895,17.0506667 C9.03566432,17.2037364 9.07675249,17.4317576 8.99931048,17.6295438 C8.92186846,17.82733 8.74094486,17.9564471 8.54,17.9573333 C8.40709851,17.9581529 8.27935942,17.9024995 8.185,17.8026667 L7.04,16.5813333 L6.145,17.5306667 C5.86396528,17.8308106 5.4826907,17.9996266 5.085,18 L4.25,18 C3.55964406,18 3,17.4030463 3,16.6666667 L3,11.8666667 C3,11.130287 3.55964406,10.5333333 4.25,10.5333333 L15.75,10.5333333 Z M10.5,2 C10.7761424,2 11,2.23878147 11,2.53333333 L11,2.53333333 L11,3.06666667 L15.75,3.06666667 C16.4403559,3.06666667 17,3.66362033 17,4.4 L17,4.4 L17,8.13333333 C17,8.869713 16.4403559,9.46666667 15.75,9.46666667 L15.75,9.46666667 L4.25,9.46666667 C3.55964406,9.46666667 3,8.869713 3,8.13333333 L3,8.13333333 L3,4.4 C3,3.66362033 3.55964406,3.06666667 4.25,3.06666667 L4.25,3.06666667 L9,3.06666667 L9,2.53333333 C9,2.23878147 9.22385763,2 9.5,2 L9.5,2 Z M15.75,4.13333333 L4.25,4.13333333 C4.11192881,4.13333333 4,4.25272407 4,4.4 L4,4.4 L4,8.13333333 C4,8.28060927 4.11192881,8.4 4.25,8.4 L4.25,8.4 L15.75,8.4 C15.8880712,8.4 16,8.28060927 16,8.13333333 L16,8.13333333 L16,4.4 C16,4.25272407 15.8880712,4.13333333 15.75,4.13333333 L15.75,4.13333333 Z M7,5.2 C7.55228475,5.2 8,5.67756293 8,6.26666667 C8,6.8557704 7.55228475,7.33333333 7,7.33333333 C6.44771525,7.33333333 6,6.8557704 6,6.26666667 C6,5.67756293 6.44771525,5.2 7,5.2 Z M13,5.2 C13.5522847,5.2 14,5.67756293 14,6.26666667 C14,6.8557704 13.5522847,7.33333333 13,7.33333333 C12.4477153,7.33333333 12,6.8557704 12,6.26666667 C12,5.67756293 12.4477153,5.2 13,5.2 Z"/>
</svg>
