<svg width="20" height="20" viewBox="0 0 20 20" fill="none" xmlns="http://www.w3.org/2000/svg">
<path fill-rule="evenodd" clip-rule="evenodd" d="M18.25 1.87499V2.81874C18.4432 2.96365 18.6002 3.15137 18.7087 3.36717C18.8171 3.58297 18.874 3.82098 18.875 4.06249V5.31249C18.875 5.72688 18.7104 6.12431 18.4174 6.41734C18.1243 6.71036 17.7269 6.87498 17.3125 6.87498H15.4375C15.0242 6.87498 14.6277 6.71122 14.3349 6.41955C14.042 6.12787 13.8767 5.73205 13.875 5.31874V4.06874C13.875 3.82617 13.9315 3.58693 14.04 3.36997C14.1485 3.15301 14.306 2.96428 14.5 2.81874V1.87499C14.5 1.37772 14.6976 0.900803 15.0492 0.549173C15.4008 0.197544 15.8777 0 16.375 0C16.8723 0 17.3492 0.197544 17.7008 0.549173C18.0525 0.900803 18.25 1.37772 18.25 1.87499ZM16.6206 1.28631C16.5422 1.25685 16.4585 1.24447 16.375 1.25C16.2915 1.24447 16.2078 1.25685 16.1295 1.28631C16.0511 1.31576 15.98 1.36161 15.9208 1.42079C15.8616 1.47997 15.8158 1.5511 15.7863 1.62943C15.7569 1.70777 15.7445 1.79149 15.75 1.87499V2.49999H17V1.87499C17.0055 1.79149 16.9932 1.70777 16.9637 1.62943C16.9342 1.5511 16.8884 1.47997 16.8292 1.42079C16.77 1.36161 16.6989 1.31576 16.6206 1.28631ZM17.5335 5.53346C17.5921 5.47485 17.625 5.39537 17.625 5.31249V4.06249C17.625 3.97961 17.5921 3.90012 17.5335 3.84152C17.4749 3.78291 17.3954 3.74999 17.3125 3.74999H15.4375C15.3546 3.74999 15.2752 3.78291 15.2165 3.84152C15.1579 3.90012 15.125 3.97961 15.125 4.06249V5.31249C15.125 5.39537 15.1579 5.47485 15.2165 5.53346C15.2752 5.59206 15.3546 5.62498 15.4375 5.62498H17.3125C17.3954 5.62498 17.4749 5.59206 17.5335 5.53346ZM10.625 4.99999C10.9046 5.01 11.1711 5.12102 11.375 5.31249L12.9375 6.93748C13.127 7.11739 13.2391 7.36394 13.25 7.62498V18.4375C13.2517 18.6431 13.2124 18.847 13.1345 19.0374C13.0565 19.2277 12.9415 19.4006 12.7961 19.546C12.6507 19.6914 12.4778 19.8065 12.2874 19.8844C12.0971 19.9623 11.8932 20.0016 11.6875 19.9999H3.56255C3.35689 20.0016 3.15296 19.9623 2.96264 19.8844C2.77232 19.8065 2.59941 19.6914 2.45398 19.546C2.30856 19.4006 2.19353 19.2277 2.1156 19.0374C2.03766 18.847 1.99839 18.6431 2.00005 18.4375V6.56248C1.99839 6.35683 2.03766 6.1529 2.1156 5.96258C2.19353 5.77226 2.30856 5.59935 2.45398 5.45392C2.59941 5.3085 2.77232 5.19347 2.96264 5.11553C3.15296 5.0376 3.35689 4.99832 3.56255 4.99999H10.625ZM11.9819 18.5602C11.9966 18.5211 12.0028 18.4792 12 18.4375V7.74998L10.5 6.24999H3.56255C3.52079 6.24722 3.47893 6.25341 3.43977 6.26814C3.4006 6.28287 3.36503 6.30579 3.33544 6.33538C3.30586 6.36497 3.28293 6.40054 3.2682 6.4397C3.25348 6.47887 3.24729 6.52073 3.25005 6.56248V18.4375C3.24729 18.4792 3.25348 18.5211 3.2682 18.5602C3.28293 18.5994 3.30586 18.635 3.33544 18.6646C3.36503 18.6941 3.4006 18.7171 3.43977 18.7318C3.47893 18.7465 3.52079 18.7527 3.56255 18.75H11.6875C11.7293 18.7527 11.7711 18.7465 11.8103 18.7318C11.8495 18.7171 11.885 18.6941 11.9146 18.6646C11.9442 18.635 11.9671 18.5994 11.9819 18.5602ZM4.87948 10.0363C4.95782 10.0068 5.04154 9.99445 5.12504 9.99998H10.125C10.2085 9.99445 10.2923 10.0068 10.3706 10.0363C10.4489 10.0657 10.5201 10.1116 10.5792 10.1708C10.6384 10.2299 10.6843 10.3011 10.7137 10.3794C10.7432 10.4577 10.7556 10.5415 10.75 10.625V16.875C10.7556 16.9585 10.7432 17.0422 10.7137 17.1205C10.6843 17.1988 10.6384 17.27 10.5792 17.3292C10.5201 17.3883 10.4489 17.4342 10.3706 17.4636C10.2923 17.4931 10.2085 17.5055 10.125 17.5H5.12504C5.04154 17.5055 4.95782 17.4931 4.87948 17.4636C4.80115 17.4342 4.73001 17.3883 4.67084 17.3292C4.61166 17.27 4.56581 17.1988 4.53635 17.1205C4.5069 17.0422 4.49452 16.9585 4.50004 16.875V10.625C4.49452 10.5415 4.5069 10.4577 4.53635 10.3794C4.56581 10.3011 4.61166 10.2299 4.67084 10.1708C4.73001 10.1116 4.80115 10.0657 4.87948 10.0363ZM7.87503 11.25L9.50003 12.875V11.25H7.87503ZM7.37504 16.25L5.75004 14.625V16.25H7.37504ZM5.75004 12.875L9.12503 16.25H9.50003V14.625L6.12504 11.25H5.75004V12.875Z" fill="#606B85"/>
</svg>
