<svg xmlns="http://www.w3.org/2000/svg" width="24" height="24" viewBox="0 0 24 24">
  <path fill="#707578" fill-rule="evenodd" d="M14.9910868,7.15821129 L18.4359247,8.32955218 C18.63309,8.14123242 18.883467,8.02076319 19.1582465,8.00262458 L19.2857143,8.00159563 L20.5,8.00159563 C20.7761424,8.00159563 21,8.22564678 21,8.50202787 C21,8.74769994 20.8231248,8.95202491 20.5898756,8.99439746 L20.5,9.0024601 L19.2614832,9.0018721 C19.1591745,8.99690387 19.0462286,9.10138921 19.0108292,9.25949263 L19,9.34275401 L18.9996224,15.1483394 C19.0071954,15.3432504 19.1106328,15.4771775 19.2325555,15.5035147 L19.2857143,15.5080791 L20.5,15.5080791 C20.7761424,15.5080791 21,15.7321302 21,16.0085113 C21,16.2541834 20.8231248,16.4585084 20.5898756,16.5008809 L20.5,16.5089436 L19.3088464,16.5084077 C18.9564746,16.5247415 18.6393365,16.3841115 18.4053787,16.1448823 L18.3921196,16.1500402 L18.3921196,16.1500402 L18.3053531,16.1748428 L14.7755114,16.8499267 C14.7263219,16.8593342 14.6774396,16.8611808 14.6300617,16.8562802 L14.489,16.8582453 L14.473327,16.926243 L14.4107383,17.1075637 C14.0754406,17.9465327 13.2417683,18.4365737 12.3874635,18.3728165 L12.307,18.3635454 L12.3044732,18.4350899 C12.2671966,18.8207407 12.1013629,19.1828407 11.833724,19.4635246 L11.7128666,19.5786644 C11.0296896,20.1685815 10.0167568,20.1297968 9.386335,19.5203032 L9.27919978,19.406833 L6.212,15.9934984 L6.01588993,15.9979448 L5.94781393,15.9933538 C5.71033374,16.2906401 5.35526019,16.4855476 4.96279243,16.507879 L4.83333333,16.5089436 L3.5,16.5089436 C3.22385763,16.5089436 3,16.2848924 3,16.0085113 C3,15.7628393 3.17687516,15.5585143 3.41012437,15.5161417 L3.5,15.5080791 L4.85316648,15.508473 C5.03767074,15.5158036 5.19623816,15.3925586 5.23901718,15.2364273 L5.25,15.1677852 L5.25051378,9.3654346 C5.24219107,9.18182961 5.10563262,9.03461128 4.91709516,9.00681778 L4.83333333,9.0024601 L3.5,9.0024601 C3.22385763,9.0024601 3,8.77840895 3,8.50202787 C3,8.22564678 3.22385763,8.00159563 3.5,8.00159563 L4.81255734,8.00202784 C5.37204478,7.97873981 5.86772525,8.29171232 6.10436321,8.77093711 L8.14309917,7.95457536 C8.42963036,7.83893871 8.73509077,7.77972841 9.04416667,7.77972841 C9.49706858,7.77972841 9.93922137,7.90643994 10.3361438,8.15515033 L10.5033836,8.26919607 L10.603,8.351 L12.8991024,7.28527813 C13.5536848,6.95487524 14.3143644,6.91005374 14.9910868,7.15821129 Z M9.04416667,8.78059287 C8.86312994,8.78059287 8.68463678,8.8151919 8.5157427,8.88335102 L6.25,9.789 L6.249,14.992 L6.42133313,14.9884782 C6.53765043,14.9860716 6.65019431,15.0243096 6.74034425,15.0951166 L6.80346689,15.1542024 L10.0295784,18.7453329 C10.2927303,19.0506137 10.7543165,19.0844914 11.0592732,18.8211644 C11.1933887,18.7051338 11.2798303,18.5458899 11.3049188,18.3733893 L11.3125,18.2685378 L11.312,17.912 L10.5624466,17.1608845 C10.3671845,16.9654535 10.3671845,16.6485973 10.5624466,16.4531664 C10.736013,16.27945 11.0054374,16.2601482 11.2003055,16.3952609 L11.2695534,16.4531664 L12.093,17.277 L12.1588005,17.3039584 C12.6806799,17.5131367 13.2732024,17.2589518 13.4822617,16.7358519 C13.5066317,16.674874 13.5249915,16.6114948 13.5371254,16.5468395 L12.3554466,15.365417 C12.1601845,15.1699861 12.1601845,14.8531299 12.3554466,14.657699 C12.529013,14.4839826 12.7984374,14.4646807 12.9933055,14.5997935 L13.0625534,14.657699 L14.261,15.857 L14.5023001,15.8579561 C14.970029,15.8573789 15.3482461,15.4784801 15.347676,15.0106405 C15.347676,14.8648266 15.3098045,14.7220526 15.2416218,14.5997265 L15.1849196,14.5120879 L12.523,11.099 L11.0044856,11.602383 C10.2536048,11.849739 9.43732858,11.4943173 9.10699576,10.777745 C8.79538566,10.1080868 8.99626641,9.32758212 9.56475572,8.8807422 C9.40116215,8.81461159 9.22415822,8.78059287 9.04416667,8.78059287 Z M13.4954115,8.11482369 L13.3347865,8.18600934 L10.271318,9.60907402 C9.99847131,9.7475659 9.88441223,10.0777703 10.0142547,10.3568127 C10.119328,10.5847398 10.361098,10.7102528 10.6014778,10.673416 L10.6912854,10.6518751 L12.5457101,10.0385641 C12.5483962,10.0376819 12.5510875,10.0368235 12.5537838,10.0359887 L13.8702854,9.60046694 C14.132483,9.51374889 14.4152743,9.65618691 14.5019174,9.91861116 C14.5789335,10.1518772 14.4750445,10.4014288 14.2668574,10.5149097 L14.184048,10.5507892 L13.532,10.766 L15.9794613,13.9044397 C16.2184148,14.2241589 16.347677,14.6119312 16.347677,15.0100297 C16.3479039,15.1963406 16.3205579,15.3762123 16.2694892,15.5457921 L18.003,15.213 L18,15.1677852 L18.0003776,9.32330821 L18.007,9.241 L14.6582432,8.10193624 C14.2839527,7.96476226 13.8748725,7.96896294 13.4954115,8.11482369 Z"/>
</svg>
