<svg xmlns="http://www.w3.org/2000/svg" width="20" height="20" viewBox="0 0 20 20">
  <path fill="#707578" fill-rule="evenodd" d="M14.3126849,13.7698122 L14.3752766,13.8212605 L15.5722943,15.0255335 C15.8477464,14.8492527 16.1751742,14.7470588 16.5264706,14.7470588 C17.5054224,14.7470588 18.2990196,15.5406561 18.2990196,16.5196078 C18.2990196,17.4985596 17.5054224,18.2921569 16.5264706,18.2921569 C15.5475188,18.2921569 14.7539216,17.4985596 14.7539216,16.5196078 C14.7539216,16.1814993 14.8485867,15.8655009 15.012858,15.5966717 L13.8078607,14.3852101 C13.6521303,14.2285225 13.6529062,13.9752577 13.8095938,13.8195273 C13.9466955,13.6832632 14.157739,13.6668243 14.3126849,13.7698122 Z M6.19115949,13.819594 C6.32822892,13.9558905 6.34591087,14.1668335 6.24383765,14.3223834 L6.19275897,14.3852771 L4.98714202,15.5966717 C5.15141334,15.8655009 5.24607843,16.1814993 5.24607843,16.5196078 C5.24607843,17.4985596 4.4524812,18.2921569 3.47352941,18.2921569 C2.49457762,18.2921569 1.70098039,17.4985596 1.70098039,16.5196078 C1.70098039,15.5406561 2.49457762,14.7470588 3.47352941,14.7470588 C3.82482583,14.7470588 4.15225358,14.8492527 4.4277057,15.0255335 L5.62547632,13.8211935 C5.78124373,13.6645427 6.03450871,13.6638266 6.19115949,13.819594 Z M16.5264706,15.5470588 C16.2530521,15.5470588 16.0059863,15.6598876 15.8292929,15.8415252 C15.828717,15.8436104 15.8277973,15.8445453 15.826872,15.8454769 C15.6588765,16.0167103 15.5539216,16.2559023 15.5539216,16.5196078 C15.5539216,17.0567318 15.9893466,17.4921569 16.5264706,17.4921569 C17.0635946,17.4921569 17.4990196,17.0567318 17.4990196,16.5196078 C17.4990196,15.9824839 17.0635946,15.5470588 16.5264706,15.5470588 Z M3.47352941,15.5470588 C2.93640542,15.5470588 2.50098039,15.9824839 2.50098039,16.5196078 C2.50098039,17.0567318 2.93640542,17.4921569 3.47352941,17.4921569 C4.0106534,17.4921569 4.44607843,17.0567318 4.44607843,16.5196078 C4.44607843,15.9824839 4.0106534,15.5470588 3.47352941,15.5470588 Z M10.0068627,5.13921569 C11.2700787,5.13921569 12.2941176,6.16325459 12.2941176,7.42647059 C12.2941176,8.49705331 11.5585855,9.39584329 10.5652935,9.64506815 C12.2260583,9.91141298 13.495098,11.3516241 13.495098,13.0882353 C13.495098,13.3091492 13.3160119,13.4882353 13.095098,13.4882353 L13.095098,13.4882353 L6.91862745,13.4882353 C6.69771355,13.4882353 6.51862745,13.3091492 6.51862745,13.0882353 C6.51862745,11.3519563 7.78718178,9.91196397 9.4480233,9.6445255 C8.45514002,9.39584329 7.71960784,8.49705331 7.71960784,7.42647059 C7.71960784,6.16325459 8.74364674,5.13921569 10.0068627,5.13921569 Z M10.0068627,10.4000001 C8.69349963,10.4000001 7.60011553,11.3418422 7.36528173,12.5869553 L7.36528173,12.5869553 L7.349,12.688 L12.664,12.688 L12.6484438,12.5869553 C12.4238201,11.3959776 11.4136798,10.4824727 10.176871,10.4052888 L10.176871,10.4052888 Z M16.5196078,7.88431373 C17.4985596,7.88431373 18.2921569,8.67791095 18.2921569,9.65686275 C18.2921569,10.6358145 17.4985596,11.4294118 16.5196078,11.4294118 C15.6786315,11.4294118 14.9744432,10.8437524 14.7926495,10.0580402 L13.0882353,10.0568627 C12.8673214,10.0568627 12.6882353,9.87777665 12.6882353,9.65686275 C12.6882353,9.46356308 12.8253481,9.30228783 13.0076213,9.26498932 L13.0882353,9.25686275 L14.7924198,9.2566796 C14.9738493,8.4704672 15.6782768,7.88431373 16.5196078,7.88431373 Z M3.48039216,7.88431373 C4.32172319,7.88431373 5.02615074,8.4704672 5.20758025,9.2566796 L6.91176471,9.25686275 C7.13267861,9.25686275 7.31176471,9.43594885 7.31176471,9.65686275 C7.31176471,9.85016241 7.17465191,10.0114377 6.99237866,10.0487362 L6.91176471,10.0568627 L5.20735051,10.0580402 C5.02555676,10.8437524 4.3213685,11.4294118 3.48039216,11.4294118 C2.50144037,11.4294118 1.70784314,10.6358145 1.70784314,9.65686275 C1.70784314,8.67791095 2.50144037,7.88431373 3.48039216,7.88431373 Z M16.5196078,8.68431373 C15.9824839,8.68431373 15.5470588,9.11973875 15.5470588,9.65686275 C15.5470588,10.1939867 15.9824839,10.6294118 16.5196078,10.6294118 C17.0567318,10.6294118 17.4921569,10.1939867 17.4921569,9.65686275 C17.4921569,9.11973875 17.0567318,8.68431373 16.5196078,8.68431373 Z M3.48039216,8.68431373 C2.94326816,8.68431373 2.50784314,9.11973875 2.50784314,9.65686275 C2.50784314,10.1939867 2.94326816,10.6294118 3.48039216,10.6294118 C4.01751615,10.6294118 4.45294118,10.1939867 4.45294118,9.65686275 C4.45294118,9.11973875 4.01751615,8.68431373 3.48039216,8.68431373 Z M10.0068627,5.93921569 C9.18547454,5.93921569 8.51960784,6.60508239 8.51960784,7.42647059 C8.51960784,8.24785879 9.18547454,8.91372549 10.0068627,8.91372549 C10.8282509,8.91372549 11.4941176,8.24785879 11.4941176,7.42647059 C11.4941176,6.60508239 10.8282509,5.93921569 10.0068627,5.93921569 Z M16.5196078,1.70784314 C17.4985596,1.70784314 18.2921569,2.50144037 18.2921569,3.48039216 C18.2921569,4.45934395 17.4985596,5.25294118 16.5196078,5.25294118 C16.1822774,5.25294118 15.8669555,5.15871129 15.5985284,4.99513777 L13.7132089,6.86619847 C13.5564453,7.02185238 13.3031809,7.02095283 13.147527,6.86418927 C13.0113299,6.72702116 12.9949939,6.51596959 13.0980574,6.36107399 L13.1495362,6.29850741 L15.0255335,4.43456844 C14.8492527,4.15911633 14.7470588,3.83168857 14.7470588,3.48039216 C14.7470588,2.50144037 15.5406561,1.70784314 16.5196078,1.70784314 Z M3.48039216,1.70784314 C4.45934395,1.70784314 5.25294118,2.50144037 5.25294118,3.48039216 C5.25294118,3.83168857 5.15074728,4.15911633 4.97446645,4.43456844 L6.85050944,6.29855276 C7.00724796,6.45423189 7.00810676,6.70749642 6.85242763,6.86423493 C6.71620839,7.00138113 6.50527533,7.01918193 6.34966793,6.91719636 L6.28674546,6.86615312 L4.40234698,4.99460399 C4.13373017,5.15850627 3.81808939,5.25294118 3.48039216,5.25294118 C2.50144037,5.25294118 1.70784314,4.45934395 1.70784314,3.48039216 C1.70784314,2.50144037 2.50144037,1.70784314 3.48039216,1.70784314 Z M16.5196078,2.50784314 C15.9824839,2.50784314 15.5470588,2.94326816 15.5470588,3.48039216 C15.5470588,3.74895415 15.6559151,3.99209141 15.8319118,4.16808816 L15.8481593,4.18267348 L15.8481593,4.18267348 C16.025308,4.35172152 16.2606373,4.45294118 16.5196078,4.45294118 C17.0567318,4.45294118 17.4921569,4.01751615 17.4921569,3.48039216 C17.4921569,2.94326816 17.0567318,2.50784314 16.5196078,2.50784314 Z M3.48039216,2.50784314 C2.94326816,2.50784314 2.50784314,2.94326816 2.50784314,3.48039216 C2.50784314,4.01751615 2.94326816,4.45294118 3.48039216,4.45294118 C4.01751615,4.45294118 4.45294118,4.01751615 4.45294118,3.48039216 C4.45294118,2.94326816 4.01751615,2.50784314 3.48039216,2.50784314 Z"/>
</svg>
