<svg xmlns="http://www.w3.org/2000/svg" width="20" height="20" viewBox="0 0 20 20">
  <path fill="#707578" fill-rule="evenodd" d="M2.30987257,8.1666564 C2.49494037,8.09021224 2.70761681,8.13178829 2.85052811,8.27234898 L2.85052811,8.27234898 L7.15236857,12.5877251 C7.25117311,12.6771719 7.30600518,12.8055159 7.30243277,12.9389766 L7.30243277,12.9389766 L7.30243277,17.5052467 C7.29962154,17.7059996 7.1777923,17.8857466 6.9927245,17.9621908 C6.8076567,18.038635 6.59498026,17.9970589 6.45206896,17.8564982 L6.45206896,17.8564982 L2.1502285,13.5411221 C2.05142396,13.4516753 1.99659189,13.3233313 2.0001643,13.1898706 L2.0001643,13.1898706 L2.0001643,8.62360052 C2.00297553,8.42284763 2.12480477,8.24310056 2.30987257,8.1666564 Z M13.2049581,2 C13.3360244,2.00586294 13.460485,2.05937108 13.5551079,2.15053638 L13.5551079,2.15053638 L17.8569483,6.46591247 C17.9970681,6.60927343 18.0385138,6.82261906 17.9623094,7.00826917 C17.886105,7.19391928 17.7069217,7.31613185 17.5067985,7.31895193 L17.5067985,7.31895193 L7.85266818,7.31895193 C7.57640761,7.31895193 7.35245417,7.54361004 7.35245417,7.82073985 C7.35245417,8.09786966 7.57640761,8.32252777 7.85266818,8.32252777 L7.85266818,8.32252777 L10.6538666,8.32252777 C10.7869087,8.31894412 10.9148502,8.37394871 11.0040164,8.47306414 L11.0040164,8.47306414 L15.3058569,12.838619 C15.4459767,12.98198 15.4874223,13.1953256 15.4112179,13.3809757 C15.3350136,13.5666258 15.1558303,13.6888384 14.9557071,13.6916585 L14.9557071,13.6916585 L9.85352421,13.6916585 C9.72048213,13.6952421 9.59254065,13.6402375 9.5033744,13.5411221 L9.5033744,13.5411221 L2.1502285,6.16483972 C2.05142396,6.07539292 1.99659189,5.94704887 2.0001643,5.81358818 L2.0001643,5.81358818 L2.0001643,2.50178792 C2.01937211,2.23304338 2.23247671,2.01926825 2.50037831,2 L2.50037831,2 Z"/>
</svg>
