<svg width="20" height="20" viewBox="0 0 20 20" fill="none" xmlns="http://www.w3.org/2000/svg">
<path fill-rule="evenodd" clip-rule="evenodd" d="M19.25 1.87499V2.81874C19.4432 2.96365 19.6002 3.15137 19.7087 3.36717C19.8171 3.58297 19.874 3.82098 19.875 4.06249V5.31249C19.875 5.72688 19.7104 6.12431 19.4174 6.41734C19.1243 6.71036 18.7269 6.87498 18.3125 6.87498H16.4375C16.0242 6.87498 15.6277 6.71122 15.3349 6.41955C15.042 6.12787 14.8767 5.73205 14.875 5.31874V4.06874C14.875 3.82617 14.9315 3.58693 15.04 3.36997C15.1485 3.15301 15.306 2.96428 15.5 2.81874V1.87499C15.5 1.37772 15.6976 0.900803 16.0492 0.549173C16.4008 0.197544 16.8777 0 17.375 0C17.8723 0 18.3492 0.197544 18.7008 0.549173C19.0525 0.900803 19.25 1.37772 19.25 1.87499ZM17.6206 1.28631C17.5422 1.25685 17.4585 1.24447 17.375 1.25C17.2915 1.24447 17.2078 1.25685 17.1295 1.28631C17.0511 1.31576 16.98 1.36161 16.9208 1.42079C16.8616 1.47997 16.8158 1.5511 16.7863 1.62943C16.7569 1.70777 16.7445 1.79149 16.75 1.87499V2.49999H18V1.87499C18.0055 1.79149 17.9932 1.70777 17.9637 1.62943C17.9342 1.5511 17.8884 1.47997 17.8292 1.42079C17.77 1.36161 17.6989 1.31576 17.6206 1.28631ZM18.5335 5.53346C18.5921 5.47485 18.625 5.39537 18.625 5.31249V4.06249C18.625 3.97961 18.5921 3.90012 18.5335 3.84152C18.4749 3.78291 18.3954 3.74999 18.3125 3.74999H16.4375C16.3546 3.74999 16.2752 3.78291 16.2165 3.84152C16.1579 3.90012 16.125 3.97961 16.125 4.06249V5.31249C16.125 5.39537 16.1579 5.47485 16.2165 5.53346C16.2752 5.59206 16.3546 5.62498 16.4375 5.62498H18.3125C18.3954 5.62498 18.4749 5.59206 18.5335 5.53346ZM11.625 4.99999C11.9046 5.01 12.1711 5.12102 12.375 5.31249L13.9375 6.93748C14.127 7.11739 14.2391 7.36394 14.25 7.62498V18.4375C14.2517 18.6431 14.2124 18.847 14.1345 19.0374C14.0565 19.2277 13.9415 19.4006 13.7961 19.546C13.6507 19.6914 13.4778 19.8065 13.2874 19.8844C13.0971 19.9623 12.8932 20.0016 12.6875 19.9999H4.56255C4.35689 20.0016 4.15296 19.9623 3.96264 19.8844C3.77232 19.8065 3.59941 19.6914 3.45398 19.546C3.30856 19.4006 3.19353 19.2277 3.1156 19.0374C3.03766 18.847 2.99839 18.6431 3.00005 18.4375V6.56248C2.99839 6.35683 3.03766 6.1529 3.1156 5.96258C3.19353 5.77226 3.30856 5.59935 3.45398 5.45392C3.59941 5.3085 3.77232 5.19347 3.96264 5.11553C4.15296 5.0376 4.35689 4.99832 4.56255 4.99999H11.625ZM12.9819 18.5602C12.9966 18.5211 13.0028 18.4792 13 18.4375V7.74998L11.5 6.24999H4.56255C4.52079 6.24722 4.47893 6.25341 4.43977 6.26814C4.4006 6.28287 4.36503 6.30579 4.33544 6.33538C4.30586 6.36497 4.28293 6.40054 4.2682 6.4397C4.25348 6.47887 4.24729 6.52073 4.25005 6.56248V18.4375C4.24729 18.4792 4.25348 18.5211 4.2682 18.5602C4.28293 18.5994 4.30586 18.635 4.33544 18.6646C4.36503 18.6941 4.4006 18.7171 4.43977 18.7318C4.47893 18.7465 4.52079 18.7527 4.56255 18.75H12.6875C12.7293 18.7527 12.7711 18.7465 12.8103 18.7318C12.8495 18.7171 12.885 18.6941 12.9146 18.6646C12.9442 18.635 12.9671 18.5994 12.9819 18.5602ZM5.87948 10.0363C5.95782 10.0068 6.04154 9.99445 6.12504 9.99998H11.125C11.2085 9.99445 11.2923 10.0068 11.3706 10.0363C11.4489 10.0657 11.5201 10.1116 11.5792 10.1708C11.6384 10.2299 11.6843 10.3011 11.7137 10.3794C11.7432 10.4577 11.7556 10.5415 11.75 10.625V16.875C11.7556 16.9585 11.7432 17.0422 11.7137 17.1205C11.6843 17.1988 11.6384 17.27 11.5792 17.3292C11.5201 17.3883 11.4489 17.4342 11.3706 17.4636C11.2923 17.4931 11.2085 17.5055 11.125 17.5H6.12504C6.04154 17.5055 5.95782 17.4931 5.87948 17.4636C5.80115 17.4342 5.73001 17.3883 5.67084 17.3292C5.61166 17.27 5.56581 17.1988 5.53635 17.1205C5.5069 17.0422 5.49452 16.9585 5.50004 16.875V10.625C5.49452 10.5415 5.5069 10.4577 5.53635 10.3794C5.56581 10.3011 5.61166 10.2299 5.67084 10.1708C5.73001 10.1116 5.80115 10.0657 5.87948 10.0363ZM8.87503 11.25L10.5 12.875V11.25H8.87503ZM8.37504 16.25L6.75004 14.625V16.25H8.37504ZM6.75004 12.875L10.125 16.25H10.5V14.625L7.12504 11.25H6.75004V12.875Z" fill="#606B85"/>
</svg>
