<svg width="20" height="20" viewBox="0 0 20 20" fill="none" xmlns="http://www.w3.org/2000/svg">
<path fill-rule="evenodd" clip-rule="evenodd" d="M19.3102 1.97505C19.3664 2.03666 19.4097 2.1089 19.4375 2.1875C19.4673 2.26538 19.4812 2.34844 19.4784 2.43179C19.4756 2.51513 19.4562 2.59708 19.4213 2.67279C19.3863 2.74851 19.3366 2.81646 19.275 2.87266C19.2133 2.92885 19.1411 2.97215 19.0625 3L17.4375 3.5L18.4375 4.875C18.528 5.01066 18.5653 5.17494 18.5423 5.33639C18.5192 5.49784 18.4374 5.64511 18.3125 5.75C18.1985 5.81933 18.0703 5.86205 17.9375 5.875C17.7068 5.86539 17.4862 5.77717 17.3125 5.625L16.3125 4.25L15.3125 5.625C15.2577 5.70619 15.1829 5.77187 15.0953 5.81567C15.0077 5.85947 14.9103 5.8799 14.8125 5.875C14.6797 5.86205 14.5515 5.81933 14.4375 5.75C14.3149 5.64356 14.2348 5.49651 14.2119 5.3358C14.1889 5.1751 14.2246 5.0115 14.3125 4.875L15.3125 3.5L13.6875 3C13.6089 2.97215 13.5367 2.92885 13.475 2.87266C13.4134 2.81646 13.3637 2.74851 13.3287 2.67279C13.2938 2.59708 13.2744 2.51513 13.2716 2.43179C13.2688 2.34844 13.2827 2.26538 13.3125 2.1875C13.3404 2.1089 13.3836 2.03666 13.4398 1.97505C13.496 1.91343 13.564 1.86369 13.6397 1.82874C13.7154 1.7938 13.7974 1.77436 13.8807 1.77157C13.9641 1.76878 14.0471 1.7827 14.125 1.8125L15.75 2.3125V0.625C15.75 0.45924 15.8158 0.300268 15.9331 0.183058C16.0503 0.065848 16.2092 0 16.375 0C16.5408 0 16.6997 0.065848 16.8169 0.183058C16.9342 0.300268 17 0.45924 17 0.625V2.3125L18.625 1.8125C18.7029 1.7827 18.7859 1.76878 18.8693 1.77157C18.9526 1.77436 19.0346 1.7938 19.1103 1.82874C19.186 1.86369 19.254 1.91343 19.3102 1.97505ZM4.5 16.875V10.625C4.5 10.4592 4.56585 10.3003 4.68306 10.1831C4.80027 10.0658 4.95924 10 5.125 10H10.125C10.2908 10 10.4497 10.0658 10.5669 10.1831C10.6842 10.3003 10.75 10.4592 10.75 10.625V16.875C10.75 17.0408 10.6842 17.1997 10.5669 17.3169C10.4497 17.4342 10.2908 17.5 10.125 17.5H5.125C4.95924 17.5 4.80027 17.4342 4.68306 17.3169C4.56585 17.1997 4.5 17.0408 4.5 16.875ZM7.875 11.25L9.5 12.875V11.25H7.875ZM7.375 16.25L5.75 14.625V16.25H7.375ZM5.75 12.875L9.125 16.25H9.5V14.625L6.125 11.25H5.75V12.875ZM10.625 5C10.9046 5.01001 11.171 5.12103 11.375 5.3125L12.9375 6.9375C13.127 7.1174 13.239 7.36395 13.25 7.625V18.4375C13.25 18.8519 13.0854 19.2493 12.7924 19.5424C12.4993 19.8354 12.1019 20 11.6875 20H3.5625C3.1481 20 2.75067 19.8354 2.45765 19.5424C2.16462 19.2493 2 18.8519 2 18.4375V6.5625C2 6.1481 2.16462 5.75067 2.45765 5.45765C2.75067 5.16462 3.1481 5 3.5625 5H10.625ZM3.5625 18.75H11.6875C11.7704 18.75 11.8499 18.7171 11.9085 18.6585C11.9671 18.5999 12 18.5204 12 18.4375V7.75L10.5 6.25H3.5625C3.47962 6.25 3.40013 6.28292 3.34153 6.34153C3.28292 6.40013 3.25 6.47962 3.25 6.5625V18.4375C3.25 18.5204 3.28292 18.5999 3.34153 18.6585C3.40013 18.7171 3.47962 18.75 3.5625 18.75Z" fill="#606B85"/>
</svg>
