<svg xmlns="http://www.w3.org/2000/svg" width="24" height="24" viewBox="0 0 24 24">
  <path fill="#707578" fill-rule="evenodd" d="M19.5,11.5002695 C19.7761424,11.5002695 20,11.7240064 20,12 C19.9944253,15.004575 18.3152886,17.7560274 15.645,19.1361522 C15.323843,19.3061997 14.9894128,19.4499272 14.645,19.5659204 C12.4214997,20.326027 9.97694181,20.0796958 7.95,18.8912842 C7.81573361,18.8137776 7.72504166,18.6783998 7.70448525,18.5247991 C7.68392885,18.3711983 7.73583432,18.2167572 7.845,18.1067072 L7.845,18.1067072 L7.92044908,18.0452617 C8.08065521,17.9389325 8.29153726,17.9325634 8.46,18.036745 C9.53274796,18.6676215 10.7553253,18.9989892 12,18.9962276 C15.015899,18.9822236 17.6967719,17.0732061 18.695,14.2287982 C18.9219711,13.5084338 19.0250992,12.7548219 19,12 C19,11.7240064 19.2238576,11.5002695 19.5,11.5002695 Z M8.985,15.5530842 L7.335,17.202195 L7.335,17.2071923 L6.63,17.9118123 L6.625,17.9118123 L4.95,19.5859097 L4.95,15.5530842 L8.985,15.5530842 Z M15,11.5002695 C15.2761424,11.5002695 15.5,11.7240064 15.5,12 C15.5,13.9319549 13.9329966,15.4981138 12,15.4981138 C11.7238576,15.4981138 11.5,15.2743768 11.5,14.9983833 C11.5,14.7223897 11.7238576,14.4986527 12,14.4986527 C13.3807119,14.4986527 14.5,13.3799678 14.5,12 C14.5,11.7240064 14.7238576,11.5002695 15,11.5002695 Z M12,8.5018862 C12.2761424,8.5018862 12.5,8.72562318 12.5,9.00161674 C12.5,9.2776103 12.2761424,9.50134728 12,9.50134728 C10.6192881,9.50134728 9.5,10.6200322 9.5,12 C9.5,12.2759936 9.27614237,12.4997305 9,12.4997305 C8.72385763,12.4997305 8.5,12.2759936 8.5,12 C8.5,10.0680451 10.0670034,8.5018862 12,8.5018862 Z M9.355,4.43407957 C11.5785003,3.67397302 14.0230582,3.92030421 16.05,5.10871581 C16.1842664,5.18622235 16.2749583,5.32160018 16.2955147,5.47520094 C16.3160711,5.62880169 16.2641657,5.78324278 16.155,5.89329276 L16.155,5.89329276 L16.0795509,5.95473834 C15.9193448,6.06106754 15.7084627,6.0674366 15.54,5.96325503 C13.9519034,5.0366631 12.0647494,4.7659343 10.28,5.20866191 C9.63235482,5.35944938 9.01291071,5.61249173 8.445,5.95825773 C6.31012298,7.22320739 5.00077813,9.51949888 5,12 C5,12.2759936 4.77614237,12.4997305 4.5,12.4997305 C4.22385763,12.4997305 4,12.2759936 4,12 C4.00557473,8.99542495 5.68471142,6.24397263 8.355,4.86384784 C8.67615695,4.69380031 9.01058717,4.55007281 9.355,4.43407957 Z M19.05,4.40909304 L19.05,8.44691584 L15.015,8.44691584 L16.665,6.79780504 L16.665,6.79280774 L17.37,6.08818767 L17.375,6.08818767 L19.05,4.40909304 Z"/>
</svg>
