<svg xmlns="http://www.w3.org/2000/svg" width="24" height="24" viewBox="0 0 24 24">
  <path fill="#707578" fill-rule="evenodd" d="M6,8 L19.5,8 C19.7761424,8 20,7.77614237 20,7.5 L20,4.5 C20,4.22385763 19.7761424,4 19.5,4 L13.5,4 C13.2238576,4 13,4.22385763 13,4.5 L13,7 L6,7 C4.8954305,7 4,7.8954305 4,9 C4,10.1045695 4.8954305,11 6,11 L8,11 L8,13.5 C8,13.7761424 8.22385763,14 8.5,14 L18,14 C18.5522847,14 19,14.4477153 19,15 C19,15.5522847 18.5522847,16 18,16 L4.5,16 C4.22385763,16 4,16.2238576 4,16.5 L4,19.5 C4,19.7761424 4.22385763,20 4.5,20 L10.5,20 C10.7761424,20 11,19.7761424 11,19.5 L11,17 L18,17 C19.1045695,17 20,16.1045695 20,15 C20,13.8954305 19.1045695,13 18,13 L16,13 L16,10.5 C16,10.2238576 15.7761424,10 15.5,10 L6,10 C5.44771525,10 5,9.55228475 5,9 C5,8.44771525 5.44771525,8 6,8 Z M14,5 L19,5 L19,7 L14,7 L14,5 Z M10,19 L5,19 L5,17 L10,17 L10,19 Z M15,13 L9,13 L9,11 L15,11 L15,13 Z"/>
</svg>
