<svg xmlns="http://www.w3.org/2000/svg" width="20" height="20" viewBox="0 0 20 20">
  <path fill="#707578" fill-rule="evenodd" d="M16.7136108,3.46098783 C16.4742011,3.16949689 16.1163121,3.00032486 15.738376,3 L7.52428508,3 C5.02559143,3 3,5.01904515 3,7.50966356 L3,15.7423049 C3.00081936,16.0952663 3.15039828,16.4316404 3.41221264,16.6692913 C3.64077912,16.8801852 3.94026366,16.9981619 4.25171887,17 L4.35728552,17 C8.26325165,16.6592699 9.80150857,14.0336435 9.88696729,12.3299928 C11.7597678,11.7985131 13.1561864,10.2367677 13.4712065,8.32140301 C15.2590897,7.7947564 16.6077416,6.32509848 16.9750139,4.50322119 C17.0500789,4.13429226 16.9540211,3.75130282 16.7136108,3.46098783 Z M4.27182681,15.9878311 C4.20546862,15.9893457 4.14093279,15.9661164 4.0908554,15.9226915 C4.03804223,15.8773269 4.00698876,15.8117791 4.00539669,15.7423049 L4.00539669,12.5204009 L8.52968177,12.5204009 C8.64530239,12.5204009 8.75589602,12.5204009 8.87151664,12.5204009 C8.66541032,13.7179671 7.43882636,15.722262 4.27182681,15.9978525 L4.27182681,15.9878311 Z M8.52968177,11.5182539 L4.00539669,11.5182539 L4.00539669,8.51181102 L12.0485702,8.51181102 L12.4255939,8.51181102 C11.9669462,10.2824061 10.3642733,11.5191753 8.52968177,11.5182539 Z M12.0485702,7.50966365 L4.00539669,7.50966365 C4.00539669,5.57251591 5.58085668,4.0021183 7.52428508,4.0021183 L15.738376,4.0021183 C15.8152069,4.00095643 15.8880133,4.03631158 15.9344284,4.09735147 C15.9846035,4.15316145 16.0051355,4.2294425 15.9897252,4.3027917 C15.6074584,6.16945671 13.9599041,7.5100524 12.0485702,7.50966365 Z"/>
</svg>
