<svg width="20" height="20" viewBox="0 0 20 20" fill="none"><path fill-rule="evenodd" clip-rule="evenodd" d="M3.167 4A.167.167 0 0 0 3 4.167v8.666c0 .092.075.167.167.167h13.666a.167.167 0 0 0 .167-.167V4.167A.167.167 0 0 0 16.833 4H3.167ZM2 4.167C2 3.522 2.522 3 3.167 3h13.666C17.478 3 18 3.522 18 4.167v8.666c0 .645-.522 1.167-1.167 1.167H10.5v2h2a.5.5 0 0 1 0 1h-5a.5.5 0 0 1 0-1h2v-2H3.167A1.167 1.167 0 0 1 2 12.833V4.167ZM8 6.5a.5.5 0 0 1 .5-.5h6a.5.5 0 0 1 0 1h-6a.5.5 0 0 1-.5-.5ZM8.5 8a.5.5 0 0 0 0 1h6a.5.5 0 0 0 0-1h-6ZM8 10.5a.5.5 0 0 1 .5-.5h6a.5.5 0 0 1 0 1h-6a.5.5 0 0 1-.5-.5ZM5.5 6a.5.5 0 0 0 0 1h1a.5.5 0 0 0 0-1h-1ZM5 8.5a.5.5 0 0 1 .5-.5h1a.5.5 0 0 1 0 1h-1a.5.5 0 0 1-.5-.5Zm.5 1.5a.5.5 0 0 0 0 1h1a.5.5 0 0 0 0-1h-1Z" fill="#606B85"/></svg>