<svg xmlns="http://www.w3.org/2000/svg" width="24" height="24" viewBox="0 0 24 24">
  <path fill="#707578" fill-rule="evenodd" d="M16.5494113,20 C16.3110268,19.9991921 16.0771814,19.9346981 15.8720379,19.8131821 C14.4710294,18.9783648 13.1307229,18.0455102 11.8611335,17.0215889 C10.8317392,16.1729019 10.0210245,15.4469809 9.30098185,14.7263976 C8.58093918,14.0058143 7.79689273,13.1251013 6.90083964,12.0575705 C5.89860276,10.8101311 4.98773337,9.49185726 4.17534481,8.11304395 C3.87935855,7.59272631 3.96427446,6.93903654 4.38335714,6.51174767 L6.51681688,4.37668596 C7.044076,3.87443801 7.87233598,3.87443801 8.39959511,4.37668596 L10.9970823,6.97612359 C11.5158476,7.49690484 11.5158476,8.3395343 10.9970823,8.86031554 L10.2823733,9.57022356 L10.2823733,9.57022356 C10.9075385,10.3468211 11.5752705,11.0881147 12.2824918,11.7906877 C12.9584897,12.4692493 13.6706842,13.1107057 14.4159516,13.7122433 L15.1306606,13.0023353 C15.6510511,12.4831805 16.4930483,12.4831805 17.0134388,13.0023353 L19.6109261,15.6017729 C20.1296913,16.1225541 20.1296913,16.9651836 19.6109261,17.4859648 L17.4774663,19.6210265 C17.2288246,19.8628531 16.8961293,19.99871 16.5494113,20 Z M7.48220742,5.03321744 C7.41186478,5.03422013 7.3447674,5.06299774 7.29552969,5.11328225 L5.16206995,7.24834396 C5.07667051,7.33510568 5.05924492,7.4680756 5.11940075,7.57394087 C5.89824545,8.90020827 6.77167474,10.1685236 7.73288894,11.3690131 C8.60227378,12.4365439 9.36498564,13.2638803 10.0636937,13.963113 C10.8515142,14.7456584 11.6793407,15.4868076 12.5438407,16.1835772 C13.7702011,17.1754444 15.0660443,18.0780427 16.4214037,18.8844303 C16.5275384,18.9428132 16.6592542,18.925526 16.7467564,18.841729 L16.7467564,18.841729 L18.8802161,16.7066673 C18.9307025,16.6565557 18.9591003,16.5883415 18.9591003,16.5171806 C18.9591003,16.4460196 18.9307025,16.3778055 18.8802161,16.3276939 L16.2880625,13.7282562 C16.1825556,13.6258889 16.0148803,13.6258889 15.9093734,13.7282562 L14.8426435,14.7957871 C14.6500734,14.9869325 14.3448243,15.0030103 14.1332682,14.8331507 L13.7599127,14.534242 C12.9850575,13.9091373 12.2443866,13.2427457 11.5411146,12.5379593 C10.8142132,11.7988928 10.1286828,11.020187 9.48765958,10.2054044 L9.18897521,9.83176862 C9.02065773,9.61872937 9.03902328,9.31317296 9.23164441,9.1218606 L10.2983743,8.05432975 C10.3488606,8.00421809 10.3772585,7.93600397 10.3772585,7.86484302 C10.3772585,7.79368207 10.3488606,7.72546796 10.2983743,7.6753563 L7.6635515,5.11328225 C7.61531657,5.06471976 7.55056606,5.03613191 7.48220742,5.03321744 Z"/>
</svg>
