<svg xmlns="http://www.w3.org/2000/svg" width="24" height="24" viewBox="0 0 24 24">
  <path fill="#707578" fill-rule="evenodd" d="M9.67939521,17.2021339 C10.4207513,17.6162232 10.6747313,18.5329201 10.2467514,19.2499078 C9.8187714,19.9668954 8.87080992,20.2128141 8.12913682,19.799256 C7.38746371,19.3856978 7.1327815,18.4691831 7.56021207,17.751889 C7.76567427,17.407092 8.10446656,17.1554148 8.5019582,17.0522982 C8.89944985,16.9491815 9.32303171,17.0030848 9.67939521,17.2021339 Z M5.55039196,8.09656634 C7.19439206,5.25128623 10.4597873,3.65548075 13.8040492,4.06298682 C14.0895108,4.09748924 14.2919966,4.34921694 14.2563139,4.62523636 C14.2206312,4.90125578 13.9602923,5.09704399 13.6748307,5.06254156 C10.7530739,4.71094993 7.90231695,6.10613422 6.46531396,8.59093941 C5.02831096,11.0757446 5.29161548,14.1546743 7.1312067,16.3775013 C7.3083303,16.5917816 7.27372775,16.9040563 7.05367561,17.0771896 L7.05367561,17.0771896 L7.05367561,17.0871851 C6.94624614,17.1704719 6.80888775,17.2088677 6.67206877,17.1938556 C6.53524979,17.1788436 6.4102813,17.1116649 6.32488336,17.0072208 C4.21280398,14.4671696 3.90639187,10.9418465 5.55039196,8.09656634 Z M12.7806388,10.0103375 C13.0343825,10.0103375 13.2454205,10.187134 13.2891852,10.4202793 L13.2975128,10.5101149 C13.2975128,10.7861343 13.0661004,11.0098923 12.7806388,11.0098923 L11.746891,11.0098923 L11.746891,12.009447 L12.7806388,12.009447 C13.0661004,12.009447 13.2975128,12.233205 13.2975128,12.5092244 L13.2975128,14.5083339 C13.2975128,14.7843533 13.0661004,15.0081113 12.7806388,15.0081113 L11.230017,15.0081113 C10.9762734,15.0081113 10.7652353,14.8313149 10.7214706,14.5981695 L10.7131431,14.5083339 C10.7131431,14.2323145 10.9445554,14.0085565 11.230017,14.0085565 L12.2637649,14.0085565 L12.2637649,13.0090018 L11.230017,13.0090018 C10.9445554,13.0090018 10.7131431,12.7852438 10.7131431,12.5092244 L10.7131431,10.5101149 C10.7131431,10.2340955 10.9445554,10.0103375 11.230017,10.0103375 L12.7806388,10.0103375 Z M18.9831261,10.0103375 C19.2685877,10.0103375 19.5,10.2340955 19.5,10.5101149 L19.5,10.5101149 L19.5,12.5092244 C19.5,12.7852438 19.2685877,13.0090018 18.9831261,13.0090018 L18.9831261,13.0090018 L17.4325043,13.0090018 L17.4325043,14.5083339 C17.4325043,14.7843533 17.2010919,15.0081113 16.9156303,15.0081113 L16.9156303,15.0081113 L16.8227216,15.0000592 C16.5816007,14.9577421 16.3987564,14.7536845 16.3987564,14.5083339 L16.3987564,14.5083339 L16.3987564,10.5101149 C16.3987564,10.2340955 16.6301687,10.0103375 16.9156303,10.0103375 L16.9156303,10.0103375 Z M14.8481346,10.0103375 C15.1335962,10.0103375 15.3650085,10.2340955 15.3650085,10.5101149 L15.3650085,14.5083339 C15.3650085,14.7536845 15.1821642,14.9577421 14.9410433,15.0000592 L14.8481346,15.0081113 C14.562673,15.0081113 14.3312606,14.7843533 14.3312606,14.5083339 L14.3312606,10.5101149 C14.3312606,10.2647643 14.514105,10.0607067 14.7552258,10.0183896 L14.8481346,10.0103375 Z M18.4662521,11.0098923 L17.4325043,11.0098923 L17.4325043,12.009447 L18.4662521,12.009447 L18.4662521,11.0098923 Z M15.3133211,4.76767291 C15.7415757,4.05083855 16.6896313,3.8052594 17.4311459,4.21908312 C18.1726606,4.63290685 18.4269917,5.54951274 17.9992864,6.26665363 C17.5715811,6.98379453 16.6237139,7.23005265 15.8818824,6.81676014 C15.5252904,6.61809398 15.2650038,6.29050788 15.1583597,5.906164 C15.0517156,5.52182013 15.1074628,5.11224902 15.3133211,4.76767291 Z"/>
</svg>
