<svg xmlns="http://www.w3.org/2000/svg" width="20" height="20" fill="none" viewBox="0 0 20 20">
  <path fill="#606B85" d="M10 6c-2.218 0-4 1.782-4 4s1.782 4 4 4 4-1.782 4-4-1.818-4-4-4Zm0 6.91c-1.6 0-2.91-1.31-2.91-2.91S8.4 7.09 10 7.09 12.91 8.4 12.91 10 11.6 12.91 10 12.91ZM4.182 2A2.165 2.165 0 0 0 2 4.182c0 1.2.982 2.182 2.182 2.182s2.182-.982 2.182-2.182S5.382 2 4.182 2Zm0 3.273c-.618 0-1.091-.473-1.091-1.091S3.564 3.09 4.18 3.09c.619 0 1.092.473 1.092 1.09 0 .619-.51 1.092-1.091 1.092Zm0 8.363c-1.2 0-2.182.982-2.182 2.182S2.982 18 4.182 18s2.182-.982 2.182-2.182-.982-2.182-2.182-2.182Zm0 3.273a1.072 1.072 0 0 1-1.091-1.09c0-.619.473-1.092 1.09-1.092.619 0 1.092.473 1.092 1.091s-.51 1.091-1.091 1.091Zm11.636-3.273c-1.2 0-2.182.982-2.182 2.182S14.618 18 15.818 18 18 17.018 18 15.818s-.982-2.182-2.182-2.182Zm0 3.273a1.07 1.07 0 0 1-1.09-1.09c0-.619.472-1.092 1.09-1.092.618 0 1.091.473 1.091 1.091s-.509 1.091-1.09 1.091Zm0-14.909c-1.2 0-2.182.982-2.182 2.182s.982 2.182 2.182 2.182S18 5.382 18 4.182 17.018 2 15.818 2Zm0 3.273c-.618 0-1.09-.473-1.09-1.091s.472-1.091 1.09-1.091c.618 0 1.091.473 1.091 1.09 0 .619-.509 1.092-1.09 1.092Z"/>
  <path fill="#606B85" fill-rule="evenodd" d="m15.077 5.695-2.255 2.254-.771-.771 2.254-2.255.772.772Zm-7.2 7.2-2.219 2.218-.771-.771 2.218-2.219.772.772ZM5.662 5.072 7.88 7.327l-.778.765-2.218-2.255.778-.765Zm7.048 7.085 2.218 2.181-.765.778-2.218-2.182.765-.777Z" clip-rule="evenodd"/>
</svg>
