<svg xmlns="http://www.w3.org/2000/svg" width="24" height="24" viewBox="0 0 24 24">
  <path fill="#707578" fill-rule="evenodd" d="M12.7218391,8.54707015 L15.6122156,11.3088255 C15.8703436,11.5554977 15.9711541,11.9150303 15.8766727,12.2519908 C15.7821913,12.5889513 15.5067719,12.8521475 15.1541625,12.9424358 C14.8015531,13.0327241 14.4253233,12.9363876 14.1671953,12.6897153 L11.2768188,9.92796001 C10.0787905,8.78865859 8.14183996,8.79091103 6.9467168,9.93299538 C5.75159364,11.0750797 5.7492385,12.9260679 6.94145182,14.0709262 L9.83181128,16.8330106 C10.1240125,17.1122933 10.2114167,17.5322711 10.0532748,17.8971432 C9.89513279,18.2620154 9.52258115,18.4999991 9.10930963,18.4999991 C8.83822429,18.5003434 8.57818539,18.3973747 8.38680374,18.2139045 L5.49642728,15.4518038 C3.50118842,13.5451109 3.50119127,10.4537536 5.49643365,8.54706406 C7.49167604,6.6403745 10.7266002,6.64037723 12.7218391,8.54707015 Z M15.6122028,5.78498573 L18.5025793,8.5470864 C19.9644354,9.94294521 20.4019277,12.043119 19.6108982,13.8675506 C18.8198687,15.6919822 16.9562449,16.8810397 14.8896969,16.8798503 C13.534563,16.8820721 12.2343659,16.3681515 11.2768188,15.4518038 L8.38680374,12.6897153 C8.12805176,12.4431653 8.0267676,12.0833395 8.12116875,11.746011 C8.2155699,11.4086825 8.49128554,11.1452032 8.84428004,11.0549916 C9.19727454,10.96478 9.57381106,11.0615692 9.83181128,11.3088377 L12.7218391,14.0709262 C13.9198606,15.2103783 15.8569424,15.2082253 17.0521871,14.0661133 C18.2474318,12.9240012 18.2498329,11.0728879 17.0575547,9.92794782 L14.1671953,7.16586339 C13.7691578,6.78438259 13.7696278,6.16691648 14.1682456,5.78598943 C14.5668634,5.40506239 15.2130055,5.40461325 15.6122028,5.78498573 Z"/>
</svg>
