<svg xmlns="http://www.w3.org/2000/svg" width="20" height="20" viewBox="0 0 20 20">
  <path fill="#707578" fill-rule="evenodd" d="M8.38749365,1.51798982 C8.61880513,1.46811919 8.86084257,1.52317948 9.0455961,1.66769936 C9.23038578,1.81224752 9.3379737,2.03069527 9.3379737,2.26164574 L9.3379737,2.26164574 L9.337,2.906 L14.3310131,2.90684498 C14.7267294,2.90684498 15.0537646,3.19342954 15.1055224,3.5652536 L15.1126579,3.66862227 L15.1126579,4.72385466 C15.1126579,4.95030972 14.924292,5.13388782 14.6919309,5.13388782 C14.4886149,5.13388782 14.3189828,4.99333584 14.2797516,4.80649064 L14.2712039,4.72385466 L14.2702552,3.7265093 L9.337,3.726 L9.337,16.273 L14.2702552,16.2724989 L14.2712039,15.2909518 C14.2712039,15.0928037 14.4154216,14.9274832 14.6071397,14.8892491 L14.6919309,14.8809187 C14.8952469,14.8809187 15.064879,15.0214707 15.1041102,15.2083159 L15.1126579,15.2909518 L15.1126579,16.331411 C15.1126579,16.7170691 14.8185991,17.0357919 14.4370777,17.0862341 L14.3310131,17.0931883 L9.337,17.093 L9.3379737,17.7383875 C9.3379737,17.9308462 9.26325987,18.1146225 9.13141678,18.2541857 L9.0455961,18.3323339 C8.86084257,18.4768538 8.61880513,18.5319141 8.38714027,18.4819671 L8.38714027,18.4819671 L2.61280952,17.2319448 C2.2549421,17.1547888 2.00014421,16.8456538 2,16.4882889 L2,16.4882889 L2,3.51228657 C2.00014421,3.15508291 2.2549421,2.84594791 2.61240715,2.76887889 L2.61240715,2.76887889 Z M8.49577726,2.33444673 L2.8412065,3.55839571 L2.8412065,16.4406125 L8.49577726,17.6655865 L8.49577726,2.33444673 Z M14.3310131,5.72079802 C15.702217,5.72079802 16.8241823,6.76079171 16.9117456,8.07557253 L16.9172467,8.24129597 L16.917,8.534 L17.579273,8.53475107 C17.782589,8.53475107 17.9522211,8.67530305 17.9914523,8.86214825 L18,8.94478423 L18,13.8692021 C18,14.0956571 17.8116341,14.2792352 17.579273,14.2792352 L17.579273,14.2792352 L11.0827533,14.2792352 C10.8503922,14.2792352 10.6620263,14.0956571 10.6620263,13.8692021 L10.6620263,13.8692021 L10.6620263,8.94478423 C10.6620263,8.71832917 10.8503922,8.53475107 11.0827533,8.53475107 L11.0827533,8.53475107 L11.744,8.534 L11.7447796,8.24129597 C11.7447796,6.84926339 12.9026758,5.72079802 14.3310131,5.72079802 Z M17.1574942,9.3542144 L11.5029234,9.3542144 L11.5029234,13.4586463 L17.1574942,13.4586463 L17.1574942,9.3542144 Z M14.3310131,10.1175997 L14.4285286,10.1252682 C14.7141794,10.1706761 14.932199,10.412277 14.932199,10.7035049 C14.932199,10.8657604 14.8645239,11.0126113 14.7551822,11.1187103 L14.75504,12.4622255 C14.75504,12.6886806 14.5659354,12.8722587 14.3326631,12.8722587 C14.1285498,12.8722587 13.9582524,12.7317067 13.9188674,12.5448615 L13.9102862,12.4622255 L13.9105984,11.1223217 C13.7990536,11.0159564 13.7298273,10.8676095 13.7298273,10.7035049 C13.7298273,10.412277 13.9478469,10.1706761 14.2334977,10.1252682 L14.3310131,10.1175997 Z M5.78165822,8.6603884 C6.21780589,8.47193237 6.72390195,8.49548937 7.14256253,8.73105941 C7.60774094,8.9928039 7.89430266,9.47652765 7.89430266,10.0000166 C7.89430266,10.5235056 7.60774094,11.0072293 7.14256253,11.2689738 C6.6773841,11.5307183 6.10426065,11.5307183 5.63908223,11.2689738 C5.17390381,11.0072293 4.8873421,10.5235056 4.8873421,10.0000166 C4.8873421,9.47652765 5.17390381,8.9928039 5.63908223,8.73105941 L5.63908223,8.73105941 Z M6.72183553,9.44125767 C6.51700388,9.32600393 6.26464088,9.32600393 6.05980923,9.44125767 C5.85497758,9.55651142 5.72879608,9.76950912 5.72879608,10.0000166 C5.72879608,10.2305241 5.85497758,10.4435218 6.05980923,10.5587756 C6.26464088,10.6740293 6.51700388,10.6740293 6.72183553,10.5587756 C6.92666718,10.4435218 7.05284867,10.2305241 7.05284867,10.0000166 C7.05284867,9.76950912 6.92666718,9.55651142 6.72183553,9.44125767 Z M14.3310131,6.54086434 C13.4181146,6.54086434 12.6689668,7.22414459 12.5926379,8.09457622 L12.5862336,8.24129597 L12.586,8.534 L16.075,8.534 L16.0757927,8.24129597 C16.0757927,7.30217351 15.2946283,6.54086434 14.3310131,6.54086434 Z"/>
</svg>
