<svg width="20" height="20" viewBox="0 0 20 20" fill="none" xmlns="http://www.w3.org/2000/svg">
<path fill-rule="evenodd" clip-rule="evenodd" d="M7.08067 9.32989L7.08968 9.30318L9.78448 1.70436C10.1188 0.761706 11.5213 1.00044 11.5213 1.99999L11.5213 7.89566L12.2902 7.89576C12.8954 7.89576 13.3228 8.48002 13.1435 9.04925L13.1347 9.07592L10.1532 17.6246C9.82299 18.5715 8.41486 18.3355 8.41486 17.3333L8.41478 10.4877L7.93265 10.4877C7.32552 10.4877 6.89792 9.89998 7.08067 9.32989ZM10.6274 8.78465V1.99999L7.93265 9.59881H9.30872V17.3333L12.2902 8.78465H10.6274ZM4.6222 3.9811C4.61233 3.74587 4.41833 3.55732 4.17898 3.55555C3.93216 3.55374 3.73058 3.75124 3.72875 3.9967L3.64495 15.2323L3.64533 15.2545C3.6552 15.4898 3.84921 15.6783 4.08855 15.6801C4.33538 15.6819 4.53695 15.4844 4.53878 15.2389L4.62258 4.00329L4.6222 3.9811ZM0.446927 6.31985C0.686279 6.31985 0.881685 6.50696 0.893308 6.74212L0.893855 6.7643V13.0135C0.893855 13.2589 0.693758 13.4579 0.446927 13.4579C0.207576 13.4579 0.0121699 13.2708 0.000546951 13.0356L0 13.0135V6.7643C0 6.51884 0.200096 6.31985 0.446927 6.31985ZM19.4469 6.31985C19.6863 6.31985 19.8817 6.50696 19.8933 6.74212L19.8939 6.7643V13.0135C19.8939 13.2589 19.6938 13.4579 19.4469 13.4579C19.2076 13.4579 19.0122 13.2708 19.0005 13.0356L19 13.0135V6.7643C19 6.51884 19.2001 6.31985 19.4469 6.31985ZM16.034 3.55555C16.2734 3.55733 16.4674 3.74588 16.4772 3.98111L16.4776 4.0033L16.3938 15.2389C16.392 15.4844 16.1904 15.6819 15.9436 15.6801C15.7043 15.6783 15.5103 15.4898 15.5004 15.2545L15.5 15.2323L15.5838 3.9967C15.5856 3.75125 15.7872 3.55375 16.034 3.55555Z" fill="#606B85"/>
</svg>
