<svg width="20" height="20" viewBox="0 0 20 20" fill="none"><path fill-rule="evenodd" clip-rule="evenodd" d="M7.856 4c0 1.105.874 2 1.952 2 1.079 0 1.953-.895 1.953-2s-.874-2-1.953-2c-1.078 0-1.952.895-1.952 2ZM4.603 9.333v5.334h1.301V16a.66.66 0 0 1-.65.667H3.951a.66.66 0 0 1-.65-.667v-3.333H2v-4c0-.737.583-1.334 1.301-1.334h1.97a3.348 3.348 0 0 0-.668 2ZM11.11 18H8.507a.66.66 0 0 1-.65-.667v-4H5.903v-4c0-1.105.874-2 1.952-2h3.905c1.078 0 1.952.895 1.952 2v4H11.76v4a.66.66 0 0 1-.651.667ZM3.302 5.334c0 .736.582 1.333 1.301 1.333.72 0 1.302-.597 1.302-1.333C5.905 4.596 5.322 4 4.603 4c-.719 0-1.301.597-1.301 1.333Zm11.712 9.333V9.333c0-.753-.254-1.441-.668-2h1.97c.718 0 1.3.597 1.3 1.334v4h-1.3V16a.66.66 0 0 1-.651.667h-1.301a.66.66 0 0 1-.651-.667v-1.333h1.3Zm1.301-9.334c0 .737-.582 1.334-1.301 1.334s-1.302-.597-1.302-1.333c0-.737.583-1.334 1.302-1.334.719 0 1.301.597 1.301 1.333Z" fill="#606B85"/></svg>