<svg xmlns="http://www.w3.org/2000/svg" width="24" height="24" viewBox="0 0 24 24">
  <path fill="#707578" fill-rule="evenodd" d="M19.3433678,15.1666533 C19.3727437,15.0988111 19.3979911,15.029109 19.4255068,14.9603348 C19.4832786,14.8154427 19.5372418,14.6696706 19.5861004,14.5224346 C19.6157444,14.433593 19.6445322,14.3447034 19.6710998,14.2545218 C19.7150017,14.1046218 19.7528708,13.9536739 19.7877395,13.802042 C19.8187756,13.6679656 19.8457473,13.5328132 19.8699305,13.3962409 C19.8948579,13.2543767 19.918029,13.1124365 19.9352193,12.9697643 C19.9491372,12.8554594 19.9593465,12.7403745 19.9683557,12.6246576 C19.977537,12.5049328 19.9827577,12.3852361 19.9865702,12.2653393 C19.9894986,12.1765417 20,12.089636 20,12.0001144 C20,11.8898614 19.9878904,11.7826883 19.9834458,11.6735112 C19.9789292,11.5659141 19.9759488,11.458281 19.9671116,11.3509359 C19.955462,11.2070197 19.9380277,11.0651276 19.9188371,10.9234314 C19.9092358,10.8530973 19.8981063,10.7831031 19.8866288,10.713037 C19.8091305,10.2354535 19.688002,9.76597981 19.5247641,9.31051074 C19.5044734,9.25377626 19.4841347,9.19713779 19.4625238,9.1408153 C19.4079524,8.99899912 19.3512808,8.85867089 19.2889925,8.7208266 C19.2672335,8.6725359 19.2425862,8.62539716 19.2198152,8.57747045 C19.0939646,8.31288645 18.9536291,8.0554365 18.7994467,7.80629119 C18.7732232,7.76396033 18.7489999,7.72069349 18.7219003,7.67878262 C18.6370889,7.54736615 18.5470768,7.42031757 18.4549684,7.29434496 C18.4390742,7.27268954 18.4253004,7.24988615 18.4091622,7.22834673 C18.3987436,7.2144947 18.3876013,7.20120191 18.3757817,7.1885238 C16.4859738,4.67513469 13.2972936,3.50395372 10.2295933,4.19648311 C7.16189296,4.88901249 4.78585202,7.31642207 4.15947142,10.3978375 L4.15842327,10.4005454 C4.11007678,10.638235 4.07660028,10.8760726 4.04988869,11.1137262 C4.04428794,11.1644569 4.03970332,11.2153595 4.0350427,11.2663861 C3.98731418,11.7747138 3.98834301,12.2864414 4.03811511,12.794573 C4.03987134,12.8122726 4.04204364,12.8297721 4.04392389,12.8474556 C4.09811055,13.365017 4.20307374,13.8759959 4.357298,14.3730146 L4.36017839,14.3818784 C4.58985425,15.1171823 4.9254457,15.8151089 5.35638025,16.4536706 L5.37486674,16.4813819 C5.64832978,16.8835006 5.95793155,17.2598237 6.29981903,17.6056677 C6.33810417,17.6445586 6.37748946,17.6820656 6.41653471,17.7201646 C6.54284502,17.8428413 6.67369727,17.9617714 6.80909146,18.076955 C6.8614425,18.1217298 6.91254936,18.1676006 6.96607256,18.2110354 C6.98269879,18.224487 6.99791283,18.2391826 7.01466308,18.2525103 C7.02254814,18.2587861 7.03238947,18.261006 7.04059057,18.2667699 C8.89881709,19.7437457 11.318219,20.3169426 13.6417178,19.8306877 C15.9652167,19.3444328 17.9516052,17.8492052 19.0614059,15.7510895 C19.0645303,15.7457177 19.0692189,15.7416898 19.0721473,15.7361739 C19.1712006,15.549259 19.2603726,15.3589081 19.3433678,15.1666533 Z M18.9734941,12.5203804 C18.9669492,12.609902 18.9622926,12.6995476 18.9522912,12.7888772 C18.9326886,12.9624725 18.9056329,13.1337679 18.8735486,13.3032914 C18.8579465,13.3863491 18.839288,13.4688869 18.8206335,13.5514807 C18.7911629,13.6810425 18.7581345,13.8091884 18.7215482,13.9359184 C18.7035778,13.9985127 18.6880237,14.061599 18.668269,14.1237773 C18.6112294,14.3024125 18.5461326,14.4774318 18.4754231,14.6495712 C18.4510199,14.7091696 18.4242443,14.76812 18.3980927,14.8272264 C18.3717692,14.8864768 18.3416852,14.9435793 18.3137774,15.0019807 L17.3469075,15.0019807 C17.1021903,15.0028267 16.8930814,14.8258639 16.8534852,14.5844089 L16.3260703,11.4178941 C16.2857903,11.1767962 16.0771178,11.0001279 15.83264,11.0001413 L14.7797665,11.0001413 C14.7387846,11.0002215 14.6979577,10.9951077 14.6582662,10.9849057 C14.3907419,10.9174912 14.228232,10.6463356 14.2949374,10.378674 L14.7950046,8.3787278 C14.850332,8.15609905 15.0503984,7.99990734 15.2798337,8.0002215 L17.7340715,8.0002215 C17.8084455,8.10615113 17.8775228,8.2148162 17.9454039,8.32401727 C17.9722635,8.3672761 17.9988751,8.41065894 18.0248066,8.45455376 C18.0914915,8.56735072 18.1566603,8.68089167 18.2165323,8.79668456 L18.2170924,8.79788452 C18.3445188,9.04608326 18.4568565,9.30174058 18.5534936,9.56346394 C18.5694958,9.60643078 18.5856739,9.64934963 18.600888,9.69270846 C18.7343432,10.0751819 18.8343491,10.4685136 18.8997802,10.8682768 C18.9097815,10.9294352 18.9195308,10.9906376 18.9279559,11.0523079 C18.9445102,11.1727647 18.9598962,11.2934134 18.9701976,11.4145302 C18.9832874,11.5716539 18.9917605,11.7300217 18.9942729,11.8898814 C18.9959851,11.9904427 18.9927607,12.091048 18.9901723,12.1916573 C18.9871692,12.3018943 18.9816098,12.4114687 18.9734941,12.5203804 Z M7.50808539,14.4020018 L7.00836224,16.9006626 C6.87221194,16.7620903 6.74067427,16.6189542 6.61634156,16.4695182 C6.60562012,16.4567026 6.59495202,16.4438376 6.58433726,16.4309233 C5.56076842,15.1862857 5.00040477,13.6253522 4.99869219,12.013994 C4.99869219,12.0049623 4.99863928,11.9959545 4.99863928,11.9869228 C4.99908424,11.7586089 5.01104585,11.532979 5.03294879,11.310229 C5.03517309,11.2878696 5.0382495,11.2655062 5.04068983,11.2431188 C5.04957902,11.161017 5.06615725,11.0813791 5.07789483,11.0001568 L8.21757273,11.0001568 C8.44700955,10.9998408 8.6470781,11.1560329 8.70240588,11.3786631 L9.20327318,13.3811453 C9.21309503,13.4200243 9.21795167,13.4599906 9.21773457,13.5000901 C9.21747128,13.776119 8.99373337,13.9998208 8.71765993,14.0000766 L7.99838727,14.0000766 C7.76004146,14.0001145 7.55484393,14.1683252 7.50808539,14.4020018 L7.50808539,14.4020018 Z M11.9989248,18.9999262 C10.5164183,18.9995087 9.07284078,18.52541 7.87883921,17.6468106 L8.40820634,15.0000337 L8.71762392,15.0000337 C9.54575845,14.9990595 10.2168511,14.328075 10.2178255,13.5000741 C10.2180558,13.3773265 10.2029638,13.2550301 10.1728995,13.1360199 L9.67283228,11.1360736 C9.50650003,10.4680272 8.90610295,9.99939128 8.21755672,10.0001682 L5.29282371,10.0001682 C5.99069404,7.64997759 7.86913921,5.83720837 10.242948,5.22311475 C12.6167568,4.60902114 15.1388229,5.28339794 16.889158,7.00024887 L15.2798337,7.00024887 C14.5912885,6.99947236 13.9908928,7.46810845 13.8245622,8.13615432 L13.324495,10.1361005 C13.1245394,10.9388941 13.6118099,11.7521339 14.4140934,11.9546076 C14.5336152,11.9849336 14.6564563,12.0002207 14.7797665,12.0001144 L15.4091471,12.0001144 L15.8666446,14.7490645 C15.9858878,15.4732033 16.6129159,16.0039155 17.3469195,16.0019588 L17.7345476,16.0019588 C16.4279342,17.8788197 14.2860583,18.9983623 11.9989248,18.9999262 L11.9989248,18.9999262 Z"/>
</svg>
