<svg width="20" height="20" viewBox="0 0 20 20" fill="none"><path fill-rule="evenodd" clip-rule="evenodd" d="M10.186 3.116a1.451 1.451 0 1 0 0 2.903 1.451 1.451 0 0 0 0-2.903ZM7.619 4.567a2.567 2.567 0 1 1 5.134 0 2.567 2.567 0 0 1-5.134 0Zm-3.052 7.777c-.226 0-.422.035-.531.09l-.017.008-.016.007a1.495 1.495 0 0 0-.887 1.346c0 .808.643 1.451 1.451 1.451.36 0 .715-.154 1.004-.414.258-.233.448-.605.448-1.037 0-.77-.68-1.45-1.452-1.45Zm-1.013-.917c.333-.161.724-.2 1.013-.2 1.388 0 2.568 1.181 2.568 2.568 0 .759-.332 1.43-.817 1.866-.456.41-1.068.702-1.75.702A2.56 2.56 0 0 1 2 13.795c0-1.041.652-1.98 1.554-2.368Zm11.879.917a1.451 1.451 0 1 0 0 2.902 1.451 1.451 0 0 0 0-2.902Zm-2.568 1.451a2.567 2.567 0 1 1 5.135 0 2.567 2.567 0 0 1-5.135 0Z" fill="#606B85"/><path fill-rule="evenodd" clip-rule="evenodd" d="M8.512 5.291c-2.446.68-4.205 2.885-4.205 5.49 0 .3.033.603.071.943l-1.11.124-.001-.014a9.518 9.518 0 0 1-.076-1.053c0-3.124 2.11-5.756 5.022-6.565l.3 1.075ZM6.169 14.98c1.021.92 2.38 1.494 3.831 1.494 1.487 0 2.808-.573 3.831-1.494l.747.83c-1.21 1.089-2.791 1.78-4.578 1.78-1.748 0-3.367-.69-4.578-1.78l.747-.83Zm9.487-4.199a5.666 5.666 0 0 0-3.694-5.319l.392-1.045a6.783 6.783 0 0 1 4.418 6.364c0 .366-.04.727-.076 1.053l-.002.014-1.11-.124c.039-.34.072-.644.072-.943Zm-2.78-1.801L9.89 13.247l-2.703-2.703.79-.789 1.761 1.762 2.223-3.176.915.64Z" fill="#606B85"/></svg>