<svg xmlns="http://www.w3.org/2000/svg" width="20" height="20" viewBox="0 0 20 20">
  <path fill="#707578" fill-rule="evenodd" d="M16.5,2 C17.3280232,2.00097424 17.9990258,2.67197676 18.0000302,3.5 L18.0000302,3.5 L18.0000302,8.624608 C18.0116259,13.2648603 14.6604018,17.2305376 10.0832,17.992968 C10.0281295,18.0023431 9.97187052,18.0023431 9.9168,17.992968 C5.33959817,17.2305376 1.98837408,13.2648603 1.99996984,8.624608 L1.99996984,8.624608 L1.99996984,3.5 C2.00097424,2.67197676 2.67197676,2.00097424 3.5,2 L3.5,2 Z M16.5,3 L3.5,3 C3.22396365,3.00025581 3.00025581,3.22396365 2.99997272,3.5 L2.99997272,3.5 L2.99997272,8.624608 C2.98961941,12.7444464 5.94310253,16.2751127 10,16.99258 C14.0568975,16.2751127 17.0103806,12.7444464 17.0000273,8.624608 L17.0000273,8.624608 L17.0000273,3.5 C16.9997442,3.22396365 16.7760363,3.00025581 16.5,3 L16.5,3 Z M10.0106165,4.99471423 C11.4600636,4.99964104 12.6571098,6.1282317 12.7472676,7.57488037 C12.8374255,9.02152904 11.7897695,10.2900137 10.352148,10.474852 C11.9275246,10.5960987 13.3251249,11.5314669 14.037892,12.9416 C14.1614084,13.1880749 14.0621008,13.48802 13.8159029,13.6120877 C13.5697051,13.7361555 13.2695385,13.6375195 13.14492,13.3916 C12.54653,12.2038199 11.3299971,11.4545027 10,11.4545027 C8.67000294,11.4545027 7.45347002,12.2038199 6.85508,13.3916 C6.7304615,13.6375195 6.43029489,13.7361555 6.18409706,13.6120877 C5.93789922,13.48802 5.83859163,13.1880749 5.962108,12.9416 C6.39988494,12.0778208 7.10154157,11.3760282 7.965236,10.938084 C8.48541634,10.6764008 9.05147338,10.5182481 9.63196,10.472412 C8.19562394,10.2778368 7.15658717,9.00228233 7.25654534,7.55627778 C7.35650352,6.11027323 8.56116951,4.98981958 10.0106165,4.99471423 Z M10,6 C9.03350169,6 8.25,6.78350169 8.25,7.75 C8.25110216,8.71604141 9.03395859,9.49889784 10,9.5 C10.9664983,9.5 11.75,8.71649831 11.75,7.75 C11.75,6.78350169 10.9664983,6 10,6 Z"/>
</svg>
