<svg xmlns="http://www.w3.org/2000/svg" width="20" height="20" fill="none" viewBox="0 0 20 20">
  <path fill="#606B85" fill-rule="evenodd" d="M9.5 3.5A.5.5 0 0 1 10 3h1a2.5 2.5 0 0 1 2.5 2.5V10a.5.5 0 0 1-.5.5h-3a.5.5 0 0 1-.5-.5V3.5Zm1 .5v5.5h2v-4A1.5 1.5 0 0 0 11 4h-.5Z" clip-rule="evenodd"/>
  <path fill="#606B85" fill-rule="evenodd" d="M6.5 10a.5.5 0 0 1 .5-.5h3a.5.5 0 0 1 .5.5v6.5a.5.5 0 0 1-.5.5H9a2.5 2.5 0 0 1-2.5-2.5V10Zm1 .5v4A1.5 1.5 0 0 0 9 16h.5v-5.5h-2Z" clip-rule="evenodd"/>
  <path fill="#606B85" fill-rule="evenodd" d="M16.5 9.5a.5.5 0 0 1 .5.5v1a2.5 2.5 0 0 1-2.5 2.5H10a.5.5 0 0 1-.5-.5v-3a.5.5 0 0 1 .5-.5h6.5Zm-.5 1h-5.5v2h4A1.5 1.5 0 0 0 16 11v-.5Z" clip-rule="evenodd"/>
  <path fill="#606B85" fill-rule="evenodd" d="M10 6.5a.5.5 0 0 1 .5.5v3a.5.5 0 0 1-.5.5H3.5A.5.5 0 0 1 3 10V9a2.5 2.5 0 0 1 2.5-2.5H10Zm-.5 1h-4A1.5 1.5 0 0 0 4 9v.5h5.5v-2Z" clip-rule="evenodd"/>
</svg>
