<svg xmlns="http://www.w3.org/2000/svg" width="20" height="20" viewBox="0 0 20 20">
  <path fill="#707578" fill-rule="evenodd" d="M7.23224,10.5 C7.53060939,10.5 7.81798103,10.6066706 8.04335975,10.7989027 L8.11612,10.86612 L9.13388,11.88388 C9.34486509,12.0948529 9.47263422,12.3734849 9.49607819,12.6687808 L9.5,12.76776 L9.5,16.75 C9.5,17.4127417 8.98423203,17.9550193 8.33218784,17.9973412 L8.25,18 L5.25,18 C4.5872583,18 4.04498066,17.484232 4.00265884,16.8321878 L4,16.75 L4,11.75 C4,11.0872583 4.51576797,10.5449807 5.16781216,10.5026588 L5.25,10.5 L7.23224,10.5 Z M14.75,10.5 C15.0815206,10.5 15.399463,10.6316961 15.6338835,10.8661165 C15.8448619,11.0770949 15.9726335,11.3557261 15.9960781,11.6510211 L16,11.75 L16,16.75 C16,17.4127417 15.484232,17.9550193 14.8321878,17.9973412 L14.75,18 L11.75,18 C11.4184794,18 11.100537,17.8683039 10.8661165,17.6338835 C10.6551381,17.4229051 10.5273665,17.1442739 10.5039219,16.8489789 L10.5,16.75 L10.5,12.76776 C10.5,12.4693906 10.6066706,12.182019 10.7989027,11.9566403 L10.86612,11.88388 L11.88388,10.86612 C12.0948571,10.6551412 12.3734871,10.527367 12.6687813,10.503922 L12.76776,10.5 L14.75,10.5 Z M7.23224,11.4999991 L5.25,11.4999991 C5.12732793,11.5001395 5.02533277,11.58852 5.00407134,11.7050839 L5,11.7499991 L5,16.7499991 C5.00013961,16.872672 5.08852005,16.9746672 5.2050845,16.995928 L5.25,16.9999991 L8.25,16.9999991 C8.37267207,16.9998603 8.47466723,16.9114799 8.49592866,16.7949149 L8.5,16.7499991 L8.5,12.76776 C8.50013602,12.7146958 8.48329277,12.6633505 8.45247582,12.6209809 L8.42679,12.591 L7.409025,11.57321 C7.37159189,11.5355891 7.32336629,11.5111942 7.27160783,11.503031 L7.23224,11.4999991 Z M14.7499991,11.4999981 L12.76776,11.4999981 C12.7146936,11.4998531 12.6633448,11.5166957 12.6209777,11.5475185 L12.591,11.57321 L11.57321,12.590975 C11.5355853,12.6284056 11.5111891,12.676632 11.5030284,12.7283914 L11.4999991,12.76776 L11.4999991,16.749999 C11.5001395,16.872672 11.58852,16.9746672 11.7050838,16.995928 L11.7499991,16.9999981 L14.7499991,16.9999981 C14.872672,16.9998603 14.9746672,16.9114799 14.995928,16.7949148 L14.9999991,16.749999 L14.9999991,11.749999 C14.9998603,11.6273278 14.9114799,11.5253328 14.7949148,11.5040707 L14.7499991,11.4999981 Z M13.504545,13.96567 C13.7806874,13.96567 14.004545,14.1895276 14.004545,14.46567 L14.004545,15.46567 C14.004545,15.7418124 13.7806874,15.96567 13.504545,15.96567 L13.004545,15.96567 C12.7284026,15.96567 12.504545,15.7418124 12.504545,15.46567 L12.504545,14.46567 C12.504545,14.1895276 12.7284026,13.96567 13.004545,13.96567 L13.504545,13.96567 Z M7,13.96567 C7.27614237,13.96567 7.5,14.1895276 7.5,14.46567 L7.5,15.46567 C7.5,15.7418124 7.27614237,15.96567 7,15.96567 L6.5,15.96567 C6.22385763,15.96567 6,15.7418124 6,15.46567 L6,14.46567 C6,14.1895276 6.22385763,13.96567 6.5,13.96567 L7,13.96567 Z M10,9 C10.5522847,9 11,9.44771525 11,10 C11,10.5522847 10.5522847,11 10,11 C9.44771525,11 9,10.5522847 9,10 C9,9.44771525 9.44771525,9 10,9 Z M8.25,2 C8.9127417,2 9.45501934,2.51576797 9.49734116,3.16781216 L9.5,3.25 L9.5,7.23224 C9.5,7.53060792 9.39332373,7.81797695 9.20109564,8.04335857 L9.13388,8.11612 L8.11612,9.13388 C7.90514005,9.34485462 7.62651145,9.47263212 7.33121831,9.49607788 L7.23224,9.5 L5.25,9.5 C4.5872583,9.5 4.04498066,8.98423203 4.00265884,8.33218784 L4,8.25 L4,3.25 C4,2.5872583 4.51576797,2.04498066 5.16781216,2.00265884 L5.25,2 L8.25,2 Z M14.75,2 C15.0815206,2 15.399463,2.13169605 15.6338835,2.36611652 C15.8448619,2.57709495 15.9726335,2.85572613 15.9960781,3.15102111 L16,3.25 L16,8.25 C16,8.9127417 15.484232,9.45501934 14.8321878,9.49734116 L14.75,9.5 L12.76776,9.5 C12.4693941,9.5 12.1820288,9.39331581 11.9566431,9.20109326 L11.88388,9.13388 L10.86612,8.11612 C10.6551412,7.90514285 10.527367,7.62651289 10.503922,7.33121866 L10.5,7.23224 L10.5,3.25 C10.5,2.5872583 11.015768,2.04498066 11.6678122,2.00265884 L11.75,2 L14.75,2 Z M8.25,3 L5.25,3 C5.12732793,3.00013961 5.02533277,3.08852005 5.00407134,3.2050845 L5,3.25 L5,8.25 C5.00013961,8.37267207 5.08852005,8.47466723 5.2050845,8.49592866 L5.25,8.5 L7.23224,8.5 C7.28531632,8.50014349 7.33667345,8.4832933 7.37904483,8.45245988 L7.409025,8.42676 L8.42679,7.408995 C8.46441404,7.37157382 8.48881054,7.32335531 8.49697096,7.27160317 L8.5,7.23224 L8.5,3.25 C8.49986039,3.12732793 8.41147995,3.02533277 8.2949155,3.00407134 L8.25,3 Z M14.749999,3 L11.749999,3 C11.6273278,3.00013961 11.5253328,3.08852005 11.5040707,3.2050845 L11.4999981,3.25 L11.4999981,7.23224 C11.4998531,7.28530636 11.5166957,7.33665522 11.5475185,7.37902229 L11.57321,7.409 L12.590975,8.42676 C12.6283993,8.46439688 12.6766261,8.48880314 12.7283886,8.49696834 L12.76776,8.5 L14.749999,8.5 C14.872672,8.49986039 14.9746672,8.41147995 14.995928,8.2949155 L14.9999981,8.25 L14.9999981,3.25 C14.9998603,3.12732793 14.9114799,3.02533277 14.7949148,3.00407134 L14.749999,3 Z M13.504545,4 C13.7806874,4 14.004545,4.22385763 14.004545,4.5 L14.004545,5.5 C14.004545,5.77614237 13.7806874,6 13.504545,6 L13.004545,6 C12.7284026,6 12.504545,5.77614237 12.504545,5.5 L12.504545,4.5 C12.504545,4.22385763 12.7284026,4 13.004545,4 L13.504545,4 Z M7,4 C7.27614237,4 7.5,4.22385763 7.5,4.5 L7.5,5.5 C7.5,5.77614237 7.27614237,6 7,6 L6.5,6 C6.22385763,6 6,5.77614237 6,5.5 L6,4.5 C6,4.22385763 6.22385763,4 6.5,4 L7,4 Z"/>
</svg>
