<?xml version="1.0" encoding="UTF-8"?>
<svg width="180px" height="156px" viewBox="0 0 180 156" version="1.1" xmlns="http://www.w3.org/2000/svg" xmlns:xlink="http://www.w3.org/1999/xlink">
    <title>Group 2 Copy</title>
    <g id="Page-1" stroke="none" stroke-width="1" fill="none" fill-rule="evenodd">
        <g id="Group-2-Copy" transform="translate(3.000000, 0.000000)" fill="#000000" fill-rule="nonzero">
            <g id="Group" transform="translate(0.000000, 27.000000)">
                <path d="M1.5,20.8787879 C3.64219539,20.8787879 5.39107888,22.5627563 5.49510469,24.6791475 L5.5,24.8787879 L5.5,81.1212121 C5.5,83.3303511 3.709139,85.1212121 1.5,85.1212121 C-0.642195393,85.1212121 -2.39107888,83.4372437 -2.49510469,81.3208525 L-2.5,81.1212121 L-2.5,24.8787879 C-2.5,22.6696489 -0.709138999,20.8787879 1.5,20.8787879 Z" id="Line"></path>
                <path d="M172.5,20.8787879 C174.642195,20.8787879 176.391079,22.5627563 176.495105,24.6791475 L176.5,24.8787879 L176.5,81.1212121 C176.5,83.3303511 174.709139,85.1212121 172.5,85.1212121 C170.357805,85.1212121 168.608921,83.4372437 168.504895,81.3208525 L168.5,81.1212121 L168.5,24.8787879 C168.5,22.6696489 170.290861,20.8787879 172.5,20.8787879 Z" id="Line-Copy-4"></path>
                <path d="M34.4046667,-4.00000235 C36.5468032,-3.98400202 38.2831491,-2.28710896 38.3714755,-0.170004456 L38.37489,0.0296667032 L37.62489,101.150356 C37.6085055,103.359435 35.8044115,105.136964 33.5953333,105.120692 C31.4531968,105.104692 29.7168509,103.407799 29.6285245,101.290694 L29.62511,101.091023 L30.37511,-0.0296667032 C30.3914945,-2.23874494 32.1955885,-4.01627445 34.4046667,-4.00000235 Z" id="Line-Copy"></path>
                <path d="M140.404667,-4.00000235 C142.546803,-3.98400202 144.283149,-2.28710896 144.371475,-0.170004456 L144.37489,0.0296667032 L143.62489,101.150356 C143.608506,103.359435 141.804412,105.136964 139.595333,105.120692 C137.453197,105.104692 135.716851,103.407799 135.628525,101.290694 L135.62511,101.091023 L136.37511,-0.0296667032 C136.391494,-2.23874494 138.195588,-4.01627445 140.404667,-4.00000235 Z" id="Line-Copy-3"></path>
            </g>
            <path d="M60.4554195,74.7286843 L60.3747353,74.9690555 C58.7391395,80.0998982 62.5661074,85.3893805 68,85.3893805 L72.315,85.389 L72.3157895,147 C72.3157895,156.019783 84.9185134,158.143223 87.8741034,149.621429 L114.558314,72.6833759 L114.637507,72.4433509 C116.2418,67.3202662 112.416596,62.0619469 107,62.0619469 L100.118,62.061 L100.118421,9 C100.118421,0.00397286564 87.5658025,-2.14460267 84.5738405,6.33930373 L60.4554195,74.7286843 Z M92.1184211,9 L92.1184211,70.0619469 L107,70.0619469 L80.3157895,147 L80.3157895,77.3893805 L68,77.3893805 L92.1184211,9 Z" id="Path"></path>
        </g>
    </g>
</svg>