<svg xmlns="http://www.w3.org/2000/svg" width="20" height="20" viewBox="0 0 20 20">
  <path fill="#707578" fill-rule="evenodd" d="M7.76677,11.43557 C7.63664203,11.5483746 7.46238333,11.5960905 7.29294,11.565315 L2.252145,10.64969 C2.10435733,10.5977464 2.00405277,10.4598692 2.00000637,10.3032681 C1.99619872,10.146667 2.08946659,10.0039357 2.234465,9.94465 L17.78619,2.62792 C17.796212,2.62440801 17.8065731,2.62195137 17.817105,2.62059 C17.8227948,2.61886387 17.8285858,2.61749125 17.834445,2.61648 C17.8600351,2.61364874 17.8859088,2.61797603 17.909185,2.62898 C17.913788,2.63129195 17.9182628,2.63385068 17.92259,2.636645 C17.943021,2.64838989 17.9605459,2.66458355 17.973865,2.684025 C17.977591,2.69039962 17.9807851,2.69707054 17.983415,2.70397 C17.9965874,2.72983761 18.0019997,2.75896206 17.999,2.787835 L16.556325,16.24913 C16.531111,16.3633968 16.4526103,16.4586315 16.3452569,16.5051919 C16.2379034,16.5517524 16.11473,16.5439859 16.014075,16.48431 L10.35246,13.129145 C10.2377609,13.0611494 10.0951046,13.0611386 9.98039523,13.1291168 C9.86568585,13.197095 9.79719503,13.3222342 9.80176297,13.4554949 C9.8063309,13.5887556 9.88323,13.7089112 10.002325,13.768875 L10.85696,14.27777 C10.9497357,14.3288241 11.0163866,14.4169637 11.040238,14.5201381 C11.0640894,14.6233126 11.0428851,14.7317621 10.98193,14.818355 L9.34293,17.223455 C9.25303505,17.3561401 9.08706995,17.4146156 8.93385532,17.3675867 C8.78064068,17.3205578 8.67606309,17.1790399 8.67609,17.01877 L8.67609,12.440225 C8.67608941,12.3080015 8.72697037,12.1808483 8.818185,12.085125 L16.075395,4.469155 C16.1083516,4.43459144 16.1083437,4.38023461 16.0753772,4.34568057 C16.0424106,4.31112653 15.9881142,4.30856415 15.95204,4.33986 L7.76677,11.43557 Z"/>
</svg>
