<svg width="20" height="20" viewBox="0 0 20 20" fill="none" xmlns="http://www.w3.org/2000/svg">
    <path fill-rule="evenodd" clip-rule="evenodd" d="M2.3 6.40069C2.3 6.12454 2.52386 5.90069 2.8 5.90069H6.28333C7.44286 5.90069 8.28159 6.57828 8.80046 7.18362C9.06374 7.49078 9.25944 7.79563 9.38933 8.02293C9.45459 8.13713 9.50405 8.23321 9.53783 8.30217C9.55474 8.33669 9.56777 8.36453 9.57694 8.38458L9.5878 8.40871L9.59107 8.41616L9.59217 8.41868L9.59258 8.41964C9.59258 8.41964 9.5929 8.42039 9.15068 8.60992L9.59258 8.41964C9.70136 8.67346 9.58411 8.96815 9.33029 9.07693C9.0768 9.18557 8.78328 9.06842 8.67417 8.81527L8.6733 8.81328L8.66746 8.80034C8.66178 8.78792 8.65255 8.76813 8.63977 8.74204C8.61417 8.68978 8.57458 8.61268 8.52109 8.51907C8.41347 8.33074 8.25293 8.08143 8.0412 7.83442C7.61007 7.33143 7.02381 6.90069 6.28333 6.90069H2.8C2.52386 6.90069 2.3 6.67683 2.3 6.40069Z" fill="#606B85"/>
    <path fill-rule="evenodd" clip-rule="evenodd" d="M11.4408 7.14689C12.0949 6.45055 12.8909 5.90069 13.8833 5.90069H17.3667C17.6428 5.90069 17.8667 6.12454 17.8667 6.40069C17.8667 6.67683 17.6428 6.90069 17.3667 6.90069H13.8833C13.2925 6.90069 12.7426 7.22166 12.1696 7.83157C11.5947 8.44361 11.0663 9.27073 10.5052 10.1525L10.4893 10.1773C9.94675 11.03 9.37173 11.9336 8.72588 12.6212C8.07174 13.3175 7.2758 13.8674 6.28333 13.8674H2.8C2.52386 13.8674 2.3 13.6435 2.3 13.3674C2.3 13.0912 2.52386 12.8674 2.8 12.8674H6.28333C6.8742 12.8674 7.42409 12.5464 7.99703 11.9365C8.57199 11.3244 9.1004 10.4973 9.6615 9.61558L9.67733 9.5907C10.2199 8.73804 10.7949 7.8344 11.4408 7.14689Z" fill="#606B85"/>
    <path fill-rule="evenodd" clip-rule="evenodd" d="M10.4393 11.0513C10.6688 10.8983 10.9787 10.9601 11.1321 11.1891L11.1333 11.1909L11.141 11.202C11.1484 11.2126 11.1605 11.2296 11.1771 11.2521C11.2103 11.297 11.2611 11.3634 11.3284 11.4441C11.4635 11.6063 11.6618 11.8225 11.9129 12.0377C12.423 12.475 13.1023 12.8674 13.8833 12.8674H17.3667C17.6428 12.8674 17.8667 13.0912 17.8667 13.3674C17.8667 13.6435 17.6428 13.8674 17.3667 13.8674H13.8833C12.7644 13.8674 11.8603 13.3098 11.2621 12.797C10.959 12.5372 10.7219 12.2784 10.5602 12.0843C10.479 11.9869 10.416 11.9049 10.3725 11.8459C10.3507 11.8164 10.3338 11.7926 10.3217 11.7754L10.3074 11.7547L10.3031 11.7484L10.3016 11.7462L10.3008 11.745C10.3008 11.745 10.3006 11.7447 10.7167 11.4674L10.3008 11.745C10.1477 11.5152 10.2096 11.2045 10.4393 11.0513Z" fill="#606B85"/>
    <path fill-rule="evenodd" clip-rule="evenodd" d="M15.8227 4.08403C16.0524 3.93085 16.3628 3.99294 16.516 4.2227L17.7827 6.1227C17.8947 6.29065 17.8947 6.50945 17.7827 6.6774L16.516 8.5774C16.3628 8.80717 16.0524 8.86925 15.8227 8.71608C15.5929 8.5629 15.5308 8.25247 15.684 8.0227L16.7657 6.40005L15.684 4.7774C15.5308 4.54764 15.5929 4.2372 15.8227 4.08403Z" fill="#606B85"/>
    <path fill-rule="evenodd" clip-rule="evenodd" d="M15.8227 11.0507C16.0524 10.8975 16.3628 10.9596 16.516 11.1894L17.7827 13.0894C17.8947 13.2573 17.8947 13.4761 17.7827 13.6441L16.516 15.5441C16.3628 15.7738 16.0524 15.8359 15.8227 15.6827C15.5929 15.5296 15.5308 15.2191 15.684 14.9894L16.7657 13.3667L15.684 11.7441C15.5308 11.5143 15.5929 11.2039 15.8227 11.0507Z" fill="#606B85"/>
</svg>
