<svg xmlns="http://www.w3.org/2000/svg" width="20" height="20" fill="none" viewBox="0 0 20 20">
  <path fill="#606B85" d="M8.302 4.25a6.002 6.002 0 0 1 4.009.212.5.5 0 0 0 .383-.924 7.002 7.002 0 0 0-8.437 10.46H2.5a.5.5 0 1 0 0 1h2.766a.52.52 0 0 0 .09 0H5.5a.5.5 0 0 0 .5-.5v-3a.5.5 0 1 0-1 0v1.815A6.002 6.002 0 0 1 8.302 4.25ZM15 8.499V6.683a6.001 6.001 0 0 1-7.31 8.856.5.5 0 1 0-.385.923 7.001 7.001 0 0 0 8.439-10.463H17.5a.5.5 0 0 0 0-1h-2.768a.501.501 0 0 0-.089 0H14.5a.5.5 0 0 0-.5.5v3a.5.5 0 0 0 1 0Z"/>
</svg>
