<svg width="20" height="20" viewBox="0 0 20 20" fill="none" xmlns="http://www.w3.org/2000/svg">
<path fill-rule="evenodd" clip-rule="evenodd" d="M16.9826 2.83031C16.8514 2.83027 16.7246 2.87665 16.6245 2.96113C16.5243 3.04565 16.4572 3.16293 16.4351 3.29209M16.4351 3.29209L14.5535 14.3524C14.5534 14.3525 14.5535 14.3524 14.5535 14.3524C14.4907 14.7216 14.2994 15.0568 14.0134 15.2984C13.7273 15.5399 13.3648 15.6727 12.9902 15.6726C12.9902 15.6726 12.9903 15.6726 12.9902 15.6726H5.91078C5.62628 15.6726 5.39565 15.442 5.39565 15.1575C5.39565 14.873 5.62628 14.6423 5.91078 14.6423H12.9902C13.1213 14.6424 13.2483 14.596 13.3487 14.5113C13.4488 14.4266 13.5158 14.3093 13.5377 14.18L15.4195 3.1193C15.4824 2.75036 15.6738 2.41532 15.9599 2.17385C16.246 1.93232 16.6084 1.79998 16.9827 1.80005C16.9827 1.80005 16.9826 1.80005 16.9827 1.80005H17.6849C17.9694 1.80005 18.2 2.03068 18.2 2.31518C18.2 2.59968 17.9694 2.83031 17.6849 2.83031H16.9826" fill="#606B85"/>
<path fill-rule="evenodd" clip-rule="evenodd" d="M7.24869 17.2783C7.38537 17.2783 7.49629 17.1675 7.49629 17.0307C7.49629 16.8941 7.38555 16.7831 7.24869 16.7831V16.248C6.81655 16.248 6.46603 16.5983 6.46603 17.0307C6.46603 17.4629 6.81638 17.8134 7.24869 17.8134V17.2783Z" fill="#606B85"/>
<path fill-rule="evenodd" clip-rule="evenodd" d="M7.24869 16.248C7.68081 16.248 8.03138 16.5982 8.03138 17.0307C8.03138 17.463 7.68098 17.8134 7.24869 17.8134V17.2783C7.11216 17.2783 7.00112 17.1675 7.00112 17.0307C7.00112 16.894 7.11198 16.7831 7.24869 16.7831V16.248Z" fill="#606B85"/>
<path fill-rule="evenodd" clip-rule="evenodd" d="M12.6006 17.2783C12.7372 17.2783 12.8482 17.1675 12.8482 17.0307C12.8482 16.894 12.7373 16.7831 12.6006 16.7831V16.248C12.1685 16.248 11.8179 16.5982 11.8179 17.0307C11.8179 17.463 12.1683 17.8134 12.6006 17.8134V17.2783Z" fill="#606B85"/>
<path fill-rule="evenodd" clip-rule="evenodd" d="M12.6006 16.248C13.0328 16.248 13.3834 16.5982 13.3834 17.0307C13.3834 17.463 13.0329 17.8134 12.6006 17.8134V17.2783C12.4641 17.2783 12.3531 17.1675 12.3531 17.0307C12.3531 16.894 12.4639 16.7831 12.6006 16.7831V16.248Z" fill="#606B85"/>
<path fill-rule="evenodd" clip-rule="evenodd" d="M2.59032 5.68664C2.86632 5.61764 3.146 5.78545 3.215 6.06146L4.24967 10.2002C4.33765 10.5519 4.54061 10.864 4.82624 11.087C5.11193 11.3101 5.46398 11.4313 5.8265 11.4313C5.82653 11.4313 5.82648 11.4313 5.8265 11.4313H14.4401C14.7246 11.4313 14.9552 11.662 14.9552 11.9465C14.9552 12.231 14.7246 12.4616 14.4401 12.4616H5.8265C5.2343 12.4615 4.65907 12.2636 4.19222 11.8991C3.72546 11.5347 3.39393 11.0247 3.25022 10.4503L2.2155 6.31133C2.1465 6.03532 2.31431 5.75564 2.59032 5.68664Z" fill="#606B85"/>
<path fill-rule="evenodd" clip-rule="evenodd" d="M5.67414 6.5851C5.67414 6.32647 5.88381 6.1168 6.14244 6.1168H8.26467C8.5233 6.1168 8.73297 6.32647 8.73297 6.5851C8.73297 6.84374 8.5233 7.0534 8.26467 7.0534H6.61074V8.70733C6.61074 8.96596 6.40108 9.17563 6.14244 9.17563C5.88381 9.17563 5.67414 8.96596 5.67414 8.70733V6.5851Z" fill="#606B85"/>
<path fill-rule="evenodd" clip-rule="evenodd" d="M6.43553 6.12554C6.68935 6.07582 6.9354 6.24128 6.98511 6.49509C7.09874 7.07525 7.40067 7.60169 7.84404 7.99274C8.28742 8.38378 8.84745 8.61757 9.43726 8.65782C10.0271 8.69807 10.6137 8.54255 11.1061 8.21537C11.5985 7.88819 11.9691 7.40765 12.1605 6.84831C12.2443 6.60361 12.5105 6.47311 12.7552 6.55685C12.9999 6.64058 13.1304 6.90684 13.0467 7.15154C12.7885 7.90599 12.2886 8.55415 11.6244 8.99546C10.9603 9.43676 10.169 9.64654 9.37349 9.59225C8.57794 9.53795 7.82255 9.22262 7.22452 8.69517C6.62648 8.16772 6.21924 7.45765 6.06598 6.67511C6.01627 6.4213 6.18172 6.17525 6.43553 6.12554Z" fill="#606B85"/>
<path fill-rule="evenodd" clip-rule="evenodd" d="M12.9336 2.29689C13.1922 2.29689 13.4019 2.50655 13.4019 2.76519V4.88741C13.4019 5.14604 13.1922 5.35571 12.9336 5.35571H10.8113C10.5527 5.35571 10.343 5.14604 10.343 4.88741C10.343 4.62877 10.5527 4.41911 10.8113 4.41911H12.4653V2.76519C12.4653 2.50655 12.6749 2.29689 12.9336 2.29689Z" fill="#606B85"/>
<path fill-rule="evenodd" clip-rule="evenodd" d="M9.63872 2.81464C9.04891 2.77438 8.4623 2.92991 7.96991 3.25709C7.47752 3.58427 7.10687 4.0648 6.91547 4.62415C6.83173 4.86885 6.56548 4.99934 6.32077 4.91561C6.07607 4.83187 5.94558 4.56562 6.02931 4.32091C6.28747 3.56646 6.78741 2.9183 7.45156 2.477C8.11572 2.03569 8.90694 1.82592 9.70249 1.88021C10.498 1.93451 11.2534 2.24984 11.8515 2.77729C12.4495 3.30474 12.8567 4.01481 13.01 4.79734C13.0597 5.05116 12.8943 5.29721 12.6404 5.34692C12.3866 5.39663 12.1406 5.23118 12.0909 4.97736C11.9772 4.3972 11.6753 3.87076 11.2319 3.47972C10.7886 3.08868 10.2285 2.85489 9.63872 2.81464Z" fill="#606B85"/>
</svg>
