<svg xmlns="http://www.w3.org/2000/svg" width="20" height="20" viewBox="0 0 20 20">
  <path fill="#707578" fill-rule="evenodd" d="M5.5267568,5.5267568 C7.56243253,3.49108107 10.862915,3.49108107 12.8985907,5.5267568 C14.80969,7.43785605 14.9266428,10.463695 13.2494492,12.5112308 L15.8473243,15.1101409 C16.0508919,15.3137085 16.0508919,15.6437567 15.8473243,15.8473243 C15.6437567,16.0508919 15.3137085,16.0508919 15.1101409,15.8473243 L12.512043,13.2487838 C10.4644952,14.9266737 7.43810874,14.8099427 5.5267568,12.8985907 C3.49108107,10.862915 3.49108107,7.56243253 5.5267568,5.5267568 Z M6.26394019,6.26394019 C4.63539961,7.89248078 4.63539961,10.5328668 6.26394019,12.1614073 C7.89248078,13.7899479 10.5328668,13.7899479 12.1614073,12.1614073 C13.7899479,10.5328668 13.7899479,7.89248078 12.1614073,6.26394019 C10.5328668,4.63539961 7.89248078,4.63539961 6.26394019,6.26394019 Z"/>
</svg>
