<svg xmlns="http://www.w3.org/2000/svg" width="24" height="24" viewBox="0 0 24 24">
  <path fill="#707578" fill-rule="evenodd" d="M7.5267568,7.5267568 C9.56243253,5.49108107 12.862915,5.49108107 14.8985907,7.5267568 C16.80969,9.43785605 16.9266428,12.463695 15.2494492,14.5112308 L17.8473243,17.1101409 C18.0508919,17.3137085 18.0508919,17.6437567 17.8473243,17.8473243 C17.6437567,18.0508919 17.3137085,18.0508919 17.1101409,17.8473243 L14.512043,15.2487838 C12.4644952,16.9266737 9.43810874,16.8099427 7.5267568,14.8985907 C5.49108107,12.862915 5.49108107,9.56243253 7.5267568,7.5267568 Z M8.26394019,8.26394019 C6.63539961,9.89248078 6.63539961,12.5328668 8.26394019,14.1614073 C9.89248078,15.7899479 12.5328668,15.7899479 14.1614073,14.1614073 C15.7899479,12.5328668 15.7899479,9.89248078 14.1614073,8.26394019 C12.5328668,6.63539961 9.89248078,6.63539961 8.26394019,8.26394019 Z"/>
</svg>
