<svg xmlns="http://www.w3.org/2000/svg" width="20" height="20" viewBox="0 0 20 20">
  <path fill="#606B85" fill-rule="evenodd" d="M5.42982411,5.42982411 C7.33625626,3.52339196 10.4271935,3.52339196 12.3336256,5.42982411 C14.0638652,7.16006371 14.223774,9.86598177 12.8133521,11.7765659 L15.7855264,14.7499562 C16.0714912,15.035921 16.0714912,15.4995616 15.7855264,15.7855264 C15.4995616,16.0714912 15.035921,16.0714912 14.7499562,15.7855264 L11.777361,12.812765 C9.8667326,14.2238184 7.16030376,14.0641053 5.42982411,12.3336256 C3.52339196,10.4271935 3.52339196,7.33625626 5.42982411,5.42982411 Z M6.46539434,6.46539434 C5.13089183,7.79989684 5.13089183,9.9635529 6.46539434,11.2980554 C7.79989684,12.6325579 9.9635529,12.6325579 11.2980554,11.2980554 C12.6325579,9.9635529 12.6325579,7.79989684 11.2980554,6.46539434 C9.9635529,5.13089183 7.79989684,5.13089183 6.46539434,6.46539434 Z"/>
</svg>
