<svg xmlns="http://www.w3.org/2000/svg" width="20" height="20" fill="none" viewBox="0 0 20 20">
  <path fill="#606B85" d="M3.44 3.437a1.5 1.5 0 0 1 1.06-.439.5.5 0 0 0 0-1 2.5 2.5 0 0 0-2.5 2.5.5.5 0 0 0 1 0c0-.398.159-.78.44-1.06ZM3 13.498a.5.5 0 1 0-1 0 2.5 2.5 0 0 0 2.5 2.5.5.5 0 0 0 0-1 1.5 1.5 0 0 1-1.5-1.5Zm10-11a.5.5 0 0 1 .5-.5 2.5 2.5 0 0 1 2.5 2.5.5.5 0 1 1-1 0 1.5 1.5 0 0 0-1.5-1.5.5.5 0 0 1-.5-.5Zm3 5a.5.5 0 1 0-1 0v3a.5.5 0 0 0 1 0v-3Zm-13.5-.5a.5.5 0 0 1 .5.5v3a.5.5 0 0 1-1 0v-3a.5.5 0 0 1 .5-.5Zm5-5a.5.5 0 1 0 0 1h3a.5.5 0 1 0 0-1h-3Zm-.5 13.5a.5.5 0 0 1 .5-.5h3a.5.5 0 1 1 0 1h-3a.5.5 0 0 1-.5-.5Z"/>
  <path fill="#606B85" fill-rule="evenodd" d="M12.019 11.373a.5.5 0 0 0-.644.644l2.121 5.657a.5.5 0 0 0 .928.021l.982-2.29 2.292-.983a.5.5 0 0 0-.022-.928l-5.657-2.12Zm1.977 4.784-1.298-3.461 3.461 1.298-1.33.57a.5.5 0 0 0-.263.262l-.57 1.33Z" clip-rule="evenodd"/>
</svg>
