<svg width="20" height="20" viewBox="0 0 20 20" fill="none"><path d="M7.15 5.646a.5.5 0 1 0 .706.708l1.647-1.647V11a.5.5 0 0 0 1 0V4.707l1.646 1.647a.5.5 0 1 0 .707-.708l-2.5-2.5A.499.499 0 0 0 10.01 3h-.014a.498.498 0 0 0-.347.146l-2.5 2.5Z" fill="#606B85"/><path d="M4 15.474v.017c.013.37.127.744.349 1.032.22.288.556.495.95.476h9.402c.394.018.73-.188.95-.476a1.812 1.812 0 0 0 .349-1.05V8.5a.5.5 0 0 0-1 0v6.964a.816.816 0 0 1-.142.45.267.267 0 0 1-.084.078c-.017.009-.025.008-.027.008a.578.578 0 0 0-.033-.001H5.286L5.253 16c-.002 0-.01 0-.027-.008a.268.268 0 0 1-.084-.077.816.816 0 0 1-.142-.45V8.5a.5.5 0 1 0-1 0v6.974Z" fill="#606B85"/></svg>