<svg width="20" height="20" viewBox="0 0 20 20" fill="none" xmlns="http://www.w3.org/2000/svg">
<path fill-rule="evenodd" clip-rule="evenodd" d="M10.1066 4C13.3588 4 16.5838 6.26775 18.5321 8.40985C18.8329 8.7418 18.9997 9.17365 19 9.62161C19.0003 10.0696 18.8342 10.5017 18.5339 10.834C16.5851 12.9788 13.3601 15.2479 10.1068 15.2479H9.87281C6.63682 15.2479 3.41357 12.9788 1.46766 10.8354C1.16696 10.5034 1.00029 10.0717 1 9.62378C0.999716 9.17591 1.16584 8.7439 1.46612 8.41161C3.43553 6.24403 6.71547 3.9631 9.99892 4.00088L10.003 4.00083C10.0375 4.00042 10.0723 4 10.1066 4ZM10.0908 14.123C12.9941 14.123 15.9153 12.0433 17.6997 10.0792V10.0791C17.8126 9.95355 17.8749 9.79055 17.8747 9.62166C17.8744 9.45277 17.8115 9.28998 17.6982 9.16476C15.9146 7.20369 12.9928 5.12488 10.109 5.12488C10.0933 5.12488 10.0776 5.12512 10.0619 5.12536C10.0409 5.12569 10.0199 5.12601 9.99892 5.12575C9.9775 5.12601 9.95645 5.12568 9.9355 5.12536C9.91992 5.12512 9.9044 5.12488 9.88885 5.12488C7.0035 5.12488 4.08365 7.20368 2.30034 9.16651C2.18743 9.2921 2.1251 9.4551 2.12538 9.62398C2.12567 9.79287 2.18855 9.95565 2.30187 10.0809C4.10409 12.0661 7.06479 14.1722 9.98947 14.1221C10.0231 14.1225 10.0569 14.123 10.0908 14.123ZM9.99894 6.2489H10.0009C10.8954 6.24917 11.7531 6.60462 12.3855 7.23711C13.018 7.8696 13.3734 8.72736 13.3735 9.6218V9.62488C13.3722 10.5192 13.0162 11.3765 12.3838 12.0089C11.7513 12.6412 10.8939 12.997 9.9996 12.9982H9.99784C9.10284 12.998 8.24455 12.6423 7.61178 12.0094C6.97902 11.3764 6.62362 10.518 6.62377 9.62298C6.62391 8.72797 6.97959 7.86968 7.61256 7.23692C8.24553 6.60416 9.10394 6.24876 9.99894 6.2489ZM11.5891 11.2135C12.0107 10.7919 12.2479 10.2203 12.2487 9.62398L12.2487 9.62221C12.2487 9.02593 12.0118 8.45407 11.5902 8.03241C11.1686 7.61076 10.5967 7.37384 10.0005 7.37378H9.99915C9.40248 7.37366 8.8302 7.61057 8.4082 8.03239C7.98621 8.45422 7.74907 9.02641 7.74895 9.62308C7.74883 10.2197 7.98574 10.792 8.40757 11.214C8.82939 11.636 9.40158 11.8732 9.99825 11.8733H9.99957C10.5958 11.8724 11.1674 11.6352 11.5891 11.2135Z" fill="#606B85"/>
</svg>
