<svg xmlns="http://www.w3.org/2000/svg" width="20" height="20" viewBox="0 0 20 20">
  <path fill="#707578" fill-rule="evenodd" d="M13.7843055,4.08859116 L13.8535534,4.14644661 L16.8535534,7.14644661 L16.8654113,7.15871357 C16.8770608,7.17118132 16.8880797,7.18424576 16.8984173,7.19785608 L16.8535534,7.14644661 C16.8803877,7.17328088 16.9035342,7.20240643 16.922993,7.23319348 C16.9299807,7.24431753 16.9367067,7.25595333 16.9429657,7.26787276 C16.9502504,7.28172431 16.9566485,7.29546114 16.9623894,7.3094049 C16.9675915,7.32197493 16.9724419,7.33526315 16.9767316,7.34880083 C16.981552,7.36416529 16.9856039,7.37952575 16.9889143,7.39501295 C16.9912332,7.40562898 16.9932062,7.41661634 16.9948142,7.42772188 C16.9973429,7.44546098 16.9989382,7.46293275 16.9996194,7.48043349 C16.9998635,7.48639522 17,7.49318167 17,7.5 L16.9995793,7.52056948 C16.998877,7.53773477 16.9972949,7.55487076 16.9948333,7.57190411 L17,7.5 C17,7.53609704 16.9961748,7.57130067 16.9889078,7.60522765 C16.9856039,7.62047425 16.981552,7.63583471 16.9767587,7.65101164 C16.9724419,7.66473685 16.9675915,7.67802507 16.9622078,7.69103656 C16.9566485,7.70453886 16.9502504,7.71827569 16.943195,7.73175819 C16.9367067,7.74404667 16.9299807,7.75568247 16.922812,7.76701032 C16.9192668,7.77270191 16.9154054,7.77853638 16.9114088,7.7843055 L16.8984173,7.80214392 C16.8880797,7.81575424 16.8770608,7.82881868 16.8654113,7.84128643 L16.8535534,7.85355339 L13.8535534,10.8535534 C13.6582912,11.0488155 13.3417088,11.0488155 13.1464466,10.8535534 C12.9728803,10.679987 12.9535951,10.4105626 13.0885912,10.2156945 L13.1464466,10.1464466 L15.293,8 L7.5,8 C5.56700338,8 4,9.56700338 4,11.5 C4,13.3685634 5.4642776,14.8951264 7.3079648,14.9948211 L7.5,15 L12.5,15 C12.7761424,15 13,15.2238576 13,15.5 C13,15.7454599 12.8231248,15.9496084 12.5898756,15.9919443 L12.5,16 L7.5,16 C5.01471863,16 3,13.9852814 3,11.5 C3,9.08572667 4.90123652,7.11551091 7.2881643,7.00489799 L7.5,7 L15.293,7 L13.1464466,4.85355339 C12.9728803,4.67998704 12.9535951,4.41056264 13.0885912,4.2156945 L13.1464466,4.14644661 C13.320013,3.97288026 13.5894374,3.95359511 13.7843055,4.08859116 Z"/>
</svg>
