<svg xmlns="http://www.w3.org/2000/svg" width="24" height="24" viewBox="0 0 24 24">
  <path fill="#707578" fill-rule="evenodd" d="M15.7843055,6.08859116 L15.8535534,6.14644661 L18.8535534,9.14644661 L18.8654113,9.15871357 C18.8770608,9.17118132 18.8880797,9.18424576 18.8984173,9.19785608 L18.8535534,9.14644661 C18.8803877,9.17328088 18.9035342,9.20240643 18.922993,9.23319348 C18.9299807,9.24431753 18.9367067,9.25595333 18.9429657,9.26787276 C18.9502504,9.28172431 18.9566485,9.29546114 18.9623894,9.3094049 C18.9675915,9.32197493 18.9724419,9.33526315 18.9767316,9.34880083 C18.981552,9.36416529 18.9856039,9.37952575 18.9889143,9.39501295 C18.9912332,9.40562898 18.9932062,9.41661634 18.9948142,9.42772188 C18.9973429,9.44546098 18.9989382,9.46293275 18.9996194,9.48043349 C18.9998635,9.48639522 19,9.49318167 19,9.5 L18.9995793,9.52056948 C18.998877,9.53773477 18.9972949,9.55487076 18.9948333,9.57190411 L19,9.5 C19,9.53609704 18.9961748,9.57130067 18.9889078,9.60522765 C18.9856039,9.62047425 18.981552,9.63583471 18.9767587,9.65101164 C18.9724419,9.66473685 18.9675915,9.67802507 18.9622078,9.69103656 C18.9566485,9.70453886 18.9502504,9.71827569 18.943195,9.73175819 C18.9367067,9.74404667 18.9299807,9.75568247 18.922812,9.76701032 C18.9192668,9.77270191 18.9154054,9.77853638 18.9114088,9.7843055 L18.8984173,9.80214392 C18.8880797,9.81575424 18.8770608,9.82881868 18.8654113,9.84128643 L18.8535534,9.85355339 L15.8535534,12.8535534 C15.6582912,13.0488155 15.3417088,13.0488155 15.1464466,12.8535534 C14.9728803,12.679987 14.9535951,12.4105626 15.0885912,12.2156945 L15.1464466,12.1464466 L17.293,10 L9.5,10 C7.56700338,10 6,11.5670034 6,13.5 C6,15.3685634 7.4642776,16.8951264 9.3079648,16.9948211 L9.5,17 L14.5,17 C14.7761424,17 15,17.2238576 15,17.5 C15,17.7454599 14.8231248,17.9496084 14.5898756,17.9919443 L14.5,18 L9.5,18 C7.01471863,18 5,15.9852814 5,13.5 C5,11.0857267 6.90123652,9.11551091 9.2881643,9.00489799 L9.5,9 L17.293,9 L15.1464466,6.85355339 C14.9728803,6.67998704 14.9535951,6.41056264 15.0885912,6.2156945 L15.1464466,6.14644661 C15.320013,5.97288026 15.5894374,5.95359511 15.7843055,6.08859116 Z"/>
</svg>
