<svg xmlns="http://www.w3.org/2000/svg" width="24" height="24" viewBox="0 0 24 24">
  <path fill="#707578" fill-rule="evenodd" d="M8.85355339,11.7464466 C9.02711974,11.920013 9.04640489,12.1894374 8.91140884,12.3843055 L8.85355339,12.4535534 C8.67998704,12.6271197 8.41056264,12.6464049 8.2156945,12.5114088 L8.14644661,12.4535534 L5.14644661,9.45355339 L5.13458875,9.44128643 C5.1229392,9.42881868 5.11192025,9.41575424 5.10158273,9.40214392 L5.14644661,9.45355339 C5.11961234,9.42671912 5.09646582,9.39759357 5.07700705,9.36680652 C5.07001934,9.35568247 5.06329334,9.34404667 5.05703434,9.33212724 C5.04974961,9.31827569 5.04335147,9.30453886 5.03761056,9.2905951 C5.03214859,9.27739704 5.02709111,9.26345343 5.02265119,9.24923715 C5.01809306,9.23448338 5.01425054,9.21979314 5.01108568,9.20498705 C5.00889169,9.19495426 5.00700676,9.1845638 5.00544807,9.17406693 C5.0023875,9.15323734 5.000611,9.13240118 5.00013238,9.11154077 C5.00004222,9.10757457 5,9.10379222 5,9.1 L5.00011036,9.08946265 C5.00055436,9.06826702 5.0023382,9.04709424 5.00546187,9.02608223 L5,9.1 C5,9.06390296 5.00382515,9.02869933 5.01109223,8.99477235 C5.01439613,8.97952575 5.01844802,8.96416529 5.02324135,8.94898836 C5.0275581,8.93526315 5.03240845,8.92197493 5.03779224,8.90896344 C5.04335147,8.89546114 5.04974961,8.88172431 5.05680497,8.86824181 C5.06329334,8.85595333 5.07001934,8.84431753 5.07718801,8.83298968 C5.08073319,8.82729809 5.08459457,8.82146362 5.08859116,8.8156945 L5.10158273,8.79785608 C5.11192025,8.78424576 5.1229392,8.77118132 5.13458875,8.75871357 L5.14644661,8.74644661 L8.14644661,5.74644661 C8.34170876,5.55118446 8.65829124,5.55118446 8.85355339,5.74644661 C9.02711974,5.92001296 9.04640489,6.18943736 8.91140884,6.3843055 L8.85355339,6.45355339 L6.706,8.6 L14.5,8.6 C16.9852814,8.6 19,10.6147186 19,13.1 C19,15.5142733 17.0987635,17.4844891 14.7118357,17.595102 L14.5,17.6 L9.5,17.6 C9.22385763,17.6 9,17.3761424 9,17.1 C9,16.8545401 9.17687516,16.6503916 9.41012437,16.6080557 L9.5,16.6 L14.5,16.6 C16.4329966,16.6 18,15.0329966 18,13.1 C18,11.2314366 16.5357224,9.70487355 14.6920352,9.60517886 L14.5,9.6 L6.706,9.6 L8.85355339,11.7464466 Z"/>
</svg>
