<svg xmlns="http://www.w3.org/2000/svg" width="24" height="24" viewBox="0 0 24 24">
  <path fill="#707578" fill-rule="evenodd" d="M8.85355339,12.1464466 C9.02711974,12.320013 9.04640489,12.5894374 8.91140884,12.7843055 L8.85355339,12.8535534 C8.67998704,13.0271197 8.41056264,13.0464049 8.2156945,12.9114088 L8.14644661,12.8535534 L5.14644661,9.85355339 L5.13458875,9.84128643 C5.1229392,9.82881868 5.11192025,9.81575424 5.10158273,9.80214392 L5.14644661,9.85355339 C5.11961234,9.82671912 5.09646582,9.79759357 5.07700705,9.76680652 C5.07001934,9.75568247 5.06329334,9.74404667 5.05703434,9.73212724 C5.04974961,9.71827569 5.04335147,9.70453886 5.03761056,9.6905951 C5.03214859,9.67739704 5.02709111,9.66345343 5.02265119,9.64923715 C5.01809306,9.63448338 5.01425054,9.61979314 5.01108568,9.60498705 C5.00889169,9.59495426 5.00700676,9.5845638 5.00544807,9.57406693 C5.0023875,9.55323734 5.000611,9.53240118 5.00013238,9.51154077 C5.00004222,9.50757457 5,9.50379222 5,9.5 L5.00011036,9.48946265 C5.00055436,9.46826702 5.0023382,9.44709424 5.00546187,9.42608223 L5,9.5 C5,9.46390296 5.00382515,9.42869933 5.01109223,9.39477235 C5.01439613,9.37952575 5.01844802,9.36416529 5.02324135,9.34898836 C5.0275581,9.33526315 5.03240845,9.32197493 5.03779224,9.30896344 C5.04335147,9.29546114 5.04974961,9.28172431 5.05680497,9.26824181 C5.06329334,9.25595333 5.07001934,9.24431753 5.07718801,9.23298968 C5.08073319,9.22729809 5.08459457,9.22146362 5.08859116,9.2156945 L5.10158273,9.19785608 C5.11192025,9.18424576 5.1229392,9.17118132 5.13458875,9.15871357 L5.14644661,9.14644661 L8.14644661,6.14644661 C8.34170876,5.95118446 8.65829124,5.95118446 8.85355339,6.14644661 C9.02711974,6.32001296 9.04640489,6.58943736 8.91140884,6.7843055 L8.85355339,6.85355339 L6.706,9 L14.5,9 C16.9852814,9 19,11.0147186 19,13.5 C19,15.9142733 17.0987635,17.8844891 14.7118357,17.995102 L14.5,18 L9.5,18 C9.22385763,18 9,17.7761424 9,17.5 C9,17.2545401 9.17687516,17.0503916 9.41012437,17.0080557 L9.5,17 L14.5,17 C16.4329966,17 18,15.4329966 18,13.5 C18,11.6314366 16.5357224,10.1048736 14.6920352,10.0051789 L14.5,10 L6.706,10 L8.85355339,12.1464466 Z"/>
</svg>
