<svg xmlns="http://www.w3.org/2000/svg" width="24" height="24" viewBox="0 0 24 24">
  <path fill="#707578" fill-rule="evenodd" d="M15.7843055,5.68859116 L15.8535534,5.74644661 L18.8535534,8.74644661 L18.8654113,8.75871357 C18.8770608,8.77118132 18.8880797,8.78424576 18.8984173,8.79785608 L18.8535534,8.74644661 C18.8803877,8.77328088 18.9035342,8.80240643 18.922993,8.83319348 C18.9299807,8.84431753 18.9367067,8.85595333 18.9429657,8.86787276 C18.9502504,8.88172431 18.9566485,8.89546114 18.9623894,8.9094049 C18.9675915,8.92197493 18.9724419,8.93526315 18.9767316,8.94880083 C18.981552,8.96416529 18.9856039,8.97952575 18.9889143,8.99501295 C18.9912332,9.00562898 18.9932062,9.01661634 18.9948142,9.02772188 C18.9973429,9.04546098 18.9989382,9.06293275 18.9996194,9.08043349 C18.9998635,9.08639522 19,9.09318167 19,9.1 L18.9995793,9.12056948 C18.998877,9.13773477 18.9972949,9.15487076 18.9948333,9.17190411 L19,9.1 C19,9.13609704 18.9961748,9.17130067 18.9889078,9.20522765 C18.9856039,9.22047425 18.981552,9.23583471 18.9767587,9.25101164 C18.9724419,9.26473685 18.9675915,9.27802507 18.9622078,9.29103656 C18.9566485,9.30453886 18.9502504,9.31827569 18.943195,9.33175819 C18.9367067,9.34404667 18.9299807,9.35568247 18.922812,9.36701032 C18.9192668,9.37270191 18.9154054,9.37853638 18.9114088,9.3843055 L18.8984173,9.40214392 C18.8880797,9.41575424 18.8770608,9.42881868 18.8654113,9.44128643 L18.8535534,9.45355339 L15.8535534,12.4535534 C15.6582912,12.6488155 15.3417088,12.6488155 15.1464466,12.4535534 C14.9728803,12.279987 14.9535951,12.0105626 15.0885912,11.8156945 L15.1464466,11.7464466 L17.293,9.6 L9.5,9.6 C7.56700338,9.6 6,11.1670034 6,13.1 C6,14.9685634 7.4642776,16.4951264 9.3079648,16.5948211 L9.5,16.6 L14.5,16.6 C14.7761424,16.6 15,16.8238576 15,17.1 C15,17.3454599 14.8231248,17.5496084 14.5898756,17.5919443 L14.5,17.6 L9.5,17.6 C7.01471863,17.6 5,15.5852814 5,13.1 C5,10.6857267 6.90123652,8.71551091 9.2881643,8.60489799 L9.5,8.6 L17.293,8.6 L15.1464466,6.45355339 C14.9728803,6.27998704 14.9535951,6.01056264 15.0885912,5.8156945 L15.1464466,5.74644661 C15.320013,5.57288026 15.5894374,5.55359511 15.7843055,5.68859116 Z"/>
</svg>
