<svg width="20" height="20" viewBox="0 0 20 20" fill="none"><path fill-rule="evenodd" clip-rule="evenodd" d="M8.693 2.693A2.367 2.367 0 0 1 10.367 2h5.263A2.37 2.37 0 0 1 18 4.367v1.866a2.37 2.37 0 0 1-.697 1.674c-.258.259-.588.403-.896.484a3.6 3.6 0 0 1-.907.109h-.261l-2.388 2.356A.5.5 0 0 1 12 10.5v-2h-1.633c-.548 0-1.186-.105-1.674-.593A2.367 2.367 0 0 1 8 6.233V4.367c0-.628.25-1.23.693-1.674ZM10.367 3A1.367 1.367 0 0 0 9 4.367v1.866c0 .363.144.71.4.967.212.212.525.3.967.3H12.5a.5.5 0 0 1 .5.5v1.304l1.682-1.66a.5.5 0 0 1 .351-.144h.467c.218 0 .448-.022.651-.075.207-.055.354-.134.445-.225A1.37 1.37 0 0 0 17 6.233V4.367A1.37 1.37 0 0 0 15.63 3h-5.263ZM6.2 3h.3a.5.5 0 0 1 0 1h-.3c-.373 0-.654.093-.846.285A1.203 1.203 0 0 0 5 5.134V14.8A1.203 1.203 0 0 0 6.2 16h3.567c.328 0 .661-.133.88-.351.226-.226.353-.532.353-.849V13a.5.5 0 0 1 1 0v1.8c0 .585-.235 1.144-.646 1.556A2.275 2.275 0 0 1 9.767 17H6.2A2.202 2.202 0 0 1 4 14.8V5.134c0-.585.235-1.144.646-1.556C5.092 3.132 5.672 3 6.2 3Zm1.3 11a.5.5 0 0 0 0 1h1a.5.5 0 0 0 0-1h-1Z" fill="#606B85"/></svg>