<svg xmlns="http://www.w3.org/2000/svg" width="20" height="20" fill="none" viewBox="0 0 20 20">
  <path fill="#606B85" fill-rule="evenodd" d="M1 1.53c0-.293.24-.53.534-.53h16.932c.295 0 .534.237.534.53a.532.532 0 0 1-.534.529H1.534A.532.532 0 0 1 1 1.529Zm0 16.94c0-.292.24-.529.534-.529h16.932c.295 0 .534.237.534.53a.532.532 0 0 1-.534.529H1.534A.531.531 0 0 1 1 18.47ZM2.847 6.294c-.43 0-.78.347-.78.774v5.84c0 .427.35.773.78.773h14.305c.43 0 .78-.346.78-.774V7.068a.777.777 0 0 0-.78-.774H2.847ZM1 7.068a1.84 1.84 0 0 1 1.847-1.833h14.305c1.02 0 1.847.82 1.847 1.833v5.84a1.84 1.84 0 0 1-1.847 1.832H2.847A1.84 1.84 0 0 1 1 12.907V7.068Z" clip-rule="evenodd"/>
</svg>
