<svg width="20" height="20" viewBox="0 0 20 20" fill="none" xmlns="http://www.w3.org/2000/svg">
    <path fill-rule="evenodd" clip-rule="evenodd" d="M11.8242 5.35215C12.3778 4.78599 13.1023 4.40001 14.1055 4.40001H17.8211C18.1156 4.40001 18.3544 4.63879 18.3544 4.93334C18.3544 5.2279 18.1156 5.46668 17.8211 5.46668H14.1055C13.4199 5.46668 12.9622 5.71403 12.5869 6.09787C12.1857 6.50818 11.8823 7.06858 11.5361 7.71765L11.5182 7.75119C11.1932 8.3607 10.825 9.05125 10.3069 9.5812C9.7533 10.1473 9.02879 10.5333 8.02554 10.5333H2.28333C1.98878 10.5333 1.75 10.2945 1.75 10C1.75 9.70545 1.98878 9.46667 2.28333 9.46667H8.02554C8.71117 9.46667 9.16888 9.21932 9.5442 8.83547C9.94539 8.42516 10.2488 7.86476 10.5949 7.21569L10.6128 7.18215C10.9378 6.57264 11.306 5.88209 11.8242 5.35215Z" fill="#606B85"/>
    <path fill-rule="evenodd" clip-rule="evenodd" d="M15.5875 2.11544C15.8183 1.93244 16.1538 1.9712 16.3368 2.202L18.239 4.60115C18.3928 4.79519 18.3929 5.06961 18.2391 5.26371L16.3369 7.66455C16.154 7.89542 15.8185 7.93429 15.5876 7.75137C15.3568 7.56844 15.3179 7.233 15.5008 7.00213L17.1405 4.93262L15.5009 2.8647C15.3179 2.6339 15.3567 2.29844 15.5875 2.11544Z" fill="#606B85"/>
    <path fill-rule="evenodd" clip-rule="evenodd" d="M7.49221 10C7.49221 9.70545 7.73099 9.46667 8.02554 9.46667C9.02879 9.46667 9.7533 9.85265 10.3069 10.4188C10.825 10.9487 11.1932 11.6393 11.5182 12.2488C11.5242 12.26 11.5302 12.2712 11.5361 12.2823C11.8823 12.9314 12.1857 13.4918 12.5869 13.9021C12.9622 14.286 13.4199 14.5333 14.1055 14.5333H17.8211C18.1156 14.5333 18.3544 14.7721 18.3544 15.0667C18.3544 15.3612 18.1156 15.6 17.8211 15.6H14.1055C13.1023 15.6 12.3778 15.214 11.8242 14.6478C11.306 14.1179 10.9378 13.4273 10.6128 12.8178C10.6069 12.8066 10.6009 12.7955 10.5949 12.7843C10.2488 12.1352 9.94539 11.5748 9.5442 11.1645C9.16888 10.7807 8.71117 10.5333 8.02554 10.5333C7.73099 10.5333 7.49221 10.2945 7.49221 10Z" fill="#606B85"/>
    <path fill-rule="evenodd" clip-rule="evenodd" d="M15.5875 12.2487C15.8183 12.0657 16.1538 12.1045 16.3368 12.3353L18.239 14.7345C18.3928 14.9285 18.3929 15.2029 18.2391 15.397L16.3369 17.7979C16.154 18.0287 15.8185 18.0676 15.5876 17.8847C15.3568 17.7018 15.3179 17.3663 15.5008 17.1354L17.1405 15.0659L15.5009 12.998C15.3179 12.7672 15.3567 12.4317 15.5875 12.2487Z" fill="#606B85"/>
</svg>
