<svg width="20" height="20" viewBox="0 0 20 20" fill="none"><path fill-rule="evenodd" clip-rule="evenodd" d="M11.342 2.813a.98.98 0 0 1 .061.146l1.32 4.035h3.82a1.507 1.507 0 0 1 .868.303 1.486 1.486 0 0 1 .553 1.505 1.48 1.48 0 0 1-.495.807l-3.288 2.55 1.42 3.885c.01.028.02.055.027.084a1.477 1.477 0 0 1-.505 1.538 1.511 1.511 0 0 1-1.753.098l-3.376-2.37-3.372 2.318a1.516 1.516 0 0 1-1.744-.104 1.49 1.49 0 0 1-.506-1.54.983.983 0 0 1 .027-.086l1.418-3.828L2.532 9.61a1.481 1.481 0 0 1-.441-1.64c.097-.266.27-.5.498-.672a1.507 1.507 0 0 1 .868-.303h3.82l1.32-4.035a.985.985 0 0 1 .062-.146 1.5 1.5 0 0 1 .555-.594 1.518 1.518 0 0 1 2.128.594Zm-3.34 5.17H3.458a.503.503 0 0 0-.428.325.491.491 0 0 0 .118.521l3.858 2.99-1.668 4.504a.497.497 0 0 0 .17.517.508.508 0 0 0 .545.059L10 14.185l3.947 2.772a.51.51 0 0 0 .708-.292.497.497 0 0 0 .008-.284l-1.668-4.56 3.858-2.992a.495.495 0 0 0-.31-.846h-4.546l-1.543-4.72A.506.506 0 0 0 10 2.99a.513.513 0 0 0-.453.275l-1.544 4.72Z" fill="#606B85"/></svg>