<svg xmlns="http://www.w3.org/2000/svg" width="20" height="20" fill="none" viewBox="0 0 20 20">
  <path fill="#606B85" fill-rule="evenodd" d="M3.5 10a.5.5 0 0 1 .5.5v6a.5.5 0 0 0 .5.5h11a.5.5 0 0 0 .5-.5v-6a.5.5 0 0 1 1 0v6a1.5 1.5 0 0 1-1.5 1.5h-11A1.5 1.5 0 0 1 3 16.5v-6a.5.5 0 0 1 .5-.5Zm12.599-8a1 1 0 0 1 .976.783l.913 4.109A.501.501 0 0 1 18 7a2 2 0 0 1-3.5 1.323 2 2 0 0 1-3 0 2 2 0 0 1-3 0 2 2 0 0 1-3 0A2 2 0 0 1 2 7a.5.5 0 0 1 .012-.108l.913-4.11A1.003 1.003 0 0 1 3.9 2M6 7a1 1 0 0 0 2 0 .5.5 0 0 1 1 0 1 1 0 0 0 2 0 .5.5 0 0 1 1 0 1 1 0 0 0 2 0 .5.5 0 0 1 1 0 1 1 0 0 0 1.999.05l-.9-4.05H3.9L3 7.05A1 1 0 0 0 5 7a.5.5 0 0 1 1 0ZM3.901 2H16.1 3.9Z" clip-rule="evenodd"/>
</svg>
