<svg xmlns="http://www.w3.org/2000/svg" width="20" height="20" fill="none" viewBox="0 0 20 20">
  <path fill="#606B85" d="M4.17 5.624a.5.5 0 0 1 .706.047l3.47 3.965 3.47-3.965a.5.5 0 1 1 .753.658L9.01 10.396l3.558 4.066a.5.5 0 0 1-.753.658l-3.47-3.965-3.47 3.965a.5.5 0 0 1-.752-.658l3.558-4.066-3.558-4.067a.5.5 0 0 1 .047-.705Zm11.662 7.708a1.135 1.135 0 0 1 1.937.803v.005a1.565 1.565 0 0 1-.582 1.238l-2.496 1.96a.5.5 0 0 0 .309.893h3.5a.5.5 0 0 0 0-1h-2.054l1.36-1.069.005-.003a2.566 2.566 0 0 0 .958-2.027 2.135 2.135 0 0 0-4.269.003v.326a.5.5 0 1 0 1 0v-.326c0-.301.12-.59.332-.803Z"/>
</svg>
