<svg xmlns="http://www.w3.org/2000/svg" width="24" height="24" viewBox="0 0 24 24">
  <path fill="#666A6D" fill-rule="evenodd" d="M12,4 C16.418278,4 20,7.581722 20,12 C20,16.418278 16.418278,20 12,20 C7.581722,20 4,16.418278 4,12 C4,7.581722 7.581722,4 12,4 Z M14.9969364,9 C14.7308986,9 14.4757697,9.10561101 14.2876621,9.29361128 L14.2876621,9.29361128 L11.0010252,12.5881835 L9.71234384,11.2903217 C9.52422634,11.1023214 9.2690974,10.9967154 9.00306961,10.9967154 C8.73703183,10.9967154 8.48190289,11.1023214 8.29379537,11.2903217 C8.10567787,11.478312 8,11.7332819 8,11.9991539 C8,12.2650159 8.10567787,12.5199858 8.29379537,12.7079861 L8.29379537,12.7079861 L10.291751,14.7046965 C10.3846159,14.7982624 10.4951029,14.87254 10.6168383,14.9232265 C10.7385738,14.973913 10.8691402,15 11.0010252,15 C11.1329003,15 11.2634667,14.973913 11.3852021,14.9232265 C11.5069375,14.87254 11.6174245,14.7982624 11.7102994,14.7046965 L11.7102994,14.7046965 L15.7062106,10.7112757 C15.8943181,10.5232754 16,10.2683055 16,10.0024435 C16,9.7365715 15.8943181,9.48160156 15.7062106,9.29361128 C15.5180931,9.10561101 15.2629642,9 14.9969364,9 Z"/>
</svg>
