<svg xmlns="http://www.w3.org/2000/svg" width="20" height="20" viewBox="0 0 20 20">
  <path fill="#707578" fill-rule="evenodd" d="M10,2 C14.418278,2 18,5.581722 18,10 C18,14.418278 14.418278,18 10,18 C5.581722,18 2,14.418278 2,10 C2,5.581722 5.581722,2 10,2 Z M12.9969364,7 C12.7308986,7 12.4757697,7.10561101 12.2876621,7.29361128 L12.2876621,7.29361128 L9.0010252,10.5881835 L7.71234384,9.2903217 C7.52422634,9.10232143 7.2690974,8.99671541 7.00306961,8.99671541 C6.73703183,8.99671541 6.48190289,9.10232143 6.29379537,9.2903217 C6.10567787,9.47831198 6,9.73328192 6,9.99915389 C6,10.2650159 6.10567787,10.5199858 6.29379537,10.7079861 L6.29379537,10.7079861 L8.29175097,12.7046965 C8.38461594,12.7982624 8.49510289,12.87254 8.61683832,12.9232265 C8.73857375,12.973913 8.86914015,13 9.0010252,13 C9.13290026,13 9.26346666,12.973913 9.38520209,12.9232265 C9.50693753,12.87254 9.61742447,12.7982624 9.71029944,12.7046965 L9.71029944,12.7046965 L13.7062106,8.71127567 C13.8943181,8.5232754 14,8.26830547 14,8.00244347 C14,7.7365715 13.8943181,7.48160156 13.7062106,7.29361128 C13.5180931,7.10561101 13.2629642,7 12.9969364,7 Z"/>
</svg>
