<svg xmlns="http://www.w3.org/2000/svg" width="20" height="20" fill="none" viewBox="0 0 20 20">
  <path fill="#606B85" d="M16.635 3A1.135 1.135 0 0 0 15.5 4.135v.327a.5.5 0 0 1-1 0v-.327a2.135 2.135 0 0 1 4.27-.003 2.566 2.566 0 0 1-.959 2.027l-.005.003-1.36 1.069H18.5a.5.5 0 0 1 0 1H15a.5.5 0 0 1-.309-.893l2.495-1.96a1.566 1.566 0 0 0 .583-1.238v-.005A1.135 1.135 0 0 0 16.635 3ZM4.17 5.624a.5.5 0 0 1 .706.047l3.47 3.965 3.47-3.965a.5.5 0 1 1 .753.658L9.01 10.396l3.558 4.066a.5.5 0 0 1-.753.658l-3.47-3.965-3.47 3.965a.5.5 0 0 1-.752-.658l3.558-4.066-3.558-4.067a.5.5 0 0 1 .047-.705Z"/>
</svg>
