<svg width="20" height="20" viewBox="0 0 20 20" fill="none" xmlns="http://www.w3.org/2000/svg">
  <path fill-rule="evenodd" clip-rule="evenodd" d="M15.6569 4.34315C18.781 7.46734 18.781 12.5327 15.6569 15.6569C12.5327 18.781 7.46734 18.781 4.34315 15.6569C1.21895 12.5327 1.21895 7.46734 4.34315 4.34315C7.46734 1.21895 12.5327 1.21895 15.6569 4.34315ZM6.31631 8.4383L4.10302 6.22557C2.63214 8.51873 2.63233 11.4823 4.10357 13.7753L6.31673 11.5627C5.89456 10.5667 5.89442 9.43438 6.31631 8.4383ZM13.7744 15.897L11.5617 13.6837C10.566 14.1054 9.43405 14.1054 8.4383 13.6837L6.22557 15.897C8.51844 17.3677 11.4816 17.3677 13.7744 15.897ZM12.1213 7.87868C10.9497 6.70711 9.05025 6.70711 7.87868 7.87868C6.70711 9.05025 6.70711 10.9497 7.87868 12.1213C9.05025 13.2929 10.9497 13.2929 12.1213 12.1213C13.2929 10.9497 13.2929 9.05025 12.1213 7.87868ZM6.22471 4.10357L8.43732 6.31673C9.43363 5.89442 10.5664 5.89442 11.5627 6.31673L13.7753 4.10357C11.5611 2.68288 8.72161 2.63389 6.46428 3.95661L6.22471 4.10357ZM15.897 6.22557L13.6837 8.4383C14.1056 9.43438 14.1054 10.5667 13.6833 11.5627L15.8964 13.7753C17.3677 11.4823 17.3679 8.51873 15.897 6.22557Z" fill="#606B85"/>
</svg>
