<svg fill="none" xmlns="http://www.w3.org/2000/svg" viewBox="0 0 20 20"><path d="M10.076 5.185a.97.97 0 0 0-1.036.967.5.5 0 1 1-1 0 1.97 1.97 0 0 1 3.776-.783 1.968 1.968 0 0 1-1.15 2.639.234.234 0 0 0-.157.222v.125a.5.5 0 1 1-1 0V8.23a1.235 1.235 0 0 1 .823-1.165.969.969 0 0 0-.256-1.88Zm-.066 4.139a.684.684 0 1 1 0 1.367.684.684 0 0 1 0-1.367Z" fill="#606B85"/><path fill-rule="evenodd" clip-rule="evenodd" d="M5.804 2a1.435 1.435 0 0 0-1.435 1.435v5.85l-.328-.21a1 1 0 0 0-1.541.84V15.5A1.5 1.5 0 0 0 4 17h12a1.5 1.5 0 0 0 1.5-1.5V9.916a1 1 0 0 0-1.54-.841l-.31.199v-5.84A1.434 1.434 0 0 0 14.214 2h-8.41Zm8.845 7.917V3.435A.435.435 0 0 0 14.216 3H5.804a.435.435 0 0 0-.435.435v6.494l4.36 2.803a.5.5 0 0 0 .541 0l4.38-2.815Zm-3.838 3.656L16.5 9.916V15.5a.5.5 0 0 1-.5.5H4a.5.5 0 0 1-.5-.5V9.916l5.689 3.657a1.5 1.5 0 0 0 1.622 0Z" fill="#606B85"/></svg>