<svg width="20" height="20" viewBox="0 0 20 20" fill="none"><path fill-rule="evenodd" clip-rule="evenodd" d="M3.167 4A.167.167 0 0 0 3 4.167v8.666c0 .092.075.167.167.167h13.666a.167.167 0 0 0 .167-.167V4.167A.167.167 0 0 0 16.833 4H3.167ZM2 4.167C2 3.522 2.522 3 3.167 3h13.666C17.478 3 18 3.522 18 4.167v8.666c0 .645-.522 1.167-1.167 1.167H10.5v2h2a.5.5 0 0 1 0 1h-5a.5.5 0 0 1 0-1h2v-2H3.167A1.167 1.167 0 0 1 2 12.833V4.167ZM11.436 6a.733.733 0 0 1 .631.29L13.565 8h.935a.5.5 0 0 1 0 1h-1.056a.739.739 0 0 1-.346-.09.723.723 0 0 1-.238-.197l-1.347-1.537-2.25 3.45a.733.733 0 0 1-.594.373.733.733 0 0 1-.37-.081.733.733 0 0 1-.26-.216L6.54 9H5.5a.5.5 0 0 1 0-1h1.161c.14 0 .259.042.346.09.057.03.155.088.238.196l1.35 1.534 2.248-3.447A.733.733 0 0 1 11.436 6Z" fill="#606B85"/></svg>