<svg width="20" height="20" viewBox="0 0 20 20" fill="none"><path d="M13.487 8.146a.5.5 0 0 1 0 .708L9.51 12.83a1.085 1.085 0 0 1-1.53 0l-1.334-1.334a.5.5 0 1 1 .708-.707l1.332 1.334a.084.084 0 0 0 .118 0l3.976-3.977a.5.5 0 0 1 .707 0ZM10 4.5A.75.75 0 1 0 10 3a.75.75 0 0 0 0 1.5Z" fill="#606B85"/><path fill-rule="evenodd" clip-rule="evenodd" d="M7.867 1.94A2.923 2.923 0 0 1 10 1c.806 0 1.573.342 2.133.94a3.23 3.23 0 0 1 .83 1.727H15c.409 0 .793.173 1.072.47.277.296.428.69.428 1.096v11.2c0 .406-.15.8-.428 1.097A1.47 1.47 0 0 1 15 18H5a1.47 1.47 0 0 1-1.072-.47 1.604 1.604 0 0 1-.428-1.097v-11.2c0-.405.15-.8.428-1.096A1.47 1.47 0 0 1 5 3.667h2.038a3.233 3.233 0 0 1 .83-1.728ZM10 2c-.52 0-1.025.22-1.403.623A2.26 2.26 0 0 0 8 4.167a.5.5 0 0 1-.5.5H5a.47.47 0 0 0-.342.154.604.604 0 0 0-.158.412v11.2c0 .16.06.308.158.413A.47.47 0 0 0 5 17h10a.47.47 0 0 0 .342-.154.604.604 0 0 0 .158-.413v-11.2c0-.16-.06-.308-.158-.412A.47.47 0 0 0 15 4.667h-2.5a.5.5 0 0 1-.5-.5 2.26 2.26 0 0 0-.597-1.544A1.924 1.924 0 0 0 10 2Z" fill="#606B85"/></svg>