<svg xmlns="http://www.w3.org/2000/svg" width="20" height="20" fill="none" viewBox="0 0 20 20">
  <path fill="#606B85" fill-rule="evenodd" d="M7.522 11.625h4.956l1.193 2.938a.625.625 0 0 0 1.158-.47l-3.811-9.384a1.118 1.118 0 0 0-.393-.504 1.08 1.08 0 0 0-1.25 0c-.18.127-.314.304-.393.504l-3.811 9.384a.625.625 0 1 0 1.158.47l1.193-2.938Zm.508-1.25L10 5.525l1.97 4.85H8.03Z" clip-rule="evenodd"/>
  <path fill="#606B85" d="M4 17c0-.345.28-.625.625-.625h10.75a.625.625 0 1 1 0 1.25H4.625A.625.625 0 0 1 4 17Z"/>
</svg>
