<svg xmlns="http://www.w3.org/2000/svg" width="20" height="20" fill="none" viewBox="0 0 20 20">
  <path fill="#606B85" fill-rule="evenodd" d="M5 5.476C5 5.213 5.224 5 5.5 5h12c.276 0 .5.213.5.476a.489.489 0 0 1-.5.476h-12a.489.489 0 0 1-.5-.476Zm-2 6c0-.263.224-.476.5-.476h14c.276 0 .5.213.5.476a.489.489 0 0 1-.5.476h-14a.489.489 0 0 1-.5-.476Zm-1-3C2 8.213 2.224 8 2.5 8h15c.276 0 .5.213.5.476a.489.489 0 0 1-.5.476h-15a.489.489 0 0 1-.5-.476Zm3 6.048c0-.263.224-.476.5-.476h12c.276 0 .5.213.5.476a.489.489 0 0 1-.5.476h-12a.489.489 0 0 1-.5-.476Z" clip-rule="evenodd"/>
</svg>
