<svg fill="none" xmlns="http://www.w3.org/2000/svg" width="20" height="20" viewBox="0 0 20 20"><path fill-rule="evenodd" clip-rule="evenodd" d="M6.84 3h6.325c.648 0 1.183 0 1.607.057.447.06.843.192 1.162.51.319.32.45.718.51 1.164.056.423.056.957.056 1.6v.727a.5.5 0 0 1-1 0v-.683c0-.692 0-1.16-.048-1.511-.045-.336-.124-.487-.226-.59-.102-.102-.253-.18-.588-.226C14.29 4.001 13.822 4 13.13 4H10.5v12.438a.5.5 0 0 1-1 0V4H6.875c-.692 0-1.16.001-1.51.048-.337.045-.488.124-.59.227-.103.102-.182.253-.227.59-.047.35-.048.818-.048 1.51v.683a.5.5 0 1 1-1 0V6.34c0-.648 0-1.184.057-1.609.06-.447.192-.845.51-1.164m0 0c.32-.318.717-.45 1.164-.51C5.656 3 6.192 3 6.84 3" fill="#606B85"/><path fill-rule="evenodd" clip-rule="evenodd" d="M5.5 16.5A.5.5 0 0 1 6 16h8a.5.5 0 0 1 0 1H6a.5.5 0 0 1-.5-.5Z" fill="#606B85"/></svg>