<svg xmlns="http://www.w3.org/2000/svg" width="20" height="20" fill="none" viewBox="0 0 20 20">
  <path fill="#606B85" fill-rule="evenodd" d="m4.195 14.043 1.052-3.157a.498.498 0 0 1 .161-.265l7.66-7.662a1.568 1.568 0 0 1 2.216 0l2.757 2.759a1.567 1.567 0 0 1 0 2.215l-7.685 7.688a.5.5 0 0 1-.195.12l-3.2 1.068a.5.5 0 0 1-.416-.046l-.991.992a.5.5 0 0 1-.354.146H2a.5.5 0 0 1-.354-.854l2.593-2.591a.5.5 0 0 1-.044-.413ZM14.175 3.5a.567.567 0 0 0-.4.166l-7.333 7.336 3.56 3.56 7.332-7.336a.567.567 0 0 0 0-.801l-2.758-2.759a.567.567 0 0 0-.4-.166Zm-9.24 11.674L3.207 16.9h1.786l.835-.834-.893-.893Zm4.14-.124-3.121-3.122-.713 2.138 1.696 1.696 2.138-.712Z" clip-rule="evenodd"/>
</svg>
