<svg width="20" height="20" viewBox="0 0 20 20" fill="none" xmlns="http://www.w3.org/2000/svg">
<path fill-rule="evenodd" clip-rule="evenodd" d="M13.5 12.5507C13.3061 12.7654 13.0943 13.001 12.8722 13.2571C12.0732 14.1785 11.2644 15.2288 10.9741 16.0951C10.6597 17.0332 9.83519 17.5816 9.00757 17.4901C8.59197 17.4442 8.20177 17.2353 7.92254 16.8687C7.64607 16.5057 7.5 16.0184 7.5 15.4389C7.5 15.1117 7.58135 14.7936 7.67387 14.5147C7.73556 14.3288 7.81276 14.1318 7.88221 13.9547C7.91364 13.8745 7.94355 13.7982 7.96964 13.729C8.06212 13.4837 8.11959 13.2967 8.13569 13.1473C8.15014 13.0132 8.1264 12.957 8.10298 12.9246L8.10203 12.9238C8.09671 12.9193 8.07021 12.897 8.00124 12.8662C7.9139 12.8272 7.79078 12.789 7.63095 12.7552C7.31134 12.6876 6.90565 12.65 6.47896 12.632C5.84689 12.6054 5.2415 12.6227 4.84539 12.6341C4.69827 12.6383 4.58002 12.6416 4.5 12.6416C4.24984 12.6416 3.76867 12.6339 3.34187 12.4241C3.11768 12.3138 2.89898 12.1438 2.73939 11.887C2.57995 11.6304 2.5 11.3203 2.5 10.9627C2.5 9.74475 3.02378 7.31536 4.05326 5.26731C4.36286 4.65138 4.74573 4.38286 5.23257 4.07469C5.80712 3.71101 6.3783 3.49982 7 3.49982H10C11.1164 3.49982 12.2038 3.91745 13.0019 4.38303C13.18 4.48693 13.3472 4.59516 13.5 4.70449V4.33316C13.5 4.05701 13.7239 3.83316 14 3.83316H17C17.2761 3.83316 17.5 4.05701 17.5 4.33316V12.9998C17.5 13.276 17.2761 13.4998 17 13.4998H14C13.7239 13.4998 13.5 13.276 13.5 12.9998V12.5507ZM10.0259 15.7774C9.84025 16.3314 9.41481 16.529 9.11743 16.4962C8.97053 16.4799 8.82948 16.409 8.71809 16.2628C8.60393 16.1129 8.5 15.8541 8.5 15.4389C8.5 15.2687 8.54365 15.0688 8.623 14.8296C8.67655 14.6682 8.7361 14.5166 8.79976 14.3545C8.83387 14.2676 8.86917 14.1778 8.90536 14.0818C9.00038 13.8297 9.09916 13.5401 9.12994 13.2544C9.16191 12.9575 9.12513 12.6191 8.89923 12.3196C8.76499 12.1415 8.57769 12.0284 8.40892 11.9531C8.23454 11.8752 8.03734 11.819 7.8378 11.7768C7.43866 11.6924 6.96935 11.6518 6.52103 11.6329C5.84498 11.6044 5.13952 11.6247 4.75409 11.6357C4.636 11.6391 4.54796 11.6416 4.5 11.6416C4.25015 11.6416 3.98133 11.6242 3.78312 11.5267C3.69481 11.4833 3.63226 11.4292 3.58873 11.3591C3.54505 11.2888 3.5 11.1694 3.5 10.9627C3.5 9.92366 3.97622 7.64719 4.94673 5.71643C5.13111 5.34963 5.32238 5.20135 5.76742 4.91964C6.23475 4.62383 6.6217 4.49982 7 4.49982H10C10.8836 4.49982 11.7962 4.83742 12.4981 5.24681C12.8465 5.45004 13.1259 5.66115 13.3109 5.83788C13.4042 5.92697 13.4633 5.99767 13.4952 6.04524L13.5 6.05245V11.0315C13.4941 11.0395 13.4875 11.0483 13.4799 11.0581C13.4127 11.1456 13.3094 11.2662 13.1712 11.4215C13.081 11.523 12.9767 11.6384 12.8627 11.7644C12.6398 12.011 12.38 12.2984 12.1167 12.6019C11.3287 13.5106 10.3875 14.6984 10.0259 15.7774ZM14.5 12.4998H16.5V4.83316H14.5V12.4998Z" fill="#606B85"/>
</svg>
