<svg xmlns="http://www.w3.org/2000/svg" width="20" height="20" fill="none" viewBox="0 0 20 20">
  <path fill="#606B85" fill-rule="evenodd" d="M12.368 3.004c-.11.01-.22.032-.32.064-.024.007-1.022.405-2.218.883-1.197.478-2.195.875-2.218.88a.583.583 0 0 1-.23 0 254.59 254.59 0 0 1-2.014-.8 519.355 519.355 0 0 0-2.026-.81.957.957 0 0 0-.348-.059.982.982 0 0 0-.889.555.99.99 0 0 0-.088.246l-.014.061L2 8.92c-.002 3.605 0 4.916.005 4.97a1.496 1.496 0 0 0 .835 1.203c.076.037 4.137 1.662 4.21 1.685.276.087.584.09.866.008.046-.013.926-.361 2.252-.892a285.17 285.17 0 0 1 2.216-.88.593.593 0 0 1 .236.002c.025.007.814.32 1.753.695 2.276.909 2.306.92 2.38.94a.883.883 0 0 0 .284.027.954.954 0 0 0 .52-.168c.088-.058.211-.18.268-.265a1.04 1.04 0 0 0 .167-.442c.005-.035.008-1.627.009-5.89 0-3.215 0-5.412-.002-4.884a27.05 27.05 0 0 1-.01.906 1.505 1.505 0 0 0-.816-1.175c-.1-.05-4.149-1.67-4.245-1.698a1.61 1.61 0 0 0-.242-.052 2.054 2.054 0 0 0-.32-.006ZM2.002 8.965c0 2.693.001 3.793.002 2.446a4488.935 4488.935 0 0 0-.002-2.446ZM3 8.989l.002 4.827.014.051a.504.504 0 0 0 .267.326c.027.013 3.299 1.324 3.685 1.477l.03.012-.001-4.96-.002-4.962-1.974-.79-1.998-.799-.025-.01L3 8.99Zm6.999-4.028-1.995.798v9.923l.02-.008 1.997-.799 1.976-.79V9.123c0-2.728 0-4.96-.002-4.96l-1.996.798ZM13 9.125c0 3.177.002 4.963.006 4.963.003 0 .9.357 1.994.794 1.093.436 1.99.793 1.993.793.005 0 .006-1.59.005-4.824l-.001-4.824-.015-.05a.513.513 0 0 0-.25-.316 691.202 691.202 0 0 0-3.702-1.487L13 4.162v4.963Z" clip-rule="evenodd"/>
</svg>
