<svg width="20" height="20" viewBox="0 0 20 20" fill="none"><path fill-rule="evenodd" clip-rule="evenodd" d="M4 4.5a.5.5 0 0 1 .5-.5h6a.5.5 0 0 1 .5.5v6a.5.5 0 0 1-.5.5h-6a.5.5 0 0 1-.5-.5v-6ZM4.5 3A1.5 1.5 0 0 0 3 4.5v6A1.5 1.5 0 0 0 4.5 12h6a1.5 1.5 0 0 0 1.5-1.5v-6A1.5 1.5 0 0 0 10.5 3h-6Zm9 6a.5.5 0 0 0 0 1h3a.5.5 0 0 1 .5.5v6a.5.5 0 0 1-.5.5h-6a.5.5 0 0 1-.5-.5v-3a.5.5 0 0 0-1 0v3a1.5 1.5 0 0 0 1.5 1.5h6a1.5 1.5 0 0 0 1.5-1.5v-6A1.5 1.5 0 0 0 16.5 9h-3Zm-1.666 5v-1.167a1.667 1.667 0 1 1 3.333 0V15.5a.5.5 0 1 1-1 0v-1h-1.333v1a.5.5 0 1 1-1 0V14Zm2.333-.5h-1.333v-.667a.667.667 0 1 1 1.333 0v.667ZM8 5.5a.5.5 0 0 0-1 0V6H5.5a.5.5 0 0 0 0 1h2.246a6.32 6.32 0 0 1-.412.723 5.013 5.013 0 0 1-.171.24.497.497 0 0 0-.102.13C6.627 8.626 6.102 9 5.5 9a.5.5 0 0 0 0 1c.826 0 1.488-.401 1.992-.897a3.113 3.113 0 0 0 1.975.883.5.5 0 1 0 .066-.998 2.113 2.113 0 0 1-1.4-.66l.033-.05A7.547 7.547 0 0 0 8.843 7H9.5a.5.5 0 0 0 0-1H8v-.5Z" fill="#606B85"/></svg>