<svg width="20" height="20" viewBox="0 0 20 20" fill="none" xmlns="http://www.w3.org/2000/svg">
<path fill-rule="evenodd" clip-rule="evenodd" d="M13.5854 10.1174C13.7987 9.9041 14.1445 9.9041 14.3578 10.1174L16.84 12.5996C17.0533 12.8129 17.0533 13.1587 16.84 13.3719L14.3578 15.8542C14.1445 16.0675 13.7987 16.0675 13.5854 15.8542C13.3722 15.6409 13.3722 15.2952 13.5854 15.0819L15.6816 12.9858L13.5854 10.8897C13.3722 10.6764 13.3722 10.3306 13.5854 10.1174Z" fill="#606B85"/>
<path fill-rule="evenodd" clip-rule="evenodd" d="M6.41449 4.15992C6.62775 4.37318 6.62775 4.71895 6.41449 4.93222L4.31837 7.02834L6.41449 9.12446C6.62775 9.33772 6.62775 9.68349 6.41449 9.89676C6.20122 10.11 5.85545 10.11 5.64219 9.89676L3.15992 7.41449C2.94665 7.20122 2.94665 6.85545 3.15992 6.64219L5.64219 4.15992C5.85545 3.94665 6.20122 3.94665 6.41449 4.15992Z" fill="#606B85"/>
<path fill-rule="evenodd" clip-rule="evenodd" d="M2.99997 7.02834C2.99997 6.72674 3.24447 6.48224 3.54607 6.48224H16.4539C16.7555 6.48224 17 6.72674 17 7.02834C17 7.32994 16.7555 7.57444 16.4539 7.57444H3.54607C3.24447 7.57444 2.99997 7.32994 2.99997 7.02834Z" fill="#606B85"/>
<path fill-rule="evenodd" clip-rule="evenodd" d="M2.99997 12.9858C2.99997 12.6842 3.24447 12.4397 3.54607 12.4397H16.4539C16.7555 12.4397 17 12.6842 17 12.9858C17 13.2874 16.7555 13.5319 16.4539 13.5319H3.54607C3.24447 13.5319 2.99997 13.2874 2.99997 12.9858Z" fill="#606B85"/>
</svg>
