<svg xmlns="http://www.w3.org/2000/svg" width="20" height="20" fill="none" viewBox="0 0 20 20">
  <path fill="#606B85" fill-rule="evenodd" d="M9.837 2.007c-.22.022-.426.083-.617.183a1.699 1.699 0 0 0-.767.799c-.075.15-6.244 12.717-6.296 12.825-.077.16-.117.29-.145.468a2.51 2.51 0 0 0 0 .403 1.526 1.526 0 0 0 .554.983c.236.185.514.298.803.326.044.004 2.285.006 6.637.006 5.768 0 6.58-.001 6.651-.01a1.51 1.51 0 0 0 1.19-.844c.083-.17.133-.343.145-.508a.552.552 0 0 0 .015-.162c0-.07-.003-.107-.007-.105-.004.003-.006-.006-.006-.022 0-.053-.022-.17-.05-.272a1.587 1.587 0 0 0-.1-.263c-.053-.108-6.222-12.675-6.297-12.825a1.708 1.708 0 0 0-1.71-.982Zm.096.998a.71.71 0 0 0-.512.301c-.019.028-1.352 2.736-3.19 6.48l-3.178 6.476a.503.503 0 0 0 0 .442.51.51 0 0 0 .342.28l.055.014h13.1l.055-.014a.6.6 0 0 0 .21-.105.516.516 0 0 0 .129-.623l-3.178-6.477c-1.83-3.726-3.168-6.445-3.187-6.473a.709.709 0 0 0-.646-.301Zm-7.93 13.478c0 .062 0 .087.002.056v-.112c-.001-.03-.002-.005-.002.056Z" clip-rule="evenodd"/>
</svg>
