<?xml version="1.0" encoding="UTF-8"?>
<svg id="Layer_1" data-name="Layer 1" xmlns="http://www.w3.org/2000/svg" viewBox="0 0 20 20">
  <defs>
    <style>
      .cls-1 {
        stroke-width: 0px;
      }
    </style>
  </defs>
  <path class="cls-1" fill="#fff" d="m5.83,12.12c-.23-.4-.63-.68-1.08-.78-.27-.06-.55-.04-.81.03v-1.3c0-.47-.18-.9-.51-1.23s-.77-.51-1.23-.51-.91.18-1.23.51c-.33.33-.51.77-.51,1.23v3.93c0,.91.32,1.8.9,2.52l1.52,1.81c.12.14.29.22.47.22.14,0,.28-.05.39-.14.26-.22.29-.6.07-.86l-1.51-1.8c-.4-.49-.62-1.12-.62-1.75v-3.93c0-.14.06-.28.16-.38.2-.2.55-.2.75,0,.1.1.16.24.16.38v2.73c-.03.31.02.63.16.93,0,.01.01.03.02.04l1.03,1.71c.17.29.55.38.83.21.29-.17.38-.55.21-.83l-1.01-1.68s-.03-.08-.03-.13c0-.01,0-.02,0-.03v-.08c.02-.13.08-.26.2-.33.1-.07.23-.09.35-.07.12.03.23.1.31.23l.87,1.34c.31.46.47,1,.47,1.56v2.28c0,.34.27.61.61.61s.61-.27.61-.61v-2.28c0-.8-.23-1.57-.68-2.23l-.85-1.3Z"/>
  <path class="cls-1" fill="#fff" d="m19.04,8.83c-.32-.33-.78-.51-1.23-.51s-.91.18-1.23.51c-.33.33-.51.77-.51,1.23v1.3c-.26-.07-.54-.09-.81-.03-.46.1-.85.39-1.06.76l-.86,1.32c-.45.66-.68,1.44-.68,2.24v2.28c0,.34.27.61.61.61s.61-.27.61-.61v-2.28c0-.56.16-1.1.48-1.57l.88-1.36c.08-.14.22-.19.29-.21.12-.03.25,0,.36.07.11.07.17.19.19.32v.09s0,.02,0,.03c0,.04-.01.09-.03.13l-1.01,1.68c-.17.29-.08.66.21.83.29.17.66.08.83-.21l1.03-1.71s.02-.03.02-.04c.15-.3.2-.62.16-.93v-2.73c0-.14.06-.28.16-.38.2-.2.55-.2.75,0,.1.1.16.24.16.38v3.92c0,.64-.22,1.26-.62,1.75l-1.52,1.81c-.22.26-.18.64.07.86.11.1.25.14.39.14.17,0,.35-.07.47-.22l1.53-1.82c.57-.71.89-1.6.89-2.52v-3.93c0-.47-.18-.9-.51-1.23Z"/>
  <path class="cls-1" fill="#fff" d="m13.11,10.91v-.61s0-.04,0-.04c0-.07.05-.12.07-.14s.07-.05.15-.04c.02,0,.04,0,.07,0h.59c.6.01,1.15-.34,1.38-.88.26-.57.11-1.25-.36-1.65l-.46-.41c-.06-.07-.07-.14-.07-.18,0-.04.01-.11.07-.17l.44-.39c.49-.4.67-1.07.42-1.66-.23-.56-.78-.91-1.37-.9h-.61s-.08,0-.1,0c-.11-.01-.19-.11-.18-.22,0-.02,0-.04,0-.06v-.59c.01-.61-.34-1.15-.88-1.38-.57-.26-1.25-.11-1.65.36l-.41.46c-.1.09-.26.09-.35-.01l-.38-.42c-.41-.47-1.09-.63-1.64-.38-.56.23-.91.78-.9,1.37v.61s0,.06,0,.07c-.01.11-.11.19-.22.18-.02,0-.05,0-.07,0h-.59c-.62-.01-1.15.34-1.37.87-.28.59-.13,1.28.4,1.72l.44.32c.09.1.09.26,0,.35l-.44.4c-.47.41-.63,1.09-.37,1.64.23.56.78.91,1.37.9h.61s.03,0,.04,0c.11.01.19.11.18.22,0,.02,0,.04,0,.07v.59c-.01.61.34,1.15.88,1.38.19.08.38.12.58.12.4,0,.8-.17,1.07-.48l.41-.46c.07-.06.14-.07.18-.07.04,0,.11.01.17.07l.41.46c.42.46,1.08.6,1.63.35.56-.23.91-.78.9-1.37Zm-1.21-.79c0,.06-.01.13,0,.18v.62c0,.1-.06.2-.17.24-.08.04-.18.02-.23-.05l-.41-.46c-.26-.29-.63-.46-1.02-.47-.39-.01-.77.12-1.05.39-.03.03-.06.06-.09.09l-.41.46c-.06.07-.16.09-.25.05-.1-.04-.16-.13-.15-.25v-.58c.06-.76-.49-1.44-1.25-1.53-.07,0-.13-.01-.18,0h-.62c-.12,0-.2-.06-.24-.17-.04-.08-.02-.18.06-.24l.46-.41c.59-.55.63-1.48.09-2.07-.03-.03-.06-.06-.09-.09-.02-.01-.03-.03-.05-.04l-.44-.33c-.07-.06-.09-.16-.04-.27.04-.1.14-.15.25-.15h.58c.76.06,1.44-.49,1.53-1.26,0-.08.01-.16,0-.2v-.62c0-.1.06-.2.17-.24.08-.04.18-.02.25.07l.4.44s0,0,0,0c.55.59,1.48.63,2.07.09.03-.03.06-.06.09-.09l.41-.46c.06-.07.16-.09.25-.05.1.04.16.13.15.25v.58c-.06.76.51,1.44,1.28,1.51.08,0,.16,0,.23,0h.6c.11,0,.2.06.24.16.04.08,0,.18-.06.24-.01,0-.02.02-.03.03l-.46.41c-.29.27-.46.63-.47,1.02-.02.39.12.77.38,1.05.03.03.06.06.1.09l.46.41c.07.06.09.16.05.25-.04.1-.14.15-.25.15h-.58c-.36-.03-.72.08-1,.31-.3.24-.48.57-.52.95Z"/>
  <path class="cls-1" fill="#fff" d="m10.03,4.91c-1.12,0-2.02.91-2.02,2.02s.91,2.02,2.02,2.02,2.02-.91,2.02-2.02-.91-2.02-2.02-2.02Zm0,2.83c-.45,0-.81-.36-.81-.81s.36-.81.81-.81.81.36.81.81-.36.81-.81.81Z"/>
</svg>
