<svg xmlns="http://www.w3.org/2000/svg" width="20" height="20" fill="none" viewBox="0 0 20 20">
  <path fill="#606B85" fill-rule="evenodd" d="M3.5 2.667a1.5 1.5 0 0 0-1.5 1.5v2a.5.5 0 0 0 .5.5h15a.5.5 0 0 0 .5-.5v-2a1.5 1.5 0 0 0-1.5-1.5h-13Zm-.354 1.146a.5.5 0 0 1 .354-.146h13a.5.5 0 0 1 .5.5v1.5H3v-1.5a.5.5 0 0 1 .146-.354Z" clip-rule="evenodd"/>
  <path fill="#606B85" d="M4 8.5a.5.5 0 0 0-1 0v6.333a2.5 2.5 0 0 0 2.5 2.5h9a2.5 2.5 0 0 0 2.5-2.5V8.5a.5.5 0 0 0-1 0v6.333a1.5 1.5 0 0 1-1.5 1.5h-9a1.5 1.5 0 0 1-1.5-1.5V8.5Z"/>
  <path fill="#606B85" d="M10.191 8.538c.06.024.115.06.163.108l2 2a.5.5 0 0 1-.708.708L10.5 10.207V14a.5.5 0 0 1-1 0v-3.793l-1.146 1.147a.5.5 0 0 1-.708-.708l2-2m.545-.108a.498.498 0 0 0-.188-.038h-.006a.498.498 0 0 0-.348.144"/>
</svg>
