<svg width="20" height="20" viewBox="0 0 20 20" fill="none" xmlns="http://www.w3.org/2000/svg">
<path d="M6.25 4.625C6.25 4.27982 5.97018 4 5.625 4C5.27982 4 5 4.27982 5 4.625V9.94598C5 11.5 5.50761 12.5609 6.41883 13.5105C7.3309 14.461 8.5 15 10 15C11.5 15 12.6691 14.461 13.5812 13.5105C14.4924 12.5609 15 11.5 15 9.94598V4.625C15 4.27982 14.7202 4 14.375 4C14.0298 4 13.75 4.27982 13.75 4.625V9.94598C13.75 11 13.3621 11.9334 12.6792 12.645C11.9972 13.3558 11 13.75 10 13.75C9 13.75 8.00275 13.3558 7.32076 12.645C6.63792 11.9334 6.25 11 6.25 9.94598V4.625Z" fill="#606B85"/>
<path d="M4.625 16.375C4.27982 16.375 4 16.6548 4 17C4 17.3452 4.27982 17.625 4.625 17.625H15.375C15.7202 17.625 16 17.3452 16 17C16 16.6548 15.7202 16.375 15.375 16.375H4.625Z" fill="#606B85"/>
</svg>
