<svg xmlns="http://www.w3.org/2000/svg" width="20" height="20" fill="none" viewBox="0 0 20 20">
  <path fill="#606B85" d="M10.5 12a.5.5 0 0 0-1 0v2a.5.5 0 0 0 1 0v-2Z"/>
  <path fill="#606B85" fill-rule="evenodd" d="M4 3a3 3 0 0 0-3 3v2.5a.5.5 0 0 1-1 0V6a4 4 0 0 1 8 0v2h6.5A1.5 1.5 0 0 1 16 9.5v7a1.5 1.5 0 0 1-1.5 1.5h-9A1.5 1.5 0 0 1 4 16.5v-7A1.5 1.5 0 0 1 5.5 8H7V6a3 3 0 0 0-3-3Zm1.5 6h9a.5.5 0 0 1 .5.5v7a.5.5 0 0 1-.5.5h-9a.5.5 0 0 1-.5-.5v-7a.5.5 0 0 1 .5-.5Z" clip-rule="evenodd"/>
</svg>
