<svg xmlns="http://www.w3.org/2000/svg" width="20" height="20" fill="none" viewBox="0 0 20 20">
  <path fill="#606B85" d="M3 5.25a1.25 1.25 0 1 0 2.5 0 1.25 1.25 0 0 0-2.5 0ZM3 10a1.25 1.25 0 1 0 2.5 0A1.25 1.25 0 0 0 3 10Zm0 4.75a1.25 1.25 0 1 0 2.5 0 1.25 1.25 0 0 0-2.5 0Z"/>
  <path fill="#606B85" fill-rule="evenodd" d="M7.374 5.25c0-.345.28-.625.625-.625h8.376a.625.625 0 1 1 0 1.25H7.999a.625.625 0 0 1-.625-.625Zm0 4.75c0-.345.28-.625.625-.625h8.376a.625.625 0 1 1 0 1.25H7.999A.625.625 0 0 1 7.374 10Zm0 4.75c0-.345.28-.625.625-.625h8.376a.625.625 0 1 1 0 1.25H7.999a.625.625 0 0 1-.625-.625Z" clip-rule="evenodd"/>
</svg>
