<svg xmlns="http://www.w3.org/2000/svg" width="20" height="20" fill="none" viewBox="0 0 20 20">
  <path fill="#606B85" fill-rule="evenodd" d="M4.145 8.839a.598.598 0 01-.057-.704l.057-.076L6.65 5.161a.459.459 0 01.632-.063l.068.063L9.855 8.06a.596.596 0 010 .78.459.459 0 01-.632.063l-.069-.063L7.5 6.913V12.5a.5.5 0 01-1 0V6.914L4.846 8.84a.459.459 0 01-.632.063l-.069-.063zm11.71 2.322a.598.598 0 01.057.704l-.057.076-2.505 2.898a.459.459 0 01-.632.063l-.068-.063-2.505-2.898a.596.596 0 010-.78.459.459 0 01.632-.063l.069.063 1.654 1.926V7.5a.5.5 0 011 0v5.586l1.654-1.925a.459.459 0 01.632-.063l.069.063z" clip-rule="evenodd"/>
</svg>
