<svg xmlns="http://www.w3.org/2000/svg" width="20" height="20" fill="none" viewBox="0 0 20 20">
  <path fill="#606B85" d="M4.088 7.135a.598.598 0 00.057.704l.069.063c.193.15.46.128.632-.063L6.5 5.914V11.5a.5.5 0 001 0V5.913l1.654 1.926.069.063c.193.15.46.128.632-.063a.596.596 0 000-.78L7.35 4.161l-.068-.063a.459.459 0 00-.632.063L4.145 7.06l-.057.076zM15.912 12.865a.598.598 0 00-.057-.704l-.069-.063a.459.459 0 00-.632.063L13.5 14.086V8.5a.5.5 0 00-1 0v5.587l-1.654-1.926-.069-.063a.459.459 0 00-.632.063.596.596 0 000 .78l2.505 2.898.068.063c.193.15.46.128.632-.063l2.505-2.898.057-.076z"/>
</svg>
