<svg xmlns="http://www.w3.org/2000/svg" width="24" height="24" viewBox="0 0 24 24">
  <path fill="#707578" fill-rule="evenodd" d="M12.5,11 L12.5115408,11.0001324 C12.5324012,11.000611 12.5532373,11.0023875 12.5739178,11.0054619 L12.5,11 C12.536097,11 12.5713007,11.0038252 12.6052277,11.0110922 C12.6204743,11.0143961 12.6358347,11.018448 12.6510116,11.0232413 C12.6647369,11.0275581 12.6780251,11.0324085 12.6910366,11.0377922 C12.7045389,11.0433515 12.7182757,11.0497496 12.7317582,11.056805 C12.7440467,11.0632933 12.7556825,11.0700193 12.7670103,11.077188 C12.7727019,11.0807332 12.7785364,11.0845946 12.7843055,11.0885912 L12.8021439,11.1015827 C12.8157542,11.1119203 12.8288187,11.1229392 12.8412864,11.1345887 L12.8535534,11.1464466 L14.9964105,13.2893038 C15.1916727,13.4845659 15.1916727,13.8011484 14.9964105,13.9964105 C14.8228442,14.1699769 14.5534198,14.189262 14.3585516,14.054266 L14.2893038,13.9964105 L13,12.707 L13,18.5 C13,18.7761424 12.7761424,19 12.5,19 C12.2545401,19 12.0503916,18.8231248 12.0080557,18.5898756 L12,18.5 L12,12.707 L10.7106962,13.9964105 C10.5371299,14.1699769 10.2677055,14.189262 10.0728374,14.054266 L10.0035895,13.9964105 C9.83002311,13.8228442 9.81073796,13.5534198 9.94573402,13.3585516 L10.0035895,13.2893038 L12.1464466,11.1464466 L12.1587136,11.1345887 C12.1711813,11.1229392 12.1842458,11.1119203 12.1978561,11.1015827 L12.1464466,11.1464466 C12.1732809,11.1196123 12.2024064,11.0964658 12.2331935,11.077007 C12.2443175,11.0700193 12.2559533,11.0632933 12.2678728,11.0570343 C12.2817243,11.0497496 12.2954611,11.0433515 12.3094049,11.0376106 C12.3219749,11.0324085 12.3352631,11.0275581 12.3488008,11.0232684 C12.3641653,11.018448 12.3795257,11.0143961 12.3950129,11.0110857 C12.4049881,11.008904 12.4153197,11.0070279 12.4257565,11.0054743 C12.4470942,11.0023382 12.468267,11.0005544 12.4894626,11.0001104 C12.4925095,11.0000413 12.4962499,11 12.5,11 Z M12.0001352,6 C13.8166145,6 15.4572716,6.96847072 16.3562152,8.4909225 L16.427,8.617 L16.4999523,8.6206476 C18.3917292,8.74636963 19.8966709,10.2646745 19.9948984,12.1623744 L20,12.36 C20,13.8075614 19.3476332,14.8254823 18.2832241,15.4422221 C17.7284066,15.7636945 17.1796818,15.9223733 16.729236,15.9821114 L16.5651057,16 L16.5,16 C16.2238576,16 16,15.7761424 16,15.5 C16,15.2545401 16.1768752,15.0503916 16.4101244,15.0080557 L16.5,15 L16.5208033,15.0019666 C16.5876426,14.9960209 16.7224375,14.9745856 16.9013007,14.9294329 C17.203002,14.8532704 17.5043344,14.7377896 17.7818816,14.5769732 C18.5517815,14.1308778 19,13.4314999 19,12.36 C19,10.8593849 17.8036998,9.64593838 16.3074618,9.61293102 L16.1400244,9.6141667 L15.8109046,9.62624012 L15.6698645,9.32862759 C15.0013435,7.91796436 13.5839877,7 12.0001352,7 C9.8946811,7 8.18643696,8.50848092 7.96496392,10.5260709 L7.94781287,10.7294899 L7.91592253,11.2692478 L7.38030365,11.1953022 C6.12752817,11.0223485 5,11.9018273 5,13.17 C5,14.0461499 5.36058023,14.5398873 5.99683514,14.8051796 C6.30854211,14.9351486 6.63781227,14.9911466 6.9124616,15.0007641 L8.5,15 C8.77614237,15 9,15.2238576 9,15.5 C9,15.7454599 8.82312484,15.9496084 8.58987563,15.9919443 L8.5,16 L7.10143859,16.0006991 C6.67152227,16.0141705 6.14013779,15.9483767 5.61198982,15.7281606 C4.61772913,15.3135946 4,14.4677469 4,13.17 C4,11.5135777 5.27995204,10.3014754 6.81919897,10.1831546 L7.004,10.174 L7.03029607,10.0213623 C7.46199756,7.76600128 9.40266305,6.10333767 11.7763648,6.00464122 L12.0001352,6 Z"/>
</svg>
