<svg xmlns="http://www.w3.org/2000/svg" width="24" height="24" viewBox="0 0 24 24">
  <path fill="#666A6D" fill-rule="evenodd" d="M11.9257565,11.0054743 L11.9576629,11.0017828 L11.9576629,11.0017828 L12.0115408,11.0001324 C12.0320627,11.0006032 12.0525612,11.0023302 12.0729111,11.0053133 L12,11 L12.0540544,11.0028879 L12.0540544,11.0028879 L12.1500102,11.0229262 L12.1500102,11.0229262 L12.2114048,11.0467376 L12.2114048,11.0467376 L12.2843055,11.0885912 L12.2843055,11.0885912 L12.3412864,11.1345887 L12.3412864,11.1345887 L15.2106962,14.0035895 C15.4059584,14.1988516 15.4059584,14.5154341 15.2106962,14.7106962 C15.0371299,14.8842626 14.7677055,14.9035477 14.5728374,14.7685517 L14.5035895,14.7106962 L12.4998571,12.707 L12.5,20.5628571 C12.5,20.8389995 12.2761424,21.0628571 12,21.0628571 C11.7545401,21.0628571 11.5503916,20.885982 11.5080557,20.6527328 L11.5,20.5628571 L11.4998571,12.707 L9.49641053,14.7106962 C9.32284418,14.8842626 9.05341978,14.9035477 8.85855164,14.7685517 L8.78930375,14.7106962 C8.6157374,14.5371299 8.59645225,14.2677055 8.7314483,14.0728374 L8.78930375,14.0035895 L11.6464466,11.1464466 C11.6729324,11.1199608 11.7016503,11.0970676 11.7319948,11.077767 L11.788529,11.0467743 L11.788529,11.0467743 L11.8497814,11.0229588 L11.8497814,11.0229588 L11.9257565,11.0054743 L11.9257565,11.0054743 Z M11.907,4 C14.2768663,4 16.4146146,5.27868068 17.5642209,7.28245318 L17.658,7.45310714 L17.7605027,7.45680825 C20.2278073,7.58157056 22.2014114,9.56738242 22.3091522,12.0401061 L22.3137857,12.2532143 C22.3137857,14.1051846 21.4845948,15.3976682 20.1255383,16.1829287 C19.6579747,16.4530861 19.1609941,16.64274 18.6643905,16.7672988 C18.4243024,16.827518 18.2241324,16.8635106 18.0566223,16.8829997 L17.937,16.8946429 L16.6259286,16.8946429 C16.3497862,16.8946429 16.1259286,16.6707852 16.1259286,16.3946429 C16.1259286,16.149183 16.3028037,15.9450345 16.5360529,15.9026985 L16.6259286,15.8946429 L17.8934991,15.8965388 L18.0502216,15.8756931 C18.1481895,15.859532 18.2740673,15.8342243 18.421105,15.7973441 C18.8331231,15.6940011 19.2447641,15.5369139 19.6252474,15.3170713 C20.689182,14.7023318 21.3137857,13.728744 21.3137857,12.2532143 C21.3137857,10.1691403 19.6423932,8.47900168 17.5654758,8.45095646 L17.3696154,8.45323534 L17.0404957,8.46530877 L16.8994555,8.16769623 C15.9901142,6.24887185 14.0618304,5 11.907,5 C9.0527705,5 6.69009757,7.16950696 6.41161328,9.97526058 L6.39398673,10.1980613 L6.35982255,10.7763048 L5.79277237,10.6580392 C4.09281076,10.3034904 2.49985714,11.5966148 2.49985714,13.3303571 C2.49985714,14.5547935 3.01672845,15.2605165 3.91377471,15.6310397 C4.355951,15.8136797 4.82065013,15.8885088 5.20824599,15.8973172 L5.44592857,15.8946429 L7.16307143,15.8946429 C7.4392138,15.8946429 7.66307143,16.1185005 7.66307143,16.3946429 C7.66307143,16.6401027 7.48619627,16.8442512 7.25294706,16.8865872 L7.16307143,16.8946429 L5.42865776,16.8958518 C4.88000927,16.9142421 4.20168597,16.8319075 3.532011,16.5552996 C2.27526262,16.0362022 1.49985714,14.9774833 1.49985714,13.3303571 C1.49985714,11.2198605 3.22795764,9.58713663 5.24635266,9.59892578 L5.449,9.60510714 L5.47354458,9.44636594 C5.97760962,6.41909318 8.55297361,4.11476459 11.672072,4.00415919 L11.907,4 Z"/>
</svg>
