<svg width="20" height="20" viewBox="0 0 20 20" fill="none" xmlns="http://www.w3.org/2000/svg">
<path fill-rule="evenodd" clip-rule="evenodd" d="M3.50993 2.5C3.79156 2.5 4.01987 2.72831 4.01987 3.00993V15.4801H16.4901C16.7717 15.4801 17 15.7084 17 15.9901C17 16.2717 16.7717 16.5 16.4901 16.5H3.50993C3.22831 16.5 3 16.2717 3 15.9901V3.00993C3 2.72831 3.22831 2.5 3.50993 2.5Z" fill="#606B85"/>
<path fill-rule="evenodd" clip-rule="evenodd" d="M14.9116 7.61272C15.1108 7.81184 15.1108 8.13471 14.9117 8.33388L11.9205 11.3259C11.8206 11.4258 11.702 11.5051 11.5716 11.5592C11.4411 11.6132 11.3012 11.6411 11.1599 11.6411C11.0187 11.6411 10.8788 11.6132 10.7483 11.5592C10.6179 11.5051 10.4994 11.4259 10.3995 11.326L8.93815 9.86464C8.93301 9.8595 8.9268 9.8553 8.92008 9.85252C8.91337 9.84974 8.90617 9.84831 8.8989 9.84831C8.89163 9.84831 8.88444 9.84974 8.87772 9.85252C8.87101 9.8553 8.86491 9.85938 8.85977 9.86452L5.86752 12.856C5.66835 13.0551 5.34548 13.0551 5.14636 12.8559C4.94724 12.6568 4.94728 12.3339 5.14645 12.1348L8.13839 9.1436C8.2382 9.04376 8.35686 8.9644 8.48729 8.91035C8.61778 8.85627 8.75765 8.82844 8.8989 8.82844C9.04016 8.82844 9.18003 8.85627 9.31052 8.91035C9.44101 8.96443 9.55957 9.04369 9.65942 9.1436L11.1207 10.6049C11.1258 10.61 11.132 10.6142 11.1388 10.617C11.1455 10.6198 11.1527 10.6212 11.1599 10.6212C11.1672 10.6212 11.1744 10.6198 11.1811 10.617C11.1878 10.6142 11.1939 10.6101 11.1991 10.605L14.1905 7.61281C14.3896 7.41365 14.7125 7.41361 14.9116 7.61272Z" fill="#606B85"/>
<path fill-rule="evenodd" clip-rule="evenodd" d="M12.0061 7.57767C12.0061 7.29604 12.2344 7.06773 12.5161 7.06773H14.8675C15.1492 7.06773 15.3775 7.29604 15.3775 7.57767V9.92914C15.3775 10.2108 15.1492 10.4391 14.8675 10.4391C14.5859 10.4391 14.3576 10.2108 14.3576 9.92914V8.0876H12.5161C12.2344 8.0876 12.0061 7.8593 12.0061 7.57767Z" fill="#606B85"/>
</svg>
