<svg xmlns="http://www.w3.org/2000/svg" width="20" height="20" viewBox="0 0 20 20">
  <path fill="#606B85" fill-rule="evenodd" d="M14.0234009,18.0035444 C13.3129058,18.002589 12.6158214,17.8210671 11.9969371,17.4779935 L11.7491202,17.3295043 C8.16877154,14.9140141 5.08713603,11.8315775 2.67257656,8.25060118 C1.5975147,6.59480122 1.83093737,4.41200952 3.23181995,3.0209813 L3.74769761,2.50510363 C4.42376742,1.83163212 5.51713989,1.83163212 6.1932097,2.50510363 L8.3755082,4.69015348 C9.0032949,5.32686481 9.03651456,6.32816133 8.47782459,7.00346852 L8.36613443,7.12609984 C8.08213405,7.41153976 8.08231281,7.87285939 8.36653433,8.15807912 L11.8440337,11.6363583 C11.9531952,11.7461963 12.0938596,11.817478 12.2448671,11.8414223 L12.3603153,11.8503676 C12.5535614,11.8507111 12.7389109,11.7737177 12.8750372,11.6365543 C13.5512543,10.9631132 14.6445965,10.9628504 15.3211372,11.6359664 L17.4948417,13.8083033 C18.16823,14.4844959 18.1684088,15.5777944 17.4952416,16.2542073 L16.978964,16.7702969 C16.1971786,17.5583602 15.1334597,18.0022109 14.0234009,18.0035444 Z M12.302325,16.4967017 C13.5621408,17.3066884 15.2166737,17.1260971 16.2720877,16.0634045 L16.7879653,15.5475268 C17.0719672,15.2619347 17.0717884,14.8005277 16.7875654,14.5151556 L14.6144487,12.3434026 C14.3288314,12.0595414 13.8675871,12.059629 13.5820775,12.3435986 C12.9070608,13.0170605 11.8144792,13.0176721 11.138709,12.3449663 L7.659482,8.86471155 C6.98585317,8.18873833 6.98576556,7.09528063 7.65928604,6.41919947 C7.7960958,6.28271922 7.87307975,6.09747757 7.8732995,5.90423234 C7.8734753,5.74963615 7.82451048,5.60005051 7.73503002,5.47636309 L7.65225571,5.38038181 L5.48636932,3.21195201 C5.20084761,2.92814618 4.7396877,2.92832488 4.45438603,3.21235192 L3.93868432,3.72804163 C2.87527648,4.78154013 2.69364249,6.43528881 3.50304363,7.69448105 C5.72735834,10.9922054 8.53469432,13.8541125 11.7853928,16.1404968 L12.302325,16.4967017 Z"/>
</svg>
