<?xml version="1.0" encoding="utf-8"?>
<svg version="1.1" xmlns="http://www.w3.org/2000/svg" xmlns:xlink="http://www.w3.org/1999/xlink" x="0px" y="0px" viewBox="0 0 1024 1024" xml:space="preserve">
 <path d="M796.444,1000.094C796.444,1000.094,778.48,994.106,778.48,994.106C772.491,994.106,706.62,958.176,676.678,946.1990000000001C443.135,790.503,239.532,598.878,77.848,371.322C59.883,347.369,11.977,275.509,11.977,275.509C11.977,275.509,0,257.5440000000001,0,257.5440000000001C0,257.5440000000001,227.556,24,227.556,24C227.556,24,491.041,287.4860000000001,491.041,287.4860000000001C491.041,287.4860000000001,401.216,383.2990000000001,401.216,383.2990000000001C479.064,467.1350000000001,562.901,550.971,658.713,622.8310000000001C658.713,622.8310000000001,760.515,521.03,760.515,521.03C760.515,521.03,1024,784.5150000000001,1024,784.5150000000001C1024,784.5150000000001,796.444,1000.094,796.444,1000.094C796.444,1000.094,796.444,1000.094,796.444,1000.094M77.848,263.533C89.825,287.4860000000001,113.778,323.41600000000005,125.754,335.39200000000005C281.45,562.9480000000001,479.064,748.585,712.608,892.3050000000001C724.585,898.293,760.515,916.258,784.468,928.234C784.468,928.234,934.175,778.527,934.175,778.527C934.175,778.527,754.526,598.878,754.526,598.878C754.526,598.878,658.713,700.6790000000001,658.713,700.6790000000001C658.713,700.6790000000001,640.749,682.714,640.749,682.714C526.971,598.878,425.17,503.06500000000005,335.345,401.264C335.345,401.264,317.38,377.31000000000006,317.38,377.31000000000006C317.38,377.31000000000006,407.205,287.4860000000001,407.205,287.4860000000001C407.205,287.4860000000001,227.556,107.8370000000001,227.556,107.8370000000001C227.556,107.8370000000001,77.848,263.533,77.848,263.533C77.848,263.533,77.848,263.533,77.848,263.533" />
</svg>