<svg xmlns="http://www.w3.org/2000/svg" width="24" height="24" viewBox="0 0 24 24">
  <path fill="#707578" fill-rule="evenodd" d="M11.5769988,5.94856197 L7.465,9.9 L5.5,9.9 C4.67157288,9.9 4,10.5715729 4,11.4 L4,13.4 L4.00686658,13.54446 C4.07955132,14.3051119 4.72030388,14.9 5.5,14.9 L7.466,14.9 L11.5835347,18.8578354 C11.8156669,19.0893624 12.1807417,19.1597412 12.4911918,19.0312666 C12.8039561,18.9018342 12.9992591,18.5979113 13,18.2631047 L13,6.538 C12.9992591,6.20208865 12.8039561,5.89816576 12.4911918,5.76873344 C12.1807417,5.64025877 11.8156669,5.71063759 11.5769988,5.94856197 Z M12,6.928 L12,17.871 L8.01313201,14.0394979 C7.91999847,13.9499907 7.79583865,13.9 7.66666667,13.9 L5.5,13.9 C5.22385763,13.9 5,13.6761424 5,13.4 L5,11.4 C5,11.1238576 5.22385763,10.9 5.5,10.9 L7.66666667,10.9 C7.79583865,10.9 7.91999847,10.8500093 8.01313201,10.7605021 L12,6.928 Z"/>
</svg>
