<svg xmlns="http://www.w3.org/2000/svg" width="24" height="24" viewBox="0 0 24 24">
  <path fill="#707578" fill-rule="evenodd" d="M11.1051016,6.22311165 C11.3294017,6.0030513 11.6717901,5.94059277 11.9623585,6.05893559 C12.2562197,6.1786195 12.4387841,6.46179011 12.439478,6.77139356 L12.439478,6.77139356 L12.439478,17.2313382 C12.4387841,17.5399221 12.2562197,17.8222648 11.9623585,17.9419487 C11.6717901,18.0602916 11.3294017,17.9926361 11.1183347,17.7850607 L11.1183347,17.7850607 L7.25482535,14.3297058 L5.40657967,14.3297058 C4.67407939,14.3297058 4.07055641,13.699267 4.00575911,12.9807192 L4.00575911,12.9807192 L4,12.8531124 L4,11.0073707 C4,10.2439458 4.62319254,9.71535155 5.40657967,9.71535155 L5.40657967,9.71535155 L7.25388763,9.71535155 Z M11.5017582,7.11654725 L7.75608902,10.5160648 C7.66950683,10.5946136 7.55606212,10.6382224 7.43830585,10.6382224 L7.43830585,10.6382224 L5.40657967,10.6382224 C5.11268319,10.6382224 4.93771978,10.786627 4.93771978,11.0073707 L4.93771978,11.0073707 L4.93771978,12.8531124 C4.93771978,13.1378899 5.17782223,13.4068349 5.40657967,13.4068349 L5.40657967,13.4068349 L7.43830585,13.4068349 C7.55606212,13.4068349 7.66950683,13.4504437 7.75608902,13.5289925 L7.75608902,13.5289925 L11.5017582,16.9266643 L11.5017582,7.11654725 Z M19.8626741,9.82663469 C20.0254307,9.98681401 20.0435148,10.2354579 19.9169263,10.4152961 L19.8626741,10.4792029 L18.3199176,11.9964834 L19.8626741,13.5146573 C20.0457753,13.694859 20.0457753,13.9870238 19.8626741,14.1672255 C19.6999175,14.3274049 19.4472729,14.3452026 19.2645412,14.2206186 L19.1996061,14.1672255 L17.6569176,12.6484834 L16.1153115,14.1672255 C15.9322103,14.3474273 15.6353446,14.3474273 15.4522434,14.1672255 C15.2894868,14.0070462 15.2714028,13.7584023 15.3979912,13.5785642 L15.4522434,13.5146573 L16.9939176,11.9964834 L15.4522434,10.4792029 C15.2691423,10.2990012 15.2691423,10.0068364 15.4522434,9.82663469 C15.615,9.66645536 15.8676446,9.64865766 16.0503763,9.77324158 L16.1153115,9.82663469 L17.6569176,11.3444834 L19.1996061,9.82663469 C19.3827073,9.64643295 19.6795729,9.64643295 19.8626741,9.82663469 Z"/>
</svg>
