<svg xmlns="http://www.w3.org/2000/svg" width="24" height="24" viewBox="0 0 24 24">
  <path fill="#707578" fill-rule="evenodd" d="M11.5769988,5.94856197 C11.8156669,5.71063759 12.1807417,5.64025877 12.4911918,5.76873344 C12.8039561,5.89816576 12.9992591,6.20208865 13,6.538 L13,6.538 L13,18.2631047 C12.9992591,18.5979113 12.8039561,18.9018342 12.4911918,19.0312666 C12.1807417,19.1597412 11.8156669,19.0893624 11.5835347,18.8578354 L11.5835347,18.8578354 L7.466,14.9 L5.5,14.9 C4.72030388,14.9 4.07955132,14.3051119 4.00686658,13.54446 L4.00686658,13.54446 L4,13.4 L4,11.4 C4,10.5715729 4.67157288,9.9 5.5,9.9 L5.5,9.9 L7.465,9.9 Z M17.8393495,6.69945837 C19.4292287,8.16871891 20.3332882,10.2351808 20.3332882,12.4 C20.3332882,14.5648192 19.4292287,16.6312811 17.8393495,18.1005416 C17.6365459,18.2879592 17.3202092,18.2754864 17.1327917,18.0726828 C16.9453742,17.8698793 16.957847,17.5535426 17.1606505,17.366125 C18.5457012,16.0861534 19.3332882,14.2859196 19.3332882,12.4 C19.3332882,10.5140804 18.5457012,8.7138466 17.1606505,7.43387497 C16.957847,7.24645743 16.9453742,6.93012074 17.1327917,6.72731719 C17.3202092,6.52451365 17.6365459,6.51204083 17.8393495,6.69945837 Z M12,6.928 L8.01313201,10.7605021 C7.91999847,10.8500093 7.79583865,10.9 7.66666667,10.9 L7.66666667,10.9 L5.5,10.9 C5.22385763,10.9 5,11.1238576 5,11.4 L5,11.4 L5,13.4 C5,13.6761424 5.22385763,13.9 5.5,13.9 L5.5,13.9 L7.66666667,13.9 C7.79583865,13.9 7.91999847,13.9499907 8.01313201,14.0394979 L8.01313201,14.0394979 L12,17.871 L12,6.928 Z M16.1424615,8.001858 C17.5172658,9.04627262 18.3246037,10.673475 18.3246037,12.4 C18.3246037,14.126525 17.5172658,15.7537274 16.1424615,16.798142 C15.9225737,16.9651869 15.6089029,16.9223492 15.441858,16.7024615 C15.2748131,16.4825737 15.3176508,16.1689029 15.5375385,16.001858 C16.6634344,15.1465347 17.3246037,13.8139375 17.3246037,12.4 C17.3246037,10.9860625 16.6634344,9.65346527 15.5375385,8.798142 C15.3176508,8.63109714 15.2748131,8.31742628 15.441858,8.09753852 C15.6089029,7.87765077 15.9225737,7.83481314 16.1424615,8.001858 Z M14.7940948,9.66230516 C16.8516385,11.1587704 16.8496729,13.6435692 14.7939777,15.13778 C14.570608,15.3001394 14.2579127,15.2506808 14.0955533,15.027311 C13.9331939,14.8039413 13.9826526,14.4912461 14.2060223,14.3288867 C15.7126875,13.233746 15.7140053,11.5678795 14.2059052,10.4710282 C13.9825825,10.3086041 13.9332144,9.99589453 14.0956385,9.77257184 C14.2580626,9.54924914 14.5707721,9.49988107 14.7940948,9.66230516 Z"/>
</svg>
