<svg xmlns="http://www.w3.org/2000/svg" width="20" height="20" viewBox="0 0 20 20">
  <path fill="#707578" fill-rule="evenodd" d="M9.12991284,4.22311165 C9.35499618,4.0030513 9.69858026,3.94059277 9.99016332,4.05893559 C10.2850507,4.1786195 10.4682526,4.46179011 10.4689489,4.77139356 L10.4689489,4.77139356 L10.4689489,15.2313382 C10.4682526,15.5399221 10.2850507,15.8222648 9.99016332,15.9419487 C9.69858026,16.0602916 9.35499618,15.9926361 9.14319211,15.7850607 L9.14319211,15.7850607 L5.2661913,12.3297058 L3.41149149,12.3297058 C2.67643329,12.3297058 2.0708028,11.699267 2.00577922,10.9807192 L2.00577922,10.9807192 L2,10.8531124 L2,9.00737074 C2,8.2439458 2.62536875,7.71535155 3.41149149,7.71535155 L3.41149149,7.71535155 L5.2652503,7.71535155 Z M15.6532178,4.66937791 C17.1492851,6.02531563 18,7.93239301 18,9.93024158 C18,11.9280902 17.1492851,13.8351675 15.6532178,15.1911053 C15.4623808,15.3640674 15.1647098,15.3525566 14.9883509,15.1653952 C14.8119921,14.9782337 14.8237289,14.6862958 15.0145659,14.5133336 C16.3178907,13.3320851 17.0590057,11.6707018 17.0590057,9.93024158 C17.0590057,8.18978139 16.3178907,6.52839808 15.0145659,5.34714957 C14.8237289,5.17418739 14.8119921,4.88224948 14.9883509,4.69508801 C15.1647098,4.50792653 15.4623808,4.49641573 15.6532178,4.66937791 Z M9.52795459,5.11654725 L5.7692054,8.51606481 C5.68232086,8.59461363 5.56847999,8.6382224 5.45031252,8.6382224 L5.45031252,8.6382224 L3.41149149,8.6382224 C3.11656871,8.6382224 2.94099432,8.78662702 2.94099432,9.00737074 L2.94099432,9.00737074 L2.94099432,10.8531124 C2.94099432,11.1378899 3.18193522,11.4068349 3.41149149,11.4068349 L3.41149149,11.4068349 L5.45031252,11.4068349 C5.56847999,11.4068349 5.68232086,11.4504437 5.7692054,11.5289925 L5.7692054,11.5289925 L9.52795459,14.9266643 L9.52795459,5.11654725 Z M13.7553608,5.87132455 C15.0490439,6.83518436 15.8087443,8.33688195 15.8087443,9.93024158 C15.8087443,11.5236012 15.0490439,13.0252988 13.7553608,13.9891586 C13.5484477,14.1433194 13.2532852,14.1037858 13.0960969,13.9008578 C12.9389087,13.6979298 12.9792186,13.4084521 13.1861318,13.2542913 C14.2455934,12.4649384 14.8677499,11.2351233 14.8677499,9.93024158 C14.8677499,8.62535986 14.2455934,7.39554475 13.1861318,6.60619185 C12.9792186,6.45203102 12.9389087,6.16255332 13.0960969,5.95962532 C13.2532852,5.75669732 13.5484477,5.71716372 13.7553608,5.87132455 Z M12.157182,7.40370283 C14.0933189,8.784747 14.0914692,11.0778953 12.1570718,12.4568589 C11.9468821,12.6066957 11.6526377,12.5610518 11.4998584,12.3549104 C11.3470791,12.1487689 11.3936194,11.8601916 11.603809,11.7103549 C13.0215725,10.6996814 13.0228125,9.16230184 11.6036988,8.15004973 C11.3935534,8.00015327 11.3470984,7.71156274 11.4999385,7.50546473 C11.6527787,7.29936673 11.9470366,7.25380637 12.157182,7.40370283 Z"/>
</svg>
