<svg xmlns="http://www.w3.org/2000/svg" width="24" height="24" viewBox="0 0 24 24">
  <path fill="#707578" fill-rule="evenodd" d="M11.1299128,6.22311165 C11.3549962,6.0030513 11.6985803,5.94059277 11.9901633,6.05893559 C12.2850507,6.1786195 12.4682526,6.46179011 12.4689489,6.77139356 L12.4689489,6.77139356 L12.4689489,17.2313382 C12.4682526,17.5399221 12.2850507,17.8222648 11.9901633,17.9419487 C11.6985803,18.0602916 11.3549962,17.9926361 11.1431921,17.7850607 L11.1431921,17.7850607 L7.2661913,14.3297058 L5.41149149,14.3297058 C4.67643329,14.3297058 4.0708028,13.699267 4.00577922,12.9807192 L4.00577922,12.9807192 L4,12.8531124 L4,11.0073707 C4,10.2439458 4.62536875,9.71535155 5.41149149,9.71535155 L5.41149149,9.71535155 L7.2652503,9.71535155 Z M17.6532178,6.66937791 C19.1492851,8.02531563 20,9.93239301 20,11.9302416 C20,13.9280902 19.1492851,15.8351675 17.6532178,17.1911053 C17.4623808,17.3640674 17.1647098,17.3525566 16.9883509,17.1653952 C16.8119921,16.9782337 16.8237289,16.6862958 17.0145659,16.5133336 C18.3178907,15.3320851 19.0590057,13.6707018 19.0590057,11.9302416 C19.0590057,10.1897814 18.3178907,8.52839808 17.0145659,7.34714957 C16.8237289,7.17418739 16.8119921,6.88224948 16.9883509,6.69508801 C17.1647098,6.50792653 17.4623808,6.49641573 17.6532178,6.66937791 Z M11.5279546,7.11654725 L7.7692054,10.5160648 C7.68232086,10.5946136 7.56847999,10.6382224 7.45031252,10.6382224 L7.45031252,10.6382224 L5.41149149,10.6382224 C5.11656871,10.6382224 4.94099432,10.786627 4.94099432,11.0073707 L4.94099432,11.0073707 L4.94099432,12.8531124 C4.94099432,13.1378899 5.18193522,13.4068349 5.41149149,13.4068349 L5.41149149,13.4068349 L7.45031252,13.4068349 C7.56847999,13.4068349 7.68232086,13.4504437 7.7692054,13.5289925 L7.7692054,13.5289925 L11.5279546,16.9266643 L11.5279546,7.11654725 Z M15.7553608,7.87132455 C17.0490439,8.83518436 17.8087443,10.336882 17.8087443,11.9302416 C17.8087443,13.5236012 17.0490439,15.0252988 15.7553608,15.9891586 C15.5484477,16.1433194 15.2532852,16.1037858 15.0960969,15.9008578 C14.9389087,15.6979298 14.9792186,15.4084521 15.1861318,15.2542913 C16.2455934,14.4649384 16.8677499,13.2351233 16.8677499,11.9302416 C16.8677499,10.6253599 16.2455934,9.39554475 15.1861318,8.60619185 C14.9792186,8.45203102 14.9389087,8.16255332 15.0960969,7.95962532 C15.2532852,7.75669732 15.5484477,7.71716372 15.7553608,7.87132455 Z M14.157182,9.40370283 C16.0933189,10.784747 16.0914692,13.0778953 14.1570718,14.4568589 C13.9468821,14.6066957 13.6526377,14.5610518 13.4998584,14.3549104 C13.3470791,14.1487689 13.3936194,13.8601916 13.603809,13.7103549 C15.0215725,12.6996814 15.0228125,11.1623018 13.6036988,10.1500497 C13.3935534,10.0001533 13.3470984,9.71156274 13.4999385,9.50546473 C13.6527787,9.29936673 13.9470366,9.25380637 14.157182,9.40370283 Z"/>
</svg>
