<svg xmlns="http://www.w3.org/2000/svg" width="20" height="20" viewBox="0 0 20 20">
  <path fill="#707578" fill-rule="evenodd" d="M9.10510161,4.22311165 C9.3294017,4.0030513 9.67179014,3.94059277 9.96235853,4.05893559 C10.2562197,4.1786195 10.4387841,4.46179011 10.439478,4.77139356 L10.439478,4.77139356 L10.439478,15.2313382 C10.4387841,15.5399221 10.2562197,15.8222648 9.96235853,15.9419487 C9.67179014,16.0602916 9.3294017,15.9926361 9.11833467,15.7850607 L9.11833467,15.7850607 L5.25482535,12.3297058 L3.40657967,12.3297058 C2.67407939,12.3297058 2.07055641,11.699267 2.00575911,10.9807192 L2.00575911,10.9807192 L2,10.8531124 L2,9.00737074 C2,8.2439458 2.62319254,7.71535155 3.40657967,7.71535155 L3.40657967,7.71535155 L5.25388763,7.71535155 Z M9.50175822,5.11654725 L5.75608902,8.51606481 C5.66950683,8.59461363 5.55606212,8.6382224 5.43830585,8.6382224 L5.43830585,8.6382224 L3.40657967,8.6382224 C3.11268319,8.6382224 2.93771978,8.78662702 2.93771978,9.00737074 L2.93771978,9.00737074 L2.93771978,10.8531124 C2.93771978,11.1378899 3.17782223,11.4068349 3.40657967,11.4068349 L3.40657967,11.4068349 L5.43830585,11.4068349 C5.55606212,11.4068349 5.66950683,11.4504437 5.75608902,11.5289925 L5.75608902,11.5289925 L9.50175822,14.9266643 L9.50175822,5.11654725 Z M17.8626741,7.82663469 C18.0254307,7.98681401 18.0435148,8.23545794 17.9169263,8.41529606 L17.8626741,8.47920292 L16.3199176,9.99648338 L17.8626741,11.5146573 C18.0457753,11.694859 18.0457753,11.9870238 17.8626741,12.1672255 C17.6999175,12.3274049 17.4472729,12.3452026 17.2645412,12.2206186 L17.1996061,12.1672255 L15.6569176,10.6484834 L14.1153115,12.1672255 C13.9322103,12.3474273 13.6353446,12.3474273 13.4522434,12.1672255 C13.2894868,12.0070462 13.2714028,11.7584023 13.3979912,11.5785642 L13.4522434,11.5146573 L14.9939176,9.99648338 L13.4522434,8.47920292 C13.2691423,8.29900118 13.2691423,8.00683643 13.4522434,7.82663469 C13.615,7.66645536 13.8676446,7.64865766 14.0503763,7.77324158 L14.1153115,7.82663469 L15.6569176,9.34448338 L17.1996061,7.82663469 C17.3827073,7.64643295 17.6795729,7.64643295 17.8626741,7.82663469 Z"/>
</svg>
