<svg xmlns="http://www.w3.org/2000/svg" width="24" height="24" viewBox="0 0 24 24">
  <path fill="#666A6D" fill-rule="evenodd" d="M11.5462388,2.26677774 C11.7334633,1.91107409 12.2665367,1.91107409 12.4537612,2.26677774 L12.4537612,2.26677774 L21.9455236,20.2999636 C22.1147169,20.6214102 21.8693163,21 21.4917624,21 L21.4917624,21 L2.50823759,21 C2.13068371,21 1.88528307,20.6214102 2.05447639,20.2999636 L2.05447639,20.2999636 Z M12,3.56052212 L3.32950345,20.0331018 L20.6694814,20.0331018 L12,3.56052212 Z M12.005,16 C12.52112,16 12.94,16.41888 12.94,16.935 C12.94,17.45112 12.52112,17.87 12.005,17.87 C11.48888,17.87 11.07,17.45112 11.07,16.935 C11.07,16.41888 11.48888,16 12.005,16 Z M12,9 C12.2454599,9 12.4496084,9.15475082 12.4919443,9.35882416 L12.5,9.43745775 L12.5,13.5625423 C12.5,13.8041435 12.2761424,14 12,14 C11.7545401,14 11.5503916,13.8452492 11.5080557,13.6411758 L11.5,13.5625423 L11.5,9.43745775 C11.5,9.1958565 11.7238576,9 12,9 Z"/>
</svg>
