<svg xmlns="http://www.w3.org/2000/svg" width="24" height="24" viewBox="0 0 24 24">
  <path fill="#666A6D" fill-rule="evenodd" d="M10.6840523,5.74375085 C11.265907,4.75208305 12.7341087,4.75208305 13.3159634,5.74375085 L13.3159634,5.74375085 L19.7980583,16.7915293 C20.3754418,17.775573 19.6458879,19 18.4821027,19 L18.4821027,19 L5.5178827,19 C4.3541354,19 3.62455871,17.775573 4.20193469,16.7915293 L4.20193469,16.7915293 Z M12,15 C11.4477153,15 11,15.4477153 11,16 C11,16.5522847 11.4477153,17 12,17 C12.5522847,17 13,16.5522847 13,16 C13,15.4477153 12.5522847,15 12,15 Z M12.0101104,10 L11.9897467,10 L11.8781692,10.0068116 C11.3292804,10.0742765 10.9232007,10.6330861 11.0122916,11.2439586 L11.0122916,11.2439586 L11.4399282,13.4816839 L11.4605898,13.5774652 C11.5340368,13.8244856 11.7499082,14 12.0033225,14 L12.0033225,14 L12.0943676,13.9919759 C12.3319901,13.9497224 12.5237268,13.7449556 12.5599288,13.4816839 L12.5599288,13.4816839 L12.9875654,11.2439586 L12.9989603,11.1226898 C13.0243155,10.5214977 12.5828379,10.0069417 12.0101104,10 L12.0101104,10 Z"/>
</svg>
