<svg xmlns="http://www.w3.org/2000/svg" width="24" height="24" viewBox="0 0 24 24">
  <path fill="#666A6D" fill-rule="evenodd" d="M12.8974565,1.0327864 L23.4191957,22.0762647 C23.7516462,22.7411658 23.2681505,23.5234783 22.5247685,23.5234783 L1.48129021,23.5234783 C0.73790819,23.5234783 0.254412474,22.7411658 0.58686302,22.0762647 L11.1086022,1.0327864 C11.4771264,0.295737865 12.5289323,0.295737865 12.8974565,1.0327864 Z M12.0030293,3.71606798 L3.0993242,21.5234783 L20.9067345,21.5234783 L12.0030293,3.71606798 Z M12.0030293,17.2017391 C12.8193141,17.2017391 13.4812902,17.8637153 13.4812902,18.68 C13.4812902,19.4962847 12.8193141,20.1582609 12.0030293,20.1582609 C11.1867446,20.1582609 10.5247685,19.4962847 10.5247685,18.68 C10.5247685,17.8637153 11.1867446,17.2017391 12.0030293,17.2017391 Z M12.0030293,8.80093043 C12.5553141,8.80093043 13.0030293,9.13722235 13.0030293,9.55205946 L13.0030293,9.55205946 L13.0030293,15.0498014 C13.0030293,15.4646385 12.5553141,15.8009304 12.0030293,15.8009304 C11.4507446,15.8009304 11.0030293,15.4646385 11.0030293,15.0498014 L11.0030293,15.0498014 L11.0030293,9.55205946 C11.0030293,9.13722235 11.4507446,8.80093043 12.0030293,8.80093043 Z"/>
</svg>
