<svg xmlns="http://www.w3.org/2000/svg" width="20" height="20" viewBox="0 0 20 20">
  <path fill="#707578" fill-rule="evenodd" d="M8.68405227,3.74375085 C9.26590697,2.75208305 10.7341087,2.75208305 11.3159634,3.74375085 L11.3159634,3.74375085 L17.7980583,14.7915293 C18.3754418,15.775573 17.6458879,17 16.4821027,17 L16.4821027,17 L3.5178827,17 C2.3541354,17 1.62455871,15.775573 2.20193469,14.7915293 L2.20193469,14.7915293 Z M10,13 C9.44771525,13 9,13.4477153 9,14 C9,14.5522847 9.44771525,15 10,15 C10.5522847,15 11,14.5522847 11,14 C11,13.4477153 10.5522847,13 10,13 Z M10.0101104,8 L9.98974671,8 L9.87816923,8.00681158 C9.32928042,8.07427655 8.92320065,8.63308608 9.01229161,9.24395862 L9.01229161,9.24395862 L9.43992821,11.4816839 L9.46058982,11.5774652 C9.53403676,11.8244856 9.74990819,12 10.0033225,12 L10.0033225,12 L10.0943676,11.9919759 C10.3319901,11.9497224 10.5237268,11.7449556 10.5599288,11.4816839 L10.5599288,11.4816839 L10.9875654,9.24395862 L10.9989603,9.12268979 C11.0243155,8.52149772 10.5828379,8.00694173 10.0101104,8 L10.0101104,8 Z"/>
</svg>
