<svg xmlns="http://www.w3.org/2000/svg" width="20" height="20" fill="none" viewBox="0 0 20 20">
  <path fill="#606B85" fill-rule="evenodd" d="M10.5 14.417h6.333c.645 0 1.167-.523 1.167-1.167V4.583c0-.644-.522-1.166-1.167-1.166H3.167C2.522 3.417 2 3.939 2 4.583v8.667c0 .644.522 1.167 1.167 1.167H9.5v1.5H7a.5.5 0 0 0 0 1h6a.5.5 0 1 0 0-1h-2.5v-1.5Zm-7.333-10A.167.167 0 0 0 3 4.583v8.667c0 .092.075.167.167.167h13.666A.167.167 0 0 0 17 13.25V4.583a.167.167 0 0 0-.167-.166H3.167Z" clip-rule="evenodd"/>
</svg>
