<svg width="20" height="20" viewBox="0 0 20 20" fill="none" xmlns="http://www.w3.org/2000/svg">
<path fill-rule="evenodd" clip-rule="evenodd" d="M6.90094 3.95987C7.08471 3.77609 7.38267 3.77609 7.56645 3.95987L10.1078 6.50121C10.2916 6.68499 10.2916 6.98295 10.1078 7.16673C9.92402 7.3505 9.62606 7.3505 9.44228 7.16673L6.90094 4.62538C6.71716 4.44161 6.71716 4.14365 6.90094 3.95987Z" fill="#606B85"/>
<path fill-rule="evenodd" clip-rule="evenodd" d="M12.8305 9.88945C13.0143 9.70567 13.3123 9.70567 13.496 9.88945L16.0374 12.4308C16.2212 12.6146 16.2212 12.9125 16.0374 13.0963C15.8536 13.2801 15.5556 13.2801 15.3719 13.0963L12.8305 10.555C12.6467 10.3712 12.6467 10.0732 12.8305 9.88945Z" fill="#606B85"/>
<path fill-rule="evenodd" clip-rule="evenodd" d="M9.30447 2C9.0211 2 8.74928 2.1123 8.54854 2.31231L8.54781 2.31304L3.89233 6.97194C3.29243 7.57171 2.81654 8.28377 2.49185 9.06747C2.16713 9.85125 2 10.6913 2 11.5397C2 12.3881 2.16713 13.2281 2.49185 14.0119C2.81657 14.7957 3.29252 15.5078 3.8925 16.1076C4.49231 16.7076 5.20431 17.1834 5.98808 17.5082C6.77186 17.8329 7.61193 18 8.46031 18C9.30868 18 10.1488 17.8329 10.9325 17.5082C11.7162 17.1835 12.4285 16.7074 13.0282 16.1075L17.6877 11.4515C17.8877 11.2507 18 10.9789 18 10.6955C18 10.4122 17.8877 10.1403 17.6877 9.93961L15.99 8.24256C15.8907 8.14321 15.7729 8.06439 15.6431 8.01059C15.5133 7.95677 15.3742 7.92906 15.2337 7.92906C15.0932 7.92906 14.954 7.95677 14.8242 8.01059L14.4772 8.24275L9.81858 12.9014C9.45748 13.2624 8.9678 13.4651 8.45722 13.4651C7.94662 13.4651 7.45692 13.2623 7.09581 12.9013C6.73488 12.5402 6.53214 12.0506 6.53214 11.54C6.53214 11.0295 6.73497 10.5397 7.09594 10.1786L11.7548 5.51977C11.8541 5.42055 11.9329 5.30272 11.9867 5.17304C12.0405 5.04323 12.0682 4.90409 12.0682 4.76358C12.0682 4.62306 12.0405 4.48392 11.9867 4.35411C11.9329 4.22434 11.8539 4.10638 11.7545 4.00711L10.0604 2.31231C9.85967 2.1123 9.58785 2 9.30447 2ZM5.59097 11.54C5.59097 11.7999 5.80165 12.0106 6.06155 12.0106C6.32145 12.0106 6.53214 11.7999 6.53214 11.54C6.53214 11.2801 6.32143 11.0694 6.06153 11.0694C5.80163 11.0694 5.59097 11.2801 5.59097 11.54ZM5.59097 11.54C5.59097 12.3002 5.89296 13.0294 6.4304 13.567C6.96801 14.1044 7.69705 14.4063 8.45722 14.4063C9.21739 14.4063 9.94649 14.1043 10.4841 13.5669L15.1433 8.90774C15.1551 8.89585 15.1692 8.88642 15.1847 8.87999C15.2003 8.87355 15.2169 8.87024 15.2337 8.87024C15.2505 8.87024 15.2671 8.87355 15.2826 8.87999C15.2981 8.88642 15.3126 8.89618 15.3244 8.90807L17.0213 10.6042C17.0453 10.6285 17.0588 10.6613 17.0588 10.6955C17.0588 10.7298 17.0451 10.7629 17.021 10.7872L12.3626 15.4421C11.8502 15.9547 11.2419 16.3613 10.5723 16.6387C9.90272 16.9161 9.18506 17.0588 8.46031 17.0588C7.73555 17.0588 7.01789 16.9161 6.34832 16.6387C5.67876 16.3613 5.07032 15.9546 4.55791 15.442C4.04536 14.9296 3.63876 14.3212 3.36136 13.6517C3.08396 12.9821 2.94118 12.2645 2.94118 11.5397C2.94118 10.8149 3.08396 10.0973 3.36136 9.42771C3.63876 8.75815 4.04553 8.14961 4.55809 7.63721L9.21309 2.97879L9.21393 2.97796C9.23816 2.95439 9.27064 2.94118 9.30447 2.94118C9.33872 2.94118 9.3718 2.95493 9.39611 2.97904L11.0895 4.67315C11.1014 4.68502 11.1109 4.69912 11.1173 4.71463C11.1237 4.73014 11.127 4.74678 11.127 4.76358C11.127 4.78037 11.1237 4.79701 11.1173 4.81252C11.1109 4.82804 11.1012 4.84239 11.0893 4.85426L6.43032 9.51322C5.89288 10.0508 5.59097 10.7799 5.59097 11.54Z" fill="#606B85"/>
<path d="M6.06155 12.0106C6.32145 12.0106 6.53214 11.7999 6.53214 11.54C6.53214 11.2801 6.32143 11.0694 6.06153 11.0694C5.80163 11.0694 5.59097 11.2801 5.59097 11.54C5.59097 11.7999 5.80165 12.0106 6.06155 12.0106Z" fill="#606B85"/>
</svg>
