<svg xmlns="http://www.w3.org/2000/svg" id="Layer_1" data-name="Layer 1" viewBox="0 0 188 188"><defs><style>.cls-2{fill:#fff}.cls-4{fill:#121c2d}.cls-5{fill:#0b1c30}.cls-6{fill:none;stroke:#f02f46;stroke-miterlimit:10;stroke-width:4px}</style></defs><circle cx="94" cy="94" r="74.75" style="fill:#f02f46"/><path d="M67.98 137.62c.78 1.48 1.81 3.06 3.44 3.43 1.1.25 2.27-.13 3.2-.76s1.67-1.51 2.39-2.38c1.3.62 2.86.66 4.18.09s2.37-1.73 2.82-3.09c.08-.25.16-.53.38-.67.19-.12.43-.12.65-.12 4.62-.08 8.52-5.51 8.15-9.84-.37-4.3-2.11-8.47-4.89-11.76-3.06-3.61-6.92-5.75-11.09-7.88-.39-.2-.81-.4-1.23-.29-.29.07-.52.29-.74.49-6.91 6.52-11.92 15.04-14.26 24.26 0 0 5.47 5.6 7.01 8.54Z" class="cls-2"/><path d="M72.07 140.65c-.07.03-.46.52-1.22.23-.38-.14-.83-.5-1.21-.98s-.61-1.03-.79-1.74c-.17-.69-.36-1.55-.65-2.28-.28-.74-.61-1.41-.94-1.97-.66-1.13-1.3-1.83-1.43-1.98-.75-.78-2.25.58-1.45 1.41.11.12.67.71 1.26 1.67.3.48.6 1.05.85 1.68.27.63.43 1.31.69 2.13.25.81.71 1.68 1.3 2.3.58.62 1.3 1.11 2.09 1.29.39.09.79.09 1.15 0 .35-.08.63-.23.84-.39.44-.32.6-.67.63-.76.14-.42-.16-.66-.43-.68-.29-.03-.59 0-.69.06ZM82.05 135.92c-.06.1-.15.39-.45.73-.3.33-.86.72-1.56.83-.66.12-1.55-.1-2.33-.63-.81-.53-1.51-1.32-2.13-2.25-.63-.92-1.21-1.96-1.89-2.92-.69-.97-1.49-1.8-2.27-2.42-1.55-1.26-2.91-1.76-3.18-1.88-.74-.29-1.37.08-1.52.55-.16.49.07 1.05.88 1.37.22.1 1.39.52 2.72 1.59.67.54 1.35 1.21 1.97 2.07.63.85 1.24 1.88 1.98 2.88.74 1.01 1.69 1.96 2.8 2.58 1.1.62 2.45.86 3.54.52 1.06-.31 1.8-.95 2.2-1.53.41-.58.48-1.08.5-1.19.04-.55-.3-.77-.57-.74-.3.02-.56.2-.68.44ZM92.06 124.78c.02.24.12.87.07 1.78a8.45 8.45 0 0 1-.91 3.35c-.62 1.22-1.68 2.48-3.1 3.23-.7.36-1.48.56-2.18.46-.7-.09-1.37-.51-1.93-1.11-1.13-1.18-1.62-3.02-2.39-4.76-.76-1.73-1.71-3.3-2.76-4.52-2.12-2.5-4.53-3.3-4.99-3.45-1.29-.42-2.2.09-2.26.57-.07.53.49.96 1.81 1.41.34.12 2.3.77 4.14 2.95.92 1.07 1.77 2.49 2.49 4.11.36.81.69 1.71 1.14 2.63.44.91 1.04 1.87 1.89 2.62.82.75 1.99 1.31 3.19 1.29 1.18 0 2.22-.44 3.08-.98a9.14 9.14 0 0 0 3.46-4.16c.62-1.49.79-2.87.77-3.86-.01-1-.19-1.63-.23-1.79-.48-1.4-1.42-.89-1.27.21Z" class="cls-4"/><path d="M130.79 62.87c.08-.04.23-.14.37-.34.07-.1.13-.22.17-.37.04-.14.05-.34.05-.39.02-.33.04-.77.07-1.28.03-1.02.07-2.31.11-3.6.02-1.29.05-2.57.06-3.58 0-.5.01-.93.02-1.25v-.44c0-.25-.08-.46-.12-.55-.21-.52-.73-.69-1.04-.59-.32.1-.42.38-.42.63.04.69 0 .52-.03.58h-.01l-.4.03v.06c0 .1 0 .23.01.38 0 .33.02.77.03 1.27l.11 3.62c.05 1.3.09 2.59.13 3.58.02.5.04.92.06 1.23.04 0 .08.01.11.02h.01l.02.02c.16-.15-.32 1.28.69.97Z" class="cls-5"/><rect width="62.04" height="115.05" x="66.7" y="18.58" class="cls-2" rx="8.43" ry="8.43"/><path d="M128.22 129.64c.32-.59.76-1.45 1.01-2.62.05-.3.09-.61.14-.93.02-.32.05-.69.05-1.02 0-.67 0-1.4.01-2.18.01-3.12.02-7.11.04-11.84.02-9.46.05-21.9.07-36.32.01-14.43.03-30.83.04-48.22a9.235 9.235 0 0 0-3.01-6.36 9.092 9.092 0 0 0-3.1-1.87c-1.13-.43-2.42-.58-3.56-.56-4.45 0-8.94 0-13.46-.01-9.05 0-18.21-.02-27.37-.03h-3.43c-1.16-.03-2.52.12-3.69.56a9.414 9.414 0 0 0-5.39 5.06 9.395 9.395 0 0 0-.78 3.69v3.41c0 2.27 0 4.53-.01 6.79 0 9.02-.01 17.92-.02 26.56-.01 17.28-.02 33.54-.03 47.78V124.26c0 .41-.01.77.01 1.23.01.44.05.88.13 1.32.28 1.74 1.08 3.34 2.17 4.6 1.1 1.27 2.5 2.2 4 2.71.75.27 1.52.42 2.28.5.8.06 1.45.04 2.12.04h25c22.55 0 28.44-2.03-2.05-2.03-2.13 0-8.39 0-17.72.01H75.12c-.29-.02-.59-.01-.88-.06-2.35-.27-4.77-1.83-5.86-4.31-.27-.61-.48-1.26-.57-1.95-.07-.34-.07-.69-.09-1.03v-16.54c-.01-14.46-.03-30.96-.04-48.45 0-8.75-.02-17.75-.03-26.86 0-2.26-.03-4.61.01-6.81a7.534 7.534 0 0 1 2.65-5.37c.78-.67 1.71-1.17 2.69-1.47 1.01-.31 1.96-.34 3.17-.32h6.92c9.22-.02 18.44-.03 27.51-.04h6.78c1.11 0 2.28-.02 3.33.01 1.01.04 2 .29 2.9.72 1.82.85 3.25 2.45 3.91 4.32.34.95.46 1.89.45 2.95v3.26c.02 17.32.04 33.55.06 47.65.02 14.1.04 26.07.06 34.87.01 4.4.02 8.01.03 10.69.02 1.38-.01 2.36-.22 3.14-.18.78-.43 1.3-.56 1.59-.61 1.33-1.53 2.27-2.38 2.95-.87.68-1.71 1.07-2.4 1.33-1.4.49-2.19.54-2.19.71-.01.11.77.36 2.32.09a7.78 7.78 0 0 0 2.73-1.09c1-.63 2.04-1.61 2.85-2.98Z" class="cls-5"/><path d="M97.31 23.74c-.28-.06-1.46-.11-3.09-.15-.81-.02-1.73-.04-2.71-.06-.96-.04-2.09.02-2.89-.11-.41-.07-.73-.21-1-.42-.28-.21-.56-.55-.84-.92-.54-.74-1.24-1.62-1.97-2.16-1.46-1.16-2.91-1.37-3.18-1.4-.78-.11-1.23.47-1.2.96.03.52.35.95 1.01 1.06.18.03 1.16.15 2.28 1.02.57.43 1.04 1.01 1.7 1.85.34.4.73.86 1.32 1.23.58.36 1.25.53 1.85.59 1.21.08 2.15-.01 3.15-.02.97-.02 1.89-.05 2.68-.07 1.59-.04 2.7-.08 2.86-.11.71-.13.69-1.15.02-1.29Z" class="cls-5"/><path d="M98.2 25.02c.28.06 1.46.13 3.09.19.81.03 1.74.06 2.71.09.98 0 1.96.14 3.21-.04.61-.1 1.26-.34 1.8-.74.54-.4.9-.85 1.22-1.24.63-.81 1.1-1.36 1.67-1.78 1.11-.83 2.08-.93 2.26-.96.48-.07.84-.53.92-1.04.08-.48-.29-1.1-1.34-.94-.26.04-1.73.29-3.17 1.51-.73.57-1.4 1.48-1.93 2.2-.57.76-1.05 1.13-1.94 1.27-.84.13-1.97.07-2.92.1-.98.01-1.89.02-2.68.03-1.59.02-2.7.05-2.86.08-.71.12-.69 1.14-.03 1.29Z" class="cls-5"/><rect width="48.17" height="92.73" x="73.87" y="31.14" rx="2.58" ry="2.58" style="fill:#eff8ff"/><circle cx="96.85" cy="73.36" r="17.38" class="cls-6"/><circle cx="96.85" cy="73.36" r="10.32" class="cls-6"/><circle cx="96.85" cy="73.36" r="3.12" class="cls-6"/><path d="M15.7 189.55c2.04-7.12 3.42-12.73 5.46-19.85 1.82-6.35 4.57-13.08 7.16-19.16 7.01-16.45 19.94-29 31.98-42.21 10.4-11.4 20.79-22.81 31.19-34.21.81-.89 1.86-1.87 3.04-1.64 1 .19 1.63 1.19 2.04 2.13 2.26 5.29 1.09 11.52-1.54 16.64s-6.55 9.43-10.13 13.93c-6.79 8.55-13.44 15.7-17.75 25.73-1.74 4.07-2.24 11.12-.28 15.08 2.14 4.33 7.75 5.91 12.52 5.12s8-5.85 12.35-7.95 8.18-4.79 12.85-3.57c2.11.55 4.36 1.52 5.12 3.56 1.49 3.94.36 5.85-3.11 8.24-10.64 7.34-24.29 18.25-34.94 25.58-6.23 4.29-14.56 9.27-17.95 16.03-2.02 4.01-2.18 8.6-2.3 13.01-.06 2.23-.1 4.47-.33 6.7-.15 1.45-.33 2.89-.52 4.33-.14 1.04 0 2.5-.77 3.32-.61.65-1.6.75-2.48.69-3.35-.22-6.62.23-9.84-1.09-3.47-1.4-6.36-3.89-8.97-6.51-2.95-2.96-5.38-6.42-7.37-10.09-1.88-3.46-5.46-13.7-5.43-13.83Z" class="cls-2"/><path d="M97.76 86.29c.35-1.17 1.37-4.44.46-9.16-.24-1.16-.59-2.41-1.15-3.66-.32-.79-1.1-1.49-2.01-1.68-.9-.22-1.95.03-2.68.71l-6.67 7.06c-9.54 10.16-21.69 23.1-33.82 36.01-5.98 6.53-11.85 13.25-16.54 20.27-4.69 7.02-8.08 14.24-10.64 20.67-2.53 6.45-4.31 12.12-5.57 16.4-1.25 4.28-2.02 7.18-2.29 8.19-1.4 5.28-1.74 8.74-1.31 9.08.44.35 1.63-2.41 3.52-9.52.27-.99 1.04-3.91 2.31-8.22 1.29-4.3 3.06-10.02 5.66-16.45 2.59-6.43 6.08-13.57 10.82-20.48s10.66-13.59 16.66-20.17c12.14-13.05 24.23-26.03 33.51-36 1.16-1.25 2.28-2.45 3.34-3.59l1.56-1.68.38-.41c.11-.11.18-.18.29-.25.2-.13.43-.21.67-.24.48-.05.95.15 1.23.48.14.16.23.34.36.67.11.29.25.56.33.85.41 1.12.66 2.21.81 3.22.32 2.02.21 3.72.05 4.95-.16 1.24-.39 2.03-.47 2.35-.78 2.83-1.48 4.14-1.2 4.32.19.15 1.41-.92 2.37-3.74Z" class="cls-4"/><path d="M107.98 140.76c-.15-.15-.39-.31-.71-.52-.31-.2-.67-.48-1.16-.7-.91-.53-2.26-.99-3.89-1.1-1.64-.1-3.51.28-5.38 1.05-1.88.76-3.77 1.87-5.72 3.14-1.95 1.27-3.93 2.72-6.08 4.06-2.14 1.34-4.49 2.59-7.03 3.19-2.51.6-5.34.36-7.45-1.18-2.15-1.51-3.56-4.06-4.14-6.71-.57-2.66-.19-5.5.65-8.14.83-2.65 2.1-5.15 3.42-7.54 2.66-4.79 5.44-9.14 8.05-12.81 5.22-7.37 9.67-12.1 10.57-13.12 2.4-2.64 3.66-4.57 3.4-5.05-.23-.46-2.03.54-5.34 4.17-.9 1.03-5.44 5.95-10.75 13.6-2.64 3.83-5.47 8.32-8.12 13.29-1.32 2.49-2.58 5.18-3.33 8.11-.38 1.46-.6 3-.63 4.54-.04 1.56.2 3.14.68 4.63.93 2.96 2.9 5.75 5.78 7.19 2.91 1.4 6.19 1.19 8.92.28 2.75-.93 5.11-2.36 7.25-3.79 2.15-1.43 4.08-2.87 5.96-4.06 1.87-1.2 3.66-2.18 5.34-2.79 1.68-.61 3.24-.78 4.51-.62 2.57.38 3.94 1.62 4.3 1.8.38.29.73.53 1.04.73.29.22.54.4.76.52.43.25.71.32.82.23s.04-.37-.23-.79a8.57 8.57 0 0 0-.55-.75c-.25-.27-.57-.56-.94-.88ZM106.29 150.51c-1.63 2.4-19.18 14.29-36.29 26.56-2.15 1.53-4.29 3.05-6.4 4.55-2.1 1.5-4.25 2.99-6.1 4.81-1.87 1.81-3.27 4.01-4.24 6.19-.97 2.2-1.55 4.41-1.92 6.47-.72 4.13-.88 7.66-1.12 10.28-.22 2.62-.42 4.36-.51 4.96-.41 3.14-.49 5.17-.02 5.45.41.28 1.52-1.34 2.11-5.78.07-.62.28-2.43.48-5.11.24-2.67.36-6.25 1.15-10.22.41-1.98.96-4.07 1.95-6.07.99-1.99 2.35-3.88 4.15-5.5 1.79-1.64 3.91-3.09 6.03-4.63 2.13-1.53 4.28-3.08 6.43-4.63 8.6-6.2 17.16-12.38 23.73-17.12 3.29-2.36 6.08-4.43 8.02-6.09 1.95-1.65 3.1-2.83 3.38-3.13 1.26-1.35 1.61-2.24 1.4-2.42-.22-.2-.99.28-2.21 1.41Z" class="cls-4"/></svg>