<svg xmlns="http://www.w3.org/2000/svg" width="190" height="80" fill="none"><path fill="#fff" d="M33.29 52.13c.13-.09.26-.2.37-.34.34-.41.54-.92.74-1.42 2.59-6.17 8.06-11.25 15.22-10.26 3.5.49 6.64 2.41 9.19 4.78.61.57 1.48 1.61 2.32 1.63.36 0 1.17-.18 1.52-.28 4.33-1.27 7.13-1.62 11.35-.04 4.22 1.59 8.02 5.71 8.81 10.14.32 1.79.09 3.66-.37 5.43-.51 1.99-2.19 3.87-3.82 5.05a10.179 10.179 0 0 1-4.83 1.87c-1.94.21-3.85.36-5.81.14-2.12-.24-4.37-.87-6.48-.25-1.13.33-2.12 1-3.16 1.55-3.27 1.74-7.44 2.27-10.64.41-1.56-.91-2.85-2.33-4.59-2.83-2.17-.62-4.64.22-6.77.67-3.34.71-6.42.72-8.77-2.07-3.05-3.63-3.41-10.54 1.34-13.01.52-.27 1.07-.43 1.65-.55.88-.18 1.99-.11 2.75-.64l-.02.02Z"/><path fill="#121C2D" d="M36.67 46.77c.32-.44.91-1.23 1.86-2.19.96-.95 2.28-2.1 4.13-2.98.92-.44 1.98-.74 3.14-.95 1.15-.23 2.41-.28 3.71-.14 2.62.26 5.35 1.49 7.81 3.43.62.48 1.22 1 1.82 1.55.3.28.59.57.89.86.38.35.88.51 1.38.51.24 0 .51-.05.73-.13l.6-.19c.4-.14.81-.23 1.22-.34.83-.21 1.68-.34 2.55-.44 3.45-.35 7.28.22 10.39 2.32 3.03 2.09 5.47 5.57 5.76 9.44.13 1.92-.29 3.9-1.22 5.6-.94 1.7-2.41 3.1-4.09 4.1-3.38 2.02-7.58 2.62-11.32 1.39-.97-.24-1.97-.48-3.01-.48-1.04-.02-2.1.28-3 .69-1.82.8-3.45 1.92-5.19 2.34-1.78.38-3.64.15-5.35-.39-.86-.28-1.7-.57-2.45-1-.77-.42-1.5-.93-2.3-1.37-.79-.44-1.69-.79-2.63-.84-.95-.06-1.82.18-2.63.41-1.59.49-3.15.79-4.68.83-1.52.05-3-.17-4.3-.66-1.3-.5-2.41-1.27-3.23-2.23-.83-.95-1.4-2.02-1.72-3.09-.33-1.07-.33-2.13-.27-3.09a8.135 8.135 0 0 1 1.95-4.29c.81-.95 1.58-1.41 1.96-1.66 2.04-1.23 4.07-1.42 5.43-1.25 1.37.18 2.14.54 2.3.45.07-.03-.03-.12-.32-.29-.29-.17-.77-.44-1.52-.62-.74-.22-1.76-.32-3-.17s-2.69.67-4.1 1.72c-.19.16-.46.4-.82.71-.17.16-.34.37-.54.58-.2.21-.4.46-.59.75a8.718 8.718 0 0 0-1.6 5c-.02 2.15.92 4.71 3.04 6.58 1.05.93 2.4 1.63 3.88 1.99 1.48.37 3.09.44 4.71.26.81-.09 1.63-.24 2.44-.45.82-.2 1.61-.49 2.4-.63a4.38 4.38 0 0 1 2.35.17c.77.26 1.51.72 2.27 1.19.75.47 1.57.97 2.46 1.29.87.34 1.77.62 2.71.81 1.86.37 3.95.37 5.8-.48 1.81-.77 3.45-1.93 5.26-2.39 1.83-.44 3.74.28 5.72.72 4.07.81 8.46-.33 11.73-2.91 1.63-1.3 2.94-3.05 3.6-5.04.68-1.97.75-4.14.26-6.14-.48-2.01-1.5-3.83-2.78-5.36a13.955 13.955 0 0 0-4.61-3.67c-3.54-1.7-7.49-1.9-10.97-1.2-.88.16-1.73.41-2.55.68-.77.32-1.45.18-1.97-.45-1.2-1.17-2.46-2.22-3.77-3.09-2.61-1.77-5.53-2.69-8.18-2.66-1.32 0-2.56.17-3.67.49-1.13.28-2.13.72-2.99 1.2-1.72.99-2.9 2.12-3.72 2.99-.82.88-1.28 1.52-1.46 1.77-.82 1.15-1.31 2.08-1.59 2.71-.28.63-.37.97-.32.99.13.07.7-1.15 2.21-3.23l-.01-.03Z"/><path fill="#fff" d="M84.85 13.56c1.23.5 2.52.99 3.85.91 1.07-.07 2.08-.51 3.07-.94 4.91-2.17 9.83-4.34 14.74-6.5 1.09-.48 2.21-.97 3.4-1.04 1.26-.08 2.49.32 3.69.71 7.78 2.54 15.56 5.07 23.34 7.61.28.09.46.35.47.64l.22 51.15c0 .54-.59.86-1.04.56a97.573 97.573 0 0 0-17.25-9.01c-2.01-.81-4.15-1.56-6.3-1.33-1.48.16-2.87.78-4.23 1.38-5.07 2.27-10.15 4.54-15.22 6.81-1.54.69-2.89 1.54-4.57 1.65-1.4.09-3.02-.39-4.37-.76a61.808 61.808 0 0 1-14.6-6.07c-1.22-.7-2.48-1.51-3.1-2.78-.46-.94-.51-2.03-.54-3.07-.55-15.03-.23-33.51-.75-48.65-.01-.32.32-.53.61-.38 2.66 1.41 13.03 6.85 18.59 9.12l-.01-.01Z"/><path fill="#121C2D" d="M78.77 10.53c-.86-.43-2.39-1.19-4.52-2.25-2.13-1.1-4.86-2.5-8.1-4.16-.39-.07-.79.25-.8.65 0 .24.01.48.02.72.01.47.03.94.04 1.43.02.97.05 1.97.07 3.01.03 2.07.07 4.27.11 6.59.03 4.64.07 9.75.11 15.24.04 5.49.07 11.35.22 17.5.05 1.54.09 3.09.14 4.66.04.79.1 1.62.41 2.43.3.81.88 1.49 1.52 2.03.64.54 1.36.96 2.06 1.36.71.4 1.42.79 2.15 1.17 1.45.76 2.95 1.46 4.48 2.11 3.06 1.3 6.27 2.35 9.58 3.17.84.19 1.7.35 2.61.32.91-.03 1.79-.29 2.59-.63.81-.34 1.56-.75 2.34-1.09l2.35-1.05c3.14-1.4 6.31-2.82 9.49-4.24 1.59-.7 3.18-1.45 4.76-2.1.79-.32 1.6-.58 2.42-.69.82-.12 1.66-.08 2.49.07 1.66.29 3.27.97 4.87 1.62 1.6.66 3.19 1.37 4.75 2.12a97.686 97.686 0 0 1 11.22 6.32c.11.07.14.1.31.19.15.07.31.12.48.12.34 0 .66-.17.85-.44.22-.27.2-.68.19-.83v-.64c0-1.7-.02-3.4-.02-5.09-.01-3.37-.03-6.71-.04-10-.03-6.58-.05-12.96-.08-19.06-.01-3.05-.02-6.02-.04-8.91 0-1.45-.01-2.87-.02-4.27V15.3c-.01-.19.02-.29-.03-.6-.06-.26-.23-.5-.45-.65-.27-.16-.41-.16-.57-.23-5.15-1.68-9.94-3.24-14.27-4.66-2.17-.71-4.22-1.38-6.15-2-.96-.31-1.9-.62-2.8-.91-.9-.29-1.81-.57-2.74-.65-.93-.1-1.85.07-2.64.34-.8.26-1.5.59-2.16.88-1.33.59-2.52 1.11-3.55 1.57-2.07.91-3.52 1.55-4.28 1.89-1.96.88-3.73 1.67-5.3 2.38-1.57.71-2.89 1.42-4.05 1.54-1.16.13-2.12-.16-2.77-.32-.66-.19-1.06-.3-1.16-.29-.1.01.08.15.6.4.52.23 1.37.66 2.72.79.68.05 1.48-.07 2.29-.34.82-.28 1.66-.67 2.62-1.07 1.89-.83 4.16-1.81 6.82-2.97.74-.33 2.2-.97 4.29-1.89 1.04-.45 2.25-1.01 3.58-1.56.67-.26 1.38-.48 2.13-.53.75-.05 1.55.09 2.39.32 3.38 1.09 7.31 2.37 11.71 3.79 2.2.72 4.52 1.47 6.94 2.26 1.21.39 2.45.8 3.71 1.21.63.21 1.27.41 1.91.62l.24.08s.07.03.1.05c.06.04.09.11.1.18v.97c.06 11.01.12 23.57.19 36.89.02 3.33.03 6.71.05 10.12 0 .85 0 1.71.01 2.57v.64c0 .1-.04.19-.13.25-.08.06-.19.07-.28.04-.02 0-.04-.02-.07-.03l-.14-.09-.27-.18a97.945 97.945 0 0 0-13.81-7.47c-1.62-.7-3.22-1.4-4.91-1.98-1.67-.57-3.53-.94-5.35-.57-1.81.37-3.38 1.22-4.98 1.91-1.6.72-3.2 1.43-4.79 2.15-3.19 1.43-6.37 2.86-9.52 4.27-1.56.76-3.08 1.56-4.72 1.42-1.63-.12-3.28-.68-4.9-1.12a60.48 60.48 0 0 1-9.3-3.59 58.51 58.51 0 0 1-4.3-2.29c-1.37-.79-2.62-1.84-2.89-3.34-.16-.73-.18-1.51-.21-2.3-.03-.79-.05-1.57-.08-2.34-.04-1.56-.08-3.09-.11-4.61-.13-6.07-.16-11.85-.2-17.22-.05-5.37-.1-10.33-.15-14.79-.05-2.23-.09-4.33-.14-6.3-.03-.98-.06-1.93-.09-2.84 0-.09-.01-.28 0-.29 0-.04.02-.07.05-.09.08-.04.07-.04.32.09.39.2.77.4 1.14.6 5.94 3.11 9.8 4.98 10.78 5.44 2.17 1.04 3.81 1.75 4.92 2.19 1.11.44 1.67.6 1.7.55.03-.06-.49-.32-1.51-.82-1.03-.5-2.55-1.24-4.56-2.22l.01-.02Z"/><path fill="#EDF6FF" d="M89.1 14.94c-.26.1-.39.4-.4.68-.61 10.86.67 22.51.77 33.37l.14 15.84c0 .17 0 .35.09.49.23.38.81.25 1.22.08 7.14-3.01 13.61-7.21 21.42-9.33.27-.07.79-.37.79-.37v-2.03c-.17-15.27-.32-30.3-1.48-45.53-.04-.49-.03-1.52-.47-1.75-.22-.12-1.66-.03-1.92 0-1.14.1-2.15.8-3.21 1.25-5.96 2.55-11.6 5.15-16.97 7.3h.02Z"/><path fill="#121C2D" d="M89.56 64.23c.25-3.04-.59-44.32-.46-46.92 0-3.39-.81-4.28-.81.31-.12 2.57.88 44.84.75 46.54.05 1.9.46 1.84.52.07ZM113.23 54.99c-.15-2.95-1.18-43.18-1.39-45.72-.14-3.31-.99-4.13-.8.33.2 2.49 1.42 43.69 1.67 45.34.13 1.85.54 1.78.52.05Z"/><path fill="#EE2F46" d="M76.68 42.61a3.32 3.32 0 1 0 0-6.64 3.32 3.32 0 0 0 0 6.64ZM145.22 74.99c-.51.69-1.53.73-2.09.08-9.74-11.17-18.94-19.62-15.53-31.59 4.62-16.23 26.74-15.18 31.42-2.18 5.01 13.9-4.63 21.33-13.8 33.69Z"/><path fill="#fff" d="M143.64 56.33a9.55 9.55 0 1 0 0-19.1 9.55 9.55 0 0 0 0 19.1Z"/><path fill="#EE2F46" d="M159.57 75.27c-1.88-.11-27.38-.31-28.99-.32-2.1-.01-2.67.8.17.81 1.59 0 27.72.02 28.79.02 1.18-.04 1.14-.45.04-.52l-.01.01ZM76.11 39.15c.04.09.41.09.43.09.03 0-.05-.81-.1-.8-.03 0-.41.16-.42.21 0 .05.06.46.09.51v-.01ZM74.38 39.67c.09.07.79-.12.83-.14.05-.02-.16-.8-.24-.77-.05.02-.77.39-.78.44-.01.06.15.43.2.47h-.01ZM72.8 40.55c.1.05.74-.29.78-.32.05-.03-.33-.75-.41-.7-.04.03-.67.54-.67.59 0 .06.24.39.3.42v.01ZM71.42 41.75c.11.03.67-.43.7-.47.04-.04-.48-.67-.54-.6-.04.04-.55.66-.53.71.01.06.31.34.37.35v.01ZM70.31 43.18c.11 0 .57-.56.59-.59.03-.05-.6-.56-.65-.49-.03.04-.41.76-.38.81.02.06.37.27.44.27ZM69.52 44.81c.11-.02.44-.66.46-.7.02-.05-.7-.42-.73-.34-.02.05-.24.83-.21.87.03.05.42.18.49.17h-.01ZM69.12 46.57c.1-.05.28-.74.28-.78 0-.06-.78-.26-.79-.17 0 .05-.05.86 0 .9.04.04.45.08.51.06v-.01ZM69.15 48.37c.09-.07.07-.79.08-.83 0-.06-.81-.06-.81.03-.01.05.17.86.22.88.05.03.46-.04.51-.07v-.01ZM69.64 50.1c.07-.09-.12-.78-.13-.82-.02-.05-.81.15-.78.23.02.05.38.78.43.79.06.01.44-.15.48-.2ZM70.53 51.68c.05-.1-.3-.74-.32-.78-.03-.05-.75.34-.7.41.03.04.55.67.6.67.06 0 .39-.24.42-.3ZM71.74 53.03c.02-.11-.45-.66-.48-.69-.04-.04-.66.49-.59.55.04.04.68.53.73.52.06-.01.33-.32.35-.38h-.01ZM73.2 54.09c0-.11-.58-.55-.61-.57-.05-.03-.54.62-.46.66.04.03.77.38.82.36.06-.02.26-.38.26-.45h-.01ZM74.87 54.8c-.03-.11-.68-.4-.72-.42-.05-.02-.39.72-.31.75.05.02.84.2.88.16.05-.04.16-.43.15-.49ZM76.64 55.09c-.05-.1-.75-.22-.8-.23-.06 0-.21.79-.12.8.05 0 .87-.02.9-.06.04-.05.05-.46.02-.52v.01ZM78.42 54.9c-.08-.08-.79 0-.83 0-.06 0 .01.82.1.8.05 0 .83-.25.85-.3.02-.06-.07-.45-.12-.5ZM80.13 54.3c-.09-.06-.78.16-.82.18-.05.02.2.79.28.76.05-.02.75-.42.76-.47.01-.06-.17-.43-.22-.47ZM81.7 53.38c-.1-.05-.74.3-.78.33-.05.03.35.74.42.69.04-.03.66-.55.66-.6 0-.06-.24-.39-.3-.42ZM83.08 52.18c-.11-.03-.67.43-.71.46-.04.04.48.66.54.6.04-.03.55-.66.54-.71-.01-.06-.31-.34-.37-.36v.01ZM84.23 50.77c-.11 0-.59.54-.62.58-.03.05.58.57.64.5.03-.04.42-.74.4-.79-.02-.06-.36-.28-.43-.29h.01ZM85.12 49.18c-.11.01-.49.63-.51.67-.03.05.67.47.71.39.02-.04.3-.8.27-.84-.03-.05-.4-.22-.47-.22ZM85.75 47.47c-.11.03-.38.7-.4.75-.02.06.74.35.76.27.02-.05.16-.84.13-.88-.04-.05-.43-.15-.5-.14h.01ZM86.09 45.68c-.1.05-.26.76-.27.8 0 .06.78.23.8.14 0-.05.03-.85-.01-.89-.05-.04-.45-.08-.51-.06l-.01.01ZM86.14 43.86c-.09.06-.14.79-.13.83 0 .06.81.1.81 0 0-.05-.12-.85-.16-.87-.05-.03-.46 0-.51.03l-.01.01ZM85.87 42.05c-.08.08.01.8.01.85 0 .06.81-.05.8-.13 0-.05-.26-.81-.31-.83-.06-.02-.45.07-.5.12v-.01ZM85.31 40.32c-.07.09.13.79.14.84.02.06.8-.18.77-.26-.02-.05-.38-.76-.43-.77-.06-.01-.44.14-.48.19ZM84.52 38.66c-.06.1.23.77.25.81.03.05.77-.28.73-.36-.02-.04-.47-.7-.52-.7-.06 0-.42.19-.45.25h-.01ZM83.56 37.09c-.05.1.31.75.33.79.03.05.73-.36.69-.43-.03-.04-.54-.65-.59-.65-.06 0-.4.23-.43.29ZM82.47 35.59c-.04.1.36.73.39.77.04.05.7-.42.65-.48-.03-.04-.58-.6-.63-.6-.06 0-.38.26-.41.32v-.01ZM81.29 34.16c-.04.1.4.71.43.75.04.05.68-.45.62-.52-.03-.04-.61-.57-.66-.56-.06 0-.37.27-.39.33ZM80.06 32.76c-.03.1.42.7.46.74.04.05.66-.48.6-.54-.03-.04-.62-.55-.67-.54-.06 0-.37.28-.38.34h-.01ZM78.82 31.36c-.03.1.42.71.46.75.04.05.66-.48.6-.54-.03-.03-.61-.55-.67-.54-.06 0-.37.28-.39.34v-.01ZM77.62 29.91c-.04.1.39.73.42.77.04.05.67-.46.62-.52-.03-.04-.58-.57-.64-.57-.06 0-.38.26-.41.32h.01ZM76.52 28.36c-.05.1.33.77.36.81.04.05.7-.4.66-.47-.02-.04-.53-.61-.59-.61-.06 0-.41.22-.44.28l.01-.01ZM75.61 26.69c-.06.09.24.81.26.86.03.06.75-.32.71-.39-.02-.04-.44-.67-.5-.68-.06 0-.43.16-.47.21ZM74.99 24.88c-.08.07.08.85.1.9.02.06.79-.19.77-.26-.01-.04-.31-.73-.36-.75-.06-.02-.46.07-.5.11h-.01ZM74.79 22.96c-.09.05-.12.85-.12.9 0 .07.81 0 .81-.08 0-.04-.13-.77-.17-.81-.05-.03-.46-.05-.52-.01ZM75.09 21.05c-.1.02-.34.79-.35.84-.02.07.78.2.8.13.01-.04.08-.77.05-.82-.04-.05-.43-.17-.49-.16l-.01.01ZM75.98 19.32c-.1-.01-.58.64-.61.69-.04.06.68.44.72.37.02-.03.32-.69.3-.75-.02-.06-.35-.31-.41-.31ZM77.42 18.01c-.09-.05-.78.39-.83.42-.06.04.48.65.54.61.03-.02.55-.52.55-.58 0-.06-.21-.42-.27-.44l.01-.01ZM79.26 17.33c-.07-.08-.87.07-.92.08-.07.02.2.78.27.76.04 0 .71-.28.73-.34.02-.06-.04-.46-.08-.51v.01ZM81.18 17.29c-.05-.1-.83-.18-.88-.18-.07 0-.07.81 0 .81.04 0 .79-.07.83-.11.04-.05.07-.46.04-.51l.01-.01ZM83.08 17.65c-.02-.1-.78-.36-.83-.37-.07-.02-.23.78-.15.8.04.01.78.1.83.06.05-.04.17-.43.16-.49h-.01ZM84.81 18.49c0-.11-.66-.56-.7-.59-.06-.03-.42.69-.36.73.03.02.71.3.77.28.06-.03.29-.36.29-.42ZM86.22 19.81c.04-.1-.46-.73-.49-.77-.05-.05-.61.53-.56.59.03.03.59.5.65.5.06 0 .38-.26.4-.32ZM87.22 21.46c.06-.09-.26-.81-.28-.86-.03-.06-.73.35-.69.42.02.04.45.65.51.66.06 0 .43-.16.47-.22h-.01ZM87.87 23.25c.07-.08-.1-.84-.12-.88-.02-.06-.79.2-.76.27.01.04.33.73.39.74.06.02.45-.09.5-.14l-.01.01ZM88.27 25.1c.08-.07 0-.84 0-.88-.01-.06-.81.09-.79.17 0 .04.24.77.29.79.06.03.46-.04.51-.08h-.01ZM88.49 26.97c.09-.06.07-.83.07-.88 0-.06-.81.02-.8.1 0 .05.18.79.22.82.05.03.46 0 .51-.04ZM88.59 28.85c.09-.06.12-.82.12-.87 0-.06-.81-.04-.81.05 0 .05.13.81.18.84.05.03.46.02.52-.01l-.01-.01ZM88.6 30.73c.09-.05.16-.81.16-.86 0-.06-.81-.07-.81 0 0 .05.09.81.14.85.05.04.46.04.52 0l-.01.01ZM88.55 32.6c.1-.05.18-.81.18-.86 0-.06-.81-.1-.81-.02 0 .05.07.82.12.85.05.04.46.05.52.02l-.01.01ZM88.47 34.47c.1-.05.19-.8.19-.85 0-.06-.81-.12-.81-.03 0 .05.06.82.1.86.05.04.46.06.51.03l.01-.01ZM88.37 36.34c.1-.05.19-.8.2-.85 0-.06-.81-.12-.81-.04 0 .05.05.83.1.86.05.04.46.06.51.03ZM88.28 38.21c.1-.05.19-.8.19-.85 0-.06-.81-.12-.81-.03 0 .05.06.83.11.86.05.04.46.05.51.02ZM88.23 40.07c.1-.06.16-.8.17-.85 0-.06-.81-.1-.81-.01 0 .05.08.83.13.86.05.04.46.04.52 0h-.01ZM88.28 41.92c.09-.06.11-.81.11-.85 0-.06-.81-.06-.81.03 0 .05.14.83.19.86.05.03.46 0 .51-.04ZM88.55 43.74c.08-.07 0-.81 0-.86 0-.06-.81.04-.8.13 0 .05.25.81.3.83.06.02.46-.06.5-.11v.01ZM89.06 45.5c.07-.09-.11-.79-.12-.84-.02-.06-.8.15-.78.23.02.05.36.78.42.79.06.02.44-.14.48-.19v.01ZM89.9 47.09c.05-.1-.3-.72-.3-.77-.03-.05-.75.31-.71.39.01.05.54.69.6.68.06 0 .39-.24.42-.3h-.01ZM91.14 48.38c.02-.11-.47-.63-.5-.66-.04-.04-.64.51-.57.57.04.04.71.51.76.49.06-.02.31-.34.32-.4h-.01ZM92.68 49.31c-.01-.11-.62-.49-.66-.51-.05-.03-.49.66-.41.7.05.02.81.31.86.28.05-.03.22-.41.21-.47ZM94.41 49.84c-.04-.11-.72-.33-.77-.34-.06-.01-.31.76-.22.78.05.01.86.1.9.07.04-.04.11-.45.09-.51ZM96.21 49.93c-.06-.09-.78-.14-.82-.13-.06 0-.11.81-.02.81.05 0 .86-.12.89-.16.03-.05 0-.46-.04-.51l-.01-.01ZM97.95 49.53c-.08-.05-.78.09-.82.1-.05.02.11.81.2.79.05-.01.81-.34.81-.4.02-.06-.14-.44-.19-.48v-.01ZM99.51 48.64c-.1-.04-.73.3-.76.33-.05.03.34.75.41.7.04-.03.66-.56.66-.61 0-.06-.25-.38-.31-.41v-.01ZM100.79 47.38c-.11-.02-.63.48-.66.51-.04.04.52.63.58.57.04-.04.5-.71.48-.76-.02-.06-.34-.31-.4-.32ZM101.72 45.83c-.11.01-.49.62-.51.66-.03.05.66.49.7.41.02-.05.31-.81.28-.86-.03-.05-.41-.22-.47-.21ZM102.24 44.11c-.11.04-.32.72-.33.76-.01.06.76.31.78.22.01-.05.1-.86.06-.9-.04-.04-.45-.11-.51-.09v.01ZM102.28 42.32c-.09.07-.11.78-.11.82 0 .06.81.1.81 0 0-.05-.14-.86-.19-.89-.05-.03-.46.02-.51.06v.01ZM101.85 40.57c-.07.09.09.79.1.83.02.05.81-.12.78-.21-.01-.05-.35-.79-.4-.8-.06-.02-.44.13-.48.18ZM101.06 38.92c-.06.1.24.77.26.81.03.05.77-.29.72-.36-.02-.04-.49-.7-.54-.7-.06 0-.41.2-.45.26l.01-.01ZM100.05 37.39c-.04.1.33.74.36.78.03.05.72-.38.67-.45-.03-.04-.56-.63-.61-.63-.06 0-.39.24-.42.3ZM98.92 35.9c-.04.1.37.74.4.77.04.05.69-.43.64-.5-.03-.04-.58-.6-.64-.59-.06 0-.38.25-.41.31l.01.01ZM97.79 34.4c-.04.1.37.75.4.78.04.05.69-.43.64-.5-.03-.04-.57-.59-.62-.59-.06 0-.39.24-.42.3v.01ZM96.73 32.84c-.05.1.32.77.34.81.03.05.71-.39.67-.46-.02-.04-.52-.62-.57-.63-.06 0-.41.21-.44.27v.01ZM95.81 31.18c-.06.09.25.8.27.84.03.06.75-.32.71-.4-.02-.04-.46-.67-.52-.67s-.43.18-.46.23ZM95.04 29.46c-.07.09.18.82.2.86.02.06.77-.26.74-.33-.02-.04-.4-.7-.46-.72-.06-.01-.44.14-.48.19ZM94.42 27.67c-.07.08.11.83.12.88.02.06.79-.19.76-.27-.01-.04-.34-.74-.39-.75-.06-.02-.45.1-.49.15v-.01ZM93.95 25.84c-.08.07.04.83.05.88.01.06.8-.12.79-.2-.01-.04-.28-.76-.33-.78-.06-.02-.46.06-.5.1h-.01ZM93.65 23.98c-.09.07-.04.83-.03.88 0 .06.81-.05.8-.13 0-.04-.21-.78-.26-.81-.05-.03-.46.02-.51.06ZM93.52 22.08c-.09.05-.12.83-.12.88 0 .06.81.02.81-.06 0-.04-.13-.79-.17-.82-.05-.03-.46-.03-.52 0ZM93.71 20.17c-.1.03-.28.81-.29.86-.01.07.79.15.81.08 0-.04.02-.78-.02-.83-.04-.04-.44-.13-.5-.11ZM94.44 18.36c-.1 0-.53.69-.55.74-.03.06.72.37.75.3.02-.03.26-.71.23-.77-.03-.06-.37-.28-.43-.28v.01ZM95.78 16.95c-.1-.04-.75.44-.79.48-.05.05.52.62.58.57.03-.02.51-.57.51-.63 0-.06-.25-.39-.3-.42ZM97.47 16.03c-.09-.06-.83.22-.87.24-.06.03.31.75.38.71.04-.02.67-.42.68-.48.01-.06-.14-.44-.19-.48v.01ZM99.3 15.47c-.07-.08-.85.06-.9.07-.06.02.16.79.24.78.04 0 .74-.29.76-.34.02-.06-.06-.46-.1-.51ZM101.23 15.32c-.05-.09-.85-.15-.9-.15-.07 0-.02.81.06.81.04 0 .77-.1.81-.15.04-.05.07-.46.03-.51ZM103.12 15.78c-.01-.1-.76-.43-.81-.44-.07-.02-.27.77-.19.79.04 0 .75.16.8.12.05-.04.22-.41.21-.47h-.01ZM104.74 16.85c.02-.1-.57-.65-.62-.68-.05-.04-.51.63-.45.67.03.03.66.4.72.39.06-.02.34-.32.35-.38ZM105.98 18.33c.05-.09-.37-.77-.4-.81-.04-.05-.67.45-.63.51.02.03.53.57.59.58.06 0 .41-.22.44-.28ZM106.83 20.05c.07-.08-.19-.83-.21-.88-.03-.06-.76.28-.73.36.02.04.4.69.45.7.06.01.45-.13.48-.18h.01ZM107.31 21.91c.08-.07-.02-.85-.03-.9-.01-.06-.8.12-.79.2 0 .04.25.75.3.78.06.03.46-.04.51-.08h.01ZM107.45 23.81c.09-.06.12-.83.12-.88 0-.06-.81-.02-.81.06 0 .04.13.79.18.82.05.03.46.03.52 0h-.01ZM107.37 25.7c.1-.05.21-.8.21-.85 0-.06-.8-.12-.81-.03 0 .04.04.81.09.84.05.04.46.07.51.05v-.01ZM107.15 27.56c.1-.04.26-.79.26-.84 0-.06-.79-.18-.81-.09 0 .05 0 .82.03.86.05.04.45.1.51.07h.01ZM106.87 29.41c.1-.04.27-.78.28-.83 0-.06-.79-.2-.8-.12 0 .05-.03.83.01.86.04.04.45.1.51.08v.01ZM106.61 31.26c.1-.04.25-.78.26-.83 0-.06-.79-.19-.8-.11 0 .05 0 .83.03.87.05.04.45.09.51.06v.01ZM106.43 33.11c.1-.05.22-.79.23-.83 0-.06-.8-.16-.81-.07 0 .05.02.83.07.87.05.04.46.07.51.04v-.01ZM106.31 34.96c.1-.05.19-.8.19-.84 0-.06-.81-.13-.81-.04 0 .05.06.83.1.86.05.04.46.05.52.02ZM106.28 36.82c.09-.06.16-.8.16-.85 0-.06-.81-.09-.81 0 0 .05.09.83.14.86.05.04.46.03.52 0l-.01-.01ZM106.31 38.68c.09-.06.13-.81.13-.86 0-.06-.81-.06-.81.02 0 .05.12.82.17.85.05.03.46.02.52-.02l-.01.01ZM106.42 40.53c.09-.06.09-.81.09-.86 0-.06-.81-.03-.81.06 0 .05.16.82.2.84.05.03.46 0 .51-.04h.01ZM106.62 42.37c.09-.07.05-.81.04-.85 0-.06-.82 0-.81.09 0 .05.21.82.25.84.05.03.46-.04.51-.08h.01ZM107.06 44.13c.07-.09-.08-.79-.09-.83-.02-.05-.81.12-.78.2.01.05.34.79.39.81.06.02.44-.13.48-.18ZM107.92 45.69c.04-.11-.3-.72-.32-.75-.03-.04-.75.33-.7.4.03.05.58.68.63.67.06 0 .37-.27.4-.33l-.01.01ZM109.27 46.84c0-.11-.54-.57-.57-.6-.05-.03-.58.58-.51.63.04.03.76.43.81.41.06-.02.27-.37.27-.44ZM110.9 47.66c-.02-.11-.66-.46-.7-.48-.05-.02-.43.7-.35.73.05.02.81.25.85.22.05-.03.21-.41.2-.48v.01ZM112.63 48.3c-.02-.11-.7-.4-.75-.42-.06-.02-.36.73-.27.76.05.02.82.18.87.15.05-.04.17-.43.16-.49h-.01ZM114.41 48.67c-.05-.1-.75-.27-.79-.28-.06 0-.25.78-.16.79.05 0 .87.04.9 0 .04-.04.07-.45.05-.51ZM116.17 48.54c-.08-.07-.77 0-.81 0-.05 0-.01.82.08.81.06.01.85-.24.86-.3.02-.06-.09-.45-.13-.5v-.01ZM117.79 47.79c-.1-.05-.75.24-.79.27-.05.03.28.77.35.73.05-.02.71-.51.71-.56 0-.06-.22-.4-.28-.44h.01ZM119.23 46.67c-.11-.03-.7.4-.74.43-.04.04.44.69.51.63.04-.03.58-.62.57-.68 0-.06-.28-.36-.35-.38h.01ZM120.5 45.35c-.11-.02-.63.49-.66.52-.04.04.53.62.59.56.03-.04.49-.7.47-.75-.02-.06-.34-.31-.4-.33ZM121.52 43.84c-.11 0-.54.59-.56.63-.03.05.63.52.68.44.03-.04.36-.77.33-.82-.03-.06-.38-.25-.45-.25ZM122.3 42.19c-.11.02-.45.67-.47.71-.02.05.7.41.74.34.02-.05.24-.81.21-.85-.03-.05-.42-.2-.48-.19v-.01ZM122.88 40.44c-.11.03-.38.72-.39.77-.02.06.75.33.77.25.01-.05.15-.83.11-.87-.04-.05-.43-.16-.5-.14l.01-.01ZM123.31 38.64c-.1.04-.32.75-.33.8-.01.06.77.26.79.18.01-.05.08-.83.04-.87-.04-.04-.44-.12-.5-.1v-.01ZM123.64 36.81c-.1.04-.28.77-.29.82-.01.06.79.22.8.13 0-.05.04-.83 0-.87-.04-.04-.45-.1-.51-.08ZM123.91 34.97c-.1.04-.26.78-.27.82 0 .06.79.19.8.11 0-.05.02-.83-.02-.86-.05-.04-.45-.1-.51-.07ZM124.14 33.12c-.1.04-.25.78-.26.83 0 .06.79.18.8.1 0-.05 0-.83-.04-.86-.05-.04-.45-.09-.51-.06l.01-.01ZM124.34 31.27c-.1.05-.23.79-.24.83 0 .06.8.16.81.08 0-.05-.01-.83-.06-.86-.05-.04-.45-.08-.51-.05ZM124.49 29.41c-.1.05-.21.79-.21.84 0 .06.8.14.81.06 0-.05-.04-.83-.08-.86-.05-.04-.46-.06-.51-.03l-.01-.01ZM124.56 27.56c-.1.05-.17.8-.17.85 0 .06.81.11.81.02 0-.05-.08-.83-.12-.86-.05-.04-.46-.04-.52 0v-.01ZM124.54 25.7c-.09.06-.13.81-.13.85 0 .06.81.07.81-.01 0-.05-.12-.83-.16-.86-.05-.03-.46-.02-.52.02ZM124.42 23.86c-.09.07-.08.81-.08.86 0 .06.82.02.81-.06 0-.05-.17-.82-.22-.85-.05-.03-.46.01-.51.05ZM124.16 22.03c-.08.07-.02.81-.01.86 0 .06.81-.04.8-.12 0-.05-.23-.81-.28-.83-.06-.03-.46.05-.51.09ZM123.74 20.23c-.08.08.05.81.07.85.02.06.81-.11.79-.19-.01-.05-.31-.79-.36-.8-.06-.02-.45.1-.5.14ZM123.13 18.5c-.07.09.14.8.16.84.02.06.79-.2.76-.28-.02-.05-.4-.75-.45-.76-.06-.01-.44.15-.48.2h.01ZM122.31 16.86c-.05.1.25.77.27.81.03.05.76-.29.72-.37-.02-.04-.49-.69-.54-.7-.06 0-.41.21-.44.26h-.01ZM121.26 15.37c-.04.11.37.7.39.75.03.05.71-.4.66-.47-.02-.05-.61-.62-.66-.61-.06 0-.37.28-.39.34v-.01ZM119.89 14.29c.02.08.55.51.59.53.04.03.57-.59.49-.65-.05-.03-.8-.42-.87-.36-.06.03-.21.41-.21.47v.01ZM118.23 14.16c.08.05.72.04.76.07.05 0 .14-.8.04-.81-.06-.04-.93.15-.93.24-.02.06.09.45.14.5h-.01ZM116.89 15.14c.1-.02.6-.43.63-.45.03-.03-.43-.7-.51-.63-.05.04-.6.72-.54.78.02.06.35.29.42.3ZM116.08 16.74c.11-.02.44-.66.46-.7.02-.05-.7-.43-.73-.35-.02.05-.24.83-.21.87.03.05.42.19.48.18ZM115.61 18.5c.11-.04.32-.74.33-.78.01-.06-.77-.28-.79-.2-.01.05-.09.84-.05.88.04.04.44.12.51.1ZM115.35 20.33c.1-.05.24-.78.25-.82 0-.06-.79-.19-.8-.1 0 .05 0 .84.04.87.05.04.45.08.51.05ZM115.24 22.18c.1-.05.19-.8.19-.84 0-.06-.81-.13-.81-.04 0 .05.06.83.1.87.05.04.46.05.52.02v-.01ZM115.21 24.04c.09-.06.16-.81.16-.85 0-.06-.81-.09-.81 0 0 .05.09.83.14.86.05.03.46.03.52 0l-.01-.01ZM115.23 25.89c.09-.06.13-.81.13-.85 0-.06-.81-.07-.81.02 0 .05.12.83.16.85.05.03.46.02.52-.02ZM115.35 27.74c.09-.06.09-.81.08-.86 0-.06-.82-.03-.81.06 0 .05.16.82.21.84.05.03.46 0 .51-.05l.01.01ZM115.58 29.58c.09-.07.04-.81.04-.86 0-.06-.82.02-.8.1 0 .05.21.81.26.83.05.03.46-.04.51-.08l-.01.01ZM115.91 31.4c.08-.07-.01-.82-.02-.86-.01-.06-.81.07-.8.15 0 .05.26.8.31.82.06.02.46-.07.5-.11h.01ZM116.37 33.19c.08-.08-.07-.81-.08-.86-.02-.06-.81.13-.78.21.01.05.32.78.37.79.06.02.45-.1.49-.14ZM116.96 34.94c.07-.09-.13-.8-.15-.85-.02-.06-.79.19-.76.27.02.05.38.75.43.76.06.01.44-.14.48-.18ZM117.71 36.64c.06-.09-.2-.79-.22-.83-.03-.05-.77.26-.74.33.02.04.45.72.5.72.06 0 .43-.18.46-.23v.01ZM118.61 38.24c.05-.1-.28-.76-.3-.8-.03-.05-.74.33-.7.41.02.04.51.66.56.66.06 0 .41-.21.44-.27ZM119.64 39.78c.05-.1-.33-.75-.36-.78-.03-.05-.72.39-.67.46.03.04.55.63.61.62.06 0 .39-.24.42-.3ZM120.75 41.26c.04-.1-.37-.73-.4-.77-.04-.05-.7.42-.64.49.03.04.58.6.64.59.06 0 .38-.26.41-.32l-.01.01ZM121.93 42.69c.04-.1-.4-.71-.43-.75-.04-.05-.68.46-.62.52.03.04.61.57.66.56.06 0 .37-.28.39-.34v.01ZM123.19 44.06c.03-.11-.44-.69-.47-.72-.04-.04-.65.49-.59.55.03.04.64.54.7.53.06 0 .35-.3.37-.36h-.01ZM124.52 45.34c.02-.11-.49-.65-.52-.69-.04-.04-.62.53-.56.59.04.03.68.49.73.48.06-.01.33-.32.34-.38h.01ZM125.96 46.5c.01-.11-.54-.6-.58-.63-.05-.04-.57.58-.5.64.04.03.73.43.78.41.06-.02.29-.35.3-.42ZM127.52 47.45c0-.11-.62-.51-.65-.53-.05-.03-.49.65-.41.7.04.03.8.32.84.3.05-.03.23-.4.23-.46l-.01-.01ZM128.84 47.92c0-.1-.33-.24-.35-.24-.03 0-.27.77-.23.78.03 0 .45.01.47-.03.03-.04.11-.45.1-.5l.01-.01Z"/><path fill="#fff" d="M144.44 16.14c-.34-1.36-1.75-4.05-1.75-4.05-.12.17-.93 1.52-1.17 2.65 0 .04-.01.08 0 .11s.04.05.07.07c.22.15.45.28.67.42.7.47 1.26 1.14 2.01 1.53.07.04.17.07.22 0 .02-.03.03-.07.03-.11 0-.22-.04-.43-.1-.65l.02.03Z"/><path fill="#fff" d="M144.38 16.55c-2.45-3.09-5.95-2.71-8.14-1.44-4.5 2.61-5.01 8.37-.02 10.99 1.39.73 2.97 1.13 4.54 1.04 1.14-.06 2.27-.38 3.4-.22.87.12 1.68.51 2.49.86 3.37 1.46 7.33 2.29 10.67.76 1.61-.74 3.02-2 4.77-2.28 1.28-.21 2.58.13 3.88.17 2.46.06 4.95-1.09 6.4-3.08 1.46-1.99 1.8-4.76.78-7s-3.4-3.82-5.86-3.79c-1.51.02-3.12.58-4.47-.09-.93-.46-1.5-1.39-2.18-2.17-4.33-4.95-12.45-5.76-18.05 2.23"/><path fill="#121C2D" d="M144.52 10.56c.25-.29.76-.74 1.49-1.35.37-.29.83-.57 1.32-.91.54-.26 1.09-.62 1.78-.83 1.32-.5 2.99-.8 4.8-.55.91.09 1.83.4 2.75.77.89.45 1.82.95 2.61 1.69.43.33.78.76 1.17 1.16.36.42.7.9 1.14 1.35.42.45.99.87 1.64 1.05.65.18 1.32.17 1.95.12.64-.06 1.26-.16 1.87-.19.6-.02 1.21.04 1.8.2 1.18.33 2.29 1.03 3.11 2 1.69 1.93 1.88 5 .58 7.32-1.28 2.34-4.04 3.77-6.73 3.63-1.34-.06-2.82-.46-4.32-.04-1.47.41-2.62 1.31-3.81 1.93-2.37 1.3-5.21 1.22-7.71.58-1.27-.32-2.47-.78-3.64-1.3-.59-.26-1.22-.52-1.89-.64-.68-.13-1.36-.08-1.98-.01-1.25.18-2.37.3-3.48.08-1.1-.2-2.14-.59-3.02-1.16-.89-.54-1.63-1.24-2.13-2.05-.49-.81-.73-1.71-.74-2.56 0-.86.19-1.66.5-2.37.35-.68.75-1.3 1.23-1.76 1.94-1.94 3.94-2.12 4.51-2.14 1.64-.09 2.91.48 3.69 1.01.8.53 1.21.96 1.35.94.06 0 .04-.1-.07-.31-.11-.22-.34-.52-.72-.91-.4-.37-.97-.82-1.8-1.15-.83-.33-1.92-.52-3.16-.33-.34.06-1.03.17-1.92.58-.89.41-1.98 1.09-2.94 2.28-.47.6-.9 1.32-1.18 2.16-.26.85-.38 1.81-.22 2.81.15.99.58 2 1.29 2.85.7.85 1.64 1.52 2.67 2.05 1.04.5 2.22.85 3.46.93 1.26.11 2.51-.24 3.68-.26 1.17-.05 2.27.55 3.5 1.05s2.52.92 3.88 1.17c1.36.25 2.79.33 4.2.1 1.42-.19 2.8-.83 3.99-1.58 1.2-.73 2.4-1.45 3.73-1.46 1.33-.05 2.78.38 4.28.17 2.95-.31 5.72-2.35 6.62-5.19.47-1.39.52-2.9.15-4.29-.36-1.4-1.22-2.64-2.31-3.51-1.09-.87-2.43-1.42-3.79-1.5-1.37-.07-2.61.32-3.76.21-1.17-.06-1.95-.92-2.66-1.85-.74-.93-1.6-1.73-2.51-2.37-1.84-1.27-3.89-1.93-5.75-1.97-1.87-.07-3.49.39-4.76.94-1.25.61-2.2 1.25-2.83 1.81-.32.28-.58.51-.79.68-.19.19-.32.34-.4.42-.33.37-.63.68-.85.97-.21.3-.38.55-.51.76-.26.41-.36.63-.31.67.05.04.24-.12.55-.45.32-.34.74-.86 1.39-1.49l.01.04Z"/></svg>