<svg xmlns="http://www.w3.org/2000/svg" width="190" height="80" fill="none"><path fill="#EDF6FF" d="M37.57 35.73c-3.17 4.4-5.06 9.77-5.18 15.14-.08 3.72.51 7.46 1.78 10.96 2.03 5.58 6.06 10.23 11.44 12.8 4.9 2.34 10.55 2.88 15.91 2.05 8.45-1.31 16.59-6.37 20.16-14.13 4.65-10.12 1.4-23.24-6.65-30.33-7.1-6.25-18.55-8.07-27.54-4.45-3.99 1.61-7.42 4.48-9.93 7.96h.01Z"/><path fill="#FBEDE3" d="M118.93 19.56c-2.65 3.68-4.23 8.17-4.33 12.67-.07 3.11.43 6.24 1.49 9.17 1.7 4.67 5.07 8.56 9.57 10.7 4.1 1.96 8.82 2.41 13.31 1.71 7.07-1.1 13.87-5.32 16.86-11.82 3.89-8.47 1.17-19.44-5.56-25.37-5.94-5.23-15.52-6.75-23.03-3.72-3.34 1.35-6.2 3.75-8.3 6.66h-.01Z"/><path fill="#fff" d="M88.29 57.99c-1.3 3.85-2.36 7.76-3.18 11.74.4-.04.79-.09 1.19-.08 6.35.11 12.39-.09 20.11-.09-1.43-3.61-2.96-7.86-4.28-11.16-4.73-.03-9.12-.12-13.84-.41Z"/><path fill="#fff" d="M63.44 53.92c-.01 1.24-.03 2.66.9 3.48.79.7 1.95.71 3 .7 19.33-.1 36.02.22 54.74 0 .83 0 1.77-.11 2.3-.75.38-.45.46-1.07.52-1.66.27-2.87-.05-26.91 0-35.27 0-.42 0-.87-.21-1.24-.4-.69-1.34-.82-2.14-.83-18.99-.38-36.49-.23-57.57.03-.81 0-1.46.67-1.46 1.47 0 5.34.02 24.09-.07 34.06l-.01.01Z"/><path fill="#0F1C2E" d="M63.71 48.7c0-1.47.03-5.27.06-10.81.01-2.77.02-5.97.04-9.54 0-1.78.01-3.66.02-5.61 0-.97 0-1.96.01-2.97.02-.4.28-.78.65-.95.19-.09.36-.12.62-.12h.79c8.43-.1 18.02-.2 28.18-.22 5.08-.01 10.3 0 15.59.05 2.65.03 5.31.07 7.98.1 1.34.02 2.67.05 4.01.07.67.02 1.35-.02 1.91.14.59.16.92.49.95 1.09 0 10.66.14 21.41.1 31.5 0 1.26-.02 2.52-.07 3.74-.03.6-.07 1.23-.28 1.67-.2.44-.65.69-1.19.79-.53.11-1.14.08-1.75.09h-18.67c-16.66 0-28.6-.01-31.13-.01-1.65.01-3.14.02-4.46.04-1.3.06-2.37-.18-2.84-.9-.49-.69-.54-1.48-.62-1.99-.06-.52-.1-.84-.15-.91-.05-.07-.1.1-.15.54-.02.44-.14 1.17.21 2.2.18.5.6 1.08 1.26 1.39.66.33 1.44.39 2.25.41 1.59 0 3.49.02 5.72.03 2.49 0 14.64 0 31.56-.01h17.11c.6 0 1.23.03 1.9-.12.65-.12 1.41-.56 1.69-1.28.28-.69.28-1.33.32-1.96.02-.64.04-1.26.05-1.89 0-1.26.02-2.53.02-3.81-.02-5.12-.05-10.38-.07-15.72-.02-2.67-.03-5.35-.05-8.04v-4.04c-.03-.69.06-1.3-.08-2.1-.08-.4-.34-.8-.69-1.03-.35-.23-.72-.34-1.08-.4-.74-.11-1.39-.06-2.07-.09l-2.02-.04-4.04-.06c-2.69-.02-5.36-.05-8.02-.07-5.31-.03-10.54-.03-15.6 0-5.07.04-9.97.08-14.65.12-2.34.03-4.61.05-6.82.08-1.1.01-2.19.03-3.26.04-.53 0-1.06.01-1.59.02h-.4a1.818 1.818 0 0 0-1.25.57c-.21.23-.37.51-.43.81-.08.32-.04.59-.05.83V48.47c.03 7.39.44 7.18.51.28l-.03-.05Z"/><path fill="#fff" d="M88.24 58.32c-1.18 3.71-2.22 7.47-3.13 11.26.1-.06.2-.11.3-.17"/><path fill="#0F1C2E" d="m85.01 69.34-.03.02.37.28c.3-.71 2.93-9.96 3.09-10.55.21-.77-.5-1.22-.79-.17-.16.58-2.74 10.19-2.8 10.6l-.09.57.48-.28h.01c.36-.26.15-.61-.24-.46v-.01Z"/><path fill="#fff" d="M102.18 58.5c.08.03.02-.15-.05-.1-.07.05-.04.16-.01.23 1.46 3.46 2.76 6.98 3.87 10.57"/><path fill="#0F1C2E" d="M106.14 68.84c-.06-.35-.79-2.79-1.64-5.17-.84-2.39-1.81-4.72-1.93-5-.03-.07-.1-.21-.12-.19-.02 0-.06-.01-.08-.03-.01-.02-.09.07-.2.05-.06 0-.09.02-.12.01-.01 0 0-.02-.04-.03-.08-.01-.07-.03-.09-.05-.03-.04-.05-.09-.07-.1-.07 0-.15.17-.12.35.04.19.05.23.11.37.12.27 1.13 2.62 2.02 4.99.9 2.37 1.69 4.76 1.77 4.94.18.4.57.27.5-.14h.01Z"/><path fill="#fff" d="M94.63 60.91c-.63-.04-1.25.29-1.63.79-.38.5-.51 1.17-.43 1.79.06.47.25.94.63 1.23.57.44 1.38.34 2.07.17"/><path fill="#0F1C2E" d="M95.03 64.7c-.1-.01-.55.1-1.07 0-.26-.05-.51-.17-.69-.39-.18-.22-.3-.55-.33-.89-.08-.69.19-1.37.56-1.69.37-.34.74-.4.8-.41.17-.03.3-.22.33-.42.03-.19-.12-.44-.53-.36-.1.02-.68.14-1.2.69-.54.54-.82 1.5-.66 2.39.08.44.26.89.6 1.22.34.33.78.46 1.12.49.7.04 1.12-.12 1.18-.13.27-.11.15-.51-.1-.51l-.01.01Z"/><path fill="#fff" d="M61.38 69.58c4.18.41 31.43.15 35.63.18 20.24.13 13.39-.33 31.61-.15"/><path fill="#0F1C2E" d="M126.85 69.33c-1-.02-5.14-.11-10.85-.04-5.71.16-12.96.16-20.22.1-14.51.06-28.94.02-30.65-.07-2.23-.03-3.62.06-3.74.26-.12.19 1.11.52 4.13.56.85.02 4.96.07 10.68.06 5.72-.03 13.06-.06 20.37-.1 3.65 0 7.3 0 10.73-.01 3.43-.02 6.65-.14 9.43-.19 5.57-.09 9.47-.04 10.03-.05 2.5-.03 2.43-.44.1-.51l-.01-.01Z"/><path fill="#EF2F46" d="M95.23 53.34h.34c1.36-.06 2.64-.45 3.9-.93 1.64-.62 3.18-1.47 4.58-2.53 1.4-1.06 2.54-2.22 3.58-3.54 1.04-1.32 1.94-2.77 2.69-4.27.77-1.52 1.4-3.11 1.93-4.73.53-1.61.95-3.26 1.29-4.92.33-1.6.58-3.21.77-4.83a70.288 70.288 0 0 0 .46-8.31c0-1-.02-1.99-.07-2.99-.06-1.25-.86-2.35-2.01-2.84L95.62 6.27a3.32 3.32 0 0 0-2.64.03L77.2 13.42c-1.11.5-1.88 1.58-1.93 2.8-.07 1.64-.09 3.27-.05 4.91.03 1.39.1 2.78.22 4.17.13 1.56.31 3.12.56 4.66.26 1.64.59 3.28 1.01 4.89.43 1.64.95 3.26 1.59 4.84.63 1.57 1.38 3.09 2.28 4.52.88 1.42 1.91 2.75 3.09 3.93 1.19 1.2 2.55 2.24 4.02 3.07 1.17.66 2.41 1.18 3.69 1.58 1.14.35 2.34.55 3.55.54v.01Z"/><path fill="#fff" d="M101.12 27h-.67v-2.67c0-1.42-.56-2.78-1.57-3.78a5.37 5.37 0 0 0-3.78-1.57c-1.42 0-2.78.56-3.78 1.57-1 1-1.57 2.36-1.57 3.78V27h-.67c-.53 0-1.04.21-1.42.59-.38.38-.59.89-.59 1.42v9.36c0 .53.21 1.04.59 1.42.38.38.89.59 1.42.59h12.03c.53 0 1.04-.21 1.42-.59.38-.38.59-.89.59-1.42v-9.36c0-.53-.21-1.04-.59-1.42-.38-.38-.89-.59-1.42-.59h.01Zm-10.03-2.67a4.012 4.012 0 0 1 4.02-4.01c1.07 0 2.08.42 2.84 1.17a4.02 4.02 0 0 1 1.18 2.84V27h-8.02v-2.67h-.02Zm10.7 14.04c0 .18-.07.35-.2.47-.13.13-.3.2-.47.2H89.09c-.18 0-.35-.07-.47-.2s-.2-.3-.2-.47v-9.36c0-.18.07-.35.2-.47s.3-.2.47-.2h12.03c.18 0 .35.07.47.2.13.13.2.3.2.47v9.36Z"/><path fill="#fff" d="M95.1 31.68c-.18 0-.35.07-.47.2-.13.13-.2.3-.2.47v2.67c0 .18.07.35.2.47a.65.65 0 0 0 .94 0c.12-.13.2-.3.2-.47v-2.67c0-.18-.07-.35-.2-.47-.13-.13-.3-.2-.47-.2Z"/></svg>