<svg xmlns="http://www.w3.org/2000/svg" width="337" height="315" fill="none"><g clip-path="url(#a)"><path fill="#F1FAFF" d="M79.69 27.69c-8.85 12.28-14.12 27.28-14.45 42.27-.22 10.37 1.42 20.831 4.96 30.591 5.66 15.59 16.91 28.56 31.94 35.72 13.68 6.53 29.45 8.03 44.42 5.71 23.58-3.66 46.3-17.77 56.26-39.45 12.98-28.26 3.91-64.86-18.56-84.66C164.45.42 132.47-4.66 107.4 5.47c-11.15 4.5-20.71 12.51-27.71 22.22Z"/><path fill="#FDF7F4" d="M108.63 175.829c-6.85 9.5-10.93 21.12-11.18 32.72-.17 8.03 1.1 16.13 3.84 23.68 4.38 12.06 13.09 22.1 24.72 27.65 10.59 5.05 22.79 6.22 34.39 4.42 18.25-2.83 35.84-13.75 43.55-30.54 10.05-21.88 3.03-50.21-14.37-65.53-15.34-13.51-40.09-17.45-59.5-9.6-8.63 3.49-16.03 9.68-21.45 17.2Z"/><path fill="#fff" d="M162.76 102.721c-.22-.08-.41-.21-.57-.37l-3.19-3.25c-.56-.57-1.13-1.15-1.8-1.59-1.69-1.09-3.84-1.18-5.68-1.99-.73-.32-1.42-.78-1.87-1.43-.53-.77-.68-1.74-1.12-2.56-.74-1.39-2.2-2.22-3.22-3.42a6.453 6.453 0 0 1-1.34-2.63.589.589 0 0 1-.02-.32c.1-.38.64-.33 1.03-.27.84.13 1.69-.12 2.51-.36 1.38-.41 2.78-.8 4.22-.85 1.44-.05 2.94.29 4.05 1.21.39.33.73.72 1.07 1.1 1.42 1.62 2.9 3.2 4.56 4.57 1.17.96 2.42 1.83 3.73 2.58.67.38 1.42.8 1.66 1.53.11.32.1.67.08 1.01-.12 2.24-.76 4.46-1.84 6.42-.39.7-1.23 1.01-1.98.73l-.29-.11h.01Z"/><path fill="#121C2D" d="M148.26 84.77c.3 0 1.53-.18 3.22-.21 1.66-.02 3.95 0 5.12 1.62.62.8 1.31 1.78 2 2.55.69.8 1.4 1.51 2.04 2.1 1.28 1.19 2.31 1.91 2.52 2.07 1.16.79 2.14-.16.69-1.17-.2-.15-1.2-.84-2.45-1.98-.63-.57-1.31-1.25-1.99-2.01-.71-.76-1.28-1.61-2.07-2.53-.4-.45-.93-.86-1.48-1.12-.56-.27-1.13-.41-1.68-.49-1.1-.16-2.1-.12-2.96-.07-1.72.11-2.89.35-3.06.38-.74.2-.6.87.1.85v.01ZM158.33 96.78c-.24-.1-2.07-.19-3.79-.54-1.74-.31-3.21-1.13-3.36-1.24-.41-.26-1.36.74-.65 1.19.1.05.59.34 1.31.61.72.27 1.66.51 2.6.64 1.88.27 3.7.22 3.84.21.32-.07.34-.75.05-.86v-.01Z"/><path fill="#121C2D" d="M161.36 100.9c-.04-.2-.83-1.38-1.87-2.34-1.01-.98-2.23-1.71-2.38-1.79-.39-.22-1.09.94-.63 1.19.13.07 1.28.69 2.27 1.53 1.01.82 1.82 1.84 1.91 1.9.2.13.76-.26.7-.5v.01Z"/><path fill="#fff" d="M292.26 158.64c-3.66-4.61-8.88-4.05-12.16-2.15-6.72 3.89-7.47 12.49-.03 16.4 2.08 1.09 4.44 1.68 6.78 1.55 1.7-.09 3.39-.56 5.07-.33 1.3.18 2.51.76 3.71 1.28 5.03 2.18 10.94 3.42 15.92 1.13 2.4-1.1 4.5-2.98 7.11-3.41 1.91-.31 3.86.2 5.8.25 3.67.09 7.38-1.63 9.56-4.59 2.18-2.96 2.69-7.11 1.17-10.45-1.52-3.34-5.08-5.71-8.75-5.66-2.25.03-4.65.86-6.67-.14-1.38-.69-2.24-2.08-3.25-3.24-6.46-7.39-18.58-8.6-26.94 3.33"/><path fill="#0F1C2E" d="M292.51 149.739c.21-.2.46-.51.84-.83.38-.32.84-.71 1.38-1.17.56-.43 1.23-.85 1.97-1.35.8-.39 1.63-.92 2.64-1.24 1.97-.74 4.44-1.19 7.14-.82 1.35.14 2.72.6 4.09 1.15.33.17.66.34 1 .52l.51.26.48.32c.32.21.65.43.98.65l.92.77c.32.25.61.53.89.83.28.3.58.58.85.89.54.63 1.05 1.35 1.7 2.02.63.68 1.49 1.31 2.47 1.58.98.27 1.99.26 2.93.17.95-.08 1.88-.23 2.78-.28.9-.04 1.79.06 2.67.3 1.75.49 3.4 1.53 4.61 2.97 1.22 1.43 1.96 3.28 2.1 5.21.13 1.93-.29 3.93-1.24 5.65-1.89 3.46-6 5.59-9.99 5.38-1.99-.08-4.21-.7-6.47-.06-2.2.61-3.92 1.96-5.7 2.89-3.52 1.93-7.73 1.82-11.46.86-1.89-.48-3.68-1.16-5.42-1.94-.89-.39-1.82-.78-2.84-.97-1.03-.19-2.04-.13-2.98-.02s-1.82.26-2.67.29c-.85.04-1.69-.02-2.51-.17-1.63-.3-3.18-.88-4.49-1.73-1.32-.81-2.42-1.84-3.16-3.04a7.543 7.543 0 0 1-1.09-3.79c-.01-1.27.28-2.46.75-3.5.52-1.01 1.11-1.92 1.83-2.61 1.4-1.42 2.92-2.25 4.11-2.66 1.21-.43 2.12-.49 2.58-.52 2.43-.14 4.3.7 5.48 1.48 1.19.78 1.82 1.41 2.05 1.37.1-.01.08-.16-.09-.48-.09-.16-.21-.36-.38-.6-.19-.22-.41-.49-.69-.79-.6-.55-1.45-1.24-2.7-1.74-1.24-.5-2.89-.78-4.74-.49-.51.09-1.54.26-2.88.86a12.17 12.17 0 0 0-4.42 3.43c-.7.9-1.34 1.98-1.77 3.25-.39 1.28-.57 2.73-.34 4.23a8.88 8.88 0 0 0 1.94 4.29c1.05 1.28 2.47 2.28 4.01 3.08 1.56.76 3.33 1.28 5.19 1.4 1.89.17 3.77-.36 5.5-.39 1.72-.08 3.35.81 5.2 1.57 1.84.75 3.77 1.38 5.81 1.74 2.03.37 4.17.5 6.3.16 2.13-.29 4.21-1.25 5.98-2.37 1.79-1.09 3.56-2.15 5.54-2.17 1.98-.07 4.14.57 6.4.26 2.22-.26 4.35-1.11 6.11-2.46 1.78-1.33 3.13-3.23 3.81-5.32.71-2.08.78-4.35.22-6.44-.54-2.11-1.84-3.96-3.48-5.26-1.64-1.31-3.64-2.13-5.69-2.24-2.06-.11-3.91.48-5.61.31-.84-.08-1.59-.36-2.22-.88-.64-.51-1.17-1.18-1.71-1.86-.53-.7-1.18-1.32-1.78-1.94-.3-.32-.65-.56-.97-.84-.33-.27-.64-.55-1-.77-2.75-1.91-5.82-2.89-8.61-2.94-2.79-.1-5.23.58-7.13 1.41-1.87.92-3.29 1.88-4.24 2.71-.48.41-.87.76-1.18 1.02-.29.28-.48.51-.59.63-.49.55-.94 1.02-1.27 1.46-.31.45-.57.83-.76 1.14-.38.62-.52.96-.44 1.01.08.06.37-.16.85-.66s1.12-1.28 2.08-2.2l.02.02Z"/><path fill="#F22F46" d="M251.13 158.689c18.982 0 34.37-15.388 34.37-34.37s-15.388-34.37-34.37-34.37-34.37 15.388-34.37 34.37 15.388 34.37 34.37 34.37ZM95.32 96.221l-.62-11.62c-.18-3.4-2.93-6.1-6.34-6.22l-9.49-.33a.892.892 0 0 1-.83-1.12c.25-.91.45-2.11.48-2.36.14-1.27.03-2.57-.39-3.78-1.13-3.26-4.59-5.1-7.92-4.97-5.01.19-8.19 5.45-6.97 10.04.31 1.16-.61 2.29-1.81 2.28-2.56-.02-6.37-.04-9.71-.05-3.57 0-6.49 2.83-6.59 6.41l-.3 11.75a.888.888 0 0 1-1.22.8c-1.19-.47-2.98-.79-3.81-.75-4.25.2-7.03 4.53-6.71 8.53.34 4.32 4.59 7.37 8.76 6.84 1.06-.14 2 .68 2.05 1.75.12 2.53.31 6.69.47 10.08.14 3.1 2.7 5.54 5.81 5.54h12.01c1.44 0 2.33-1.57 1.59-2.81-.07-.11-.13-.22-.17-.32-1.53-3.12-.26-6.41 2.74-8.17 3.85-2.25 8.91-.27 9.7 3.92.24 1.25.18 2.55-.27 3.75 0 .01 0 .02-.01.03-.7 1.82.61 3.79 2.57 3.75l13.68-.24c1.5-.03 2.71-1.24 2.73-2.74l.21-15.57a1.849 1.849 0 0 0-2.55-1.74c-.12.05-.24.09-.35.14-2.8 1.02-5.88-.61-7.38-3.06-2.59-4.24.69-10.76 5.94-10.02.49.07 2.2.53 3.44 1.09.61.28 1.3-.18 1.26-.85v.02Z"/><path fill="#fff" d="M89.11 95.571c-.13.01-.27.03-.43.04-.15.04-.32.08-.49.13-.36.08-.74.25-1.16.45-.81.44-1.71 1.16-2.42 2.23a7.918 7.918 0 0 0-1.31 4.11c-.03 1.61.52 3.52 1.88 4.93 1.3 1.41 3.33 2.57 5.66 2.37a6.16 6.16 0 0 0 1.69-.42c.41-.17.81-.17 1.19.03.37.19.64.55.71.96.04.18.02.47.02.77 0 .29 0 .58-.01.88-.04 2.36-.07 4.84-.11 7.42l-.06 3.96c0 .67-.02 1.35-.03 2.04 0 .32 0 .73-.02.98-.03.28-.11.55-.24.8-.26.5-.72.9-1.26 1.09-.29.1-.52.12-.89.13l-1.08.02c-1.44.02-2.9.05-4.39.07-1.48.02-2.99.05-4.51.07-.76.01-1.53.02-2.3.04l-1.16.02c-.33 0-.63-.05-.92-.17-.58-.23-1.03-.75-1.22-1.35-.1-.3-.13-.62-.09-.94.03-.16.06-.31.11-.47l.2-.59c.48-1.68.37-3.47-.36-5.12-.78-1.61-2.26-2.87-3.97-3.4-1.7-.58-3.62-.47-5.29.24-1.64.75-3.09 2.01-3.88 3.72-.79 1.7-.74 3.78.08 5.46.04.11.1.21.16.32l.09.16.05.1c.07.13.11.28.13.42.03.29-.04.6-.21.85-.16.26-.42.43-.69.52-.16.03-.25.05-.48.05H50.95c-.45 0-.88 0-1.26-.03-.39-.05-.78-.12-1.15-.26-.74-.26-1.44-.68-2-1.25-.56-.56-1-1.25-1.25-2-.27-.75-.28-1.53-.32-2.45l-.24-5.31-.12-2.66-.03-.66c-.01-.23 0-.41-.05-.74-.1-.58-.41-1.12-.87-1.5-.45-.38-1.06-.58-1.65-.55l-.67.05c-.2.02-.41.02-.61 0-.81-.03-1.62-.18-2.39-.47-1.52-.59-2.86-1.66-3.69-3.05-.83-1.38-1.11-3.04-.81-4.64.27-1.59 1.01-3.12 2.14-4.24.56-.56 1.21-1.01 1.93-1.32.7-.31 1.51-.44 2.24-.45.77.04 1.6.2 2.38.41.19.06.39.11.57.18l.28.1c.11.04.32.11.49.12.74.06 1.46-.48 1.59-1.21.02-.09.03-.18.03-.27v-.16l.01-.32.02-.63.03-1.26c.02-.84.04-1.68.07-2.52.04-1.67.09-3.33.13-4.97.03-.8.02-1.7.09-2.4.08-.73.3-1.44.64-2.09.67-1.29 1.84-2.3 3.17-2.8.67-.25 1.38-.38 2.08-.38.78 0 1.56 0 2.34.01 1.55 0 3.08.02 4.59.03.75 0 1.5 0 2.25.01h.56c.25 0 .5-.03.74-.11.48-.14.9-.45 1.22-.83.3-.39.51-.87.54-1.37.02-.25 0-.5-.06-.74l-.1-.5c-.14-.65-.15-1.31-.12-1.97.11-1.31.55-2.57 1.23-3.64 1.37-2.16 3.8-3.36 6.15-3.14 2.35.15 4.53 1.33 5.72 3.05 1.17 1.73 1.4 3.91.92 5.8-.1.49-.2.97-.29 1.44-.23.88.43 1.8 1.28 1.9.99.04 1.94.07 2.85.11 1.78.06 3.41.12 4.89.17.73.03 1.42.05 2.08.08.59.02 1.13.17 1.62.33 1.97.72 2.83 2.07 3.18 2.69.47.86.72 1.77.76 2.68.07.98.13 1.91.19 2.79.13 1.74.26 3.26.4 4.51.26 2.5.51 3.96.69 4.14.18.18.29-.93.27-3.55 0-1.31-.04-3-.12-5.1-.05-1.07-.06-2.16-.17-3.5a7.053 7.053 0 0 0-1.87-4.03c-.3-.34-.8-.8-1.55-1.26-.75-.45-1.77-.91-3.05-1.01-2.4-.12-5.36-.19-8.98-.32-.23 0-.45-.02-.68-.02-.09 0-.29 0-.29-.01-.03 0-.06-.01-.08-.03a.259.259 0 0 1-.11-.14c-.02-.06-.01-.05.05-.38.1-.5.2-1.01.31-1.52.12-.51.19-1.05.19-1.62.01-1.12-.14-2.29-.61-3.42-.44-1.14-1.22-2.18-2.19-3.01-1.97-1.62-4.72-2.46-7.51-1.94a7.88 7.88 0 0 0-3.79 1.97c-1.08.99-1.87 2.29-2.35 3.72-.48 1.42-.61 3-.29 4.54l.11.54c.03.11.03.23.02.34-.03.23-.12.46-.28.64-.16.18-.37.32-.6.39-.12.04-.23.04-.37.05h-.56c-2.99-.01-6.06-.03-9.2-.04-1.72 0-3.46.68-4.76 1.86A7.23 7.23 0 0 0 44.56 84c-.13 3.36-.18 6.63-.27 10.04l-.03 1.27-.02.64v.31l-.03.1c-.04.12-.2.2-.32.16l-.58-.2c-.22-.07-.43-.13-.65-.19-.88-.22-1.73-.39-2.7-.41-.97.04-1.89.25-2.76.66-1.74.8-3.05 2.31-3.84 3.99a8.934 8.934 0 0 0-.7 5.52c.39 1.89 1.55 3.56 3.06 4.71 1.53 1.14 3.42 1.79 5.34 1.76.24 0 .48-.03.72-.05l.29-.02c.07 0 .15 0 .22.01.29.05.57.2.76.44.19.26.29.49.29.89l.06 1.34.25 5.35.13 2.67c.02.43.04.92.13 1.41.08.48.23.95.42 1.4.77 1.8 2.42 3.2 4.33 3.65.47.13.96.17 1.45.19H62.01c.45.02 1.12-.08 1.56-.43.47-.32.81-.82.96-1.36.14-.54.1-1.15-.15-1.65-.14-.29-.21-.38-.3-.58-.07-.18-.17-.36-.23-.55-.27-.74-.38-1.53-.31-2.31.13-1.56 1.02-2.99 2.27-3.95a6.504 6.504 0 0 1 4.34-1.42c1.53.1 3.05.72 4.06 1.84.51.55.89 1.2 1.14 1.89.21.7.33 1.47.3 2.22-.01.37-.05.74-.13 1.1-.04.18-.08.36-.14.53l-.19.58c-.27.91-.13 1.94.39 2.73.51.79 1.38 1.35 2.32 1.45.5.04.84 0 1.24 0l1.16-.02c3.09-.06 6.1-.11 9.02-.17.73-.01 1.45-.03 2.17-.04h.54c.21-.02.42-.04.63-.08.41-.09.81-.26 1.15-.49.69-.47 1.19-1.2 1.37-2.01.04-.2.07-.4.08-.61v-.53l.02-1.03c.03-2.73.06-5.35.09-7.86.02-1.25.03-2.48.04-3.68 0-.6.01-1.19.02-1.77 0-.3.01-.56 0-.89-.01-.36-.11-.72-.28-1.03-.34-.63-.98-1.07-1.66-1.18-.34-.06-.7-.04-1.02.06-.17.06-.32.11-.42.15-.12.05-.24.09-.35.12-.92.3-1.9.27-2.78.03-1.78-.5-3.2-1.76-3.95-3.14-.77-1.38-.87-2.91-.6-4.17.25-1.27.82-2.31 1.44-3.05 1.26-1.52 2.62-1.75 3.07-1.89 1.12-.23 2.09 0 2.96.23.87.23 1.56.45 2.13.66.37.14.74.05.97-.09.24-.15.37-.35.42-.52.11-.35 0-.51-.04-.51-.06 0-.07.16-.21.37-.12.2-.5.45-.89.27-.48-.25-1.19-.57-2.01-.84-.42-.14-.86-.28-1.38-.4-.55-.06-1.11-.15-1.72-.06v.01Z"/><path fill="#F22F46" d="m75.88 177.05 11.63-.36c3.41-.11 6.17-2.8 6.36-6.2l.54-9.48c.03-.57.59-.97 1.14-.8.91.27 2.1.5 2.35.53 1.26.17 2.57.09 3.78-.3 3.28-1.06 5.2-4.47 5.15-7.81-.07-5.02-5.27-8.31-9.88-7.19-1.17.28-2.27-.66-2.24-1.86.1-3.6.28-9.68.35-13.43.03-1.5-1.14-2.75-2.64-2.82l-15.44-.75a.883.883 0 0 1-.77-1.24c.5-1.18.85-2.96.83-3.79-.11-4.25-4.37-7.13-8.38-6.9-4.33.24-7.48 4.42-7.04 8.6.11 1.06-.73 1.99-1.8 2.01l-10.09.24c-3.1.07-5.6 2.58-5.67 5.68l-.27 12.01c-.03 1.44 1.52 2.36 2.78 1.65.12-.07.22-.12.32-.17 3.15-1.46 7.28.02 8.97 3.06 2.16 3.9-.79 8.77-5 9.47-1.26.21-2.56.12-3.75-.35 0 0-.02 0-.03-.01-1.81-.74-3.8.53-3.81 2.48l-.05 10a6.568 6.568 0 0 0 6.34 6.6l11.89.43c1.33.05 2.27-1.27 1.8-2.51-.05-.12-.09-.24-.13-.36-.95-2.82.74-5.87 3.22-7.31 4.29-2.5 10.74.93 9.88 6.17-.08.49-.58 2.19-1.17 3.42-.29.61.15 1.3.82 1.28l.01.01Z"/><path fill="#fff" d="M76.68 170.83c-.01-.13-.02-.28-.04-.43-.04-.15-.08-.32-.12-.5-.07-.36-.24-.74-.43-1.17a6.912 6.912 0 0 0-2.2-2.46 7.916 7.916 0 0 0-4.11-1.38c-1.62-.06-3.53.48-4.97 1.83-1.42 1.29-2.62 3.32-2.42 5.67.06.56.22 1.18.41 1.68.14.38.09.81-.13 1.16-.22.35-.6.59-1.02.63-.18.01-.54-.01-.81-.02l-.88-.03c-2.37-.09-4.85-.18-7.45-.28-.65-.02-1.3-.05-1.97-.07l-.99-.04c-.31-.03-.62-.05-.92-.12-1.22-.23-2.38-.88-3.26-1.82-.88-.94-1.44-2.2-1.58-3.52-.05-.64-.02-1.41-.02-2.13 0-.73 0-1.47.01-2.22 0-1.49.02-3 .03-4.53v-1.15l.01-.58c.01-.16.01-.31.05-.46.12-.6.53-1.14 1.09-1.43.55-.29 1.23-.35 1.83-.11.75.31 1.65.51 2.5.54 1.71.09 3.51-.46 4.89-1.55 1.38-1.08 2.45-2.63 2.81-4.41.18-.88.21-1.82 0-2.72-.21-.9-.6-1.75-1.15-2.49-1.09-1.48-2.72-2.51-4.51-2.95-.89-.22-1.83-.28-2.76-.16-.46.06-.92.17-1.37.33-.22.09-.44.17-.66.27l-.31.16c-.07.03-.13.07-.21.09-.56.21-1.25-.08-1.52-.61a1.21 1.21 0 0 1-.13-.42c0-.08 0-.14-.01-.23v-.33l.04-1.31.12-5.25c.04-1.75.09-3.51.13-5.27.07-1.59.94-3.11 2.26-4.01.66-.44 1.42-.74 2.21-.85.2-.03.4-.03.6-.05l.66-.02 1.33-.03 5.34-.12 2.67-.06c1.13.05 2.33-.87 2.47-2.07.07-.67-.03-.99-.02-1.42.01-.41.05-.82.12-1.22.15-.8.44-1.58.84-2.3a7.132 7.132 0 0 1 3.58-3.17c1.5-.6 3.21-.54 4.76-.06 1.55.5 2.94 1.47 3.86 2.77.45.65.76 1.38.92 2.14.1.37.1.79.13 1.14-.01.37-.07.78-.15 1.18a13 13 0 0 1-.28 1.2c-.06.2-.12.39-.18.58l-.1.28c-.03.09-.07.16-.14.37-.2.72.2 1.53.9 1.8.16.07.37.1.52.11l.32.02.64.03c1.7.08 3.39.17 5.06.25a5772.24 5772.24 0 0 1 7.45.36l1.22.06.61.03c.21.01.33.02.49.06.61.13 1.14.56 1.42 1.11.14.28.21.58.23.89 0 .33-.02.78-.02 1.16-.04 1.59-.08 3.16-.13 4.71a6760.436 6760.436 0 0 1-.18 6.86v.56l-.02.29a2.481 2.481 0 0 0 .64 1.71c.33.37.78.64 1.26.76.24.05.5.08.75.06.13 0 .25-.03.37-.05l.25-.05c.65-.14 1.32-.17 1.97-.13 1.32.07 2.58.54 3.65 1.21 2.21 1.34 3.38 3.81 3.19 6.15-.15 2.36-1.33 4.56-3.07 5.75-1.73 1.18-3.93 1.4-5.82.91-.48-.11-.96-.22-1.42-.32-.07-.01-.37-.1-.56-.09a1.557 1.557 0 0 0-1.46 1.07c-.12.49-.07.62-.1.88-.01.24-.03.47-.04.7-.03.46-.05.92-.08 1.37-.1 1.78-.2 3.42-.28 4.9-.04.74-.08 1.43-.12 2.09-.04.59-.18 1.14-.35 1.62-.75 1.97-2.11 2.81-2.74 3.16-.87.45-1.79.69-2.7.72-.99.05-1.92.09-2.8.13-1.75.09-3.27.19-4.53.29-2.52.21-3.99.42-4.17.59-.18.17.92.31 3.55.35 1.32.02 3.01.02 5.12 0 1.08-.03 2.16 0 3.52-.09 1.38-.14 2.86-.71 4.07-1.82.34-.3.82-.79 1.29-1.54.46-.75.92-1.77 1.05-3.06.17-2.39.31-5.37.52-9 .01-.23.03-.46.04-.69v-.16s.01-.03.02-.04c0-.03.02-.05.04-.08.04-.05.1-.08.15-.08.04 0 .03 0 .11.01l.37.09c1 .2 2.01.55 3.15.55 1.12.02 2.3-.13 3.44-.59 1.14-.45 2.19-1.23 3.01-2.21 1.63-1.97 2.5-4.73 1.94-7.53a7.871 7.871 0 0 0-1.99-3.79 9.175 9.175 0 0 0-3.74-2.34 8.895 8.895 0 0 0-4.56-.25c-.23.04-.31.07-.43.07s-.23 0-.34-.04c-.22-.06-.44-.19-.59-.38-.16-.18-.25-.42-.28-.66V143.3l.02-.56c.08-2.99.15-6.08.23-9.23l.06-2.38c0-.42.03-.75.02-1.25a3.393 3.393 0 0 0-2.74-3.11c-.53-.09-.89-.07-1.31-.1l-1.23-.06c-3.29-.16-6.63-.31-10.03-.48l-2.55-.12-.64-.03h-.16s-.04 0-.06-.02c-.03 0-.06-.02-.09-.04-.11-.09-.17-.19-.08-.39.35-.86.56-1.73.72-2.62.07-.45.14-.9.13-1.42-.03-.48-.08-.95-.2-1.41-.46-1.86-1.71-3.48-3.28-4.5-1.58-1.03-3.46-1.61-5.37-1.53a7.8 7.8 0 0 0-5.17 2.25c-1.37 1.34-2.3 3.12-2.55 5.03-.07.47-.1.96-.07 1.44l.03.66c0 .15-.02.3-.08.44-.1.28-.32.53-.59.67-.27.16-.54.15-1.05.16l-5.37.13-2.69.07-1.34.03c-.45 0-.97.06-1.45.16a6.4 6.4 0 0 0-4.4 3.6c-.42.88-.57 1.91-.58 2.82l-.06 2.66-.12 5.3-.06 2.64v.66c-.02.22-.03.42 0 .73.06.56.33 1.12.75 1.5a2.4 2.4 0 0 0 2.37.54c.27-.08.53-.24.67-.3.7-.34 1.49-.53 2.28-.56 1.59-.06 3.19.49 4.44 1.46 1.26.96 2.1 2.39 2.26 3.9.29 3.09-2.18 6.09-5.11 6.62-.74.15-1.5.17-2.23.07a6.18 6.18 0 0 1-1.07-.25c-.3-.11-.81-.32-1.26-.35-.94-.1-1.91.24-2.59.89-.69.63-1.04 1.64-1 2.49-.01 3.1-.02 6.13-.04 9.06 0 .71 0 1.52.16 2.28.15.76.46 1.49.85 2.14a7.014 7.014 0 0 0 3.34 2.9c.68.29 1.4.46 2.12.52.72.06 1.35.06 2.02.09 1.32.05 2.6.09 3.86.13 1.26.04 2.49.09 3.69.13l1.78.06.87.03c.34.01.72-.05 1.05-.19.67-.28 1.16-.88 1.34-1.55.09-.34.1-.7.03-1.03-.08-.37-.2-.59-.26-.82-.3-.93-.27-1.9-.03-2.79.52-1.78 1.8-3.19 3.19-3.94 1.4-.75 2.93-.84 4.19-.55 1.28.27 2.31.86 3.04 1.49.74.63 1.2 1.31 1.44 1.88.29.55.32 1 .41 1.24.21 1.13-.03 2.1-.29 2.97-.25.87-.49 1.56-.71 2.12-.15.37-.07.74.07.98.15.24.34.38.51.44.34.11.51 0 .51-.03 0-.06-.16-.07-.36-.22-.2-.13-.44-.51-.25-.9.27-.48.6-1.18.89-2 .15-.42.3-.86.43-1.38.07-.55.17-1.11.09-1.73v-.01Z"/><path fill="#F22F46" d="m92.31 159.721.62 11.62c.18 3.4 2.93 6.1 6.34 6.22l9.49.33c.57.02.98.57.83 1.12-.25.91-.45 2.11-.48 2.36-.14 1.27-.03 2.57.39 3.78 1.13 3.26 4.59 5.1 7.92 4.97 5.01-.19 8.19-5.45 6.97-10.04-.31-1.16.61-2.29 1.81-2.28 2.56.02 6.37.04 9.71.05 3.57 0 6.49-2.83 6.59-6.41l.3-11.75a.888.888 0 0 1 1.22-.8c1.19.47 2.98.79 3.81.75 4.25-.2 7.03-4.53 6.71-8.53-.34-4.32-4.59-7.37-8.76-6.84-1.06.14-2-.68-2.05-1.75-.12-2.53-.31-6.69-.47-10.08-.14-3.1-2.7-5.54-5.81-5.54h-12.01c-1.44 0-2.33 1.57-1.59 2.81.07.11.13.22.17.32 1.53 3.12.26 6.41-2.74 8.17-3.85 2.25-8.91.27-9.7-3.92-.24-1.25-.18-2.55.27-3.75 0-.01 0-.02.01-.03.7-1.82-.61-3.79-2.57-3.75l-13.68.24c-1.5.03-2.71 1.24-2.73 2.74l-.21 15.57a1.849 1.849 0 0 0 2.55 1.74c.12-.05.24-.09.35-.14 2.8-1.02 5.88.61 7.38 3.06 2.59 4.24-.69 10.76-5.94 10.02-.49-.07-2.2-.53-3.44-1.09a.885.885 0 0 0-1.26.85v-.02Z"/><path fill="#fff" d="M98.52 160.381c.13-.01.27-.03.43-.04.15-.04.32-.08.49-.13.36-.08.74-.25 1.16-.45.81-.44 1.71-1.16 2.42-2.23a7.918 7.918 0 0 0 1.31-4.11c.03-1.61-.52-3.52-1.88-4.93-1.3-1.41-3.33-2.57-5.66-2.37-.57.05-1.16.21-1.69.42-.41.17-.81.17-1.19-.03-.37-.19-.64-.55-.71-.96-.04-.18-.02-.47-.02-.77 0-.29 0-.58.01-.88.04-2.36.07-4.84.11-7.42l.06-3.96c0-.67.02-1.35.03-2.04 0-.32 0-.73.02-.98.03-.28.11-.55.24-.8.26-.5.72-.9 1.26-1.09.29-.1.52-.12.89-.13l1.08-.02c1.44-.02 2.9-.05 4.39-.07 1.48-.02 2.99-.05 4.51-.07.76-.01 1.53-.02 2.3-.04l1.16-.02c.33 0 .63.05.92.17.58.23 1.03.75 1.22 1.35.1.3.13.62.09.94-.03.16-.06.31-.11.47l-.2.59c-.48 1.68-.37 3.47.36 5.12.78 1.61 2.26 2.87 3.97 3.4 1.7.58 3.62.47 5.29-.24 1.64-.75 3.09-2.01 3.88-3.72.79-1.7.74-3.78-.08-5.46-.04-.11-.1-.21-.16-.32l-.09-.16-.05-.1a1.28 1.28 0 0 1-.13-.42c-.03-.29.04-.6.21-.85.16-.26.42-.43.69-.52.16-.03.25-.05.48-.05h11.15c.45 0 .88 0 1.26.03.39.05.78.12 1.15.26.74.26 1.44.68 2 1.25.56.56 1 1.25 1.25 2 .27.75.28 1.53.32 2.45l.24 5.31.12 2.66.03.66c.01.23 0 .41.05.74.1.58.41 1.12.87 1.5.45.38 1.06.58 1.65.55l.67-.05c.2-.02.41-.02.61 0 .81.03 1.62.18 2.39.47 1.52.59 2.86 1.66 3.69 3.05.83 1.38 1.11 3.04.81 4.64-.27 1.59-1.01 3.12-2.14 4.24-.56.56-1.21 1.01-1.93 1.32-.7.31-1.51.44-2.24.45-.77-.04-1.6-.2-2.38-.41-.19-.06-.39-.11-.57-.18l-.28-.1c-.11-.04-.32-.11-.49-.12-.74-.06-1.46.48-1.59 1.21-.02.09-.02.18-.03.27v.16l-.01.32-.02.63-.03 1.26c-.02.84-.04 1.68-.07 2.52-.04 1.67-.09 3.33-.13 4.97-.03.8-.02 1.7-.09 2.4-.08.73-.3 1.44-.64 2.09a5.988 5.988 0 0 1-3.17 2.8c-.67.25-1.38.38-2.08.38-.78 0-1.56 0-2.34-.01-1.55 0-3.08-.02-4.59-.03-.75 0-1.5 0-2.25-.01h-.56c-.25 0-.5.03-.74.11-.48.14-.9.45-1.22.83-.3.39-.51.87-.54 1.37-.02.25 0 .5.06.74l.1.5c.14.65.15 1.31.12 1.97a8.093 8.093 0 0 1-1.23 3.64c-1.37 2.16-3.8 3.36-6.15 3.14-2.35-.15-4.53-1.33-5.72-3.05-1.17-1.73-1.4-3.91-.92-5.8.1-.49.2-.97.29-1.44.23-.88-.43-1.8-1.28-1.9-.99-.04-1.94-.07-2.85-.11-1.78-.06-3.41-.12-4.89-.17-.73-.03-1.42-.05-2.08-.08-.59-.02-1.13-.17-1.62-.33-1.97-.72-2.83-2.07-3.18-2.69-.47-.86-.72-1.77-.76-2.68-.07-.98-.13-1.91-.19-2.79a127.5 127.5 0 0 0-.4-4.51c-.26-2.5-.51-3.96-.69-4.14-.18-.18-.29.93-.27 3.55 0 1.31.04 3 .12 5.1.05 1.07.06 2.16.17 3.5.15 1.37.75 2.84 1.87 4.03.3.34.8.8 1.55 1.26.75.45 1.77.91 3.05 1.01 2.4.12 5.36.19 8.98.32.23 0 .45.02.68.02.09 0 .28 0 .29.01.03 0 .06.01.08.03.05.03.09.08.11.14.02.06.01.05-.05.38-.1.5-.2 1.01-.31 1.52a7.05 7.05 0 0 0-.19 1.62c-.01 1.12.14 2.29.61 3.42.44 1.14 1.22 2.18 2.19 3.01 1.97 1.62 4.72 2.46 7.51 1.94a7.88 7.88 0 0 0 3.79-1.97c1.08-.99 1.87-2.29 2.35-3.72.48-1.42.61-3 .29-4.54l-.11-.54a.976.976 0 0 1-.02-.34c.03-.23.12-.46.28-.64.16-.18.37-.32.6-.39.12-.04.23-.04.37-.05h.56c2.99.01 6.06.03 9.2.04 1.72 0 3.46-.68 4.76-1.86a7.23 7.23 0 0 0 2.34-4.65c.13-3.36.18-6.63.27-10.04l.03-1.27.02-.64v-.31l.03-.1c.04-.12.2-.2.32-.16l.58.2c.22.07.43.13.65.19.88.22 1.73.39 2.7.41.97-.04 1.89-.25 2.76-.66 1.74-.8 3.05-2.31 3.84-3.99.8-1.69 1.07-3.64.7-5.52-.39-1.89-1.55-3.56-3.06-4.71-1.53-1.14-3.42-1.79-5.34-1.76-.24 0-.48.03-.72.05l-.29.02c-.07 0-.15 0-.22-.01-.29-.05-.57-.2-.76-.44-.19-.26-.29-.49-.29-.89l-.06-1.34-.25-5.35-.13-2.67c-.02-.43-.04-.92-.13-1.41a6.27 6.27 0 0 0-.42-1.4c-.77-1.8-2.42-3.2-4.33-3.65-.47-.13-.96-.17-1.45-.19H125.62c-.45-.02-1.12.08-1.56.43-.47.32-.81.82-.96 1.36-.14.54-.1 1.15.15 1.65.14.29.21.38.3.58.07.18.17.36.23.55.27.74.38 1.53.31 2.31-.13 1.56-1.02 2.99-2.27 3.95a6.504 6.504 0 0 1-4.34 1.42c-1.53-.1-3.05-.72-4.06-1.84a5.56 5.56 0 0 1-1.14-1.89c-.21-.7-.33-1.47-.3-2.22.01-.37.05-.74.13-1.1.04-.18.08-.36.14-.53l.19-.58c.27-.91.13-1.94-.39-2.73-.51-.79-1.38-1.35-2.32-1.45-.5-.04-.84 0-1.24 0l-1.16.02c-3.09.06-6.1.11-9.02.17-.73.01-1.45.03-2.17.04h-.54c-.21.02-.42.04-.63.08-.41.09-.81.26-1.15.49-.69.47-1.19 1.2-1.37 2.01-.04.2-.07.4-.08.61v.53l-.02 1.03c-.03 2.73-.06 5.35-.09 7.86-.02 1.25-.03 2.48-.04 3.68 0 .6-.01 1.19-.02 1.77 0 .3-.01.56 0 .89.01.36.11.72.28 1.03.34.63.98 1.07 1.66 1.18.34.06.7.04 1.02-.06.17-.06.32-.11.42-.15.12-.05.24-.09.35-.12.92-.3 1.9-.27 2.78-.03 1.78.5 3.2 1.76 3.95 3.14.77 1.38.87 2.91.6 4.17a6.833 6.833 0 0 1-1.44 3.05c-1.26 1.52-2.62 1.75-3.07 1.89-1.12.23-2.09 0-2.96-.23-.87-.23-1.56-.45-2.13-.66-.37-.14-.74-.05-.97.09-.24.15-.37.35-.42.52-.11.35 0 .51.04.51.06 0 .07-.16.21-.37.12-.2.5-.45.89-.27.48.25 1.19.57 2.01.84.42.14.86.28 1.38.4.55.06 1.11.15 1.72.06v-.01Z"/><path fill="#F22F46" d="m146.68 45.64-9.77-6.32a6.579 6.579 0 0 0-8.76 1.48l-5.84 7.49a.884.884 0 0 1-1.39.01c-.59-.74-1.45-1.61-1.63-1.77-.94-.86-2.06-1.53-3.28-1.9-3.3-1-6.82.72-8.68 3.49-2.8 4.17-.4 9.83 4.03 11.54 1.12.43 1.49 1.84.78 2.81-2.13 2.9-5.74 7.8-7.93 10.84-.88 1.22-.63 2.91.57 3.83l12.27 9.4a.89.89 0 0 1-.07 1.46c-1.08.69-2.39 1.95-2.84 2.64-2.33 3.56-.46 8.35 2.96 10.44 3.7 2.26 8.66.62 10.68-3.07.51-.94 1.73-1.22 2.62-.63 2.11 1.39 5.59 3.68 8.43 5.54a5.801 5.801 0 0 0 7.89-1.44l7.06-9.72c.85-1.17.09-2.81-1.35-2.94-.13-.01-.25-.03-.36-.05-3.43-.59-5.97-4.16-5.63-7.62.44-4.44 5.64-6.76 9.5-4.95 1.15.54 2.17 1.35 2.88 2.42 0 0 .01.02.02.03 1.06 1.64 3.42 1.73 4.54.13l5.74-8.2c2.04-2.91 1.39-6.91-1.45-9.04l-9.53-7.11a1.856 1.856 0 0 0-2.91 1.04c-.03.12-.06.25-.1.37-.82 2.86-3.95 4.4-6.81 4.18-4.95-.39-8.31-6.88-4.62-10.7.35-.36 1.72-1.47 2.9-2.15.58-.33.62-1.16.05-1.52l.03-.01Z"/><path fill="#fff" d="M142.49 50.31c-.07.11-.14.24-.22.38-.06.15-.12.31-.18.48-.15.34-.22.75-.31 1.21-.11.92-.05 2.07.41 3.28.46 1.2 1.28 2.47 2.59 3.47 1.3.98 3.18 1.61 5.13 1.32 1.91-.25 4.05-1.23 5.21-3.29.27-.49.49-1.1.62-1.61.1-.39.39-.72.77-.88.38-.16.83-.14 1.2.07.15.09.44.32.65.48l.71.53c1.9 1.42 3.89 2.91 5.96 4.47.52.39 1.04.78 1.57 1.18l.8.6c.24.2.48.39.69.62.87.88 1.45 2.08 1.64 3.35.19 1.28-.06 2.63-.7 3.79-.32.55-.79 1.17-1.2 1.76-.42.6-.85 1.21-1.27 1.82-.86 1.22-1.72 2.46-2.6 3.71l-.66.94-.33.47c-.1.12-.19.25-.31.35-.44.42-1.08.64-1.71.56-.62-.08-1.22-.41-1.57-.95-.45-.68-1.06-1.36-1.75-1.86a7.402 7.402 0 0 0-4.91-1.51c-1.75.11-3.51.77-4.82 2.03-.65.62-1.21 1.38-1.55 2.23-.34.86-.51 1.78-.48 2.7.06 1.84.81 3.61 2.03 4.99.61.69 1.35 1.28 2.18 1.7.42.21.86.38 1.31.51.23.05.46.11.7.15l.34.05c.07.02.15.02.22.05.58.15.98.78.91 1.37-.01.15-.06.29-.13.42-.04.07-.07.12-.12.2l-.19.26-.77 1.06c-1.03 1.41-2.06 2.83-3.09 4.25-1.03 1.41-2.07 2.83-3.11 4.25-.97 1.27-2.54 2.02-4.14 2.01-.8-.01-1.59-.2-2.3-.55-.18-.08-.35-.2-.52-.3l-.56-.36-1.11-.73-4.46-2.93-2.23-1.47c-.9-.68-2.41-.61-3.21.3-.44.52-.54.84-.79 1.17-.24.33-.5.64-.79.93-.58.57-1.26 1.05-2 1.41-1.47.74-3.18.94-4.75.57-1.57-.36-2.94-1.38-3.94-2.66-.99-1.29-1.58-2.89-1.6-4.47 0-.79.16-1.57.46-2.29.13-.36.36-.71.55-1.01.22-.3.5-.6.79-.89.29-.29.6-.56.91-.82.16-.13.32-.25.48-.37l.24-.17c.08-.05.15-.09.32-.23.58-.47.71-1.37.28-1.99-.09-.15-.24-.29-.36-.39l-.25-.19-.51-.39c-1.35-1.04-2.69-2.06-4.02-3.09-1.33-1.02-2.65-2.04-3.96-3.04-.66-.5-1.31-1-1.96-1.5l-.97-.75-.48-.37c-.16-.13-.25-.21-.37-.33-.43-.46-.61-1.11-.54-1.72.04-.31.15-.6.32-.86.18-.27.46-.63.68-.94.94-1.28 1.87-2.55 2.79-3.81.92-1.25 1.83-2.49 2.72-3.72.45-.61.89-1.22 1.33-1.82l.33-.45.17-.24c.07-.11.14-.21.19-.32.23-.45.32-.96.25-1.45-.06-.49-.27-.97-.6-1.34-.17-.18-.36-.35-.58-.47-.1-.07-.22-.11-.33-.17l-.23-.11c-.61-.25-1.18-.61-1.7-1.02-1.04-.81-1.82-1.91-2.31-3.08-1.05-2.36-.61-5.05.87-6.87 1.47-1.85 3.69-2.99 5.8-2.98 2.1.01 4.02 1.08 5.3 2.56l.99 1.08c.05.05.24.29.41.39a1.549 1.549 0 0 0 1.81-.06c.38-.33.41-.47.58-.67.15-.19.29-.37.43-.56.29-.37.57-.73.84-1.08 1.1-1.41 2.11-2.7 3.02-3.87.46-.58.89-1.13 1.29-1.65.37-.47.79-.83 1.21-1.14a5.925 5.925 0 0 1 4.06-1.04c.98.12 1.87.45 2.63.94.84.52 1.63 1.02 2.38 1.49 1.49.92 2.8 1.71 3.9 2.34 2.19 1.26 3.52 1.92 3.77 1.88.25-.04-.58-.78-2.72-2.31-1.07-.77-2.46-1.73-4.21-2.91-.9-.59-1.78-1.22-2.95-1.93a7.064 7.064 0 0 0-4.38-.82c-.45.05-1.12.18-1.94.54-.81.35-1.77.93-2.6 1.92-1.5 1.87-3.31 4.24-5.55 7.1l-.42.54-.1.12-.03.03c-.02.02-.05.03-.08.04-.06.02-.12.01-.17-.02-.03-.02-.03-.02-.08-.07l-.26-.28c-.71-.73-1.34-1.59-2.28-2.24-.91-.66-1.97-1.2-3.17-1.47-1.2-.28-2.5-.24-3.73.1-2.46.69-4.74 2.47-5.88 5.09-.56 1.31-.75 2.8-.52 4.25.23 1.45.84 2.85 1.74 4.06a8.899 8.899 0 0 0 3.61 2.81c.21.1.3.12.39.19a1.181 1.181 0 0 1 .53.88c.03.24-.03.49-.14.7-.03.06-.06.1-.1.16l-.16.23-.33.45c-1.77 2.42-3.58 4.91-5.44 7.46-.47.64-.93 1.28-1.4 1.92-.24.35-.45.59-.73 1.02-.26.42-.41.9-.46 1.4a3.4 3.4 0 0 0 .95 2.73c.39.38.69.57 1.02.83l.98.75c2.61 2 5.27 4.03 7.97 6.1.67.52 1.35 1.03 2.03 1.55l.51.39.13.1s.03.02.04.04c.03.02.04.05.05.08.04.13.03.25-.16.37-.78.51-1.45 1.1-2.09 1.74-.32.33-.63.66-.91 1.09-.25.41-.48.83-.64 1.28-.68 1.79-.58 3.83.14 5.57.71 1.74 1.93 3.29 3.54 4.31 1.62 1.03 3.64 1.44 5.53 1.09 1.89-.32 3.67-1.26 4.96-2.69.33-.35.62-.73.88-1.14l.35-.56c.08-.12.19-.23.31-.32.24-.17.56-.25.87-.21.31.03.53.19.95.47l4.5 2.95 2.25 1.47 1.12.74c.38.25.83.5 1.28.69 1.83.74 3.99.57 5.67-.45.84-.48 1.56-1.25 2.08-1.99l1.56-2.16c1.04-1.44 2.08-2.87 3.11-4.3l1.55-2.14.39-.53c.13-.18.25-.33.41-.6.27-.5.37-1.11.24-1.66-.12-.56-.44-1.06-.89-1.41-.23-.17-.48-.31-.75-.39-.27-.09-.57-.11-.73-.13-.77-.12-1.53-.41-2.19-.84-1.34-.86-2.35-2.22-2.82-3.73-.49-1.51-.37-3.16.36-4.5 1.52-2.7 5.26-3.76 7.97-2.53.69.29 1.33.72 1.88 1.22.27.25.52.52.74.82.18.26.48.72.84 1 .72.62 1.71.89 2.63.74.92-.12 1.79-.75 2.24-1.48 1.78-2.54 3.51-5.02 5.19-7.43.41-.58.87-1.25 1.17-1.96.31-.72.47-1.48.53-2.24.11-1.53-.3-3.05-1.1-4.29-.39-.63-.89-1.17-1.45-1.63-.56-.46-1.08-.81-1.61-1.22-1.06-.79-2.09-1.56-3.1-2.31-1.01-.75-2-1.49-2.96-2.2-.48-.36-.96-.71-1.43-1.06l-.7-.52c-.27-.2-.62-.37-.97-.44-.71-.14-1.45.06-1.98.52-.27.23-.48.52-.61.83-.14.34-.18.6-.26.82-.28.93-.86 1.72-1.57 2.31-1.44 1.17-3.3 1.6-4.86 1.42a6.052 6.052 0 0 1-3.76-1.93 6.899 6.899 0 0 1-1.65-2.95c-.25-.94-.24-1.76-.12-2.36.08-.62.31-1.01.37-1.25.47-1.05 1.22-1.71 1.92-2.28.7-.57 1.29-1.01 1.79-1.34.33-.22.48-.57.5-.84.02-.28-.07-.51-.17-.65-.22-.29-.42-.3-.43-.27-.04.05.09.15.17.39.09.22.07.67-.31.88-.49.24-1.16.63-1.87 1.14-.36.26-.74.54-1.14.89-.37.41-.77.82-1.06 1.37l-.01-.02Z"/><path fill="#fff" d="M155.69 88.49a136.56 136.56 0 0 1-11.14-3.63c-.29-.11-.66-.2-.87.03-.18.19-.12.49-.03.74a6.571 6.571 0 0 0 1.96 2.88c1.6 1.36 3.77 1.91 5.35 3.3 1.33 1.17 2.23 2.94 3.9 3.53"/><path fill="#121C2D" d="M154.39 94.649c-.17-.12-.64-.47-1.24-1.16-.61-.66-1.32-1.77-2.59-2.66-1.23-.88-2.77-1.45-4.03-2.35-.63-.44-1.17-.99-1.6-1.63-.21-.32-.39-.66-.54-1.01l-.1-.27c-.04-.11-.02-.05-.03-.08 0-.02 0-.04.01-.05.01 0 .03-.01.04 0l.12.04c.32.12.64.24.95.36.63.23 1.24.45 1.83.66 1.18.42 2.27.79 3.23 1.1 1.9.62 3.24 1.01 3.55 1.1 1.84.52 2.66-.64.21-1.35-.28-.08-1.47-.42-3.29-.99-.91-.28-1.97-.63-3.15-1.03-.59-.21-1.21-.42-1.85-.65-.32-.12-.65-.24-.98-.36l-.13-.05-.23-.08c-.16-.05-.33-.08-.49-.08-.32 0-.63.11-.84.34-.22.25-.3.58-.25.94.02.17.08.37.14.52l.12.3c.17.4.38.8.63 1.17a7.01 7.01 0 0 0 1.88 1.92c1.47 1.02 3.04 1.55 4.18 2.34 1.14.74 1.86 1.8 2.57 2.51.68.73 1.28 1.12 1.42 1.18.53.27.88.16.93-.02.06-.19-.1-.43-.45-.7l-.02.04Z"/><path fill="#fff" d="M210.23 113.62c2.54-1 2.23-2.86 2.37-8.88-3.49-.81-7.53-2.43-8.43-5.9-.9-3.47 1.45-7.43 2.24-12.12.77-4.56 3.97-8.54 7.72-11.25 3.75-2.71 8.86-3.76 13.12-1.98 1.94.81 4.14 2.17 5.95 1.1.89-.53 1.38-1.52 2.13-2.24 2.96-2.83 8.39.5 8.65 4.58.28 4.31-3.16 8.02-6.69 10.4-.39.26-.76.57-1.05.94-2.09 2.7 1.49 5.19 1.93 8.08.22 1.47-.06 3.04-.78 4.34-1.99 3.58-1.65 6.96 2.63 10.79 3.62 3.24-1.4 4.65.97 8.61 4.16 6.97 12.12 19.8 13.79 27.74.55 2.58.94 5.36-.07 7.8-1.53 3.7-5.69 5.44-8.7 8.08-6.44 5.65-7.39 15.17-7.88 23.72-.87 15.02-.17 22.86-1.04 37.88-.36 6.17-.71 12.06-1.07 18.23-.67 11.63-4.32 23.42-4.64 43.25-2.32.17-3.69-.46-5.9-.39-.67.02-1.35-.02-2.02-.14-3.83-.71-2.43-2.13-2.52-3.23-1.79-20.41-3.02-35.22-3.58-49.87-.02-.63-.95-.67-1.02-.04-1.6 15.46-2.1 34.1-3.17 48.19-.09 1.21.47 3.15-.24 4.14-1.51 2.11-7.03 1.46-8.82-.42-1.78-1.88-.81-5.1-1.38-7.63-6.94-31.22-6.99-62.07-8.94-93.24-.93-14.9-1.87-29.81-2.8-44.71v-.06c-.25-4.05 1.1-8.03 3.8-11.06l9.55-10.73c1.6-1.8 3.64-3.12 5.87-4l.02.02Z"/><path fill="#0F1C2E" d="M207.17 90.751a.68.68 0 1 0 0-1.36.68.68 0 0 0 0 1.36ZM217.45 92.77a.68.68 0 1 0 .001-1.359.68.68 0 0 0-.001 1.359ZM230.12 74.6c-.28-.23-1.52-1.17-3.54-1.8-2-.64-4.74-.88-7.36-.27-2.62.57-4.99 1.91-6.61 3.17-1.64 1.26-2.59 2.41-2.8 2.63-1.06 1.28-.2 2.36 1.11.78.2-.2 1.1-1.3 2.65-2.5 1.53-1.2 3.76-2.46 6.19-2.99 2.42-.55 4.96-.34 6.76.24 1.82.55 2.91 1.35 3.08 1.43.73.43 1.16-.1.52-.69Z"/><path fill="#0F1C2E" d="M223.12 74.19c-.19-.06-1.01-.24-2.17-.18-1.15.06-2.6.4-3.91 1.04-1.32.63-2.48 1.58-3.24 2.43-.77.86-1.17 1.59-1.25 1.74a.68.68 0 0 0 1.22.59c.08-.12.41-.77 1.08-1.54.66-.77 1.68-1.64 2.86-2.22 1.17-.61 2.46-.94 3.46-1.02 1.01-.1 1.71.01 1.81 0 .46-.02.6-.69.14-.85v.01ZM224.01 76.39c-.14-.01-.73.06-1.5.29-.78.23-1.73.64-2.6 1.19-1.79 1.07-3.06 2.77-3.18 2.98-.37.55.72 1.35 1.14.73.11-.17 1.2-1.73 2.78-2.77 1.54-1.09 3.39-1.53 3.52-1.58.3-.15.19-.82-.15-.85l-.01.01ZM227.02 79.09c-.14 0-.71.07-1.46.33-.74.26-1.65.73-2.45 1.35-1.65 1.21-2.61 3.08-2.68 3.29-.26.6.96 1.17 1.24.53.07-.17.85-1.82 2.26-2.95 1.36-1.19 3.13-1.66 3.25-1.71.28-.15.17-.82-.17-.84h.01ZM229.17 82.991c-.12.23-.57 2.01-1.21 3.71a35.33 35.33 0 0 1-1.52 3.52c-.24.49.89 1.25 1.24.54.1-.2.89-1.95 1.44-3.77.57-1.81.9-3.66.89-3.81-.02-.33-.69-.46-.84-.19Z"/><path fill="#0F1C2E" d="M223.32 114.39c.07-.26.24-.96.37-1.98.14-1.02.23-2.36.36-3.87.15-1.51.3-3.24.97-4.86.31-.82.78-1.58 1.36-2.26.3-.34.61-.67.97-.94.34-.3.72-.57 1.12-.85 1.58-1.09 3.36-2.12 4.56-3.81.58-.85.93-1.88.9-2.89-.02-1.01-.51-2.04-1.33-2.6-.82-.58-1.76-.61-2.49-.51-.75.11-1.37.4-1.84.69-.94.61-1.38 1.2-1.54 1.36-.8.96-.99 1.68-.81 1.96.1.14.33.15.68-.05.35-.19.78-.61 1.29-1.18.15-.15.54-.64 1.28-1.07.37-.21.83-.39 1.36-.43.53-.05 1.09.06 1.5.43.88.72.85 2.57-.22 3.84-1.04 1.35-2.73 2.36-4.36 3.52-.82.59-1.61 1.32-2.24 2.14-.63.82-1.06 1.75-1.4 2.67-.59 1.85-.72 3.64-.82 5.14-.12 3.02-.44 5.03-.5 5.32-.22 1.28.44 1.47.83.22v.01ZM234.82 88.211c.53-.14 2.95-.8 5.39-3.08 1.21-1.12 2.39-2.63 3.21-4.46.42-.91.72-1.9.92-2.94.18-1.04.23-2.17-.11-3.27-.32-1.11-1.16-2.09-2.14-2.63-.98-.56-2.06-.8-3.11-.82-2.09-.03-3.96.77-5.31 1.75-1.37 1-2.24 2.19-2.78 3.12-.54.93-.78 1.62-.88 1.86-.45 1.25-.22 2.14.09 2.24.35.11.7-.5 1.25-1.97.08-.2.31-.82.81-1.65.5-.82 1.29-1.86 2.51-2.7 1.21-.84 2.87-1.47 4.63-1.37.87.05 1.76.31 2.48.8a3.31 3.31 0 0 1 1.4 2.11c.37 1.78-.23 3.79-.97 5.42-.79 1.66-1.89 3.02-3 4.03-2.24 2.04-4.35 2.61-4.61 2.73-1.26.43-1.13 1.1.21.84l.01-.01Z"/><path fill="#0F1C2E" d="M241.23 116.29c.05-.26.23-.92.24-1.98 0-.52-.08-1.16-.33-1.82-.24-.65-.64-1.29-1.11-1.91-.48-.61-.99-1.24-1.63-1.84-.62-.58-1.22-1.12-1.46-1.81-.27-.69-.23-1.52-.01-2.35.22-.84.6-1.65 1.02-2.5.42-.85.85-1.75 1.1-2.74.26-.98.26-2.11-.14-3.08-.39-.95-.97-1.66-1.41-2.32-.47-.66-.77-1.26-.92-1.89-.32-1.27-.09-2.44.19-3.23.31-.79.65-1.26.77-1.41.6-.82 1.01-1.39.87-1.73-.07-.16-.28-.22-.67-.09-.37.14-.92.47-1.43 1.2-.12.21-.57.8-.89 1.82-.32 1-.54 2.47-.04 4.08.48 1.68 1.99 2.88 2.45 4.33.48 1.47-.31 3.22-1.15 4.91-.42.88-.81 1.81-.99 2.81-.19.99-.13 2.12.4 3.04.53.92 1.29 1.46 1.85 2.01.54.55 1.07 1.14 1.48 1.69.86 1.11 1.11 2.18 1.09 3.03-.02.85-.13 1.42-.14 1.56-.15 1.27.52 1.39.84.19l.02.03Z"/><path fill="#0F1C2E" d="M238.97 92.251c.13.32.44 1.14 1.27 2.13.42.48.96 1.02 1.7 1.43.75.4 1.64.76 2.75.66.54-.05 1.21-.33 1.58-.93.36-.58.4-1.27.24-1.89-.17-.63-.53-1.14-.9-1.58-.35-.42-.83-.89-1.35-1.21-.51-.33-1.06-.59-1.61-.82-.28-.11-.56-.22-.84-.32l-.25-.09-.2-.06c-.06-.08.11-.06.16-.07h.66c.66.01 1.34 0 2.04-.09 1.37-.24 2.66-.62 3.84-1.36.29-.18.57-.39.83-.62.26-.24.5-.45.73-.83.25-.36.33-.97.16-1.4-.15-.44-.42-.77-.76-1.02-.68-.46-1.37-.53-1.93-.59-.59-.07-1.16-.08-1.72-.05-2.23.11-4.05.82-5.3 1.52-1.25.71-1.98 1.37-2.22 1.6-1.24 1.11-1.46 2.24-1.23 2.45.12.12.38.06.74-.23.37-.27.86-.76 1.6-1.4.21-.18.86-.76 1.98-1.37 1.12-.59 2.75-1.22 4.71-1.28.49-.01.99.01 1.51.07.51.05.97.18 1.21.41.12.11.21.27.23.39.01.11 0 .18-.13.36-.29.37-.74.75-1.21 1.03-.94.57-2.16.95-3.3 1.14-.58.08-1.2.09-1.83.09h-1.38c-.57.02-1.12.06-1.57.13-.2.04-.31.12-.44.17-.08.07-.18.13-.23.2-.05.06-.13.11-.17.32-.04.19.02.38.06.4.07.09.17.23.38.41.16.08.41.18.64.26l.85.23.81.24.51.17c.28.1.55.2.81.31.52.22 1.02.47 1.45.76.22.15.4.3.57.47.19.2.37.39.52.59.31.39.53.79.57 1.18.12.86-.43 1.32-1.23 1.3-1.63-.05-2.84-1.09-3.49-1.88-.67-.83-.94-1.47-1.02-1.62-.36-.73-.62-1.09-.82-1.04-.18.04-.28.52 0 1.32l.02.01ZM202.76 86.622c-.25.31-1.17 2.07-.46 4.44.18.58.47 1.18.94 1.73.48.54 1.09.95 1.81 1.22 1.47.57 3.22.11 4.43-.82 1.25-.93 2.14-2.28 2.38-3.83.07-.41 0-.89-.18-1.29-.08-.21-.23-.37-.34-.55-.14-.14-.28-.3-.43-.41-.61-.46-1.22-.68-1.78-.85-1.12-.32-2.07-.44-2.75-.56-.64-.11-1.12-.24-1.32-.26-.47-.09-1 .02-1.27.25-.28.24-.3.49-.22.63.09.15.28.21.47.27.2.06.41.11.94.21.13.02.62.14 1.35.25.71.11 1.64.22 2.61.52.48.15.98.36 1.3.67.33.31.46.64.34 1.18-.23 1.14-1.01 2.26-2.04 2.98-1.04.72-2.35.93-3.38.46l-.38-.19-.34-.25c-.24-.16-.4-.35-.57-.55-.32-.42-.53-.9-.66-1.37-.27-.94-.21-1.81-.09-2.4.12-.6.33-.92.36-1.01.16-.36.2-.59.09-.76-.09-.16-.49-.16-.81.29Z"/><path fill="#0F1C2E" d="M215.02 90.051c0-.08-.15-.39-.49-.66-.33-.27-.82-.48-1.3-.58-.97-.21-1.97.06-2.09.12-.34.14.27 1.35.48 1.26.04-.03.74-.28 1.46-.2.35.03.68.14.88.26.2.12.3.24.32.25.12.03.75-.24.73-.45h.01Z"/><path fill="#0F1C2E" d="M214.61 89.342c-.25.31-1.17 2.07-.46 4.44.18.58.47 1.18.94 1.73.48.54 1.09.95 1.81 1.22 1.47.57 3.22.11 4.43-.82 1.25-.93 2.14-2.28 2.38-3.83.07-.41 0-.89-.18-1.29-.08-.21-.23-.37-.34-.55-.14-.14-.28-.3-.43-.41-.61-.46-1.22-.68-1.78-.85-1.12-.32-2.07-.44-2.75-.56-.64-.11-1.12-.24-1.32-.26-.47-.09-1 .02-1.27.25-.28.24-.3.49-.22.63.09.15.28.21.47.27.2.06.41.11.94.21.13.02.62.14 1.35.25.71.11 1.64.22 2.61.52.48.15.98.36 1.3.67.33.31.46.64.34 1.18-.23 1.14-1.01 2.26-2.04 2.98-1.04.72-2.35.93-3.38.46l-.38-.19-.34-.25c-.24-.16-.4-.35-.57-.55-.32-.42-.53-.9-.66-1.37-.27-.94-.21-1.81-.09-2.4.12-.6.33-.92.36-1.01.16-.36.2-.59.09-.76-.09-.16-.49-.16-.81.29Z"/><path fill="#0F1C2E" d="M227.9 91.413c-.04-.12-.37-.45-.88-.74s-1.17-.53-1.84-.71c-1.34-.37-2.68-.52-2.84-.54-.42-.04-.64 1.29-.11 1.35.15.02 1.47.1 2.73.36.63.13 1.23.3 1.65.49.42.19.63.37.67.38.18.05.74-.33.62-.6v.01ZM210.97 95.271c-.05-.05-.35-.2-.52-.58-.19-.39-.09-.78.37-1.42.1-.16.22-.32.33-.51.12-.21.21-.42.28-.61.14-.38.23-.74.3-1.05.13-.62.16-1.1.17-1.2 0-.6-1.35-.52-1.35-.02 0 .07-.01.47-.11 1.03a6.8 6.8 0 0 1-.21.9c-.05.16-.1.27-.17.42l-.28.48c-.2.35-.43.77-.49 1.27-.06.51.11.98.32 1.3.44.66 1.04.8 1.1.81.39.02.39-.69.28-.81l-.02-.01ZM221.97 88.36c-.05-.17-.87-1-1.92-1.52-1.03-.55-2.2-.73-2.33-.74-.38-.04-.53 1.3-.14 1.34.11 0 1.1.1 2.01.5.93.36 1.7 1.01 1.78 1.03.18.05.67-.43.59-.62l.01.01ZM206.18 85.551c.12.03.81-.13 1.49-.06.69.05 1.31.32 1.38.36.17.07.85-1.1.49-1.26-.09-.04-.99-.35-1.89-.29-.9.02-1.72.38-1.77.44-.11.13.15.76.29.81h.01Z"/><path fill="#0F1C2E" d="M219.33 103.482c-.52.13-2.77.96-5.93.76-1.56-.11-3.34-.5-4.94-1.46-1.58-.93-3.06-2.44-3.52-4.25-.53-1.79.5-3.65 1-5.63.51-1.95.76-3.79 1.06-5.35.54-3.16 1.57-5.1 1.83-5.47.61-1.01.91-1.77.69-2.06-.11-.14-.33-.13-.69.1-.36.22-.83.69-1.28 1.49-.13.22-.5.88-.88 1.93-.38 1.04-.73 2.46-1.01 4.09-.3 1.63-.53 3.48-1.04 5.33-.24.92-.62 1.88-.86 2.95-.25 1.07-.23 2.32.17 3.4.8 2.19 2.58 3.73 4.4 4.67 1.85.95 3.79 1.27 5.44 1.31 3.33.05 5.51-.89 5.81-.98 1.36-.61 1-1.2-.23-.83h-.02Z"/><path fill="#0F1C2E" d="M217.87 98.702c-.1.05-.4.33-.88.64-.48.3-1.15.6-1.84.76-1.42.36-2.81-.06-2.95-.12-.37-.13-1.08 1.05-.36 1.3.1.02.59.18 1.28.22.69.05 1.58-.01 2.42-.28 1.72-.47 2.93-1.81 2.96-1.93.14-.28-.4-.7-.62-.59h-.01ZM212.42 105.65c-.06.2-.19 1.07-.35 2.27-.09.6-.17 1.28-.2 2.02-.03.34-.04.8-.08 1.07-.04.32-.2.75-.07 1.36.15.65.71 1.02 1.08 1.2.18.08.36.17.53.25.19.09.37.16.56.23.75.26 1.51.37 2.17.37 1.33 0 2.24-.43 2.42-.5.5-.22.59-.7.42-.99-.18-.3-.54-.43-1.03-.22-.14.05-.84.39-1.92.4-.53 0-1.15-.08-1.77-.29-.28-.1-.69-.27-.94-.4-.27-.16-.34-.23-.37-.42-.04-.21.06-.57.1-1.04l.03-1.11c0-.71.07-1.38.12-1.97.1-1.17.17-1.98.16-2.1-.03-.53-.71-.6-.85-.12l-.01-.01ZM247.54 227.961c-.29-.62-1.78-3.06-3-6.77-1.27-3.7-2.13-8.65-2.78-13.67-1.54-10.03-3.06-20.01-3.25-21.2-.49-3.09-2.61-3.53-1.95.62.19 1.16 1.86 11.31 3.51 21.37.73 5.06 1.75 10.13 3.18 13.85 1.38 3.74 2.95 6.08 3.16 6.4 1.06 1.45 1.87.8 1.13-.62v.02ZM221.34 284.98c.01-.58-.04-2.98-.22-6.28-.17-3.3-.48-7.5-.77-11.67-.29-4.18-.52-8.34-.62-11.59-.1-3.25-.11-5.57-.11-6.07 0-2.57-1.36-3.26-1.35.24 0 .49.03 2.87.17 6.19.13 3.32.41 7.56.76 11.77.34 4.21.7 8.39.92 11.61.2 3.21.35 5.46.37 5.78.14 1.44.82 1.37.86.02h-.01ZM231.85 285.651c.06-.65.16-3.37.46-7.1.28-3.73.81-8.48 1.44-13.2.64-4.72 1.36-9.43 1.89-13.1.51-3.68.88-6.31.96-6.87.37-2.92-.87-3.84-1.37.09-.15 1.1-1.44 10.72-2.72 20.25-.6 4.78-1.04 9.56-1.26 13.23-.23 3.68-.26 6.25-.25 6.62.03 1.65.72 1.61.86.09l-.01-.01Z"/><path fill="#fff" d="M214.56 288.911c.02-.82.02-1.64-.11-2.45-.07-.44-.47-.63-.87-.43-2.52 1.22-5.38 1.03-7.92-.03-1.02-.43-2.19-1.04-3.13.09-.24.29-.4.64-.51.99-.74 2.47-2.36 10.15-4.08 12.08-2.3 2.58-5.57 3.98-8.54 5.72-3.05 1.79-6.08 4.35-6.62 7.89-.05.3-.02.62.1.9.27.62.78.6 1.24.57 5.39-.37 12.1-.81 17.49-1.18.35-.02.72-.05 1.01-.25.33-.22.52-.6.68-.97l2.02-9.45c.2-.45.98-.46 1 .03.04 1.18.05 2.18.05 3.3 0 1.25.04 5.27.04 6.52 0 .41.02.87.33 1.13.21.17.49.2.76.22 1.88.12 3.78-.09 5.59-.63.26-.08.53-.17.7-.39.17-.22.2-.52.22-.8.33-4.64.83-14.27.64-18.91l-.09-1.95c-.04-.66-.02-1.33 0-1.99v-.01Z"/><path fill="#0F1C2E" d="M214.21 292.221c.04.93.08 3.3-.04 6.78-.05 1.74-.14 3.76-.25 6-.06 1.12-.13 2.3-.2 3.53-.04.61-.08 1.24-.12 1.88-.02.32-.04.64-.07.97-.02.33-.04.68-.1.8.05.16-.81.36-1.41.51-.65.15-1.31.26-1.99.32-.68.06-1.37.08-2.07.05-.35-.02-.75-.04-.82-.1-.06-.02-.14-.18-.15-.52 0-1.48-.01-3-.02-4.54v-2.35c-.01-1.02-.03-2.04-.04-3.07-.03-.35-.15-.5-.23-.63-.06-.11-.21-.26-.48-.33-.25-.07-.53-.04-.75.05-.25.11-.32.21-.45.34-.07.09-.13.18-.19.31-.06.14-.09.34-.13.52l-.23 1.05-.26 1.2c-.35 1.6-.7 3.22-1.05 4.86l-.26 1.23-.12.58-.09.18c-.04.08-.08.16-.12.22-.18.26-.26.31-.61.37-.34.04-.81.06-1.22.09l-5.05.33c-3.37.22-6.74.45-10.06.67l-1.24.08c-.45.04-.77.03-.78-.02-.07-.03-.2-.33-.17-.58.04-.28.12-.72.23-1.05.43-1.44 1.34-2.71 2.42-3.77 2.19-2.15 5-3.42 7.59-4.91 1.29-.75 2.55-1.55 3.65-2.53.28-.24.54-.5.79-.75l.37-.4.36-.48c.4-.64.69-1.28.94-1.91.99-2.52 1.57-4.9 2.14-7.04.28-1.06.54-2.11.8-2.98.13-.39.32-.67.56-.86.23-.18.44-.22.74-.19.61.08 1.34.5 2.05.74.7.25 1.35.41 1.92.51 1.15.2 1.98.17 2.41.15 1.12-.06 2.12-.34 2.93-.71.16-.08.39-.19.46-.24.02-.02.06-.04.09-.03.04 0 .07.03.09.06.02.03.06.22.09.35.22 1.13.33 1.85.51 1.94.15.09.38-.41.44-1.71v-.53c0-.15-.02-.59-.25-.85-.21-.29-.59-.47-1-.43-.1 0-.21.03-.31.07l-.2.08-.36.15c-.87.31-1.96.56-3.27.53-.36-.02-1.09-.04-2.1-.29-.51-.13-1.07-.31-1.7-.57-.32-.14-.69-.3-1.13-.43-.44-.12-1.02-.21-1.63 0-.6.23-1.03.67-1.33 1.18-.15.26-.25.52-.33.79-.07.24-.14.48-.2.73-.25.97-.52 2-.8 3.09-.58 2.14-1.17 4.58-2.23 6.9-.13.29-.29.55-.44.81l-.25.34-.33.36c-.46.47-.96.91-1.5 1.33-1.09.83-2.32 1.57-3.62 2.29-2.58 1.43-5.55 2.92-7.74 5.55-1.08 1.33-1.93 2.87-2.11 4.81.02.54.15 1.18.82 1.6.33.18.67.2.91.19l.65-.04c.83-.06 1.67-.12 2.51-.17 3.35-.23 6.75-.47 10.15-.71l2.54-.18 1.27-.09c.43-.04.81-.02 1.37-.15 1.33-.35 1.53-1.79 1.67-2.46.17-.82.35-1.65.52-2.46.33-1.58.66-3.14.99-4.68l.04-.22c.02-.07.14-.1.18-.03.01.07 0 .15.01.22v.8c.03 1.59.04 3.16.06 4.7 0 .77.01 1.53.02 2.29.01.38-.03.73.06 1.22.05.24.14.52.37.76.23.24.54.35.77.39 1.62.17 3.04.05 4.47-.21.73-.15 1.34-.28 2.1-.56.2-.09.44-.24.6-.49.16-.24.21-.48.24-.68.05-.4.05-.68.08-1.02.67-10.4.64-17.69.5-18.75-.09-1.17-.16-2.02-.23-2.59-.08-.57-.18-.85-.27-.86-.1 0-.19.27-.27.83-.08.56-.14 1.4-.09 2.48l-.02-.01Z"/><path fill="#1CAAE6" d="M245.31 165.741a1.61 1.61 0 0 1 1.47-2.15h.02c4.36-.13 8.55-2.8 10.51-6.69 2.86-5.67.93-12.51-1.4-18.42-4.67-11.86-13.99-23.74-27.21-25.97-.96-.16-2.02-.03-2.95.26-2.69.82-.74 2.88-1.84 4.69-.85 1.39-2.8.27-3.86-.21-3.45-1.56-7.18 1.65-8.71 4.52-1.35 2.55-.9 5.62-1.13 8.5-.42 5.31-3.19 10.12-3.63 15.42-.48 5.75.97 11.87 1.6 17.59 1.46 13.21-3.93 28.17-3.44 41.45.55 14.95 1.17 30.69 7.53 44.18.28.6.93.94 1.59.83 9.71-1.57 24.88-7.06 33.11-12.46.49-.32 1.01-.7 1.17-1.26.13-.47-.03-.97-.19-1.44l-1.15-3.38c-.27-.78.16-1.63.95-1.89 2.15-.72 4.24-1.71 6.31-2.65 2.25-1.03 5.1-1.99 6.49-4.18.95-1.49 1.31-3.32 1.25-5.07-.08-2.33-.82-4.58-1.55-6.79-4.75-14.31-9.49-28.62-14.24-42.93l-.7-1.95Z"/><path fill="#0F1C2E" d="M247.36 228.07c-.31-.61-1.82-3.06-3.07-6.8-1.29-3.72-2.17-8.7-2.83-13.71-1.55-10.02-3.09-20-3.28-21.18-.49-3.08-1.95-3.65-1.29.51.19 1.16 1.83 11.32 3.46 21.39.72 5.05 1.72 10.11 3.13 13.81 1.36 3.72 2.91 6.05 3.11 6.38 1.02 1.46 1.54 1.01.77-.39v-.01ZM220.3 161.6c-.02-.21-.08-.74-.16-1.52-.03-.38-.05-.83-.03-1.3.01-.46.12-1.02.33-1.26.09-.12.29-.21.56-.28.31-.08.63-.16.96-.24.66-.16 1.35-.35 2.06-.55 1.42-.39 2.9-.85 4.37-1.35 5.9-1.94 11.43-4.74 12.07-5.09 1.7-.89 1.48-2.3-.77-1.12-.62.34-6.16 3.2-12.01 5.19-1.45.51-2.92.98-4.31 1.39-.7.2-1.37.39-2.01.57-.32.09-.62.15-1.01.3-.37.13-.75.48-.92.84-.32.71-.3 1.3-.31 1.83 0 .52.05.97.1 1.35.1.75.2 1.22.22 1.34.14.54.35.69.54.71.2.02.36-.34.32-.81Z"/><path fill="#0F1C2E" d="M232.91 136.22c.02.45.76 3.64 1.96 6.67 1.16 3.04 2.77 5.87 2.97 6.2.52.87 1.79.37 1.12-.76-.19-.31-1.84-3.09-3.05-6.05-1.26-2.94-2.08-6.01-2.16-6.24-.21-.51-.88-.34-.84.18ZM224.27 174.761c.2.11.72.4 1.56.64.83.23 1.99.37 3.29.17 1.29-.2 2.75-.71 4.01-1.73.62-.5 1.21-1.11 1.65-1.84.46-.72.73-1.46 1.15-1.93.75-1.01 2.21-.4 3.77-.1.77.15 1.79.13 2.54-.43.76-.54 1.06-1.32 1.29-1.92.4-1.24.62-2.2 1-2.66.34-.48.71-.53.85-.58.72-.15 1.43-.43 1.44-.79.01-.17-.11-.33-.4-.46-.29-.1-.78-.24-1.59 0-.2.06-.96.36-1.51 1.22-.53.83-.72 1.98-1.1 3.04-.19.53-.47.97-.88 1.21-.41.23-1.01.23-1.7.08-.7-.13-1.45-.39-2.38-.4-.46 0-.97.09-1.42.33-.45.25-.8.63-1.05 1-.5.76-.75 1.49-1.15 2.06-.41.58-.89 1.1-1.45 1.51-1.11.81-2.38 1.28-3.5 1.41-1.13.15-2.1.02-2.78-.15-.68-.18-1.08-.4-1.19-.42-.89-.42-1.33.11-.43.75l-.02-.01Z"/><path fill="#0F1C2E" d="M224.17 173.541c.09-.26.32-1.38.43-2.94.11-1.56.04-3.57-.32-5.54-.34-1.97-.97-3.88-1.61-5.3-.29-.71-.64-1.35-.97-1.79-.33-.45-.66-.72-.77-.8-.3-.23-.64-.3-.88-.24-.24.05-.39.2-.43.36-.07.36.12.64.55 1.01.14.08.78.72 1.37 2.14a23.004 23.004 0 0 1 2.02 10.32c-.05 1.47-.22 2.48-.22 2.63-.03.66.64.79.84.17l-.01-.02Z"/><path fill="#0F1C2E" d="M223.82 173.15c-.05-.15-.72-.92-1.19-1.82-.49-.88-.75-1.84-.78-1.95-.08-.28-1.42-.06-1.29.41.03.13.42 1.25 1.08 2.2.63.97 1.48 1.73 1.57 1.76.2.08.66-.43.61-.61v.01ZM212.49 137.931c.22-.53.98-2.73 2.03-5.79.52-1.53 1.11-3.27 1.74-5.12.31-.93.64-1.88.97-2.85.16-.49.33-.97.5-1.47l.23-.69s.04-.05.07-.04l.32.02.39.04c.26.02.52.07.78.1.52.08 1.03.18 1.54.3a18.423 18.423 0 0 1 4.89 1.98c.41.27.92.27 1.32.07.4-.19.66-.61.63-1.07 0-.27-.01-.54-.02-.81-.02-.47-.06-.93-.1-1.37-.19-1.77-.53-3.23-.74-4.32-.22-1.09-.34-1.81-.38-2.06-.2-1.26-.57-2.04-.92-2.08-.33-.04-.66.73-.37 2.53.04.25.17 1 .4 2.08.22 1.08.55 2.49.73 4.13.08.71.14 2.11.09 1.77h-.03l-.07-.04c-.22-.13-.44-.25-.67-.36-.46-.23-.93-.46-1.42-.66-.98-.41-2.02-.74-3.09-.99-.54-.12-1.08-.22-1.63-.3-.28-.03-.55-.07-.83-.1l-.41-.04-.48-.03c-.5-.04-.97.32-1.08.79l-.26.79c-.17.51-.33 1.01-.49 1.52-.33 1-.65 1.99-.96 2.94-.62 1.91-1.2 3.7-1.7 5.25-1 3.1-1.69 5.26-1.77 5.57-.38 1.42.28 1.58.8.3l-.01.01Z"/><path fill="#1CAAE6" d="M161.24 100.241c.01-.05.02-.1.03-.14.26-1.23.92-2.3 1.27-3.48.17-.6.19-1.22.26-1.84.16-1.38 2.04-3.06 2.75-3.65.15-.13.37-.12.51 0 4.95 4.24 10.49 8.28 15.97 11.77 3.14 2 6.3 4 9.73 5.46 1.85.79 3.77 1.42 5.62 2.23 2.31 1.01 4.49 2.23 6.73 3.35 2.34-.57 4.8-.96 7.23-1.47.47-.1.77.49.42.82-6.46 5.03-12.29 11.67-13.63 19.75-.54 3.26-.32 6.6-.39 9.9-.08 3.9-1.03 7.72-1.46 11.59-.42 3.71.04 7.47-.33 11.2-.4 3.96 4.23 10.5 3.25 14.35-1.89 7.43 2.53 15.65.84 23.01-.82 3.56 1.91 10.66 1.51 14.29-.99 9.1.99 18.19 0 27.28-2.76.64-19.68-4.25-22.16-5.62-.54-.3-1.08-.67-1.31-1.24-.24-.59-.09-1.25.05-1.87 2.56-10.72 2.07-21.85 2.41-32.78.23-7.31 1.53-14.5 2.54-21.72 0-2.82.76-5.88 1.04-8.7.99-9.86 2.46-19.64 4.01-29.43-1.97-5.13-5.07-17.65-7.32-20.43-1.85-2.29-5.52-4.51-7.64-6.55-3.15-3.04-9.42-10.76-11.69-13.1-.64-.66-.4-2.12-.22-2.99l-.02.01Z"/><path fill="#0F1C2E" d="M195.45 131.441c.09-.23.35-1.05.84-2.18.49-1.13 1.23-2.56 2.15-4.03.92-1.48 2.01-3.01 3.09-4.41.54-.7 1.07-1.37 1.57-1.99.14-.18.29-.35.42-.52.26-.29.45-.59.45-.86.03-.29-.09-.6-.28-.8-.2-.21-.41-.31-.74-.34-1.91-.1-3.1-.16-3.37-.17-1.48-.07-1.84 1.27.13 1.36.15 0 .62.03 2.68.11 0 0 .04 0 .02.02-.39.51-.86 1.11-1.36 1.77a61.13 61.13 0 0 0-3.22 4.67c-1.02 1.66-1.86 3.33-2.39 4.66s-.77 2.29-.8 2.45c-.14.84.54.95.82.26h-.01Z"/><path fill="#fff" d="M222.55 162.92s-.78.26-.9.26c-2.13-.06-3.82.29-5.98.27-2.16-.02-4.45-.17-6.65-.48-.45-.06-1.4-.59-1.33-.14.03.2.5.99.67 1.1.74.5 1.48 1 2.22 1.49.17.12.36.24.45.43.13.28.03.61-.1.89-.8 1.64-2.56 2.54-4.2 3.33-1.4.67-2.79 1.34-4.19 2.01-.06.03-.11.05-.16.1-.15.15-.07.43.11.54.18.11.4.13.61.13 1.35.03 2.71.05 4.06.08.67.01 1.34.03 1.99-.12.66-.14 1.28-.44 1.92-.65 1.06-.34 2.19-.44 3.27-.73 1.83-.48 3.97-1.84 5.86-1.8.6.01 1.2.17 1.79.26.36.06 1.49.32 1.72-.11.05-.09.05-.19.04-.29-.04-1.38-.27-2.73-.52-4.09-.1-.55-.21-1.11-.35-1.65-.05-.19-.12-.74-.33-.84v.01Z"/><path fill="#0F1C2E" d="M210.94 165.47c-.11-.11-.43-.37-.88-.71-.44-.34-1.06-.77-1.57-1.34-.1-.11-.07-.1-.11-.15-.02-.04-.03-.08 0-.12.03-.04.09-.01.13 0l.06.02.33.08c1.04.25 2.17.43 3.28.51.55.05 1.07.1 1.54.21.54.12 1.12.23 1.65.26 1.08.1 2.1.06 2.97 0 1.75-.14 2.97-.4 3.23-.44 1.34-.25 1.42-1.64-.36-1.31-.25.04-1.45.3-3.13.45-.84.07-1.8.11-2.79.03-.52-.05-.94-.12-1.54-.24-.59-.1-1.16-.13-1.71-.17-1.08-.07-2.14-.23-3.13-.45-.34-.07-.91-.26-1.2-.2-.28.01-.61.32-.65.65-.05.33.04.66.24.99.09.16.22.31.33.47l.26.27c.68.63 1.3 1.01 1.73 1.31.43.29.7.47.77.52.58.38 1.08-.09.55-.66v.02ZM223.02 169.299c-.47-.09-2.59-.45-5.4.19-.7.16-1.43.38-2.18.64-.75.26-1.5.59-2.26.83-1.54.51-3.23.84-4.95 1.01-.86.09-1.72.14-2.58.17-.43 0-.85.02-1.27.02h-.67c-.06.01-.03-.06 0-.06.19-.03.38-.07.56-.1.38-.06.8-.18 1.14-.31 1.38-.55 2.36-1.22 3.13-1.7.74-.49 1.24-.82 1.41-.94.89-.61 1.26-1.21 1.15-1.54-.1-.33-.86-.31-2.07.53-.17.11-.66.45-1.4.94-.74.47-1.74 1.14-2.91 1.57-.29.11-.56.16-.96.23l-.29.06c-.17.04-.36.08-.52.14-.34.12-.64.28-.86.47-.43.38-.66.88-.43 1.44.06.13.14.22.2.27.06.05.13.12.33.13.33.04.67.09 1.01.13.51 0 1.03-.01 1.55-.02.44-.02.88-.03 1.32-.05.89-.05 1.79-.12 2.68-.23 1.79-.23 3.57-.63 5.18-1.23 1.58-.65 2.96-1.19 4.26-1.47 2.57-.58 4.43-.27 4.68-.28 1.17.09 1.3-.58.15-.85v.01Z"/><path fill="#fff" d="M210.87 163.48c-.76-.19-1.9-.42-2.59-.76-.32-.16-.29.5-.12.73.42.56 1.43.94 2.25 1.63.63.53.52.42 1.15.94 2.08 1.7 5.04 2.39 7.73 2.28.3-.01.62-.04.88-.18.31-.16.52-.46.71-.74l1.17-1.68c.35-.51.56-.93.61-1.58.04-.46-.12-.84-.56-.7-5.94 1.79-8 .86-11.24.07l.01-.01Z"/><path fill="#0F1C2E" d="M214.43 250.581c-.27 2.13-1.89 31.18-1.99 33.02-.13 2.39 1.19 3.08 1.36-.15.09-1.81 1.5-31.57 1.48-32.78-.01-1.34-.7-1.34-.86-.09h.01ZM197.57 245.78c-.03.61-.09 3.17.2 6.67.27 3.5.91 7.93 1.69 12.3.8 4.36 1.6 8.71 2.23 12.1.6 3.39.92 5.82.99 6.34.33 2.68 1.76 3.27 1.31-.43-.08-.51-.42-3.02-1.07-6.47-.66-3.44-1.52-7.84-2.36-12.23-.83-4.38-1.48-8.76-1.78-12.14-.32-3.38-.31-5.75-.34-6.09-.09-1.52-.77-1.49-.86-.06l-.01.01ZM199.24 179.091c.05.13.42.71 1.17 1.1.74.4 1.75.6 2.7.68 1.88.12 3.7.19 3.93.2.57.02.76-1.33 0-1.35-.21 0-2.09-.03-3.94-.05-.89-.03-1.75-.18-2.29-.44-.55-.26-.8-.59-.85-.62-.21-.16-.83.13-.7.49l-.02-.01Z"/><path fill="#fff" d="M229.42 314.039s.03 0 .05.01c.24.05.59-.09.83-.13l1.57-.21 3.24-.43c.28-.04.58-.08.8-.24.42-.31.35-.88.25-1.35-1.72-8.07-2.04-16.27-2.66-24.47-.04-.51-.59-.86-1.17-.76-4.17.75-8.61.38-12.56-1.04-.62-.22-1.29.16-1.31.74-.14 4.11-.37 8.25-.93 12.32-.23 1.62-.54 3.35-1.82 4.55-1.15 1.07-2.86 1.51-4.32 2.25-2.94 1.5-4.84 4.39-4.88 7.34 0 .39.31.73.74.82 2.82.57 5.7.89 8.58.95 1.44.03 2.88 0 4.32-.09 1.1-.07 2.2-.12 3.31-.18.18 0 .35-.02.52-.08.71-.27.62-1.57.74-2.17.17-.82.34-1.64.5-2.46.32-1.64.62-3.28.89-4.93.05-.31.47-2.74.99-2.39.18.12.22.54.27.72.17.54.31 1.09.44 1.64.3 1.33.44 2.71.53 4.06.06 1.05-.12 2.09-.03 3.14.06.66.34 2.16 1.11 2.38v.01Z"/><path fill="#0F1C2E" d="M228.71 311.16c-.02-.44.09-1.22.09-2.41-.05-1.17-.15-2.62-.51-4.36-.14-.52-.28-1.06-.42-1.61-.07-.42-.24-.78-.37-.92a.69.69 0 0 0-.24-.21.524.524 0 0 0-.41-.04c-.25.08-.41.25-.59.56-.17.31-.3.73-.42 1.17l-.11.48-.08.41-.15.81c-.2 1.09-.41 2.23-.63 3.41-.2 1.22-.5 2.36-.72 3.76-.03.34-.06.64-.12.91s-.18.43-.23.43c-.09.05-.51.05-.84.07-.34.02-.69.03-1.04.05-1.4.09-2.82.11-4.26.13-2.9.12-5.93-.16-9-.68l-1.15-.22c-.32-.04-.37-.17-.4-.25v-.46c.03-.18.06-.37.08-.55.06-.36.15-.73.27-1.08.48-1.42 1.4-2.71 2.59-3.69.6-.49 1.25-.89 1.96-1.23.72-.34 1.5-.62 2.28-.99.78-.37 1.59-.85 2.21-1.58.62-.72 1-1.59 1.24-2.44.44-1.73.56-3.36.76-5.03.17-1.66.3-3.32.39-4.96l.12-2.46.05-1.22c.02-.38.02-.94.05-.85.04-.08.24-.16.4-.11l.52.18c.19.07.39.13.58.19.78.25 1.57.44 2.36.6 3.16.64 6.33.67 9.27.16.23-.04.27-.05.35-.04.07 0 .14.04.19.07.05.03.06.07.07.09v.13l.03.27.15 2.09c.09 1.38.19 2.71.28 4 .35 5.17.78 9.61 1.29 12.94.25 1.66.49 3.05.71 4.12.1.51.22 1.03.25 1.3.04.29-.02.37-.02.37s-.03.05-.21.09c-.16.04-.42.07-.65.11-.46.08-.89.15-1.29.21-.81.14-1.51.29-2.08.43-.57.15-1.04.25-1.37.43-.29.16-.42.22-.5.29-.08.06.03.22.37.25.16.02.37 0 .53 0h.79c.62-.02 1.41-.07 2.39-.16.49-.05 1.03-.11 1.62-.17.28-.05.68-.03 1.19-.37.24-.17.44-.46.52-.73.09-.28.09-.53.07-.76-.06-.54-.23-1.18-.43-2.27-.2-1.06-.44-2.44-.68-4.11-.48-3.34-.9-7.81-1.26-13.05-.09-1.31-.19-2.67-.29-4.06-.03-.35-.05-.7-.08-1.06-.03-.2.01-.29-.09-.68-.1-.32-.32-.58-.56-.75-.24-.17-.52-.26-.81-.29-.14-.01-.28-.01-.42.01l-.29.05c-.35.06-.7.11-1.06.16-2.85.35-5.91.2-8.91-.56-.38-.1-.75-.2-1.12-.32l-.56-.18c-.2-.06-.31-.13-.67-.2-.62-.1-1.32.14-1.68.79-.08.16-.14.35-.15.53v.32l-.03.61c-.06 1.62-.13 3.26-.24 4.9-.11 1.64-.25 3.3-.44 4.94-.22 1.64-.33 3.34-1.03 4.67-.66 1.36-2.11 2-3.66 2.64-1.57.61-3.16 1.58-4.29 2.91-1.15 1.32-1.93 2.96-2.14 4.69-.03.21-.04.43-.05.65 0 .1-.02.21 0 .41.03.18.1.34.19.48.18.28.45.48.74.58.34.11.45.1.67.15a50.341 50.341 0 0 0 7.04.82c1.53.09 3.04-.03 4.5-.04 1.47-.01 2.86-.14 4.24-.2.16-.01.35 0 .59-.06.23-.04.55-.21.71-.42.34-.43.38-.84.45-1.19.05-.35.06-.71.11-.96.06-.32.12-.63.19-.94.51-2.51.88-4.88 1.26-6.94.04-.17.07-.33.11-.49.02-.07.04-.14.07-.21.03-.06.06-.16.14-.14.06.04.06.12.08.18.06.23.13.46.19.68.12.41.2.81.27 1.19.27 1.53.37 2.86.39 3.77-.02.94-.06 1.61-.05 1.88.02 1.22.35 2.1.72 2.62.4.55.86.52.85.43.03-.11-.2-.22-.37-.67-.17-.45-.35-1.21-.34-2.21l-.02.01Z"/><path fill="#fff" d="M9.09 165.85c.12-.09.24-.19.34-.31.31-.38.49-.85.69-1.31 2.39-5.71 7.45-10.4 14.07-9.49 3.24.45 6.14 2.23 8.5 4.42.57.53 1.37 1.49 2.15 1.51.33 0 1.08-.16 1.4-.26 4-1.17 6.59-1.5 10.49-.03 3.9 1.47 7.42 5.28 8.15 9.38.3 1.66.08 3.39-.34 5.02-.47 1.84-2.03 3.58-3.54 4.67a9.32 9.32 0 0 1-4.47 1.73c-1.8.19-3.56.33-5.38.13-1.96-.22-4.04-.81-6-.23-1.04.31-1.96.93-2.92 1.44-3.03 1.61-6.88 2.1-9.84.38-1.44-.84-2.64-2.16-4.24-2.61-2-.57-4.29.2-6.26.62-3.09.66-5.94.67-8.11-1.91-2.82-3.36-3.15-9.75 1.24-12.03.48-.25.99-.4 1.53-.51.81-.16 1.84-.11 2.54-.59v-.02Z"/><path fill="#121C2D" d="M12.36 161.001c.3-.4.84-1.12 1.71-2 .88-.87 2.09-1.91 3.77-2.7.83-.4 1.8-.66 2.85-.86 1.05-.2 2.19-.25 3.37-.12 2.37.24 4.86 1.36 7.1 3.13.57.44 1.12.92 1.66 1.42l.83.8c.4.37.93.54 1.44.53.25 0 .53-.06.75-.14l.55-.17c.36-.13.74-.21 1.12-.31.76-.19 1.54-.31 2.33-.4 3.15-.31 6.63.21 9.44 2.11 2.74 1.89 4.95 5.07 5.21 8.54.11 1.72-.27 3.51-1.1 5.03-.85 1.53-2.16 2.78-3.69 3.69-1.52.91-3.25 1.5-5.01 1.73-.88.11-1.77.13-2.64.05-.87-.07-1.71-.3-2.62-.53-.9-.23-1.85-.45-2.85-.46-1.01-.02-2.04.27-2.89.66-1.71.75-3.22 1.79-4.75 2.15-1.58.34-3.25.13-4.8-.35-.78-.25-1.55-.52-2.21-.9-.69-.38-1.37-.86-2.13-1.27-.75-.41-1.62-.76-2.55-.81-.93-.06-1.78.18-2.53.39-1.47.45-2.87.71-4.26.76-1.38.05-2.7-.15-3.86-.59-1.16-.45-2.14-1.13-2.87-1.98-.74-.84-1.24-1.8-1.53-2.75-.29-.95-.29-1.89-.24-2.74.22-1.7 1.01-2.98 1.73-3.8.72-.85 1.41-1.26 1.74-1.48 1.82-1.09 3.6-1.3 4.83-1.21 1.24.1 1.98.36 2.16.21.08-.06.01-.18-.25-.37s-.7-.48-1.41-.68c-.7-.23-1.67-.36-2.86-.23-1.19.13-2.59.62-3.93 1.63-.18.15-.44.38-.78.68-.17.15-.33.35-.52.56-.2.2-.39.44-.56.72a8.256 8.256 0 0 0-1.53 4.8c-.01 2.06.89 4.52 2.92 6.3 1.01.89 2.3 1.56 3.72 1.9 1.41.35 2.93.42 4.46.24.76-.09 1.53-.23 2.3-.42.77-.19 1.5-.45 2.2-.58 1.39-.32 2.67.31 4.07 1.21.69.43 1.48.91 2.32 1.21.81.32 1.67.58 2.56.76 1.76.35 3.76.35 5.53-.46 1.7-.73 3.22-1.8 4.82-2.2 1.59-.39 3.3.25 5.18.66 3.86.77 7.97-.31 11.06-2.75 1.54-1.23 2.78-2.89 3.4-4.79.64-1.87.71-3.93.24-5.82-.46-1.9-1.42-3.61-2.63-5.06a13.101 13.101 0 0 0-4.35-3.46c-3.33-1.6-7.04-1.78-10.3-1.13-.82.15-1.62.38-2.39.64-.22.07-.34.12-.47.13a1.123 1.123 0 0 1-.76-.17c-.08-.05-.21-.19-.36-.33-1.12-1.09-2.29-2.07-3.52-2.88-2.44-1.65-5.2-2.52-7.69-2.49-1.24 0-2.41.17-3.45.46-1.06.26-2.01.68-2.82 1.13-1.62.93-2.72 1.99-3.49 2.81-.76.83-1.19 1.42-1.36 1.66-1.51 2.17-1.76 3.47-1.62 3.54.2.1.81-.99 2.2-2.87l.01.02Z"/></g><defs><clipPath id="a"><path fill="#fff" d="M0 0h337v315H0z"/></clipPath></defs></svg>