<svg width="44" height="64" viewBox="0 0 44 64" fill="none" xmlns="http://www.w3.org/2000/svg">
<g clip-path="url(#clip0_1224_155537)">
<path d="M22.041 31.9995C22.041 26.1685 26.7767 21.4414 32.6186 21.4414C38.4603 21.4414 43.1961 26.1685 43.1961 31.9995C43.1961 37.8306 38.4603 42.5576 32.6186 42.5576C26.7767 42.5576 22.041 37.8306 22.041 31.9995Z" fill="#1ABCFE"/>
<path d="M0.885742 53.1167C0.885742 47.2857 5.62147 42.5586 11.4633 42.5586H22.0408V53.1167C22.0408 58.9478 17.3052 63.6747 11.4633 63.6747C5.62147 63.6747 0.885742 58.9478 0.885742 53.1167Z" fill="#0ACF83"/>
<path d="M22.041 0.326172V21.4423H32.6186C38.4604 21.4423 43.1961 16.7153 43.1961 10.8842C43.1961 5.05318 38.4604 0.326172 32.6186 0.326172H22.041Z" fill="#FF7262"/>
<path d="M0.885742 10.8842C0.885742 16.7153 5.62147 21.4423 11.4633 21.4423H22.0408V0.326172H11.4633C5.62147 0.326172 0.885742 5.05318 0.885742 10.8842Z" fill="#F24E1E"/>
<path d="M0.885742 31.9995C0.885742 37.8306 5.62147 42.5576 11.4633 42.5576H22.0408V21.4414H11.4633C5.62147 21.4414 0.885742 26.1685 0.885742 31.9995Z" fill="#A259FF"/>
</g>
<defs>
<clipPath id="clip0_1224_155537">
<rect width="42.7454" height="64" fill="white" transform="translate(0.667969)"/>
</clipPath>
</defs>
</svg>
