<svg width="73" height="64" viewBox="0 0 73 64" fill="none" xmlns="http://www.w3.org/2000/svg">
<g clip-path="url(#clip0_1224_155533)">
<path fill-rule="evenodd" clip-rule="evenodd" d="M26.5852 26.215C27.7085 24.2734 28.8766 22.4209 30.0723 20.6705C32.1891 20.5124 34.3807 20.4291 36.6273 20.4291C38.8739 20.4291 41.0656 20.5124 43.1824 20.6705C44.378 22.4209 45.5461 24.2734 46.6694 26.215C47.7927 28.1566 48.8163 30.0924 49.7374 32.0009C48.8163 33.9095 47.7927 35.8452 46.6694 37.7868C45.5461 39.7285 44.378 41.581 43.1824 43.3313C41.0656 43.4895 38.8739 43.5728 36.6273 43.5728C34.3807 43.5728 32.1891 43.4895 30.0723 43.3313C28.8766 41.581 27.7085 39.7285 26.5852 37.7868C25.4619 35.8452 24.4384 33.9095 23.5172 32.0009C24.4384 30.0924 25.4619 28.1566 26.5852 26.215ZM23.8711 24.6512C24.5807 23.4248 25.309 22.2302 26.0523 21.0707C23.7743 21.3559 21.6088 21.7302 19.5846 22.1815C20.2051 24.1565 20.963 26.2152 21.8545 28.3266C22.4891 27.1045 23.1616 25.8777 23.8711 24.6512ZM36.6273 17.3016C35.2082 17.3016 33.8074 17.3337 32.4295 17.3963C33.816 15.5702 35.2236 13.8858 36.6273 12.3621C38.031 13.8858 39.4386 15.5702 40.8251 17.3963C39.4473 17.3337 38.0464 17.3016 36.6273 17.3016ZM28.3403 17.6768C30.3219 14.882 32.3772 12.3423 34.4409 10.1147C33.4529 9.15617 32.4733 8.28335 31.5112 7.50301C29.0071 5.47195 26.6874 4.12161 24.6999 3.47996C22.7122 2.83824 21.2302 2.95302 20.1741 3.56153C19.118 4.17003 18.2774 5.39344 17.8404 7.43216C17.4035 9.47066 17.4155 12.1506 17.926 15.3304C18.1221 16.5521 18.3898 17.835 18.7276 19.1682C21.6925 18.4985 24.9241 17.992 28.3403 17.6768ZM44.9143 17.6768C42.9327 14.882 40.8774 12.3423 38.8137 10.1147C39.8018 9.15617 40.7813 8.28335 41.7434 7.503C44.2476 5.47195 46.5673 4.1216 48.5547 3.47996C50.5424 2.83824 52.0244 2.95302 53.0805 3.56152C54.1367 4.17003 54.9773 5.39344 55.4142 7.43216C55.8511 9.47066 55.8392 12.1506 55.3287 15.3304C55.1325 16.5521 54.8649 17.835 54.527 19.1682C51.5621 18.4985 48.3305 17.992 44.9143 17.6768ZM58.4232 15.8251C58.2118 17.1417 57.9249 18.5163 57.5647 19.9375C58.9781 20.3368 60.3144 20.7761 61.5627 21.2518C64.7865 22.4802 67.5033 23.981 69.4417 25.7272C71.3798 27.4732 72.6677 29.5906 72.6677 32.0009C72.6677 34.4112 71.3798 36.5286 69.4417 38.2747C67.5033 40.0208 64.7865 41.5217 61.5627 42.7501C60.3144 43.2257 58.9781 43.665 57.5647 44.0643C57.9249 45.4855 58.2118 46.8601 58.4232 48.1767C58.9691 51.5771 59.025 54.6755 58.4788 57.2238C57.9327 59.7719 56.7392 61.9437 54.6475 63.1488C52.5559 64.354 50.0744 64.2996 47.5901 63.4976C45.1056 62.6955 42.4447 61.0979 39.7668 58.9259C38.73 58.0849 37.6806 57.1497 36.6273 56.1277C35.5741 57.1497 34.5247 58.0849 33.4878 58.9259C30.8099 61.0979 28.149 62.6955 25.6645 63.4976C23.1802 64.2996 20.6988 64.354 18.6071 63.1488C16.5155 61.9437 15.3219 59.7719 14.7758 57.2238C14.2296 54.6755 14.2856 51.5771 14.8315 48.1767C15.0428 46.8601 15.3297 45.4855 15.69 44.0643C14.2765 43.665 12.9402 43.2257 11.692 42.7501C8.46815 41.5217 5.75132 40.0208 3.81298 38.2747C1.87482 36.5286 0.586914 34.4112 0.586914 32.0009C0.586914 29.5906 1.87482 27.4732 3.81298 25.7272C5.75132 23.981 8.46815 22.4802 11.692 21.2518C12.9402 20.7761 14.2765 20.3368 15.69 19.9375C15.3297 18.5163 15.0428 17.1417 14.8315 15.8251C14.2856 12.4248 14.2296 9.32631 14.7758 6.77801C15.3219 4.22993 16.5155 2.05815 18.6071 0.853011C20.6988 -0.35213 23.1802 -0.297767 25.6645 0.504277C28.149 1.30639 30.8099 2.90398 33.4878 5.07598C34.5247 5.91695 35.5741 6.85219 36.6273 7.87412C37.6805 6.85219 38.73 5.91695 39.7668 5.07598C42.4447 2.90398 45.1056 1.30639 47.5901 0.504275C50.0744 -0.297769 52.5559 -0.352132 54.6475 0.85301C56.7392 2.05815 57.9327 4.22993 58.4788 6.77801C59.025 9.32631 58.9691 12.4247 58.4232 15.8251ZM47.2023 21.0707C49.4803 21.3559 51.6458 21.7302 53.67 22.1815C53.0495 24.1565 52.2916 26.2152 51.4001 28.3266C50.7656 27.1045 50.093 25.8777 49.3835 24.6512C48.6739 23.4248 47.9456 22.2302 47.2023 21.0707ZM56.7135 22.9475C55.8122 25.8448 54.6359 28.8909 53.2014 32.0009C54.6359 35.111 55.8122 38.1571 56.7135 41.0544C58.0393 40.6798 59.2865 40.2696 60.4448 39.8283C63.4594 38.6796 65.7911 37.35 67.3417 35.9531C68.8924 34.5561 69.5338 33.2179 69.5338 32.0009C69.5338 30.7839 68.8924 29.4457 67.3417 28.0487C65.7911 26.6519 63.4594 25.3222 60.4448 24.1735C59.2865 23.7322 58.0393 23.3221 56.7135 22.9475ZM49.3835 39.3506C50.093 38.1242 50.7656 36.8974 51.4001 35.6753C52.2916 37.7866 53.0495 39.8453 53.67 41.8203C51.6458 42.2716 49.4803 42.6459 47.2023 42.9312C47.9456 41.7717 48.6739 40.577 49.3835 39.3506ZM44.9143 46.325C48.3305 46.0098 51.5621 45.5033 54.527 44.8336C54.8649 46.1668 55.1325 47.4498 55.3287 48.6715C55.8392 51.8512 55.8511 54.5312 55.4142 56.5697C54.9773 58.6084 54.1367 59.8318 53.0805 60.4403C52.0244 61.0488 50.5424 61.1636 48.5547 60.5219C46.5673 59.8802 44.2476 58.5299 41.7434 56.4988C40.7813 55.7185 39.8018 54.8457 38.8137 53.8871C40.8774 51.6595 42.9327 49.1199 44.9143 46.325ZM40.8251 46.6055C39.4386 48.4317 38.031 50.116 36.6273 51.6398C35.2236 50.116 33.816 48.4317 32.4295 46.6055C33.8074 46.6681 35.2082 46.7003 36.6273 46.7003C38.0464 46.7003 39.4473 46.6681 40.8251 46.6055ZM23.8711 39.3506C24.5807 40.577 25.309 41.7717 26.0523 42.9312C23.7743 42.6459 21.6088 42.2716 19.5846 41.8203C20.2051 39.8453 20.963 37.7866 21.8545 35.6753C22.4891 36.8974 23.1616 38.1242 23.8711 39.3506ZM28.3403 46.325C24.9241 46.0098 21.6925 45.5033 18.7276 44.8336C18.3898 46.1668 18.1221 47.4498 17.926 48.6715C17.4155 51.8512 17.4035 54.5312 17.8404 56.5697C18.2774 58.6084 19.118 59.8318 20.1741 60.4403C21.2302 61.0488 22.7122 61.1636 24.6999 60.5219C26.6874 59.8802 29.0071 58.5299 31.5112 56.4988C32.4733 55.7185 33.4529 54.8457 34.4409 53.8871C32.3772 51.6595 30.3219 49.1199 28.3403 46.325ZM12.8099 39.8283C13.9681 40.2696 15.2153 40.6798 16.5412 41.0544C17.4425 38.1571 18.6187 35.111 20.0533 32.0009C18.6187 28.8909 17.4425 25.8448 16.5412 22.9475C15.2153 23.3221 13.9681 23.7322 12.8099 24.1735C9.79523 25.3222 7.46354 26.6519 5.91298 28.0487C4.36224 29.4457 3.72086 30.7839 3.72086 32.0009C3.72086 33.2179 4.36224 34.5561 5.91298 35.9531C7.46354 37.35 9.79523 38.6796 12.8099 39.8283ZM43.0518 32.0013C43.0518 35.5422 40.1754 38.4127 36.6272 38.4127C33.079 38.4127 30.2026 35.5422 30.2026 32.0013C30.2026 28.4603 33.079 25.5898 36.6272 25.5898C40.1754 25.5898 43.0518 28.4603 43.0518 32.0013Z" fill="#61DAFB"/>
</g>
<defs>
<clipPath id="clip0_1224_155533">
<rect width="72.0808" height="64" fill="white" transform="translate(0.586914)"/>
</clipPath>
</defs>
</svg>
