<svg width="65" height="64" viewBox="0 0 65 64" fill="none" xmlns="http://www.w3.org/2000/svg">
<g clip-path="url(#clip0_1224_155528)">
<path fill-rule="evenodd" clip-rule="evenodd" d="M0.586914 6.25C0.586914 2.79822 3.38513 0 6.83691 0H58.3369C61.7887 0 64.5869 2.79822 64.5869 6.25V57.75C64.5869 61.2018 61.7887 64 58.3369 64H6.83691C3.38513 64 0.586914 61.2018 0.586914 57.75V6.25Z" fill="#3178C6"/>
<path fill-rule="evenodd" clip-rule="evenodd" d="M40.2043 50.928V57.1856C41.2215 57.7071 42.4247 58.0981 43.8137 58.3589C45.2027 58.6196 46.6665 58.75 48.2055 58.75C49.7054 58.75 51.1302 58.6066 52.48 58.3198C53.8299 58.033 55.0135 57.5604 56.0308 56.902C57.048 56.2437 57.8534 55.3833 58.4468 54.3208C59.0402 53.2583 59.3369 51.9449 59.3369 50.3805C59.3369 49.2463 59.1674 48.2523 58.8283 47.3984C58.4892 46.5445 58.0002 45.7851 57.361 45.1203C56.722 44.4554 55.9558 43.8589 55.0624 43.3309C54.169 42.8029 53.1615 42.3042 52.0399 41.835C51.2183 41.496 50.4814 41.1669 49.8293 40.8475C49.1772 40.528 48.6229 40.2021 48.1664 39.8698C47.7099 39.5373 47.3578 39.1853 47.11 38.8138C46.8623 38.4421 46.7383 38.0218 46.7383 37.5524C46.7383 37.1223 46.8492 36.7344 47.0709 36.3889C47.2927 36.0434 47.6057 35.7469 48.0099 35.4991C48.4143 35.2515 48.9098 35.0591 49.4967 34.9222C50.0837 34.7854 50.7357 34.717 51.453 34.717C51.9747 34.717 52.5257 34.7561 53.106 34.8343C53.6864 34.9125 54.27 35.0331 54.857 35.196C55.4439 35.359 56.0144 35.5644 56.5688 35.812C57.123 36.0598 57.6349 36.3465 58.1044 36.6725V30.8255C57.1524 30.4605 56.1123 30.19 54.9842 30.014C53.856 29.838 52.5615 29.75 51.1009 29.75C49.614 29.75 48.2055 29.9097 46.8753 30.2291C45.545 30.5485 44.3745 31.0471 43.3637 31.725C42.3529 32.403 41.5542 33.2666 40.9673 34.3161C40.3804 35.3655 40.0869 36.6203 40.0869 38.0804C40.0869 39.9446 40.6249 41.5351 41.7009 42.8519C42.7768 44.1685 44.4103 45.2831 46.6014 46.1958C47.4622 46.5478 48.2643 46.8931 49.0077 47.2321C49.751 47.5711 50.3934 47.9231 50.9345 48.2881C51.4758 48.6531 51.9029 49.0507 52.216 49.481C52.529 49.9111 52.6855 50.4 52.6855 50.9476C52.6855 51.3517 52.5877 51.7265 52.392 52.072C52.1964 52.4175 51.8997 52.7173 51.5019 52.9715C51.1042 53.2257 50.6085 53.4245 50.0152 53.5679C49.4217 53.7114 48.7273 53.783 47.9317 53.783C46.5753 53.783 45.232 53.5451 43.9017 53.0692C42.5714 52.5935 41.3389 51.8798 40.2043 50.928ZM29.6844 35.5103H37.7119V30.375H15.3369V35.5103H23.3252V58.375H29.6844V35.5103Z" fill="white"/>
</g>
<defs>
<clipPath id="clip0_1224_155528">
<rect width="64" height="64" fill="white" transform="translate(0.586914)"/>
</clipPath>
</defs>
</svg>
